<svg width="84" height="84" viewBox="0 0 84 84" fill="none" xmlns="http://www.w3.org/2000/svg">
<g filter="url(#filter0_d_794_95)">
<path d="M45.7939 47.2642C46.4521 47.4476 46.8952 47.6576 47.123 47.8941C47.3714 48.119 47.4987 48.4054 47.5048 48.7531C47.5154 49.0848 47.4486 49.5074 47.3042 50.0208C47.1644 50.5182 46.9955 50.9036 46.7974 51.1772C46.6154 51.4552 46.3881 51.6168 46.1158 51.662C45.7084 51.7561 45.1836 51.7137 44.5414 51.5347L35.1252 48.9109C34.5472 48.7498 34.1104 48.3945 33.8147 47.845C33.5191 47.2955 33.4525 46.7319 33.6148 46.1543C33.8584 45.2879 34.3787 44.5764 35.1757 44.02C35.9932 43.4519 36.8996 43.0297 37.8949 42.7534C38.8947 42.461 39.8899 42.1847 40.8806 41.9244C41.8759 41.6481 42.7607 41.2718 43.5352 40.7955C44.3257 40.3238 44.8224 39.7269 45.0254 39.0048C45.066 38.8604 45.0662 38.6442 45.026 38.3562C44.9903 38.0521 44.9227 37.7997 44.8233 37.599C44.7445 37.3867 44.5809 37.1681 44.3325 36.9432C44.0841 36.7183 43.703 36.5342 43.1892 36.391C42.6755 36.2479 42.1718 36.3152 41.6782 36.5929C41.2052 36.859 40.8928 37.1699 40.7409 37.5255L40.4889 38.0522L40.4484 38.1966C40.3491 38.5496 40.2586 38.8098 40.1769 38.9774C40.1113 39.1494 39.9826 39.3298 39.791 39.5187C39.442 39.8366 38.7617 39.8547 37.7502 39.5728C36.6264 39.2597 36.0458 38.7692 36.0085 38.1013C36.0004 37.8222 36.0752 37.4019 36.2331 36.8403C36.7022 35.1717 37.7157 33.845 39.2736 32.8604C40.8521 31.8642 42.6046 31.6346 44.5312 32.1714C46.4739 32.7128 47.8579 33.8251 48.6831 35.5084C49.5129 37.1756 49.6864 38.8676 49.2038 40.5844C48.9467 41.499 48.5025 42.3094 47.8711 43.0159C47.2397 43.7223 46.5731 44.2459 45.8714 44.5868C44.3856 45.3147 43.1253 45.7334 42.0903 45.8429L41.4206 45.9158L41.3868 46.0362L45.7939 47.2642Z" fill="url(#paint0_linear_794_95)"/>
</g>
<g filter="url(#filter1_d_794_95)">
<path d="M62.4249 17.9728L37.4272 11.2336C35.3136 10.6638 32.4772 11.3885 32.0105 13.1198L19.0276 61.2772C18.4668 63.357 20.4622 65.7521 22.5758 66.3219L47.5734 73.0612C49.687 73.631 52.2674 72.4694 52.8281 70.3896L65.7186 22.5751C66.2721 20.4993 64.5385 18.5426 62.4249 17.9728ZM45.9053 17.6074L51.8919 19.2214L51.5176 20.6098L45.531 18.9959L45.9053 17.6074ZM35.4582 67.5639C34.0473 67.1835 32.9224 65.7648 33.3891 64.0334C33.7634 62.645 35.193 61.547 36.9525 62.0214C38.3634 62.4018 39.4883 63.8205 39.0216 65.5519C38.5548 67.2832 37.2177 68.0383 35.4582 67.5639ZM50.5433 63.4543L24.8373 56.5242L34.6438 20.149L60.3441 27.0776L50.5376 63.4528L50.5433 63.4543Z" fill="url(#paint1_linear_794_95)"/>
</g>
<defs>
<filter id="filter0_d_794_95" x="29.0059" y="30.3662" width="26.7502" height="29.7725" filterUnits="userSpaceOnUse" color-interpolation-filters="sRGB">
<feFlood flood-opacity="0" result="BackgroundImageFix"/>
<feColorMatrix in="SourceAlpha" type="matrix" values="0 0 0 0 0 0 0 0 0 0 0 0 0 0 0 0 0 0 127 0" result="hardAlpha"/>
<feOffset dy="4"/>
<feGaussianBlur stdDeviation="2"/>
<feComposite in2="hardAlpha" operator="out"/>
<feColorMatrix type="matrix" values="0 0 0 0 0 0 0 0 0 0 0 0 0 0 0 0 0 0 0.25 0"/>
<feBlend mode="normal" in2="BackgroundImageFix" result="effect1_dropShadow_794_95"/>
<feBlend mode="normal" in="SourceGraphic" in2="effect1_dropShadow_794_95" result="shape"/>
</filter>
<filter id="filter1_d_794_95" x="14.9319" y="11.0422" width="54.8909" height="70.1633" filterUnits="userSpaceOnUse" color-interpolation-filters="sRGB">
<feFlood flood-opacity="0" result="BackgroundImageFix"/>
<feColorMatrix in="SourceAlpha" type="matrix" values="0 0 0 0 0 0 0 0 0 0 0 0 0 0 0 0 0 0 127 0" result="hardAlpha"/>
<feOffset dy="4"/>
<feGaussianBlur stdDeviation="2"/>
<feComposite in2="hardAlpha" operator="out"/>
<feColorMatrix type="matrix" values="0 0 0 0 0 0 0 0 0 0 0 0 0 0 0 0 0 0 0.25 0"/>
<feBlend mode="normal" in2="BackgroundImageFix" result="effect1_dropShadow_794_95"/>
<feBlend mode="normal" in="SourceGraphic" in2="effect1_dropShadow_794_95" result="shape"/>
</filter>
<linearGradient id="paint0_linear_794_95" x1="45.8146" y1="26.9233" x2="37.9664" y2="55.0881" gradientUnits="userSpaceOnUse">
<stop stop-color="white"/>
<stop offset="1" stop-color="#BFBFBF"/>
</linearGradient>
<linearGradient id="paint1_linear_794_95" x1="49.7518" y1="14.5562" x2="34.9004" y2="69.6446" gradientUnits="userSpaceOnUse">
<stop stop-color="white"/>
<stop offset="1" stop-color="#BFBFBF"/>
</linearGradient>
</defs>
</svg>
