<svg width="84" height="84" viewBox="0 0 84 84" fill="none" xmlns="http://www.w3.org/2000/svg">
<g clip-path="url(#clip0_331_128)">
<g filter="url(#filter0_d_331_128)">
<path d="M70.9994 17.8605C73.6837 17.8605 75.8597 15.6845 75.8597 13.0003C75.8597 10.3161 73.6837 8.14014 70.9994 8.14014C68.3152 8.14014 66.1392 10.3161 66.1392 13.0003C66.1392 15.6845 68.3152 17.8605 70.9994 17.8605Z" fill="url(#paint0_linear_331_128)"/>
<path d="M71.0002 18.655C67.882 18.655 65.3452 16.1182 65.3452 13.0001C65.3452 9.88194 67.882 7.34521 71.0002 7.34521C74.1184 7.34521 76.6551 9.88194 76.6551 13.0001C76.6551 16.1182 74.1184 18.655 71.0002 18.655ZM71.0002 8.9346C68.7575 8.9346 66.9346 10.7574 66.9346 13.0001C66.9346 15.2427 68.7575 17.0656 71.0002 17.0656C73.2428 17.0656 75.0657 15.2427 75.0657 13.0001C75.0657 10.7574 73.2428 8.9346 71.0002 8.9346Z" fill="url(#paint1_linear_331_128)"/>
<path d="M71 6.17325C70.56 6.17325 70.2053 5.81856 70.2053 5.37856V2.79469C70.2053 2.35694 70.56 2 71 2C71.4378 2 71.7947 2.35469 71.7947 2.79469V5.37856C71.7947 5.81631 71.4378 6.17325 71 6.17325Z" fill="url(#paint2_linear_331_128)"/>
<path d="M71 23.9999C70.56 23.9999 70.2053 23.6452 70.2053 23.2052V20.6214C70.2053 20.1836 70.56 19.8267 71 19.8267C71.4378 19.8267 71.7947 20.1836 71.7947 20.6214V23.2052C71.7947 23.6452 71.4378 23.9999 71 23.9999Z" fill="url(#paint3_linear_331_128)"/>
<path d="M81.2053 13.7945H78.6214C78.1836 13.7945 77.8267 13.4398 77.8267 12.9998C77.8267 12.5598 78.1836 12.2051 78.6214 12.2051H81.2053C81.643 12.2051 82 12.5598 82 12.9998C82 13.4375 81.6453 13.7945 81.2053 13.7945Z" fill="url(#paint4_linear_331_128)"/>
<path d="M63.3786 13.7945H60.7947C60.3569 13.7945 60 13.4375 60 12.9998C60 12.5598 60.3569 12.2051 60.7947 12.2051H63.3786C63.8186 12.2051 64.1733 12.5598 64.1733 12.9998C64.1733 13.4375 63.8164 13.7945 63.3786 13.7945Z" fill="url(#paint5_linear_331_128)"/>
<path d="M76.3907 8.40466C76.1865 8.40466 75.9844 8.32609 75.8295 8.17119C75.5197 7.8614 75.5197 7.35854 75.8295 7.0465L77.6569 5.21916C77.9667 4.90937 78.4695 4.90937 78.7816 5.21916C79.0914 5.52896 79.0914 6.03181 78.7816 6.34385L76.952 8.17344C76.7971 8.32834 76.5928 8.40466 76.3907 8.40466Z" fill="url(#paint6_linear_331_128)"/>
<path d="M63.7831 21.0121C63.5788 21.0121 63.3768 20.9335 63.2219 20.7786C62.9121 20.4688 62.9121 19.966 63.2219 19.6539L65.0492 17.8266C65.359 17.5168 65.8619 17.5168 66.1739 17.8266C66.4837 18.1364 66.4837 18.6392 66.1739 18.9513L64.3466 20.7786C64.1917 20.9335 63.9874 21.0121 63.7831 21.0121Z" fill="url(#paint7_linear_331_128)"/>
<path d="M78.2154 21.0121C78.0111 21.0121 77.8091 20.9335 77.6542 20.7786L75.8268 18.9513C75.517 18.6415 75.517 18.1386 75.8268 17.8266C76.1366 17.5168 76.6395 17.5168 76.9515 17.8266L78.7789 19.6539C79.0887 19.9637 79.0887 20.4666 78.7789 20.7786C78.624 20.9335 78.4197 21.0121 78.2154 21.0121Z" fill="url(#paint8_linear_331_128)"/>
<path d="M65.6104 8.40466C65.4062 8.40466 65.2041 8.32609 65.0492 8.17119L63.2219 6.34385C62.9121 6.03406 62.9121 5.5312 63.2219 5.21916C63.5316 4.90937 64.0345 4.90937 64.3466 5.21916L66.1739 7.0465C66.4837 7.3563 66.4837 7.85915 66.1739 8.17119C66.019 8.32834 65.8147 8.40466 65.6104 8.40466Z" fill="url(#paint9_linear_331_128)"/>
</g>
<g filter="url(#filter1_d_331_128)">
<path d="M66.218 28.3459C66.6141 28.9624 66.8678 29.6597 66.9605 30.3867C67.0531 31.1138 66.9824 31.8524 66.7536 32.5486L58.5053 62.061C58.1264 63.4437 57.3218 64.6717 56.2057 65.5705C55.1883 66.469 53.8845 66.9757 52.5279 67H24.8191C23.1753 66.9601 21.5978 66.3427 20.3629 65.2559C18.9674 64.152 17.9289 62.6601 17.3778 60.9674C16.8971 59.6335 16.8745 58.1773 17.3135 56.829C17.3135 56.7432 17.3135 56.4502 17.4063 55.9499C17.4992 55.4496 17.5063 55.0492 17.5277 54.7419C17.5446 54.4998 17.5131 54.2568 17.4349 54.0271C17.3653 53.8226 17.3339 53.6069 17.3421 53.391C17.381 53.1405 17.4632 52.8986 17.5849 52.6762C17.7349 52.4124 17.8994 52.1571 18.0776 51.9115C18.2607 51.6761 18.43 51.4303 18.5847 51.1753C19.1089 50.2162 19.5624 49.22 19.9416 48.1947C20.3195 47.2289 20.6204 46.2347 20.8414 45.2214C20.9017 44.8953 20.9017 44.561 20.8414 44.235C20.7948 43.9342 20.7948 43.628 20.8414 43.3272C20.9532 42.9924 21.1277 42.6818 21.3556 42.4123C21.5414 42.1865 21.7108 41.9476 21.8626 41.6976C22.3623 40.7352 22.7827 39.7336 23.1195 38.7028C23.4626 37.7546 23.7021 36.772 23.8336 35.7722C23.8475 35.4228 23.8236 35.0729 23.7622 34.7287C23.6908 34.2284 23.6908 33.9281 23.7622 33.8138C23.9015 33.4383 24.1265 33.1005 24.4192 32.8274C24.7763 32.4486 24.9977 32.1984 25.0762 32.1126C25.6024 31.2453 26.0311 30.3225 26.3546 29.3608C26.7547 28.3497 27.0304 27.2937 27.1758 26.2159C27.1879 25.9368 27.159 25.6575 27.0901 25.3868C27.0101 25.1059 26.9882 24.8116 27.0258 24.5219C27.0855 24.3137 27.177 24.116 27.2972 23.9359C27.4661 23.6887 27.6472 23.4501 27.84 23.2211C28.0542 22.9424 28.2256 22.7136 28.347 22.5063C28.5367 22.1885 28.7015 21.8563 28.8398 21.5128C29.0112 21.1197 29.1611 20.7338 29.2897 20.3764C29.4182 20.019 29.5825 19.6616 29.7682 19.2042C29.9263 18.8368 30.1226 18.487 30.3538 18.1607C30.5772 17.8641 30.8474 17.6057 31.1536 17.3958C31.4667 17.1638 31.8426 17.0317 32.2319 17.017C32.7134 17.0195 33.1929 17.0795 33.6602 17.1957V17.2957C34.1588 17.1482 34.6707 17.05 35.1885 17.0027H58.0411C58.722 16.9773 59.3975 17.1334 59.9985 17.4549C60.5995 17.7764 61.1045 18.2517 61.4618 18.8325C61.8583 19.4542 62.1125 20.1559 62.2064 20.8874C62.3002 21.6189 62.2313 22.3621 62.0046 23.0639L53.7919 52.5762C53.0683 55.1636 52.3541 56.8313 51.6495 57.5795C50.9449 58.3276 49.6594 58.7041 47.7931 58.7088H21.6983C21.4824 58.6867 21.2643 58.7196 21.0645 58.8046C20.8647 58.8896 20.6897 59.0238 20.5557 59.1948C20.4461 59.4171 20.3891 59.6617 20.3891 59.9096C20.3891 60.1575 20.4461 60.402 20.5557 60.6243C21.0318 62.1492 22.4601 62.9092 24.8406 62.9045H52.5493C53.1461 62.9021 53.7293 62.7257 54.2275 62.3969C54.7397 62.0987 55.118 61.6152 55.2845 61.0461L64.2827 28.882C64.4372 28.2779 64.4879 27.6519 64.4326 27.0307C65.1521 27.3233 65.7702 27.8202 66.2109 28.4602L66.218 28.3459ZM34.2815 28.4103C34.2399 28.5266 34.2235 28.6505 34.2333 28.7737C34.2432 28.897 34.2791 29.0167 34.3387 29.125C34.3995 29.2281 34.4879 29.3122 34.5939 29.3677C34.6998 29.4233 34.8192 29.4481 34.9385 29.4395H53.192C53.4759 29.4285 53.7467 29.3171 53.9562 29.125C54.1905 28.9437 54.3627 28.6939 54.4489 28.4103L55.0845 26.3231C55.1246 26.2062 55.1396 26.0821 55.1286 25.9589C55.1175 25.8358 55.0806 25.7163 55.0202 25.6084C54.9591 25.506 54.8704 25.423 54.7644 25.3686C54.6583 25.3143 54.5391 25.2909 54.4204 25.3011H36.174C35.8884 25.3078 35.6148 25.4168 35.4027 25.6084C35.1717 25.7928 35.0003 26.0415 34.91 26.3231L34.2815 28.4103ZM31.782 36.7514C31.7437 36.8687 31.7296 36.9925 31.7406 37.1154C31.7517 37.2383 31.7876 37.3577 31.8463 37.4662C31.9087 37.5674 31.9976 37.6496 32.1033 37.7038C32.2091 37.7579 32.3277 37.7821 32.4462 37.7736H50.7211C51.0034 37.7616 51.2731 37.6531 51.4852 37.4662C51.7196 37.2848 51.8918 37.035 51.978 36.7514L52.6136 34.6644C52.6515 34.5471 52.6654 34.4232 52.6544 34.3004C52.6433 34.1775 52.6076 34.0583 52.5493 33.9496C52.4869 33.8484 52.398 33.7662 52.2923 33.712C52.1865 33.6579 52.0679 33.6337 51.9494 33.6422H33.6745C33.3922 33.6542 33.1225 33.7627 32.9104 33.9496C32.676 34.131 32.5039 34.3808 32.4176 34.6644L31.782 36.7514Z" fill="url(#paint10_linear_331_128)"/>
</g>
</g>
<defs>
<filter id="filter0_d_331_128" x="56" y="2" width="29.9999" height="30" filterUnits="userSpaceOnUse" color-interpolation-filters="sRGB">
<feFlood flood-opacity="0" result="BackgroundImageFix"/>
<feColorMatrix in="SourceAlpha" type="matrix" values="0 0 0 0 0 0 0 0 0 0 0 0 0 0 0 0 0 0 127 0" result="hardAlpha"/>
<feOffset dy="4"/>
<feGaussianBlur stdDeviation="2"/>
<feComposite in2="hardAlpha" operator="out"/>
<feColorMatrix type="matrix" values="0 0 0 0 0 0 0 0 0 0 0 0 0 0 0 0 0 0 0.25 0"/>
<feBlend mode="normal" in2="BackgroundImageFix" result="effect1_dropShadow_331_128"/>
<feBlend mode="normal" in="SourceGraphic" in2="effect1_dropShadow_331_128" result="shape"/>
</filter>
<filter id="filter1_d_331_128" x="13" y="17" width="58" height="58" filterUnits="userSpaceOnUse" color-interpolation-filters="sRGB">
<feFlood flood-opacity="0" result="BackgroundImageFix"/>
<feColorMatrix in="SourceAlpha" type="matrix" values="0 0 0 0 0 0 0 0 0 0 0 0 0 0 0 0 0 0 127 0" result="hardAlpha"/>
<feOffset dy="4"/>
<feGaussianBlur stdDeviation="2"/>
<feComposite in2="hardAlpha" operator="out"/>
<feColorMatrix type="matrix" values="0 0 0 0 0 0 0 0 0 0 0 0 0 0 0 0 0 0 0.25 0"/>
<feBlend mode="normal" in2="BackgroundImageFix" result="effect1_dropShadow_331_128"/>
<feBlend mode="normal" in="SourceGraphic" in2="effect1_dropShadow_331_128" result="shape"/>
</filter>
<linearGradient id="paint0_linear_331_128" x1="70.9994" y1="8.14014" x2="70.9994" y2="17.8605" gradientUnits="userSpaceOnUse">
<stop stop-color="white"/>
<stop offset="1" stop-color="#BFBFBF"/>
</linearGradient>
<linearGradient id="paint1_linear_331_128" x1="71.0002" y1="7.34521" x2="71.0002" y2="18.655" gradientUnits="userSpaceOnUse">
<stop stop-color="white"/>
<stop offset="1" stop-color="#BFBFBF"/>
</linearGradient>
<linearGradient id="paint2_linear_331_128" x1="71" y1="2" x2="71" y2="6.17325" gradientUnits="userSpaceOnUse">
<stop stop-color="white"/>
<stop offset="1" stop-color="#BFBFBF"/>
</linearGradient>
<linearGradient id="paint3_linear_331_128" x1="71" y1="19.8267" x2="71" y2="23.9999" gradientUnits="userSpaceOnUse">
<stop stop-color="white"/>
<stop offset="1" stop-color="#BFBFBF"/>
</linearGradient>
<linearGradient id="paint4_linear_331_128" x1="79.9133" y1="12.2051" x2="79.9133" y2="13.7945" gradientUnits="userSpaceOnUse">
<stop stop-color="white"/>
<stop offset="1" stop-color="#BFBFBF"/>
</linearGradient>
<linearGradient id="paint5_linear_331_128" x1="62.0867" y1="12.2051" x2="62.0867" y2="13.7945" gradientUnits="userSpaceOnUse">
<stop stop-color="white"/>
<stop offset="1" stop-color="#BFBFBF"/>
</linearGradient>
<linearGradient id="paint6_linear_331_128" x1="77.3056" y1="4.98682" x2="77.3056" y2="8.40466" gradientUnits="userSpaceOnUse">
<stop stop-color="white"/>
<stop offset="1" stop-color="#BFBFBF"/>
</linearGradient>
<linearGradient id="paint7_linear_331_128" x1="64.6979" y1="17.5942" x2="64.6979" y2="21.0121" gradientUnits="userSpaceOnUse">
<stop stop-color="white"/>
<stop offset="1" stop-color="#BFBFBF"/>
</linearGradient>
<linearGradient id="paint8_linear_331_128" x1="77.3029" y1="17.5942" x2="77.3029" y2="21.0121" gradientUnits="userSpaceOnUse">
<stop stop-color="white"/>
<stop offset="1" stop-color="#BFBFBF"/>
</linearGradient>
<linearGradient id="paint9_linear_331_128" x1="64.6979" y1="4.98682" x2="64.6979" y2="8.40466" gradientUnits="userSpaceOnUse">
<stop stop-color="white"/>
<stop offset="1" stop-color="#BFBFBF"/>
</linearGradient>
<linearGradient id="paint10_linear_331_128" x1="42" y1="17" x2="42" y2="67" gradientUnits="userSpaceOnUse">
<stop stop-color="white"/>
<stop offset="1" stop-color="#BFBFBF"/>
</linearGradient>
<clipPath id="clip0_331_128">
<rect width="83.75" height="83.75" fill="white"/>
</clipPath>
</defs>
</svg>
