<svg width="84" height="84" viewBox="0 0 84 84" fill="none" xmlns="http://www.w3.org/2000/svg">
<g clip-path="url(#clip0_309_4)">
<g filter="url(#filter0_d_309_4)">
<path d="M70.9994 17.8605C73.6837 17.8605 75.8597 15.6845 75.8597 13.0003C75.8597 10.3161 73.6837 8.14014 70.9994 8.14014C68.3152 8.14014 66.1392 10.3161 66.1392 13.0003C66.1392 15.6845 68.3152 17.8605 70.9994 17.8605Z" fill="url(#paint0_linear_309_4)"/>
<path d="M71.0002 18.655C67.882 18.655 65.3452 16.1182 65.3452 13.0001C65.3452 9.88194 67.882 7.34521 71.0002 7.34521C74.1184 7.34521 76.6551 9.88194 76.6551 13.0001C76.6551 16.1182 74.1184 18.655 71.0002 18.655ZM71.0002 8.9346C68.7575 8.9346 66.9346 10.7574 66.9346 13.0001C66.9346 15.2427 68.7575 17.0656 71.0002 17.0656C73.2428 17.0656 75.0657 15.2427 75.0657 13.0001C75.0657 10.7574 73.2428 8.9346 71.0002 8.9346Z" fill="url(#paint1_linear_309_4)"/>
<path d="M71 6.17325C70.56 6.17325 70.2053 5.81856 70.2053 5.37856V2.79469C70.2053 2.35694 70.56 2 71 2C71.4378 2 71.7947 2.35469 71.7947 2.79469V5.37856C71.7947 5.81631 71.4378 6.17325 71 6.17325Z" fill="url(#paint2_linear_309_4)"/>
<path d="M71 23.9999C70.56 23.9999 70.2053 23.6452 70.2053 23.2052V20.6214C70.2053 20.1836 70.56 19.8267 71 19.8267C71.4378 19.8267 71.7947 20.1836 71.7947 20.6214V23.2052C71.7947 23.6452 71.4378 23.9999 71 23.9999Z" fill="url(#paint3_linear_309_4)"/>
<path d="M81.2053 13.7945H78.6214C78.1836 13.7945 77.8267 13.4398 77.8267 12.9998C77.8267 12.5598 78.1836 12.2051 78.6214 12.2051H81.2053C81.643 12.2051 82 12.5598 82 12.9998C82 13.4375 81.6453 13.7945 81.2053 13.7945Z" fill="url(#paint4_linear_309_4)"/>
<path d="M63.3786 13.7945H60.7947C60.3569 13.7945 60 13.4375 60 12.9998C60 12.5598 60.3569 12.2051 60.7947 12.2051H63.3786C63.8186 12.2051 64.1733 12.5598 64.1733 12.9998C64.1733 13.4375 63.8164 13.7945 63.3786 13.7945Z" fill="url(#paint5_linear_309_4)"/>
<path d="M76.3907 8.40466C76.1865 8.40466 75.9844 8.32609 75.8295 8.17119C75.5197 7.8614 75.5197 7.35854 75.8295 7.0465L77.6569 5.21916C77.9667 4.90937 78.4695 4.90937 78.7816 5.21916C79.0914 5.52896 79.0914 6.03181 78.7816 6.34385L76.952 8.17344C76.7971 8.32834 76.5928 8.40466 76.3907 8.40466Z" fill="url(#paint6_linear_309_4)"/>
<path d="M63.7831 21.0121C63.5788 21.0121 63.3768 20.9335 63.2219 20.7786C62.9121 20.4688 62.9121 19.966 63.2219 19.6539L65.0492 17.8266C65.359 17.5168 65.8619 17.5168 66.1739 17.8266C66.4837 18.1364 66.4837 18.6392 66.1739 18.9513L64.3466 20.7786C64.1917 20.9335 63.9874 21.0121 63.7831 21.0121Z" fill="url(#paint7_linear_309_4)"/>
<path d="M78.2154 21.0121C78.0111 21.0121 77.8091 20.9335 77.6542 20.7786L75.8268 18.9513C75.517 18.6415 75.517 18.1386 75.8268 17.8266C76.1366 17.5168 76.6395 17.5168 76.9515 17.8266L78.7789 19.6539C79.0887 19.9637 79.0887 20.4666 78.7789 20.7786C78.624 20.9335 78.4197 21.0121 78.2154 21.0121Z" fill="url(#paint8_linear_309_4)"/>
<path d="M65.6104 8.40466C65.4062 8.40466 65.2041 8.32609 65.0492 8.17119L63.2219 6.34385C62.9121 6.03406 62.9121 5.5312 63.2219 5.21916C63.5316 4.90937 64.0345 4.90937 64.3466 5.21916L66.1739 7.0465C66.4837 7.3563 66.4837 7.85915 66.1739 8.17119C66.019 8.32834 65.8147 8.40466 65.6104 8.40466Z" fill="url(#paint9_linear_309_4)"/>
</g>
<g filter="url(#filter1_d_309_4)">
<path d="M24.1601 20.1362C24.0381 20.2895 23.9733 20.467 23.9733 20.6482C23.9733 20.8294 24.0381 21.0069 24.1601 21.1602C24.2409 21.3522 26.4223 23.4642 29.0076 25.8962L33.6936 30.3761L33.0473 30.9521L32.4009 31.4641H25.2104C20.9284 31.4641 17.939 31.5281 17.6966 31.5921C17.3676 31.6951 17.0688 31.8505 16.8187 32.0487C16.5685 32.2468 16.3724 32.4835 16.2424 32.7441L16 33.1921V63.208L16.2424 63.72C16.3271 63.9547 16.4813 64.17 16.692 64.3481C16.9028 64.5262 17.1641 64.6619 17.4543 64.744C17.939 65 18.0198 65 42.5 65H66.9802L67.5457 64.744C67.8323 64.6396 68.0882 64.4889 68.2969 64.3015C68.5056 64.1141 68.6625 63.8943 68.7576 63.656C68.9192 63.208 69 63.144 69 48.2321V33.1921L68.6768 32.7441C68.5374 32.4674 68.3468 32.2085 68.1113 31.9761C67.3841 31.4641 67.6265 31.4641 59.7896 31.4641H52.5991L51.9527 30.9521L51.3064 30.3761L55.9924 25.8962C58.5777 23.4642 60.7591 21.3522 60.8399 21.1602C60.9273 20.9962 60.9654 20.8183 60.9514 20.6407C60.9374 20.463 60.8716 20.2903 60.7591 20.1362C60.5168 19.8802 59.7896 20.0082 59.3049 20.3282L53.5686 24.9362C48.4787 29.0961 48.1555 29.3521 47.8323 29.2881L46.6204 29.0961C44.7351 28.7847 42.8017 28.6984 40.8841 28.8401C40.0124 28.8415 39.1441 28.9274 38.2988 29.0961L37.0869 29.2881C36.7637 29.3521 36.4405 29.0961 31.3506 24.9362L25.6143 20.3282C25.2104 20.0082 24.4024 19.8802 24.1601 20.1362ZM50.7409 36.2001L51.872 36.5841C52.6367 37.0716 53.2225 37.7125 53.5686 38.4401L53.8918 38.9521V48.0401C53.8918 56.104 53.8918 57.192 53.7302 57.64C53.5502 58.2817 53.143 58.8693 52.5562 59.3341C51.9695 59.7988 51.2277 60.1214 50.4177 60.264C49.9329 60.328 46.2973 60.392 37.0061 60.328H24.1601L23.5945 60.136C23.0117 59.9278 22.4889 59.6274 22.0582 59.2532C21.6275 58.879 21.298 58.4389 21.0899 57.96L20.8476 57.384V48.4881C20.7668 42.3441 20.8476 39.4641 20.9284 39.1441C21.0535 38.4691 21.4151 37.8354 21.972 37.315C22.529 36.7946 23.2591 36.4083 24.0793 36.2001C24.3216 36.1361 30.2195 36.0721 37.3293 36.0721C48.3979 36.0721 50.1753 36.0721 50.7409 36.2001ZM62.4558 36.2001C63.0839 36.4197 63.5974 36.8039 63.9101 37.2881C64.2557 37.8508 64.3142 38.4974 64.0734 39.0934C63.8327 39.6893 63.3112 40.1889 62.6174 40.4881C61.9786 40.6289 61.3001 40.6065 60.6784 40.4241C59.9961 40.1497 59.4778 39.6734 59.2358 39.0983C58.9939 38.5233 59.0477 37.8959 59.3857 37.3521C59.6047 36.8797 60.0491 36.4942 60.6233 36.2788C61.1975 36.0633 61.8556 36.0351 62.4558 36.2001V36.2001ZM62.779 43.6241C63.2352 43.8221 63.6082 44.1215 63.8523 44.4854C64.0963 44.8493 64.2007 45.2618 64.1524 45.6721C64.1758 46.2284 63.9292 46.7706 63.4633 47.1872C62.9975 47.6039 62.3478 47.8633 61.6479 47.9121C61.0495 47.8801 60.4808 47.6939 60.0286 47.3819C59.5763 47.0699 59.2654 46.6492 59.1433 46.1841C58.9839 45.6168 59.0934 45.0229 59.4509 44.5154C59.8085 44.008 60.3891 43.6224 61.0823 43.4321C61.6588 43.336 62.2595 43.404 62.779 43.6241V43.6241ZM64.4756 50.8561C64.718 50.9841 64.718 51.2401 64.718 55.464C64.718 59.688 64.718 60.008 64.4756 60.2C64.2332 60.392 64.1524 60.392 61.6479 60.392C59.1433 60.392 59.0625 60.328 58.8201 60.2C58.5777 60.072 58.5777 59.88 58.5777 55.464C58.5777 51.0481 58.6585 50.9841 58.8201 50.8561C58.9817 50.7281 59.2241 50.6641 61.6479 50.6641C64.0716 50.6641 64.314 50.6641 64.4756 50.8561Z" fill="url(#paint10_linear_309_4)"/>
</g>
</g>
<defs>
<filter id="filter0_d_309_4" x="56" y="2" width="30" height="30" filterUnits="userSpaceOnUse" color-interpolation-filters="sRGB">
<feFlood flood-opacity="0" result="BackgroundImageFix"/>
<feColorMatrix in="SourceAlpha" type="matrix" values="0 0 0 0 0 0 0 0 0 0 0 0 0 0 0 0 0 0 127 0" result="hardAlpha"/>
<feOffset dy="4"/>
<feGaussianBlur stdDeviation="2"/>
<feComposite in2="hardAlpha" operator="out"/>
<feColorMatrix type="matrix" values="0 0 0 0 0 0 0 0 0 0 0 0 0 0 0 0 0 0 0.25 0"/>
<feBlend mode="normal" in2="BackgroundImageFix" result="effect1_dropShadow_309_4"/>
<feBlend mode="normal" in="SourceGraphic" in2="effect1_dropShadow_309_4" result="shape"/>
</filter>
<filter id="filter1_d_309_4" x="12" y="20" width="61" height="53" filterUnits="userSpaceOnUse" color-interpolation-filters="sRGB">
<feFlood flood-opacity="0" result="BackgroundImageFix"/>
<feColorMatrix in="SourceAlpha" type="matrix" values="0 0 0 0 0 0 0 0 0 0 0 0 0 0 0 0 0 0 127 0" result="hardAlpha"/>
<feOffset dy="4"/>
<feGaussianBlur stdDeviation="2"/>
<feComposite in2="hardAlpha" operator="out"/>
<feColorMatrix type="matrix" values="0 0 0 0 0 0 0 0 0 0 0 0 0 0 0 0 0 0 0.25 0"/>
<feBlend mode="normal" in2="BackgroundImageFix" result="effect1_dropShadow_309_4"/>
<feBlend mode="normal" in="SourceGraphic" in2="effect1_dropShadow_309_4" result="shape"/>
</filter>
<linearGradient id="paint0_linear_309_4" x1="70.9994" y1="8.14014" x2="70.9994" y2="17.8605" gradientUnits="userSpaceOnUse">
<stop stop-color="white"/>
<stop offset="1" stop-color="#BFBFBF"/>
</linearGradient>
<linearGradient id="paint1_linear_309_4" x1="71.0002" y1="7.34521" x2="71.0002" y2="18.655" gradientUnits="userSpaceOnUse">
<stop stop-color="white"/>
<stop offset="1" stop-color="#BFBFBF"/>
</linearGradient>
<linearGradient id="paint2_linear_309_4" x1="71" y1="2" x2="71" y2="6.17325" gradientUnits="userSpaceOnUse">
<stop stop-color="white"/>
<stop offset="1" stop-color="#BFBFBF"/>
</linearGradient>
<linearGradient id="paint3_linear_309_4" x1="71" y1="19.8267" x2="71" y2="23.9999" gradientUnits="userSpaceOnUse">
<stop stop-color="white"/>
<stop offset="1" stop-color="#BFBFBF"/>
</linearGradient>
<linearGradient id="paint4_linear_309_4" x1="79.9133" y1="12.2051" x2="79.9133" y2="13.7945" gradientUnits="userSpaceOnUse">
<stop stop-color="white"/>
<stop offset="1" stop-color="#BFBFBF"/>
</linearGradient>
<linearGradient id="paint5_linear_309_4" x1="62.0867" y1="12.2051" x2="62.0867" y2="13.7945" gradientUnits="userSpaceOnUse">
<stop stop-color="white"/>
<stop offset="1" stop-color="#BFBFBF"/>
</linearGradient>
<linearGradient id="paint6_linear_309_4" x1="77.3056" y1="4.98682" x2="77.3056" y2="8.40466" gradientUnits="userSpaceOnUse">
<stop stop-color="white"/>
<stop offset="1" stop-color="#BFBFBF"/>
</linearGradient>
<linearGradient id="paint7_linear_309_4" x1="64.6979" y1="17.5942" x2="64.6979" y2="21.0121" gradientUnits="userSpaceOnUse">
<stop stop-color="white"/>
<stop offset="1" stop-color="#BFBFBF"/>
</linearGradient>
<linearGradient id="paint8_linear_309_4" x1="77.3029" y1="17.5942" x2="77.3029" y2="21.0121" gradientUnits="userSpaceOnUse">
<stop stop-color="white"/>
<stop offset="1" stop-color="#BFBFBF"/>
</linearGradient>
<linearGradient id="paint9_linear_309_4" x1="64.6979" y1="4.98682" x2="64.6979" y2="8.40466" gradientUnits="userSpaceOnUse">
<stop stop-color="white"/>
<stop offset="1" stop-color="#BFBFBF"/>
</linearGradient>
<linearGradient id="paint10_linear_309_4" x1="42.5" y1="20" x2="42.5" y2="65" gradientUnits="userSpaceOnUse">
<stop stop-color="white"/>
<stop offset="1" stop-color="#BFBFBF"/>
</linearGradient>
<clipPath id="clip0_309_4">
<rect width="83.75" height="83.75" fill="white"/>
</clipPath>
</defs>
</svg>
