<svg width="84" height="84" viewBox="0 0 84 84" fill="none" xmlns="http://www.w3.org/2000/svg">
<path d="M81.8348 14.9985C80.8041 20.9217 75.2241 24.8769 69.3763 23.8329C65.3028 23.1061 62.1786 20.1435 61 16.4134C61.6771 16.6878 62.3928 16.8979 63.1407 17.0329C68.9906 18.0769 74.5684 14.1217 75.5991 8.19857C75.912 6.39783 75.7641 4.6271 75.2499 3C79.8762 4.87577 82.7348 9.8321 81.8348 14.9985Z" fill="url(#paint0_linear_702_39)"/>
<path fill-rule="evenodd" clip-rule="evenodd" d="M40.4824 16.067C35.4256 16.4655 30.3948 18.4694 26.3929 21.6931C25.0034 22.8106 22.7646 25.1869 21.7477 26.6131C18.5696 31.0577 17 35.9906 17 41.5013C17 48.2839 19.4704 54.3983 24.141 59.2154C28.6447 63.8397 34.2417 66.4473 40.7265 66.9356C46.0279 67.3336 51.8304 65.8696 56.2315 63.0048C60.2845 60.3589 63.5271 56.7107 65.5343 52.4843C68.0432 47.1918 68.674 40.9745 67.2584 35.3355C65.2127 27.1658 59.2681 20.5117 51.3678 17.57C48.0866 16.3497 44.0722 15.7974 40.4824 16.067ZM42.6181 27.1658V33.6398L43.1713 33.7296C45.3716 34.0507 46.5686 34.6289 47.9706 36.0291C49.5786 37.635 50.2739 39.2918 50.2609 41.5652C50.2609 43.3634 49.6947 44.9692 48.5628 46.3564L48.1126 46.9216L52.7318 51.546L57.3509 56.1574L56.6432 56.7995C52.9243 60.1651 48.0481 62.1819 43.6735 62.1819H42.4511L42.5281 55.7719L42.6051 49.3749L41.5888 49.2336C39.5561 48.9379 38.2046 48.2574 36.8281 46.8058C34.5763 44.4554 34.0486 41.0644 35.4771 38.0968C35.7217 37.596 36.1463 36.9279 36.4295 36.5938C36.7256 36.2728 36.9571 35.9517 36.9571 35.9002C36.9571 35.8358 34.9244 33.7551 32.428 31.2629L27.8989 26.7414L28.272 26.3304C28.4906 26.1122 29.0313 25.6369 29.4945 25.2514C32.1064 23.1317 35.3876 21.5902 38.5012 21.0255C40.0192 20.7558 40.2123 20.7299 41.4993 20.7044L42.6187 20.6914V27.1658H42.6181ZM55.0231 28.0828C54.6551 28.2396 54.3731 28.548 54.1771 29.0081L54.1361 29.069L52.1681 33.1224C51.8778 33.7096 51.7965 34.1714 51.9242 34.508C52.0518 34.8446 52.3885 35.1501 52.9342 35.4244C53.4922 35.6935 53.949 35.7523 54.3047 35.6007C54.6605 35.4491 55.0165 35.0729 55.3729 34.4722L55.527 34.1458L58.0586 40.822C58.172 41.1212 58.2656 41.3492 58.3394 41.506C58.4206 41.6452 58.5458 41.7874 58.7148 41.9326C59.0217 42.1783 59.5554 42.1391 60.3159 41.8151C61.101 41.4806 61.5155 41.1084 61.5596 40.6986C61.5868 40.4698 61.5806 40.2842 61.5408 40.1419C61.5086 39.9818 61.4382 39.7584 61.3294 39.4717L57.3795 29.0554C57.2093 28.6066 57.0534 28.2893 56.9117 28.1035C56.7795 27.9426 56.644 27.8483 56.5052 27.8206C56.3617 27.7803 56.1739 27.7735 55.9417 27.8C55.7095 27.8265 55.4033 27.9208 55.0231 28.0828Z" fill="url(#paint1_linear_702_39)"/>
<defs>
<linearGradient id="paint0_linear_702_39" x1="71.5" y1="3" x2="71.5" y2="24" gradientUnits="userSpaceOnUse">
<stop stop-color="white"/>
<stop offset="1" stop-color="#BFBFBF"/>
</linearGradient>
<linearGradient id="paint1_linear_702_39" x1="42.5" y1="67" x2="42.5" y2="16" gradientUnits="userSpaceOnUse">
<stop stop-color="white"/>
<stop offset="1" stop-color="#BFBFBF"/>
</linearGradient>
</defs>
</svg>
