<svg width="85" height="84" viewBox="0 0 85 84" fill="none" xmlns="http://www.w3.org/2000/svg">
<g clip-path="url(#clip0_1316_829)">
<g filter="url(#filter0_d_1316_829)">
<path d="M71.4989 17.8605C74.1832 17.8605 76.3592 15.6845 76.3592 13.0003C76.3592 10.3161 74.1832 8.14014 71.4989 8.14014C68.8147 8.14014 66.6387 10.3161 66.6387 13.0003C66.6387 15.6845 68.8147 17.8605 71.4989 17.8605Z" fill="url(#paint0_linear_1316_829)"/>
<path d="M71.5007 18.655C68.3825 18.655 65.8457 16.1182 65.8457 13.0001C65.8457 9.88194 68.3825 7.34521 71.5007 7.34521C74.6188 7.34521 77.1556 9.88194 77.1556 13.0001C77.1556 16.1182 74.6188 18.655 71.5007 18.655ZM71.5007 8.9346C69.258 8.9346 67.4351 10.7574 67.4351 13.0001C67.4351 15.2427 69.258 17.0656 71.5007 17.0656C73.7433 17.0656 75.5662 15.2427 75.5662 13.0001C75.5662 10.7574 73.7433 8.9346 71.5007 8.9346Z" fill="url(#paint1_linear_1316_829)"/>
<path d="M71.4998 6.17325C71.0598 6.17325 70.7051 5.81856 70.7051 5.37856V2.79469C70.7051 2.35694 71.0598 2 71.4998 2C71.9375 2 72.2945 2.35469 72.2945 2.79469V5.37856C72.2945 5.81631 71.9375 6.17325 71.4998 6.17325Z" fill="url(#paint2_linear_1316_829)"/>
<path d="M71.4998 23.9999C71.0598 23.9999 70.7051 23.6452 70.7051 23.2052V20.6214C70.7051 20.1836 71.0598 19.8267 71.4998 19.8267C71.9375 19.8267 72.2945 20.1836 72.2945 20.6214V23.2052C72.2945 23.6452 71.9375 23.9999 71.4998 23.9999Z" fill="url(#paint3_linear_1316_829)"/>
<path d="M81.7048 13.7945H79.1209C78.6831 13.7945 78.3262 13.4398 78.3262 12.9998C78.3262 12.5598 78.6831 12.2051 79.1209 12.2051H81.7048C82.1425 12.2051 82.4995 12.5598 82.4995 12.9998C82.4995 13.4375 82.1448 13.7945 81.7048 13.7945Z" fill="url(#paint4_linear_1316_829)"/>
<path d="M63.8786 13.7945H61.2947C60.8569 13.7945 60.5 13.4375 60.5 12.9998C60.5 12.5598 60.8569 12.2051 61.2947 12.2051H63.8786C64.3186 12.2051 64.6733 12.5598 64.6733 12.9998C64.6733 13.4375 64.3164 13.7945 63.8786 13.7945Z" fill="url(#paint5_linear_1316_829)"/>
<path d="M76.8912 8.40466C76.6869 8.40466 76.4849 8.32609 76.33 8.17119C76.0202 7.8614 76.0202 7.35854 76.33 7.0465L78.1574 5.21916C78.4672 4.90937 78.97 4.90937 79.2821 5.21916C79.5919 5.52896 79.5919 6.03181 79.2821 6.34385L77.4525 8.17344C77.2976 8.32834 77.0933 8.40466 76.8912 8.40466Z" fill="url(#paint6_linear_1316_829)"/>
<path d="M64.2828 21.0121C64.0785 21.0121 63.8765 20.9335 63.7216 20.7786C63.4118 20.4688 63.4118 19.966 63.7216 19.6539L65.549 17.8266C65.8588 17.5168 66.3616 17.5168 66.6737 17.8266C66.9835 18.1364 66.9835 18.6392 66.6737 18.9513L64.8463 20.7786C64.6914 20.9335 64.4871 21.0121 64.2828 21.0121Z" fill="url(#paint7_linear_1316_829)"/>
<path d="M78.7157 21.0121C78.5114 21.0121 78.3093 20.9335 78.1544 20.7786L76.3271 18.9513C76.0173 18.6415 76.0173 18.1386 76.3271 17.8266C76.6369 17.5168 77.1397 17.5168 77.4518 17.8266L79.2791 19.6539C79.5889 19.9637 79.5889 20.4666 79.2791 20.7786C79.1242 20.9335 78.92 21.0121 78.7157 21.0121Z" fill="url(#paint8_linear_1316_829)"/>
<path d="M66.1102 8.40466C65.9059 8.40466 65.7039 8.32609 65.549 8.17119L63.7216 6.34385C63.4118 6.03406 63.4118 5.5312 63.7216 5.21916C64.0314 4.90937 64.5343 4.90937 64.8463 5.21916L66.6737 7.0465C66.9835 7.3563 66.9835 7.85915 66.6737 8.17119C66.5188 8.32834 66.3145 8.40466 66.1102 8.40466Z" fill="url(#paint9_linear_1316_829)"/>
</g>
<g filter="url(#filter1_d_1316_829)">
<path d="M42.5 23.25C47.4708 23.2566 52.2361 25.2342 55.7509 28.7491C59.2658 32.2639 61.2434 37.0292 61.25 42C61.2434 46.9708 59.2658 51.7361 55.7509 55.2509C52.2361 58.7658 47.4708 60.7434 42.5 60.75C37.5292 60.7434 32.7639 58.7658 29.2491 55.2509C25.7342 51.7361 23.7566 46.9708 23.75 42C23.7566 37.0292 25.7342 32.2639 29.2491 28.7491C32.7639 25.2342 37.5292 23.2566 42.5 23.25ZM42.5 17C35.8696 17 29.5107 19.6339 24.8223 24.3223C20.1339 29.0107 17.5 35.3696 17.5 42C17.5 48.6304 20.1339 54.9893 24.8223 59.6777C29.5107 64.3661 35.8696 67 42.5 67C49.1304 67 55.4893 64.3661 60.1777 59.6777C64.8661 54.9893 67.5 48.6304 67.5 42C67.5 35.3696 64.8661 29.0107 60.1777 24.3223C55.4893 19.6339 49.1304 17 42.5 17ZM50.975 46.0333L45.6333 40.675V29.5H39.3417V42C39.3458 42.4436 39.4445 42.8813 39.6313 43.2837C39.8182 43.6861 40.0888 44.044 40.425 44.3334L46.5583 50.4584L50.975 46.0333Z" fill="url(#paint10_linear_1316_829)"/>
</g>
<g filter="url(#filter2_d_1316_829)">
<path d="M15.2497 5.16283C15.1812 5.25835 14.9765 5.8322 14.826 6.43242C13.9787 9.53189 12.7084 10.8022 9.55237 11.7581C7.57101 12.3591 7.50325 12.7141 9.2521 13.1781C10.7827 13.588 12.2035 14.298 12.968 15.0351C13.7198 15.7722 14.4708 17.2606 14.8945 18.8588C15.1135 19.7328 15.2361 19.9652 15.4544 19.9923C15.8231 20.0472 15.9601 19.8283 16.2332 18.7362C16.5613 17.3982 17.2717 15.9233 17.9407 15.1998C18.6511 14.4349 19.9898 13.7249 21.5746 13.2608C22.9134 12.8787 23.0639 12.7967 22.9818 12.4275C22.9547 12.25 22.6131 12.086 21.6702 11.813C18.4735 10.8842 17.1754 9.60104 16.2596 6.47377C16.082 5.8044 15.8773 5.21772 15.836 5.13574C15.714 4.94399 15.4273 4.95753 15.2497 5.16283Z" fill="url(#paint11_linear_1316_829)"/>
</g>
<g filter="url(#filter3_d_1316_829)">
<path d="M76.2497 59.1628C76.1812 59.2584 75.9765 59.8322 75.826 60.4324C74.9787 63.5319 73.7084 64.8022 70.5524 65.7581C68.571 66.3591 68.5033 66.7141 70.2521 67.1781C71.7827 67.588 73.2035 68.298 73.968 69.0351C74.7198 69.7722 75.4708 71.2606 75.8945 72.8588C76.1135 73.7328 76.2361 73.9652 76.4544 73.9923C76.8231 74.0472 76.9601 73.8283 77.2332 72.7362C77.5613 71.3982 78.2717 69.9233 78.9407 69.1998C79.6511 68.4349 80.9898 67.7249 82.5746 67.2608C83.9134 66.8787 84.0639 66.7967 83.9818 66.4275C83.9547 66.25 83.6131 66.086 82.6702 65.813C79.4735 64.8842 78.1754 63.601 77.2596 60.4738C77.082 59.8044 76.8773 59.2177 76.836 59.1357C76.714 58.944 76.4273 58.9575 76.2497 59.1628Z" fill="url(#paint12_linear_1316_829)"/>
</g>
<g filter="url(#filter4_d_1316_829)">
<path d="M13.2497 57.1628C13.1812 57.2584 12.9765 57.8322 12.826 58.4324C11.9787 61.5319 10.7084 62.8022 7.55237 63.7581C5.57101 64.3591 5.50325 64.7141 7.2521 65.1781C8.7827 65.588 10.2035 66.298 10.968 67.0351C11.7198 67.7722 12.4708 69.2606 12.8945 70.8588C13.1135 71.7328 13.2361 71.9652 13.4544 71.9923C13.8231 72.0472 13.9601 71.8283 14.2332 70.7362C14.5613 69.3982 15.2717 67.9233 15.9407 67.1998C16.6511 66.4349 17.9898 65.7249 19.5746 65.2608C20.9134 64.8787 21.0639 64.7967 20.9818 64.4275C20.9547 64.25 20.6131 64.086 19.6702 63.813C16.4735 62.8842 15.1754 61.601 14.2596 58.4738C14.082 57.8044 13.8773 57.2177 13.836 57.1357C13.714 56.944 13.4273 56.9575 13.2497 57.1628Z" fill="url(#paint13_linear_1316_829)"/>
</g>
<g filter="url(#filter5_d_1316_829)">
<path d="M74.8331 27.1086C74.7875 27.1722 74.651 27.5548 74.5507 27.9549C73.9858 30.0213 73.139 30.8681 71.0349 31.5054C69.714 31.906 69.6688 32.1427 70.8347 32.4521C71.8551 32.7253 72.8023 33.1987 73.312 33.6901C73.8132 34.1815 74.3139 35.1737 74.5963 36.2392C74.7423 36.8219 74.8241 36.9768 74.9696 36.9948C75.2154 37.0314 75.3067 36.8855 75.4888 36.1575C75.7075 35.2655 76.1811 34.2822 76.6271 33.7998C77.1007 33.2899 77.9932 32.8166 79.0498 32.5072C79.9422 32.2525 80.0426 32.1978 79.9879 31.9517C79.9698 31.8333 79.7421 31.724 79.1135 31.542C76.9823 30.9228 76.1169 30.0674 75.5064 27.9825C75.388 27.5363 75.2515 27.1451 75.224 27.0905C75.1427 26.9627 74.9515 26.9717 74.8331 27.1086Z" fill="url(#paint14_linear_1316_829)"/>
</g>
</g>
<defs>
<filter id="filter0_d_1316_829" x="56.5" y="2" width="29.999" height="30" filterUnits="userSpaceOnUse" color-interpolation-filters="sRGB">
<feFlood flood-opacity="0" result="BackgroundImageFix"/>
<feColorMatrix in="SourceAlpha" type="matrix" values="0 0 0 0 0 0 0 0 0 0 0 0 0 0 0 0 0 0 127 0" result="hardAlpha"/>
<feOffset dy="4"/>
<feGaussianBlur stdDeviation="2"/>
<feComposite in2="hardAlpha" operator="out"/>
<feColorMatrix type="matrix" values="0 0 0 0 0 0 0 0 0 0 0 0 0 0 0 0 0 0 0.25 0"/>
<feBlend mode="normal" in2="BackgroundImageFix" result="effect1_dropShadow_1316_829"/>
<feBlend mode="normal" in="SourceGraphic" in2="effect1_dropShadow_1316_829" result="shape"/>
</filter>
<filter id="filter1_d_1316_829" x="13.5" y="17" width="58" height="58" filterUnits="userSpaceOnUse" color-interpolation-filters="sRGB">
<feFlood flood-opacity="0" result="BackgroundImageFix"/>
<feColorMatrix in="SourceAlpha" type="matrix" values="0 0 0 0 0 0 0 0 0 0 0 0 0 0 0 0 0 0 127 0" result="hardAlpha"/>
<feOffset dy="4"/>
<feGaussianBlur stdDeviation="2"/>
<feComposite in2="hardAlpha" operator="out"/>
<feColorMatrix type="matrix" values="0 0 0 0 0 0 0 0 0 0 0 0 0 0 0 0 0 0 0.25 0"/>
<feBlend mode="normal" in2="BackgroundImageFix" result="effect1_dropShadow_1316_829"/>
<feBlend mode="normal" in="SourceGraphic" in2="effect1_dropShadow_1316_829" result="shape"/>
</filter>
<filter id="filter2_d_1316_829" x="4" y="5" width="23" height="23" filterUnits="userSpaceOnUse" color-interpolation-filters="sRGB">
<feFlood flood-opacity="0" result="BackgroundImageFix"/>
<feColorMatrix in="SourceAlpha" type="matrix" values="0 0 0 0 0 0 0 0 0 0 0 0 0 0 0 0 0 0 127 0" result="hardAlpha"/>
<feOffset dy="4"/>
<feGaussianBlur stdDeviation="2"/>
<feComposite in2="hardAlpha" operator="out"/>
<feColorMatrix type="matrix" values="0 0 0 0 0 0 0 0 0 0 0 0 0 0 0 0 0 0 0.25 0"/>
<feBlend mode="normal" in2="BackgroundImageFix" result="effect1_dropShadow_1316_829"/>
<feBlend mode="normal" in="SourceGraphic" in2="effect1_dropShadow_1316_829" result="shape"/>
</filter>
<filter id="filter3_d_1316_829" x="65" y="59" width="23" height="23" filterUnits="userSpaceOnUse" color-interpolation-filters="sRGB">
<feFlood flood-opacity="0" result="BackgroundImageFix"/>
<feColorMatrix in="SourceAlpha" type="matrix" values="0 0 0 0 0 0 0 0 0 0 0 0 0 0 0 0 0 0 127 0" result="hardAlpha"/>
<feOffset dy="4"/>
<feGaussianBlur stdDeviation="2"/>
<feComposite in2="hardAlpha" operator="out"/>
<feColorMatrix type="matrix" values="0 0 0 0 0 0 0 0 0 0 0 0 0 0 0 0 0 0 0.25 0"/>
<feBlend mode="normal" in2="BackgroundImageFix" result="effect1_dropShadow_1316_829"/>
<feBlend mode="normal" in="SourceGraphic" in2="effect1_dropShadow_1316_829" result="shape"/>
</filter>
<filter id="filter4_d_1316_829" x="2" y="57" width="23" height="23" filterUnits="userSpaceOnUse" color-interpolation-filters="sRGB">
<feFlood flood-opacity="0" result="BackgroundImageFix"/>
<feColorMatrix in="SourceAlpha" type="matrix" values="0 0 0 0 0 0 0 0 0 0 0 0 0 0 0 0 0 0 127 0" result="hardAlpha"/>
<feOffset dy="4"/>
<feGaussianBlur stdDeviation="2"/>
<feComposite in2="hardAlpha" operator="out"/>
<feColorMatrix type="matrix" values="0 0 0 0 0 0 0 0 0 0 0 0 0 0 0 0 0 0 0.25 0"/>
<feBlend mode="normal" in2="BackgroundImageFix" result="effect1_dropShadow_1316_829"/>
<feBlend mode="normal" in="SourceGraphic" in2="effect1_dropShadow_1316_829" result="shape"/>
</filter>
<filter id="filter5_d_1316_829" x="66" y="27" width="18" height="18" filterUnits="userSpaceOnUse" color-interpolation-filters="sRGB">
<feFlood flood-opacity="0" result="BackgroundImageFix"/>
<feColorMatrix in="SourceAlpha" type="matrix" values="0 0 0 0 0 0 0 0 0 0 0 0 0 0 0 0 0 0 127 0" result="hardAlpha"/>
<feOffset dy="4"/>
<feGaussianBlur stdDeviation="2"/>
<feComposite in2="hardAlpha" operator="out"/>
<feColorMatrix type="matrix" values="0 0 0 0 0 0 0 0 0 0 0 0 0 0 0 0 0 0 0.25 0"/>
<feBlend mode="normal" in2="BackgroundImageFix" result="effect1_dropShadow_1316_829"/>
<feBlend mode="normal" in="SourceGraphic" in2="effect1_dropShadow_1316_829" result="shape"/>
</filter>
<linearGradient id="paint0_linear_1316_829" x1="71.4989" y1="8.14014" x2="71.4989" y2="17.8605" gradientUnits="userSpaceOnUse">
<stop stop-color="#FBB03B"/>
<stop offset="1" stop-color="#F78140"/>
</linearGradient>
<linearGradient id="paint1_linear_1316_829" x1="71.5007" y1="7.34521" x2="71.5007" y2="18.655" gradientUnits="userSpaceOnUse">
<stop stop-color="#FBB03B"/>
<stop offset="1" stop-color="#F78140"/>
</linearGradient>
<linearGradient id="paint2_linear_1316_829" x1="71.4998" y1="2" x2="71.4998" y2="6.17325" gradientUnits="userSpaceOnUse">
<stop stop-color="#FBB03B"/>
<stop offset="1" stop-color="#F78140"/>
</linearGradient>
<linearGradient id="paint3_linear_1316_829" x1="71.4998" y1="19.8267" x2="71.4998" y2="23.9999" gradientUnits="userSpaceOnUse">
<stop stop-color="#FBB03B"/>
<stop offset="1" stop-color="#F78140"/>
</linearGradient>
<linearGradient id="paint4_linear_1316_829" x1="80.4128" y1="12.2051" x2="80.4128" y2="13.7945" gradientUnits="userSpaceOnUse">
<stop stop-color="#FBB03B"/>
<stop offset="1" stop-color="#F78140"/>
</linearGradient>
<linearGradient id="paint5_linear_1316_829" x1="62.5867" y1="12.2051" x2="62.5867" y2="13.7945" gradientUnits="userSpaceOnUse">
<stop stop-color="#FBB03B"/>
<stop offset="1" stop-color="#F78140"/>
</linearGradient>
<linearGradient id="paint6_linear_1316_829" x1="77.806" y1="4.98682" x2="77.806" y2="8.40466" gradientUnits="userSpaceOnUse">
<stop stop-color="#FBB03B"/>
<stop offset="1" stop-color="#F78140"/>
</linearGradient>
<linearGradient id="paint7_linear_1316_829" x1="65.1976" y1="17.5942" x2="65.1976" y2="21.0121" gradientUnits="userSpaceOnUse">
<stop stop-color="#FBB03B"/>
<stop offset="1" stop-color="#F78140"/>
</linearGradient>
<linearGradient id="paint8_linear_1316_829" x1="77.8031" y1="17.5942" x2="77.8031" y2="21.0121" gradientUnits="userSpaceOnUse">
<stop stop-color="#FBB03B"/>
<stop offset="1" stop-color="#F78140"/>
</linearGradient>
<linearGradient id="paint9_linear_1316_829" x1="65.1976" y1="4.98682" x2="65.1976" y2="8.40466" gradientUnits="userSpaceOnUse">
<stop stop-color="#FBB03B"/>
<stop offset="1" stop-color="#F78140"/>
</linearGradient>
<linearGradient id="paint10_linear_1316_829" x1="42.5" y1="17" x2="42.5" y2="67" gradientUnits="userSpaceOnUse">
<stop stop-color="#FBB03B"/>
<stop offset="1" stop-color="#F78140"/>
</linearGradient>
<linearGradient id="paint11_linear_1316_829" x1="15.5" y1="20" x2="15.5" y2="5" gradientUnits="userSpaceOnUse">
<stop stop-color="#F78140"/>
<stop offset="1" stop-color="#FBB03B"/>
</linearGradient>
<linearGradient id="paint12_linear_1316_829" x1="76.5" y1="74" x2="76.5" y2="59" gradientUnits="userSpaceOnUse">
<stop stop-color="#F78140"/>
<stop offset="1" stop-color="#FBB03B"/>
</linearGradient>
<linearGradient id="paint13_linear_1316_829" x1="13.5" y1="72" x2="13.5" y2="57" gradientUnits="userSpaceOnUse">
<stop stop-color="#F78140"/>
<stop offset="1" stop-color="#FBB03B"/>
</linearGradient>
<linearGradient id="paint14_linear_1316_829" x1="75" y1="37" x2="75" y2="27" gradientUnits="userSpaceOnUse">
<stop stop-color="#F78140"/>
<stop offset="1" stop-color="#FBB03B"/>
</linearGradient>
<clipPath id="clip0_1316_829">
<rect width="83.75" height="83.75" fill="white" transform="translate(0.5)"/>
</clipPath>
</defs>
</svg>
