<svg width="84" height="84" viewBox="0 0 84 84" fill="none" xmlns="http://www.w3.org/2000/svg">
<g filter="url(#filter0_d_2117_4)">
<path d="M23.1601 18.1362C23.0381 18.2895 22.9733 18.467 22.9733 18.6482C22.9733 18.8294 23.0381 19.0069 23.1601 19.1602C23.2409 19.3522 25.4223 21.4642 28.0076 23.8962L32.6936 28.3761L32.0473 28.9521L31.4009 29.4641H24.2104C19.9284 29.4641 16.939 29.5281 16.6966 29.5921C16.3676 29.6951 16.0688 29.8505 15.8187 30.0487C15.5685 30.2468 15.3724 30.4835 15.2424 30.7441L15 31.1921V61.208L15.2424 61.72C15.3271 61.9547 15.4813 62.17 15.692 62.3481C15.9028 62.5262 16.1641 62.6619 16.4543 62.744C16.939 63 17.0198 63 41.5 63H65.9802L66.5457 62.744C66.8323 62.6396 67.0882 62.4889 67.2969 62.3015C67.5056 62.1141 67.6625 61.8943 67.7576 61.656C67.9192 61.208 68 61.144 68 46.2321V31.1921L67.6768 30.7441C67.5374 30.4674 67.3468 30.2085 67.1113 29.9761C66.3841 29.4641 66.6265 29.4641 58.7896 29.4641H51.5991L50.9527 28.9521L50.3064 28.3761L54.9924 23.8962C57.5777 21.4642 59.7591 19.3522 59.8399 19.1602C59.9273 18.9962 59.9654 18.8183 59.9514 18.6407C59.9374 18.463 59.8716 18.2903 59.7591 18.1362C59.5168 17.8802 58.7896 18.0082 58.3049 18.3282L52.5686 22.9362C47.4787 27.0961 47.1555 27.3521 46.8323 27.2881L45.6204 27.0961C43.7351 26.7847 41.8017 26.6984 39.8841 26.8401C39.0124 26.8415 38.1441 26.9274 37.2988 27.0961L36.0869 27.2881C35.7637 27.3521 35.4405 27.0961 30.3506 22.9362L24.6143 18.3282C24.2104 18.0082 23.4024 17.8802 23.1601 18.1362ZM49.7409 34.2001L50.872 34.5841C51.6367 35.0716 52.2225 35.7125 52.5686 36.4401L52.8918 36.9521V46.0401C52.8918 54.104 52.8918 55.192 52.7302 55.64C52.5502 56.2817 52.143 56.8693 51.5562 57.3341C50.9695 57.7988 50.2277 58.1214 49.4177 58.264C48.9329 58.328 45.2973 58.392 36.0061 58.328H23.1601L22.5945 58.136C22.0117 57.9278 21.4889 57.6274 21.0582 57.2532C20.6275 56.879 20.298 56.4389 20.0899 55.96L19.8476 55.384V46.4881C19.7668 40.3441 19.8476 37.4641 19.9284 37.1441C20.0535 36.4691 20.4151 35.8354 20.972 35.315C21.529 34.7946 22.2591 34.4083 23.0793 34.2001C23.3216 34.1361 29.2195 34.0721 36.3293 34.0721C47.3979 34.0721 49.1753 34.0721 49.7409 34.2001ZM61.4558 34.2001C62.0839 34.4197 62.5974 34.8039 62.9101 35.2881C63.2557 35.8508 63.3142 36.4974 63.0734 37.0934C62.8327 37.6893 62.3112 38.1889 61.6174 38.4881C60.9786 38.6289 60.3001 38.6065 59.6784 38.4241C58.9961 38.1497 58.4778 37.6734 58.2358 37.0983C57.9939 36.5233 58.0477 35.8959 58.3857 35.3521C58.6047 34.8797 59.0491 34.4942 59.6233 34.2788C60.1975 34.0633 60.8556 34.0351 61.4558 34.2001V34.2001ZM61.779 41.6241C62.2352 41.8221 62.6082 42.1215 62.8523 42.4854C63.0963 42.8493 63.2007 43.2618 63.1524 43.6721C63.1758 44.2284 62.9292 44.7706 62.4633 45.1872C61.9975 45.6039 61.3478 45.8633 60.6479 45.9121C60.0495 45.8801 59.4808 45.6939 59.0286 45.3819C58.5763 45.0699 58.2654 44.6492 58.1433 44.1841C57.9839 43.6168 58.0934 43.0229 58.4509 42.5154C58.8085 42.008 59.3891 41.6224 60.0823 41.4321C60.6588 41.336 61.2595 41.404 61.779 41.6241V41.6241ZM63.4756 48.8561C63.718 48.9841 63.718 49.2401 63.718 53.464C63.718 57.688 63.718 58.008 63.4756 58.2C63.2332 58.392 63.1524 58.392 60.6479 58.392C58.1433 58.392 58.0625 58.328 57.8201 58.2C57.5777 58.072 57.5777 57.88 57.5777 53.464C57.5777 49.0481 57.6585 48.9841 57.8201 48.8561C57.9817 48.7281 58.2241 48.6641 60.6479 48.6641C63.0716 48.6641 63.314 48.6641 63.4756 48.8561Z" fill="url(#paint0_linear_2117_4)"/>
</g>
<path d="M30 44.4193C30 48.0915 32.6126 50.0484 34.5251 51.8C35.2 52.4181 35.85 53 36.5 53C37.15 53 37.8 52.4181 38.4749 51.8C40.3874 50.0484 43 48.0915 43 44.4193C43 40.747 39.4249 38.1427 36.5 41.6732C33.5751 38.1427 30 40.747 30 44.4193Z" fill="url(#paint1_linear_2117_4)"/>
<defs>
<filter id="filter0_d_2117_4" x="11" y="18" width="61" height="53" filterUnits="userSpaceOnUse" color-interpolation-filters="sRGB">
<feFlood flood-opacity="0" result="BackgroundImageFix"/>
<feColorMatrix in="SourceAlpha" type="matrix" values="0 0 0 0 0 0 0 0 0 0 0 0 0 0 0 0 0 0 127 0" result="hardAlpha"/>
<feOffset dy="4"/>
<feGaussianBlur stdDeviation="2"/>
<feComposite in2="hardAlpha" operator="out"/>
<feColorMatrix type="matrix" values="0 0 0 0 0 0 0 0 0 0 0 0 0 0 0 0 0 0 0.25 0"/>
<feBlend mode="normal" in2="BackgroundImageFix" result="effect1_dropShadow_2117_4"/>
<feBlend mode="normal" in="SourceGraphic" in2="effect1_dropShadow_2117_4" result="shape"/>
</filter>
<linearGradient id="paint0_linear_2117_4" x1="41.5" y1="18" x2="41.5" y2="63" gradientUnits="userSpaceOnUse">
<stop stop-color="white"/>
<stop offset="1" stop-color="#BFBFBF"/>
</linearGradient>
<linearGradient id="paint1_linear_2117_4" x1="36.5" y1="40" x2="36.5" y2="53" gradientUnits="userSpaceOnUse">
<stop stop-color="white"/>
<stop offset="1" stop-color="#BFBFBF"/>
</linearGradient>
</defs>
</svg>
