<svg width="84" height="84" viewBox="0 0 84 84" fill="none" xmlns="http://www.w3.org/2000/svg">
<g clip-path="url(#clip0_1328_1044)">
<g filter="url(#filter0_d_1328_1044)">
<path d="M70.9989 17.8605C73.6832 17.8605 75.8592 15.6845 75.8592 13.0003C75.8592 10.3161 73.6832 8.14014 70.9989 8.14014C68.3147 8.14014 66.1387 10.3161 66.1387 13.0003C66.1387 15.6845 68.3147 17.8605 70.9989 17.8605Z" fill="url(#paint0_linear_1328_1044)"/>
<path d="M71.0007 18.655C67.8825 18.655 65.3457 16.1182 65.3457 13.0001C65.3457 9.88194 67.8825 7.34521 71.0007 7.34521C74.1188 7.34521 76.6556 9.88194 76.6556 13.0001C76.6556 16.1182 74.1188 18.655 71.0007 18.655ZM71.0007 8.9346C68.758 8.9346 66.9351 10.7574 66.9351 13.0001C66.9351 15.2427 68.758 17.0656 71.0007 17.0656C73.2433 17.0656 75.0662 15.2427 75.0662 13.0001C75.0662 10.7574 73.2433 8.9346 71.0007 8.9346Z" fill="url(#paint1_linear_1328_1044)"/>
<path d="M70.9998 6.17325C70.5598 6.17325 70.2051 5.81856 70.2051 5.37856V2.79469C70.2051 2.35694 70.5598 2 70.9998 2C71.4375 2 71.7945 2.35469 71.7945 2.79469V5.37856C71.7945 5.81631 71.4375 6.17325 70.9998 6.17325Z" fill="url(#paint2_linear_1328_1044)"/>
<path d="M70.9998 23.9999C70.5598 23.9999 70.2051 23.6452 70.2051 23.2052V20.6214C70.2051 20.1836 70.5598 19.8267 70.9998 19.8267C71.4375 19.8267 71.7945 20.1836 71.7945 20.6214V23.2052C71.7945 23.6452 71.4375 23.9999 70.9998 23.9999Z" fill="url(#paint3_linear_1328_1044)"/>
<path d="M81.2048 13.7945H78.6209C78.1831 13.7945 77.8262 13.4398 77.8262 12.9998C77.8262 12.5598 78.1831 12.2051 78.6209 12.2051H81.2048C81.6425 12.2051 81.9995 12.5598 81.9995 12.9998C81.9995 13.4375 81.6448 13.7945 81.2048 13.7945Z" fill="url(#paint4_linear_1328_1044)"/>
<path d="M63.3786 13.7945H60.7947C60.3569 13.7945 60 13.4375 60 12.9998C60 12.5598 60.3569 12.2051 60.7947 12.2051H63.3786C63.8186 12.2051 64.1733 12.5598 64.1733 12.9998C64.1733 13.4375 63.8164 13.7945 63.3786 13.7945Z" fill="url(#paint5_linear_1328_1044)"/>
<path d="M76.3912 8.40466C76.1869 8.40466 75.9849 8.32609 75.83 8.17119C75.5202 7.8614 75.5202 7.35854 75.83 7.0465L77.6574 5.21916C77.9672 4.90937 78.47 4.90937 78.7821 5.21916C79.0919 5.52896 79.0919 6.03181 78.7821 6.34385L76.9525 8.17344C76.7976 8.32834 76.5933 8.40466 76.3912 8.40466Z" fill="url(#paint6_linear_1328_1044)"/>
<path d="M63.7838 21.0121C63.5795 21.0121 63.3775 20.9335 63.2226 20.7786C62.9128 20.4688 62.9128 19.966 63.2226 19.6539L65.0499 17.8266C65.3597 17.5168 65.8626 17.5168 66.1747 17.8266C66.4845 18.1364 66.4845 18.6392 66.1747 18.9513L64.3473 20.7786C64.1924 20.9335 63.9881 21.0121 63.7838 21.0121Z" fill="url(#paint7_linear_1328_1044)"/>
<path d="M78.2147 21.0121C78.0104 21.0121 77.8084 20.9335 77.6535 20.7786L75.8261 18.9513C75.5163 18.6415 75.5163 18.1386 75.8261 17.8266C76.1359 17.5168 76.6388 17.5168 76.9508 17.8266L78.7782 19.6539C79.088 19.9637 79.088 20.4666 78.7782 20.7786C78.6233 20.9335 78.419 21.0121 78.2147 21.0121Z" fill="url(#paint8_linear_1328_1044)"/>
<path d="M65.6112 8.40466C65.4069 8.40466 65.2048 8.32609 65.0499 8.17119L63.2226 6.34385C62.9128 6.03406 62.9128 5.5312 63.2226 5.21916C63.5324 4.90937 64.0352 4.90937 64.3473 5.21916L66.1747 7.0465C66.4845 7.3563 66.4845 7.85915 66.1747 8.17119C66.0198 8.32834 65.8155 8.40466 65.6112 8.40466Z" fill="url(#paint9_linear_1328_1044)"/>
</g>
<g filter="url(#filter1_d_1328_1044)">
<path d="M38.9306 17.1626C31.6541 18.0421 25.0404 22.1794 20.9679 28.391C20.1858 29.5853 18.948 32.0504 18.47 33.3865C17.9919 34.7006 17.4276 36.9264 17.1996 38.3819C16.9281 40.1292 16.9389 43.9298 17.1996 45.6567C18.4919 53.888 23.5419 60.8159 30.9052 64.4431C33.2398 65.594 35.3796 66.2781 38.0837 66.7454C39.9623 67.0602 43.7311 67.0928 45.6204 66.7888C55.6663 65.2144 63.6699 58.0473 66.1898 48.3717C66.7 46.428 66.9066 44.9838 66.9826 42.8768C67.276 34.9169 63.8439 27.4789 57.5127 22.3641C54.8413 20.2031 50.7903 18.292 47.326 17.5426C44.8281 16.9993 41.4832 16.8473 38.9306 17.1626ZM44.2633 20.4638C52.3541 21.3759 59.2066 26.5994 62.1826 34.1461C63.1816 36.6872 63.5944 39.0216 63.5837 42.0734C63.5837 44.4624 63.4536 45.5373 62.9209 47.557C61.5959 52.6499 58.2944 57.1999 53.7878 60.1644C49.824 62.7815 44.676 64.0411 39.9628 63.5743C34.6847 63.0422 30.1235 60.8378 26.4526 57.0479C24.0307 54.5502 22.521 52.0744 21.446 48.8599C19.9363 44.3099 19.9363 39.7164 21.4679 35.123C24.1067 27.185 31.1985 21.4407 39.5393 20.474C40.7011 20.3439 43.1118 20.3332 44.2633 20.4638Z" fill="url(#paint10_linear_1328_1044)"/>
<path d="M28.8954 28.1413C28.5806 28.2606 28.1459 28.7494 28.0811 29.0534C28.0378 29.2488 28.0918 29.5314 28.2224 29.8243C28.5158 30.4864 37.2581 46.4496 37.4102 46.5904C37.5729 46.7644 53.8091 55.636 54.3086 55.8314C54.6561 55.9727 54.754 55.9727 55.1015 55.8206C55.601 55.6145 55.9703 55.0605 55.8943 54.6151C55.8617 54.333 47.4775 38.8586 46.7612 37.7291C46.5551 37.4031 45.3382 36.6975 38.1163 32.7556C33.5005 30.2252 29.5694 28.1295 29.3847 28.1081C29.2102 28.0867 28.9821 28.0979 28.8954 28.1413ZM42.9592 39.8906C44.4255 40.5528 44.7729 42.497 43.6326 43.6372C42.8831 44.3754 41.9495 44.5386 40.9933 44.0932C39.2449 43.279 39.2122 40.8466 40.9393 39.9345C41.526 39.6299 42.3403 39.6085 42.9592 39.8906Z" fill="url(#paint11_linear_1328_1044)"/>
</g>
<g filter="url(#filter2_d_1328_1044)">
<path d="M16.2497 8.16283C16.1812 8.25835 15.9765 8.8322 15.826 9.43242C14.9787 12.5319 13.7084 13.8022 10.5524 14.7581C8.57101 15.3591 8.50325 15.7141 10.2521 16.1781C11.7827 16.588 13.2035 17.298 13.968 18.0351C14.7198 18.7722 15.4708 20.2606 15.8945 21.8588C16.1135 22.7328 16.2361 22.9652 16.4544 22.9923C16.8231 23.0472 16.9601 22.8283 17.2332 21.7362C17.5613 20.3982 18.2717 18.9233 18.9407 18.1998C19.6511 17.4349 20.9898 16.7249 22.5746 16.2608C23.9134 15.8787 24.0639 15.7967 23.9818 15.4275C23.9547 15.25 23.6131 15.086 22.6702 14.813C19.4735 13.8842 18.1754 12.601 17.2596 9.47377C17.082 8.8044 16.8773 8.21772 16.836 8.13574C16.714 7.94399 16.4273 7.95753 16.2497 8.16283Z" fill="url(#paint12_linear_1328_1044)"/>
</g>
<g filter="url(#filter3_d_1328_1044)">
<path d="M73.8331 54.1086C73.7875 54.1722 73.651 54.5548 73.5507 54.9549C72.9858 57.0213 72.139 57.8681 70.0349 58.5054C68.714 58.906 68.6688 59.1427 69.8347 59.4521C70.8551 59.7253 71.8023 60.1987 72.312 60.6901C72.8132 61.1815 73.3139 62.1737 73.5963 63.2392C73.7423 63.8219 73.8241 63.9768 73.9696 63.9948C74.2154 64.0314 74.3067 63.8855 74.4888 63.1575C74.7075 62.2655 75.1811 61.2822 75.6271 60.7998C76.1007 60.2899 76.9932 59.8166 78.0498 59.5072C78.9422 59.2525 79.0426 59.1978 78.9879 58.9517C78.9698 58.8333 78.7421 58.724 78.1135 58.542C75.9823 57.9228 75.1169 57.0674 74.5064 54.9825C74.388 54.5363 74.2515 54.1451 74.224 54.0905C74.1427 53.9627 73.9515 53.9717 73.8331 54.1086Z" fill="url(#paint13_linear_1328_1044)"/>
</g>
<g filter="url(#filter4_d_1328_1044)">
<path d="M13.8331 64.1086C13.7875 64.1722 13.651 64.5548 13.5507 64.9549C12.9858 67.0213 12.139 67.8681 10.0349 68.5054C8.71401 68.906 8.66883 69.1427 9.83473 69.4521C10.8551 69.7253 11.8023 70.1987 12.312 70.6901C12.8132 71.1815 13.3139 72.1737 13.5963 73.2392C13.7423 73.8219 13.8241 73.9768 13.9696 73.9948C14.2154 74.0314 14.3067 73.8855 14.4888 73.1575C14.7075 72.2655 15.1811 71.2822 15.6271 70.7998C16.1007 70.2899 16.9932 69.8166 18.0498 69.5072C18.9422 69.2525 19.0426 69.1978 18.9879 68.9517C18.9698 68.8333 18.7421 68.724 18.1135 68.542C15.9823 67.9228 15.1169 67.0674 14.5064 64.9825C14.388 64.5363 14.2515 64.1451 14.224 64.0905C14.1427 63.9627 13.9515 63.9717 13.8331 64.1086Z" fill="url(#paint14_linear_1328_1044)"/>
</g>
<g filter="url(#filter5_d_1328_1044)">
<path d="M74.8331 28.1086C74.7875 28.1722 74.651 28.5548 74.5507 28.9549C73.9858 31.0213 73.139 31.8681 71.0349 32.5054C69.714 32.906 69.6688 33.1427 70.8347 33.4521C71.8551 33.7253 72.8023 34.1987 73.312 34.6901C73.8132 35.1815 74.3139 36.1737 74.5963 37.2392C74.7423 37.8219 74.8241 37.9768 74.9696 37.9948C75.2154 38.0314 75.3067 37.8855 75.4888 37.1575C75.7075 36.2655 76.1811 35.2822 76.6271 34.7998C77.1007 34.2899 77.9932 33.8166 79.0498 33.5072C79.9422 33.2525 80.0426 33.1978 79.9879 32.9517C79.9698 32.8333 79.7421 32.724 79.1135 32.542C76.9823 31.9228 76.1169 31.0674 75.5064 28.9825C75.388 28.5363 75.2515 28.1451 75.224 28.0905C75.1427 27.9627 74.9515 27.9717 74.8331 28.1086Z" fill="url(#paint15_linear_1328_1044)"/>
</g>
</g>
<defs>
<filter id="filter0_d_1328_1044" x="56" y="2" width="30" height="30" filterUnits="userSpaceOnUse" color-interpolation-filters="sRGB">
<feFlood flood-opacity="0" result="BackgroundImageFix"/>
<feColorMatrix in="SourceAlpha" type="matrix" values="0 0 0 0 0 0 0 0 0 0 0 0 0 0 0 0 0 0 127 0" result="hardAlpha"/>
<feOffset dy="4"/>
<feGaussianBlur stdDeviation="2"/>
<feComposite in2="hardAlpha" operator="out"/>
<feColorMatrix type="matrix" values="0 0 0 0 0 0 0 0 0 0 0 0 0 0 0 0 0 0 0.25 0"/>
<feBlend mode="normal" in2="BackgroundImageFix" result="effect1_dropShadow_1328_1044"/>
<feBlend mode="normal" in="SourceGraphic" in2="effect1_dropShadow_1328_1044" result="shape"/>
</filter>
<filter id="filter1_d_1328_1044" x="13" y="17" width="58" height="58" filterUnits="userSpaceOnUse" color-interpolation-filters="sRGB">
<feFlood flood-opacity="0" result="BackgroundImageFix"/>
<feColorMatrix in="SourceAlpha" type="matrix" values="0 0 0 0 0 0 0 0 0 0 0 0 0 0 0 0 0 0 127 0" result="hardAlpha"/>
<feOffset dy="4"/>
<feGaussianBlur stdDeviation="2"/>
<feComposite in2="hardAlpha" operator="out"/>
<feColorMatrix type="matrix" values="0 0 0 0 0 0 0 0 0 0 0 0 0 0 0 0 0 0 0.25 0"/>
<feBlend mode="normal" in2="BackgroundImageFix" result="effect1_dropShadow_1328_1044"/>
<feBlend mode="normal" in="SourceGraphic" in2="effect1_dropShadow_1328_1044" result="shape"/>
</filter>
<filter id="filter2_d_1328_1044" x="5" y="8" width="23" height="23" filterUnits="userSpaceOnUse" color-interpolation-filters="sRGB">
<feFlood flood-opacity="0" result="BackgroundImageFix"/>
<feColorMatrix in="SourceAlpha" type="matrix" values="0 0 0 0 0 0 0 0 0 0 0 0 0 0 0 0 0 0 127 0" result="hardAlpha"/>
<feOffset dy="4"/>
<feGaussianBlur stdDeviation="2"/>
<feComposite in2="hardAlpha" operator="out"/>
<feColorMatrix type="matrix" values="0 0 0 0 0 0 0 0 0 0 0 0 0 0 0 0 0 0 0.25 0"/>
<feBlend mode="normal" in2="BackgroundImageFix" result="effect1_dropShadow_1328_1044"/>
<feBlend mode="normal" in="SourceGraphic" in2="effect1_dropShadow_1328_1044" result="shape"/>
</filter>
<filter id="filter3_d_1328_1044" x="65" y="54" width="18" height="18" filterUnits="userSpaceOnUse" color-interpolation-filters="sRGB">
<feFlood flood-opacity="0" result="BackgroundImageFix"/>
<feColorMatrix in="SourceAlpha" type="matrix" values="0 0 0 0 0 0 0 0 0 0 0 0 0 0 0 0 0 0 127 0" result="hardAlpha"/>
<feOffset dy="4"/>
<feGaussianBlur stdDeviation="2"/>
<feComposite in2="hardAlpha" operator="out"/>
<feColorMatrix type="matrix" values="0 0 0 0 0 0 0 0 0 0 0 0 0 0 0 0 0 0 0.25 0"/>
<feBlend mode="normal" in2="BackgroundImageFix" result="effect1_dropShadow_1328_1044"/>
<feBlend mode="normal" in="SourceGraphic" in2="effect1_dropShadow_1328_1044" result="shape"/>
</filter>
<filter id="filter4_d_1328_1044" x="5" y="64" width="18" height="18" filterUnits="userSpaceOnUse" color-interpolation-filters="sRGB">
<feFlood flood-opacity="0" result="BackgroundImageFix"/>
<feColorMatrix in="SourceAlpha" type="matrix" values="0 0 0 0 0 0 0 0 0 0 0 0 0 0 0 0 0 0 127 0" result="hardAlpha"/>
<feOffset dy="4"/>
<feGaussianBlur stdDeviation="2"/>
<feComposite in2="hardAlpha" operator="out"/>
<feColorMatrix type="matrix" values="0 0 0 0 0 0 0 0 0 0 0 0 0 0 0 0 0 0 0.25 0"/>
<feBlend mode="normal" in2="BackgroundImageFix" result="effect1_dropShadow_1328_1044"/>
<feBlend mode="normal" in="SourceGraphic" in2="effect1_dropShadow_1328_1044" result="shape"/>
</filter>
<filter id="filter5_d_1328_1044" x="66" y="28" width="18" height="18" filterUnits="userSpaceOnUse" color-interpolation-filters="sRGB">
<feFlood flood-opacity="0" result="BackgroundImageFix"/>
<feColorMatrix in="SourceAlpha" type="matrix" values="0 0 0 0 0 0 0 0 0 0 0 0 0 0 0 0 0 0 127 0" result="hardAlpha"/>
<feOffset dy="4"/>
<feGaussianBlur stdDeviation="2"/>
<feComposite in2="hardAlpha" operator="out"/>
<feColorMatrix type="matrix" values="0 0 0 0 0 0 0 0 0 0 0 0 0 0 0 0 0 0 0.25 0"/>
<feBlend mode="normal" in2="BackgroundImageFix" result="effect1_dropShadow_1328_1044"/>
<feBlend mode="normal" in="SourceGraphic" in2="effect1_dropShadow_1328_1044" result="shape"/>
</filter>
<linearGradient id="paint0_linear_1328_1044" x1="70.9989" y1="8.14014" x2="70.9989" y2="17.8605" gradientUnits="userSpaceOnUse">
<stop stop-color="#FBB03B"/>
<stop offset="1" stop-color="#F78140"/>
</linearGradient>
<linearGradient id="paint1_linear_1328_1044" x1="71.0007" y1="7.34521" x2="71.0007" y2="18.655" gradientUnits="userSpaceOnUse">
<stop stop-color="#FBB03B"/>
<stop offset="1" stop-color="#F78140"/>
</linearGradient>
<linearGradient id="paint2_linear_1328_1044" x1="70.9998" y1="2" x2="70.9998" y2="6.17325" gradientUnits="userSpaceOnUse">
<stop stop-color="#FBB03B"/>
<stop offset="1" stop-color="#F78140"/>
</linearGradient>
<linearGradient id="paint3_linear_1328_1044" x1="70.9998" y1="19.8267" x2="70.9998" y2="23.9999" gradientUnits="userSpaceOnUse">
<stop stop-color="#FBB03B"/>
<stop offset="1" stop-color="#F78140"/>
</linearGradient>
<linearGradient id="paint4_linear_1328_1044" x1="79.9128" y1="12.2051" x2="79.9128" y2="13.7945" gradientUnits="userSpaceOnUse">
<stop stop-color="#FBB03B"/>
<stop offset="1" stop-color="#F78140"/>
</linearGradient>
<linearGradient id="paint5_linear_1328_1044" x1="62.0867" y1="12.2051" x2="62.0867" y2="13.7945" gradientUnits="userSpaceOnUse">
<stop stop-color="#FBB03B"/>
<stop offset="1" stop-color="#F78140"/>
</linearGradient>
<linearGradient id="paint6_linear_1328_1044" x1="77.306" y1="4.98682" x2="77.306" y2="8.40466" gradientUnits="userSpaceOnUse">
<stop stop-color="#FBB03B"/>
<stop offset="1" stop-color="#F78140"/>
</linearGradient>
<linearGradient id="paint7_linear_1328_1044" x1="64.6986" y1="17.5942" x2="64.6986" y2="21.0121" gradientUnits="userSpaceOnUse">
<stop stop-color="#FBB03B"/>
<stop offset="1" stop-color="#F78140"/>
</linearGradient>
<linearGradient id="paint8_linear_1328_1044" x1="77.3021" y1="17.5942" x2="77.3021" y2="21.0121" gradientUnits="userSpaceOnUse">
<stop stop-color="#FBB03B"/>
<stop offset="1" stop-color="#F78140"/>
</linearGradient>
<linearGradient id="paint9_linear_1328_1044" x1="64.6986" y1="4.98682" x2="64.6986" y2="8.40466" gradientUnits="userSpaceOnUse">
<stop stop-color="#FBB03B"/>
<stop offset="1" stop-color="#F78140"/>
</linearGradient>
<linearGradient id="paint10_linear_1328_1044" x1="42" y1="67" x2="42" y2="17" gradientUnits="userSpaceOnUse">
<stop stop-color="#F78140"/>
<stop offset="1" stop-color="#FBB03B"/>
</linearGradient>
<linearGradient id="paint11_linear_1328_1044" x1="41.9853" y1="55.936" x2="41.9853" y2="28.0975" gradientUnits="userSpaceOnUse">
<stop stop-color="#F78140"/>
<stop offset="1" stop-color="#FBB03B"/>
</linearGradient>
<linearGradient id="paint12_linear_1328_1044" x1="16.5" y1="23" x2="16.5" y2="8" gradientUnits="userSpaceOnUse">
<stop stop-color="#F78140"/>
<stop offset="1" stop-color="#FBB03B"/>
</linearGradient>
<linearGradient id="paint13_linear_1328_1044" x1="74" y1="64" x2="74" y2="54" gradientUnits="userSpaceOnUse">
<stop stop-color="#F78140"/>
<stop offset="1" stop-color="#FBB03B"/>
</linearGradient>
<linearGradient id="paint14_linear_1328_1044" x1="14" y1="74" x2="14" y2="64" gradientUnits="userSpaceOnUse">
<stop stop-color="#F78140"/>
<stop offset="1" stop-color="#FBB03B"/>
</linearGradient>
<linearGradient id="paint15_linear_1328_1044" x1="75" y1="38" x2="75" y2="28" gradientUnits="userSpaceOnUse">
<stop stop-color="#F78140"/>
<stop offset="1" stop-color="#FBB03B"/>
</linearGradient>
<clipPath id="clip0_1328_1044">
<rect width="83.75" height="83.75" fill="white"/>
</clipPath>
</defs>
</svg>
