<svg width="84" height="84" viewBox="0 0 84 84" fill="none" xmlns="http://www.w3.org/2000/svg">
<g filter="url(#filter0_d_717_164)">
<path fill-rule="evenodd" clip-rule="evenodd" d="M49.626 16.1022C48.5311 16.3523 47.7889 16.8766 47.1558 17.8765C46.6813 18.6132 37.2148 57.6689 37.2148 58.8811C37.2148 60.2926 38.0547 61.6924 39.2835 62.3418C39.4903 62.4545 44.0773 63.6661 49.4795 65.0405C57.0112 66.9646 59.4814 67.5515 60.053 67.5515C61.3794 67.5391 62.7782 66.6767 63.3504 65.4899C63.4963 65.1903 65.7476 56.1694 68.4367 45.0876C68.7746 43.6948 69.0901 42.3958 69.3844 41.184C73.1352 25.7407 73.4456 24.4629 73.0224 23.5113C72.9842 23.4255 72.94 23.3423 72.8919 23.2516C72.8493 23.1713 72.8035 23.0851 72.756 22.9859C72.3665 22.186 71.8679 21.6616 71.0528 21.2369C70.6392 21.0246 51.694 16.1393 50.7818 16.0142C50.5141 15.9771 49.9908 16.0149 49.626 16.1022ZM34.1001 17.9884C34.6964 16.9762 35.7183 16.2395 36.8132 16.0642C37.5802 15.9398 37.884 15.9893 40.1963 16.5762C40.4749 16.6467 40.7269 16.7101 40.9547 16.7675L40.9548 16.7675C42.6943 17.2055 43.0224 17.2881 43.0451 17.4224C43.0504 17.4536 43.0392 17.4876 43.0253 17.5295C43.0194 17.5475 43.0129 17.567 43.0071 17.5884C42.9729 17.6939 41.8871 22.1733 40.3276 28.6065L40.3274 28.6072L40.3236 28.6231C39.6586 31.3663 38.9077 34.464 38.1156 37.7289C33.6376 56.2201 33.297 57.6694 33.2849 58.7188C33.2849 59.331 33.3458 60.1557 33.4308 60.5302C33.6985 61.7301 34.4775 63.2041 35.3047 64.1037C35.7672 64.6156 35.9619 64.9159 35.816 64.8658C35.7184 64.8292 34.5983 64.547 33.0787 64.1642L33.0782 64.1641L33.0768 64.1637C32.5132 64.0218 31.8947 63.8659 31.2531 63.7037C28.8806 63.1038 26.6901 62.5039 26.3863 62.3541C25.6682 62.0167 24.853 61.1673 24.5365 60.4299C24.3906 60.1049 24.2561 59.4802 24.232 59.0308C24.1832 58.2941 24.5968 56.4819 29.0018 38.3536C32.4089 24.2728 33.9053 18.3506 34.1001 17.9884ZM20.8136 18.0875C21.3122 17.0629 22.4927 16.2135 23.6485 16.0637L23.652 16.0632C23.8214 16.0392 23.954 16.0204 24.0872 16.0132C24.5667 15.9871 25.0544 16.1108 27.2979 16.6799L27.383 16.7014C29.817 17.3013 29.89 17.3385 29.7802 17.601C29.7193 17.7384 28.0522 24.5479 26.0692 32.7311L25.0644 36.8872L25.0643 36.8875C20.2563 56.7726 20.0482 57.6336 20.0546 58.493C20.0549 58.5319 20.0556 58.5708 20.0564 58.6115V58.6115C20.0575 58.6707 20.0587 58.7335 20.0587 58.8055C20.0587 60.83 20.74 62.6415 22.0417 64.1031C22.4921 64.6028 22.6868 64.903 22.553 64.8653C22.4191 64.8151 20.3993 64.3031 18.0509 63.7156C15.7152 63.1157 13.5127 62.5034 13.1721 62.3536C12.369 61.979 11.7118 61.2918 11.3102 60.417C11.2858 60.3624 11.262 60.3114 11.2392 60.2625C11.1992 60.1766 11.1622 60.0971 11.1298 60.0157C10.7277 59.0061 11.0426 57.7111 15.2645 40.3451L15.7761 38.2404C18.4411 27.3077 20.6677 18.3996 20.8136 18.0875ZM57.9458 33.0442C57.4592 32.9296 56.9513 33.0325 56.4223 33.3529L56.3369 33.3842L51.4306 36.0288C50.7146 36.4079 50.301 36.8155 50.1896 37.2515C50.0782 37.6875 50.2018 38.2474 50.5604 38.931C50.9352 39.6185 51.3578 40.0177 51.8282 40.1286C52.2987 40.2394 52.9304 40.1229 53.7233 39.779L54.1139 39.5629L51.9053 48.2103C51.8064 48.5979 51.7382 48.8985 51.7008 49.1123C51.6837 49.3137 51.7092 49.5508 51.7771 49.8236C51.9132 50.3008 52.4841 50.6579 53.4899 50.8949C54.5282 51.1395 55.2165 51.0706 55.555 50.6881C55.7466 50.4765 55.8732 50.2837 55.9348 50.1099C56.0168 49.9238 56.1052 49.645 56.2 49.2736L59.6459 35.7817C59.7944 35.2004 59.8631 34.7629 59.8521 34.4692C59.8329 34.2079 59.7626 34.0116 59.6414 33.8803C59.5242 33.7329 59.3381 33.5863 59.0829 33.4406C58.8278 33.2948 58.4487 33.1627 57.9458 33.0442Z" fill="url(#paint0_linear_717_164)"/>
</g>
<defs>
<filter id="filter0_d_717_164" x="7" y="16" width="70.167" height="59.5515" filterUnits="userSpaceOnUse" color-interpolation-filters="sRGB">
<feFlood flood-opacity="0" result="BackgroundImageFix"/>
<feColorMatrix in="SourceAlpha" type="matrix" values="0 0 0 0 0 0 0 0 0 0 0 0 0 0 0 0 0 0 127 0" result="hardAlpha"/>
<feOffset dy="4"/>
<feGaussianBlur stdDeviation="2"/>
<feComposite in2="hardAlpha" operator="out"/>
<feColorMatrix type="matrix" values="0 0 0 0 0 0 0 0 0 0 0 0 0 0 0 0 0 0 0.25 0"/>
<feBlend mode="normal" in2="BackgroundImageFix" result="effect1_dropShadow_717_164"/>
<feBlend mode="normal" in="SourceGraphic" in2="effect1_dropShadow_717_164" result="shape"/>
</filter>
<linearGradient id="paint0_linear_717_164" x1="42.0835" y1="16" x2="42.0835" y2="67.5515" gradientUnits="userSpaceOnUse">
<stop stop-color="white"/>
<stop offset="1" stop-color="#BFBFBF"/>
</linearGradient>
</defs>
</svg>
