<svg width="85" height="84" viewBox="0 0 85 84" fill="none" xmlns="http://www.w3.org/2000/svg">
<g clip-path="url(#clip0_1313_786)">
<g filter="url(#filter0_d_1313_786)">
<path fill-rule="evenodd" clip-rule="evenodd" d="M60.6774 15.2122C60.8968 15.0642 61.1563 14.9903 61.4193 15.001C61.6854 15.0207 61.9378 15.1291 62.1372 15.3096C62.3366 15.478 62.4742 15.7099 62.5278 15.9679C62.5814 16.2259 62.5478 16.4948 62.4324 16.7309L42.442 57.4116C42.3246 57.6515 42.1305 57.8435 41.8915 57.9558C38.2173 59.5655 34.2437 60.3441 30.2451 60.2379C28.3464 60.2324 26.4497 60.1104 24.5655 59.8725C31.5942 62.3576 39.1228 63.0082 46.4624 61.7648L65.3121 23.4068C65.4037 23.2115 65.5455 23.0449 65.7224 22.9249C65.8993 22.8048 66.1048 22.7356 66.3172 22.7246C66.5288 22.7113 66.7402 22.7532 66.9314 22.8464C67.0737 22.9145 67.2009 23.0114 67.3052 23.1312C67.4095 23.251 67.4887 23.3912 67.5379 23.5432C67.5872 23.6952 67.6055 23.8559 67.5918 24.0154C67.578 24.1749 67.5324 24.3298 67.4579 24.4708L48.313 63.4541C48.2282 63.6241 48.1053 63.7715 47.9543 63.8844C47.8033 63.9972 47.6283 64.0723 47.4435 64.1038C42.6556 64.9408 37.7697 65.023 32.9573 64.3474C39.1964 66.3987 45.7056 67.4722 52.2617 67.5311L67.4659 36.588C67.5675 36.3755 67.7284 36.1982 67.9284 36.0783C68.1285 35.9584 68.3588 35.9013 68.5906 35.914C68.7623 35.9167 68.9313 35.9583 69.0852 36.0358C69.2275 36.1039 69.3547 36.2007 69.459 36.3205C69.5633 36.4403 69.6425 36.5805 69.6917 36.7326C69.741 36.8846 69.7593 37.0453 69.7456 37.2048C69.7318 37.3642 69.6862 37.5192 69.6117 37.6601L54.0565 69.3341C53.9562 69.5348 53.8032 69.7034 53.6145 69.821C53.4258 69.9385 53.2088 70.0005 52.9876 70C29.6628 70 15.5594 58.102 15.2324 57.8177L15.1685 57.769L15.1047 57.704L15.0569 57.6553C14.8757 57.4545 14.7681 57.1962 14.7521 56.924C14.7361 56.6518 14.8127 56.3824 14.9691 56.161L32.8057 20.6373C32.9092 20.4398 33.0631 20.2745 33.2513 20.1587C33.4394 20.0429 33.6548 19.981 33.8746 19.9795C53.4343 19.9795 60.6056 15.2609 60.6774 15.2122ZM36.213 50.5895C37.625 51.3042 39.4082 50.9264 40.6012 48.2729C41.1568 46.8514 40.8188 45.9629 40.3762 44.7997C40.0439 43.9262 39.6527 42.8977 39.5367 41.3723C39.2998 38.2581 37.6041 37.759 37.6041 37.759L37.562 37.7409C37.562 37.7409 36.0532 36.8459 33.6084 38.8176C32.4342 39.7645 31.4219 40.205 30.5583 40.5808C29.3797 41.0936 28.4779 41.486 27.8194 42.8806C26.71 45.5701 27.681 47.0769 29.1701 47.6128C29.9415 47.8905 30.6679 47.9463 31.3321 47.9974C31.9501 48.0449 32.5142 48.0882 33.0108 48.3022L33.0636 48.2959C33.561 48.5102 33.9831 48.8858 34.4456 49.2973C34.941 49.7381 35.4827 50.2201 36.213 50.5895ZM39.0685 32.8376C38.3963 34.7734 36.7743 35.976 35.4457 35.5238C34.1171 35.0716 33.5849 33.1358 34.2571 31.2001C34.9293 29.2643 36.5513 28.0617 37.8799 28.5139C39.2085 28.966 39.7407 30.9019 39.0685 32.8376ZM44.5969 36.3339C43.3267 37.9612 41.4035 38.5526 40.3016 37.655C39.1996 36.7574 39.336 34.7105 40.6063 33.0833C41.8765 31.456 43.7996 30.8646 44.9016 31.7622C46.0035 32.6598 45.8671 34.7067 44.5969 36.3339ZM43.0111 39.8436C44.1173 38.4265 45.792 37.9116 46.7516 38.6933C47.7113 39.475 47.5925 41.2574 46.4863 42.6743C45.3802 44.0914 43.7055 44.6064 42.7458 43.8247C41.7862 43.043 41.905 41.2607 43.0111 39.8436ZM31.1112 31.9534C32.3385 32.1141 33.1142 33.6851 32.8439 35.4622C32.5736 37.2394 31.3596 38.5499 30.1324 38.3892C28.9052 38.2285 28.1294 36.6575 28.3997 34.8803C28.6699 33.1031 29.884 31.7927 31.1112 31.9534Z" fill="url(#paint0_linear_1313_786)"/>
</g>
<g filter="url(#filter1_d_1313_786)">
<path d="M15.2497 6.16283C15.1812 6.25835 14.9765 6.8322 14.826 7.43242C13.9787 10.5319 12.7084 11.8022 9.55237 12.7581C7.57101 13.3591 7.50325 13.7141 9.2521 14.1781C10.7827 14.588 12.2035 15.298 12.968 16.0351C13.7198 16.7722 14.4708 18.2606 14.8945 19.8588C15.1135 20.7328 15.2361 20.9652 15.4544 20.9923C15.8231 21.0472 15.9601 20.8283 16.2332 19.7362C16.5613 18.3982 17.2717 16.9233 17.9407 16.1998C18.6511 15.4349 19.9898 14.7249 21.5746 14.2608C22.9134 13.8787 23.0639 13.7967 22.9818 13.4275C22.9547 13.25 22.6131 13.086 21.6702 12.813C18.4735 11.8842 17.1754 10.601 16.2596 7.47377C16.082 6.8044 15.8773 6.21772 15.836 6.13574C15.714 5.94399 15.4273 5.95753 15.2497 6.16283Z" fill="url(#paint1_linear_1313_786)"/>
</g>
<g filter="url(#filter2_d_1313_786)">
<path d="M9.24968 59.1628C9.18121 59.2584 8.97651 59.8322 8.82601 60.4324C7.97869 63.5319 6.70843 64.8022 3.55237 65.7581C1.57101 66.3591 1.50325 66.7141 3.2521 67.1781C4.7827 67.588 6.20346 68.298 6.96804 69.0351C7.71979 69.7722 8.47083 71.2606 8.89449 72.8588C9.11345 73.7328 9.23613 73.9652 9.45438 73.9923C9.82312 74.0472 9.96006 73.8283 10.2332 72.7362C10.5613 71.3982 11.2717 69.9233 11.9407 69.1998C12.6511 68.4349 13.9898 67.7249 15.5746 67.2608C16.9134 66.8787 17.0639 66.7967 16.9818 66.4275C16.9547 66.25 16.6131 66.086 15.6702 65.813C12.4735 64.8842 11.1754 63.601 10.2596 60.4738C10.082 59.8044 9.87732 59.2177 9.83596 59.1357C9.71399 58.944 9.42727 58.9575 9.24968 59.1628Z" fill="url(#paint2_linear_1313_786)"/>
</g>
<g filter="url(#filter3_d_1313_786)">
<path d="M68.8331 60.1086C68.7875 60.1722 68.651 60.5548 68.5507 60.9549C67.9858 63.0213 67.139 63.8681 65.0349 64.5054C63.714 64.906 63.6688 65.1427 64.8347 65.4521C65.8551 65.7253 66.8023 66.1987 67.312 66.6901C67.8132 67.1815 68.3139 68.1737 68.5963 69.2392C68.7423 69.8219 68.8241 69.9768 68.9696 69.9948C69.2154 70.0314 69.3067 69.8855 69.4888 69.1575C69.7075 68.2655 70.1811 67.2822 70.6271 66.7998C71.1007 66.2899 71.9932 65.8166 73.0498 65.5072C73.9422 65.2525 74.0426 65.1978 73.9879 64.9517C73.9698 64.8333 73.7421 64.724 73.1135 64.542C70.9823 63.9228 70.1169 63.0674 69.5064 60.9825C69.388 60.5363 69.2515 60.1451 69.224 60.0905C69.1427 59.9627 68.9515 59.9717 68.8331 60.1086Z" fill="url(#paint3_linear_1313_786)"/>
</g>
<g filter="url(#filter4_d_1313_786)">
<path d="M36.8331 70.1086C36.7875 70.1722 36.651 70.5548 36.5507 70.9549C35.9858 73.0213 35.139 73.8681 33.0349 74.5054C31.714 74.906 31.6688 75.1427 32.8347 75.4521C33.8551 75.7253 34.8023 76.1987 35.312 76.6901C35.8132 77.1815 36.3139 78.1737 36.5963 79.2392C36.7423 79.8219 36.8241 79.9768 36.9696 79.9948C37.2154 80.0314 37.3067 79.8855 37.4888 79.1575C37.7075 78.2655 38.1811 77.2822 38.6271 76.7998C39.1007 76.2899 39.9932 75.8166 41.0498 75.5072C41.9422 75.2525 42.0426 75.1978 41.9879 74.9517C41.9698 74.8333 41.7421 74.724 41.1135 74.542C38.9823 73.9228 38.1169 73.0674 37.5064 70.9825C37.388 70.5363 37.2515 70.1451 37.224 70.0905C37.1427 69.9627 36.9515 69.9717 36.8331 70.1086Z" fill="url(#paint4_linear_1313_786)"/>
</g>
</g>
<defs>
<filter id="filter0_d_1313_786" x="10.75" y="15" width="63" height="63" filterUnits="userSpaceOnUse" color-interpolation-filters="sRGB">
<feFlood flood-opacity="0" result="BackgroundImageFix"/>
<feColorMatrix in="SourceAlpha" type="matrix" values="0 0 0 0 0 0 0 0 0 0 0 0 0 0 0 0 0 0 127 0" result="hardAlpha"/>
<feOffset dy="4"/>
<feGaussianBlur stdDeviation="2"/>
<feComposite in2="hardAlpha" operator="out"/>
<feColorMatrix type="matrix" values="0 0 0 0 0 0 0 0 0 0 0 0 0 0 0 0 0 0 0.25 0"/>
<feBlend mode="normal" in2="BackgroundImageFix" result="effect1_dropShadow_1313_786"/>
<feBlend mode="normal" in="SourceGraphic" in2="effect1_dropShadow_1313_786" result="shape"/>
</filter>
<filter id="filter1_d_1313_786" x="4" y="6" width="23" height="23" filterUnits="userSpaceOnUse" color-interpolation-filters="sRGB">
<feFlood flood-opacity="0" result="BackgroundImageFix"/>
<feColorMatrix in="SourceAlpha" type="matrix" values="0 0 0 0 0 0 0 0 0 0 0 0 0 0 0 0 0 0 127 0" result="hardAlpha"/>
<feOffset dy="4"/>
<feGaussianBlur stdDeviation="2"/>
<feComposite in2="hardAlpha" operator="out"/>
<feColorMatrix type="matrix" values="0 0 0 0 0 0 0 0 0 0 0 0 0 0 0 0 0 0 0.25 0"/>
<feBlend mode="normal" in2="BackgroundImageFix" result="effect1_dropShadow_1313_786"/>
<feBlend mode="normal" in="SourceGraphic" in2="effect1_dropShadow_1313_786" result="shape"/>
</filter>
<filter id="filter2_d_1313_786" x="-2" y="59" width="23" height="23" filterUnits="userSpaceOnUse" color-interpolation-filters="sRGB">
<feFlood flood-opacity="0" result="BackgroundImageFix"/>
<feColorMatrix in="SourceAlpha" type="matrix" values="0 0 0 0 0 0 0 0 0 0 0 0 0 0 0 0 0 0 127 0" result="hardAlpha"/>
<feOffset dy="4"/>
<feGaussianBlur stdDeviation="2"/>
<feComposite in2="hardAlpha" operator="out"/>
<feColorMatrix type="matrix" values="0 0 0 0 0 0 0 0 0 0 0 0 0 0 0 0 0 0 0.25 0"/>
<feBlend mode="normal" in2="BackgroundImageFix" result="effect1_dropShadow_1313_786"/>
<feBlend mode="normal" in="SourceGraphic" in2="effect1_dropShadow_1313_786" result="shape"/>
</filter>
<filter id="filter3_d_1313_786" x="60" y="60" width="18" height="18" filterUnits="userSpaceOnUse" color-interpolation-filters="sRGB">
<feFlood flood-opacity="0" result="BackgroundImageFix"/>
<feColorMatrix in="SourceAlpha" type="matrix" values="0 0 0 0 0 0 0 0 0 0 0 0 0 0 0 0 0 0 127 0" result="hardAlpha"/>
<feOffset dy="4"/>
<feGaussianBlur stdDeviation="2"/>
<feComposite in2="hardAlpha" operator="out"/>
<feColorMatrix type="matrix" values="0 0 0 0 0 0 0 0 0 0 0 0 0 0 0 0 0 0 0.25 0"/>
<feBlend mode="normal" in2="BackgroundImageFix" result="effect1_dropShadow_1313_786"/>
<feBlend mode="normal" in="SourceGraphic" in2="effect1_dropShadow_1313_786" result="shape"/>
</filter>
<filter id="filter4_d_1313_786" x="28" y="70" width="18" height="18" filterUnits="userSpaceOnUse" color-interpolation-filters="sRGB">
<feFlood flood-opacity="0" result="BackgroundImageFix"/>
<feColorMatrix in="SourceAlpha" type="matrix" values="0 0 0 0 0 0 0 0 0 0 0 0 0 0 0 0 0 0 127 0" result="hardAlpha"/>
<feOffset dy="4"/>
<feGaussianBlur stdDeviation="2"/>
<feComposite in2="hardAlpha" operator="out"/>
<feColorMatrix type="matrix" values="0 0 0 0 0 0 0 0 0 0 0 0 0 0 0 0 0 0 0.25 0"/>
<feBlend mode="normal" in2="BackgroundImageFix" result="effect1_dropShadow_1313_786"/>
<feBlend mode="normal" in="SourceGraphic" in2="effect1_dropShadow_1313_786" result="shape"/>
</filter>
<linearGradient id="paint0_linear_1313_786" x1="42.25" y1="15" x2="42.25" y2="70" gradientUnits="userSpaceOnUse">
<stop stop-color="#FFC160"/>
<stop offset="1" stop-color="#F78140"/>
</linearGradient>
<linearGradient id="paint1_linear_1313_786" x1="15.5" y1="21" x2="15.5" y2="6" gradientUnits="userSpaceOnUse">
<stop stop-color="#F78140"/>
<stop offset="1" stop-color="#FBB03B"/>
</linearGradient>
<linearGradient id="paint2_linear_1313_786" x1="9.5" y1="74" x2="9.5" y2="59" gradientUnits="userSpaceOnUse">
<stop stop-color="#F78140"/>
<stop offset="1" stop-color="#FBB03B"/>
</linearGradient>
<linearGradient id="paint3_linear_1313_786" x1="69" y1="70" x2="69" y2="60" gradientUnits="userSpaceOnUse">
<stop stop-color="#F78140"/>
<stop offset="1" stop-color="#FBB03B"/>
</linearGradient>
<linearGradient id="paint4_linear_1313_786" x1="37" y1="80" x2="37" y2="70" gradientUnits="userSpaceOnUse">
<stop stop-color="#F78140"/>
<stop offset="1" stop-color="#FBB03B"/>
</linearGradient>
<clipPath id="clip0_1313_786">
<rect width="83.75" height="83.75" fill="white" transform="translate(0.75)"/>
</clipPath>
</defs>
</svg>
