<svg width="84" height="84" viewBox="0 0 84 84" fill="none" xmlns="http://www.w3.org/2000/svg">
<g filter="url(#filter0_d_600_40)">
<path d="M47.1325 19H11.4416C8.99126 19 7 21.1307 7 23.7523V49.6692C7 52.291 8.99126 54.4218 11.4416 54.4218H23.4038V60.6917H21.5171C20.1989 60.6917 19.1323 61.8328 19.1323 63.2433C19.1323 64.6537 20.1989 65.7952 21.5171 65.7952H37.0569C38.3751 65.7952 39.4421 64.6537 39.4421 63.2433C39.4421 61.8327 38.3752 60.6917 37.0569 60.6917H35.1681V54.4218H47.1326C49.583 54.4218 51.5742 52.291 51.5742 49.6692V23.7523C51.5741 21.1307 49.5828 19 47.1325 19ZM46.8041 49.3182H11.77V24.1037H46.8041V49.3182Z" fill="url(#paint0_linear_600_40)"/>
<path d="M75.5218 25.7681H60.0055C58.636 25.7681 57.5273 26.9543 57.5273 28.4196V63.1435C57.5273 64.6088 58.636 65.795 60.0055 65.795H75.5218C76.8914 65.795 78 64.6088 78 63.1435V28.4198C78.0001 26.9543 76.8916 25.7681 75.5218 25.7681ZM67.7613 55.0993C66.7225 55.0993 65.8796 54.1973 65.8796 53.0856C65.8796 51.9742 66.7225 51.0721 67.7613 51.0721C68.8001 51.0721 69.6433 51.9742 69.6433 53.0856C69.6433 54.1973 68.8001 55.0993 67.7613 55.0993ZM74.5204 44.4283C74.5204 45.221 73.9196 45.8638 73.1788 45.8638H62.3485C61.6078 45.8638 61.0069 45.221 61.0069 44.4283V41.0195C61.0069 40.2269 61.6078 39.584 62.3485 39.584H73.1788C73.9196 39.584 74.5204 40.2269 74.5204 41.0195V44.4283ZM74.5204 34.849C74.5204 35.6417 73.9196 36.2845 73.1788 36.2845H62.3485C61.6078 36.2845 61.0069 35.6417 61.0069 34.849V31.4402C61.0069 30.6475 61.6078 30.0047 62.3485 30.0047H73.1788C73.9196 30.0047 74.5204 30.6475 74.5204 31.4402V34.849Z" fill="url(#paint1_linear_600_40)"/>
</g>
<defs>
<filter id="filter0_d_600_40" x="3" y="19" width="79" height="54.7952" filterUnits="userSpaceOnUse" color-interpolation-filters="sRGB">
<feFlood flood-opacity="0" result="BackgroundImageFix"/>
<feColorMatrix in="SourceAlpha" type="matrix" values="0 0 0 0 0 0 0 0 0 0 0 0 0 0 0 0 0 0 127 0" result="hardAlpha"/>
<feOffset dy="4"/>
<feGaussianBlur stdDeviation="2"/>
<feComposite in2="hardAlpha" operator="out"/>
<feColorMatrix type="matrix" values="0 0 0 0 0 0 0 0 0 0 0 0 0 0 0 0 0 0 0.25 0"/>
<feBlend mode="normal" in2="BackgroundImageFix" result="effect1_dropShadow_600_40"/>
<feBlend mode="normal" in="SourceGraphic" in2="effect1_dropShadow_600_40" result="shape"/>
</filter>
<linearGradient id="paint0_linear_600_40" x1="29.2871" y1="19" x2="29.2871" y2="65.7952" gradientUnits="userSpaceOnUse">
<stop stop-color="#020202"/>
<stop offset="0.0001" stop-color="white"/>
<stop offset="1" stop-color="#BFBFBF"/>
</linearGradient>
<linearGradient id="paint1_linear_600_40" x1="67.7637" y1="25.7681" x2="67.7637" y2="65.795" gradientUnits="userSpaceOnUse">
<stop stop-color="#020202"/>
<stop offset="0.0001" stop-color="white"/>
<stop offset="1" stop-color="#BFBFBF"/>
</linearGradient>
</defs>
</svg>
