<svg width="84" height="84" viewBox="0 0 84 84" fill="none" xmlns="http://www.w3.org/2000/svg">
<g clip-path="url(#clip0_509_57)">
<g filter="url(#filter0_d_509_57)">
<path d="M70.9994 17.8605C73.6837 17.8605 75.8597 15.6845 75.8597 13.0003C75.8597 10.3161 73.6837 8.14014 70.9994 8.14014C68.3152 8.14014 66.1392 10.3161 66.1392 13.0003C66.1392 15.6845 68.3152 17.8605 70.9994 17.8605Z" fill="url(#paint0_linear_509_57)"/>
<path d="M71.0002 18.655C67.882 18.655 65.3452 16.1182 65.3452 13.0001C65.3452 9.88194 67.882 7.34521 71.0002 7.34521C74.1184 7.34521 76.6551 9.88194 76.6551 13.0001C76.6551 16.1182 74.1184 18.655 71.0002 18.655ZM71.0002 8.9346C68.7575 8.9346 66.9346 10.7574 66.9346 13.0001C66.9346 15.2427 68.7575 17.0656 71.0002 17.0656C73.2428 17.0656 75.0657 15.2427 75.0657 13.0001C75.0657 10.7574 73.2428 8.9346 71.0002 8.9346Z" fill="url(#paint1_linear_509_57)"/>
<path d="M71 6.17325C70.56 6.17325 70.2053 5.81856 70.2053 5.37856V2.79469C70.2053 2.35694 70.56 2 71 2C71.4378 2 71.7947 2.35469 71.7947 2.79469V5.37856C71.7947 5.81631 71.4378 6.17325 71 6.17325Z" fill="url(#paint2_linear_509_57)"/>
<path d="M71 23.9999C70.56 23.9999 70.2053 23.6452 70.2053 23.2052V20.6214C70.2053 20.1836 70.56 19.8267 71 19.8267C71.4378 19.8267 71.7947 20.1836 71.7947 20.6214V23.2052C71.7947 23.6452 71.4378 23.9999 71 23.9999Z" fill="url(#paint3_linear_509_57)"/>
<path d="M81.2053 13.7945H78.6214C78.1836 13.7945 77.8267 13.4398 77.8267 12.9998C77.8267 12.5598 78.1836 12.2051 78.6214 12.2051H81.2053C81.643 12.2051 82 12.5598 82 12.9998C82 13.4375 81.6453 13.7945 81.2053 13.7945Z" fill="url(#paint4_linear_509_57)"/>
<path d="M63.3786 13.7945H60.7947C60.3569 13.7945 60 13.4375 60 12.9998C60 12.5598 60.3569 12.2051 60.7947 12.2051H63.3786C63.8186 12.2051 64.1733 12.5598 64.1733 12.9998C64.1733 13.4375 63.8164 13.7945 63.3786 13.7945Z" fill="url(#paint5_linear_509_57)"/>
<path d="M76.3907 8.40466C76.1865 8.40466 75.9844 8.32609 75.8295 8.17119C75.5197 7.8614 75.5197 7.35854 75.8295 7.0465L77.6569 5.21916C77.9667 4.90937 78.4695 4.90937 78.7816 5.21916C79.0914 5.52896 79.0914 6.03181 78.7816 6.34385L76.952 8.17344C76.7971 8.32834 76.5928 8.40466 76.3907 8.40466Z" fill="url(#paint6_linear_509_57)"/>
<path d="M63.7831 21.0121C63.5788 21.0121 63.3768 20.9335 63.2219 20.7786C62.9121 20.4688 62.9121 19.966 63.2219 19.6539L65.0492 17.8266C65.359 17.5168 65.8619 17.5168 66.1739 17.8266C66.4837 18.1364 66.4837 18.6392 66.1739 18.9513L64.3466 20.7786C64.1917 20.9335 63.9874 21.0121 63.7831 21.0121Z" fill="url(#paint7_linear_509_57)"/>
<path d="M78.2154 21.0121C78.0111 21.0121 77.8091 20.9335 77.6542 20.7786L75.8268 18.9513C75.517 18.6415 75.517 18.1386 75.8268 17.8266C76.1366 17.5168 76.6395 17.5168 76.9515 17.8266L78.7789 19.6539C79.0887 19.9637 79.0887 20.4666 78.7789 20.7786C78.624 20.9335 78.4197 21.0121 78.2154 21.0121Z" fill="url(#paint8_linear_509_57)"/>
<path d="M65.6104 8.40466C65.4062 8.40466 65.2041 8.32609 65.0492 8.17119L63.2219 6.34385C62.9121 6.03406 62.9121 5.5312 63.2219 5.21916C63.5316 4.90937 64.0345 4.90937 64.3466 5.21916L66.1739 7.0465C66.4837 7.3563 66.4837 7.85915 66.1739 8.17119C66.019 8.32834 65.8147 8.40466 65.6104 8.40466Z" fill="url(#paint9_linear_509_57)"/>
</g>
<g filter="url(#filter1_d_509_57)">
<path d="M61.7638 67H22.2511C17.4139 67 15.5919 63.8429 18.1713 59.9644L35.4196 34.1504V21.1649H33.2261C32.6587 21.1783 32.1092 20.9663 31.698 20.5753C31.2868 20.1843 31.0475 19.6463 31.0325 19.0792C31.0493 18.5133 31.2895 17.9771 31.7005 17.5877C32.1115 17.1982 32.6599 16.9871 33.2261 17.0006H50.7888C51.355 16.9871 51.9034 17.1982 52.3144 17.5877C52.7254 17.9771 52.9656 18.5133 52.9824 19.0792C52.9674 19.6463 52.7281 20.1843 52.3169 20.5753C51.9057 20.9663 51.3562 21.1783 50.7888 21.1649H48.5881V34.1504L65.8437 59.9644C68.4088 63.8429 66.5582 67 61.7566 67H61.7638ZM29.7964 50.3288H54.2185L44.887 36.3647L44.1724 35.3504V21.1649H39.7782V35.3576L39.0637 36.3719L29.7392 50.3288H29.7964Z" fill="url(#paint10_linear_509_57)"/>
</g>
</g>
<defs>
<filter id="filter0_d_509_57" x="56" y="2" width="30" height="30" filterUnits="userSpaceOnUse" color-interpolation-filters="sRGB">
<feFlood flood-opacity="0" result="BackgroundImageFix"/>
<feColorMatrix in="SourceAlpha" type="matrix" values="0 0 0 0 0 0 0 0 0 0 0 0 0 0 0 0 0 0 127 0" result="hardAlpha"/>
<feOffset dy="4"/>
<feGaussianBlur stdDeviation="2"/>
<feComposite in2="hardAlpha" operator="out"/>
<feColorMatrix type="matrix" values="0 0 0 0 0 0 0 0 0 0 0 0 0 0 0 0 0 0 0.25 0"/>
<feBlend mode="normal" in2="BackgroundImageFix" result="effect1_dropShadow_509_57"/>
<feBlend mode="normal" in="SourceGraphic" in2="effect1_dropShadow_509_57" result="shape"/>
</filter>
<filter id="filter1_d_509_57" x="13" y="17" width="58" height="58" filterUnits="userSpaceOnUse" color-interpolation-filters="sRGB">
<feFlood flood-opacity="0" result="BackgroundImageFix"/>
<feColorMatrix in="SourceAlpha" type="matrix" values="0 0 0 0 0 0 0 0 0 0 0 0 0 0 0 0 0 0 127 0" result="hardAlpha"/>
<feOffset dy="4"/>
<feGaussianBlur stdDeviation="2"/>
<feComposite in2="hardAlpha" operator="out"/>
<feColorMatrix type="matrix" values="0 0 0 0 0 0 0 0 0 0 0 0 0 0 0 0 0 0 0.25 0"/>
<feBlend mode="normal" in2="BackgroundImageFix" result="effect1_dropShadow_509_57"/>
<feBlend mode="normal" in="SourceGraphic" in2="effect1_dropShadow_509_57" result="shape"/>
</filter>
<linearGradient id="paint0_linear_509_57" x1="70.9994" y1="8.14014" x2="70.9994" y2="17.8605" gradientUnits="userSpaceOnUse">
<stop stop-color="white"/>
<stop offset="1" stop-color="#BFBFBF"/>
</linearGradient>
<linearGradient id="paint1_linear_509_57" x1="71.0002" y1="7.34521" x2="71.0002" y2="18.655" gradientUnits="userSpaceOnUse">
<stop stop-color="white"/>
<stop offset="1" stop-color="#BFBFBF"/>
</linearGradient>
<linearGradient id="paint2_linear_509_57" x1="71" y1="2" x2="71" y2="6.17325" gradientUnits="userSpaceOnUse">
<stop stop-color="white"/>
<stop offset="1" stop-color="#BFBFBF"/>
</linearGradient>
<linearGradient id="paint3_linear_509_57" x1="71" y1="19.8267" x2="71" y2="23.9999" gradientUnits="userSpaceOnUse">
<stop stop-color="white"/>
<stop offset="1" stop-color="#BFBFBF"/>
</linearGradient>
<linearGradient id="paint4_linear_509_57" x1="79.9133" y1="12.2051" x2="79.9133" y2="13.7945" gradientUnits="userSpaceOnUse">
<stop stop-color="white"/>
<stop offset="1" stop-color="#BFBFBF"/>
</linearGradient>
<linearGradient id="paint5_linear_509_57" x1="62.0867" y1="12.2051" x2="62.0867" y2="13.7945" gradientUnits="userSpaceOnUse">
<stop stop-color="white"/>
<stop offset="1" stop-color="#BFBFBF"/>
</linearGradient>
<linearGradient id="paint6_linear_509_57" x1="77.3056" y1="4.98682" x2="77.3056" y2="8.40466" gradientUnits="userSpaceOnUse">
<stop stop-color="white"/>
<stop offset="1" stop-color="#BFBFBF"/>
</linearGradient>
<linearGradient id="paint7_linear_509_57" x1="64.6979" y1="17.5942" x2="64.6979" y2="21.0121" gradientUnits="userSpaceOnUse">
<stop stop-color="white"/>
<stop offset="1" stop-color="#BFBFBF"/>
</linearGradient>
<linearGradient id="paint8_linear_509_57" x1="77.3029" y1="17.5942" x2="77.3029" y2="21.0121" gradientUnits="userSpaceOnUse">
<stop stop-color="white"/>
<stop offset="1" stop-color="#BFBFBF"/>
</linearGradient>
<linearGradient id="paint9_linear_509_57" x1="64.6979" y1="4.98682" x2="64.6979" y2="8.40466" gradientUnits="userSpaceOnUse">
<stop stop-color="white"/>
<stop offset="1" stop-color="#BFBFBF"/>
</linearGradient>
<linearGradient id="paint10_linear_509_57" x1="42" y1="17" x2="42" y2="67" gradientUnits="userSpaceOnUse">
<stop stop-color="white"/>
<stop offset="1" stop-color="#BFBFBF"/>
</linearGradient>
<clipPath id="clip0_509_57">
<rect width="83.75" height="83.75" fill="white"/>
</clipPath>
</defs>
</svg>
