<svg width="84" height="84" viewBox="0 0 84 84" fill="none" xmlns="http://www.w3.org/2000/svg">
<g clip-path="url(#clip0_248_117)">
<g filter="url(#filter0_d_248_117)">
<path d="M27.7087 55.8137L27.1434 56.4524C26.6694 56.9846 24.3082 59.7329 24.3082 61.5425C24.3046 62.0198 24.3898 62.4932 24.5588 62.9356C24.7279 63.378 24.9775 63.7806 25.2934 64.1204C25.6093 64.4602 25.9852 64.7305 26.3996 64.9158C26.8141 65.1011 27.2589 65.1978 27.7087 65.2003C28.1584 65.1978 28.6032 65.1011 29.0177 64.9158C29.4321 64.7305 29.8081 64.4602 30.124 64.1204C30.4398 63.7806 30.6895 63.378 30.8585 62.9356C31.0276 62.4932 31.1127 62.0198 31.1091 61.5425C31.1091 59.7425 28.7479 56.9846 28.2648 56.4524L27.7087 55.8137Z" fill="url(#paint0_linear_248_117)"/>
<path d="M42.5134 55.8137L41.9482 56.4524C41.465 56.9846 39.1039 59.7329 39.1039 61.5425C39.1003 62.0198 39.1854 62.4932 39.3545 62.9356C39.5235 63.378 39.7731 63.7806 40.089 64.1204C40.4049 64.4602 40.7809 64.7305 41.1953 64.9158C41.6098 65.1011 42.0546 65.1978 42.5043 65.2003C42.9541 65.1978 43.3989 65.1011 43.8134 64.9158C44.2278 64.7305 44.6037 64.4602 44.9196 64.1204C45.2355 63.7806 45.4851 63.378 45.6542 62.9356C45.8232 62.4932 45.9084 62.0198 45.9048 61.5425C45.9048 59.7425 43.5436 56.9846 43.0696 56.4524L42.5134 55.8137Z" fill="url(#paint1_linear_248_117)"/>
<path d="M35.1749 66.623L34.6097 67.2617C34.1357 67.7939 31.7745 70.5422 31.7745 72.3518C31.7721 72.8283 31.8581 73.3007 32.0277 73.742C32.1973 74.1832 32.4471 74.5847 32.7629 74.9235C33.0786 75.2622 33.4542 75.5317 33.868 75.7164C34.2819 75.9011 34.726 75.9975 35.1749 76C36.08 75.9923 36.9453 75.604 37.5811 74.9201C38.2168 74.2362 38.5711 73.3126 38.5663 72.3518C38.5663 70.5422 36.2051 67.7939 35.731 67.2617L35.1749 66.623Z" fill="url(#paint2_linear_248_117)"/>
<path d="M49.9799 66.623L49.4056 67.2617C48.9406 67.7939 46.5703 70.5422 46.5703 72.3518C46.5703 73.3143 46.9286 74.2379 47.5673 74.9213C48.2059 75.6046 49.0731 75.9924 49.9799 76C50.4288 75.9975 50.8729 75.9011 51.2868 75.7164C51.7006 75.5317 52.0762 75.2622 52.3919 74.9235C52.7077 74.5847 52.9575 74.1832 53.1271 73.742C53.2967 73.3007 53.3827 72.8283 53.3803 72.3518C53.3803 70.5422 51.0192 67.7939 50.536 67.2617L49.9799 66.623Z" fill="url(#paint3_linear_248_117)"/>
<path d="M57.3093 55.8137L56.744 56.4524C56.27 56.9846 53.9088 59.7329 53.9088 61.5425C53.9052 62.0198 53.9904 62.4932 54.1594 62.9356C54.3285 63.378 54.5781 63.7806 54.894 64.1204C55.2099 64.4602 55.5858 64.7305 56.0002 64.9158C56.4147 65.1011 56.8595 65.1978 57.3093 65.2003C57.759 65.1978 58.2038 65.1011 58.6183 64.9158C59.0327 64.7305 59.4087 64.4602 59.7246 64.1204C60.0405 63.7806 60.2901 63.378 60.4591 62.9356C60.6282 62.4932 60.7133 62.0198 60.7097 61.5425C60.7097 59.7425 58.3486 56.9846 57.8654 56.4524L57.3093 55.8137Z" fill="url(#paint4_linear_248_117)"/>
<path d="M66.0707 43.3015C66.2779 42.2546 66.3818 41.1876 66.3806 40.1178C66.3806 29.9183 58.0572 21.7316 46.7072 19.7962L44.6833 16.5351V10.3128C44.6834 9.70441 44.4576 9.12052 44.0549 8.68762C43.6521 8.25471 43.105 8.00764 42.5318 8C41.958 8.00511 41.4094 8.25138 41.0062 8.68484C40.6029 9.1183 40.3779 9.70365 40.3803 10.3128V16.6415L38.6482 19.5446C26.97 20.9574 17.3247 29.9086 17.3247 40.0404C17.3257 41.3428 17.4633 42.641 17.735 43.9111C16.1578 44.8788 15 46.3691 15 47.9852V49.9205C15 51.8559 16.9236 53.443 19.3668 53.443H65.633C68.0854 53.443 69.9999 51.885 69.9999 49.9205V47.9852C70.0181 46.0111 68.2221 44.2596 66.0707 43.3015ZM39.496 29.8409C30.0331 32.9375 27.2435 39.8275 27.125 40.1178C26.9232 40.6501 26.5774 41.1069 26.1312 41.4307C25.685 41.7545 25.1584 41.9307 24.6179 41.9371L23.7063 41.7532C23.0274 41.4641 22.4826 40.9035 22.1893 40.1922C21.896 39.4809 21.8777 38.6757 22.1382 37.9502C22.512 36.9825 26.0583 28.1764 37.9462 24.2766L38.7394 24.1508C39.3202 24.1566 39.8843 24.3586 40.3498 24.7274C40.8153 25.0963 41.1581 25.6128 41.3285 26.2023C41.4351 26.5689 41.4722 26.9543 41.4376 27.3362C41.403 27.7181 41.2975 28.0889 41.1271 28.4273C40.9567 28.7656 40.7249 29.0647 40.4449 29.3074C40.1649 29.55 39.8424 29.7313 39.496 29.8409V29.8409Z" fill="url(#paint5_linear_248_117)"/>
<path d="M66.0707 43.3015C66.2779 42.2546 66.3818 41.1876 66.3806 40.1178C66.3806 29.9183 58.0572 21.7316 46.7072 19.7962L44.6833 16.5351V10.3128C44.6834 9.70441 44.4576 9.12052 44.0549 8.68762C43.6521 8.25471 43.105 8.00764 42.5318 8C41.958 8.00511 41.4094 8.25138 41.0062 8.68484C40.6029 9.1183 40.3779 9.70365 40.3803 10.3128V16.6415L38.6482 19.5446C26.97 20.9574 17.3247 29.9086 17.3247 40.0404C17.3257 41.3428 17.4633 42.641 17.735 43.9111C16.1578 44.8788 15 46.3691 15 47.9852V49.9205C15 51.8559 16.9236 53.443 19.3668 53.443H65.633C68.0854 53.443 69.9999 51.885 69.9999 49.9205V47.9852C70.0181 46.0111 68.2221 44.2596 66.0707 43.3015ZM39.496 29.8409C30.0331 32.9375 27.2435 39.8275 27.125 40.1178C26.9232 40.6501 26.5774 41.1069 26.1312 41.4307C25.685 41.7545 25.1584 41.9307 24.6179 41.9371L23.7063 41.7532C23.0274 41.4641 22.4826 40.9035 22.1893 40.1922C21.896 39.4809 21.8777 38.6757 22.1382 37.9502C22.512 36.9825 26.0583 28.1764 37.9462 24.2766L38.7394 24.1508C39.3202 24.1566 39.8843 24.3586 40.3498 24.7274C40.8153 25.0963 41.1581 25.6128 41.3285 26.2023C41.4351 26.5689 41.4722 26.9543 41.4376 27.3362C41.403 27.7181 41.2975 28.0889 41.1271 28.4273C40.9567 28.7656 40.7249 29.0647 40.4449 29.3074C40.1649 29.55 39.8424 29.7313 39.496 29.8409V29.8409Z" fill="url(#paint6_linear_248_117)"/>
</g>
<g filter="url(#filter1_d_248_117)">
<path d="M70.9994 17.8605C73.6837 17.8605 75.8597 15.6845 75.8597 13.0003C75.8597 10.3161 73.6837 8.14014 70.9994 8.14014C68.3152 8.14014 66.1392 10.3161 66.1392 13.0003C66.1392 15.6845 68.3152 17.8605 70.9994 17.8605Z" fill="url(#paint7_linear_248_117)"/>
<path d="M71.0002 18.655C67.882 18.655 65.3452 16.1182 65.3452 13.0001C65.3452 9.88194 67.882 7.34521 71.0002 7.34521C74.1184 7.34521 76.6551 9.88194 76.6551 13.0001C76.6551 16.1182 74.1184 18.655 71.0002 18.655ZM71.0002 8.9346C68.7575 8.9346 66.9346 10.7574 66.9346 13.0001C66.9346 15.2427 68.7575 17.0656 71.0002 17.0656C73.2428 17.0656 75.0657 15.2427 75.0657 13.0001C75.0657 10.7574 73.2428 8.9346 71.0002 8.9346Z" fill="url(#paint8_linear_248_117)"/>
<path d="M71 6.17325C70.56 6.17325 70.2053 5.81856 70.2053 5.37856V2.79469C70.2053 2.35694 70.56 2 71 2C71.4378 2 71.7947 2.35469 71.7947 2.79469V5.37856C71.7947 5.81631 71.4378 6.17325 71 6.17325Z" fill="url(#paint9_linear_248_117)"/>
<path d="M71 23.9999C70.56 23.9999 70.2053 23.6452 70.2053 23.2052V20.6214C70.2053 20.1836 70.56 19.8267 71 19.8267C71.4378 19.8267 71.7947 20.1836 71.7947 20.6214V23.2052C71.7947 23.6452 71.4378 23.9999 71 23.9999Z" fill="url(#paint10_linear_248_117)"/>
<path d="M81.2053 13.7945H78.6214C78.1836 13.7945 77.8267 13.4398 77.8267 12.9998C77.8267 12.5598 78.1836 12.2051 78.6214 12.2051H81.2053C81.643 12.2051 82 12.5598 82 12.9998C82 13.4375 81.6453 13.7945 81.2053 13.7945Z" fill="url(#paint11_linear_248_117)"/>
<path d="M63.3786 13.7945H60.7947C60.3569 13.7945 60 13.4375 60 12.9998C60 12.5598 60.3569 12.2051 60.7947 12.2051H63.3786C63.8186 12.2051 64.1733 12.5598 64.1733 12.9998C64.1733 13.4375 63.8164 13.7945 63.3786 13.7945Z" fill="url(#paint12_linear_248_117)"/>
<path d="M76.3907 8.40466C76.1865 8.40466 75.9844 8.32609 75.8295 8.17119C75.5197 7.8614 75.5197 7.35854 75.8295 7.0465L77.6569 5.21916C77.9667 4.90937 78.4695 4.90937 78.7816 5.21916C79.0914 5.52896 79.0914 6.03181 78.7816 6.34385L76.952 8.17344C76.7971 8.32834 76.5928 8.40466 76.3907 8.40466Z" fill="url(#paint13_linear_248_117)"/>
<path d="M63.7831 21.0121C63.5788 21.0121 63.3768 20.9335 63.2219 20.7786C62.9121 20.4688 62.9121 19.966 63.2219 19.6539L65.0492 17.8266C65.359 17.5168 65.8619 17.5168 66.1739 17.8266C66.4837 18.1364 66.4837 18.6392 66.1739 18.9513L64.3466 20.7786C64.1917 20.9335 63.9874 21.0121 63.7831 21.0121Z" fill="url(#paint14_linear_248_117)"/>
<path d="M78.2154 21.0121C78.0111 21.0121 77.8091 20.9335 77.6542 20.7786L75.8268 18.9513C75.517 18.6415 75.517 18.1386 75.8268 17.8266C76.1366 17.5168 76.6395 17.5168 76.9515 17.8266L78.7789 19.6539C79.0887 19.9637 79.0887 20.4666 78.7789 20.7786C78.624 20.9335 78.4197 21.0121 78.2154 21.0121Z" fill="url(#paint15_linear_248_117)"/>
<path d="M65.6104 8.40466C65.4062 8.40466 65.2041 8.32609 65.0492 8.17119L63.2219 6.34385C62.9121 6.03406 62.9121 5.5312 63.2219 5.21916C63.5316 4.90937 64.0345 4.90937 64.3466 5.21916L66.1739 7.0465C66.4837 7.3563 66.4837 7.85915 66.1739 8.17119C66.019 8.32834 65.8147 8.40466 65.6104 8.40466Z" fill="url(#paint16_linear_248_117)"/>
</g>
</g>
<defs>
<filter id="filter0_d_248_117" x="11" y="8" width="63" height="76" filterUnits="userSpaceOnUse" color-interpolation-filters="sRGB">
<feFlood flood-opacity="0" result="BackgroundImageFix"/>
<feColorMatrix in="SourceAlpha" type="matrix" values="0 0 0 0 0 0 0 0 0 0 0 0 0 0 0 0 0 0 127 0" result="hardAlpha"/>
<feOffset dy="4"/>
<feGaussianBlur stdDeviation="2"/>
<feComposite in2="hardAlpha" operator="out"/>
<feColorMatrix type="matrix" values="0 0 0 0 0 0 0 0 0 0 0 0 0 0 0 0 0 0 0.25 0"/>
<feBlend mode="normal" in2="BackgroundImageFix" result="effect1_dropShadow_248_117"/>
<feBlend mode="normal" in="SourceGraphic" in2="effect1_dropShadow_248_117" result="shape"/>
</filter>
<filter id="filter1_d_248_117" x="56" y="2" width="30" height="30" filterUnits="userSpaceOnUse" color-interpolation-filters="sRGB">
<feFlood flood-opacity="0" result="BackgroundImageFix"/>
<feColorMatrix in="SourceAlpha" type="matrix" values="0 0 0 0 0 0 0 0 0 0 0 0 0 0 0 0 0 0 127 0" result="hardAlpha"/>
<feOffset dy="4"/>
<feGaussianBlur stdDeviation="2"/>
<feComposite in2="hardAlpha" operator="out"/>
<feColorMatrix type="matrix" values="0 0 0 0 0 0 0 0 0 0 0 0 0 0 0 0 0 0 0.25 0"/>
<feBlend mode="normal" in2="BackgroundImageFix" result="effect1_dropShadow_248_117"/>
<feBlend mode="normal" in="SourceGraphic" in2="effect1_dropShadow_248_117" result="shape"/>
</filter>
<linearGradient id="paint0_linear_248_117" x1="27.7087" y1="55.8137" x2="27.7087" y2="65.2003" gradientUnits="userSpaceOnUse">
<stop stop-color="white"/>
<stop offset="1" stop-color="#BFBFBF"/>
</linearGradient>
<linearGradient id="paint1_linear_248_117" x1="42.5043" y1="55.8137" x2="42.5043" y2="65.2003" gradientUnits="userSpaceOnUse">
<stop stop-color="white"/>
<stop offset="1" stop-color="#BFBFBF"/>
</linearGradient>
<linearGradient id="paint2_linear_248_117" x1="35.1704" y1="66.623" x2="35.1704" y2="76" gradientUnits="userSpaceOnUse">
<stop stop-color="white"/>
<stop offset="1" stop-color="#BFBFBF"/>
</linearGradient>
<linearGradient id="paint3_linear_248_117" x1="49.9754" y1="66.623" x2="49.9754" y2="76" gradientUnits="userSpaceOnUse">
<stop stop-color="white"/>
<stop offset="1" stop-color="#BFBFBF"/>
</linearGradient>
<linearGradient id="paint4_linear_248_117" x1="57.3093" y1="55.8137" x2="57.3093" y2="65.2003" gradientUnits="userSpaceOnUse">
<stop stop-color="white"/>
<stop offset="1" stop-color="#BFBFBF"/>
</linearGradient>
<linearGradient id="paint5_linear_248_117" x1="42.5" y1="8" x2="42.5" y2="53.443" gradientUnits="userSpaceOnUse">
<stop stop-color="white"/>
<stop offset="1" stop-color="#BFBFBF"/>
</linearGradient>
<linearGradient id="paint6_linear_248_117" x1="42.5" y1="8" x2="42.5" y2="53.443" gradientUnits="userSpaceOnUse">
<stop stop-color="white"/>
<stop offset="1" stop-color="#BFBFBF"/>
</linearGradient>
<linearGradient id="paint7_linear_248_117" x1="70.9994" y1="8.14014" x2="70.9994" y2="17.8605" gradientUnits="userSpaceOnUse">
<stop stop-color="white"/>
<stop offset="1" stop-color="#BFBFBF"/>
</linearGradient>
<linearGradient id="paint8_linear_248_117" x1="71.0002" y1="7.34521" x2="71.0002" y2="18.655" gradientUnits="userSpaceOnUse">
<stop stop-color="white"/>
<stop offset="1" stop-color="#BFBFBF"/>
</linearGradient>
<linearGradient id="paint9_linear_248_117" x1="71" y1="2" x2="71" y2="6.17325" gradientUnits="userSpaceOnUse">
<stop stop-color="white"/>
<stop offset="1" stop-color="#BFBFBF"/>
</linearGradient>
<linearGradient id="paint10_linear_248_117" x1="71" y1="19.8267" x2="71" y2="23.9999" gradientUnits="userSpaceOnUse">
<stop stop-color="white"/>
<stop offset="1" stop-color="#BFBFBF"/>
</linearGradient>
<linearGradient id="paint11_linear_248_117" x1="79.9133" y1="12.2051" x2="79.9133" y2="13.7945" gradientUnits="userSpaceOnUse">
<stop stop-color="white"/>
<stop offset="1" stop-color="#BFBFBF"/>
</linearGradient>
<linearGradient id="paint12_linear_248_117" x1="62.0867" y1="12.2051" x2="62.0867" y2="13.7945" gradientUnits="userSpaceOnUse">
<stop stop-color="white"/>
<stop offset="1" stop-color="#BFBFBF"/>
</linearGradient>
<linearGradient id="paint13_linear_248_117" x1="77.3056" y1="4.98682" x2="77.3056" y2="8.40466" gradientUnits="userSpaceOnUse">
<stop stop-color="white"/>
<stop offset="1" stop-color="#BFBFBF"/>
</linearGradient>
<linearGradient id="paint14_linear_248_117" x1="64.6979" y1="17.5942" x2="64.6979" y2="21.0121" gradientUnits="userSpaceOnUse">
<stop stop-color="white"/>
<stop offset="1" stop-color="#BFBFBF"/>
</linearGradient>
<linearGradient id="paint15_linear_248_117" x1="77.3029" y1="17.5942" x2="77.3029" y2="21.0121" gradientUnits="userSpaceOnUse">
<stop stop-color="white"/>
<stop offset="1" stop-color="#BFBFBF"/>
</linearGradient>
<linearGradient id="paint16_linear_248_117" x1="64.6979" y1="4.98682" x2="64.6979" y2="8.40466" gradientUnits="userSpaceOnUse">
<stop stop-color="white"/>
<stop offset="1" stop-color="#BFBFBF"/>
</linearGradient>
<clipPath id="clip0_248_117">
<rect width="83.75" height="83.75" fill="white"/>
</clipPath>
</defs>
</svg>
