<svg width="84" height="84" viewBox="0 0 84 84" fill="none" xmlns="http://www.w3.org/2000/svg">
<path d="M81.8348 14.9985C80.8041 20.9217 75.2241 24.8769 69.3763 23.8329C65.3028 23.1061 62.1786 20.1435 61 16.4134C61.6771 16.6878 62.3928 16.8979 63.1407 17.0329C68.9906 18.0769 74.5684 14.1217 75.5991 8.19857C75.912 6.39783 75.7641 4.6271 75.2499 3C79.8762 4.87577 82.7348 9.8321 81.8348 14.9985Z" fill="url(#paint0_linear_335_151)"/>
<g filter="url(#filter0_d_335_151)">
<path d="M65.218 28.3459C65.6141 28.9624 65.8678 29.6597 65.9605 30.3867C66.0531 31.1138 65.9824 31.8524 65.7536 32.5486L57.5053 62.061C57.1264 63.4437 56.3218 64.6717 55.2057 65.5705C54.1883 66.469 52.8845 66.9757 51.5279 67H23.8191C22.1753 66.9601 20.5978 66.3427 19.3629 65.2559C17.9674 64.152 16.9289 62.6601 16.3778 60.9674C15.8971 59.6335 15.8745 58.1773 16.3135 56.829C16.3135 56.7432 16.3135 56.4502 16.4063 55.9499C16.4992 55.4496 16.5063 55.0492 16.5277 54.7419C16.5446 54.4998 16.5131 54.2568 16.4349 54.0271C16.3653 53.8226 16.3339 53.6069 16.3421 53.391C16.381 53.1405 16.4632 52.8986 16.5849 52.6762C16.7349 52.4124 16.8994 52.1571 17.0776 51.9115C17.2607 51.6761 17.43 51.4303 17.5847 51.1753C18.1089 50.2162 18.5624 49.22 18.9416 48.1947C19.3195 47.2289 19.6204 46.2347 19.8414 45.2214C19.9017 44.8953 19.9017 44.561 19.8414 44.235C19.7948 43.9342 19.7948 43.628 19.8414 43.3272C19.9532 42.9924 20.1277 42.6818 20.3556 42.4123C20.5414 42.1865 20.7108 41.9476 20.8626 41.6976C21.3623 40.7352 21.7827 39.7336 22.1195 38.7028C22.4626 37.7546 22.7021 36.772 22.8336 35.7722C22.8475 35.4228 22.8236 35.0729 22.7622 34.7287C22.6908 34.2284 22.6908 33.9281 22.7622 33.8138C22.9015 33.4383 23.1265 33.1005 23.4192 32.8274C23.7763 32.4486 23.9977 32.1984 24.0762 32.1126C24.6024 31.2453 25.0311 30.3225 25.3546 29.3608C25.7547 28.3497 26.0304 27.2937 26.1758 26.2159C26.1879 25.9368 26.159 25.6575 26.0901 25.3868C26.0101 25.1059 25.9882 24.8116 26.0258 24.5219C26.0855 24.3137 26.177 24.116 26.2972 23.9359C26.4661 23.6887 26.6472 23.4501 26.84 23.2211C27.0542 22.9424 27.2256 22.7136 27.347 22.5063C27.5367 22.1885 27.7015 21.8563 27.8398 21.5128C28.0112 21.1197 28.1611 20.7338 28.2897 20.3764C28.4182 20.019 28.5825 19.6616 28.7682 19.2042C28.9263 18.8368 29.1226 18.487 29.3538 18.1607C29.5772 17.8641 29.8474 17.6057 30.1536 17.3958C30.4667 17.1638 30.8426 17.0317 31.2319 17.017C31.7134 17.0195 32.1929 17.0795 32.6602 17.1957V17.2957C33.1588 17.1482 33.6707 17.05 34.1885 17.0027H57.0411C57.722 16.9773 58.3975 17.1334 58.9985 17.4549C59.5995 17.7764 60.1045 18.2517 60.4618 18.8325C60.8583 19.4542 61.1125 20.1559 61.2064 20.8874C61.3002 21.6189 61.2313 22.3621 61.0046 23.0639L52.7919 52.5762C52.0683 55.1636 51.3541 56.8313 50.6495 57.5795C49.9449 58.3276 48.6594 58.7041 46.7931 58.7088H20.6983C20.4824 58.6867 20.2643 58.7196 20.0645 58.8046C19.8647 58.8896 19.6897 59.0238 19.5557 59.1948C19.4461 59.4171 19.3891 59.6617 19.3891 59.9096C19.3891 60.1575 19.4461 60.402 19.5557 60.6243C20.0318 62.1492 21.4601 62.9092 23.8406 62.9045H51.5493C52.1461 62.9021 52.7293 62.7257 53.2275 62.3969C53.7397 62.0987 54.118 61.6152 54.2845 61.0461L63.2827 28.882C63.4372 28.2779 63.4879 27.6519 63.4326 27.0307C64.1521 27.3233 64.7702 27.8202 65.2109 28.4602L65.218 28.3459ZM33.2815 28.4103C33.2399 28.5266 33.2235 28.6505 33.2333 28.7737C33.2432 28.897 33.2791 29.0167 33.3387 29.125C33.3995 29.2281 33.4879 29.3122 33.5939 29.3677C33.6998 29.4233 33.8192 29.4481 33.9385 29.4395H52.192C52.4759 29.4285 52.7467 29.3171 52.9562 29.125C53.1905 28.9437 53.3627 28.6939 53.4489 28.4103L54.0845 26.3231C54.1246 26.2062 54.1396 26.0821 54.1286 25.9589C54.1175 25.8358 54.0806 25.7163 54.0202 25.6084C53.9591 25.506 53.8704 25.423 53.7644 25.3686C53.6583 25.3143 53.5391 25.2909 53.4204 25.3011H35.174C34.8884 25.3078 34.6148 25.4168 34.4027 25.6084C34.1717 25.7928 34.0003 26.0415 33.91 26.3231L33.2815 28.4103ZM30.782 36.7514C30.7437 36.8687 30.7296 36.9925 30.7406 37.1154C30.7517 37.2383 30.7876 37.3577 30.8463 37.4662C30.9087 37.5674 30.9976 37.6496 31.1033 37.7038C31.2091 37.7579 31.3277 37.7821 31.4462 37.7736H49.7211C50.0034 37.7616 50.2731 37.6531 50.4852 37.4662C50.7196 37.2848 50.8918 37.035 50.978 36.7514L51.6136 34.6644C51.6515 34.5471 51.6654 34.4232 51.6544 34.3004C51.6433 34.1775 51.6076 34.0583 51.5493 33.9496C51.4869 33.8484 51.398 33.7662 51.2923 33.712C51.1865 33.6579 51.0679 33.6337 50.9494 33.6422H32.6745C32.3922 33.6542 32.1225 33.7627 31.9104 33.9496C31.676 34.131 31.5039 34.3808 31.4176 34.6644L30.782 36.7514Z" fill="url(#paint1_linear_335_151)"/>
</g>
<defs>
<filter id="filter0_d_335_151" x="12" y="17" width="58" height="58" filterUnits="userSpaceOnUse" color-interpolation-filters="sRGB">
<feFlood flood-opacity="0" result="BackgroundImageFix"/>
<feColorMatrix in="SourceAlpha" type="matrix" values="0 0 0 0 0 0 0 0 0 0 0 0 0 0 0 0 0 0 127 0" result="hardAlpha"/>
<feOffset dy="4"/>
<feGaussianBlur stdDeviation="2"/>
<feComposite in2="hardAlpha" operator="out"/>
<feColorMatrix type="matrix" values="0 0 0 0 0 0 0 0 0 0 0 0 0 0 0 0 0 0 0.25 0"/>
<feBlend mode="normal" in2="BackgroundImageFix" result="effect1_dropShadow_335_151"/>
<feBlend mode="normal" in="SourceGraphic" in2="effect1_dropShadow_335_151" result="shape"/>
</filter>
<linearGradient id="paint0_linear_335_151" x1="71.5" y1="3" x2="71.5" y2="24" gradientUnits="userSpaceOnUse">
<stop stop-color="white"/>
<stop offset="1" stop-color="#BFBFBF"/>
</linearGradient>
<linearGradient id="paint1_linear_335_151" x1="41" y1="17" x2="41" y2="67" gradientUnits="userSpaceOnUse">
<stop stop-color="white"/>
<stop offset="1" stop-color="#BFBFBF"/>
</linearGradient>
</defs>
</svg>
