<svg width="85" height="84" viewBox="0 0 85 84" fill="none" xmlns="http://www.w3.org/2000/svg">
<g clip-path="url(#clip0_336_179)">
<g filter="url(#filter0_d_336_179)">
<path d="M71.7494 17.8605C74.4337 17.8605 76.6097 15.6845 76.6097 13.0003C76.6097 10.3161 74.4337 8.14014 71.7494 8.14014C69.0652 8.14014 66.8892 10.3161 66.8892 13.0003C66.8892 15.6845 69.0652 17.8605 71.7494 17.8605Z" fill="url(#paint0_linear_336_179)"/>
<path d="M71.7502 18.655C68.632 18.655 66.0952 16.1182 66.0952 13.0001C66.0952 9.88194 68.632 7.34521 71.7502 7.34521C74.8684 7.34521 77.4051 9.88194 77.4051 13.0001C77.4051 16.1182 74.8684 18.655 71.7502 18.655ZM71.7502 8.9346C69.5075 8.9346 67.6846 10.7574 67.6846 13.0001C67.6846 15.2427 69.5075 17.0656 71.7502 17.0656C73.9928 17.0656 75.8157 15.2427 75.8157 13.0001C75.8157 10.7574 73.9928 8.9346 71.7502 8.9346Z" fill="url(#paint1_linear_336_179)"/>
<path d="M71.75 6.17325C71.31 6.17325 70.9553 5.81856 70.9553 5.37856V2.79469C70.9553 2.35694 71.31 2 71.75 2C72.1878 2 72.5447 2.35469 72.5447 2.79469V5.37856C72.5447 5.81631 72.1878 6.17325 71.75 6.17325Z" fill="url(#paint2_linear_336_179)"/>
<path d="M71.75 23.9999C71.31 23.9999 70.9553 23.6452 70.9553 23.2052V20.6214C70.9553 20.1836 71.31 19.8267 71.75 19.8267C72.1878 19.8267 72.5447 20.1836 72.5447 20.6214V23.2052C72.5447 23.6452 72.1878 23.9999 71.75 23.9999Z" fill="url(#paint3_linear_336_179)"/>
<path d="M81.9553 13.7945H79.3714C78.9336 13.7945 78.5767 13.4398 78.5767 12.9998C78.5767 12.5598 78.9336 12.2051 79.3714 12.2051H81.9553C82.393 12.2051 82.75 12.5598 82.75 12.9998C82.75 13.4375 82.3953 13.7945 81.9553 13.7945Z" fill="url(#paint4_linear_336_179)"/>
<path d="M64.1286 13.7945H61.5447C61.1069 13.7945 60.75 13.4375 60.75 12.9998C60.75 12.5598 61.1069 12.2051 61.5447 12.2051H64.1286C64.5686 12.2051 64.9233 12.5598 64.9233 12.9998C64.9233 13.4375 64.5664 13.7945 64.1286 13.7945Z" fill="url(#paint5_linear_336_179)"/>
<path d="M77.1407 8.40466C76.9365 8.40466 76.7344 8.32609 76.5795 8.17119C76.2697 7.8614 76.2697 7.35854 76.5795 7.0465L78.4069 5.21916C78.7167 4.90937 79.2195 4.90937 79.5316 5.21916C79.8414 5.52896 79.8414 6.03181 79.5316 6.34385L77.702 8.17344C77.5471 8.32834 77.3428 8.40466 77.1407 8.40466Z" fill="url(#paint6_linear_336_179)"/>
<path d="M64.5331 21.0121C64.3288 21.0121 64.1268 20.9335 63.9719 20.7786C63.6621 20.4688 63.6621 19.966 63.9719 19.6539L65.7992 17.8266C66.109 17.5168 66.6119 17.5168 66.9239 17.8266C67.2337 18.1364 67.2337 18.6392 66.9239 18.9513L65.0966 20.7786C64.9417 20.9335 64.7374 21.0121 64.5331 21.0121Z" fill="url(#paint7_linear_336_179)"/>
<path d="M78.9654 21.0121C78.7611 21.0121 78.5591 20.9335 78.4042 20.7786L76.5768 18.9513C76.267 18.6415 76.267 18.1386 76.5768 17.8266C76.8866 17.5168 77.3895 17.5168 77.7015 17.8266L79.5289 19.6539C79.8387 19.9637 79.8387 20.4666 79.5289 20.7786C79.374 20.9335 79.1697 21.0121 78.9654 21.0121Z" fill="url(#paint8_linear_336_179)"/>
<path d="M66.3604 8.40466C66.1562 8.40466 65.9541 8.32609 65.7992 8.17119L63.9719 6.34385C63.6621 6.03406 63.6621 5.5312 63.9719 5.21916C64.2816 4.90937 64.7845 4.90937 65.0966 5.21916L66.9239 7.0465C67.2337 7.3563 67.2337 7.85915 66.9239 8.17119C66.769 8.32834 66.5647 8.40466 66.3604 8.40466Z" fill="url(#paint9_linear_336_179)"/>
</g>
<g filter="url(#filter1_d_336_179)">
<path d="M59.2751 17.0009C59.0313 16.991 58.7906 17.0595 58.5872 17.1968C58.5207 17.2419 51.8709 21.6174 33.7338 21.6174C33.5299 21.6187 33.3302 21.6761 33.1557 21.7835C32.9813 21.8909 32.8385 22.0442 32.7426 22.2273L16.2032 55.1675C16.0582 55.3727 15.9871 55.6225 16.0019 55.8749C16.0167 56.1273 16.1166 56.3669 16.2846 56.5531L16.3289 56.5982L16.3881 56.6586L16.4473 56.7037C16.7506 56.9673 29.8282 68 51.4567 68C51.6618 68.0004 51.863 67.943 52.038 67.834C52.213 67.725 52.3548 67.5687 52.4478 67.3825L66.8717 38.0121C66.9409 37.8814 66.9831 37.7377 66.9959 37.5899C67.0086 37.442 66.9917 37.293 66.946 37.152C66.9003 37.011 66.8268 36.881 66.7301 36.7699C66.6334 36.6589 66.5155 36.569 66.3835 36.5059C66.2408 36.4341 66.0841 36.3955 65.9249 36.3929C65.71 36.3812 65.4964 36.4342 65.3109 36.5454C65.1254 36.6565 64.9762 36.8209 64.882 37.018L50.7835 65.7107C44.7043 65.656 38.6685 64.6606 32.8831 62.7585C37.3456 63.385 41.8761 63.3087 46.3158 62.5326C46.4872 62.5034 46.6494 62.4338 46.7894 62.3291C46.9295 62.2245 47.0434 62.0878 47.1221 61.9302L64.8746 25.782C64.9437 25.6513 64.986 25.5076 64.9987 25.3597C65.0115 25.2119 64.9945 25.0628 64.9488 24.9219C64.9031 24.7809 64.8297 24.6509 64.733 24.5398C64.6363 24.4287 64.5183 24.3389 64.3864 24.2758C64.2091 24.1894 64.013 24.1505 63.8168 24.1628C63.6199 24.173 63.4294 24.2372 63.2653 24.3485C63.1013 24.4599 62.9698 24.6143 62.8848 24.7954L45.406 60.3637C38.6002 61.5167 31.6191 60.9134 25.1016 58.609C26.8489 58.8296 28.6076 58.9428 30.3682 58.9479C34.076 59.0464 37.7606 58.3244 41.1676 56.8317C41.3892 56.7276 41.5692 56.5496 41.678 56.3271L60.2145 18.605C60.3215 18.3861 60.3527 18.1368 60.3031 17.8975C60.2534 17.6583 60.1257 17.4432 59.9409 17.2871C59.7559 17.1197 59.5219 17.0192 59.2751 17.0009V17.0009Z" fill="url(#paint10_linear_336_179)"/>
</g>
</g>
<defs>
<filter id="filter0_d_336_179" x="56.75" y="2" width="30" height="30" filterUnits="userSpaceOnUse" color-interpolation-filters="sRGB">
<feFlood flood-opacity="0" result="BackgroundImageFix"/>
<feColorMatrix in="SourceAlpha" type="matrix" values="0 0 0 0 0 0 0 0 0 0 0 0 0 0 0 0 0 0 127 0" result="hardAlpha"/>
<feOffset dy="4"/>
<feGaussianBlur stdDeviation="2"/>
<feComposite in2="hardAlpha" operator="out"/>
<feColorMatrix type="matrix" values="0 0 0 0 0 0 0 0 0 0 0 0 0 0 0 0 0 0 0.25 0"/>
<feBlend mode="normal" in2="BackgroundImageFix" result="effect1_dropShadow_336_179"/>
<feBlend mode="normal" in="SourceGraphic" in2="effect1_dropShadow_336_179" result="shape"/>
</filter>
<filter id="filter1_d_336_179" x="13" y="16" width="61" height="61" filterUnits="userSpaceOnUse" color-interpolation-filters="sRGB">
<feFlood flood-opacity="0" result="BackgroundImageFix"/>
<feColorMatrix in="SourceAlpha" type="matrix" values="0 0 0 0 0 0 0 0 0 0 0 0 0 0 0 0 0 0 127 0" result="hardAlpha"/>
<feOffset dx="2" dy="4"/>
<feGaussianBlur stdDeviation="2.5"/>
<feComposite in2="hardAlpha" operator="out"/>
<feColorMatrix type="matrix" values="0 0 0 0 0 0 0 0 0 0 0 0 0 0 0 0 0 0 0.25 0"/>
<feBlend mode="normal" in2="BackgroundImageFix" result="effect1_dropShadow_336_179"/>
<feBlend mode="normal" in="SourceGraphic" in2="effect1_dropShadow_336_179" result="shape"/>
</filter>
<linearGradient id="paint0_linear_336_179" x1="71.7494" y1="8.14014" x2="71.7494" y2="17.8605" gradientUnits="userSpaceOnUse">
<stop stop-color="white"/>
<stop offset="1" stop-color="#BFBFBF"/>
</linearGradient>
<linearGradient id="paint1_linear_336_179" x1="71.7502" y1="7.34521" x2="71.7502" y2="18.655" gradientUnits="userSpaceOnUse">
<stop stop-color="white"/>
<stop offset="1" stop-color="#BFBFBF"/>
</linearGradient>
<linearGradient id="paint2_linear_336_179" x1="71.75" y1="2" x2="71.75" y2="6.17325" gradientUnits="userSpaceOnUse">
<stop stop-color="white"/>
<stop offset="1" stop-color="#BFBFBF"/>
</linearGradient>
<linearGradient id="paint3_linear_336_179" x1="71.75" y1="19.8267" x2="71.75" y2="23.9999" gradientUnits="userSpaceOnUse">
<stop stop-color="white"/>
<stop offset="1" stop-color="#BFBFBF"/>
</linearGradient>
<linearGradient id="paint4_linear_336_179" x1="80.6633" y1="12.2051" x2="80.6633" y2="13.7945" gradientUnits="userSpaceOnUse">
<stop stop-color="white"/>
<stop offset="1" stop-color="#BFBFBF"/>
</linearGradient>
<linearGradient id="paint5_linear_336_179" x1="62.8367" y1="12.2051" x2="62.8367" y2="13.7945" gradientUnits="userSpaceOnUse">
<stop stop-color="white"/>
<stop offset="1" stop-color="#BFBFBF"/>
</linearGradient>
<linearGradient id="paint6_linear_336_179" x1="78.0556" y1="4.98682" x2="78.0556" y2="8.40466" gradientUnits="userSpaceOnUse">
<stop stop-color="white"/>
<stop offset="1" stop-color="#BFBFBF"/>
</linearGradient>
<linearGradient id="paint7_linear_336_179" x1="65.4479" y1="17.5942" x2="65.4479" y2="21.0121" gradientUnits="userSpaceOnUse">
<stop stop-color="white"/>
<stop offset="1" stop-color="#BFBFBF"/>
</linearGradient>
<linearGradient id="paint8_linear_336_179" x1="78.0529" y1="17.5942" x2="78.0529" y2="21.0121" gradientUnits="userSpaceOnUse">
<stop stop-color="white"/>
<stop offset="1" stop-color="#BFBFBF"/>
</linearGradient>
<linearGradient id="paint9_linear_336_179" x1="65.4479" y1="4.98682" x2="65.4479" y2="8.40466" gradientUnits="userSpaceOnUse">
<stop stop-color="white"/>
<stop offset="1" stop-color="#BFBFBF"/>
</linearGradient>
<linearGradient id="paint10_linear_336_179" x1="41.5" y1="17" x2="41.5" y2="68" gradientUnits="userSpaceOnUse">
<stop stop-color="white"/>
<stop offset="1" stop-color="#BFBFBF"/>
</linearGradient>
<clipPath id="clip0_336_179">
<rect width="83.75" height="83.75" fill="white" transform="translate(0.75)"/>
</clipPath>
</defs>
</svg>
