<svg width="84" height="84" viewBox="0 0 84 84" fill="none" xmlns="http://www.w3.org/2000/svg">
<g clip-path="url(#clip0_1326_1001)">
<g filter="url(#filter0_d_1326_1001)">
<path d="M70.9989 17.8605C73.6832 17.8605 75.8592 15.6845 75.8592 13.0003C75.8592 10.3161 73.6832 8.14014 70.9989 8.14014C68.3147 8.14014 66.1387 10.3161 66.1387 13.0003C66.1387 15.6845 68.3147 17.8605 70.9989 17.8605Z" fill="url(#paint0_linear_1326_1001)"/>
<path d="M71.0007 18.655C67.8825 18.655 65.3457 16.1182 65.3457 13.0001C65.3457 9.88194 67.8825 7.34521 71.0007 7.34521C74.1188 7.34521 76.6556 9.88194 76.6556 13.0001C76.6556 16.1182 74.1188 18.655 71.0007 18.655ZM71.0007 8.9346C68.758 8.9346 66.9351 10.7574 66.9351 13.0001C66.9351 15.2427 68.758 17.0656 71.0007 17.0656C73.2433 17.0656 75.0662 15.2427 75.0662 13.0001C75.0662 10.7574 73.2433 8.9346 71.0007 8.9346Z" fill="url(#paint1_linear_1326_1001)"/>
<path d="M70.9998 6.17325C70.5598 6.17325 70.2051 5.81856 70.2051 5.37856V2.79469C70.2051 2.35694 70.5598 2 70.9998 2C71.4375 2 71.7945 2.35469 71.7945 2.79469V5.37856C71.7945 5.81631 71.4375 6.17325 70.9998 6.17325Z" fill="url(#paint2_linear_1326_1001)"/>
<path d="M70.9998 23.9999C70.5598 23.9999 70.2051 23.6452 70.2051 23.2052V20.6214C70.2051 20.1836 70.5598 19.8267 70.9998 19.8267C71.4375 19.8267 71.7945 20.1836 71.7945 20.6214V23.2052C71.7945 23.6452 71.4375 23.9999 70.9998 23.9999Z" fill="url(#paint3_linear_1326_1001)"/>
<path d="M81.2048 13.7945H78.6209C78.1831 13.7945 77.8262 13.4398 77.8262 12.9998C77.8262 12.5598 78.1831 12.2051 78.6209 12.2051H81.2048C81.6425 12.2051 81.9995 12.5598 81.9995 12.9998C81.9995 13.4375 81.6448 13.7945 81.2048 13.7945Z" fill="url(#paint4_linear_1326_1001)"/>
<path d="M63.3786 13.7945H60.7947C60.3569 13.7945 60 13.4375 60 12.9998C60 12.5598 60.3569 12.2051 60.7947 12.2051H63.3786C63.8186 12.2051 64.1733 12.5598 64.1733 12.9998C64.1733 13.4375 63.8164 13.7945 63.3786 13.7945Z" fill="url(#paint5_linear_1326_1001)"/>
<path d="M76.3912 8.40466C76.1869 8.40466 75.9849 8.32609 75.83 8.17119C75.5202 7.8614 75.5202 7.35854 75.83 7.0465L77.6574 5.21916C77.9672 4.90937 78.47 4.90937 78.7821 5.21916C79.0919 5.52896 79.0919 6.03181 78.7821 6.34385L76.9525 8.17344C76.7976 8.32834 76.5933 8.40466 76.3912 8.40466Z" fill="url(#paint6_linear_1326_1001)"/>
<path d="M63.7828 21.0121C63.5785 21.0121 63.3765 20.9335 63.2216 20.7786C62.9118 20.4688 62.9118 19.966 63.2216 19.6539L65.049 17.8266C65.3588 17.5168 65.8616 17.5168 66.1737 17.8266C66.4835 18.1364 66.4835 18.6392 66.1737 18.9513L64.3463 20.7786C64.1914 20.9335 63.9871 21.0121 63.7828 21.0121Z" fill="url(#paint7_linear_1326_1001)"/>
<path d="M78.2157 21.0121C78.0114 21.0121 77.8093 20.9335 77.6544 20.7786L75.8271 18.9513C75.5173 18.6415 75.5173 18.1386 75.8271 17.8266C76.1369 17.5168 76.6397 17.5168 76.9518 17.8266L78.7791 19.6539C79.0889 19.9637 79.0889 20.4666 78.7791 20.7786C78.6242 20.9335 78.42 21.0121 78.2157 21.0121Z" fill="url(#paint8_linear_1326_1001)"/>
<path d="M65.6102 8.40466C65.4059 8.40466 65.2039 8.32609 65.049 8.17119L63.2216 6.34385C62.9118 6.03406 62.9118 5.5312 63.2216 5.21916C63.5314 4.90937 64.0343 4.90937 64.3463 5.21916L66.1737 7.0465C66.4835 7.3563 66.4835 7.85915 66.1737 8.17119C66.0188 8.32834 65.8145 8.40466 65.6102 8.40466Z" fill="url(#paint9_linear_1326_1001)"/>
</g>
<g filter="url(#filter1_d_1326_1001)">
<path d="M62 50.2085C61.7867 51.9178 61.4898 53.5629 60.9753 55.1438C60.2225 57.4558 59.1016 59.4319 57.2405 60.7064C56.0862 61.4969 54.8315 61.8526 53.5057 61.9612C51.8955 62.0946 50.3271 61.897 48.834 61.1609C46.5044 60.0148 45.1326 57.9547 44.7436 54.9906C44.522 53.3011 44.6223 51.6165 44.7353 49.9319C44.7813 49.2205 44.8315 48.514 44.8733 47.8026C44.9528 46.4886 45.0657 45.1745 45.187 43.8604C45.2915 42.7488 45.3668 41.6373 45.4672 40.5257C45.5843 39.2512 45.7181 37.9815 45.8352 36.7119C45.9314 35.6646 46.0151 34.6173 46.1113 33.5699C46.2326 32.2855 46.358 31.001 46.4793 29.7166C46.5211 29.2621 46.5546 28.8076 46.6006 28.3531C46.6131 28.2444 46.5755 28.2148 46.5044 28.2098C46.4291 28.2049 46.3538 28.2049 46.2786 28.2049C43.5433 28.2049 40.808 28.2049 38.0728 28.1999C37.8637 28.1999 37.7131 28.1901 37.7131 28.5359C37.7131 28.9904 37.6462 29.4449 37.6211 29.8994C37.5291 31.421 37.458 32.9425 37.3409 34.4641C37.1861 36.4995 37.0356 38.5348 36.8515 40.5653C36.6717 42.5315 36.4877 44.4976 36.2409 46.454C35.7767 50.1344 35.2121 53.7852 34.1037 57.2878C33.7148 58.5229 33.2296 59.6986 32.3597 60.578C31.5776 61.3684 30.67 61.7883 29.6495 61.9316C28.4576 62.0996 27.3158 61.9267 26.2451 61.2696C25.3125 60.6916 24.6182 59.8666 24.4091 58.5821C24.2376 57.52 24.5136 56.5863 24.9444 55.6823C25.5216 54.462 26.2995 53.4196 27.0523 52.3575C29.8336 48.4202 31.8327 44.0234 32.6817 38.9498C33.008 36.9984 33.3007 35.0471 33.5266 33.0759C33.6939 31.6334 33.8068 30.181 33.9615 28.7384C34.0159 28.2098 34.0159 28.2098 33.5726 28.2098C32.481 28.2098 31.3852 28.1703 30.2978 28.2296C28.65 28.3185 27.0565 28.694 25.7014 29.9191C24.7227 30.7985 23.8988 31.8557 23.1585 33.0068C23.1042 33.0858 23.0331 33.1599 23.0038 33.2538C22.6692 34.3653 21.8829 34.2122 21.1385 34.1924C20.9503 34.1875 20.9963 34.0837 21.0339 33.9454C21.7658 31.3666 22.6859 28.9113 24.1038 26.7475C25.0406 25.3198 26.0904 24.0354 27.4831 23.2103C28.3865 22.6719 29.3693 22.4644 30.3564 22.3211C32.9452 21.9457 35.5467 22.0099 38.1439 22.0099C45.9272 22.0099 53.7106 22.0099 61.4981 22C61.7992 22 61.8954 22.0642 61.8913 22.4496C61.8703 24.2478 61.8745 26.051 61.8913 27.8492C61.8954 28.1654 61.8076 28.2197 61.565 28.2148C58.5496 28.2049 55.5341 28.2148 52.5144 28.1999C52.2384 28.1999 52.1589 28.2691 52.1422 28.61C52.0586 30.1908 51.9415 31.7717 51.8369 33.3526C51.7867 34.0887 51.7449 34.8198 51.6989 35.5559C51.5943 37.1516 51.4898 38.7473 51.3852 40.3429C51.3392 41.0148 51.289 41.6867 51.2514 42.3536C51.1343 44.3494 51.0673 46.3502 51.1217 48.351C51.1552 49.5416 51.2765 50.7223 51.4898 51.8931C51.7742 53.4443 52.5437 54.4423 53.7901 54.956C55.1368 55.5093 56.4918 55.534 57.8218 54.9066C59.2229 54.2447 59.9214 52.8762 60.3271 51.2509C60.3689 51.0829 60.4358 50.91 60.4358 50.7371C60.4358 50.2629 60.6366 50.1542 61.0046 50.1986C61.3225 50.2431 61.6487 50.2085 62 50.2085Z" fill="url(#paint10_linear_1326_1001)"/>
</g>
<g filter="url(#filter2_d_1326_1001)">
<path d="M16.2497 9.16283C16.1812 9.25835 15.9765 9.8322 15.826 10.4324C14.9787 13.5319 13.7084 14.8022 10.5524 15.7581C8.57101 16.3591 8.50325 16.7141 10.2521 17.1781C11.7827 17.588 13.2035 18.298 13.968 19.0351C14.7198 19.7722 15.4708 21.2606 15.8945 22.8588C16.1135 23.7328 16.2361 23.9652 16.4544 23.9923C16.8231 24.0472 16.9601 23.8283 17.2332 22.7362C17.5613 21.3982 18.2717 19.9233 18.9407 19.1998C19.6511 18.4349 20.9898 17.7249 22.5746 17.2608C23.9134 16.8787 24.0639 16.7967 23.9818 16.4275C23.9547 16.25 23.6131 16.086 22.6702 15.813C19.4735 14.8842 18.1754 13.601 17.2596 10.4738C17.082 9.8044 16.8773 9.21772 16.836 9.13574C16.714 8.94399 16.4273 8.95753 16.2497 9.16283Z" fill="url(#paint11_linear_1326_1001)"/>
</g>
<g filter="url(#filter3_d_1326_1001)">
<path d="M17.8331 40.1086C17.7875 40.1722 17.651 40.5548 17.5507 40.9549C16.9858 43.0213 16.139 43.8681 14.0349 44.5054C12.714 44.906 12.6688 45.1427 13.8347 45.4521C14.8551 45.7253 15.8023 46.1987 16.312 46.6901C16.8132 47.1815 17.3139 48.1737 17.5963 49.2392C17.7423 49.8219 17.8241 49.9768 17.9696 49.9948C18.2154 50.0314 18.3067 49.8855 18.4888 49.1575C18.7075 48.2655 19.1811 47.2822 19.6271 46.7998C20.1007 46.2899 20.9932 45.8166 22.0498 45.5072C22.9422 45.2525 23.0426 45.1978 22.9879 44.9517C22.9698 44.8333 22.7421 44.724 22.1135 44.542C19.9823 43.9228 19.1169 43.0674 18.5064 40.9825C18.388 40.5363 18.2515 40.1451 18.224 40.0905C18.1427 39.9627 17.9515 39.9717 17.8331 40.1086Z" fill="url(#paint12_linear_1326_1001)"/>
</g>
<g filter="url(#filter4_d_1326_1001)">
<path d="M49.8331 7.10855C49.7875 7.17223 49.651 7.5548 49.5507 7.95495C48.9858 10.0213 48.139 10.8681 46.0349 11.5054C44.714 11.906 44.6688 12.1427 45.8347 12.4521C46.8551 12.7253 47.8023 13.1987 48.312 13.6901C48.8132 14.1815 49.3139 15.1737 49.5963 16.2392C49.7423 16.8219 49.8241 16.9768 49.9696 16.9948C50.2154 17.0314 50.3067 16.8855 50.4888 16.1575C50.7075 15.2655 51.1811 14.2822 51.6271 13.7998C52.1007 13.2899 52.9932 12.8166 54.0498 12.5072C54.9422 12.2525 55.0426 12.1978 54.9879 11.9517C54.9698 11.8333 54.7421 11.724 54.1135 11.542C51.9823 10.9228 51.1169 10.0674 50.5064 7.98251C50.388 7.53627 50.2515 7.14515 50.224 7.0905C50.1427 6.96266 49.9515 6.97169 49.8331 7.10855Z" fill="url(#paint13_linear_1326_1001)"/>
</g>
<g filter="url(#filter5_d_1326_1001)">
<path d="M65.8331 33.1086C65.7875 33.1722 65.651 33.5548 65.5507 33.9549C64.9858 36.0213 64.139 36.8681 62.0349 37.5054C60.714 37.906 60.6688 38.1427 61.8347 38.4521C62.8551 38.7253 63.8023 39.1987 64.312 39.6901C64.8132 40.1815 65.3139 41.1737 65.5963 42.2392C65.7423 42.8219 65.8241 42.9768 65.9696 42.9948C66.2154 43.0314 66.3067 42.8855 66.4888 42.1575C66.7075 41.2655 67.1811 40.2822 67.6271 39.7998C68.1007 39.2899 68.9932 38.8166 70.0498 38.5072C70.9422 38.2525 71.0426 38.1978 70.9879 37.9517C70.9698 37.8333 70.7421 37.724 70.1135 37.542C67.9823 36.9228 67.1169 36.0674 66.5064 33.9825C66.388 33.5363 66.2515 33.1451 66.224 33.0905C66.1427 32.9627 65.9515 32.9717 65.8331 33.1086Z" fill="url(#paint14_linear_1326_1001)"/>
</g>
<g filter="url(#filter6_d_1326_1001)">
<path d="M42.8331 65.1086C42.7875 65.1722 42.651 65.5548 42.5507 65.9549C41.9858 68.0213 41.139 68.8681 39.0349 69.5054C37.714 69.906 37.6688 70.1427 38.8347 70.4521C39.8551 70.7253 40.8023 71.1987 41.312 71.6901C41.8132 72.1815 42.3139 73.1737 42.5963 74.2392C42.7423 74.8219 42.8241 74.9768 42.9696 74.9948C43.2154 75.0314 43.3067 74.8855 43.4888 74.1575C43.7075 73.2655 44.1811 72.2822 44.6271 71.7998C45.1007 71.2899 45.9932 70.8166 47.0498 70.5072C47.9422 70.2525 48.0426 70.1978 47.9879 69.9517C47.9698 69.8333 47.7421 69.724 47.1135 69.542C44.9823 68.9228 44.1169 68.0674 43.5064 65.9825C43.388 65.5363 43.2515 65.1451 43.224 65.0905C43.1427 64.9627 42.9515 64.9717 42.8331 65.1086Z" fill="url(#paint15_linear_1326_1001)"/>
</g>
</g>
<defs>
<filter id="filter0_d_1326_1001" x="56" y="2" width="29.999" height="30" filterUnits="userSpaceOnUse" color-interpolation-filters="sRGB">
<feFlood flood-opacity="0" result="BackgroundImageFix"/>
<feColorMatrix in="SourceAlpha" type="matrix" values="0 0 0 0 0 0 0 0 0 0 0 0 0 0 0 0 0 0 127 0" result="hardAlpha"/>
<feOffset dy="4"/>
<feGaussianBlur stdDeviation="2"/>
<feComposite in2="hardAlpha" operator="out"/>
<feColorMatrix type="matrix" values="0 0 0 0 0 0 0 0 0 0 0 0 0 0 0 0 0 0 0.25 0"/>
<feBlend mode="normal" in2="BackgroundImageFix" result="effect1_dropShadow_1326_1001"/>
<feBlend mode="normal" in="SourceGraphic" in2="effect1_dropShadow_1326_1001" result="shape"/>
</filter>
<filter id="filter1_d_1326_1001" x="17" y="22" width="49" height="48" filterUnits="userSpaceOnUse" color-interpolation-filters="sRGB">
<feFlood flood-opacity="0" result="BackgroundImageFix"/>
<feColorMatrix in="SourceAlpha" type="matrix" values="0 0 0 0 0 0 0 0 0 0 0 0 0 0 0 0 0 0 127 0" result="hardAlpha"/>
<feOffset dy="4"/>
<feGaussianBlur stdDeviation="2"/>
<feComposite in2="hardAlpha" operator="out"/>
<feColorMatrix type="matrix" values="0 0 0 0 0 0 0 0 0 0 0 0 0 0 0 0 0 0 0.25 0"/>
<feBlend mode="normal" in2="BackgroundImageFix" result="effect1_dropShadow_1326_1001"/>
<feBlend mode="normal" in="SourceGraphic" in2="effect1_dropShadow_1326_1001" result="shape"/>
</filter>
<filter id="filter2_d_1326_1001" x="5" y="9" width="23" height="23" filterUnits="userSpaceOnUse" color-interpolation-filters="sRGB">
<feFlood flood-opacity="0" result="BackgroundImageFix"/>
<feColorMatrix in="SourceAlpha" type="matrix" values="0 0 0 0 0 0 0 0 0 0 0 0 0 0 0 0 0 0 127 0" result="hardAlpha"/>
<feOffset dy="4"/>
<feGaussianBlur stdDeviation="2"/>
<feComposite in2="hardAlpha" operator="out"/>
<feColorMatrix type="matrix" values="0 0 0 0 0 0 0 0 0 0 0 0 0 0 0 0 0 0 0.25 0"/>
<feBlend mode="normal" in2="BackgroundImageFix" result="effect1_dropShadow_1326_1001"/>
<feBlend mode="normal" in="SourceGraphic" in2="effect1_dropShadow_1326_1001" result="shape"/>
</filter>
<filter id="filter3_d_1326_1001" x="9" y="40" width="18" height="18" filterUnits="userSpaceOnUse" color-interpolation-filters="sRGB">
<feFlood flood-opacity="0" result="BackgroundImageFix"/>
<feColorMatrix in="SourceAlpha" type="matrix" values="0 0 0 0 0 0 0 0 0 0 0 0 0 0 0 0 0 0 127 0" result="hardAlpha"/>
<feOffset dy="4"/>
<feGaussianBlur stdDeviation="2"/>
<feComposite in2="hardAlpha" operator="out"/>
<feColorMatrix type="matrix" values="0 0 0 0 0 0 0 0 0 0 0 0 0 0 0 0 0 0 0.25 0"/>
<feBlend mode="normal" in2="BackgroundImageFix" result="effect1_dropShadow_1326_1001"/>
<feBlend mode="normal" in="SourceGraphic" in2="effect1_dropShadow_1326_1001" result="shape"/>
</filter>
<filter id="filter4_d_1326_1001" x="41" y="7" width="18" height="18" filterUnits="userSpaceOnUse" color-interpolation-filters="sRGB">
<feFlood flood-opacity="0" result="BackgroundImageFix"/>
<feColorMatrix in="SourceAlpha" type="matrix" values="0 0 0 0 0 0 0 0 0 0 0 0 0 0 0 0 0 0 127 0" result="hardAlpha"/>
<feOffset dy="4"/>
<feGaussianBlur stdDeviation="2"/>
<feComposite in2="hardAlpha" operator="out"/>
<feColorMatrix type="matrix" values="0 0 0 0 0 0 0 0 0 0 0 0 0 0 0 0 0 0 0.25 0"/>
<feBlend mode="normal" in2="BackgroundImageFix" result="effect1_dropShadow_1326_1001"/>
<feBlend mode="normal" in="SourceGraphic" in2="effect1_dropShadow_1326_1001" result="shape"/>
</filter>
<filter id="filter5_d_1326_1001" x="57" y="33" width="18" height="18" filterUnits="userSpaceOnUse" color-interpolation-filters="sRGB">
<feFlood flood-opacity="0" result="BackgroundImageFix"/>
<feColorMatrix in="SourceAlpha" type="matrix" values="0 0 0 0 0 0 0 0 0 0 0 0 0 0 0 0 0 0 127 0" result="hardAlpha"/>
<feOffset dy="4"/>
<feGaussianBlur stdDeviation="2"/>
<feComposite in2="hardAlpha" operator="out"/>
<feColorMatrix type="matrix" values="0 0 0 0 0 0 0 0 0 0 0 0 0 0 0 0 0 0 0.25 0"/>
<feBlend mode="normal" in2="BackgroundImageFix" result="effect1_dropShadow_1326_1001"/>
<feBlend mode="normal" in="SourceGraphic" in2="effect1_dropShadow_1326_1001" result="shape"/>
</filter>
<filter id="filter6_d_1326_1001" x="34" y="65" width="18" height="18" filterUnits="userSpaceOnUse" color-interpolation-filters="sRGB">
<feFlood flood-opacity="0" result="BackgroundImageFix"/>
<feColorMatrix in="SourceAlpha" type="matrix" values="0 0 0 0 0 0 0 0 0 0 0 0 0 0 0 0 0 0 127 0" result="hardAlpha"/>
<feOffset dy="4"/>
<feGaussianBlur stdDeviation="2"/>
<feComposite in2="hardAlpha" operator="out"/>
<feColorMatrix type="matrix" values="0 0 0 0 0 0 0 0 0 0 0 0 0 0 0 0 0 0 0.25 0"/>
<feBlend mode="normal" in2="BackgroundImageFix" result="effect1_dropShadow_1326_1001"/>
<feBlend mode="normal" in="SourceGraphic" in2="effect1_dropShadow_1326_1001" result="shape"/>
</filter>
<linearGradient id="paint0_linear_1326_1001" x1="70.9989" y1="8.14014" x2="70.9989" y2="17.8605" gradientUnits="userSpaceOnUse">
<stop stop-color="#FBB03B"/>
<stop offset="1" stop-color="#F78140"/>
</linearGradient>
<linearGradient id="paint1_linear_1326_1001" x1="71.0007" y1="7.34521" x2="71.0007" y2="18.655" gradientUnits="userSpaceOnUse">
<stop stop-color="#FBB03B"/>
<stop offset="1" stop-color="#F78140"/>
</linearGradient>
<linearGradient id="paint2_linear_1326_1001" x1="70.9998" y1="2" x2="70.9998" y2="6.17325" gradientUnits="userSpaceOnUse">
<stop stop-color="#FBB03B"/>
<stop offset="1" stop-color="#F78140"/>
</linearGradient>
<linearGradient id="paint3_linear_1326_1001" x1="70.9998" y1="19.8267" x2="70.9998" y2="23.9999" gradientUnits="userSpaceOnUse">
<stop stop-color="#FBB03B"/>
<stop offset="1" stop-color="#F78140"/>
</linearGradient>
<linearGradient id="paint4_linear_1326_1001" x1="79.9128" y1="12.2051" x2="79.9128" y2="13.7945" gradientUnits="userSpaceOnUse">
<stop stop-color="#FBB03B"/>
<stop offset="1" stop-color="#F78140"/>
</linearGradient>
<linearGradient id="paint5_linear_1326_1001" x1="62.0867" y1="12.2051" x2="62.0867" y2="13.7945" gradientUnits="userSpaceOnUse">
<stop stop-color="#FBB03B"/>
<stop offset="1" stop-color="#F78140"/>
</linearGradient>
<linearGradient id="paint6_linear_1326_1001" x1="77.306" y1="4.98682" x2="77.306" y2="8.40466" gradientUnits="userSpaceOnUse">
<stop stop-color="#FBB03B"/>
<stop offset="1" stop-color="#F78140"/>
</linearGradient>
<linearGradient id="paint7_linear_1326_1001" x1="64.6976" y1="17.5942" x2="64.6976" y2="21.0121" gradientUnits="userSpaceOnUse">
<stop stop-color="#FBB03B"/>
<stop offset="1" stop-color="#F78140"/>
</linearGradient>
<linearGradient id="paint8_linear_1326_1001" x1="77.3031" y1="17.5942" x2="77.3031" y2="21.0121" gradientUnits="userSpaceOnUse">
<stop stop-color="#FBB03B"/>
<stop offset="1" stop-color="#F78140"/>
</linearGradient>
<linearGradient id="paint9_linear_1326_1001" x1="64.6976" y1="4.98682" x2="64.6976" y2="8.40466" gradientUnits="userSpaceOnUse">
<stop stop-color="#FBB03B"/>
<stop offset="1" stop-color="#F78140"/>
</linearGradient>
<linearGradient id="paint10_linear_1326_1001" x1="41.5" y1="22" x2="41.5" y2="62" gradientUnits="userSpaceOnUse">
<stop stop-color="#FBB03B"/>
<stop offset="1" stop-color="#F78140"/>
</linearGradient>
<linearGradient id="paint11_linear_1326_1001" x1="16.5" y1="24" x2="16.5" y2="9" gradientUnits="userSpaceOnUse">
<stop stop-color="#F78140"/>
<stop offset="1" stop-color="#FBB03B"/>
</linearGradient>
<linearGradient id="paint12_linear_1326_1001" x1="18" y1="50" x2="18" y2="40" gradientUnits="userSpaceOnUse">
<stop stop-color="#F78140"/>
<stop offset="1" stop-color="#FBB03B"/>
</linearGradient>
<linearGradient id="paint13_linear_1326_1001" x1="50" y1="17" x2="50" y2="7" gradientUnits="userSpaceOnUse">
<stop stop-color="#F78140"/>
<stop offset="1" stop-color="#FBB03B"/>
</linearGradient>
<linearGradient id="paint14_linear_1326_1001" x1="66" y1="43" x2="66" y2="33" gradientUnits="userSpaceOnUse">
<stop stop-color="#F78140"/>
<stop offset="1" stop-color="#FBB03B"/>
</linearGradient>
<linearGradient id="paint15_linear_1326_1001" x1="43" y1="75" x2="43" y2="65" gradientUnits="userSpaceOnUse">
<stop stop-color="#F78140"/>
<stop offset="1" stop-color="#FBB03B"/>
</linearGradient>
<clipPath id="clip0_1326_1001">
<rect width="83.75" height="83.75" fill="white"/>
</clipPath>
</defs>
</svg>
