<svg width="84" height="84" viewBox="0 0 84 84" fill="none" xmlns="http://www.w3.org/2000/svg">
<path d="M81.8348 14.9985C80.8041 20.9217 75.2241 24.8769 69.3763 23.8329C65.3028 23.1061 62.1786 20.1435 61 16.4134C61.6771 16.6878 62.3928 16.8979 63.1407 17.0329C68.9906 18.0769 74.5684 14.1217 75.5991 8.19857C75.912 6.39783 75.7641 4.6271 75.2499 3C79.8762 4.87577 82.7348 9.8321 81.8348 14.9985Z" fill="url(#paint0_linear_716_126)"/>
<path fill-rule="evenodd" clip-rule="evenodd" d="M40.4824 16.067C35.4256 16.4655 30.3948 18.4694 26.3929 21.6931C25.0034 22.8106 22.7646 25.1869 21.7477 26.6131C18.5696 31.0577 17 35.9906 17 41.5013C17 48.2839 19.4704 54.3983 24.141 59.2154C28.6447 63.8397 34.2417 66.4473 40.7265 66.9356C46.0279 67.3336 51.8304 65.8696 56.2315 63.0048C60.2845 60.3589 63.5271 56.7107 65.5343 52.4843C68.0432 47.1918 68.674 40.9745 67.2584 35.3355C65.2127 27.1658 59.2681 20.5117 51.3678 17.5701C48.0866 16.3497 44.0722 15.7974 40.4824 16.067ZM42.6181 27.1658V33.6398L43.1713 33.7296C45.3716 34.0507 46.5686 34.6289 47.9706 36.0291C49.5786 37.635 50.2739 39.2918 50.2609 41.5652C50.2609 43.3634 49.6947 44.9692 48.5628 46.3564L48.1126 46.9216L52.7318 51.546L57.3509 56.1574L56.6432 56.7995C52.9243 60.1651 48.0481 62.1819 43.6735 62.1819H42.4511L42.5281 55.7719L42.6051 49.3749L41.5888 49.2336C39.5561 48.938 38.2046 48.2574 36.8281 46.8058C34.5763 44.4554 34.0486 41.0644 35.4771 38.0968C35.7217 37.596 36.1463 36.9279 36.4295 36.5938C36.7256 36.2728 36.9571 35.9517 36.9571 35.9002C36.9571 35.8358 34.9244 33.7551 32.428 31.2629L27.8989 26.7414L28.272 26.3304C28.4906 26.1122 29.0313 25.6369 29.4945 25.2514C32.1064 23.1317 35.3876 21.5902 38.5012 21.0255C40.0192 20.7558 40.2123 20.7299 41.4993 20.7044L42.6187 20.6914V27.1658H42.6181ZM58.0833 27.5142C56.8814 27.0126 55.5261 27.0832 54.0174 27.7261C53.3796 27.9979 52.83 28.3334 52.3688 28.7327C51.9198 29.1268 51.5883 29.4925 51.3742 29.8299C51.1725 30.162 51.0156 30.5185 50.9035 30.8993C50.7867 31.2677 50.7251 31.5184 50.7186 31.6515C50.6823 32.42 50.702 32.904 50.7776 33.1035C50.9572 33.5772 51.4223 33.8642 52.1727 33.9644C52.6258 34.032 53.0056 34.0005 53.3123 33.8698C53.8397 33.6451 54.1263 33.1609 54.1721 32.4174L54.1974 32.1459C54.202 31.9702 54.3047 31.7526 54.5056 31.4933C54.7064 31.2339 55.0215 31.0127 55.4508 30.8298C55.8924 30.6416 56.2808 30.6137 56.6159 30.7461C56.9511 30.8784 57.1683 31.0755 57.2676 31.3373C57.4519 31.8235 57.078 32.2652 56.1458 32.6625C55.7165 32.8454 55.4094 33.0125 55.2245 33.1636C54.8321 33.5191 54.8014 34.1332 55.1323 35.0059C55.4348 35.8038 55.7825 36.2132 56.1751 36.2341C56.3846 36.2607 56.5677 36.2551 56.7244 36.2173C56.881 36.1795 57.1618 36.0744 57.5665 35.9019C57.9836 35.7242 58.389 35.7035 58.7826 35.8399C59.1838 35.9586 59.4483 36.1862 59.5759 36.5228C59.7035 36.8594 59.666 37.2302 59.4634 37.6352C59.256 38.0276 58.8273 38.3624 58.1772 38.6394C57.895 38.7596 57.6233 38.832 57.3619 38.8565C56.7342 38.8922 56.2835 38.7367 56.0095 38.39C55.6657 37.9718 55.3588 37.726 55.0888 37.6528C54.882 37.5961 54.5333 37.6723 54.0427 37.8813C52.8406 38.3935 52.3767 39.0112 52.6509 39.7343C52.7501 39.9961 52.9453 40.304 53.2362 40.6579L53.3439 40.8292C53.428 40.9382 53.5569 41.0715 53.7307 41.2292C54.2208 41.6575 54.7137 41.9616 55.2093 42.1414C56.5216 42.596 57.9136 42.5096 59.3856 41.8824C60.8698 41.25 61.9394 40.2946 62.5945 39.0162C63.2449 37.7254 63.3172 36.413 62.8113 35.079C62.556 34.4058 62.1267 33.8936 61.5233 33.5425C61.3005 33.4057 61.0286 33.2899 60.7076 33.195C60.3942 33.0823 60.1644 33.021 60.0181 33.0109L59.9684 32.88C60.7408 31.9861 60.9213 30.9968 60.51 29.9122C60.094 28.8151 59.2851 28.0157 58.0833 27.5142Z" fill="url(#paint1_linear_716_126)"/>
<defs>
<linearGradient id="paint0_linear_716_126" x1="71.5" y1="3" x2="71.5" y2="24" gradientUnits="userSpaceOnUse">
<stop stop-color="white"/>
<stop offset="1" stop-color="#BFBFBF"/>
</linearGradient>
<linearGradient id="paint1_linear_716_126" x1="42.5" y1="67" x2="42.5" y2="16" gradientUnits="userSpaceOnUse">
<stop stop-color="white"/>
<stop offset="1" stop-color="#BFBFBF"/>
</linearGradient>
</defs>
</svg>
