<svg width="84" height="84" viewBox="0 0 84 84" fill="none" xmlns="http://www.w3.org/2000/svg">
<path fill-rule="evenodd" clip-rule="evenodd" d="M59.9274 15.2121C60.1468 15.0642 60.4064 14.9903 60.6693 15.001C60.9354 15.0206 61.1878 15.1291 61.3872 15.3096C61.5866 15.4779 61.7243 15.7099 61.7778 15.9679C61.8314 16.2259 61.7978 16.4948 61.6824 16.7309L41.692 57.4116C41.5747 57.6515 41.3805 57.8435 41.1416 57.9558C37.4674 59.5655 33.4938 60.3441 29.4952 60.2379C27.5965 60.2324 25.6998 60.1104 23.8155 59.8725C30.8442 62.3576 38.3729 63.0082 45.7124 61.7647L64.5621 23.4067C64.6537 23.2114 64.7955 23.0449 64.9724 22.9248C65.1493 22.8047 65.3548 22.7356 65.5672 22.7246C65.7788 22.7112 65.9902 22.7532 66.1814 22.8464C66.3237 22.9145 66.4509 23.0113 66.5552 23.1311C66.6595 23.2509 66.7387 23.3911 66.788 23.5432C66.8372 23.6952 66.8555 23.8559 66.8418 24.0154C66.828 24.1748 66.7825 24.3298 66.7079 24.4707L47.5631 63.4541C47.4782 63.6241 47.3553 63.7715 47.2043 63.8844C47.0533 63.9972 46.8783 64.0723 46.6936 64.1038C41.9057 64.9408 37.0198 65.023 32.2073 64.3474C38.4464 66.3987 44.9556 67.4722 51.5117 67.5311L66.7159 36.588C66.8175 36.3755 66.9784 36.1982 67.1784 36.0783C67.3785 35.9584 67.6088 35.9013 67.8406 35.9139C68.0123 35.9167 68.1813 35.9583 68.3352 36.0358C68.4775 36.1038 68.6047 36.2007 68.709 36.3205C68.8133 36.4403 68.8925 36.5805 68.9418 36.7325C68.991 36.8846 69.0093 37.0453 68.9956 37.2047C68.9818 37.3642 68.9362 37.5191 68.8617 37.6601L53.3065 69.3341C53.2062 69.5348 53.0532 69.7034 52.8645 69.821C52.6758 69.9385 52.4588 70.0005 52.2376 70C28.9128 70 14.8095 58.1019 14.4824 57.8177L14.4186 57.769L14.3548 57.704L14.3069 57.6553C14.1258 57.4545 14.0181 57.1961 14.0022 56.924C13.9862 56.6518 14.0628 56.3823 14.2192 56.161L32.0558 20.6373C32.1592 20.4398 32.3132 20.2744 32.5013 20.1586C32.6895 20.0428 32.9048 19.9809 33.1247 19.9795C52.6843 19.9795 59.8556 15.2609 59.9274 15.2121ZM37.2883 47.3729C38.8781 46.8795 40.0394 45.8751 40.772 44.3596C41.3668 43.1291 41.3667 41.7699 40.7716 40.282C40.1989 38.7863 39.1689 37.6811 37.6817 36.9663C37.1259 36.6992 36.5084 36.5596 35.8293 36.5476L36.0943 36.2866C36.4839 35.8637 37.1579 35.5034 38.1162 35.2058C38.5918 35.0645 39.1658 35.026 39.8382 35.0903C40.5256 35.1618 41.1772 35.3455 41.7931 35.6415C42.409 35.9375 42.8664 36.1019 43.1653 36.1346C43.3896 36.1684 43.587 36.1431 43.7574 36.0585C43.9278 35.974 44.1123 35.8223 44.3107 35.6033C44.5091 35.3843 44.7135 35.0572 44.9239 34.6221C45.1342 34.1869 45.2632 33.8051 45.3109 33.4767C45.3586 33.1483 45.2799 32.8516 45.0748 32.5866C44.892 32.3138 44.5151 32.0402 43.9443 31.7659C41.1202 30.4086 38.4252 30.2969 35.8593 31.4306C33.3085 32.5716 31.3403 34.5751 29.9549 37.4412C28.9974 39.4219 28.7097 41.2807 29.0918 43.0176C29.4812 44.7395 30.6523 46.0698 32.6052 47.0083C34.1524 47.7519 35.7135 47.8734 37.2883 47.3729ZM36.7635 42.5995C36.2775 43.6048 35.4561 43.8296 34.2995 43.2737C33.5484 42.9127 33.1511 42.5091 33.1076 42.0629C33.0895 41.8323 33.0942 41.6312 33.1217 41.4595C33.1642 41.295 33.2543 41.0702 33.3921 40.7851C33.53 40.5 33.8144 40.2946 34.2454 40.1688C34.6987 40.0354 35.2107 40.1058 35.7815 40.3801C36.3674 40.6617 36.7155 41.0139 36.8258 41.4367C36.9511 41.8668 36.9303 42.2544 36.7635 42.5995Z" fill="url(#paint0_linear_1569_9)"/>
<defs>
<linearGradient id="paint0_linear_1569_9" x1="41.5" y1="15" x2="41.5" y2="70" gradientUnits="userSpaceOnUse">
<stop stop-color="white"/>
<stop offset="1" stop-color="#BFBFBF"/>
</linearGradient>
</defs>
</svg>
