<svg width="84" height="84" viewBox="0 0 84 84" fill="none" xmlns="http://www.w3.org/2000/svg">
<g filter="url(#filter0_d_1063_290)">
<path d="M20.1241 19.4346C16.5394 23.0969 16.717 22.5453 18.5832 24.276C21.3382 26.7845 22.3157 30.0455 21.3382 33.3066C20.7756 35.213 19.5011 37.5964 18.2572 39.1267C15.6806 42.3126 13.636 46.9537 13.1323 50.8422C12.5988 54.7806 13.695 58.7443 16.1246 61.855C17.3692 63.4107 20.6868 66.2705 21.1307 66.1195C21.427 66.0443 26.4929 60.5003 26.4929 60.2494C26.4929 60.1743 26.1668 59.8981 25.8116 59.622C24.5378 58.7943 22.9679 56.5612 22.4642 54.8805C21.4867 51.6194 22.5828 48.0569 26.0787 43.0652C30.0783 37.3455 31.5297 32.4536 30.5812 27.9888C30.0186 25.3798 29.0702 23.3983 27.5301 21.3915C26.2854 19.8112 23.2641 17.0013 22.7903 17.0013C22.6119 17.0013 21.427 18.1051 20.1241 19.4346Z" fill="url(#paint0_linear_1063_290)"/>
<path d="M39.8755 19.8111L37.0609 22.6204L38.5421 24.025C40.6747 26.0318 41.5044 27.6873 41.682 30.0455C41.8895 33.2313 41.0306 35.489 38.0085 39.6284C36.0834 42.2879 34.9283 44.4451 33.9799 47.2544C33.4463 48.86 33.2986 49.8634 33.2986 52.6227C33.2986 56.5359 33.8321 58.3923 35.7282 61.1517C36.8542 62.7572 40.4978 66.1687 41.0903 66.1687C41.2679 66.1687 42.6304 64.8393 44.0825 63.1831L46.7487 60.2228L45.4152 59.119C44.6743 58.5168 43.7266 57.3876 43.2819 56.6351C42.5416 55.3808 42.4819 55.0042 42.5118 52.3706C42.5118 48.8587 43.0453 47.504 46.1853 43.0891C49.8289 37.8964 51.1325 34.1836 50.8363 29.6682C50.5699 25.4038 48.7925 22.0675 45.0593 18.706C44.0228 17.7778 43.0446 16.9999 42.8968 16.9999C42.7782 17.0012 41.3865 18.2807 39.8755 19.8111Z" fill="url(#paint1_linear_1063_290)"/>
<path d="M60.2471 19.5602C58.8547 20.9649 57.6108 22.2697 57.4921 22.4453C57.3145 22.6962 57.6406 23.1726 58.5293 23.9757C60.3067 25.6066 61.0477 26.6852 61.6103 28.5662C62.5289 31.6264 61.5514 34.8881 58.3219 39.3528C54.7073 44.3699 53.3448 47.9822 53.3149 52.6233C53.3149 55.9848 53.8186 57.8912 55.4483 60.5254C56.5146 62.2568 60.544 66.1699 61.2552 66.1699C61.5215 66.1699 65.6987 61.7298 66.5285 60.5254C66.6471 60.3498 66.2024 59.7483 65.3734 59.0203C62.855 56.7873 61.9073 53.8776 62.5886 50.4914C63.0624 48.1832 63.981 46.352 66.4098 42.8907C69.8154 38.0228 71.0004 34.8622 71.0004 30.6729C71.0004 26.9354 69.9042 24.0003 67.2971 20.8391C66.1711 19.4345 63.446 17.0011 63.0311 17.0011C62.8833 17.0011 61.6096 18.1549 60.2471 19.5602Z" fill="url(#paint2_linear_1063_290)"/>
</g>
<defs>
<filter id="filter0_d_1063_290" x="9" y="17" width="66.0005" height="57.1699" filterUnits="userSpaceOnUse" color-interpolation-filters="sRGB">
<feFlood flood-opacity="0" result="BackgroundImageFix"/>
<feColorMatrix in="SourceAlpha" type="matrix" values="0 0 0 0 0 0 0 0 0 0 0 0 0 0 0 0 0 0 127 0" result="hardAlpha"/>
<feOffset dy="4"/>
<feGaussianBlur stdDeviation="2"/>
<feComposite in2="hardAlpha" operator="out"/>
<feColorMatrix type="matrix" values="0 0 0 0 0 0 0 0 0 0 0 0 0 0 0 0 0 0 0.25 0"/>
<feBlend mode="normal" in2="BackgroundImageFix" result="effect1_dropShadow_1063_290"/>
<feBlend mode="normal" in="SourceGraphic" in2="effect1_dropShadow_1063_290" result="shape"/>
</filter>
<linearGradient id="paint0_linear_1063_290" x1="21.9306" y1="66.1252" x2="21.9306" y2="17.0013" gradientUnits="userSpaceOnUse">
<stop stop-color="#BFBFBF"/>
<stop offset="1" stop-color="white"/>
</linearGradient>
<linearGradient id="paint1_linear_1063_290" x1="42.0877" y1="66.1687" x2="42.0877" y2="16.9999" gradientUnits="userSpaceOnUse">
<stop stop-color="#BFBFBF"/>
<stop offset="1" stop-color="white"/>
</linearGradient>
<linearGradient id="paint2_linear_1063_290" x1="62.1577" y1="66.1699" x2="62.1577" y2="17.0011" gradientUnits="userSpaceOnUse">
<stop stop-color="#BFBFBF"/>
<stop offset="1" stop-color="white"/>
</linearGradient>
</defs>
</svg>
