<svg width="84" height="84" viewBox="0 0 84 84" fill="none" xmlns="http://www.w3.org/2000/svg">
<path d="M81.8348 14.9985C80.8041 20.9217 75.2241 24.8769 69.3763 23.8329C65.3028 23.1061 62.1786 20.1435 61 16.4134C61.6771 16.6878 62.3928 16.8979 63.1407 17.0329C68.9906 18.0769 74.5684 14.1217 75.5991 8.19857C75.912 6.39783 75.7641 4.6271 75.2499 3C79.8762 4.87577 82.7348 9.8321 81.8348 14.9985Z" fill="url(#paint0_linear_336_192)"/>
<g filter="url(#filter0_d_336_192)">
<path d="M58.2751 17.0009C58.0313 16.991 57.7906 17.0595 57.5872 17.1968C57.5207 17.2419 50.8709 21.6174 32.7338 21.6174C32.5299 21.6187 32.3302 21.6761 32.1557 21.7835C31.9813 21.8909 31.8385 22.0442 31.7426 22.2273L15.2032 55.1675C15.0582 55.3727 14.9871 55.6225 15.0019 55.8749C15.0167 56.1273 15.1166 56.3669 15.2846 56.5531L15.3289 56.5982L15.3881 56.6586L15.4473 56.7037C15.7506 56.9673 28.8282 68 50.4567 68C50.6618 68.0004 50.863 67.943 51.038 67.834C51.213 67.725 51.3548 67.5687 51.4478 67.3825L65.8717 38.0121C65.9409 37.8814 65.9831 37.7377 65.9959 37.5899C66.0086 37.442 65.9917 37.293 65.946 37.152C65.9003 37.011 65.8268 36.881 65.7301 36.7699C65.6334 36.6589 65.5155 36.569 65.3835 36.5059C65.2408 36.4341 65.0841 36.3955 64.9249 36.3929C64.71 36.3812 64.4964 36.4342 64.3109 36.5454C64.1254 36.6565 63.9762 36.8209 63.882 37.018L49.7835 65.7107C43.7043 65.656 37.6685 64.6606 31.8831 62.7585C36.3456 63.385 40.8761 63.3087 45.3158 62.5326C45.4872 62.5034 45.6494 62.4338 45.7894 62.3291C45.9295 62.2245 46.0434 62.0878 46.1221 61.9302L63.8746 25.782C63.9437 25.6513 63.986 25.5076 63.9987 25.3597C64.0115 25.2119 63.9945 25.0628 63.9488 24.9219C63.9031 24.7809 63.8297 24.6509 63.733 24.5398C63.6363 24.4287 63.5183 24.3389 63.3864 24.2758C63.2091 24.1894 63.013 24.1505 62.8168 24.1628C62.6199 24.173 62.4294 24.2372 62.2653 24.3485C62.1013 24.4599 61.9698 24.6143 61.8848 24.7954L44.406 60.3637C37.6002 61.5167 30.6191 60.9134 24.1016 58.609C25.8489 58.8296 27.6076 58.9428 29.3682 58.9479C33.076 59.0464 36.7606 58.3244 40.1676 56.8317C40.3892 56.7276 40.5692 56.5496 40.678 56.3271L59.2145 18.605C59.3215 18.3861 59.3527 18.1368 59.3031 17.8975C59.2534 17.6583 59.1257 17.4432 58.9409 17.2871C58.7559 17.1197 58.5219 17.0192 58.2751 17.0009V17.0009Z" fill="url(#paint1_linear_336_192)"/>
</g>
<defs>
<filter id="filter0_d_336_192" x="12" y="16" width="61" height="61" filterUnits="userSpaceOnUse" color-interpolation-filters="sRGB">
<feFlood flood-opacity="0" result="BackgroundImageFix"/>
<feColorMatrix in="SourceAlpha" type="matrix" values="0 0 0 0 0 0 0 0 0 0 0 0 0 0 0 0 0 0 127 0" result="hardAlpha"/>
<feOffset dx="2" dy="4"/>
<feGaussianBlur stdDeviation="2.5"/>
<feComposite in2="hardAlpha" operator="out"/>
<feColorMatrix type="matrix" values="0 0 0 0 0 0 0 0 0 0 0 0 0 0 0 0 0 0 0.25 0"/>
<feBlend mode="normal" in2="BackgroundImageFix" result="effect1_dropShadow_336_192"/>
<feBlend mode="normal" in="SourceGraphic" in2="effect1_dropShadow_336_192" result="shape"/>
</filter>
<linearGradient id="paint0_linear_336_192" x1="71.5" y1="3" x2="71.5" y2="24" gradientUnits="userSpaceOnUse">
<stop stop-color="white"/>
<stop offset="1" stop-color="#BFBFBF"/>
</linearGradient>
<linearGradient id="paint1_linear_336_192" x1="40.5" y1="17" x2="40.5" y2="68" gradientUnits="userSpaceOnUse">
<stop stop-color="white"/>
<stop offset="1" stop-color="#BFBFBF"/>
</linearGradient>
</defs>
</svg>
