<svg width="84" height="84" viewBox="0 0 84 84" fill="none" xmlns="http://www.w3.org/2000/svg">
<g filter="url(#filter0_d_1255_145)">
<path d="M40.3267 31.1882C40.84 30.8994 41.3278 30.8194 41.7902 30.9483C42.268 31.0814 42.6271 31.223 42.8675 31.373C43.1078 31.523 43.2822 31.6713 43.3906 31.8178C43.5034 31.9488 43.5658 32.1406 43.5779 32.3931C43.5814 32.6765 43.5051 33.0954 43.3493 33.6499L39.7316 46.5191C39.632 46.8733 39.5408 47.1386 39.458 47.3148C39.395 47.48 39.2693 47.6609 39.0811 47.8576C38.7484 48.2133 38.0888 48.2538 37.1024 47.9789C36.1468 47.7126 35.6097 47.347 35.4911 46.8821C35.4327 46.6167 35.4141 46.3873 35.4353 46.1939C35.4761 45.9894 35.5485 45.7023 35.6525 45.3326L37.9712 37.0843L37.5927 37.2778C36.8265 37.5792 36.22 37.6676 35.773 37.5431C35.326 37.4185 34.9317 37.018 34.59 36.3415C34.2638 35.6692 34.1591 35.1252 34.276 34.7093C34.3929 34.2934 34.7981 33.9163 35.4915 33.578L40.2443 31.2151L40.3267 31.1882ZM49.7414 33.8117C50.2547 33.5228 50.7426 33.4429 51.205 33.5717C51.6828 33.7048 52.0419 33.8464 52.2822 33.9965C52.5226 34.1465 52.697 34.2947 52.8054 34.4412C52.9181 34.5723 52.9806 34.7641 52.9927 35.0166C52.9961 35.2999 52.9199 35.7188 52.764 36.2733L49.1463 49.1425C49.0467 49.4968 48.9556 49.762 48.8728 49.9383C48.8097 50.1034 48.6841 50.2843 48.4958 50.481C48.1631 50.8368 47.5036 50.8772 46.5172 50.6023C45.5616 50.3361 45.0245 49.9705 44.9059 49.5056C44.8475 49.2402 44.8289 49.0108 44.85 48.8173C44.8909 48.6128 44.9633 48.3257 45.0672 47.956L47.3859 39.7077L47.0074 39.9012C46.2413 40.2027 45.6347 40.2911 45.1877 40.1665C44.7408 40.042 44.3465 39.6414 44.0048 38.9649C43.6786 38.2927 43.5739 37.7486 43.6908 37.3327C43.8077 36.9168 44.2129 36.5398 44.9063 36.2015L49.6591 33.8385L49.7414 33.8117Z" fill="url(#paint0_linear_1255_145)"/>
</g>
<g filter="url(#filter1_d_1255_145)">
<path d="M62.4249 17.9728L37.4272 11.2336C35.3136 10.6638 32.4772 11.3885 32.0105 13.1198L19.0276 61.2772C18.4668 63.357 20.4622 65.7521 22.5758 66.3219L47.5734 73.0612C49.687 73.631 52.2674 72.4694 52.8281 70.3896L65.7186 22.5751C66.2721 20.4993 64.5385 18.5426 62.4249 17.9728ZM45.9053 17.6074L51.8919 19.2214L51.5176 20.6098L45.531 18.9959L45.9053 17.6074ZM35.4582 67.5639C34.0473 67.1835 32.9224 65.7648 33.3891 64.0334C33.7634 62.645 35.193 61.547 36.9525 62.0214C38.3634 62.4018 39.4883 63.8205 39.0216 65.5519C38.5548 67.2832 37.2177 68.0383 35.4582 67.5639ZM50.5433 63.4543L24.8373 56.5242L34.6438 20.149L60.3441 27.0776L50.5376 63.4528L50.5433 63.4543Z" fill="url(#paint1_linear_1255_145)"/>
</g>
<defs>
<filter id="filter0_d_1255_145" x="27.022" y="29.2798" width="30.333" height="29.896" filterUnits="userSpaceOnUse" color-interpolation-filters="sRGB">
<feFlood flood-opacity="0" result="BackgroundImageFix"/>
<feColorMatrix in="SourceAlpha" type="matrix" values="0 0 0 0 0 0 0 0 0 0 0 0 0 0 0 0 0 0 127 0" result="hardAlpha"/>
<feOffset dy="4"/>
<feGaussianBlur stdDeviation="2"/>
<feComposite in2="hardAlpha" operator="out"/>
<feColorMatrix type="matrix" values="0 0 0 0 0 0 0 0 0 0 0 0 0 0 0 0 0 0 0.25 0"/>
<feBlend mode="normal" in2="BackgroundImageFix" result="effect1_dropShadow_1255_145"/>
<feBlend mode="normal" in="SourceGraphic" in2="effect1_dropShadow_1255_145" result="shape"/>
</filter>
<filter id="filter1_d_1255_145" x="14.9316" y="11.0422" width="54.8911" height="70.1633" filterUnits="userSpaceOnUse" color-interpolation-filters="sRGB">
<feFlood flood-opacity="0" result="BackgroundImageFix"/>
<feColorMatrix in="SourceAlpha" type="matrix" values="0 0 0 0 0 0 0 0 0 0 0 0 0 0 0 0 0 0 127 0" result="hardAlpha"/>
<feOffset dy="4"/>
<feGaussianBlur stdDeviation="2"/>
<feComposite in2="hardAlpha" operator="out"/>
<feColorMatrix type="matrix" values="0 0 0 0 0 0 0 0 0 0 0 0 0 0 0 0 0 0 0.25 0"/>
<feBlend mode="normal" in2="BackgroundImageFix" result="effect1_dropShadow_1255_145"/>
<feBlend mode="normal" in="SourceGraphic" in2="effect1_dropShadow_1255_145" result="shape"/>
</filter>
<linearGradient id="paint0_linear_1255_145" x1="50.0223" y1="27.6531" x2="42.1741" y2="55.8179" gradientUnits="userSpaceOnUse">
<stop stop-color="white"/>
<stop offset="1" stop-color="#BFBFBF"/>
</linearGradient>
<linearGradient id="paint1_linear_1255_145" x1="49.7518" y1="14.5562" x2="34.9004" y2="69.6446" gradientUnits="userSpaceOnUse">
<stop stop-color="white"/>
<stop offset="1" stop-color="#BFBFBF"/>
</linearGradient>
</defs>
</svg>
