<svg width="84" height="84" viewBox="0 0 84 84" fill="none" xmlns="http://www.w3.org/2000/svg">
<g clip-path="url(#clip0_2147_76)">
<g filter="url(#filter0_d_2147_76)">
<path d="M70.9994 17.8605C73.6837 17.8605 75.8597 15.6845 75.8597 13.0003C75.8597 10.3161 73.6837 8.14014 70.9994 8.14014C68.3152 8.14014 66.1392 10.3161 66.1392 13.0003C66.1392 15.6845 68.3152 17.8605 70.9994 17.8605Z" fill="url(#paint0_linear_2147_76)"/>
<path d="M71.0002 18.655C67.882 18.655 65.3452 16.1182 65.3452 13.0001C65.3452 9.88194 67.882 7.34521 71.0002 7.34521C74.1184 7.34521 76.6551 9.88194 76.6551 13.0001C76.6551 16.1182 74.1184 18.655 71.0002 18.655ZM71.0002 8.9346C68.7575 8.9346 66.9346 10.7574 66.9346 13.0001C66.9346 15.2427 68.7575 17.0656 71.0002 17.0656C73.2428 17.0656 75.0657 15.2427 75.0657 13.0001C75.0657 10.7574 73.2428 8.9346 71.0002 8.9346Z" fill="url(#paint1_linear_2147_76)"/>
<path d="M71 6.17325C70.56 6.17325 70.2053 5.81856 70.2053 5.37856V2.79469C70.2053 2.35694 70.56 2 71 2C71.4378 2 71.7947 2.35469 71.7947 2.79469V5.37856C71.7947 5.81631 71.4378 6.17325 71 6.17325Z" fill="url(#paint2_linear_2147_76)"/>
<path d="M71 23.9999C70.56 23.9999 70.2053 23.6452 70.2053 23.2052V20.6214C70.2053 20.1836 70.56 19.8267 71 19.8267C71.4378 19.8267 71.7947 20.1836 71.7947 20.6214V23.2052C71.7947 23.6452 71.4378 23.9999 71 23.9999Z" fill="url(#paint3_linear_2147_76)"/>
<path d="M81.2053 13.7945H78.6214C78.1836 13.7945 77.8267 13.4398 77.8267 12.9998C77.8267 12.5598 78.1836 12.2051 78.6214 12.2051H81.2053C81.643 12.2051 82 12.5598 82 12.9998C82 13.4375 81.6453 13.7945 81.2053 13.7945Z" fill="url(#paint4_linear_2147_76)"/>
<path d="M63.3786 13.7945H60.7947C60.3569 13.7945 60 13.4375 60 12.9998C60 12.5598 60.3569 12.2051 60.7947 12.2051H63.3786C63.8186 12.2051 64.1733 12.5598 64.1733 12.9998C64.1733 13.4375 63.8164 13.7945 63.3786 13.7945Z" fill="url(#paint5_linear_2147_76)"/>
<path d="M76.3907 8.40466C76.1865 8.40466 75.9844 8.32609 75.8295 8.17119C75.5197 7.8614 75.5197 7.35854 75.8295 7.0465L77.6569 5.21916C77.9667 4.90937 78.4695 4.90937 78.7816 5.21916C79.0914 5.52896 79.0914 6.03181 78.7816 6.34385L76.952 8.17344C76.7971 8.32834 76.5928 8.40466 76.3907 8.40466Z" fill="url(#paint6_linear_2147_76)"/>
<path d="M63.7831 21.0121C63.5788 21.0121 63.3768 20.9335 63.2219 20.7786C62.9121 20.4688 62.9121 19.966 63.2219 19.6539L65.0492 17.8266C65.359 17.5168 65.8619 17.5168 66.1739 17.8266C66.4837 18.1364 66.4837 18.6392 66.1739 18.9513L64.3466 20.7786C64.1917 20.9335 63.9874 21.0121 63.7831 21.0121Z" fill="url(#paint7_linear_2147_76)"/>
<path d="M78.2154 21.0121C78.0111 21.0121 77.8091 20.9335 77.6542 20.7786L75.8268 18.9513C75.517 18.6415 75.517 18.1386 75.8268 17.8266C76.1366 17.5168 76.6395 17.5168 76.9515 17.8266L78.7789 19.6539C79.0887 19.9637 79.0887 20.4666 78.7789 20.7786C78.624 20.9335 78.4197 21.0121 78.2154 21.0121Z" fill="url(#paint8_linear_2147_76)"/>
<path d="M65.6104 8.40466C65.4062 8.40466 65.2041 8.32609 65.0492 8.17119L63.2219 6.34385C62.9121 6.03406 62.9121 5.5312 63.2219 5.21916C63.5316 4.90937 64.0345 4.90937 64.3466 5.21916L66.1739 7.0465C66.4837 7.3563 66.4837 7.85915 66.1739 8.17119C66.019 8.32834 65.8147 8.40466 65.6104 8.40466Z" fill="url(#paint9_linear_2147_76)"/>
</g>
<g filter="url(#filter1_d_2147_76)">
<path d="M54.2049 19.5667C54.2049 22.6411 51.7453 25.1334 48.711 25.1334C45.6767 25.1334 43.217 22.6411 43.217 19.5667C43.217 16.4923 45.6767 14 48.711 14C51.7453 14 54.2049 16.4923 54.2049 19.5667Z" fill="url(#paint10_linear_2147_76)"/>
<path fill-rule="evenodd" clip-rule="evenodd" d="M24.5643 25.2638C28.3931 22.8392 33.1511 22.4679 37.3012 24.2701C40.547 25.6796 41.3615 29.965 38.8645 32.4952L34.3211 37.0986C33.3611 38.0714 33.4326 39.6693 34.4755 40.55L37.2127 42.861C38.8411 44.236 39.7825 46.2728 39.7825 48.4205V52.9671C39.7825 54.1199 38.8601 55.0546 37.7223 55.0546C36.5845 55.0546 35.662 54.1199 35.662 52.9671V48.4205C35.662 47.5117 35.2637 46.65 34.5749 46.0685L31.8377 43.7572C28.9334 41.3051 28.7342 36.8551 31.4075 34.1465L35.9508 29.543C36.3867 29.1014 36.2444 28.3535 35.678 28.1075C32.7684 26.844 29.4326 27.1043 26.7482 28.8043L20.9589 32.4705C19.994 33.0815 18.7229 32.7843 18.1199 31.8067C17.5168 30.829 17.8102 29.5411 18.775 28.9301L24.5643 25.2638ZM39.7825 36.267C39.7825 35.1141 40.7049 34.1795 41.8427 34.1795H50.0836C51.2214 34.1795 52.1439 35.1141 52.1439 36.267C52.1439 37.4198 51.2214 38.3545 50.0836 38.3545H41.8427C40.7049 38.3545 39.7825 37.4198 39.7825 36.267ZM28.1912 45.9244C28.9958 46.7396 28.9958 48.0611 28.1912 48.8764L27.289 49.7907C27.2098 49.8709 27.1317 49.9502 27.0544 50.0287C25.6988 51.4048 24.6258 52.4942 23.2291 53.0804C21.8324 53.6665 20.3136 53.6648 18.3946 53.6632C18.2853 53.6629 18.1746 53.6629 18.0626 53.6629H15.7465C14.6087 53.6629 13.6863 52.7283 13.6863 51.5754C13.6863 50.4225 14.6087 49.4879 15.7465 49.4879H18.0626C20.4764 49.4879 21.1093 49.4509 21.6523 49.2232C22.1953 48.9952 22.6686 48.5677 24.3754 46.8384L25.2776 45.9244C26.0821 45.1091 27.3866 45.1091 28.1912 45.9244Z" fill="url(#paint11_linear_2147_76)"/>
<path d="M15.9855 69.667H61.0412C64.851 69.667 67.9394 66.5377 67.9394 62.6775C67.9394 58.3354 64.0733 55.0441 59.8521 55.7926L59.4049 55.8719L62.537 33.4843L62.5383 33.4763C62.6828 32.5002 62.7693 31.9372 62.8762 31.5309C62.9245 31.3473 62.9633 31.2535 62.9853 31.2091C62.9954 31.1886 63.0028 31.1773 63.0028 31.1773L63.005 31.1744L63.0078 31.172C63.0078 31.172 63.0185 31.1638 63.0385 31.1526C63.0811 31.1283 63.1718 31.0846 63.3503 31.0267C63.7467 30.8984 64.2994 30.7833 65.2595 30.5887L68.3435 29.9638C69.4593 29.7376 70.1829 28.6379 69.9595 27.5074C69.7365 26.3769 68.6512 25.6437 67.5353 25.8698L64.3582 26.5137C63.5242 26.6826 62.74 26.8414 62.0961 27.0498C61.3788 27.2821 60.6454 27.6314 60.0218 28.2947C59.398 28.9581 59.0892 29.7172 58.8953 30.4544C58.7209 31.116 58.6025 31.9175 58.4764 32.7697L58.4621 32.8649L55.1372 56.6287L15.4709 63.6622C14.0423 63.9155 13 65.1725 13 66.6421C13 68.3126 14.3366 69.667 15.9855 69.667Z" fill="url(#paint12_linear_2147_76)"/>
</g>
</g>
<defs>
<filter id="filter0_d_2147_76" x="56" y="2" width="30" height="30" filterUnits="userSpaceOnUse" color-interpolation-filters="sRGB">
<feFlood flood-opacity="0" result="BackgroundImageFix"/>
<feColorMatrix in="SourceAlpha" type="matrix" values="0 0 0 0 0 0 0 0 0 0 0 0 0 0 0 0 0 0 127 0" result="hardAlpha"/>
<feOffset dy="4"/>
<feGaussianBlur stdDeviation="2"/>
<feComposite in2="hardAlpha" operator="out"/>
<feColorMatrix type="matrix" values="0 0 0 0 0 0 0 0 0 0 0 0 0 0 0 0 0 0 0.25 0"/>
<feBlend mode="normal" in2="BackgroundImageFix" result="effect1_dropShadow_2147_76"/>
<feBlend mode="normal" in="SourceGraphic" in2="effect1_dropShadow_2147_76" result="shape"/>
</filter>
<filter id="filter1_d_2147_76" x="9" y="14" width="65" height="63.667" filterUnits="userSpaceOnUse" color-interpolation-filters="sRGB">
<feFlood flood-opacity="0" result="BackgroundImageFix"/>
<feColorMatrix in="SourceAlpha" type="matrix" values="0 0 0 0 0 0 0 0 0 0 0 0 0 0 0 0 0 0 127 0" result="hardAlpha"/>
<feOffset dy="4"/>
<feGaussianBlur stdDeviation="2"/>
<feComposite in2="hardAlpha" operator="out"/>
<feColorMatrix type="matrix" values="0 0 0 0 0 0 0 0 0 0 0 0 0 0 0 0 0 0 0.25 0"/>
<feBlend mode="normal" in2="BackgroundImageFix" result="effect1_dropShadow_2147_76"/>
<feBlend mode="normal" in="SourceGraphic" in2="effect1_dropShadow_2147_76" result="shape"/>
</filter>
<linearGradient id="paint0_linear_2147_76" x1="70.9994" y1="8.14014" x2="70.9994" y2="17.8605" gradientUnits="userSpaceOnUse">
<stop stop-color="white"/>
<stop offset="1" stop-color="#BFBFBF"/>
</linearGradient>
<linearGradient id="paint1_linear_2147_76" x1="71.0002" y1="7.34521" x2="71.0002" y2="18.655" gradientUnits="userSpaceOnUse">
<stop stop-color="white"/>
<stop offset="1" stop-color="#BFBFBF"/>
</linearGradient>
<linearGradient id="paint2_linear_2147_76" x1="71" y1="2" x2="71" y2="6.17325" gradientUnits="userSpaceOnUse">
<stop stop-color="white"/>
<stop offset="1" stop-color="#BFBFBF"/>
</linearGradient>
<linearGradient id="paint3_linear_2147_76" x1="71" y1="19.8267" x2="71" y2="23.9999" gradientUnits="userSpaceOnUse">
<stop stop-color="white"/>
<stop offset="1" stop-color="#BFBFBF"/>
</linearGradient>
<linearGradient id="paint4_linear_2147_76" x1="79.9133" y1="12.2051" x2="79.9133" y2="13.7945" gradientUnits="userSpaceOnUse">
<stop stop-color="white"/>
<stop offset="1" stop-color="#BFBFBF"/>
</linearGradient>
<linearGradient id="paint5_linear_2147_76" x1="62.0867" y1="12.2051" x2="62.0867" y2="13.7945" gradientUnits="userSpaceOnUse">
<stop stop-color="white"/>
<stop offset="1" stop-color="#BFBFBF"/>
</linearGradient>
<linearGradient id="paint6_linear_2147_76" x1="77.3056" y1="4.98682" x2="77.3056" y2="8.40466" gradientUnits="userSpaceOnUse">
<stop stop-color="white"/>
<stop offset="1" stop-color="#BFBFBF"/>
</linearGradient>
<linearGradient id="paint7_linear_2147_76" x1="64.6979" y1="17.5942" x2="64.6979" y2="21.0121" gradientUnits="userSpaceOnUse">
<stop stop-color="white"/>
<stop offset="1" stop-color="#BFBFBF"/>
</linearGradient>
<linearGradient id="paint8_linear_2147_76" x1="77.3029" y1="17.5942" x2="77.3029" y2="21.0121" gradientUnits="userSpaceOnUse">
<stop stop-color="white"/>
<stop offset="1" stop-color="#BFBFBF"/>
</linearGradient>
<linearGradient id="paint9_linear_2147_76" x1="64.6979" y1="4.98682" x2="64.6979" y2="8.40466" gradientUnits="userSpaceOnUse">
<stop stop-color="white"/>
<stop offset="1" stop-color="#BFBFBF"/>
</linearGradient>
<linearGradient id="paint10_linear_2147_76" x1="48.711" y1="14" x2="48.711" y2="25.1334" gradientUnits="userSpaceOnUse">
<stop stop-color="white"/>
<stop offset="1" stop-color="#BFBFBF"/>
</linearGradient>
<linearGradient id="paint11_linear_2147_76" x1="32.9151" y1="23.1406" x2="32.9151" y2="55.0546" gradientUnits="userSpaceOnUse">
<stop stop-color="white"/>
<stop offset="1" stop-color="#BFBFBF"/>
</linearGradient>
<linearGradient id="paint12_linear_2147_76" x1="41.5" y1="25.8289" x2="41.5" y2="69.667" gradientUnits="userSpaceOnUse">
<stop stop-color="white"/>
<stop offset="1" stop-color="#BFBFBF"/>
</linearGradient>
<clipPath id="clip0_2147_76">
<rect width="83.75" height="83.75" fill="white"/>
</clipPath>
</defs>
</svg>
