<svg width="84" height="84" viewBox="0 0 84 84" fill="none" xmlns="http://www.w3.org/2000/svg">
<g filter="url(#filter0_d_931_210)">
<path d="M46.486 33.6244C46.6775 33.4356 46.9371 33.3436 47.2647 33.3484C47.6129 33.3416 48.0358 33.4075 48.5335 33.5462C49.0473 33.6894 49.4409 33.8596 49.7144 34.0569C49.9924 34.2382 50.1618 34.467 50.2225 34.7435C50.2878 35.0039 50.3014 35.2326 50.2634 35.4296C50.2414 35.6311 50.1785 35.9164 50.0747 36.2854L46.3131 49.6667C46.1372 50.2925 45.9261 50.7354 45.6798 50.9955C45.4542 51.2441 45.1672 51.3717 44.8191 51.3785C44.487 51.3898 44.0881 51.3306 43.6225 51.2008C43.1569 51.0711 42.7989 50.9281 42.5486 50.7718C42.2982 50.6155 42.1165 50.4611 42.0036 50.3085C41.8907 50.1559 41.8314 49.9664 41.8258 49.7399C41.8062 49.4403 41.8753 49.0097 42.0332 48.4482L42.8586 45.512L36.3322 43.6934C35.2083 43.3802 34.6278 42.8897 34.5904 42.2219C34.5823 41.9428 34.6392 41.5866 34.7609 41.1534C34.8827 40.7202 34.997 40.406 35.1038 40.2109L39.3691 32.7054C39.5692 32.3632 39.7284 32.1048 39.8468 31.9301C39.9812 31.76 40.1775 31.6157 40.4359 31.4974C40.7102 31.3835 41.016 31.3736 41.3532 31.4675C41.6903 31.5615 42.0438 31.7205 42.4136 31.9447C43.4517 32.5627 43.8693 33.2327 43.6664 33.9547C43.5942 34.2114 43.4433 34.5327 43.2136 34.9186C43.1886 34.9462 43.1738 34.968 43.1693 34.984L40.0494 40.4471L43.9749 41.5409L45.8219 34.9706C45.9256 34.6016 46.0103 34.331 46.076 34.159C46.1577 33.9915 46.2944 33.8133 46.486 33.6244Z" fill="url(#paint0_linear_931_210)"/>
</g>
<g filter="url(#filter1_d_931_210)">
<path d="M62.4249 17.9728L37.4272 11.2336C35.3136 10.6638 32.4772 11.3885 32.0105 13.1198L19.0276 61.2772C18.4668 63.357 20.4622 65.7521 22.5758 66.3219L47.5734 73.0612C49.687 73.631 52.2674 72.4694 52.8281 70.3896L65.7186 22.5751C66.2721 20.4993 64.5385 18.5426 62.4249 17.9728ZM45.9053 17.6074L51.8919 19.2214L51.5176 20.6098L45.531 18.9959L45.9053 17.6074ZM35.4582 67.5639C34.0473 67.1835 32.9224 65.7648 33.3891 64.0334C33.7634 62.645 35.193 61.547 36.9525 62.0214C38.3634 62.4018 39.4883 63.8205 39.0216 65.5519C38.5548 67.2832 37.2177 68.0383 35.4582 67.5639ZM50.5433 63.4543L24.8373 56.5242L34.6438 20.149L60.3441 27.0776L50.5376 63.4528L50.5433 63.4543Z" fill="url(#paint1_linear_931_210)"/>
</g>
<defs>
<filter id="filter0_d_931_210" x="28.7854" y="30.4675" width="25.9119" height="29.3171" filterUnits="userSpaceOnUse" color-interpolation-filters="sRGB">
<feFlood flood-opacity="0" result="BackgroundImageFix"/>
<feColorMatrix in="SourceAlpha" type="matrix" values="0 0 0 0 0 0 0 0 0 0 0 0 0 0 0 0 0 0 127 0" result="hardAlpha"/>
<feOffset dy="4"/>
<feGaussianBlur stdDeviation="2"/>
<feComposite in2="hardAlpha" operator="out"/>
<feColorMatrix type="matrix" values="0 0 0 0 0 0 0 0 0 0 0 0 0 0 0 0 0 0 0.25 0"/>
<feBlend mode="normal" in2="BackgroundImageFix" result="effect1_dropShadow_931_210"/>
<feBlend mode="normal" in="SourceGraphic" in2="effect1_dropShadow_931_210" result="shape"/>
</filter>
<filter id="filter1_d_931_210" x="14.9319" y="11.0422" width="54.8909" height="70.1633" filterUnits="userSpaceOnUse" color-interpolation-filters="sRGB">
<feFlood flood-opacity="0" result="BackgroundImageFix"/>
<feColorMatrix in="SourceAlpha" type="matrix" values="0 0 0 0 0 0 0 0 0 0 0 0 0 0 0 0 0 0 127 0" result="hardAlpha"/>
<feOffset dy="4"/>
<feGaussianBlur stdDeviation="2"/>
<feComposite in2="hardAlpha" operator="out"/>
<feColorMatrix type="matrix" values="0 0 0 0 0 0 0 0 0 0 0 0 0 0 0 0 0 0 0.25 0"/>
<feBlend mode="normal" in2="BackgroundImageFix" result="effect1_dropShadow_931_210"/>
<feBlend mode="normal" in="SourceGraphic" in2="effect1_dropShadow_931_210" result="shape"/>
</filter>
<linearGradient id="paint0_linear_931_210" x1="45.8146" y1="26.9233" x2="37.9664" y2="55.0881" gradientUnits="userSpaceOnUse">
<stop stop-color="white"/>
<stop offset="1" stop-color="#BFBFBF"/>
</linearGradient>
<linearGradient id="paint1_linear_931_210" x1="49.7518" y1="14.5562" x2="34.9004" y2="69.6446" gradientUnits="userSpaceOnUse">
<stop stop-color="white"/>
<stop offset="1" stop-color="#BFBFBF"/>
</linearGradient>
</defs>
</svg>
