<svg width="84" height="84" viewBox="0 0 84 84" fill="none" xmlns="http://www.w3.org/2000/svg">
<g clip-path="url(#clip0_981_69)">
<g filter="url(#filter0_d_981_69)">
<path d="M70.9994 17.8605C73.6837 17.8605 75.8597 15.6845 75.8597 13.0003C75.8597 10.3161 73.6837 8.14014 70.9994 8.14014C68.3152 8.14014 66.1392 10.3161 66.1392 13.0003C66.1392 15.6845 68.3152 17.8605 70.9994 17.8605Z" fill="url(#paint0_linear_981_69)"/>
<path d="M71.0002 18.655C67.882 18.655 65.3452 16.1182 65.3452 13.0001C65.3452 9.88194 67.882 7.34521 71.0002 7.34521C74.1184 7.34521 76.6551 9.88194 76.6551 13.0001C76.6551 16.1182 74.1184 18.655 71.0002 18.655ZM71.0002 8.9346C68.7575 8.9346 66.9346 10.7574 66.9346 13.0001C66.9346 15.2427 68.7575 17.0656 71.0002 17.0656C73.2428 17.0656 75.0657 15.2427 75.0657 13.0001C75.0657 10.7574 73.2428 8.9346 71.0002 8.9346Z" fill="url(#paint1_linear_981_69)"/>
<path d="M71 6.17325C70.56 6.17325 70.2053 5.81856 70.2053 5.37856V2.79469C70.2053 2.35694 70.56 2 71 2C71.4378 2 71.7947 2.35469 71.7947 2.79469V5.37856C71.7947 5.81631 71.4378 6.17325 71 6.17325Z" fill="url(#paint2_linear_981_69)"/>
<path d="M71 23.9999C70.56 23.9999 70.2053 23.6452 70.2053 23.2052V20.6214C70.2053 20.1836 70.56 19.8267 71 19.8267C71.4378 19.8267 71.7947 20.1836 71.7947 20.6214V23.2052C71.7947 23.6452 71.4378 23.9999 71 23.9999Z" fill="url(#paint3_linear_981_69)"/>
<path d="M81.2053 13.7945H78.6214C78.1836 13.7945 77.8267 13.4398 77.8267 12.9998C77.8267 12.5598 78.1836 12.2051 78.6214 12.2051H81.2053C81.643 12.2051 82 12.5598 82 12.9998C82 13.4375 81.6453 13.7945 81.2053 13.7945Z" fill="url(#paint4_linear_981_69)"/>
<path d="M63.3786 13.7945H60.7947C60.3569 13.7945 60 13.4375 60 12.9998C60 12.5598 60.3569 12.2051 60.7947 12.2051H63.3786C63.8186 12.2051 64.1733 12.5598 64.1733 12.9998C64.1733 13.4375 63.8164 13.7945 63.3786 13.7945Z" fill="url(#paint5_linear_981_69)"/>
<path d="M76.3907 8.40466C76.1865 8.40466 75.9844 8.32609 75.8295 8.17119C75.5197 7.8614 75.5197 7.35854 75.8295 7.0465L77.6569 5.21916C77.9667 4.90937 78.4695 4.90937 78.7816 5.21916C79.0914 5.52896 79.0914 6.03181 78.7816 6.34385L76.952 8.17344C76.7971 8.32834 76.5928 8.40466 76.3907 8.40466Z" fill="url(#paint6_linear_981_69)"/>
<path d="M63.7831 21.0121C63.5788 21.0121 63.3768 20.9335 63.2219 20.7786C62.9121 20.4688 62.9121 19.966 63.2219 19.6539L65.0492 17.8266C65.359 17.5168 65.8619 17.5168 66.1739 17.8266C66.4837 18.1364 66.4837 18.6392 66.1739 18.9513L64.3466 20.7786C64.1917 20.9335 63.9874 21.0121 63.7831 21.0121Z" fill="url(#paint7_linear_981_69)"/>
<path d="M78.2154 21.0121C78.0111 21.0121 77.8091 20.9335 77.6542 20.7786L75.8268 18.9513C75.517 18.6415 75.517 18.1386 75.8268 17.8266C76.1366 17.5168 76.6395 17.5168 76.9515 17.8266L78.7789 19.6539C79.0887 19.9637 79.0887 20.4666 78.7789 20.7786C78.624 20.9335 78.4197 21.0121 78.2154 21.0121Z" fill="url(#paint8_linear_981_69)"/>
<path d="M65.6104 8.40466C65.4062 8.40466 65.2041 8.32609 65.0492 8.17119L63.2219 6.34385C62.9121 6.03406 62.9121 5.5312 63.2219 5.21916C63.5316 4.90937 64.0345 4.90937 64.3466 5.21916L66.1739 7.0465C66.4837 7.3563 66.4837 7.85915 66.1739 8.17119C66.019 8.32834 65.8147 8.40466 65.6104 8.40466Z" fill="url(#paint9_linear_981_69)"/>
</g>
<g filter="url(#filter1_d_981_69)">
<path fill-rule="evenodd" clip-rule="evenodd" d="M58.2825 58.016C58.2737 58.3137 58.2601 58.6153 58.237 58.9251L60.3693 62.3412C60.5215 62.5854 60.4986 62.8736 60.3086 63.1011C60.2282 63.1976 59.1234 64.4593 55.7928 65.6055L54.1847 70.7763C55.7124 71.1512 57.613 72.3168 58.2093 75.0957C58.2575 75.3206 58.1761 75.5503 57.9866 75.7241C57.797 75.8982 57.5186 75.9984 57.2253 75.9984H44.8696C44.3184 75.9984 43.8718 75.6514 43.8718 75.2233V71.3136C43.8439 71.0039 43.5999 69.6061 41.4999 69.6061C39.4085 69.6061 39.1575 70.9923 39.1278 71.315V75.2231C39.1278 75.6513 38.681 75.9982 38.1301 75.9982H25.7743C25.481 75.9982 25.2026 75.8979 25.013 75.724C24.8235 75.5502 24.7419 75.3203 24.7902 75.0955C25.3864 72.3168 27.287 71.151 28.8147 70.7762L27.2066 65.6053C23.8763 64.4593 22.7716 63.1974 22.6912 63.101C22.5012 62.8736 22.4781 62.5852 22.6305 62.3411L24.7628 58.9247C24.7397 58.615 24.7265 58.3138 24.7179 58.0162C22.1704 56.2325 20.9189 54.225 21.0041 52.0442C21.1515 48.2618 25.3018 45.163 26.8712 44.1231C25.8172 41.8189 25.9367 39.404 27.2467 37.0664C28.1624 35.4327 29.3966 34.2989 29.903 33.873C30.4082 31.7965 34.1117 17.2313 40.6341 8.37423C40.6341 8.37423 40.7947 8.16914 41.0046 8.08636C41.4518 7.90995 42.0927 8.0028 42.3661 8.37423C48.8887 17.2315 52.5922 31.7976 53.097 33.8733C53.6039 34.2995 54.8378 35.4331 55.7531 37.0666C57.0633 39.4043 57.183 41.819 56.1288 44.1233C57.6986 45.1635 61.8487 48.2626 61.9959 52.0443C62.0809 54.2252 60.8298 56.2324 58.2825 58.016ZM58.2192 55.8336C59.4512 54.6583 60.051 53.4065 60.0015 52.0963C59.8946 49.2599 56.8588 46.7378 55.2772 45.6124C54.9753 46.0533 54.6471 46.48 54.2993 46.8929C55.3772 47.965 57.7749 50.8725 58.2192 55.8336ZM27.0286 54.2297C28.1514 55.0209 32.4404 57.5415 41.4999 57.5415C50.6337 57.5415 54.8664 55.0261 55.9722 54.234C55.3401 51.1761 53.9277 49.1927 53.0679 48.22C48.6203 52.6019 42.2602 55.0703 41.9405 55.1943C41.7148 55.2819 41.2784 55.2843 41.0591 55.1943L41.0093 55.1743C40.331 54.9025 34.2346 52.4595 29.9319 48.2203C29.0725 49.193 27.6612 51.1747 27.0286 54.2297ZM41.5008 32.0323L41.4987 32.0323L41.4968 32.0323C41.377 32.0313 35.6597 31.9823 32.1782 34.3127L33.013 35.1253C33.2198 35.3263 33.2844 35.5942 33.1856 35.8399C32.8079 36.786 32.5202 38.3875 33.0645 38.9834C33.1481 39.0752 33.2724 39.1694 33.5536 39.204C34.1458 39.0383 35.7793 38.6374 38.1746 38.4833C37.9764 38.1685 37.8641 37.8208 37.8641 37.4549C37.8641 36.0469 39.4951 34.9013 41.4999 34.9013C43.5047 34.9013 45.1357 36.0469 45.1357 37.4549C45.1357 37.8208 45.0236 38.1682 44.8255 38.483C47.2209 38.6371 48.854 39.0383 49.446 39.204C49.7274 39.1694 49.8517 39.0752 49.9351 38.9834C50.4796 38.3875 50.1921 36.786 49.814 35.8391C49.7158 35.5939 49.7805 35.326 49.9866 35.1253L50.8215 34.3127C47.3282 31.9744 41.6254 32.0311 41.5008 32.0323ZM41.2004 38.4405C41.4698 38.4787 41.5638 38.4748 41.8004 38.4404C42.5619 38.3539 43.1403 37.9454 43.1403 37.4551C43.1403 36.9017 42.4046 36.4516 41.4999 36.4516C40.5954 36.4516 39.8595 36.9018 39.8595 37.4551C39.8595 37.9456 40.4386 38.354 41.2004 38.4405ZM41.4999 41.4603C42.2065 41.4603 42.8289 41.1415 42.8664 40.7697C42.7385 40.5935 42.1301 40.2862 41.5009 40.0693C40.8708 40.2874 40.261 40.5949 40.1337 40.7697C40.1712 41.1415 40.7935 41.4603 41.4999 41.4603ZM27.7226 45.6127C26.1421 46.7375 23.1056 49.2591 22.9985 52.0963C22.949 53.4065 23.5488 54.6583 24.7806 55.8336C25.2248 50.8705 27.6238 47.9634 28.7006 46.893C28.3528 46.4802 28.0247 46.0536 27.7226 45.6127ZM24.7133 62.5576C25.8651 63.4358 30.1464 65.9408 41.4999 65.9408C52.8382 65.9408 57.1319 63.4351 58.2865 62.5573L56.9011 60.3378C54.9456 61.5162 50.1819 63.6732 41.5001 63.6732C32.8183 63.6732 28.0545 61.5162 26.0988 60.3378L24.7133 62.5576ZM49.2401 34.0221C49.1331 33.9648 46.5904 32.6226 43.9367 33.0469C43.3969 33.1334 43.0497 33.5433 43.1607 33.9624C43.272 34.3816 43.7994 34.6504 44.3392 34.5653C44.8378 34.4855 45.3449 34.5062 45.8202 34.5758C45.6671 34.6134 45.5248 34.6757 45.4107 34.7642C45.2251 34.9084 45.1194 35.1083 45.1194 35.3114C45.1194 35.5159 45.2251 35.7159 45.4107 35.8602C45.5965 36.0044 45.8537 36.0865 46.1171 36.0865C46.3787 36.0865 46.6361 36.0044 46.8215 35.8602C47.007 35.7159 47.1148 35.5159 47.1148 35.3114C47.1148 35.1279 47.0246 34.9518 46.8729 34.8129C47.5933 35.0311 48.0913 35.29 48.1079 35.2987C48.2803 35.3909 48.4772 35.435 48.6718 35.435C48.9887 35.435 49.3 35.3181 49.4937 35.1004C49.8072 34.7482 49.6936 34.2655 49.2401 34.0221ZM39.0635 33.047C36.4094 32.6228 33.867 33.965 33.7601 34.0222C33.3067 34.2656 33.1932 34.7485 33.5063 35.1005C33.6998 35.3183 34.0113 35.435 34.328 35.435C34.5235 35.435 34.7211 35.3905 34.8941 35.2975C34.9036 35.2924 35.4025 35.0337 36.1248 34.8148C35.9746 34.9534 35.885 35.1287 35.885 35.3115C35.885 35.516 35.9927 35.7159 36.1783 35.8603C36.3639 36.0044 36.6213 36.0866 36.8827 36.0866C37.1461 36.0866 37.4035 36.0044 37.5891 35.8603C37.7746 35.7159 37.8804 35.516 37.8804 35.3115C37.8804 35.1069 37.7746 34.9083 37.5891 34.7643C37.4755 34.6762 37.3339 34.6141 37.1818 34.5764C37.6573 34.5066 38.1639 34.4855 38.6606 34.5654C39.2002 34.6503 39.7279 34.382 39.8391 33.9625C39.9504 33.5433 39.603 33.1335 39.0635 33.047Z" fill="url(#paint10_linear_981_69)"/>
</g>
</g>
<defs>
<filter id="filter0_d_981_69" x="56" y="2" width="30" height="30" filterUnits="userSpaceOnUse" color-interpolation-filters="sRGB">
<feFlood flood-opacity="0" result="BackgroundImageFix"/>
<feColorMatrix in="SourceAlpha" type="matrix" values="0 0 0 0 0 0 0 0 0 0 0 0 0 0 0 0 0 0 127 0" result="hardAlpha"/>
<feOffset dy="4"/>
<feGaussianBlur stdDeviation="2"/>
<feComposite in2="hardAlpha" operator="out"/>
<feColorMatrix type="matrix" values="0 0 0 0 0 0 0 0 0 0 0 0 0 0 0 0 0 0 0.25 0"/>
<feBlend mode="normal" in2="BackgroundImageFix" result="effect1_dropShadow_981_69"/>
<feBlend mode="normal" in="SourceGraphic" in2="effect1_dropShadow_981_69" result="shape"/>
</filter>
<filter id="filter1_d_981_69" x="17" y="8" width="49" height="75.9983" filterUnits="userSpaceOnUse" color-interpolation-filters="sRGB">
<feFlood flood-opacity="0" result="BackgroundImageFix"/>
<feColorMatrix in="SourceAlpha" type="matrix" values="0 0 0 0 0 0 0 0 0 0 0 0 0 0 0 0 0 0 127 0" result="hardAlpha"/>
<feOffset dy="4"/>
<feGaussianBlur stdDeviation="2"/>
<feComposite in2="hardAlpha" operator="out"/>
<feColorMatrix type="matrix" values="0 0 0 0 0 0 0 0 0 0 0 0 0 0 0 0 0 0 0.25 0"/>
<feBlend mode="normal" in2="BackgroundImageFix" result="effect1_dropShadow_981_69"/>
<feBlend mode="normal" in="SourceGraphic" in2="effect1_dropShadow_981_69" result="shape"/>
</filter>
<linearGradient id="paint0_linear_981_69" x1="70.9994" y1="8.14014" x2="70.9994" y2="17.8605" gradientUnits="userSpaceOnUse">
<stop stop-color="white"/>
<stop offset="1" stop-color="#BFBFBF"/>
</linearGradient>
<linearGradient id="paint1_linear_981_69" x1="71.0002" y1="7.34521" x2="71.0002" y2="18.655" gradientUnits="userSpaceOnUse">
<stop stop-color="white"/>
<stop offset="1" stop-color="#BFBFBF"/>
</linearGradient>
<linearGradient id="paint2_linear_981_69" x1="71" y1="2" x2="71" y2="6.17325" gradientUnits="userSpaceOnUse">
<stop stop-color="white"/>
<stop offset="1" stop-color="#BFBFBF"/>
</linearGradient>
<linearGradient id="paint3_linear_981_69" x1="71" y1="19.8267" x2="71" y2="23.9999" gradientUnits="userSpaceOnUse">
<stop stop-color="white"/>
<stop offset="1" stop-color="#BFBFBF"/>
</linearGradient>
<linearGradient id="paint4_linear_981_69" x1="79.9133" y1="12.2051" x2="79.9133" y2="13.7945" gradientUnits="userSpaceOnUse">
<stop stop-color="white"/>
<stop offset="1" stop-color="#BFBFBF"/>
</linearGradient>
<linearGradient id="paint5_linear_981_69" x1="62.0867" y1="12.2051" x2="62.0867" y2="13.7945" gradientUnits="userSpaceOnUse">
<stop stop-color="white"/>
<stop offset="1" stop-color="#BFBFBF"/>
</linearGradient>
<linearGradient id="paint6_linear_981_69" x1="77.3056" y1="4.98682" x2="77.3056" y2="8.40466" gradientUnits="userSpaceOnUse">
<stop stop-color="white"/>
<stop offset="1" stop-color="#BFBFBF"/>
</linearGradient>
<linearGradient id="paint7_linear_981_69" x1="64.6979" y1="17.5942" x2="64.6979" y2="21.0121" gradientUnits="userSpaceOnUse">
<stop stop-color="white"/>
<stop offset="1" stop-color="#BFBFBF"/>
</linearGradient>
<linearGradient id="paint8_linear_981_69" x1="77.3029" y1="17.5942" x2="77.3029" y2="21.0121" gradientUnits="userSpaceOnUse">
<stop stop-color="white"/>
<stop offset="1" stop-color="#BFBFBF"/>
</linearGradient>
<linearGradient id="paint9_linear_981_69" x1="64.6979" y1="4.98682" x2="64.6979" y2="8.40466" gradientUnits="userSpaceOnUse">
<stop stop-color="white"/>
<stop offset="1" stop-color="#BFBFBF"/>
</linearGradient>
<linearGradient id="paint10_linear_981_69" x1="41.5" y1="8" x2="41.5" y2="75.9984" gradientUnits="userSpaceOnUse">
<stop stop-color="white"/>
<stop offset="1" stop-color="#BFBFBF"/>
</linearGradient>
<clipPath id="clip0_981_69">
<rect width="83.75" height="83.75" fill="white"/>
</clipPath>
</defs>
</svg>
