<svg width="84" height="84" viewBox="0 0 84 84" fill="none" xmlns="http://www.w3.org/2000/svg">
<g clip-path="url(#clip0_1310_710)">
<g filter="url(#filter0_d_1310_710)">
<path fill-rule="evenodd" clip-rule="evenodd" d="M59.9274 15.2122C60.1468 15.0642 60.4063 14.9903 60.6693 15.001C60.9354 15.0207 61.1878 15.1291 61.3872 15.3096C61.5866 15.478 61.7242 15.7099 61.7778 15.9679C61.8314 16.2259 61.7977 16.4948 61.6824 16.7309L41.692 57.4116C41.5746 57.6515 41.3805 57.8435 41.1415 57.9558C37.4673 59.5655 33.4937 60.3441 29.4951 60.2379C27.5964 60.2324 25.6997 60.1104 23.8155 59.8725C30.8442 62.3576 38.3728 63.0082 45.7124 61.7648L64.5621 23.4068C64.6537 23.2115 64.7955 23.0449 64.9724 22.9249C65.1493 22.8048 65.3548 22.7356 65.5672 22.7246C65.7788 22.7113 65.9902 22.7532 66.1814 22.8464C66.3237 22.9145 66.4509 23.0114 66.5552 23.1312C66.6595 23.251 66.7387 23.3912 66.7879 23.5432C66.8372 23.6952 66.8555 23.8559 66.8418 24.0154C66.828 24.1749 66.7824 24.3298 66.7079 24.4708L47.563 63.4541C47.4782 63.6241 47.3553 63.7715 47.2043 63.8844C47.0533 63.9972 46.8783 64.0723 46.6935 64.1038C41.9056 64.9408 37.0197 65.023 32.2073 64.3474C38.4464 66.3987 44.9556 67.4722 51.5117 67.5311L66.7159 36.588C66.8175 36.3755 66.9784 36.1982 67.1784 36.0783C67.3785 35.9584 67.6088 35.9013 67.8406 35.914C68.0123 35.9167 68.1813 35.9583 68.3352 36.0358C68.4775 36.1039 68.6047 36.2007 68.709 36.3205C68.8133 36.4403 68.8925 36.5805 68.9417 36.7326C68.991 36.8846 69.0093 37.0453 68.9956 37.2048C68.9818 37.3642 68.9362 37.5192 68.8617 37.6601L53.3065 69.3341C53.2062 69.5348 53.0532 69.7034 52.8645 69.821C52.6758 69.9385 52.4588 70.0004 52.2376 70C28.9128 70 14.8094 58.102 14.4824 57.8177L14.4185 57.769L14.3547 57.704L14.3069 57.6553C14.1257 57.4545 14.0181 57.1962 14.0021 56.924C13.9861 56.6518 14.0627 56.3824 14.2191 56.161L32.0557 20.6373C32.1592 20.4398 32.3131 20.2745 32.5013 20.1587C32.6894 20.0429 32.9048 19.981 33.1246 19.9795C52.6843 19.9795 59.8556 15.2609 59.9274 15.2122ZM49.1106 27.7935C49.8215 27.1608 50.6011 26.4997 50.8487 26.3238C51.0962 26.1479 51.3279 26.0001 51.3699 26.0001C51.4963 26.0001 51.2436 26.4641 50.2428 28.0255C49.8689 28.6233 49.4422 29.3057 49.2948 29.5517C49.1526 29.7977 48.8471 30.2761 48.6154 30.6207C46.9721 33.0893 45.7817 35.7474 43.8909 41.19C43.2376 43.0748 43.0797 43.4122 42.9585 43.2154C42.9006 43.1241 43.0533 42.6176 45.3709 35.3741C46.1031 33.0742 46.1559 32.8141 45.8819 32.8282C45.8186 32.8282 44.6285 33.2008 43.2379 33.658L40.7096 34.481L40.7045 36.7244C40.6991 39.2775 40.6307 40.0159 40.2832 41.3943C39.846 43.1385 39.1666 44.5028 38.1763 45.607C35.216 48.9195 31.3448 48.2094 29.4381 43.9967L29.1854 43.4341L29.2802 43.0334C29.4224 42.4284 29.4594 42.1752 29.4066 42.1331C29.2694 42.0205 26.5254 45.7128 25.4193 47.499C25.1979 47.8577 25.0136 48.1389 25.0031 48.1249C24.9662 48.0828 25.2666 46.8171 25.4982 46.0434C25.7719 45.115 26.5041 43.1809 26.9888 42.1051C28.7794 38.1387 30.2333 36.0712 32.3874 34.4536C34.1573 33.1242 36.0007 32.5055 41.7368 31.3099C44.681 30.6977 45.3922 30.4657 46.7036 29.6851C47.4619 29.2352 47.6621 29.0805 49.1106 27.7935ZM38.4236 37.7589C38.2813 37.133 38.0284 36.6406 37.7124 36.3805C37.3913 36.1133 36.9646 36.064 36.654 36.2539C36.359 36.4366 35.9692 37.0344 35.8323 37.5197C35.6904 38.0261 35.6429 38.9894 35.7324 39.5099C35.9166 40.5789 36.5117 41.4019 37.1017 41.4019C37.5704 41.4019 38.1496 40.7688 38.3657 40.0303C38.5448 39.3976 38.5709 38.406 38.4236 37.7589Z" fill="url(#paint0_linear_1310_710)"/>
</g>
<g filter="url(#filter1_d_1310_710)">
<path d="M16.2497 7.16283C16.1812 7.25835 15.9765 7.8322 15.826 8.43242C14.9787 11.5319 13.7084 12.8022 10.5524 13.7581C8.57101 14.3591 8.50325 14.7141 10.2521 15.1781C11.7827 15.588 13.2035 16.298 13.968 17.0351C14.7198 17.7722 15.4708 19.2606 15.8945 20.8588C16.1135 21.7328 16.2361 21.9652 16.4544 21.9923C16.8231 22.0472 16.9601 21.8283 17.2332 20.7362C17.5613 19.3982 18.2717 17.9233 18.9407 17.1998C19.6511 16.4349 20.9898 15.7249 22.5746 15.2608C23.9134 14.8787 24.0639 14.7967 23.9818 14.4275C23.9547 14.25 23.6131 14.086 22.6702 13.813C19.4735 12.8842 18.1754 11.601 17.2596 8.47377C17.082 7.8044 16.8773 7.21772 16.836 7.13574C16.714 6.94399 16.4273 6.95753 16.2497 7.16283Z" fill="url(#paint1_linear_1310_710)"/>
</g>
<g filter="url(#filter2_d_1310_710)">
<path d="M64.2497 64.1628C64.1812 64.2584 63.9765 64.8322 63.826 65.4324C62.9787 68.5319 61.7084 69.8022 58.5524 70.7581C56.571 71.3591 56.5033 71.7141 58.2521 72.1781C59.7827 72.588 61.2035 73.298 61.968 74.0351C62.7198 74.7722 63.4708 76.2606 63.8945 77.8588C64.1135 78.7328 64.2361 78.9652 64.4544 78.9923C64.8231 79.0472 64.9601 78.8283 65.2332 77.7362C65.5613 76.3982 66.2717 74.9233 66.9407 74.1998C67.6511 73.4349 68.9898 72.7249 70.5746 72.2608C71.9134 71.8787 72.0639 71.7967 71.9818 71.4275C71.9547 71.25 71.6131 71.086 70.6702 70.813C67.4735 69.8842 66.1754 68.601 65.2596 65.4738C65.082 64.8044 64.8773 64.2177 64.836 64.1357C64.714 63.944 64.4273 63.9575 64.2497 64.1628Z" fill="url(#paint2_linear_1310_710)"/>
</g>
<g filter="url(#filter3_d_1310_710)">
<path d="M10.8331 63.1086C10.7875 63.1722 10.651 63.5548 10.5507 63.9549C9.9858 66.0213 9.13895 66.8681 7.03491 67.5054C5.71401 67.906 5.66883 68.1427 6.83473 68.4521C7.85513 68.7253 8.80231 69.1987 9.31203 69.6901C9.8132 70.1815 10.3139 71.1737 10.5963 72.2392C10.7423 72.8219 10.8241 72.9768 10.9696 72.9948C11.2154 73.0314 11.3067 72.8855 11.4888 72.1575C11.7075 71.2655 12.1811 70.2822 12.6271 69.7998C13.1007 69.2899 13.9932 68.8166 15.0498 68.5072C15.9422 68.2525 16.0426 68.1978 15.9879 67.9517C15.9698 67.8333 15.7421 67.724 15.1135 67.542C12.9823 66.9228 12.1169 66.0674 11.5064 63.9825C11.388 63.5363 11.2515 63.1451 11.224 63.0905C11.1427 62.9627 10.9515 62.9717 10.8331 63.1086Z" fill="url(#paint3_linear_1310_710)"/>
</g>
</g>
<defs>
<filter id="filter0_d_1310_710" x="10" y="15" width="63" height="63" filterUnits="userSpaceOnUse" color-interpolation-filters="sRGB">
<feFlood flood-opacity="0" result="BackgroundImageFix"/>
<feColorMatrix in="SourceAlpha" type="matrix" values="0 0 0 0 0 0 0 0 0 0 0 0 0 0 0 0 0 0 127 0" result="hardAlpha"/>
<feOffset dy="4"/>
<feGaussianBlur stdDeviation="2"/>
<feComposite in2="hardAlpha" operator="out"/>
<feColorMatrix type="matrix" values="0 0 0 0 0 0 0 0 0 0 0 0 0 0 0 0 0 0 0.25 0"/>
<feBlend mode="normal" in2="BackgroundImageFix" result="effect1_dropShadow_1310_710"/>
<feBlend mode="normal" in="SourceGraphic" in2="effect1_dropShadow_1310_710" result="shape"/>
</filter>
<filter id="filter1_d_1310_710" x="5" y="7" width="23" height="23" filterUnits="userSpaceOnUse" color-interpolation-filters="sRGB">
<feFlood flood-opacity="0" result="BackgroundImageFix"/>
<feColorMatrix in="SourceAlpha" type="matrix" values="0 0 0 0 0 0 0 0 0 0 0 0 0 0 0 0 0 0 127 0" result="hardAlpha"/>
<feOffset dy="4"/>
<feGaussianBlur stdDeviation="2"/>
<feComposite in2="hardAlpha" operator="out"/>
<feColorMatrix type="matrix" values="0 0 0 0 0 0 0 0 0 0 0 0 0 0 0 0 0 0 0.25 0"/>
<feBlend mode="normal" in2="BackgroundImageFix" result="effect1_dropShadow_1310_710"/>
<feBlend mode="normal" in="SourceGraphic" in2="effect1_dropShadow_1310_710" result="shape"/>
</filter>
<filter id="filter2_d_1310_710" x="53" y="64" width="23" height="23" filterUnits="userSpaceOnUse" color-interpolation-filters="sRGB">
<feFlood flood-opacity="0" result="BackgroundImageFix"/>
<feColorMatrix in="SourceAlpha" type="matrix" values="0 0 0 0 0 0 0 0 0 0 0 0 0 0 0 0 0 0 127 0" result="hardAlpha"/>
<feOffset dy="4"/>
<feGaussianBlur stdDeviation="2"/>
<feComposite in2="hardAlpha" operator="out"/>
<feColorMatrix type="matrix" values="0 0 0 0 0 0 0 0 0 0 0 0 0 0 0 0 0 0 0.25 0"/>
<feBlend mode="normal" in2="BackgroundImageFix" result="effect1_dropShadow_1310_710"/>
<feBlend mode="normal" in="SourceGraphic" in2="effect1_dropShadow_1310_710" result="shape"/>
</filter>
<filter id="filter3_d_1310_710" x="2" y="63" width="18" height="18" filterUnits="userSpaceOnUse" color-interpolation-filters="sRGB">
<feFlood flood-opacity="0" result="BackgroundImageFix"/>
<feColorMatrix in="SourceAlpha" type="matrix" values="0 0 0 0 0 0 0 0 0 0 0 0 0 0 0 0 0 0 127 0" result="hardAlpha"/>
<feOffset dy="4"/>
<feGaussianBlur stdDeviation="2"/>
<feComposite in2="hardAlpha" operator="out"/>
<feColorMatrix type="matrix" values="0 0 0 0 0 0 0 0 0 0 0 0 0 0 0 0 0 0 0.25 0"/>
<feBlend mode="normal" in2="BackgroundImageFix" result="effect1_dropShadow_1310_710"/>
<feBlend mode="normal" in="SourceGraphic" in2="effect1_dropShadow_1310_710" result="shape"/>
</filter>
<linearGradient id="paint0_linear_1310_710" x1="41.5" y1="15" x2="41.5" y2="70" gradientUnits="userSpaceOnUse">
<stop stop-color="#FFC160"/>
<stop offset="1" stop-color="#F78140"/>
</linearGradient>
<linearGradient id="paint1_linear_1310_710" x1="16.5" y1="22" x2="16.5" y2="7" gradientUnits="userSpaceOnUse">
<stop stop-color="#F78140"/>
<stop offset="1" stop-color="#FBB03B"/>
</linearGradient>
<linearGradient id="paint2_linear_1310_710" x1="64.5" y1="79" x2="64.5" y2="64" gradientUnits="userSpaceOnUse">
<stop stop-color="#F78140"/>
<stop offset="1" stop-color="#FBB03B"/>
</linearGradient>
<linearGradient id="paint3_linear_1310_710" x1="11" y1="73" x2="11" y2="63" gradientUnits="userSpaceOnUse">
<stop stop-color="#F78140"/>
<stop offset="1" stop-color="#FBB03B"/>
</linearGradient>
<clipPath id="clip0_1310_710">
<rect width="83.75" height="83.75" fill="white"/>
</clipPath>
</defs>
</svg>
