<svg width="84" height="84" viewBox="0 0 84 84" fill="none" xmlns="http://www.w3.org/2000/svg">
<g clip-path="url(#clip0_1328_1060)">
<path d="M81.8348 14.9985C80.8041 20.9217 75.2241 24.8769 69.3763 23.8329C65.3028 23.1061 62.1786 20.1435 61 16.4134C61.6771 16.6878 62.3928 16.8979 63.1407 17.0329C68.9906 18.0769 74.5684 14.1217 75.5991 8.19857C75.912 6.39783 75.7641 4.6271 75.2499 3C79.8762 4.87577 82.7348 9.8321 81.8348 14.9985Z" fill="url(#paint0_linear_1328_1060)"/>
<g filter="url(#filter0_d_1328_1060)">
<path d="M38.9306 17.1626C31.6541 18.0421 25.0404 22.1794 20.9679 28.391C20.1858 29.5853 18.948 32.0504 18.47 33.3865C17.9919 34.7006 17.4276 36.9264 17.1996 38.3819C16.9281 40.1292 16.9389 43.9298 17.1996 45.6567C18.4919 53.888 23.5419 60.8159 30.9052 64.4431C33.2398 65.594 35.3796 66.2781 38.0837 66.7454C39.9623 67.0602 43.7311 67.0928 45.6204 66.7888C55.6663 65.2144 63.6699 58.0473 66.1898 48.3717C66.7 46.428 66.9066 44.9838 66.9826 42.8768C67.276 34.9169 63.8439 27.4789 57.5127 22.3641C54.8413 20.2031 50.7903 18.292 47.326 17.5426C44.8281 16.9993 41.4832 16.8473 38.9306 17.1626ZM44.2633 20.4638C52.3541 21.3759 59.2066 26.5994 62.1826 34.1461C63.1816 36.6872 63.5944 39.0216 63.5837 42.0734C63.5837 44.4624 63.4536 45.5373 62.9209 47.557C61.5959 52.6499 58.2944 57.1999 53.7878 60.1644C49.824 62.7815 44.676 64.0411 39.9628 63.5743C34.6847 63.0422 30.1235 60.8378 26.4526 57.0479C24.0307 54.5502 22.521 52.0744 21.446 48.8599C19.9363 44.3099 19.9363 39.7164 21.4679 35.123C24.1067 27.185 31.1985 21.4407 39.5393 20.474C40.7011 20.3439 43.1118 20.3332 44.2633 20.4638Z" fill="url(#paint1_linear_1328_1060)"/>
<path d="M28.8954 28.1413C28.5806 28.2606 28.1459 28.7494 28.0811 29.0534C28.0378 29.2488 28.0918 29.5314 28.2224 29.8243C28.5158 30.4864 37.2581 46.4496 37.4102 46.5904C37.5729 46.7644 53.8091 55.636 54.3086 55.8314C54.6561 55.9727 54.754 55.9727 55.1015 55.8206C55.601 55.6145 55.9703 55.0605 55.8943 54.6151C55.8617 54.333 47.4775 38.8586 46.7612 37.7291C46.5551 37.4031 45.3382 36.6975 38.1163 32.7556C33.5005 30.2252 29.5694 28.1295 29.3847 28.1081C29.2102 28.0867 28.9821 28.0979 28.8954 28.1413ZM42.9592 39.8906C44.4255 40.5528 44.7729 42.497 43.6326 43.6372C42.8831 44.3754 41.9495 44.5386 40.9933 44.0932C39.2449 43.279 39.2122 40.8466 40.9393 39.9345C41.526 39.6299 42.3403 39.6085 42.9592 39.8906Z" fill="url(#paint2_linear_1328_1060)"/>
</g>
<g filter="url(#filter1_d_1328_1060)">
<path d="M14.2497 6.16283C14.1812 6.25835 13.9765 6.8322 13.826 7.43242C12.9787 10.5319 11.7084 11.8022 8.55237 12.7581C6.57101 13.3591 6.50325 13.7141 8.2521 14.1781C9.7827 14.588 11.2035 15.298 11.968 16.0351C12.7198 16.7722 13.4708 18.2606 13.8945 19.8588C14.1135 20.7328 14.2361 20.9652 14.4544 20.9923C14.8231 21.0472 14.9601 20.8283 15.2332 19.7362C15.5613 18.3982 16.2717 16.9233 16.9407 16.1998C17.6511 15.4349 18.9898 14.7249 20.5746 14.2608C21.9134 13.8787 22.0639 13.7967 21.9818 13.4275C21.9547 13.25 21.6131 13.086 20.6702 12.813C17.4735 11.8842 16.1754 10.601 15.2596 7.47377C15.082 6.8044 14.8773 6.21772 14.836 6.13574C14.714 5.94399 14.4273 5.95753 14.2497 6.16283Z" fill="url(#paint3_linear_1328_1060)"/>
</g>
<g filter="url(#filter2_d_1328_1060)">
<path d="M74.8331 34.1086C74.7875 34.1722 74.651 34.5548 74.5507 34.9549C73.9858 37.0213 73.139 37.8681 71.0349 38.5054C69.714 38.906 69.6688 39.1427 70.8347 39.4521C71.8551 39.7253 72.8023 40.1987 73.312 40.6901C73.8132 41.1815 74.3139 42.1737 74.5963 43.2392C74.7423 43.8219 74.8241 43.9768 74.9696 43.9948C75.2154 44.0314 75.3067 43.8855 75.4888 43.1575C75.7075 42.2655 76.1811 41.2822 76.6271 40.7998C77.1007 40.2899 77.9932 39.8166 79.0498 39.5072C79.9422 39.2525 80.0426 39.1978 79.9879 38.9517C79.9698 38.8333 79.7421 38.724 79.1135 38.542C76.9823 37.9228 76.1169 37.0674 75.5064 34.9825C75.388 34.5363 75.2515 34.1451 75.224 34.0905C75.1427 33.9627 74.9515 33.9717 74.8331 34.1086Z" fill="url(#paint4_linear_1328_1060)"/>
</g>
<g filter="url(#filter3_d_1328_1060)">
<path d="M19.8331 67.1086C19.7875 67.1722 19.651 67.5548 19.5507 67.9549C18.9858 70.0213 18.139 70.8681 16.0349 71.5054C14.714 71.906 14.6688 72.1427 15.8347 72.4521C16.8551 72.7253 17.8023 73.1987 18.312 73.6901C18.8132 74.1815 19.3139 75.1737 19.5963 76.2392C19.7423 76.8219 19.8241 76.9768 19.9696 76.9948C20.2154 77.0314 20.3067 76.8855 20.4888 76.1575C20.7075 75.2655 21.1811 74.2822 21.6271 73.7998C22.1007 73.2899 22.9932 72.8166 24.0498 72.5072C24.9422 72.2525 25.0426 72.1978 24.9879 71.9517C24.9698 71.8333 24.7421 71.724 24.1135 71.542C21.9823 70.9228 21.1169 70.0674 20.5064 67.9825C20.388 67.5363 20.2515 67.1451 20.224 67.0905C20.1427 66.9627 19.9515 66.9717 19.8331 67.1086Z" fill="url(#paint5_linear_1328_1060)"/>
</g>
<g filter="url(#filter4_d_1328_1060)">
<path d="M68.2497 62.1628C68.1812 62.2584 67.9765 62.8322 67.826 63.4324C66.9787 66.5319 65.7084 67.8022 62.5524 68.7581C60.571 69.3591 60.5033 69.7141 62.2521 70.1781C63.7827 70.588 65.2035 71.298 65.968 72.0351C66.7198 72.7722 67.4708 74.2606 67.8945 75.8588C68.1135 76.7328 68.2361 76.9652 68.4544 76.9923C68.8231 77.0472 68.9601 76.8283 69.2332 75.7362C69.5613 74.3982 70.2717 72.9233 70.9407 72.1998C71.6511 71.4349 72.9898 70.7249 74.5746 70.2608C75.9134 69.8787 76.0639 69.7967 75.9818 69.4275C75.9547 69.25 75.6131 69.086 74.6702 68.813C71.4735 67.8842 70.1754 66.601 69.2596 63.4738C69.082 62.8044 68.8773 62.2177 68.836 62.1357C68.714 61.944 68.4273 61.9575 68.2497 62.1628Z" fill="url(#paint6_linear_1328_1060)"/>
</g>
</g>
<defs>
<filter id="filter0_d_1328_1060" x="13" y="17" width="58" height="58" filterUnits="userSpaceOnUse" color-interpolation-filters="sRGB">
<feFlood flood-opacity="0" result="BackgroundImageFix"/>
<feColorMatrix in="SourceAlpha" type="matrix" values="0 0 0 0 0 0 0 0 0 0 0 0 0 0 0 0 0 0 127 0" result="hardAlpha"/>
<feOffset dy="4"/>
<feGaussianBlur stdDeviation="2"/>
<feComposite in2="hardAlpha" operator="out"/>
<feColorMatrix type="matrix" values="0 0 0 0 0 0 0 0 0 0 0 0 0 0 0 0 0 0 0.25 0"/>
<feBlend mode="normal" in2="BackgroundImageFix" result="effect1_dropShadow_1328_1060"/>
<feBlend mode="normal" in="SourceGraphic" in2="effect1_dropShadow_1328_1060" result="shape"/>
</filter>
<filter id="filter1_d_1328_1060" x="3" y="6" width="23" height="23" filterUnits="userSpaceOnUse" color-interpolation-filters="sRGB">
<feFlood flood-opacity="0" result="BackgroundImageFix"/>
<feColorMatrix in="SourceAlpha" type="matrix" values="0 0 0 0 0 0 0 0 0 0 0 0 0 0 0 0 0 0 127 0" result="hardAlpha"/>
<feOffset dy="4"/>
<feGaussianBlur stdDeviation="2"/>
<feComposite in2="hardAlpha" operator="out"/>
<feColorMatrix type="matrix" values="0 0 0 0 0 0 0 0 0 0 0 0 0 0 0 0 0 0 0.25 0"/>
<feBlend mode="normal" in2="BackgroundImageFix" result="effect1_dropShadow_1328_1060"/>
<feBlend mode="normal" in="SourceGraphic" in2="effect1_dropShadow_1328_1060" result="shape"/>
</filter>
<filter id="filter2_d_1328_1060" x="66" y="34" width="18" height="18" filterUnits="userSpaceOnUse" color-interpolation-filters="sRGB">
<feFlood flood-opacity="0" result="BackgroundImageFix"/>
<feColorMatrix in="SourceAlpha" type="matrix" values="0 0 0 0 0 0 0 0 0 0 0 0 0 0 0 0 0 0 127 0" result="hardAlpha"/>
<feOffset dy="4"/>
<feGaussianBlur stdDeviation="2"/>
<feComposite in2="hardAlpha" operator="out"/>
<feColorMatrix type="matrix" values="0 0 0 0 0 0 0 0 0 0 0 0 0 0 0 0 0 0 0.25 0"/>
<feBlend mode="normal" in2="BackgroundImageFix" result="effect1_dropShadow_1328_1060"/>
<feBlend mode="normal" in="SourceGraphic" in2="effect1_dropShadow_1328_1060" result="shape"/>
</filter>
<filter id="filter3_d_1328_1060" x="11" y="67" width="18" height="18" filterUnits="userSpaceOnUse" color-interpolation-filters="sRGB">
<feFlood flood-opacity="0" result="BackgroundImageFix"/>
<feColorMatrix in="SourceAlpha" type="matrix" values="0 0 0 0 0 0 0 0 0 0 0 0 0 0 0 0 0 0 127 0" result="hardAlpha"/>
<feOffset dy="4"/>
<feGaussianBlur stdDeviation="2"/>
<feComposite in2="hardAlpha" operator="out"/>
<feColorMatrix type="matrix" values="0 0 0 0 0 0 0 0 0 0 0 0 0 0 0 0 0 0 0.25 0"/>
<feBlend mode="normal" in2="BackgroundImageFix" result="effect1_dropShadow_1328_1060"/>
<feBlend mode="normal" in="SourceGraphic" in2="effect1_dropShadow_1328_1060" result="shape"/>
</filter>
<filter id="filter4_d_1328_1060" x="57" y="62" width="23" height="23" filterUnits="userSpaceOnUse" color-interpolation-filters="sRGB">
<feFlood flood-opacity="0" result="BackgroundImageFix"/>
<feColorMatrix in="SourceAlpha" type="matrix" values="0 0 0 0 0 0 0 0 0 0 0 0 0 0 0 0 0 0 127 0" result="hardAlpha"/>
<feOffset dy="4"/>
<feGaussianBlur stdDeviation="2"/>
<feComposite in2="hardAlpha" operator="out"/>
<feColorMatrix type="matrix" values="0 0 0 0 0 0 0 0 0 0 0 0 0 0 0 0 0 0 0.25 0"/>
<feBlend mode="normal" in2="BackgroundImageFix" result="effect1_dropShadow_1328_1060"/>
<feBlend mode="normal" in="SourceGraphic" in2="effect1_dropShadow_1328_1060" result="shape"/>
</filter>
<linearGradient id="paint0_linear_1328_1060" x1="71.5" y1="3" x2="71.5" y2="24" gradientUnits="userSpaceOnUse">
<stop stop-color="#FBB03B"/>
<stop offset="1" stop-color="#F78140"/>
</linearGradient>
<linearGradient id="paint1_linear_1328_1060" x1="42" y1="67" x2="42" y2="17" gradientUnits="userSpaceOnUse">
<stop stop-color="#F78140"/>
<stop offset="1" stop-color="#FBB03B"/>
</linearGradient>
<linearGradient id="paint2_linear_1328_1060" x1="41.9853" y1="55.936" x2="41.9853" y2="28.0975" gradientUnits="userSpaceOnUse">
<stop stop-color="#F78140"/>
<stop offset="1" stop-color="#FBB03B"/>
</linearGradient>
<linearGradient id="paint3_linear_1328_1060" x1="14.5" y1="21" x2="14.5" y2="6" gradientUnits="userSpaceOnUse">
<stop stop-color="#F78140"/>
<stop offset="1" stop-color="#FBB03B"/>
</linearGradient>
<linearGradient id="paint4_linear_1328_1060" x1="75" y1="44" x2="75" y2="34" gradientUnits="userSpaceOnUse">
<stop stop-color="#F78140"/>
<stop offset="1" stop-color="#FBB03B"/>
</linearGradient>
<linearGradient id="paint5_linear_1328_1060" x1="20" y1="77" x2="20" y2="67" gradientUnits="userSpaceOnUse">
<stop stop-color="#F78140"/>
<stop offset="1" stop-color="#FBB03B"/>
</linearGradient>
<linearGradient id="paint6_linear_1328_1060" x1="68.5" y1="77" x2="68.5" y2="62" gradientUnits="userSpaceOnUse">
<stop stop-color="#F78140"/>
<stop offset="1" stop-color="#FBB03B"/>
</linearGradient>
<clipPath id="clip0_1328_1060">
<rect width="83.75" height="83.75" fill="white"/>
</clipPath>
</defs>
</svg>
