<svg width="84" height="84" viewBox="0 0 84 84" fill="none" xmlns="http://www.w3.org/2000/svg">
<path d="M81.8348 14.9985C80.8041 20.9217 75.2241 24.8769 69.3763 23.8329C65.3028 23.1061 62.1786 20.1435 61 16.4134C61.6771 16.6878 62.3928 16.8979 63.1407 17.0329C68.9906 18.0769 74.5684 14.1217 75.5991 8.19857C75.912 6.39783 75.7641 4.6271 75.2499 3C79.8762 4.87577 82.7348 9.8321 81.8348 14.9985Z" fill="url(#paint0_linear_578_81)"/>
<g filter="url(#filter0_d_578_81)">
<path d="M34.831 46.147C34.8081 47.2744 34.3342 48.3476 33.5121 49.1335C32.69 49.9195 31.586 50.3548 30.4396 50.3452C29.2955 50.3684 28.1881 49.9477 27.3568 49.1741C26.5256 48.4006 26.0372 47.3362 25.9974 46.2113C26.0202 45.09 26.4891 44.0223 27.3034 43.2373C28.1177 42.4524 29.2124 42.0128 30.3525 42.0131C31.5028 41.9803 32.6195 42.3967 33.4587 43.1713C34.2978 43.9459 34.7912 45.0157 34.831 46.147V46.147ZM32.6534 37.8434C31.5069 37.8704 30.3957 37.4514 29.5613 36.6774C28.7269 35.9035 28.2366 34.8369 28.1967 33.7094C28.2034 33.1534 28.3213 32.6041 28.5437 32.0929C28.7662 31.5818 29.0889 31.1187 29.4933 30.7302C29.8977 30.3417 30.3759 30.0352 30.9007 29.8285C31.4255 29.6218 31.9866 29.5189 32.5518 29.5255C33.696 29.4984 34.805 29.9154 35.639 30.6863C36.473 31.4573 36.965 32.5202 37.0085 33.6452C36.9859 34.7591 36.5231 35.8205 35.7181 36.6042C34.9132 37.388 33.8295 37.8325 32.697 37.8434H32.6534ZM50.306 29.4898C50.2813 30.616 49.8065 31.6872 48.9846 32.4716C48.1627 33.2561 47.0598 33.6905 45.9147 33.6808C44.7693 33.7079 43.6592 33.2899 42.825 32.5174C41.9908 31.7449 41.4996 30.6802 41.458 29.554C41.4808 28.4265 41.9548 27.3535 42.7769 26.5675C43.599 25.7816 44.703 25.3462 45.8493 25.3558C47.0033 25.3172 48.1257 25.7311 48.9696 26.5063C49.8134 27.2815 50.3098 28.3546 50.3496 29.4898H50.306ZM23.7618 62.4829C33.9237 63.2754 30.2944 53.1297 39.6651 53.0369L43.7299 56.2285C44.7896 67.7593 29.8009 70.3367 23.8054 62.4829H23.7618ZM54.8789 47.6677C58.0363 43.0054 67.8062 27.3693 67.8062 27.3693C68.5829 26.077 66.8553 24.7204 65.6287 25.6771C65.6287 25.6771 51.1117 37.5721 46.8075 41.3847C43.4177 44.3692 43.4032 45.7258 42.3072 50.6665L46.0235 53.5795C51.0101 51.6161 52.4255 51.359 54.9224 47.6677H54.8789ZM26.9628 57.6635C24.6228 55.7789 22.7287 53.4152 21.4125 50.7369C20.0962 48.0587 19.3895 45.1303 19.3414 42.1558C19.2906 30.6964 29.1331 21.279 41.3636 21.2004C49.856 21.2004 55.6991 25.1702 55.7354 28.3403L59.4154 25.313C57.1798 20.6864 50.1609 16.8951 41.3273 17.0022C26.6797 17.1165 14.8847 28.3831 15.0009 42.1844C15.0611 48.05 17.2786 53.6958 21.2431 58.0777C23.3263 59.1272 25.9031 58.7845 27.0064 57.6778L26.9628 57.6635ZM55.2708 53.6938C57.6081 57.7992 52.2803 60.7123 47.4244 62.0046C46.7903 63.8131 45.7538 65.4597 44.3904 66.824C56.0039 65.5888 64.431 57.8563 58.2468 50.4024C57.4243 51.6306 56.4353 52.7428 55.3071 53.7081L55.2708 53.6938Z" fill="url(#paint1_linear_578_81)"/>
</g>
<defs>
<filter id="filter0_d_578_81" x="11" y="17" width="61" height="58" filterUnits="userSpaceOnUse" color-interpolation-filters="sRGB">
<feFlood flood-opacity="0" result="BackgroundImageFix"/>
<feColorMatrix in="SourceAlpha" type="matrix" values="0 0 0 0 0 0 0 0 0 0 0 0 0 0 0 0 0 0 127 0" result="hardAlpha"/>
<feOffset dy="4"/>
<feGaussianBlur stdDeviation="2"/>
<feComposite in2="hardAlpha" operator="out"/>
<feColorMatrix type="matrix" values="0 0 0 0 0 0 0 0 0 0 0 0 0 0 0 0 0 0 0.25 0"/>
<feBlend mode="normal" in2="BackgroundImageFix" result="effect1_dropShadow_578_81"/>
<feBlend mode="normal" in="SourceGraphic" in2="effect1_dropShadow_578_81" result="shape"/>
</filter>
<linearGradient id="paint0_linear_578_81" x1="71.5" y1="3" x2="71.5" y2="24" gradientUnits="userSpaceOnUse">
<stop stop-color="white"/>
<stop offset="1" stop-color="#BFBFBF"/>
</linearGradient>
<linearGradient id="paint1_linear_578_81" x1="41.5" y1="17" x2="41.5" y2="67" gradientUnits="userSpaceOnUse">
<stop stop-color="white"/>
<stop offset="1" stop-color="#BFBFBF"/>
</linearGradient>
</defs>
</svg>
