<svg width="84" height="84" viewBox="0 0 84 84" fill="none" xmlns="http://www.w3.org/2000/svg">
<g filter="url(#filter0_d_1063_303)">
<path d="M77.4293 40.487C73.0316 35.5795 65.66 23.3632 62.1224 17.6408C57.9141 10.8298 45.2917 9.80859 41.5356 16.687V16.5284C41.5245 16.5562 41.5111 16.582 41.5 16.6077C41.4866 16.5839 41.4755 16.5581 41.4666 16.5323V16.685C37.7085 9.80452 25.0859 10.8257 20.8778 17.6368C17.34 23.3593 9.96838 35.5775 5.57075 40.483C5.08727 41.0223 4.66182 41.9403 5.39253 42.9932C9.62077 49.0587 25.3042 71.9961 41.4666 71.9961C41.4889 71.9961 41.5113 72 41.5356 72C57.698 72 73.3792 49.0625 77.6075 42.9972C78.3382 41.9423 77.9127 41.0243 77.4293 40.487ZM41.5356 54.2697V54.2658C41.5111 54.2658 41.4889 54.2658 41.4666 54.2658C26.0839 54.2658 19.218 42.8466 17.8168 41.9682C18.5808 40.1103 27.3828 31.3759 29.214 29.9622C35.0307 25.4671 37.6127 30.2557 41.4668 30.2557C41.4712 30.2557 41.4758 30.2537 41.4802 30.2537C41.498 30.2557 41.5158 30.2576 41.5359 30.2576C45.3878 30.2576 47.9697 25.471 53.7864 29.9641C55.6176 31.3798 64.4194 40.1123 65.1837 41.9722C63.782 42.8486 56.9161 54.2697 41.5356 54.2697Z" fill="url(#paint0_linear_1063_303)"/>
</g>
<defs>
<filter id="filter0_d_1063_303" x="1" y="12" width="81" height="68" filterUnits="userSpaceOnUse" color-interpolation-filters="sRGB">
<feFlood flood-opacity="0" result="BackgroundImageFix"/>
<feColorMatrix in="SourceAlpha" type="matrix" values="0 0 0 0 0 0 0 0 0 0 0 0 0 0 0 0 0 0 127 0" result="hardAlpha"/>
<feOffset dy="4"/>
<feGaussianBlur stdDeviation="2"/>
<feComposite in2="hardAlpha" operator="out"/>
<feColorMatrix type="matrix" values="0 0 0 0 0 0 0 0 0 0 0 0 0 0 0 0 0 0 0.25 0"/>
<feBlend mode="normal" in2="BackgroundImageFix" result="effect1_dropShadow_1063_303"/>
<feBlend mode="normal" in="SourceGraphic" in2="effect1_dropShadow_1063_303" result="shape"/>
</filter>
<linearGradient id="paint0_linear_1063_303" x1="41.5" y1="12" x2="41.5" y2="72" gradientUnits="userSpaceOnUse">
<stop stop-color="white"/>
<stop offset="1" stop-color="#BFBFBF"/>
</linearGradient>
</defs>
</svg>
