<svg width="84" height="84" viewBox="0 0 84 84" fill="none" xmlns="http://www.w3.org/2000/svg">
<path fill-rule="evenodd" clip-rule="evenodd" d="M59.9274 15.2122C60.1467 15.0642 60.4063 14.9903 60.6692 15.001C60.9354 15.0207 61.1877 15.1291 61.3872 15.3096C61.5865 15.478 61.7242 15.7099 61.7778 15.9679C61.8313 16.2259 61.7977 16.4948 61.6823 16.7309L41.6919 57.4117C41.5746 57.6515 41.3804 57.8435 41.1415 57.9558C37.4673 59.5656 33.4937 60.3442 29.4951 60.2379C27.5964 60.2324 25.6997 60.1104 23.8155 59.8725C30.8441 62.3576 38.3728 63.0082 45.7123 61.7648L64.562 23.4068C64.6537 23.2115 64.7954 23.045 64.9724 22.9249C65.1493 22.8048 65.3548 22.7356 65.5671 22.7246C65.7787 22.7113 65.9901 22.7532 66.1813 22.8465C66.3236 22.9145 66.4508 23.0114 66.5551 23.1312C66.6594 23.251 66.7386 23.3912 66.7879 23.5432C66.8372 23.6952 66.8555 23.8559 66.8417 24.0154C66.8279 24.1749 66.7824 24.3298 66.7078 24.4708L47.563 63.4541C47.4781 63.6242 47.3553 63.7716 47.2042 63.8844C47.0532 63.9973 46.8783 64.0724 46.6935 64.1038C41.9056 64.9408 37.0197 65.0231 32.2073 64.3475C38.4464 66.3987 44.9555 67.4723 51.5116 67.5312L66.7158 36.588C66.8174 36.3755 66.9783 36.1982 67.1784 36.0784C67.3784 35.9585 67.6087 35.9013 67.8405 35.914C68.0122 35.9167 68.1812 35.9583 68.3351 36.0358C68.4774 36.1039 68.6046 36.2007 68.7089 36.3205C68.8132 36.4404 68.8924 36.5806 68.9417 36.7326C68.991 36.8846 69.0093 37.0453 68.9955 37.2048C68.9817 37.3642 68.9362 37.5192 68.8616 37.6601L53.3064 69.3341C53.2062 69.5349 53.0532 69.7034 52.8645 69.821C52.6758 69.9386 52.4588 70.0005 52.2375 70C28.9128 70 14.8094 58.102 14.4824 57.8177L14.4185 57.7691L14.3547 57.704L14.3069 57.6553C14.1257 57.4545 14.0181 57.1962 14.0021 56.924C13.9861 56.6518 14.0627 56.3824 14.2191 56.161L32.0557 20.6373C32.1592 20.4398 32.3131 20.2745 32.5012 20.1587C32.6894 20.0429 32.9048 19.981 33.1246 19.9795C52.6842 19.9795 59.8556 15.2609 59.9274 15.2122ZM40.7943 45.9791C40.6115 45.7063 40.2121 45.4219 39.5962 45.1259L35.4727 43.1442L35.5271 43.0316L36.1992 43.0773C37.2374 43.1509 38.5516 42.9597 40.142 42.5035C40.8926 42.2911 41.6406 41.8924 42.3861 41.3076C43.1316 40.7228 43.7111 40.0028 44.1246 39.1475C44.9007 37.5419 45.0265 35.8457 44.5019 34.0588C43.9846 32.2569 42.8171 30.9191 40.9995 30.0456C39.1968 29.1792 37.4312 29.0981 35.7025 29.802C33.996 30.4982 32.7656 31.6266 32.0112 33.1872C31.7574 33.7124 31.6099 34.113 31.569 34.3892C31.4886 35.0533 31.9742 35.638 33.0258 36.1434C33.9721 36.5982 34.645 36.6997 35.0444 36.4478C35.2662 36.2955 35.4244 36.1404 35.5193 35.9826C35.6291 35.832 35.7638 35.5916 35.9234 35.2615L35.9887 35.1265L36.3291 34.6521C36.541 34.3286 36.9031 34.0774 37.4154 33.8983C37.95 33.7114 38.4577 33.7335 38.9384 33.9645C39.4191 34.1955 39.762 34.4436 39.9671 34.7086C40.1722 34.9736 40.295 35.2175 40.3353 35.4403C40.398 35.6553 40.4203 35.9156 40.4021 36.2213C40.3912 36.5119 40.3531 36.7247 40.2878 36.8598C39.9614 37.535 39.3677 38.0356 38.5067 38.3614C37.6607 38.6945 36.7236 38.9098 35.6954 39.0074C34.6743 39.0899 33.646 39.1875 32.6105 39.3C31.5822 39.3975 30.6158 39.6543 29.7113 40.0702C28.8291 40.4783 28.1921 41.0875 27.8004 41.8978C27.5393 42.438 27.5061 43.0045 27.7008 43.5974C27.8955 44.1902 28.2633 44.6166 28.8041 44.8765L37.6144 49.1107C38.2153 49.3995 38.7245 49.5333 39.142 49.512C39.4181 49.5153 39.6701 49.396 39.8981 49.1542C40.1411 48.9197 40.375 48.5698 40.5999 48.1046C40.832 47.6245 40.9719 47.2202 41.0196 46.8917C41.0745 46.5483 40.9994 46.2441 40.7943 45.9791Z" fill="url(#paint0_linear_660_12)"/>
<defs>
<linearGradient id="paint0_linear_660_12" x1="41.5" y1="15" x2="41.5" y2="70" gradientUnits="userSpaceOnUse">
<stop stop-color="white"/>
<stop offset="1" stop-color="#BFBFBF"/>
</linearGradient>
</defs>
</svg>
