<svg width="84" height="84" viewBox="0 0 84 84" fill="none" xmlns="http://www.w3.org/2000/svg">
<g clip-path="url(#clip0_430_44)">
<g filter="url(#filter0_d_430_44)">
<path d="M70.9994 17.8605C73.6837 17.8605 75.8597 15.6845 75.8597 13.0003C75.8597 10.3161 73.6837 8.14014 70.9994 8.14014C68.3152 8.14014 66.1392 10.3161 66.1392 13.0003C66.1392 15.6845 68.3152 17.8605 70.9994 17.8605Z" fill="url(#paint0_linear_430_44)"/>
<path d="M71.0002 18.655C67.882 18.655 65.3452 16.1182 65.3452 13.0001C65.3452 9.88194 67.882 7.34521 71.0002 7.34521C74.1184 7.34521 76.6551 9.88194 76.6551 13.0001C76.6551 16.1182 74.1184 18.655 71.0002 18.655ZM71.0002 8.9346C68.7575 8.9346 66.9346 10.7574 66.9346 13.0001C66.9346 15.2427 68.7575 17.0656 71.0002 17.0656C73.2428 17.0656 75.0657 15.2427 75.0657 13.0001C75.0657 10.7574 73.2428 8.9346 71.0002 8.9346Z" fill="url(#paint1_linear_430_44)"/>
<path d="M71 6.17325C70.56 6.17325 70.2053 5.81856 70.2053 5.37856V2.79469C70.2053 2.35694 70.56 2 71 2C71.4378 2 71.7947 2.35469 71.7947 2.79469V5.37856C71.7947 5.81631 71.4378 6.17325 71 6.17325Z" fill="url(#paint2_linear_430_44)"/>
<path d="M71 23.9999C70.56 23.9999 70.2053 23.6452 70.2053 23.2052V20.6214C70.2053 20.1836 70.56 19.8267 71 19.8267C71.4378 19.8267 71.7947 20.1836 71.7947 20.6214V23.2052C71.7947 23.6452 71.4378 23.9999 71 23.9999Z" fill="url(#paint3_linear_430_44)"/>
<path d="M81.2053 13.7945H78.6214C78.1836 13.7945 77.8267 13.4398 77.8267 12.9998C77.8267 12.5598 78.1836 12.2051 78.6214 12.2051H81.2053C81.643 12.2051 82 12.5598 82 12.9998C82 13.4375 81.6453 13.7945 81.2053 13.7945Z" fill="url(#paint4_linear_430_44)"/>
<path d="M63.3786 13.7945H60.7947C60.3569 13.7945 60 13.4375 60 12.9998C60 12.5598 60.3569 12.2051 60.7947 12.2051H63.3786C63.8186 12.2051 64.1733 12.5598 64.1733 12.9998C64.1733 13.4375 63.8164 13.7945 63.3786 13.7945Z" fill="url(#paint5_linear_430_44)"/>
<path d="M76.3907 8.40466C76.1865 8.40466 75.9844 8.32609 75.8295 8.17119C75.5197 7.8614 75.5197 7.35854 75.8295 7.0465L77.6569 5.21916C77.9667 4.90937 78.4695 4.90937 78.7816 5.21916C79.0914 5.52896 79.0914 6.03181 78.7816 6.34385L76.952 8.17344C76.7971 8.32834 76.5928 8.40466 76.3907 8.40466Z" fill="url(#paint6_linear_430_44)"/>
<path d="M63.7831 21.0121C63.5788 21.0121 63.3768 20.9335 63.2219 20.7786C62.9121 20.4688 62.9121 19.966 63.2219 19.6539L65.0492 17.8266C65.359 17.5168 65.8619 17.5168 66.1739 17.8266C66.4837 18.1364 66.4837 18.6392 66.1739 18.9513L64.3466 20.7786C64.1917 20.9335 63.9874 21.0121 63.7831 21.0121Z" fill="url(#paint7_linear_430_44)"/>
<path d="M78.2154 21.0121C78.0111 21.0121 77.8091 20.9335 77.6542 20.7786L75.8268 18.9513C75.517 18.6415 75.517 18.1386 75.8268 17.8266C76.1366 17.5168 76.6395 17.5168 76.9515 17.8266L78.7789 19.6539C79.0887 19.9637 79.0887 20.4666 78.7789 20.7786C78.624 20.9335 78.4197 21.0121 78.2154 21.0121Z" fill="url(#paint8_linear_430_44)"/>
<path d="M65.6104 8.40466C65.4062 8.40466 65.2041 8.32609 65.0492 8.17119L63.2219 6.34385C62.9121 6.03406 62.9121 5.5312 63.2219 5.21916C63.5316 4.90937 64.0345 4.90937 64.3466 5.21916L66.1739 7.0465C66.4837 7.3563 66.4837 7.85915 66.1739 8.17119C66.019 8.32834 65.8147 8.40466 65.6104 8.40466Z" fill="url(#paint9_linear_430_44)"/>
</g>
<g filter="url(#filter1_d_430_44)">
<path d="M26.327 26.7578C25.1457 26.7578 24.1874 27.6888 24.1874 28.8373C24.1874 29.9857 25.1458 30.9168 26.327 30.9168C27.5069 30.9168 28.4651 29.9857 28.4651 28.8373C28.4651 27.6888 27.5069 26.7578 26.327 26.7578Z" fill="url(#paint10_linear_430_44)"/>
<path d="M56.6745 26.7578C55.4931 26.7578 54.5349 27.6888 54.5349 28.8373C54.5349 29.9857 55.4931 30.9168 56.6745 30.9168C57.8543 30.9168 58.8126 29.9857 58.8126 28.8373C58.8126 27.6888 57.8543 26.7578 56.6745 26.7578Z" fill="url(#paint11_linear_430_44)"/>
<path d="M64.4592 33.5327C65.3519 32.1711 65.8706 30.5617 65.8706 28.837C65.8706 23.9643 61.7451 20.0001 56.6738 20.0001C53.2753 20.0001 50.3037 21.782 48.7116 24.4232C46.3786 23.9342 43.9638 23.6858 41.5001 23.6858C39.043 23.6858 36.6243 23.9334 34.2882 24.4226C32.6961 21.7816 29.7247 20 26.3263 20C21.2551 20 17.1295 23.9642 17.1295 28.8369C17.1295 30.5615 17.6482 32.1711 18.5409 33.5326C16.3889 36.2974 15.1788 39.3993 15 42.625C17.839 44.8186 20.8876 46.3459 24.5423 47.4088C29.0296 48.714 34.5766 49.3485 41.5001 49.3485C48.4235 49.3485 53.9705 48.7141 58.4578 47.4088C62.1123 46.3459 65.1609 44.8187 68 42.6251C67.8213 39.3997 66.6113 36.2975 64.4592 33.5327ZM26.3263 34.335C23.1627 34.335 20.5892 31.8687 20.5892 28.837C20.5892 25.8054 23.1628 23.3391 26.3263 23.3391C29.4898 23.3391 32.0633 25.8054 32.0633 28.837C32.0633 31.8687 29.4897 34.335 26.3263 34.335ZM37.7706 45.2443C36.7606 45.2443 35.9387 44.4466 35.9387 43.4626C35.9387 42.4785 36.7606 41.6814 37.7706 41.6814C38.7819 41.6814 39.6037 42.4785 39.6037 43.4626C39.6037 44.4466 38.7819 45.2443 37.7706 45.2443ZM45.2156 45.2577C44.1958 45.2577 43.3686 44.4539 43.3686 43.4627C43.3686 42.4713 44.1958 41.6676 45.2156 41.6676C46.2341 41.6676 47.0613 42.4712 47.0613 43.4627C47.0613 44.4541 46.2342 45.2577 45.2156 45.2577ZM56.6737 34.335C53.5102 34.335 50.9367 31.8687 50.9367 28.837C50.9367 25.8054 53.5102 23.3391 56.6737 23.3391C59.8373 23.3391 62.4108 25.8054 62.4108 28.837C62.4108 31.8687 59.8373 34.335 56.6737 34.335Z" fill="url(#paint12_linear_430_44)"/>
<path d="M59.456 50.6059C54.6403 52.0067 48.7668 52.6875 41.5001 52.6875C34.2334 52.6875 28.3598 52.0066 23.544 50.6059C20.5212 49.7267 17.8661 48.5604 15.3982 47.0176C16.3609 51.0245 18.9495 54.6951 22.924 57.5977C27.9056 61.2358 34.5027 63.2393 41.5 63.2393C48.4974 63.2393 55.0944 61.2358 60.076 57.5977C64.0504 54.6952 66.639 51.0246 67.6017 47.0178C65.1337 48.5605 62.4786 49.7267 59.456 50.6059Z" fill="url(#paint13_linear_430_44)"/>
</g>
</g>
<defs>
<filter id="filter0_d_430_44" x="56" y="2" width="30" height="30" filterUnits="userSpaceOnUse" color-interpolation-filters="sRGB">
<feFlood flood-opacity="0" result="BackgroundImageFix"/>
<feColorMatrix in="SourceAlpha" type="matrix" values="0 0 0 0 0 0 0 0 0 0 0 0 0 0 0 0 0 0 127 0" result="hardAlpha"/>
<feOffset dy="4"/>
<feGaussianBlur stdDeviation="2"/>
<feComposite in2="hardAlpha" operator="out"/>
<feColorMatrix type="matrix" values="0 0 0 0 0 0 0 0 0 0 0 0 0 0 0 0 0 0 0.25 0"/>
<feBlend mode="normal" in2="BackgroundImageFix" result="effect1_dropShadow_430_44"/>
<feBlend mode="normal" in="SourceGraphic" in2="effect1_dropShadow_430_44" result="shape"/>
</filter>
<filter id="filter1_d_430_44" x="11" y="20" width="61" height="51.2393" filterUnits="userSpaceOnUse" color-interpolation-filters="sRGB">
<feFlood flood-opacity="0" result="BackgroundImageFix"/>
<feColorMatrix in="SourceAlpha" type="matrix" values="0 0 0 0 0 0 0 0 0 0 0 0 0 0 0 0 0 0 127 0" result="hardAlpha"/>
<feOffset dy="4"/>
<feGaussianBlur stdDeviation="2"/>
<feComposite in2="hardAlpha" operator="out"/>
<feColorMatrix type="matrix" values="0 0 0 0 0 0 0 0 0 0 0 0 0 0 0 0 0 0 0.25 0"/>
<feBlend mode="normal" in2="BackgroundImageFix" result="effect1_dropShadow_430_44"/>
<feBlend mode="normal" in="SourceGraphic" in2="effect1_dropShadow_430_44" result="shape"/>
</filter>
<linearGradient id="paint0_linear_430_44" x1="70.9994" y1="8.14014" x2="70.9994" y2="17.8605" gradientUnits="userSpaceOnUse">
<stop stop-color="white"/>
<stop offset="1" stop-color="#BFBFBF"/>
</linearGradient>
<linearGradient id="paint1_linear_430_44" x1="71.0002" y1="7.34521" x2="71.0002" y2="18.655" gradientUnits="userSpaceOnUse">
<stop stop-color="white"/>
<stop offset="1" stop-color="#BFBFBF"/>
</linearGradient>
<linearGradient id="paint2_linear_430_44" x1="71" y1="2" x2="71" y2="6.17325" gradientUnits="userSpaceOnUse">
<stop stop-color="white"/>
<stop offset="1" stop-color="#BFBFBF"/>
</linearGradient>
<linearGradient id="paint3_linear_430_44" x1="71" y1="19.8267" x2="71" y2="23.9999" gradientUnits="userSpaceOnUse">
<stop stop-color="white"/>
<stop offset="1" stop-color="#BFBFBF"/>
</linearGradient>
<linearGradient id="paint4_linear_430_44" x1="79.9133" y1="12.2051" x2="79.9133" y2="13.7945" gradientUnits="userSpaceOnUse">
<stop stop-color="white"/>
<stop offset="1" stop-color="#BFBFBF"/>
</linearGradient>
<linearGradient id="paint5_linear_430_44" x1="62.0867" y1="12.2051" x2="62.0867" y2="13.7945" gradientUnits="userSpaceOnUse">
<stop stop-color="white"/>
<stop offset="1" stop-color="#BFBFBF"/>
</linearGradient>
<linearGradient id="paint6_linear_430_44" x1="77.3056" y1="4.98682" x2="77.3056" y2="8.40466" gradientUnits="userSpaceOnUse">
<stop stop-color="white"/>
<stop offset="1" stop-color="#BFBFBF"/>
</linearGradient>
<linearGradient id="paint7_linear_430_44" x1="64.6979" y1="17.5942" x2="64.6979" y2="21.0121" gradientUnits="userSpaceOnUse">
<stop stop-color="white"/>
<stop offset="1" stop-color="#BFBFBF"/>
</linearGradient>
<linearGradient id="paint8_linear_430_44" x1="77.3029" y1="17.5942" x2="77.3029" y2="21.0121" gradientUnits="userSpaceOnUse">
<stop stop-color="white"/>
<stop offset="1" stop-color="#BFBFBF"/>
</linearGradient>
<linearGradient id="paint9_linear_430_44" x1="64.6979" y1="4.98682" x2="64.6979" y2="8.40466" gradientUnits="userSpaceOnUse">
<stop stop-color="white"/>
<stop offset="1" stop-color="#BFBFBF"/>
</linearGradient>
<linearGradient id="paint10_linear_430_44" x1="26.3263" y1="26.7578" x2="26.3263" y2="30.9168" gradientUnits="userSpaceOnUse">
<stop stop-color="white"/>
<stop offset="1" stop-color="#BFBFBF"/>
</linearGradient>
<linearGradient id="paint11_linear_430_44" x1="56.6737" y1="26.7578" x2="56.6737" y2="30.9168" gradientUnits="userSpaceOnUse">
<stop stop-color="white"/>
<stop offset="1" stop-color="#BFBFBF"/>
</linearGradient>
<linearGradient id="paint12_linear_430_44" x1="41.5" y1="20" x2="41.5" y2="49.3485" gradientUnits="userSpaceOnUse">
<stop stop-color="white"/>
<stop offset="1" stop-color="#BFBFBF"/>
</linearGradient>
<linearGradient id="paint13_linear_430_44" x1="41.5" y1="47.0176" x2="41.5" y2="63.2393" gradientUnits="userSpaceOnUse">
<stop stop-color="white"/>
<stop offset="1" stop-color="#BFBFBF"/>
</linearGradient>
<clipPath id="clip0_430_44">
<rect width="83.75" height="83.75" fill="white"/>
</clipPath>
</defs>
</svg>
