<svg width="84" height="84" viewBox="0 0 84 84" fill="none" xmlns="http://www.w3.org/2000/svg">
<path d="M81.8348 14.9985C80.8041 20.9217 75.2241 24.8769 69.3763 23.8329C65.3028 23.1061 62.1786 20.1435 61 16.4134C61.6771 16.6878 62.3928 16.8979 63.1407 17.0329C68.9906 18.0769 74.5684 14.1217 75.5991 8.19857C75.912 6.39783 75.7641 4.6271 75.2499 3C79.8762 4.87577 82.7348 9.8321 81.8348 14.9985Z" fill="url(#paint0_linear_527_42)"/>
<g filter="url(#filter0_d_527_42)">
<path d="M61.7638 67H22.2511C17.4139 67 15.5919 63.8429 18.1713 59.9644L35.4196 34.1504V21.1649H33.2261C32.6587 21.1783 32.1092 20.9663 31.698 20.5753C31.2868 20.1843 31.0475 19.6463 31.0325 19.0792C31.0493 18.5133 31.2895 17.9771 31.7005 17.5877C32.1115 17.1982 32.6599 16.9871 33.2261 17.0006H50.7888C51.355 16.9871 51.9034 17.1982 52.3144 17.5877C52.7254 17.9771 52.9656 18.5133 52.9824 19.0792C52.9674 19.6463 52.7281 20.1843 52.3169 20.5753C51.9057 20.9663 51.3562 21.1783 50.7888 21.1649H48.5881V34.1504L65.8437 59.9644C68.4088 63.8429 66.5582 67 61.7566 67H61.7638ZM29.7964 50.3288H54.2185L44.887 36.3647L44.1724 35.3504V21.1649H39.7782V35.3576L39.0637 36.3719L29.7392 50.3288H29.7964Z" fill="url(#paint1_linear_527_42)"/>
</g>
<defs>
<filter id="filter0_d_527_42" x="13" y="17" width="58" height="58" filterUnits="userSpaceOnUse" color-interpolation-filters="sRGB">
<feFlood flood-opacity="0" result="BackgroundImageFix"/>
<feColorMatrix in="SourceAlpha" type="matrix" values="0 0 0 0 0 0 0 0 0 0 0 0 0 0 0 0 0 0 127 0" result="hardAlpha"/>
<feOffset dy="4"/>
<feGaussianBlur stdDeviation="2"/>
<feComposite in2="hardAlpha" operator="out"/>
<feColorMatrix type="matrix" values="0 0 0 0 0 0 0 0 0 0 0 0 0 0 0 0 0 0 0.25 0"/>
<feBlend mode="normal" in2="BackgroundImageFix" result="effect1_dropShadow_527_42"/>
<feBlend mode="normal" in="SourceGraphic" in2="effect1_dropShadow_527_42" result="shape"/>
</filter>
<linearGradient id="paint0_linear_527_42" x1="71.5" y1="3" x2="71.5" y2="24" gradientUnits="userSpaceOnUse">
<stop stop-color="white"/>
<stop offset="1" stop-color="#BFBFBF"/>
</linearGradient>
<linearGradient id="paint1_linear_527_42" x1="42" y1="17" x2="42" y2="67" gradientUnits="userSpaceOnUse">
<stop stop-color="white"/>
<stop offset="1" stop-color="#BFBFBF"/>
</linearGradient>
</defs>
</svg>
