<svg width="84" height="84" viewBox="0 0 84 84" fill="none" xmlns="http://www.w3.org/2000/svg">
<g filter="url(#filter0_d_723_228)">
<path fill-rule="evenodd" clip-rule="evenodd" d="M49.626 16.1022C48.5311 16.3523 47.7889 16.8766 47.1558 17.8765C46.6813 18.6132 37.2148 57.6689 37.2148 58.8811C37.2148 60.2926 38.0547 61.6924 39.2835 62.3418C39.4903 62.4545 44.0773 63.6661 49.4795 65.0405C57.0112 66.9646 59.4814 67.5515 60.053 67.5515C61.3794 67.5391 62.7782 66.6767 63.3504 65.4899C63.4963 65.1903 65.7476 56.1694 68.4367 45.0876C68.7746 43.6948 69.0901 42.3958 69.3844 41.184C73.1352 25.7407 73.4456 24.4629 73.0224 23.5113C72.9842 23.4255 72.94 23.3423 72.8919 23.2516C72.8493 23.1713 72.8035 23.0851 72.756 22.9859C72.3665 22.186 71.8679 21.6616 71.0528 21.2369C70.6392 21.0246 51.694 16.1393 50.7818 16.0142C50.5141 15.9771 49.9908 16.0149 49.626 16.1022ZM34.1001 17.9884C34.6964 16.9762 35.7183 16.2395 36.8132 16.0642C37.5802 15.9398 37.884 15.9893 40.1963 16.5762C40.4749 16.6467 40.7269 16.7101 40.9547 16.7675L40.9548 16.7675C42.6943 17.2055 43.0224 17.2881 43.0451 17.4224C43.0504 17.4536 43.0392 17.4876 43.0253 17.5295C43.0194 17.5475 43.0129 17.567 43.0071 17.5884C42.9729 17.6939 41.8871 22.1733 40.3276 28.6065L40.3274 28.6072L40.3236 28.6231C39.6586 31.3663 38.9077 34.464 38.1156 37.7289C33.6376 56.2201 33.297 57.6694 33.2849 58.7188C33.2849 59.331 33.3458 60.1557 33.4308 60.5302C33.6985 61.7301 34.4775 63.2041 35.3047 64.1037C35.7672 64.6156 35.9619 64.9159 35.816 64.8658C35.7184 64.8292 34.5983 64.547 33.0787 64.1642L33.0782 64.1641L33.0768 64.1637C32.5132 64.0218 31.8947 63.8659 31.2531 63.7037C28.8806 63.1038 26.6901 62.5039 26.3863 62.3541C25.6682 62.0167 24.853 61.1673 24.5365 60.4299C24.3906 60.1049 24.2561 59.4802 24.232 59.0308C24.1832 58.2941 24.5968 56.4819 29.0018 38.3536C32.4089 24.2728 33.9053 18.3506 34.1001 17.9884ZM20.8136 18.0875C21.3122 17.0629 22.4927 16.2135 23.6485 16.0637L23.652 16.0632C23.8214 16.0392 23.954 16.0204 24.0872 16.0132C24.5667 15.9871 25.0544 16.1108 27.2979 16.6799L27.383 16.7014C29.817 17.3013 29.89 17.3385 29.7802 17.601C29.7193 17.7384 28.0522 24.5479 26.0692 32.7311L25.0644 36.8872L25.0643 36.8875C20.2563 56.7726 20.0482 57.6336 20.0546 58.493C20.0549 58.5319 20.0556 58.5708 20.0564 58.6115V58.6115C20.0575 58.6707 20.0587 58.7335 20.0587 58.8055C20.0587 60.83 20.74 62.6415 22.0417 64.1031C22.4921 64.6028 22.6868 64.903 22.553 64.8653C22.4191 64.8151 20.3993 64.3031 18.0509 63.7156C15.7152 63.1157 13.5127 62.5034 13.1721 62.3536C12.369 61.979 11.7118 61.2918 11.3102 60.417C11.2858 60.3624 11.262 60.3114 11.2392 60.2625C11.1992 60.1766 11.1622 60.0971 11.1298 60.0157C10.7277 59.0061 11.0426 57.7111 15.2645 40.3451L15.7761 38.2404C18.4411 27.3077 20.6677 18.3996 20.8136 18.0875ZM61.4664 35.7715C60.6033 34.3697 59.1741 33.4338 57.1787 32.9636C56.3352 32.7648 55.5357 32.6963 54.7804 32.758C54.0413 32.8236 53.4421 32.9477 52.9826 33.1305C52.5394 33.3171 52.1244 33.5617 51.7375 33.8643C51.3548 34.1508 51.1124 34.359 51.0104 34.4891C50.4228 35.2409 50.096 35.746 50.03 36.0043C49.8733 36.618 50.1407 37.2545 50.8322 37.9139C51.2446 38.3193 51.6536 38.5697 52.0592 38.6653C52.7568 38.8296 53.3952 38.5521 53.9745 37.8326L54.1948 37.5763C54.3254 37.4016 54.5858 37.2575 54.9759 37.144C55.3661 37.0305 55.8451 37.0407 56.4128 37.1744C56.9969 37.312 57.4119 37.5725 57.658 37.9557C57.9041 38.339 57.9838 38.7002 57.8972 39.0393C57.7364 39.6691 57.0395 39.8387 55.8066 39.5482C55.2388 39.4145 54.8067 39.3554 54.5103 39.3712C53.8564 39.4397 53.3852 40.0391 53.0965 41.1695C52.8325 42.203 52.8927 42.8763 53.2771 43.1895C53.4712 43.3722 53.6615 43.5026 53.8479 43.5808C54.0343 43.6589 54.3952 43.7611 54.9306 43.8872C55.4821 44.0172 55.9093 44.2976 56.212 44.7284C56.5351 45.147 56.6409 45.5742 56.5296 46.0102C56.4182 46.4462 56.1144 46.7941 55.6181 47.0538C55.1259 47.2973 54.4499 47.3178 53.5902 47.1152C53.217 47.0273 52.8887 46.8986 52.6053 46.7291C51.9412 46.2987 51.5941 45.806 51.5639 45.2511C51.5138 44.5716 51.3777 44.0944 51.1556 43.8195C50.9859 43.6083 50.5766 43.4263 49.9277 43.2734C48.3379 42.8988 47.4234 43.1798 47.1842 44.1164C47.0976 44.4555 47.0755 44.9125 47.1178 45.4875L47.1046 45.7412C47.112 45.9141 47.1477 46.1451 47.2114 46.434C47.4031 47.2325 47.6866 47.907 48.0619 48.4577C49.071 49.8939 50.5489 50.8413 52.4956 51.3C54.4585 51.7625 56.2311 51.5895 57.8135 50.7811C59.4 49.9565 60.4139 48.6803 60.8552 46.9524C61.0779 46.0804 61.0082 45.2422 60.6461 44.4378C60.5174 44.1336 60.3238 43.8141 60.0654 43.4793C59.8273 43.1321 59.6374 42.899 59.4958 42.7801L59.5391 42.6105C60.9653 42.2789 61.8578 41.4106 62.2166 40.0057C62.5796 38.5847 62.3295 37.1733 61.4664 35.7715Z" fill="url(#paint0_linear_723_228)"/>
</g>
<defs>
<filter id="filter0_d_723_228" x="7" y="16" width="70.167" height="59.5515" filterUnits="userSpaceOnUse" color-interpolation-filters="sRGB">
<feFlood flood-opacity="0" result="BackgroundImageFix"/>
<feColorMatrix in="SourceAlpha" type="matrix" values="0 0 0 0 0 0 0 0 0 0 0 0 0 0 0 0 0 0 127 0" result="hardAlpha"/>
<feOffset dy="4"/>
<feGaussianBlur stdDeviation="2"/>
<feComposite in2="hardAlpha" operator="out"/>
<feColorMatrix type="matrix" values="0 0 0 0 0 0 0 0 0 0 0 0 0 0 0 0 0 0 0.25 0"/>
<feBlend mode="normal" in2="BackgroundImageFix" result="effect1_dropShadow_723_228"/>
<feBlend mode="normal" in="SourceGraphic" in2="effect1_dropShadow_723_228" result="shape"/>
</filter>
<linearGradient id="paint0_linear_723_228" x1="42.0835" y1="16" x2="42.0835" y2="67.5515" gradientUnits="userSpaceOnUse">
<stop stop-color="white"/>
<stop offset="1" stop-color="#BFBFBF"/>
</linearGradient>
</defs>
</svg>
