<svg width="84" height="84" viewBox="0 0 84 84" fill="none" xmlns="http://www.w3.org/2000/svg">
<g clip-path="url(#clip0_1316_842)">
<path d="M81.8348 14.9985C80.8041 20.9217 75.2241 24.8769 69.3763 23.8329C65.3028 23.1061 62.1786 20.1435 61 16.4134C61.6771 16.6878 62.3928 16.8979 63.1407 17.0329C68.9906 18.0769 74.5684 14.1217 75.5991 8.19857C75.912 6.39783 75.7641 4.6271 75.2499 3C79.8762 4.87577 82.7348 9.8321 81.8348 14.9985Z" fill="url(#paint0_linear_1316_842)"/>
<g filter="url(#filter0_d_1316_842)">
<path d="M42 23.25C46.9708 23.2566 51.7361 25.2342 55.2509 28.7491C58.7658 32.2639 60.7434 37.0292 60.75 42C60.7434 46.9708 58.7658 51.7361 55.2509 55.2509C51.7361 58.7658 46.9708 60.7434 42 60.75C37.0292 60.7434 32.2639 58.7658 28.7491 55.2509C25.2342 51.7361 23.2566 46.9708 23.25 42C23.2566 37.0292 25.2342 32.2639 28.7491 28.7491C32.2639 25.2342 37.0292 23.2566 42 23.25ZM42 17C35.3696 17 29.0107 19.6339 24.3223 24.3223C19.6339 29.0107 17 35.3696 17 42C17 48.6304 19.6339 54.9893 24.3223 59.6777C29.0107 64.3661 35.3696 67 42 67C48.6304 67 54.9893 64.3661 59.6777 59.6777C64.3661 54.9893 67 48.6304 67 42C67 35.3696 64.3661 29.0107 59.6777 24.3223C54.9893 19.6339 48.6304 17 42 17ZM50.475 46.0333L45.1333 40.675V29.5H38.8417V42C38.8458 42.4436 38.9445 42.8813 39.1313 43.2837C39.3182 43.6861 39.5888 44.044 39.925 44.3334L46.0583 50.4584L50.475 46.0333Z" fill="url(#paint1_linear_1316_842)"/>
</g>
<g filter="url(#filter1_d_1316_842)">
<path d="M12.2497 13.1628C12.1812 13.2584 11.9765 13.8322 11.826 14.4324C10.9787 17.5319 9.70843 18.8022 6.55237 19.7581C4.57101 20.3591 4.50325 20.7141 6.2521 21.1781C7.7827 21.588 9.20346 22.298 9.96804 23.0351C10.7198 23.7722 11.4708 25.2606 11.8945 26.8588C12.1135 27.7328 12.2361 27.9652 12.4544 27.9923C12.8231 28.0472 12.9601 27.8283 13.2332 26.7362C13.5613 25.3982 14.2717 23.9233 14.9407 23.1998C15.6511 22.4349 16.9898 21.7249 18.5746 21.2608C19.9134 20.8787 20.0639 20.7967 19.9818 20.4275C19.9547 20.25 19.6131 20.086 18.6702 19.813C15.4735 18.8842 14.1754 17.601 13.2596 14.4738C13.082 13.8044 12.8773 13.2177 12.836 13.1357C12.714 12.944 12.4273 12.9575 12.2497 13.1628Z" fill="url(#paint2_linear_1316_842)"/>
</g>
<g filter="url(#filter2_d_1316_842)">
<path d="M16.8331 62.1086C16.7875 62.1722 16.651 62.5548 16.5507 62.9549C15.9858 65.0213 15.139 65.8681 13.0349 66.5054C11.714 66.906 11.6688 67.1427 12.8347 67.4521C13.8551 67.7253 14.8023 68.1987 15.312 68.6901C15.8132 69.1815 16.3139 70.1737 16.5963 71.2392C16.7423 71.8219 16.8241 71.9768 16.9696 71.9948C17.2154 72.0314 17.3067 71.8855 17.4888 71.1575C17.7075 70.2655 18.1811 69.2822 18.6271 68.7998C19.1007 68.2899 19.9932 67.8166 21.0498 67.5072C21.9422 67.2525 22.0426 67.1978 21.9879 66.9517C21.9698 66.8333 21.7421 66.724 21.1135 66.542C18.9823 65.9228 18.1169 65.0674 17.5064 62.9825C17.388 62.5363 17.2515 62.1451 17.224 62.0905C17.1427 61.9627 16.9515 61.9717 16.8331 62.1086Z" fill="url(#paint3_linear_1316_842)"/>
</g>
<g filter="url(#filter3_d_1316_842)">
<path d="M76.8331 30.1086C76.7875 30.1722 76.651 30.5548 76.5507 30.9549C75.9858 33.0213 75.139 33.8681 73.0349 34.5054C71.714 34.906 71.6688 35.1427 72.8347 35.4521C73.8551 35.7253 74.8023 36.1987 75.312 36.6901C75.8132 37.1815 76.3139 38.1737 76.5963 39.2392C76.7423 39.8219 76.8241 39.9768 76.9696 39.9948C77.2154 40.0314 77.3067 39.8855 77.4888 39.1575C77.7075 38.2655 78.1811 37.2822 78.6271 36.7998C79.1007 36.2899 79.9932 35.8166 81.0498 35.5072C81.9422 35.2525 82.0426 35.1978 81.9879 34.9517C81.9698 34.8333 81.7421 34.724 81.1135 34.542C78.9823 33.9228 78.1169 33.0674 77.5064 30.9825C77.388 30.5363 77.2515 30.1451 77.224 30.0905C77.1427 29.9627 76.9515 29.9717 76.8331 30.1086Z" fill="url(#paint4_linear_1316_842)"/>
</g>
<g filter="url(#filter4_d_1316_842)">
<path d="M46.8331 3.10855C46.7875 3.17223 46.651 3.5548 46.5507 3.95495C45.9858 6.02126 45.139 6.86813 43.0349 7.50542C41.714 7.90604 41.6688 8.14271 42.8347 8.45208C43.8551 8.72534 44.8023 9.19868 45.312 9.69007C45.8132 10.1815 46.3139 11.1737 46.5963 12.2392C46.7423 12.8219 46.8241 12.9768 46.9696 12.9948C47.2154 13.0314 47.3067 12.8855 47.4888 12.1575C47.7075 11.2655 48.1811 10.2822 48.6271 9.79985C49.1007 9.28992 49.9932 8.81659 51.0498 8.50721C51.9422 8.25249 52.0426 8.19783 51.9879 7.95166C51.9698 7.83333 51.7421 7.72403 51.1135 7.54201C48.9823 6.92278 48.1169 6.06736 47.5064 3.98251C47.388 3.53627 47.2515 3.14515 47.224 3.0905C47.1427 2.96266 46.9515 2.97169 46.8331 3.10855Z" fill="url(#paint5_linear_1316_842)"/>
</g>
</g>
<defs>
<filter id="filter0_d_1316_842" x="13" y="17" width="58" height="58" filterUnits="userSpaceOnUse" color-interpolation-filters="sRGB">
<feFlood flood-opacity="0" result="BackgroundImageFix"/>
<feColorMatrix in="SourceAlpha" type="matrix" values="0 0 0 0 0 0 0 0 0 0 0 0 0 0 0 0 0 0 127 0" result="hardAlpha"/>
<feOffset dy="4"/>
<feGaussianBlur stdDeviation="2"/>
<feComposite in2="hardAlpha" operator="out"/>
<feColorMatrix type="matrix" values="0 0 0 0 0 0 0 0 0 0 0 0 0 0 0 0 0 0 0.25 0"/>
<feBlend mode="normal" in2="BackgroundImageFix" result="effect1_dropShadow_1316_842"/>
<feBlend mode="normal" in="SourceGraphic" in2="effect1_dropShadow_1316_842" result="shape"/>
</filter>
<filter id="filter1_d_1316_842" x="1" y="13" width="23" height="23" filterUnits="userSpaceOnUse" color-interpolation-filters="sRGB">
<feFlood flood-opacity="0" result="BackgroundImageFix"/>
<feColorMatrix in="SourceAlpha" type="matrix" values="0 0 0 0 0 0 0 0 0 0 0 0 0 0 0 0 0 0 127 0" result="hardAlpha"/>
<feOffset dy="4"/>
<feGaussianBlur stdDeviation="2"/>
<feComposite in2="hardAlpha" operator="out"/>
<feColorMatrix type="matrix" values="0 0 0 0 0 0 0 0 0 0 0 0 0 0 0 0 0 0 0.25 0"/>
<feBlend mode="normal" in2="BackgroundImageFix" result="effect1_dropShadow_1316_842"/>
<feBlend mode="normal" in="SourceGraphic" in2="effect1_dropShadow_1316_842" result="shape"/>
</filter>
<filter id="filter2_d_1316_842" x="8" y="62" width="18" height="18" filterUnits="userSpaceOnUse" color-interpolation-filters="sRGB">
<feFlood flood-opacity="0" result="BackgroundImageFix"/>
<feColorMatrix in="SourceAlpha" type="matrix" values="0 0 0 0 0 0 0 0 0 0 0 0 0 0 0 0 0 0 127 0" result="hardAlpha"/>
<feOffset dy="4"/>
<feGaussianBlur stdDeviation="2"/>
<feComposite in2="hardAlpha" operator="out"/>
<feColorMatrix type="matrix" values="0 0 0 0 0 0 0 0 0 0 0 0 0 0 0 0 0 0 0.25 0"/>
<feBlend mode="normal" in2="BackgroundImageFix" result="effect1_dropShadow_1316_842"/>
<feBlend mode="normal" in="SourceGraphic" in2="effect1_dropShadow_1316_842" result="shape"/>
</filter>
<filter id="filter3_d_1316_842" x="68" y="30" width="18" height="18" filterUnits="userSpaceOnUse" color-interpolation-filters="sRGB">
<feFlood flood-opacity="0" result="BackgroundImageFix"/>
<feColorMatrix in="SourceAlpha" type="matrix" values="0 0 0 0 0 0 0 0 0 0 0 0 0 0 0 0 0 0 127 0" result="hardAlpha"/>
<feOffset dy="4"/>
<feGaussianBlur stdDeviation="2"/>
<feComposite in2="hardAlpha" operator="out"/>
<feColorMatrix type="matrix" values="0 0 0 0 0 0 0 0 0 0 0 0 0 0 0 0 0 0 0.25 0"/>
<feBlend mode="normal" in2="BackgroundImageFix" result="effect1_dropShadow_1316_842"/>
<feBlend mode="normal" in="SourceGraphic" in2="effect1_dropShadow_1316_842" result="shape"/>
</filter>
<filter id="filter4_d_1316_842" x="38" y="3" width="18" height="18" filterUnits="userSpaceOnUse" color-interpolation-filters="sRGB">
<feFlood flood-opacity="0" result="BackgroundImageFix"/>
<feColorMatrix in="SourceAlpha" type="matrix" values="0 0 0 0 0 0 0 0 0 0 0 0 0 0 0 0 0 0 127 0" result="hardAlpha"/>
<feOffset dy="4"/>
<feGaussianBlur stdDeviation="2"/>
<feComposite in2="hardAlpha" operator="out"/>
<feColorMatrix type="matrix" values="0 0 0 0 0 0 0 0 0 0 0 0 0 0 0 0 0 0 0.25 0"/>
<feBlend mode="normal" in2="BackgroundImageFix" result="effect1_dropShadow_1316_842"/>
<feBlend mode="normal" in="SourceGraphic" in2="effect1_dropShadow_1316_842" result="shape"/>
</filter>
<linearGradient id="paint0_linear_1316_842" x1="71.5" y1="3" x2="71.5" y2="24" gradientUnits="userSpaceOnUse">
<stop stop-color="#FBB03B"/>
<stop offset="1" stop-color="#F78140"/>
</linearGradient>
<linearGradient id="paint1_linear_1316_842" x1="42" y1="17" x2="42" y2="67" gradientUnits="userSpaceOnUse">
<stop stop-color="#FBB03B"/>
<stop offset="1" stop-color="#F78140"/>
</linearGradient>
<linearGradient id="paint2_linear_1316_842" x1="12.5" y1="28" x2="12.5" y2="13" gradientUnits="userSpaceOnUse">
<stop stop-color="#F78140"/>
<stop offset="1" stop-color="#FBB03B"/>
</linearGradient>
<linearGradient id="paint3_linear_1316_842" x1="17" y1="72" x2="17" y2="62" gradientUnits="userSpaceOnUse">
<stop stop-color="#F78140"/>
<stop offset="1" stop-color="#FBB03B"/>
</linearGradient>
<linearGradient id="paint4_linear_1316_842" x1="77" y1="40" x2="77" y2="30" gradientUnits="userSpaceOnUse">
<stop stop-color="#F78140"/>
<stop offset="1" stop-color="#FBB03B"/>
</linearGradient>
<linearGradient id="paint5_linear_1316_842" x1="47" y1="13" x2="47" y2="3" gradientUnits="userSpaceOnUse">
<stop stop-color="#F78140"/>
<stop offset="1" stop-color="#FBB03B"/>
</linearGradient>
<clipPath id="clip0_1316_842">
<rect width="83.75" height="83.75" fill="white"/>
</clipPath>
</defs>
</svg>
