<svg width="84" height="84" viewBox="0 0 84 84" fill="none" xmlns="http://www.w3.org/2000/svg">
<g clip-path="url(#clip0_69_35)">
<path d="M51 40C54.3138 40 57 37.3138 57 34C57 30.6863 54.3138 28 51 28C47.6862 28 45 30.6863 45 34C45 37.3138 47.6862 40 51 40Z" fill="url(#paint0_linear_69_35)"/>
<path fill-rule="evenodd" clip-rule="evenodd" d="M42.5 13C26.7599 13 14 25.7599 14 41.5C14 57.2402 26.7599 70 42.5 70C58.2402 70 71 57.2402 71 41.5C71 25.7599 58.2402 13 42.5 13ZM67.1563 42.0313C67.1563 39.8019 66.8605 37.6415 66.3059 35.5875C63.66 24.8998 54.0053 16.9767 42.5 16.9767C30.9781 16.9767 21.3121 24.9227 18.6829 35.6336C18.2049 37.4174 17.922 39.2811 17.8585 41.2002L19.8406 39.4864C22.3026 37.4038 26.0131 37.5231 28.3264 39.7597L39.916 50.965C41.7726 52.7604 44.6953 53.0051 46.8437 51.5452L47.6494 50.9979C50.7407 48.8972 54.9232 49.1407 57.7319 51.5846L62.6828 55.9266L62.7957 56.0357C65.5456 52.0581 67.1563 47.2328 67.1563 42.0313Z" fill="url(#paint1_linear_69_35)"/>
<g filter="url(#filter0_d_69_35)">
<path d="M71.2497 8.16283C71.1812 8.25835 70.9765 8.8322 70.826 9.43242C69.9787 12.5319 68.7084 13.8022 65.5524 14.7581C63.571 15.3591 63.5033 15.7141 65.2521 16.1781C66.7827 16.588 68.2035 17.298 68.968 18.0351C69.7198 18.7722 70.4708 20.2606 70.8945 21.8588C71.1135 22.7328 71.2361 22.9652 71.4544 22.9923C71.8231 23.0472 71.9601 22.8283 72.2332 21.7362C72.5613 20.3982 73.2717 18.9233 73.9407 18.1998C74.6511 17.4349 75.9898 16.7249 77.5746 16.2608C78.9134 15.8787 79.0639 15.7967 78.9818 15.4275C78.9547 15.25 78.6131 15.086 77.6702 14.813C74.4735 13.8842 73.1754 12.601 72.2596 9.47377C72.082 8.8044 71.8773 8.21772 71.836 8.13574C71.714 7.94399 71.4273 7.95753 71.2497 8.16283Z" fill="url(#paint2_linear_69_35)"/>
</g>
<g filter="url(#filter1_d_69_35)">
<path d="M18.8331 66.1086C18.7875 66.1722 18.651 66.5548 18.5507 66.9549C17.9858 69.0213 17.139 69.8681 15.0349 70.5054C13.714 70.906 13.6688 71.1427 14.8347 71.4521C15.8551 71.7253 16.8023 72.1987 17.312 72.6901C17.8132 73.1815 18.3139 74.1737 18.5963 75.2392C18.7423 75.8219 18.8241 75.9768 18.9696 75.9948C19.2154 76.0314 19.3067 75.8855 19.4888 75.1575C19.7075 74.2655 20.1811 73.2822 20.6271 72.7998C21.1007 72.2899 21.9932 71.8166 23.0498 71.5072C23.9422 71.2525 24.0426 71.1978 23.9879 70.9517C23.9698 70.8333 23.7421 70.724 23.1135 70.542C20.9823 69.9228 20.1169 69.0674 19.5064 66.9825C19.388 66.5363 19.2515 66.1451 19.224 66.0905C19.1427 65.9627 18.9515 65.9717 18.8331 66.1086Z" fill="url(#paint3_linear_69_35)"/>
</g>
<g filter="url(#filter2_d_69_35)">
<path d="M14.2497 4.16283C14.1812 4.25835 13.9765 4.8322 13.826 5.43242C12.9787 8.53189 11.7084 9.80219 8.55237 10.7581C6.57101 11.3591 6.50325 11.7141 8.2521 12.1781C9.7827 12.588 11.2035 13.298 11.968 14.0351C12.7198 14.7722 13.4708 16.2606 13.8945 17.8588C14.1135 18.7328 14.2361 18.9652 14.4544 18.9923C14.8231 19.0472 14.9601 18.8283 15.2332 17.7362C15.5613 16.3982 16.2717 14.9233 16.9407 14.1998C17.6511 13.4349 18.9898 12.7249 20.5746 12.2608C21.9134 11.8787 22.0639 11.7967 21.9818 11.4275C21.9547 11.25 21.6131 11.086 20.6702 10.813C17.4735 9.88417 16.1754 8.60104 15.2596 5.47377C15.082 4.8044 14.8773 4.21772 14.836 4.13574C14.714 3.94399 14.4273 3.95753 14.2497 4.16283Z" fill="url(#paint4_linear_69_35)"/>
</g>
<g filter="url(#filter3_d_69_35)">
<path d="M73.8331 55.1086C73.7875 55.1722 73.651 55.5548 73.5507 55.9549C72.9858 58.0213 72.139 58.8681 70.0349 59.5054C68.714 59.906 68.6688 60.1427 69.8347 60.4521C70.8551 60.7253 71.8023 61.1987 72.312 61.6901C72.8132 62.1815 73.3139 63.1737 73.5963 64.2392C73.7423 64.8219 73.8241 64.9768 73.9696 64.9948C74.2154 65.0314 74.3067 64.8855 74.4888 64.1575C74.7075 63.2655 75.1811 62.2822 75.6271 61.7998C76.1007 61.2899 76.9932 60.8166 78.0498 60.5072C78.9422 60.2525 79.0426 60.1978 78.9879 59.9517C78.9698 59.8333 78.7421 59.724 78.1135 59.542C75.9823 58.9228 75.1169 58.0674 74.5064 55.9825C74.388 55.5363 74.2515 55.1451 74.224 55.0905C74.1427 54.9627 73.9515 54.9717 73.8331 55.1086Z" fill="url(#paint5_linear_69_35)"/>
</g>
<g filter="url(#filter4_d_69_35)">
<path d="M7.83312 24.1086C7.78747 24.1722 7.651 24.5548 7.55068 24.9549C6.9858 27.0213 6.13895 27.8681 4.03491 28.5054C2.71401 28.906 2.66883 29.1427 3.83473 29.4521C4.85513 29.7253 5.80231 30.1987 6.31203 30.6901C6.8132 31.1815 7.31389 32.1737 7.59633 33.2392C7.7423 33.8219 7.82408 33.9768 7.96958 33.9948C8.21541 34.0314 8.30671 33.8855 8.48882 33.1575C8.70754 32.2655 9.18113 31.2822 9.62714 30.7998C10.1007 30.2899 10.9932 29.8166 12.0498 29.5072C12.9422 29.2525 13.0426 29.1978 12.9879 28.9517C12.9698 28.8333 12.7421 28.724 12.1135 28.542C9.98233 27.9228 9.11694 27.0674 8.50641 24.9825C8.38801 24.5363 8.25155 24.1451 8.22397 24.0905C8.14266 23.9627 7.95152 23.9717 7.83312 24.1086Z" fill="url(#paint6_linear_69_35)"/>
</g>
<g filter="url(#filter5_d_69_35)">
<path d="M69.8331 64.1086C69.7875 64.1722 69.651 64.5548 69.5507 64.9549C68.9858 67.0213 68.139 67.8681 66.0349 68.5054C64.714 68.906 64.6688 69.1427 65.8347 69.4521C66.8551 69.7253 67.8023 70.1987 68.312 70.6901C68.8132 71.1815 69.3139 72.1737 69.5963 73.2392C69.7423 73.8219 69.8241 73.9768 69.9696 73.9948C70.2154 74.0314 70.3067 73.8855 70.4888 73.1575C70.7075 72.2655 71.1811 71.2822 71.6271 70.7998C72.1007 70.2899 72.9932 69.8166 74.0498 69.5072C74.9422 69.2525 75.0426 69.1978 74.9879 68.9517C74.9698 68.8333 74.7421 68.724 74.1135 68.542C71.9823 67.9228 71.1169 67.0674 70.5064 64.9825C70.388 64.5363 70.2515 64.1451 70.224 64.0905C70.1427 63.9627 69.9515 63.9717 69.8331 64.1086Z" fill="url(#paint7_linear_69_35)"/>
</g>
</g>
<defs>
<filter id="filter0_d_69_35" x="60" y="8" width="23" height="23" filterUnits="userSpaceOnUse" color-interpolation-filters="sRGB">
<feFlood flood-opacity="0" result="BackgroundImageFix"/>
<feColorMatrix in="SourceAlpha" type="matrix" values="0 0 0 0 0 0 0 0 0 0 0 0 0 0 0 0 0 0 127 0" result="hardAlpha"/>
<feOffset dy="4"/>
<feGaussianBlur stdDeviation="2"/>
<feComposite in2="hardAlpha" operator="out"/>
<feColorMatrix type="matrix" values="0 0 0 0 0 0 0 0 0 0 0 0 0 0 0 0 0 0 0.25 0"/>
<feBlend mode="normal" in2="BackgroundImageFix" result="effect1_dropShadow_69_35"/>
<feBlend mode="normal" in="SourceGraphic" in2="effect1_dropShadow_69_35" result="shape"/>
</filter>
<filter id="filter1_d_69_35" x="10" y="66" width="18" height="18" filterUnits="userSpaceOnUse" color-interpolation-filters="sRGB">
<feFlood flood-opacity="0" result="BackgroundImageFix"/>
<feColorMatrix in="SourceAlpha" type="matrix" values="0 0 0 0 0 0 0 0 0 0 0 0 0 0 0 0 0 0 127 0" result="hardAlpha"/>
<feOffset dy="4"/>
<feGaussianBlur stdDeviation="2"/>
<feComposite in2="hardAlpha" operator="out"/>
<feColorMatrix type="matrix" values="0 0 0 0 0 0 0 0 0 0 0 0 0 0 0 0 0 0 0.25 0"/>
<feBlend mode="normal" in2="BackgroundImageFix" result="effect1_dropShadow_69_35"/>
<feBlend mode="normal" in="SourceGraphic" in2="effect1_dropShadow_69_35" result="shape"/>
</filter>
<filter id="filter2_d_69_35" x="3" y="4" width="23" height="23" filterUnits="userSpaceOnUse" color-interpolation-filters="sRGB">
<feFlood flood-opacity="0" result="BackgroundImageFix"/>
<feColorMatrix in="SourceAlpha" type="matrix" values="0 0 0 0 0 0 0 0 0 0 0 0 0 0 0 0 0 0 127 0" result="hardAlpha"/>
<feOffset dy="4"/>
<feGaussianBlur stdDeviation="2"/>
<feComposite in2="hardAlpha" operator="out"/>
<feColorMatrix type="matrix" values="0 0 0 0 0 0 0 0 0 0 0 0 0 0 0 0 0 0 0.25 0"/>
<feBlend mode="normal" in2="BackgroundImageFix" result="effect1_dropShadow_69_35"/>
<feBlend mode="normal" in="SourceGraphic" in2="effect1_dropShadow_69_35" result="shape"/>
</filter>
<filter id="filter3_d_69_35" x="65" y="55" width="18" height="18" filterUnits="userSpaceOnUse" color-interpolation-filters="sRGB">
<feFlood flood-opacity="0" result="BackgroundImageFix"/>
<feColorMatrix in="SourceAlpha" type="matrix" values="0 0 0 0 0 0 0 0 0 0 0 0 0 0 0 0 0 0 127 0" result="hardAlpha"/>
<feOffset dy="4"/>
<feGaussianBlur stdDeviation="2"/>
<feComposite in2="hardAlpha" operator="out"/>
<feColorMatrix type="matrix" values="0 0 0 0 0 0 0 0 0 0 0 0 0 0 0 0 0 0 0.25 0"/>
<feBlend mode="normal" in2="BackgroundImageFix" result="effect1_dropShadow_69_35"/>
<feBlend mode="normal" in="SourceGraphic" in2="effect1_dropShadow_69_35" result="shape"/>
</filter>
<filter id="filter4_d_69_35" x="-1" y="24" width="18" height="18" filterUnits="userSpaceOnUse" color-interpolation-filters="sRGB">
<feFlood flood-opacity="0" result="BackgroundImageFix"/>
<feColorMatrix in="SourceAlpha" type="matrix" values="0 0 0 0 0 0 0 0 0 0 0 0 0 0 0 0 0 0 127 0" result="hardAlpha"/>
<feOffset dy="4"/>
<feGaussianBlur stdDeviation="2"/>
<feComposite in2="hardAlpha" operator="out"/>
<feColorMatrix type="matrix" values="0 0 0 0 0 0 0 0 0 0 0 0 0 0 0 0 0 0 0.25 0"/>
<feBlend mode="normal" in2="BackgroundImageFix" result="effect1_dropShadow_69_35"/>
<feBlend mode="normal" in="SourceGraphic" in2="effect1_dropShadow_69_35" result="shape"/>
</filter>
<filter id="filter5_d_69_35" x="61" y="64" width="18" height="18" filterUnits="userSpaceOnUse" color-interpolation-filters="sRGB">
<feFlood flood-opacity="0" result="BackgroundImageFix"/>
<feColorMatrix in="SourceAlpha" type="matrix" values="0 0 0 0 0 0 0 0 0 0 0 0 0 0 0 0 0 0 127 0" result="hardAlpha"/>
<feOffset dy="4"/>
<feGaussianBlur stdDeviation="2"/>
<feComposite in2="hardAlpha" operator="out"/>
<feColorMatrix type="matrix" values="0 0 0 0 0 0 0 0 0 0 0 0 0 0 0 0 0 0 0.25 0"/>
<feBlend mode="normal" in2="BackgroundImageFix" result="effect1_dropShadow_69_35"/>
<feBlend mode="normal" in="SourceGraphic" in2="effect1_dropShadow_69_35" result="shape"/>
</filter>
<linearGradient id="paint0_linear_69_35" x1="51" y1="28" x2="51" y2="40" gradientUnits="userSpaceOnUse">
<stop stop-color="#FBB03B"/>
<stop offset="1" stop-color="#F68140"/>
</linearGradient>
<linearGradient id="paint1_linear_69_35" x1="42.5" y1="13" x2="42.5" y2="70" gradientUnits="userSpaceOnUse">
<stop stop-color="#FBB03B"/>
<stop offset="1" stop-color="#F68140"/>
</linearGradient>
<linearGradient id="paint2_linear_69_35" x1="71.5" y1="23" x2="71.5" y2="8" gradientUnits="userSpaceOnUse">
<stop stop-color="#F78140"/>
<stop offset="1" stop-color="#FBB03B"/>
</linearGradient>
<linearGradient id="paint3_linear_69_35" x1="19" y1="76" x2="19" y2="66" gradientUnits="userSpaceOnUse">
<stop stop-color="#F78140"/>
<stop offset="1" stop-color="#FBB03B"/>
</linearGradient>
<linearGradient id="paint4_linear_69_35" x1="14.5" y1="19" x2="14.5" y2="4" gradientUnits="userSpaceOnUse">
<stop stop-color="#F78140"/>
<stop offset="1" stop-color="#FBB03B"/>
</linearGradient>
<linearGradient id="paint5_linear_69_35" x1="74" y1="65" x2="74" y2="55" gradientUnits="userSpaceOnUse">
<stop stop-color="#F78140"/>
<stop offset="1" stop-color="#FBB03B"/>
</linearGradient>
<linearGradient id="paint6_linear_69_35" x1="8" y1="34" x2="8" y2="24" gradientUnits="userSpaceOnUse">
<stop stop-color="#F78140"/>
<stop offset="1" stop-color="#FBB03B"/>
</linearGradient>
<linearGradient id="paint7_linear_69_35" x1="70" y1="74" x2="70" y2="64" gradientUnits="userSpaceOnUse">
<stop stop-color="#F78140"/>
<stop offset="1" stop-color="#FBB03B"/>
</linearGradient>
<clipPath id="clip0_69_35">
<rect width="84" height="84" fill="white"/>
</clipPath>
</defs>
</svg>
