<svg width="84" height="84" viewBox="0 0 84 84" fill="none" xmlns="http://www.w3.org/2000/svg">
<g filter="url(#filter0_d_1107_117)">
<path d="M67.8827 42.0097C67.6684 42.8972 67.4638 43.2594 66.8856 43.7752C66.0702 44.5041 65.7302 44.6137 64.3044 44.6076C62.8475 44.603 61.9176 44.3532 60.0003 43.4602L58.9019 42.9487V41.2194C58.9063 39.6395 58.8532 39.4115 58.5804 38.5794C58.0933 37.2123 57.0631 35.8143 55.9827 35.0567L55.5053 34.7217L56.4961 33.8045C57.5521 32.8274 58.1522 31.9432 58.6252 30.6674C59.0052 29.6468 59.01 27.2862 58.6252 25.9845C57.7694 23.0019 55.2676 20.9007 51.6728 20.1452C51.2587 20.0582 47.5309 19.613 43.391 19.1564C39.2511 18.6999 35.8783 18.3123 35.8964 18.2955C36.0084 18.1896 41.1479 16.9183 43.1664 16.4971C52.8555 14.4757 59.4514 14.501 63.3029 16.5746C64.8787 17.4231 66.1374 19.0808 66.5251 20.8202C66.7784 21.9453 66.7492 22.5666 66.4131 23.5407C65.5334 26.0767 65.6795 29.0339 66.9504 34.4243C67.9431 38.6329 68.1896 40.677 67.8661 42.0098L67.8827 42.0097ZM57.4781 54.6465C57.254 55.5634 56.8093 56.5879 56.3232 57.3007L55.9286 57.8757H44.525L33.1213 57.8757L33.0385 59.027C32.9898 59.6602 32.9703 60.1935 32.9898 60.2122C32.9898 60.2305 38.1283 60.2837 44.3632 60.3299L55.7002 60.4138L55.8804 60.8419C56.4118 62.0912 56.4591 65.0049 55.9681 66.2001C55.2126 68.0379 53.4483 69.3153 50.9314 69.8469C50.3537 69.9688 48.1042 70 39.9213 70L29.6375 69.9998L28.6697 69.7431C26.4908 69.1657 24.3271 67.8787 23.2194 66.502C21.9992 64.9848 21.5915 63.6402 21.5915 61.1353V59.6333L20.855 58.9538C20.4507 58.5803 19.8823 57.989 19.5939 57.6402C17.4969 55.1026 16.9445 51.7207 18.0824 48.3907L18.4283 47.3749L18.0434 47.0797C16.794 46.1224 15.8578 44.8386 15.3312 43.3609C15.039 42.5383 15.0049 42.285 15 40.7425C15 38.8211 15.1413 38.1226 15.8359 36.7363C16.3459 35.7199 16.9913 34.8226 17.9285 33.828L18.6509 33.061L18.4755 32.1773C18.2368 30.9991 18.2076 27.7481 18.4268 26.9107C18.6606 26.0101 19.6548 24.1314 20.3621 23.255C20.9938 22.4723 22.102 21.6081 23.0416 21.1658C24.4075 20.5228 26.5873 20.0802 28.3871 20.0802C28.9897 20.0802 34.2368 20.6089 40.2954 21.2802C51.9309 22.5694 51.9397 22.5708 53.5053 23.4033C54.8916 24.1408 55.8775 25.4162 56.2038 26.8946C56.2818 27.2384 56.3207 28.0356 56.2915 28.6666C56.2428 29.6856 56.199 29.898 55.8434 30.569C55.327 31.5472 54.307 32.509 53.2865 32.9799L52.4999 33.3429H40.764L29.0282 33.3429L28.2254 32.9854L27.4232 32.6279L26.5473 33.4578C26.0651 33.9143 25.7061 34.3411 25.7495 34.4065C25.9053 34.6453 27.2351 35.3196 28.0603 35.5789L28.9069 35.8452L40.5823 35.9034C50.9022 35.9552 52.3162 35.9831 52.7614 36.144C54.1531 36.6483 55.2393 37.5923 55.8628 38.8392C56.2038 39.518 56.2525 39.7426 56.2915 40.8241C56.3646 42.8063 55.9505 44.4057 55.1327 45.2547L54.7089 45.6952L42.5639 45.6952H30.4184V46.89V48.0848L43.334 48.1123L56.2496 48.1398L56.7026 48.9936C56.951 49.4632 57.2404 50.1548 57.3456 50.5305C57.6135 51.492 57.6817 53.7651 57.4674 54.6441L57.4781 54.6465Z" fill="url(#paint0_linear_1107_117)"/>
</g>
<defs>
<filter id="filter0_d_1107_117" x="11" y="15" width="61" height="63" filterUnits="userSpaceOnUse" color-interpolation-filters="sRGB">
<feFlood flood-opacity="0" result="BackgroundImageFix"/>
<feColorMatrix in="SourceAlpha" type="matrix" values="0 0 0 0 0 0 0 0 0 0 0 0 0 0 0 0 0 0 127 0" result="hardAlpha"/>
<feOffset dy="4"/>
<feGaussianBlur stdDeviation="2"/>
<feComposite in2="hardAlpha" operator="out"/>
<feColorMatrix type="matrix" values="0 0 0 0 0 0 0 0 0 0 0 0 0 0 0 0 0 0 0.25 0"/>
<feBlend mode="normal" in2="BackgroundImageFix" result="effect1_dropShadow_1107_117"/>
<feBlend mode="normal" in="SourceGraphic" in2="effect1_dropShadow_1107_117" result="shape"/>
</filter>
<linearGradient id="paint0_linear_1107_117" x1="38.9519" y1="15" x2="40.4237" y2="70.0015" gradientUnits="userSpaceOnUse">
<stop stop-color="white"/>
<stop offset="1" stop-color="#BFBFBF"/>
</linearGradient>
</defs>
</svg>
