<svg width="84" height="84" viewBox="0 0 84 84" fill="none" xmlns="http://www.w3.org/2000/svg">
<path d="M81.8348 14.9985C80.8041 20.9217 75.2241 24.8769 69.3763 23.8329C65.3028 23.1061 62.1786 20.1435 61 16.4134C61.6771 16.6878 62.3928 16.8979 63.1407 17.0329C68.9906 18.0769 74.5684 14.1217 75.5991 8.19857C75.912 6.39783 75.7641 4.6271 75.2499 3C79.8762 4.87577 82.7348 9.8321 81.8348 14.9985Z" fill="url(#paint0_linear_734_296)"/>
<g filter="url(#filter0_d_734_296)">
<path d="M36.6711 13C36.5441 13 36.3204 13.0634 35.972 13.3786C35.6235 13.6941 35.2088 14.2341 34.804 14.9334C33.9946 16.332 33.2122 18.3492 32.5591 20.4961C32.0089 22.3049 31.554 24.2073 31.2101 25.9307C38.1168 28.8574 44.8833 28.8574 51.7899 25.9307C51.4461 24.2073 50.9911 22.3049 50.4409 20.4961C49.7878 18.3492 49.0056 16.332 48.196 14.9334C47.7912 14.2341 47.3763 13.6941 47.028 13.3786C46.6796 13.0634 46.4559 13 46.3289 13C45.5029 13 45.1735 13.1675 44.9537 13.3473C44.7338 13.5269 44.5699 13.8115 44.3999 14.2416C44.2298 14.6718 44.0953 15.2194 43.6946 15.7992C43.2938 16.3789 42.4362 16.8992 41.5 16.8992C40.5555 16.8992 39.6905 16.388 39.2819 15.804C38.8735 15.2198 38.7406 14.6665 38.5733 14.2344C38.4061 13.8024 38.2461 13.5196 38.0328 13.3431C37.8193 13.1669 37.4971 13 36.6711 13ZM30.8116 28.1499C30.6324 29.2805 30.5198 30.2409 30.485 30.904C31.325 31.5238 32.7388 32.1233 34.5186 32.5248C36.5669 32.987 39.0347 33.2269 41.5 33.2269C43.9653 33.2269 46.4331 32.987 48.4815 32.5248C50.2612 32.1233 51.6749 31.5238 52.5151 30.904C52.4802 30.2407 52.3676 29.2805 52.1886 28.1499C45.1032 30.9929 37.8968 30.9929 30.8116 28.1499ZM28.2772 29.5836C25.8366 29.993 23.6128 30.4835 21.6797 31.0007C19.1536 31.6767 17.1171 32.4006 15.765 33.0197C15.0889 33.3295 14.5817 33.6186 14.3044 33.8203C14.2574 33.8544 14.273 33.8576 14.2478 33.8868C14.2901 33.9693 14.352 34.0642 14.4677 34.1889C14.7184 34.4589 15.1747 34.7972 15.8181 35.1325C17.105 35.8031 19.1149 36.4677 21.6286 37.0219C26.656 38.1301 33.7107 38.8319 41.5 38.8319C49.2893 38.8319 56.344 38.1301 61.3714 37.0219C63.8849 36.4677 65.895 35.8031 67.1819 35.1325C67.8253 34.7972 68.2815 34.4589 68.5323 34.1889C68.648 34.0642 68.7099 33.9693 68.7522 33.8868C68.727 33.8576 68.7426 33.8544 68.6956 33.8202C68.4183 33.6186 67.9111 33.3295 67.235 33.0199C65.8829 32.4006 63.8464 31.6767 61.3203 31.0008C59.3872 30.4835 57.1634 29.9929 54.7228 29.5836C54.8001 30.2888 54.8429 30.9076 54.8429 31.3992V31.8535L54.5078 32.1745C53.2217 33.4078 51.2773 34.1473 49.0052 34.6601C46.733 35.1727 44.1178 35.4202 41.5 35.4202C38.8823 35.4202 36.267 35.1727 33.9949 34.6601C31.7227 34.1473 29.7783 33.4078 28.4922 32.1745L28.1571 31.8537V31.3992C28.1571 30.9076 28.1999 30.2888 28.2772 29.5836ZM28.4162 40.3313C28.6092 48.235 34.4651 54.4286 41.5 54.4286C48.5349 54.4286 54.3908 48.235 54.5837 40.3313C53.768 40.4232 52.9511 40.505 52.1331 40.5766C51.9641 41.2165 51.2584 43.653 50.1411 44.3151C48.4116 45.3401 45.8198 45.2602 44.0415 44.3151C43.0267 43.7758 42.1525 41.9761 41.746 41.0237C41.6637 41.024 41.5825 41.0252 41.5 41.0252C41.4174 41.0252 41.3363 41.024 41.254 41.0237C40.8473 41.9761 39.9733 43.7758 38.9585 44.3151C37.1802 45.2602 34.5884 45.3401 32.8589 44.3151C31.7416 43.653 31.0359 41.2165 30.8669 40.5766C30.0489 40.505 29.232 40.4232 28.4162 40.3313ZM26.4289 43.244C20.4014 44.856 16.6132 47.1739 12 50.6867C17.4102 51.228 20.5758 53.2843 24.8683 56.6231L27.0194 58.2963L24.2636 58.5657C22.5274 58.7354 20.6489 59.6163 19.2696 60.6737C18.5167 61.251 17.9762 61.8995 17.6231 62.4229C23.3008 63.1375 26.9584 63.6519 30.0778 64.8778C32.4418 65.8068 34.5013 67.1796 36.9065 69.2377L37.5805 66.365C37.3469 65.1789 37.0552 63.9422 36.7063 62.673C36.0557 61.792 35.474 60.8616 35.0371 59.9915C34.5886 59.0985 34.2567 58.3277 34.2567 57.4748C34.2567 57.0748 34.3757 56.6954 34.5653 56.3619C34.2848 55.6717 33.9907 54.9867 33.6831 54.3072C29.9874 51.9314 27.3018 47.9273 26.4289 43.244ZM56.5711 43.244C55.6981 47.9273 53.0126 51.9314 49.3169 54.3072C49.0093 54.9866 48.7152 55.6716 48.4347 56.3617C48.6245 56.6952 48.7433 57.0746 48.7433 57.4748C48.7433 58.3277 48.4114 59.0985 47.963 59.9915C47.5259 60.8617 46.944 61.7924 46.2933 62.6733C45.9403 63.9585 45.6453 65.2102 45.4102 66.41L46.0634 69.2637C48.4816 67.191 50.5483 65.8107 52.9222 64.8778C56.0416 63.652 59.6991 63.1375 65.3769 62.4229C65.0237 61.8994 64.4833 61.251 63.7304 60.6738C62.3511 59.6163 60.4726 58.7354 58.7364 58.5658L55.9806 58.2963L58.1317 56.6231C62.4242 53.2844 65.5898 51.228 71 50.6867C66.3868 47.1739 62.5986 44.8561 56.5711 43.244ZM41.5 56.6218C40.4834 56.6218 39.0103 56.6338 37.9122 56.8443C37.3631 56.9496 36.921 57.1151 36.7185 57.2494C36.5162 57.3838 36.5441 57.3529 36.5441 57.4748C36.5441 57.5966 36.7204 58.288 37.0981 59.0401C37.4757 59.7921 38.019 60.6631 38.6184 61.4678C39.2179 62.2725 39.8797 63.0151 40.4566 63.5156C40.9744 63.9648 41.4531 64.1396 41.5 64.1707C41.547 64.1396 42.0256 63.9648 42.5433 63.5156C43.1202 63.0151 43.7821 62.2725 44.3816 61.4678C44.981 60.663 45.5243 59.7921 45.902 59.0401C46.2796 58.288 46.4559 57.5966 46.4559 57.4748C46.4559 57.3529 46.4839 57.3838 46.2815 57.2494C46.079 57.1151 45.6369 56.9496 45.0878 56.8443C43.9897 56.6338 42.5166 56.6218 41.5 56.6218ZM41.5 64.1707C41.4947 64.1744 41.4935 64.1765 41.5 64.1765C41.5065 64.1765 41.5053 64.1743 41.5 64.1707ZM40.0198 65.962L38.8374 71H44.1186L42.9676 65.9695C42.5372 66.2126 42.0654 66.3697 41.5 66.3697C40.9292 66.3697 40.4535 66.2094 40.0198 65.962Z" fill="url(#paint1_linear_734_296)"/>
</g>
<defs>
<filter id="filter0_d_734_296" x="8" y="13" width="67" height="66" filterUnits="userSpaceOnUse" color-interpolation-filters="sRGB">
<feFlood flood-opacity="0" result="BackgroundImageFix"/>
<feColorMatrix in="SourceAlpha" type="matrix" values="0 0 0 0 0 0 0 0 0 0 0 0 0 0 0 0 0 0 127 0" result="hardAlpha"/>
<feOffset dy="4"/>
<feGaussianBlur stdDeviation="2"/>
<feComposite in2="hardAlpha" operator="out"/>
<feColorMatrix type="matrix" values="0 0 0 0 0 0 0 0 0 0 0 0 0 0 0 0 0 0 0.25 0"/>
<feBlend mode="normal" in2="BackgroundImageFix" result="effect1_dropShadow_734_296"/>
<feBlend mode="normal" in="SourceGraphic" in2="effect1_dropShadow_734_296" result="shape"/>
</filter>
<linearGradient id="paint0_linear_734_296" x1="71.5" y1="3" x2="71.5" y2="24" gradientUnits="userSpaceOnUse">
<stop stop-color="white"/>
<stop offset="1" stop-color="#BFBFBF"/>
</linearGradient>
<linearGradient id="paint1_linear_734_296" x1="41.5" y1="13" x2="41.5" y2="71" gradientUnits="userSpaceOnUse">
<stop stop-color="white"/>
<stop offset="1" stop-color="#BFBFBF"/>
</linearGradient>
</defs>
</svg>
