<svg width="84" height="84" viewBox="0 0 84 84" fill="none" xmlns="http://www.w3.org/2000/svg">
<path d="M81.8348 14.9985C80.8041 20.9217 75.2241 24.8769 69.3763 23.8329C65.3028 23.1061 62.1786 20.1435 61 16.4134C61.6771 16.6878 62.3928 16.8979 63.1407 17.0329C68.9906 18.0769 74.5684 14.1217 75.5991 8.19857C75.912 6.39783 75.7641 4.6271 75.2499 3C79.8762 4.87577 82.7348 9.8321 81.8348 14.9985Z" fill="url(#paint0_linear_849_285)"/>
<g filter="url(#filter0_d_849_285)">
<path d="M51.093 18.7456C49.6241 19.2626 49.0017 21.0138 49.8124 22.3301C50.1884 22.9645 51.1517 23.5408 51.7864 23.5408C53.1844 23.5408 54.3242 22.424 54.3242 21.0725C54.3242 19.4158 52.644 18.2051 51.093 18.7456Z" fill="url(#paint1_linear_849_285)"/>
<path d="M38.2158 18.8987C33.751 19.5924 29.5449 21.4492 26.126 24.2115C24.8688 25.2338 22.7775 27.4081 21.8142 28.7131C20.6979 30.2178 20.1106 31.2049 19.2882 32.9208C15.9167 39.925 16.0928 48.3521 19.7234 55.2517C20.9101 57.4964 22.0969 59.1184 23.953 61.0227C27.8887 65.0656 32.6474 67.5338 38.2398 68.4035C40.0607 68.6858 43.6679 68.6858 45.4536 68.4035C50.1297 67.6747 54.3241 65.7944 57.8134 62.8678C62.642 58.825 65.6502 53.477 66.6252 47.2242C66.9191 45.3791 66.9191 41.2653 66.6369 40.3369C66.3548 39.4202 65.9793 38.9267 65.3094 38.5622C64.5925 38.1743 64.3696 38.1626 63.0655 38.4918C62.1609 38.7271 61.9726 38.7383 61.2328 38.6092C60.1634 38.4209 59.294 37.9977 58.519 37.2929C57.767 36.5993 57.3323 35.8357 57.0267 34.6603C56.6741 33.2735 56.3333 32.78 55.4756 32.4156C54.7353 32.1098 53.9955 32.1803 53.1379 32.6391C51.9981 33.25 50.9761 33.544 49.8011 33.6145C47.5924 33.7436 45.6419 32.9795 44.0439 31.3698C42.5398 29.8534 41.8704 28.2318 41.8704 26.081C41.8704 24.8234 42.0939 23.9067 42.7046 22.6609C43.4684 21.0741 43.2567 19.9226 42.0582 19.0998C41.5062 18.7354 41.4475 18.7237 40.3546 18.7354C39.7317 18.7456 38.7684 18.8161 38.2158 18.8987ZM33.4576 31.2396C34.7735 31.5218 36.1245 32.2624 37.1 33.2378C38.5449 34.6832 39.2618 36.2466 39.3674 38.233C39.5322 41.2061 37.9694 43.9214 35.2903 45.3316C34.2092 45.8961 33.199 46.1426 31.8831 46.1544C30.5204 46.1661 29.7801 45.99 28.4877 45.3786C27.078 44.7084 25.7617 43.3921 25.0923 41.9819C24.8341 41.4414 24.5637 40.7478 24.4933 40.4543C23.577 36.564 25.7739 32.6263 29.5336 31.4397C29.9566 31.2988 30.4265 31.1692 30.5913 31.1457C31.2724 31.0278 32.7056 31.0747 33.4576 31.2396ZM47.8383 46.2952C48.3904 46.5188 48.872 46.9771 49.1776 47.5646C49.5302 48.2465 49.448 49.4337 49.0016 50.0564C48.4965 50.7969 47.9557 51.0904 47.0394 51.1379C46.4169 51.1731 46.1582 51.1379 45.7939 50.9501C44.1842 50.1156 43.8434 48.1291 45.1006 46.8715C45.8291 46.1426 46.922 45.9079 47.8383 46.2952ZM60.069 48.6931C60.7507 48.8809 61.3496 49.3862 61.667 50.0211C62.0548 50.8087 62.0548 51.514 61.6553 52.3128C60.7859 54.0522 58.3772 54.1931 57.2966 52.5593C57.0027 52.1245 56.9675 51.9484 56.9675 51.1609C56.9675 50.3733 57.0144 50.1972 57.2848 49.7741C57.919 48.8222 59.0353 48.3874 60.069 48.6931ZM40.6128 56.4741C40.8715 56.6267 41.2592 56.9794 41.4587 57.2499C41.7761 57.7199 41.8113 57.8491 41.8113 58.6718C41.8113 59.4711 41.7761 59.6477 41.4822 60.0821C40.4011 61.7158 37.9929 61.575 37.1235 59.8355C36.724 59.0363 36.724 58.3309 37.1235 57.5321C37.7811 56.2153 39.3087 55.757 40.6128 56.4741Z" fill="url(#paint2_linear_849_285)"/>
<path d="M63.4293 23.8584C62.5482 24.3168 61.9722 25.1982 61.9604 26.0797C61.9604 26.832 62.489 27.7604 63.1707 28.1718C64.6865 29.1002 66.66 28.1014 66.86 26.315C66.9773 25.3514 66.4018 24.3637 65.4737 23.8819C64.9217 23.6119 63.9227 23.5884 63.4293 23.8584Z" fill="url(#paint3_linear_849_285)"/>
</g>
<defs>
<filter id="filter0_d_849_285" x="12.875" y="18.6152" width="58" height="58" filterUnits="userSpaceOnUse" color-interpolation-filters="sRGB">
<feFlood flood-opacity="0" result="BackgroundImageFix"/>
<feColorMatrix in="SourceAlpha" type="matrix" values="0 0 0 0 0 0 0 0 0 0 0 0 0 0 0 0 0 0 127 0" result="hardAlpha"/>
<feOffset dy="4"/>
<feGaussianBlur stdDeviation="2"/>
<feComposite in2="hardAlpha" operator="out"/>
<feColorMatrix type="matrix" values="0 0 0 0 0 0 0 0 0 0 0 0 0 0 0 0 0 0 0.25 0"/>
<feBlend mode="normal" in2="BackgroundImageFix" result="effect1_dropShadow_849_285"/>
<feBlend mode="normal" in="SourceGraphic" in2="effect1_dropShadow_849_285" result="shape"/>
</filter>
<linearGradient id="paint0_linear_849_285" x1="71.5" y1="3" x2="71.5" y2="24" gradientUnits="userSpaceOnUse">
<stop stop-color="white"/>
<stop offset="1" stop-color="#BFBFBF"/>
</linearGradient>
<linearGradient id="paint1_linear_849_285" x1="51.889" y1="23.5408" x2="51.889" y2="18.6152" gradientUnits="userSpaceOnUse">
<stop stop-color="white"/>
<stop offset="1" stop-color="#BFBFBF"/>
</linearGradient>
<linearGradient id="paint2_linear_849_285" x1="41.861" y1="68.6152" x2="41.861" y2="18.7327" gradientUnits="userSpaceOnUse">
<stop stop-color="white"/>
<stop offset="1" stop-color="#BFBFBF"/>
</linearGradient>
<linearGradient id="paint3_linear_849_285" x1="64.4178" y1="28.5251" x2="64.4178" y2="23.6673" gradientUnits="userSpaceOnUse">
<stop stop-color="white"/>
<stop offset="1" stop-color="#BFBFBF"/>
</linearGradient>
</defs>
</svg>
