<svg width="84" height="84" viewBox="0 0 84 84" fill="none" xmlns="http://www.w3.org/2000/svg">
<g filter="url(#filter0_d_924_174)">
<path d="M44.7239 32.2251C46.6987 32.7754 48.0981 33.7709 48.9223 35.2117C49.7465 36.6524 49.9601 38.0788 49.5632 39.4907C49.1708 40.8866 48.2605 41.723 46.8323 41.9998L46.785 42.1682C46.923 42.2932 47.1061 42.5346 47.3345 42.8923C47.5834 43.2385 47.7682 43.5668 47.8887 43.8772C48.229 44.6987 48.2774 45.5427 48.0339 46.4091C47.5513 48.1259 46.5099 49.3669 44.9098 50.1321C43.3142 50.8813 41.545 50.9853 39.6024 50.4439C37.6758 49.9071 36.2281 48.8981 35.2594 47.4171C34.8996 46.8497 34.6342 46.1615 34.4634 45.3527C34.4072 45.0602 34.3775 44.827 34.3744 44.6531L34.3939 44.399C34.3662 43.8203 34.3996 43.3625 34.4944 43.0256C34.756 42.095 35.6735 41.8489 37.2468 42.2873C37.889 42.4663 38.2919 42.6651 38.4556 42.8837C38.6699 43.1683 38.7934 43.6526 38.8262 44.3365C38.8424 44.8946 39.1757 45.4027 39.826 45.8608C40.104 46.042 40.4276 46.1841 40.7969 46.287C41.6478 46.5241 42.3213 46.5301 42.8174 46.305C43.318 46.0639 43.6292 45.7267 43.751 45.2935C43.8728 44.8603 43.7781 44.4273 43.4669 43.9946C43.1763 43.5503 42.7581 43.2521 42.2122 43.1C41.6824 42.9523 41.3256 42.8356 41.142 42.7499C40.9584 42.6641 40.7722 42.5257 40.5835 42.3347C40.2087 42.0053 40.1656 41.3272 40.4542 40.3004C40.77 39.1772 41.2542 38.5941 41.9068 38.5511C42.2023 38.5469 42.631 38.6231 43.193 38.7797C44.4131 39.1197 45.1112 38.9768 45.2871 38.3511C45.3818 38.0141 45.3115 37.6485 45.0761 37.2542C44.8407 36.8599 44.434 36.5822 43.856 36.4211C43.2941 36.2645 42.8175 36.2355 42.4262 36.3341C42.0349 36.4327 41.7721 36.5671 41.6377 36.7373L41.412 36.9858C40.8172 37.6851 40.1746 37.9386 39.4842 37.7463C39.0829 37.6344 38.682 37.367 38.2815 36.944C37.6095 36.255 37.3593 35.6056 37.5307 34.9959C37.6028 34.7392 37.9408 34.2451 38.5446 33.5137C38.6494 33.3872 38.8959 33.1877 39.2842 32.9153C39.6769 32.6268 40.0962 32.3976 40.5422 32.2277C41.0042 32.0623 41.6039 31.9613 42.3413 31.9245C43.0949 31.8923 43.889 31.9925 44.7239 32.2251Z" fill="url(#paint0_linear_924_174)"/>
</g>
<g filter="url(#filter1_d_924_174)">
<path d="M62.4249 17.9728L37.4272 11.2336C35.3136 10.6638 32.4772 11.3885 32.0105 13.1198L19.0276 61.2772C18.4668 63.357 20.4622 65.7521 22.5758 66.3219L47.5734 73.0612C49.687 73.631 52.2674 72.4694 52.8281 70.3896L65.7186 22.5751C66.2721 20.4993 64.5385 18.5426 62.4249 17.9728ZM45.9053 17.6074L51.8919 19.2214L51.5176 20.6098L45.531 18.9959L45.9053 17.6074ZM35.4582 67.5639C34.0473 67.1835 32.9224 65.7648 33.3891 64.0334C33.7634 62.645 35.193 61.547 36.9525 62.0214C38.3634 62.4018 39.4883 63.8205 39.0216 65.5519C38.5548 67.2832 37.2177 68.0383 35.4582 67.5639ZM50.5433 63.4543L24.8373 56.5242L34.6438 20.149L60.3441 27.0776L50.5376 63.4528L50.5433 63.4543Z" fill="url(#paint1_linear_924_174)"/>
</g>
<defs>
<filter id="filter0_d_924_174" x="28.9314" y="30.3662" width="26.5598" height="29.9634" filterUnits="userSpaceOnUse" color-interpolation-filters="sRGB">
<feFlood flood-opacity="0" result="BackgroundImageFix"/>
<feColorMatrix in="SourceAlpha" type="matrix" values="0 0 0 0 0 0 0 0 0 0 0 0 0 0 0 0 0 0 127 0" result="hardAlpha"/>
<feOffset dy="4"/>
<feGaussianBlur stdDeviation="2"/>
<feComposite in2="hardAlpha" operator="out"/>
<feColorMatrix type="matrix" values="0 0 0 0 0 0 0 0 0 0 0 0 0 0 0 0 0 0 0.25 0"/>
<feBlend mode="normal" in2="BackgroundImageFix" result="effect1_dropShadow_924_174"/>
<feBlend mode="normal" in="SourceGraphic" in2="effect1_dropShadow_924_174" result="shape"/>
</filter>
<filter id="filter1_d_924_174" x="14.9319" y="11.0422" width="54.8909" height="70.1633" filterUnits="userSpaceOnUse" color-interpolation-filters="sRGB">
<feFlood flood-opacity="0" result="BackgroundImageFix"/>
<feColorMatrix in="SourceAlpha" type="matrix" values="0 0 0 0 0 0 0 0 0 0 0 0 0 0 0 0 0 0 127 0" result="hardAlpha"/>
<feOffset dy="4"/>
<feGaussianBlur stdDeviation="2"/>
<feComposite in2="hardAlpha" operator="out"/>
<feColorMatrix type="matrix" values="0 0 0 0 0 0 0 0 0 0 0 0 0 0 0 0 0 0 0.25 0"/>
<feBlend mode="normal" in2="BackgroundImageFix" result="effect1_dropShadow_924_174"/>
<feBlend mode="normal" in="SourceGraphic" in2="effect1_dropShadow_924_174" result="shape"/>
</filter>
<linearGradient id="paint0_linear_924_174" x1="45.8146" y1="26.9233" x2="37.9664" y2="55.0881" gradientUnits="userSpaceOnUse">
<stop stop-color="white"/>
<stop offset="1" stop-color="#BFBFBF"/>
</linearGradient>
<linearGradient id="paint1_linear_924_174" x1="49.7518" y1="14.5562" x2="34.9004" y2="69.6446" gradientUnits="userSpaceOnUse">
<stop stop-color="white"/>
<stop offset="1" stop-color="#BFBFBF"/>
</linearGradient>
</defs>
</svg>
