<svg width="84" height="85" viewBox="0 0 84 85" fill="none" xmlns="http://www.w3.org/2000/svg">
<g clip-path="url(#clip0_849_250)">
<g filter="url(#filter0_d_849_250)">
<path d="M70.9994 18.7355C73.6837 18.7355 75.8597 16.5595 75.8597 13.8753C75.8597 11.1911 73.6837 9.01514 70.9994 9.01514C68.3152 9.01514 66.1392 11.1911 66.1392 13.8753C66.1392 16.5595 68.3152 18.7355 70.9994 18.7355Z" fill="url(#paint0_linear_849_250)"/>
<path d="M71.0002 19.53C67.882 19.53 65.3452 16.9932 65.3452 13.8751C65.3452 10.7569 67.882 8.22021 71.0002 8.22021C74.1184 8.22021 76.6551 10.7569 76.6551 13.8751C76.6551 16.9932 74.1184 19.53 71.0002 19.53ZM71.0002 9.8096C68.7575 9.8096 66.9346 11.6324 66.9346 13.8751C66.9346 16.1177 68.7575 17.9406 71.0002 17.9406C73.2428 17.9406 75.0657 16.1177 75.0657 13.8751C75.0657 11.6324 73.2428 9.8096 71.0002 9.8096Z" fill="url(#paint1_linear_849_250)"/>
<path d="M71 7.04825C70.56 7.04825 70.2053 6.69356 70.2053 6.25356V3.66969C70.2053 3.23194 70.56 2.875 71 2.875C71.4378 2.875 71.7947 3.22969 71.7947 3.66969V6.25356C71.7947 6.69131 71.4378 7.04825 71 7.04825Z" fill="url(#paint2_linear_849_250)"/>
<path d="M71 24.8749C70.56 24.8749 70.2053 24.5202 70.2053 24.0802V21.4964C70.2053 21.0586 70.56 20.7017 71 20.7017C71.4378 20.7017 71.7947 21.0586 71.7947 21.4964V24.0802C71.7947 24.5202 71.4378 24.8749 71 24.8749Z" fill="url(#paint3_linear_849_250)"/>
<path d="M81.2053 14.6695H78.6214C78.1836 14.6695 77.8267 14.3148 77.8267 13.8748C77.8267 13.4348 78.1836 13.0801 78.6214 13.0801H81.2053C81.643 13.0801 82 13.4348 82 13.8748C82 14.3125 81.6453 14.6695 81.2053 14.6695Z" fill="url(#paint4_linear_849_250)"/>
<path d="M63.3786 14.6695H60.7947C60.3569 14.6695 60 14.3125 60 13.8748C60 13.4348 60.3569 13.0801 60.7947 13.0801H63.3786C63.8186 13.0801 64.1733 13.4348 64.1733 13.8748C64.1733 14.3125 63.8164 14.6695 63.3786 14.6695Z" fill="url(#paint5_linear_849_250)"/>
<path d="M76.3907 9.27966C76.1865 9.27966 75.9844 9.20109 75.8295 9.04619C75.5197 8.7364 75.5197 8.23354 75.8295 7.9215L77.6569 6.09416C77.9667 5.78437 78.4695 5.78437 78.7816 6.09416C79.0914 6.40396 79.0914 6.90681 78.7816 7.21885L76.952 9.04844C76.7971 9.20334 76.5928 9.27966 76.3907 9.27966Z" fill="url(#paint6_linear_849_250)"/>
<path d="M63.7831 21.8871C63.5788 21.8871 63.3768 21.8085 63.2219 21.6536C62.9121 21.3438 62.9121 20.841 63.2219 20.5289L65.0492 18.7016C65.359 18.3918 65.8619 18.3918 66.1739 18.7016C66.4837 19.0114 66.4837 19.5142 66.1739 19.8263L64.3466 21.6536C64.1917 21.8085 63.9874 21.8871 63.7831 21.8871Z" fill="url(#paint7_linear_849_250)"/>
<path d="M78.2154 21.8871C78.0111 21.8871 77.8091 21.8085 77.6542 21.6536L75.8268 19.8263C75.517 19.5165 75.517 19.0136 75.8268 18.7016C76.1366 18.3918 76.6395 18.3918 76.9515 18.7016L78.7789 20.5289C79.0887 20.8387 79.0887 21.3416 78.7789 21.6536C78.624 21.8085 78.4197 21.8871 78.2154 21.8871Z" fill="url(#paint8_linear_849_250)"/>
<path d="M65.6104 9.27966C65.4062 9.27966 65.2041 9.20109 65.0492 9.04619L63.2219 7.21885C62.9121 6.90906 62.9121 6.4062 63.2219 6.09416C63.5316 5.78437 64.0345 5.78437 64.3466 6.09416L66.1739 7.9215C66.4837 8.2313 66.4837 8.73415 66.1739 9.04619C66.019 9.20334 65.8147 9.27966 65.6104 9.27966Z" fill="url(#paint9_linear_849_250)"/>
</g>
<g filter="url(#filter1_d_849_250)">
<path d="M51.093 18.866C49.6241 19.383 49.0017 21.1342 49.8124 22.4505C50.1884 23.0849 51.1517 23.6611 51.7864 23.6611C53.1844 23.6611 54.3242 22.5444 54.3242 21.1929C54.3242 19.5361 52.644 18.3255 51.093 18.866Z" fill="url(#paint10_linear_849_250)"/>
<path d="M38.2158 19.0191C33.751 19.7127 29.5449 21.5696 26.126 24.3318C24.8688 25.3541 22.7775 27.5284 21.8142 28.8335C20.6979 30.3381 20.1106 31.3253 19.2882 33.0412C15.9167 40.0454 16.0928 48.4725 19.7234 55.372C20.9101 57.6168 22.0969 59.2388 23.953 61.1431C27.8887 65.1859 32.6474 67.6542 38.2398 68.5239C40.0607 68.8062 43.6679 68.8062 45.4536 68.5239C50.1297 67.7951 54.3241 65.9148 57.8134 62.9882C62.642 58.9453 65.6502 53.5974 66.6252 47.3445C66.9191 45.4995 66.9191 41.3857 66.6369 40.4573C66.3548 39.5406 65.9793 39.047 65.3094 38.6826C64.5925 38.2947 64.3696 38.283 63.0655 38.6122C62.1609 38.8475 61.9726 38.8587 61.2328 38.7296C60.1634 38.5412 59.294 38.1181 58.519 37.4133C57.767 36.7196 57.3323 35.9561 57.0267 34.7806C56.6741 33.3939 56.3333 32.9003 55.4756 32.5359C54.7353 32.2302 53.9955 32.3006 53.1379 32.7595C51.9981 33.3704 50.9761 33.6644 49.8011 33.7348C47.5924 33.864 45.6419 33.0999 44.0439 31.4901C42.5398 29.9737 41.8704 28.3522 41.8704 26.2014C41.8704 24.9438 42.0939 24.0271 42.7046 22.7812C43.4684 21.1944 43.2567 20.043 42.0582 19.2202C41.5062 18.8558 41.4475 18.844 40.3546 18.8558C39.7317 18.866 38.7684 18.9364 38.2158 19.0191ZM33.4576 31.36C34.7735 31.6422 36.1245 32.3828 37.1 33.3582C38.5449 34.8036 39.2618 36.3669 39.3674 38.3534C39.5322 41.3265 37.9694 44.0418 35.2903 45.452C34.2092 46.0165 33.199 46.263 31.8831 46.2747C30.5204 46.2865 29.7801 46.1104 28.4877 45.4989C27.078 44.8288 25.7617 43.5125 25.0923 42.1023C24.8341 41.5617 24.5637 40.8681 24.4933 40.5746C23.577 36.6844 25.7739 32.7467 29.5336 31.56C29.9566 31.4192 30.4265 31.2895 30.5913 31.266C31.2724 31.1481 32.7056 31.1951 33.4576 31.36ZM47.8383 46.4156C48.3904 46.6392 48.872 47.0975 49.1776 47.685C49.5302 48.3669 49.448 49.554 49.0016 50.1767C48.4965 50.9173 47.9557 51.2108 47.0394 51.2582C46.4169 51.2935 46.1582 51.2582 45.7939 51.0704C44.1842 50.2359 43.8434 48.2495 45.1006 46.9918C45.8291 46.263 46.922 46.0282 47.8383 46.4156ZM60.069 48.8134C60.7507 49.0013 61.3496 49.5066 61.667 50.1415C62.0548 50.929 62.0548 51.6344 61.6553 52.4332C60.7859 54.1726 58.3772 54.3135 57.2966 52.6797C57.0027 52.2448 56.9675 52.0688 56.9675 51.2812C56.9675 50.4937 57.0144 50.3176 57.2848 49.8945C57.919 48.9426 59.0353 48.5077 60.069 48.8134ZM40.6128 56.5944C40.8715 56.747 41.2592 57.0997 41.4587 57.3702C41.7761 57.8403 41.8113 57.9694 41.8113 58.7922C41.8113 59.5915 41.7761 59.7681 41.4822 60.2024C40.4011 61.8362 37.9929 61.6953 37.1235 59.9559C36.724 59.1566 36.724 58.4512 37.1235 57.6525C37.7811 56.3357 39.3087 55.8773 40.6128 56.5944Z" fill="url(#paint11_linear_849_250)"/>
<path d="M63.4293 23.9788C62.5482 24.4371 61.9722 25.3186 61.9604 26.2C61.9604 26.9524 62.489 27.8808 63.1707 28.2922C64.6865 29.2206 66.66 28.2217 66.86 26.4353C66.9773 25.4717 66.4018 24.4841 65.4737 24.0023C64.9217 23.7323 63.9227 23.7088 63.4293 23.9788Z" fill="url(#paint12_linear_849_250)"/>
</g>
</g>
<defs>
<filter id="filter0_d_849_250" x="56" y="2.875" width="30" height="30" filterUnits="userSpaceOnUse" color-interpolation-filters="sRGB">
<feFlood flood-opacity="0" result="BackgroundImageFix"/>
<feColorMatrix in="SourceAlpha" type="matrix" values="0 0 0 0 0 0 0 0 0 0 0 0 0 0 0 0 0 0 127 0" result="hardAlpha"/>
<feOffset dy="4"/>
<feGaussianBlur stdDeviation="2"/>
<feComposite in2="hardAlpha" operator="out"/>
<feColorMatrix type="matrix" values="0 0 0 0 0 0 0 0 0 0 0 0 0 0 0 0 0 0 0.25 0"/>
<feBlend mode="normal" in2="BackgroundImageFix" result="effect1_dropShadow_849_250"/>
<feBlend mode="normal" in="SourceGraphic" in2="effect1_dropShadow_849_250" result="shape"/>
</filter>
<filter id="filter1_d_849_250" x="12.875" y="18.7356" width="58" height="58" filterUnits="userSpaceOnUse" color-interpolation-filters="sRGB">
<feFlood flood-opacity="0" result="BackgroundImageFix"/>
<feColorMatrix in="SourceAlpha" type="matrix" values="0 0 0 0 0 0 0 0 0 0 0 0 0 0 0 0 0 0 127 0" result="hardAlpha"/>
<feOffset dy="4"/>
<feGaussianBlur stdDeviation="2"/>
<feComposite in2="hardAlpha" operator="out"/>
<feColorMatrix type="matrix" values="0 0 0 0 0 0 0 0 0 0 0 0 0 0 0 0 0 0 0.25 0"/>
<feBlend mode="normal" in2="BackgroundImageFix" result="effect1_dropShadow_849_250"/>
<feBlend mode="normal" in="SourceGraphic" in2="effect1_dropShadow_849_250" result="shape"/>
</filter>
<linearGradient id="paint0_linear_849_250" x1="70.9994" y1="9.01514" x2="70.9994" y2="18.7355" gradientUnits="userSpaceOnUse">
<stop stop-color="white"/>
<stop offset="1" stop-color="#BFBFBF"/>
</linearGradient>
<linearGradient id="paint1_linear_849_250" x1="71.0002" y1="8.22021" x2="71.0002" y2="19.53" gradientUnits="userSpaceOnUse">
<stop stop-color="white"/>
<stop offset="1" stop-color="#BFBFBF"/>
</linearGradient>
<linearGradient id="paint2_linear_849_250" x1="71" y1="2.875" x2="71" y2="7.04825" gradientUnits="userSpaceOnUse">
<stop stop-color="white"/>
<stop offset="1" stop-color="#BFBFBF"/>
</linearGradient>
<linearGradient id="paint3_linear_849_250" x1="71" y1="20.7017" x2="71" y2="24.8749" gradientUnits="userSpaceOnUse">
<stop stop-color="white"/>
<stop offset="1" stop-color="#BFBFBF"/>
</linearGradient>
<linearGradient id="paint4_linear_849_250" x1="79.9133" y1="13.0801" x2="79.9133" y2="14.6695" gradientUnits="userSpaceOnUse">
<stop stop-color="white"/>
<stop offset="1" stop-color="#BFBFBF"/>
</linearGradient>
<linearGradient id="paint5_linear_849_250" x1="62.0867" y1="13.0801" x2="62.0867" y2="14.6695" gradientUnits="userSpaceOnUse">
<stop stop-color="white"/>
<stop offset="1" stop-color="#BFBFBF"/>
</linearGradient>
<linearGradient id="paint6_linear_849_250" x1="77.3056" y1="5.86182" x2="77.3056" y2="9.27966" gradientUnits="userSpaceOnUse">
<stop stop-color="white"/>
<stop offset="1" stop-color="#BFBFBF"/>
</linearGradient>
<linearGradient id="paint7_linear_849_250" x1="64.6979" y1="18.4692" x2="64.6979" y2="21.8871" gradientUnits="userSpaceOnUse">
<stop stop-color="white"/>
<stop offset="1" stop-color="#BFBFBF"/>
</linearGradient>
<linearGradient id="paint8_linear_849_250" x1="77.3029" y1="18.4692" x2="77.3029" y2="21.8871" gradientUnits="userSpaceOnUse">
<stop stop-color="white"/>
<stop offset="1" stop-color="#BFBFBF"/>
</linearGradient>
<linearGradient id="paint9_linear_849_250" x1="64.6979" y1="5.86182" x2="64.6979" y2="9.27966" gradientUnits="userSpaceOnUse">
<stop stop-color="white"/>
<stop offset="1" stop-color="#BFBFBF"/>
</linearGradient>
<linearGradient id="paint10_linear_849_250" x1="51.889" y1="23.6611" x2="51.889" y2="18.7356" gradientUnits="userSpaceOnUse">
<stop stop-color="white"/>
<stop offset="1" stop-color="#BFBFBF"/>
</linearGradient>
<linearGradient id="paint11_linear_849_250" x1="41.861" y1="68.7356" x2="41.861" y2="18.8531" gradientUnits="userSpaceOnUse">
<stop stop-color="white"/>
<stop offset="1" stop-color="#BFBFBF"/>
</linearGradient>
<linearGradient id="paint12_linear_849_250" x1="64.4178" y1="28.6455" x2="64.4178" y2="23.7877" gradientUnits="userSpaceOnUse">
<stop stop-color="white"/>
<stop offset="1" stop-color="#BFBFBF"/>
</linearGradient>
<clipPath id="clip0_849_250">
<rect width="83.75" height="83.75" fill="white" transform="translate(0 0.875)"/>
</clipPath>
</defs>
</svg>
