<svg width="84" height="84" viewBox="0 0 84 84" fill="none" xmlns="http://www.w3.org/2000/svg">
<path d="M81.8348 14.9985C80.8041 20.9217 75.2241 24.8769 69.3763 23.8329C65.3028 23.1061 62.1786 20.1435 61 16.4134C61.6771 16.6878 62.3928 16.8979 63.1407 17.0329C68.9906 18.0769 74.5684 14.1217 75.5991 8.19857C75.912 6.39783 75.7641 4.6271 75.2499 3C79.8762 4.87577 82.7348 9.8321 81.8348 14.9985Z" fill="url(#paint0_linear_760_46)"/>
<g filter="url(#filter0_d_760_46)">
<path d="M61.0351 22.9651C59.7776 21.708 58.0722 21.0018 56.2941 21.0018C54.5159 21.0018 52.8106 21.708 51.553 22.9651L22.0472 52.4708C21.4067 53.0894 20.8959 53.8293 20.5444 54.6474C20.193 55.4656 20.008 56.3455 20.0003 57.2359C19.9925 58.1263 20.1622 59.0093 20.4994 59.8334C20.8365 60.6576 21.3345 61.4063 21.9641 62.0359C22.5937 62.6655 23.3425 63.1635 24.1666 63.5006C24.9907 63.8378 25.8737 64.0075 26.7641 63.9997C27.6545 63.992 28.5345 63.807 29.3526 63.4556C30.1708 63.1041 30.9107 62.5933 31.5293 61.9528L61.0351 32.4472C62.2923 31.1897 62.9985 29.4843 62.9985 27.7062C62.9985 25.928 62.2923 24.2227 61.0351 22.9651ZM56.8498 30.9442C55.2069 32.5863 53.7048 32.8445 52.4969 33.0515C51.4122 33.2385 50.6276 33.3726 49.5882 34.412C48.5488 35.4514 48.4147 36.236 48.2278 37.3215C48.0199 38.5285 47.7625 40.0315 46.1196 41.6736C44.4767 43.3156 42.9746 43.5738 41.7675 43.7817C40.682 43.9678 39.8982 44.1019 38.8588 45.1413C37.8194 46.1807 37.6853 46.9644 37.4984 48.0499C37.2913 49.257 37.034 50.7599 35.3911 52.402C33.7481 54.0441 32.2452 54.3031 31.0381 54.5102C29.9534 54.6971 29.1689 54.8312 28.1294 55.8706C27.8779 56.1222 27.5367 56.2635 27.181 56.2635C26.8252 56.2635 26.4841 56.1222 26.2325 55.8706C25.981 55.6191 25.8397 55.2779 25.8397 54.9222C25.8397 54.5664 25.981 54.2252 26.2325 53.9737C27.8755 52.3316 29.3776 52.0734 30.5846 51.8664C31.6743 51.6803 32.4539 51.5462 33.4941 50.506C34.5344 49.4657 34.6677 48.6828 34.8538 47.5973C35.0616 46.3903 35.319 44.8873 36.9619 43.2452C38.6048 41.6031 40.107 41.345 41.314 41.1379C42.4037 40.9518 43.1833 40.8169 44.2227 39.7775C45.2621 38.7381 45.3962 37.9535 45.584 36.868C45.791 35.6609 46.0484 34.158 47.6913 32.5159C49.3342 30.8738 50.8364 30.6148 52.0434 30.4078C53.1289 30.2208 53.9127 30.0876 54.9529 29.0473C55.2045 28.7958 55.5456 28.6545 55.9014 28.6545C56.2571 28.6545 56.5983 28.7958 56.8498 29.0473C57.1014 29.2989 57.2427 29.64 57.2427 29.9958C57.2427 30.3515 57.1014 30.6927 56.8498 30.9442ZM22.7178 48.0064L47.0886 23.6357L46.1213 22.6676C44.0257 20.572 40.7692 20.4329 38.8463 22.3558L21.4378 39.7641C19.5149 41.687 19.6549 44.9435 21.7496 47.0382L22.7178 48.0064ZM60.3646 36.9116L35.9938 61.2822L36.9611 62.2504C39.0567 64.3459 42.3132 64.4851 44.2361 62.5622L61.6445 45.1539C63.5674 43.231 63.4275 39.9745 61.3327 37.8789L60.3646 36.9116Z" fill="url(#paint1_linear_760_46)"/>
</g>
<defs>
<filter id="filter0_d_760_46" x="16" y="21" width="51" height="51" filterUnits="userSpaceOnUse" color-interpolation-filters="sRGB">
<feFlood flood-opacity="0" result="BackgroundImageFix"/>
<feColorMatrix in="SourceAlpha" type="matrix" values="0 0 0 0 0 0 0 0 0 0 0 0 0 0 0 0 0 0 127 0" result="hardAlpha"/>
<feOffset dy="4"/>
<feGaussianBlur stdDeviation="2"/>
<feComposite in2="hardAlpha" operator="out"/>
<feColorMatrix type="matrix" values="0 0 0 0 0 0 0 0 0 0 0 0 0 0 0 0 0 0 0.25 0"/>
<feBlend mode="normal" in2="BackgroundImageFix" result="effect1_dropShadow_760_46"/>
<feBlend mode="normal" in="SourceGraphic" in2="effect1_dropShadow_760_46" result="shape"/>
</filter>
<linearGradient id="paint0_linear_760_46" x1="71.5" y1="3" x2="71.5" y2="24" gradientUnits="userSpaceOnUse">
<stop stop-color="white"/>
<stop offset="1" stop-color="#BFBFBF"/>
</linearGradient>
<linearGradient id="paint1_linear_760_46" x1="41.5" y1="21" x2="41.5" y2="64" gradientUnits="userSpaceOnUse">
<stop stop-color="white"/>
<stop offset="1" stop-color="#BFBFBF"/>
</linearGradient>
</defs>
</svg>
