<svg width="84" height="84" viewBox="0 0 84 84" fill="none" xmlns="http://www.w3.org/2000/svg">
<path d="M81.8348 14.9985C80.8041 20.9217 75.2241 24.8769 69.3763 23.8329C65.3028 23.1061 62.1786 20.1435 61 16.4134C61.6771 16.6878 62.3928 16.8979 63.1407 17.0329C68.9906 18.0769 74.5684 14.1217 75.5991 8.19857C75.912 6.39783 75.7641 4.6271 75.2499 3C79.8762 4.87577 82.7348 9.8321 81.8348 14.9985Z" fill="url(#paint0_linear_505_38)"/>
<g filter="url(#filter0_d_505_38)">
<path d="M62 50.2085C61.7867 51.9178 61.4898 53.5629 60.9753 55.1438C60.2225 57.4558 59.1016 59.4319 57.2405 60.7064C56.0862 61.4969 54.8315 61.8526 53.5057 61.9612C51.8955 62.0946 50.3271 61.897 48.834 61.1609C46.5044 60.0148 45.1326 57.9547 44.7436 54.9906C44.522 53.3011 44.6223 51.6165 44.7353 49.9319C44.7813 49.2205 44.8315 48.514 44.8733 47.8026C44.9528 46.4886 45.0657 45.1745 45.187 43.8604C45.2915 42.7488 45.3668 41.6373 45.4672 40.5257C45.5843 39.2512 45.7181 37.9815 45.8352 36.7119C45.9314 35.6646 46.0151 34.6173 46.1113 33.5699C46.2326 32.2855 46.358 31.001 46.4793 29.7166C46.5211 29.2621 46.5546 28.8076 46.6006 28.3531C46.6131 28.2444 46.5755 28.2148 46.5044 28.2098C46.4291 28.2049 46.3538 28.2049 46.2786 28.2049C43.5433 28.2049 40.808 28.2049 38.0728 28.1999C37.8637 28.1999 37.7131 28.1901 37.7131 28.5359C37.7131 28.9904 37.6462 29.4449 37.6211 29.8994C37.5291 31.421 37.458 32.9425 37.3409 34.4641C37.1861 36.4995 37.0356 38.5348 36.8515 40.5653C36.6717 42.5315 36.4877 44.4976 36.2409 46.454C35.7767 50.1344 35.2121 53.7852 34.1037 57.2878C33.7148 58.5229 33.2296 59.6986 32.3597 60.578C31.5776 61.3684 30.67 61.7883 29.6495 61.9316C28.4576 62.0996 27.3158 61.9267 26.2451 61.2696C25.3125 60.6916 24.6182 59.8666 24.4091 58.5821C24.2376 57.52 24.5136 56.5863 24.9444 55.6823C25.5216 54.462 26.2995 53.4196 27.0523 52.3575C29.8336 48.4202 31.8327 44.0234 32.6817 38.9498C33.008 36.9984 33.3007 35.0471 33.5266 33.0759C33.6939 31.6334 33.8068 30.181 33.9615 28.7384C34.0159 28.2098 34.0159 28.2098 33.5726 28.2098C32.481 28.2098 31.3852 28.1703 30.2978 28.2296C28.65 28.3185 27.0565 28.694 25.7014 29.9191C24.7227 30.7985 23.8988 31.8557 23.1585 33.0068C23.1042 33.0858 23.0331 33.1599 23.0038 33.2538C22.6692 34.3653 21.8829 34.2122 21.1385 34.1924C20.9503 34.1875 20.9963 34.0837 21.0339 33.9454C21.7658 31.3666 22.6859 28.9113 24.1038 26.7475C25.0406 25.3198 26.0904 24.0354 27.4831 23.2103C28.3865 22.6719 29.3693 22.4644 30.3564 22.3211C32.9452 21.9457 35.5467 22.0099 38.1439 22.0099C45.9272 22.0099 53.7106 22.0099 61.4981 22C61.7992 22 61.8954 22.0642 61.8913 22.4496C61.8703 24.2478 61.8745 26.051 61.8913 27.8492C61.8954 28.1654 61.8076 28.2197 61.565 28.2148C58.5496 28.2049 55.5341 28.2148 52.5144 28.1999C52.2384 28.1999 52.1589 28.2691 52.1422 28.61C52.0586 30.1908 51.9415 31.7717 51.8369 33.3526C51.7867 34.0887 51.7449 34.8198 51.6989 35.5559C51.5943 37.1516 51.4898 38.7473 51.3852 40.3429C51.3392 41.0148 51.289 41.6867 51.2514 42.3536C51.1343 44.3494 51.0673 46.3502 51.1217 48.351C51.1552 49.5416 51.2765 50.7223 51.4898 51.8931C51.7742 53.4443 52.5437 54.4423 53.7901 54.956C55.1368 55.5093 56.4918 55.534 57.8218 54.9066C59.2229 54.2447 59.9214 52.8762 60.3271 51.2509C60.3689 51.0829 60.4358 50.91 60.4358 50.7371C60.4358 50.2629 60.6366 50.1542 61.0046 50.1986C61.3225 50.2431 61.6487 50.2085 62 50.2085Z" fill="url(#paint1_linear_505_38)"/>
</g>
<defs>
<filter id="filter0_d_505_38" x="17" y="22" width="49" height="48" filterUnits="userSpaceOnUse" color-interpolation-filters="sRGB">
<feFlood flood-opacity="0" result="BackgroundImageFix"/>
<feColorMatrix in="SourceAlpha" type="matrix" values="0 0 0 0 0 0 0 0 0 0 0 0 0 0 0 0 0 0 127 0" result="hardAlpha"/>
<feOffset dy="4"/>
<feGaussianBlur stdDeviation="2"/>
<feComposite in2="hardAlpha" operator="out"/>
<feColorMatrix type="matrix" values="0 0 0 0 0 0 0 0 0 0 0 0 0 0 0 0 0 0 0.25 0"/>
<feBlend mode="normal" in2="BackgroundImageFix" result="effect1_dropShadow_505_38"/>
<feBlend mode="normal" in="SourceGraphic" in2="effect1_dropShadow_505_38" result="shape"/>
</filter>
<linearGradient id="paint0_linear_505_38" x1="71.5" y1="3" x2="71.5" y2="24" gradientUnits="userSpaceOnUse">
<stop stop-color="white"/>
<stop offset="1" stop-color="#BFBFBF"/>
</linearGradient>
<linearGradient id="paint1_linear_505_38" x1="41.5" y1="22" x2="41.5" y2="62" gradientUnits="userSpaceOnUse">
<stop stop-color="white"/>
<stop offset="1" stop-color="#BFBFBF"/>
</linearGradient>
</defs>
</svg>
