<svg width="84" height="84" viewBox="0 0 84 84" fill="none" xmlns="http://www.w3.org/2000/svg">
<path fill-rule="evenodd" clip-rule="evenodd" d="M59.9274 15.2122C60.1467 15.0642 60.4063 14.9903 60.6692 15.001C60.9354 15.0207 61.1877 15.1291 61.3872 15.3096C61.5865 15.478 61.7242 15.7099 61.7778 15.9679C61.8313 16.2259 61.7977 16.4948 61.6823 16.7309L41.6919 57.4117C41.5746 57.6515 41.3804 57.8435 41.1415 57.9558C37.4673 59.5656 33.4937 60.3442 29.4951 60.2379C27.5964 60.2324 25.6997 60.1104 23.8155 59.8725C30.8441 62.3576 38.3728 63.0082 45.7123 61.7648L64.562 23.4068C64.6537 23.2115 64.7954 23.045 64.9724 22.9249C65.1493 22.8048 65.3548 22.7356 65.5671 22.7246C65.7787 22.7113 65.9901 22.7532 66.1813 22.8465C66.3236 22.9145 66.4508 23.0114 66.5551 23.1312C66.6594 23.251 66.7386 23.3912 66.7879 23.5432C66.8372 23.6952 66.8555 23.8559 66.8417 24.0154C66.8279 24.1749 66.7824 24.3298 66.7078 24.4708L47.563 63.4541C47.4781 63.6242 47.3553 63.7716 47.2042 63.8844C47.0532 63.9973 46.8783 64.0724 46.6935 64.1038C41.9056 64.9408 37.0197 65.0231 32.2073 64.3475C38.4464 66.3987 44.9555 67.4723 51.5116 67.5312L66.7158 36.588C66.8174 36.3755 66.9783 36.1982 67.1784 36.0784C67.3784 35.9585 67.6087 35.9013 67.8405 35.914C68.0122 35.9167 68.1812 35.9583 68.3351 36.0358C68.4774 36.1039 68.6046 36.2007 68.7089 36.3205C68.8132 36.4404 68.8924 36.5806 68.9417 36.7326C68.991 36.8846 69.0093 37.0453 68.9955 37.2048C68.9817 37.3642 68.9362 37.5192 68.8616 37.6601L53.3064 69.3341C53.2062 69.5349 53.0532 69.7034 52.8645 69.821C52.6758 69.9386 52.4588 70.0005 52.2375 70C28.9128 70 14.8094 58.102 14.4824 57.8177L14.4185 57.7691L14.3547 57.704L14.3069 57.6553C14.1257 57.4545 14.0181 57.1962 14.0021 56.924C13.9861 56.6518 14.0627 56.3824 14.2191 56.161L32.0557 20.6373C32.1592 20.4398 32.3131 20.2745 32.5012 20.1587C32.6894 20.0429 32.9048 19.981 33.1246 19.9795C52.6842 19.9795 59.8556 15.2609 59.9274 15.2122ZM42.44 30.0541C41.9893 29.8375 41.4744 29.8304 40.8953 30.0328L40.8059 30.0454L35.5002 31.6006C34.7273 31.8208 34.2429 32.1335 34.047 32.5387C33.8512 32.9438 33.8592 33.5209 34.071 34.2699C34.2978 35.0261 34.629 35.5089 35.0646 35.7183C35.5003 35.9276 36.1385 35.9477 36.9792 35.7786L37.4027 35.6492L33.5184 43.6846C33.3443 44.0447 33.2176 44.3259 33.1383 44.5282C33.0813 44.7227 33.0585 44.9614 33.0699 45.2442C33.1066 45.7427 33.5906 46.2157 34.522 46.6633C35.4834 47.1254 36.1672 47.2043 36.5733 46.9003C36.8023 46.7329 36.9642 46.5704 37.059 46.4125C37.1761 46.2469 37.3181 45.9915 37.4849 45.6464L43.5454 33.1094C43.8065 32.5692 43.9612 32.1535 44.0094 31.8623C44.0431 31.6012 44.0141 31.3931 43.9225 31.2381C43.838 31.0681 43.6863 30.8842 43.4672 30.6864C43.2481 30.4887 42.9057 30.2779 42.44 30.0541Z" fill="url(#paint0_linear_653_112)"/>
<defs>
<linearGradient id="paint0_linear_653_112" x1="41.5" y1="15" x2="41.5" y2="70" gradientUnits="userSpaceOnUse">
<stop stop-color="white"/>
<stop offset="1" stop-color="#BFBFBF"/>
</linearGradient>
</defs>
</svg>
