<svg width="84" height="84" viewBox="0 0 84 84" fill="none" xmlns="http://www.w3.org/2000/svg">
<path fill-rule="evenodd" clip-rule="evenodd" d="M59.9274 15.2121C60.1468 15.0642 60.4064 14.9903 60.6693 15.001C60.9354 15.0206 61.1878 15.1291 61.3872 15.3096C61.5866 15.4779 61.7243 15.7099 61.7778 15.9679C61.8314 16.2259 61.7978 16.4948 61.6824 16.7309L41.692 57.4116C41.5747 57.6515 41.3805 57.8435 41.1416 57.9558C37.4674 59.5655 33.4938 60.3441 29.4952 60.2379C27.5965 60.2324 25.6998 60.1104 23.8155 59.8725C30.8442 62.3576 38.3729 63.0082 45.7124 61.7647L64.5621 23.4067C64.6537 23.2114 64.7955 23.0449 64.9724 22.9248C65.1493 22.8047 65.3548 22.7356 65.5672 22.7246C65.7788 22.7112 65.9902 22.7532 66.1814 22.8464C66.3237 22.9145 66.4509 23.0113 66.5552 23.1311C66.6595 23.2509 66.7387 23.3911 66.788 23.5432C66.8372 23.6952 66.8555 23.8559 66.8418 24.0154C66.828 24.1748 66.7825 24.3298 66.7079 24.4707L47.5631 63.4541C47.4782 63.6241 47.3553 63.7715 47.2043 63.8844C47.0533 63.9972 46.8783 64.0723 46.6936 64.1038C41.9057 64.9408 37.0198 65.023 32.2073 64.3474C38.4464 66.3987 44.9556 67.4722 51.5117 67.5311L66.7159 36.588C66.8175 36.3755 66.9784 36.1982 67.1784 36.0783C67.3785 35.9584 67.6088 35.9013 67.8406 35.9139C68.0123 35.9167 68.1813 35.9583 68.3352 36.0358C68.4775 36.1038 68.6047 36.2007 68.709 36.3205C68.8133 36.4403 68.8925 36.5805 68.9418 36.7325C68.991 36.8846 69.0093 37.0453 68.9956 37.2047C68.9818 37.3642 68.9362 37.5191 68.8617 37.6601L53.3065 69.3341C53.2062 69.5348 53.0532 69.7034 52.8645 69.821C52.6758 69.9385 52.4588 70.0005 52.2376 70C28.9128 70 14.8095 58.1019 14.4824 57.8177L14.4186 57.769L14.3548 57.704L14.3069 57.6553C14.1258 57.4545 14.0181 57.1961 14.0022 56.924C13.9862 56.6518 14.0628 56.3823 14.2192 56.161L32.0558 20.6373C32.1592 20.4398 32.3132 20.2744 32.5013 20.1586C32.6895 20.0428 32.9048 19.9809 33.1247 19.9795C52.6843 19.9795 59.8556 15.2609 59.9274 15.2121ZM43.4843 31.6835C43.1626 31.6214 42.8909 31.6664 42.6692 31.8188C42.4475 31.9711 42.2817 32.1226 42.1719 32.2732C42.077 32.431 41.9462 32.6825 41.7794 33.0276L38.809 39.1723L35.1361 37.4072L39.1655 32.5758C39.1727 32.5608 39.1911 32.5419 39.2207 32.5191C39.5144 32.1795 39.7193 31.8896 39.8354 31.6495C40.1618 30.9743 39.8682 30.2415 38.9544 29.451C38.6297 29.1655 38.3096 28.9469 37.9941 28.7953C37.6786 28.6437 37.3759 28.5999 37.0858 28.6639C36.8107 28.7351 36.5921 28.8426 36.4299 28.9866C36.2828 29.1378 36.0807 29.3643 35.8238 29.6661L30.3085 36.3075C30.1692 36.4809 30.0016 36.7702 29.8057 37.1753C29.6099 37.5804 29.4915 37.9211 29.4505 38.1973C29.3702 38.8614 29.8557 39.4461 30.9073 39.9514L37.0137 42.8861L35.6862 45.6321C35.4323 46.1573 35.2888 46.5691 35.2556 46.8675C35.2214 47.0915 35.2465 47.2884 35.3309 47.4585C35.4154 47.6285 35.5671 47.8124 35.7862 48.0101C36.0053 48.2079 36.3327 48.4114 36.7683 48.6208C37.204 48.8302 37.5863 48.9584 37.9152 49.0056C38.2592 49.0599 38.564 48.9845 38.8298 48.7794C39.1178 48.5665 39.4033 48.1674 39.6862 47.5822L45.7358 35.0678C45.9027 34.7226 46.0146 34.4528 46.0716 34.2583C46.1436 34.071 46.1703 33.8435 46.1517 33.5757C46.1403 33.2928 46.0137 33.0378 45.7718 32.8106C45.5371 32.5684 45.1795 32.3318 44.6988 32.1007C44.2331 31.8769 43.8283 31.7379 43.4843 31.6835Z" fill="url(#paint0_linear_668_168)"/>
<defs>
<linearGradient id="paint0_linear_668_168" x1="41.5" y1="15" x2="41.5" y2="70" gradientUnits="userSpaceOnUse">
<stop stop-color="white"/>
<stop offset="1" stop-color="#BFBFBF"/>
</linearGradient>
</defs>
</svg>
