<svg width="84" height="84" viewBox="0 0 84 84" fill="none" xmlns="http://www.w3.org/2000/svg">
<g clip-path="url(#clip0_309_22)">
<g filter="url(#filter0_d_309_22)">
<path d="M81.4994 16.9998H77.3014H74.978H67.022H64.6986H60.5006C60.2245 16.9998 60 16.7753 60 16.4992V15.5002C60 15.2241 60.2245 14.9996 60.5006 14.9996H64.0857C64.0363 14.6719 64.0004 14.3419 64.0004 14.0007C64.0004 10.1352 67.1343 7.00142 71 7.00142C74.8657 7.00142 77.9996 10.1352 77.9996 14.0007C77.9996 14.3419 77.9637 14.6741 77.9143 14.9996H81.4994C81.7755 14.9996 82 15.2241 82 15.5002V16.4992C82 16.7753 81.7755 16.9998 81.4994 16.9998ZM71 8.99929C68.2388 8.99929 66.0006 11.2374 66.0006 13.9985C66.0006 14.3442 66.0478 14.6741 66.1151 14.9974H75.8849C75.9522 14.6741 75.9994 14.3419 75.9994 13.9985C75.9994 11.2396 73.7612 8.99929 71 8.99929ZM77.7167 8.69624C77.5214 8.89154 77.2049 8.89154 77.0096 8.69624L76.3024 7.98913C76.1071 7.79383 76.1071 7.47732 76.3024 7.28202L78.4239 5.16068C78.6192 4.96538 78.9357 4.96538 79.131 5.16068L79.8382 5.86779C80.0335 6.06309 80.0335 6.37961 79.8382 6.57491L77.7167 8.69624ZM71.5006 6.00024H70.5016C70.2255 6.00024 70.001 5.77576 70.001 5.49965V2.50059C70.001 2.22448 70.2255 2 70.5016 2H71.5006C71.7767 2 72.0012 2.22448 72.0012 2.50059V5.49965C71.999 5.77576 71.7767 6.00024 71.5006 6.00024ZM64.9904 8.69624C64.7951 8.89154 64.4786 8.89154 64.2833 8.69624L62.1618 6.57491C61.9665 6.37961 61.9665 6.06309 62.1618 5.86779L62.869 5.16068C63.0643 4.96538 63.3808 4.96538 63.5761 5.16068L65.6976 7.28202C65.8929 7.47732 65.8929 7.79383 65.6976 7.98913L64.9904 8.69624ZM63.4998 18.9999H78.5002C78.7763 18.9999 79.0008 19.2244 79.0008 19.5005V20.4994C79.0008 20.7755 78.7763 21 78.5002 21H63.4998C63.2237 21 62.9992 20.7755 62.9992 20.4994V19.5005C62.9992 19.2244 63.2237 18.9999 63.4998 18.9999Z" fill="url(#paint0_linear_309_22)"/>
</g>
<g filter="url(#filter1_d_309_22)">
<path d="M24.1601 20.1362C24.0381 20.2895 23.9733 20.467 23.9733 20.6482C23.9733 20.8294 24.0381 21.0069 24.1601 21.1602C24.2409 21.3522 26.4223 23.4642 29.0076 25.8962L33.6936 30.3761L33.0473 30.9521L32.4009 31.4641H25.2104C20.9284 31.4641 17.939 31.5281 17.6966 31.5921C17.3676 31.6951 17.0688 31.8505 16.8187 32.0487C16.5685 32.2468 16.3724 32.4835 16.2424 32.7441L16 33.1921V63.208L16.2424 63.72C16.3271 63.9547 16.4813 64.17 16.692 64.3481C16.9028 64.5262 17.1641 64.6619 17.4543 64.744C17.939 65 18.0198 65 42.5 65H66.9802L67.5457 64.744C67.8323 64.6396 68.0882 64.4889 68.2969 64.3015C68.5056 64.1141 68.6625 63.8943 68.7576 63.656C68.9192 63.208 69 63.144 69 48.2321V33.1921L68.6768 32.7441C68.5374 32.4674 68.3468 32.2085 68.1113 31.9761C67.3841 31.4641 67.6265 31.4641 59.7896 31.4641H52.5991L51.9527 30.9521L51.3064 30.3761L55.9924 25.8962C58.5777 23.4642 60.7591 21.3522 60.8399 21.1602C60.9273 20.9962 60.9654 20.8183 60.9514 20.6407C60.9374 20.463 60.8716 20.2903 60.7591 20.1362C60.5168 19.8802 59.7896 20.0082 59.3049 20.3282L53.5686 24.9362C48.4787 29.0961 48.1555 29.3521 47.8323 29.2881L46.6204 29.0961C44.7351 28.7847 42.8017 28.6984 40.8841 28.8401C40.0124 28.8415 39.1441 28.9274 38.2988 29.0961L37.0869 29.2881C36.7637 29.3521 36.4405 29.0961 31.3506 24.9362L25.6143 20.3282C25.2104 20.0082 24.4024 19.8802 24.1601 20.1362ZM50.7409 36.2001L51.872 36.5841C52.6367 37.0716 53.2225 37.7125 53.5686 38.4401L53.8918 38.9521V48.0401C53.8918 56.104 53.8918 57.192 53.7302 57.64C53.5502 58.2817 53.143 58.8693 52.5562 59.3341C51.9695 59.7988 51.2277 60.1214 50.4177 60.264C49.9329 60.328 46.2973 60.392 37.0061 60.328H24.1601L23.5945 60.136C23.0117 59.9278 22.4889 59.6274 22.0582 59.2532C21.6275 58.879 21.298 58.4389 21.0899 57.96L20.8476 57.384V48.4881C20.7668 42.3441 20.8476 39.4641 20.9284 39.1441C21.0535 38.4691 21.4151 37.8354 21.972 37.315C22.529 36.7946 23.2591 36.4083 24.0793 36.2001C24.3216 36.1361 30.2195 36.0721 37.3293 36.0721C48.3979 36.0721 50.1753 36.0721 50.7409 36.2001ZM62.4558 36.2001C63.0839 36.4197 63.5974 36.8039 63.9101 37.2881C64.2557 37.8508 64.3142 38.4974 64.0734 39.0934C63.8327 39.6893 63.3112 40.1889 62.6174 40.4881C61.9786 40.6289 61.3001 40.6065 60.6784 40.4241C59.9961 40.1497 59.4778 39.6734 59.2358 39.0983C58.9939 38.5233 59.0477 37.8959 59.3857 37.3521C59.6047 36.8797 60.0491 36.4942 60.6233 36.2788C61.1975 36.0633 61.8556 36.0351 62.4558 36.2001V36.2001ZM62.779 43.6241C63.2352 43.8221 63.6082 44.1215 63.8523 44.4854C64.0963 44.8493 64.2007 45.2618 64.1524 45.6721C64.1758 46.2284 63.9292 46.7706 63.4633 47.1872C62.9975 47.6039 62.3478 47.8633 61.6479 47.9121C61.0495 47.8801 60.4808 47.6939 60.0286 47.3819C59.5763 47.0699 59.2654 46.6492 59.1433 46.1841C58.9839 45.6168 59.0934 45.0229 59.4509 44.5154C59.8085 44.008 60.3891 43.6224 61.0823 43.4321C61.6588 43.336 62.2595 43.404 62.779 43.6241V43.6241ZM64.4756 50.8561C64.718 50.9841 64.718 51.2401 64.718 55.464C64.718 59.688 64.718 60.008 64.4756 60.2C64.2332 60.392 64.1524 60.392 61.6479 60.392C59.1433 60.392 59.0625 60.328 58.8201 60.2C58.5777 60.072 58.5777 59.88 58.5777 55.464C58.5777 51.0481 58.6585 50.9841 58.8201 50.8561C58.9817 50.7281 59.2241 50.6641 61.6479 50.6641C64.0716 50.6641 64.314 50.6641 64.4756 50.8561Z" fill="url(#paint1_linear_309_22)"/>
</g>
</g>
<defs>
<filter id="filter0_d_309_22" x="56" y="2" width="30" height="27" filterUnits="userSpaceOnUse" color-interpolation-filters="sRGB">
<feFlood flood-opacity="0" result="BackgroundImageFix"/>
<feColorMatrix in="SourceAlpha" type="matrix" values="0 0 0 0 0 0 0 0 0 0 0 0 0 0 0 0 0 0 127 0" result="hardAlpha"/>
<feOffset dy="4"/>
<feGaussianBlur stdDeviation="2"/>
<feComposite in2="hardAlpha" operator="out"/>
<feColorMatrix type="matrix" values="0 0 0 0 0 0 0 0 0 0 0 0 0 0 0 0 0 0 0.25 0"/>
<feBlend mode="normal" in2="BackgroundImageFix" result="effect1_dropShadow_309_22"/>
<feBlend mode="normal" in="SourceGraphic" in2="effect1_dropShadow_309_22" result="shape"/>
</filter>
<filter id="filter1_d_309_22" x="12" y="20" width="61" height="53" filterUnits="userSpaceOnUse" color-interpolation-filters="sRGB">
<feFlood flood-opacity="0" result="BackgroundImageFix"/>
<feColorMatrix in="SourceAlpha" type="matrix" values="0 0 0 0 0 0 0 0 0 0 0 0 0 0 0 0 0 0 127 0" result="hardAlpha"/>
<feOffset dy="4"/>
<feGaussianBlur stdDeviation="2"/>
<feComposite in2="hardAlpha" operator="out"/>
<feColorMatrix type="matrix" values="0 0 0 0 0 0 0 0 0 0 0 0 0 0 0 0 0 0 0.25 0"/>
<feBlend mode="normal" in2="BackgroundImageFix" result="effect1_dropShadow_309_22"/>
<feBlend mode="normal" in="SourceGraphic" in2="effect1_dropShadow_309_22" result="shape"/>
</filter>
<linearGradient id="paint0_linear_309_22" x1="71" y1="2" x2="71" y2="21" gradientUnits="userSpaceOnUse">
<stop stop-color="white"/>
<stop offset="1" stop-color="#BFBFBF"/>
</linearGradient>
<linearGradient id="paint1_linear_309_22" x1="42.5" y1="20" x2="42.5" y2="65" gradientUnits="userSpaceOnUse">
<stop stop-color="white"/>
<stop offset="1" stop-color="#BFBFBF"/>
</linearGradient>
<clipPath id="clip0_309_22">
<rect width="83.75" height="83.75" fill="white"/>
</clipPath>
</defs>
</svg>
