<svg width="84" height="84" viewBox="0 0 84 84" fill="none" xmlns="http://www.w3.org/2000/svg">
<g clip-path="url(#clip0_183_6)">
<g filter="url(#filter0_d_183_6)">
<path d="M72.2149 54.8523V19.7023C72.1858 18.9605 71.8856 18.2609 71.3795 17.7553C70.8733 17.2496 70.202 16.9787 69.5112 17.0013H15.463C14.7713 16.9787 14.0991 17.2493 13.5915 17.7547C13.084 18.2601 12.782 18.9597 12.7507 19.7023V54.8523L6 62.9461C6.04038 64.0601 6.48965 65.1116 7.2496 65.8708C8.00955 66.63 9.01837 67.0351 10.0556 66.9976H74.9531C75.9888 67.0326 76.9954 66.6264 77.7535 65.8675C78.5115 65.1085 78.9596 64.0584 79 62.9461L72.2149 54.8523ZM47.8988 65.6656H37.0668C36.9812 65.6693 36.8959 65.6547 36.8157 65.6227C36.7354 65.5906 36.6619 65.5418 36.5994 65.4789C36.5369 65.4161 36.4867 65.3406 36.4516 65.2567C36.4166 65.1728 36.3974 65.0823 36.3951 64.9904C36.3962 64.8977 36.4146 64.8061 36.4492 64.7212C36.4837 64.6362 36.5338 64.5596 36.5964 64.4958C36.659 64.4319 36.7329 64.3823 36.8137 64.3497C36.8945 64.317 36.9805 64.3021 37.0668 64.3059H47.8816C48.056 64.3008 48.2252 64.3699 48.3525 64.498C48.4799 64.6262 48.5551 64.8031 48.5618 64.9904C48.5431 65.1663 48.4655 65.3289 48.3436 65.4479C48.2216 65.567 48.0636 65.6345 47.8988 65.6379V65.6656ZM31.3494 62.9646L33.4073 60.4949H51.5669L53.6334 62.9646H31.3494ZM68.3746 50.0701C68.3522 50.717 68.0924 51.3282 67.652 51.7701C67.2116 52.212 66.6263 52.4488 66.0239 52.4289H18.9158C18.314 52.4464 17.7301 52.2088 17.2901 51.7674C16.8502 51.3259 16.5898 50.7162 16.5651 50.0701V21.8113C16.5876 21.1644 16.8473 20.5532 17.2878 20.1113C17.7282 19.6694 18.3134 19.4326 18.9158 19.4526H66.0584C66.6601 19.435 67.2441 19.6727 67.684 20.1141C68.1239 20.5555 68.3844 21.1652 68.4091 21.8113V50.0701H68.3746Z" fill="url(#paint0_linear_183_6)"/>
</g>
</g>
<defs>
<filter id="filter0_d_183_6" x="3" y="16" width="83" height="60" filterUnits="userSpaceOnUse" color-interpolation-filters="sRGB">
<feFlood flood-opacity="0" result="BackgroundImageFix"/>
<feColorMatrix in="SourceAlpha" type="matrix" values="0 0 0 0 0 0 0 0 0 0 0 0 0 0 0 0 0 0 127 0" result="hardAlpha"/>
<feOffset dx="2" dy="4"/>
<feGaussianBlur stdDeviation="2.5"/>
<feComposite in2="hardAlpha" operator="out"/>
<feColorMatrix type="matrix" values="0 0 0 0 0 0 0 0 0 0 0 0 0 0 0 0 0 0 0.25 0"/>
<feBlend mode="normal" in2="BackgroundImageFix" result="effect1_dropShadow_183_6"/>
<feBlend mode="normal" in="SourceGraphic" in2="effect1_dropShadow_183_6" result="shape"/>
</filter>
<linearGradient id="paint0_linear_183_6" x1="42.5" y1="17" x2="42.5" y2="67" gradientUnits="userSpaceOnUse">
<stop stop-color="white"/>
<stop offset="1" stop-color="#BFBFBF"/>
</linearGradient>
<clipPath id="clip0_183_6">
<rect width="83.75" height="83.75" fill="white"/>
</clipPath>
</defs>
</svg>
