<svg width="84" height="84" viewBox="0 0 84 84" fill="none" xmlns="http://www.w3.org/2000/svg">
<path d="M81.8348 14.9985C80.8041 20.9217 75.2241 24.8769 69.3763 23.8329C65.3028 23.1061 62.1786 20.1435 61 16.4134C61.6771 16.6878 62.3928 16.8979 63.1407 17.0329C68.9906 18.0769 74.5684 14.1217 75.5991 8.19857C75.912 6.39783 75.7641 4.6271 75.2499 3C79.8762 4.87577 82.7348 9.8321 81.8348 14.9985Z" fill="url(#paint0_linear_590_15)"/>
<g filter="url(#filter0_d_590_15)">
<path d="M40.4948 14.5186L39.0177 17.0292V22.3761L38.2105 25.0138C37.4841 27.3972 35.9344 32.1086 35.7326 32.5614C35.6599 32.7283 36.459 32.7521 42.0445 32.7521C48.074 32.7521 48.4372 32.7521 48.3323 32.5296C48.1305 32.0768 46.5969 27.4052 45.8624 24.9662L45.0552 22.3761V17.0292L43.5781 14.5186C42.771 13.1282 42.0607 12 42.0203 12C41.98 12 41.3181 13.1282 40.4948 14.5186Z" fill="url(#paint1_linear_590_15)"/>
<path d="M29.7671 38.0275V40.6096H31.2281C32.6567 40.6096 32.6729 40.6096 32.5841 40.8797C32.3823 41.42 30.3402 46.0837 29.7913 47.2754L29.2183 48.4671H32.915H36.6199L37.758 44.5662L38.9041 40.6731H45.208L46.3542 44.5662L47.4923 48.4671H51.1971H54.8859L54.3208 47.2754C53.772 46.0996 51.7299 41.4279 51.5281 40.8797C51.4474 40.6096 51.4554 40.6096 52.8922 40.6096H54.3531V35.4534H29.7671V38.0275Z" fill="url(#paint2_linear_590_15)"/>
<path d="M17.4665 53.7505V56.3246H21.2036C23.278 56.3246 24.965 56.3246 24.965 56.3961C24.965 56.4676 22.0915 61.2981 21.1229 62.752C20.5821 63.5465 19.4682 65.1991 18.6288 66.375C17.3292 68.2102 17.1032 68.6234 17.0145 69.1557C16.9547 69.6963 17.0814 70.241 17.3742 70.7021C17.667 71.1632 18.1089 71.514 18.6288 71.698C19.2099 71.9523 19.3794 71.9681 24.3677 71.9999H29.5092L29.6787 70.3554C29.7783 68.6582 30.2638 67.0046 31.0993 65.5169C31.6943 64.4456 32.5425 63.5311 33.5723 62.8508C34.6021 62.1704 35.7832 61.7442 37.0158 61.608C40.3258 61.3617 43.65 61.3617 46.96 61.608C51.4478 62.2833 53.9015 65.366 54.3858 70.8559L54.4665 71.9999H59.6323C64.6206 71.9999 64.7982 71.9523 65.3712 71.698C65.8911 71.514 66.333 71.1632 66.6258 70.7021C66.9186 70.241 67.0453 69.6963 66.9855 69.1557C66.929 68.6234 66.695 68.2102 65.3712 66.375C64.5641 65.1991 63.3453 63.483 62.756 62.5455C61.7067 60.9565 59.035 56.5073 59.035 56.3722C59.035 56.2372 60.7301 56.3087 62.7964 56.3087H66.5578V51.1445H17.4665V53.7505Z" fill="url(#paint3_linear_590_15)"/>
</g>
<defs>
<filter id="filter0_d_590_15" x="13" y="12" width="58" height="68" filterUnits="userSpaceOnUse" color-interpolation-filters="sRGB">
<feFlood flood-opacity="0" result="BackgroundImageFix"/>
<feColorMatrix in="SourceAlpha" type="matrix" values="0 0 0 0 0 0 0 0 0 0 0 0 0 0 0 0 0 0 127 0" result="hardAlpha"/>
<feOffset dy="4"/>
<feGaussianBlur stdDeviation="2"/>
<feComposite in2="hardAlpha" operator="out"/>
<feColorMatrix type="matrix" values="0 0 0 0 0 0 0 0 0 0 0 0 0 0 0 0 0 0 0.25 0"/>
<feBlend mode="normal" in2="BackgroundImageFix" result="effect1_dropShadow_590_15"/>
<feBlend mode="normal" in="SourceGraphic" in2="effect1_dropShadow_590_15" result="shape"/>
</filter>
<linearGradient id="paint0_linear_590_15" x1="71.5" y1="3" x2="71.5" y2="24" gradientUnits="userSpaceOnUse">
<stop stop-color="white"/>
<stop offset="1" stop-color="#BFBFBF"/>
</linearGradient>
<linearGradient id="paint1_linear_590_15" x1="42.037" y1="12" x2="42.037" y2="32.7521" gradientUnits="userSpaceOnUse">
<stop stop-color="white"/>
<stop offset="1" stop-color="#BFBFBF"/>
</linearGradient>
<linearGradient id="paint2_linear_590_15" x1="42.0521" y1="35.4534" x2="42.0521" y2="48.4671" gradientUnits="userSpaceOnUse">
<stop stop-color="white"/>
<stop offset="1" stop-color="#BFBFBF"/>
</linearGradient>
<linearGradient id="paint3_linear_590_15" x1="42" y1="51.1445" x2="42" y2="71.9999" gradientUnits="userSpaceOnUse">
<stop stop-color="white"/>
<stop offset="1" stop-color="#BFBFBF"/>
</linearGradient>
</defs>
</svg>
