<svg width="84" height="84" viewBox="0 0 84 84" fill="none" xmlns="http://www.w3.org/2000/svg">
<g filter="url(#filter0_d_2302_51)">
<path d="M41.9992 49.287H29.2964C28.1918 49.287 27.2964 48.3915 27.2964 47.287V37.7114C27.2964 36.6069 28.1918 35.7114 29.2964 35.7114H41.9992H54.7013C55.8059 35.7114 56.7013 36.6069 56.7013 37.7114V47.287C56.7013 48.3915 55.8059 49.287 54.7013 49.287H41.9992Z" fill="url(#paint0_linear_2302_51)"/>
<path d="M22.1102 35.7114H13C11.8954 35.7114 11 36.6069 11 37.7114V47.287C11 48.3915 11.8954 49.287 13 49.287H22.1102C23.2148 49.287 24.1102 48.3915 24.1102 47.287V37.7114C24.1102 36.6069 23.2148 35.7114 22.1102 35.7114Z" fill="url(#paint1_linear_2302_51)"/>
<path d="M70.9983 35.7114H61.8872C60.7826 35.7114 59.8872 36.6069 59.8872 37.7114V47.287C59.8872 48.3915 60.7826 49.287 61.8872 49.287H70.9983C72.1029 49.287 72.9983 48.3915 72.9983 47.287V37.7114C72.9983 36.6069 72.1029 35.7114 70.9983 35.7114Z" fill="url(#paint2_linear_2302_51)"/>
<path d="M73 30.1254C73 31.2299 72.1046 32.1254 71 32.1254H58.2943H45.5918C44.4872 32.1254 43.5918 31.2299 43.5918 30.1254V17C43.5918 15.8954 44.4872 15 45.5918 15H71C72.1046 15 73 15.8954 73 17V30.1254Z" fill="url(#paint3_linear_2302_51)"/>
<path d="M11 17C11 15.8954 11.8954 15 13 15H38.4058C39.5104 15 40.4058 15.8954 40.4058 17V30.1254C40.4058 31.2299 39.5104 32.1254 38.4058 32.1254H25.7031H13C11.8954 32.1254 11 31.2299 11 30.1254V17Z" fill="url(#paint4_linear_2302_51)"/>
<path d="M11 54.8735C11 53.769 11.8954 52.8735 13 52.8735H25.7031H38.4058C39.5104 52.8735 40.4058 53.769 40.4058 54.8735V67.9999C40.4058 69.1045 39.5104 69.9999 38.4058 69.9999H13C11.8954 69.9999 11 69.1045 11 67.9999V54.8735Z" fill="url(#paint5_linear_2302_51)"/>
<path d="M73 67.9999C73 69.1045 72.1046 69.9999 71 69.9999H45.5918C44.4872 69.9999 43.5918 69.1045 43.5918 67.9999V54.8735C43.5918 53.769 44.4872 52.8735 45.5918 52.8735H58.2943H71C72.1046 52.8735 73 53.769 73 54.8735V67.9999Z" fill="url(#paint6_linear_2302_51)"/>
</g>
<defs>
<filter id="filter0_d_2302_51" x="7" y="15" width="70" height="63" filterUnits="userSpaceOnUse" color-interpolation-filters="sRGB">
<feFlood flood-opacity="0" result="BackgroundImageFix"/>
<feColorMatrix in="SourceAlpha" type="matrix" values="0 0 0 0 0 0 0 0 0 0 0 0 0 0 0 0 0 0 127 0" result="hardAlpha"/>
<feOffset dy="4"/>
<feGaussianBlur stdDeviation="2"/>
<feComposite in2="hardAlpha" operator="out"/>
<feColorMatrix type="matrix" values="0 0 0 0 0 0 0 0 0 0 0 0 0 0 0 0 0 0 0.25 0"/>
<feBlend mode="normal" in2="BackgroundImageFix" result="effect1_dropShadow_2302_51"/>
<feBlend mode="normal" in="SourceGraphic" in2="effect1_dropShadow_2302_51" result="shape"/>
</filter>
<linearGradient id="paint0_linear_2302_51" x1="41.9989" y1="35.7114" x2="41.9989" y2="49.287" gradientUnits="userSpaceOnUse">
<stop stop-color="white"/>
<stop offset="1" stop-color="#BFBFBF"/>
</linearGradient>
<linearGradient id="paint1_linear_2302_51" x1="17.5551" y1="35.7114" x2="17.5551" y2="49.287" gradientUnits="userSpaceOnUse">
<stop stop-color="white"/>
<stop offset="1" stop-color="#BFBFBF"/>
</linearGradient>
<linearGradient id="paint2_linear_2302_51" x1="66.4428" y1="35.7114" x2="66.4428" y2="49.287" gradientUnits="userSpaceOnUse">
<stop stop-color="white"/>
<stop offset="1" stop-color="#BFBFBF"/>
</linearGradient>
<linearGradient id="paint3_linear_2302_51" x1="58.2959" y1="15" x2="58.2959" y2="32.1254" gradientUnits="userSpaceOnUse">
<stop stop-color="white"/>
<stop offset="1" stop-color="#BFBFBF"/>
</linearGradient>
<linearGradient id="paint4_linear_2302_51" x1="25.7029" y1="15" x2="25.7029" y2="32.1254" gradientUnits="userSpaceOnUse">
<stop stop-color="white"/>
<stop offset="1" stop-color="#BFBFBF"/>
</linearGradient>
<linearGradient id="paint5_linear_2302_51" x1="25.7029" y1="52.8735" x2="25.7029" y2="69.9999" gradientUnits="userSpaceOnUse">
<stop stop-color="white"/>
<stop offset="1" stop-color="#BFBFBF"/>
</linearGradient>
<linearGradient id="paint6_linear_2302_51" x1="58.2959" y1="52.8735" x2="58.2959" y2="69.9999" gradientUnits="userSpaceOnUse">
<stop stop-color="white"/>
<stop offset="1" stop-color="#BFBFBF"/>
</linearGradient>
</defs>
</svg>
