<svg width="84" height="84" viewBox="0 0 84 84" fill="none" xmlns="http://www.w3.org/2000/svg">
<g clip-path="url(#clip0_1327_1024)">
<g filter="url(#filter0_d_1327_1024)">
<path d="M70.9989 17.8605C73.6832 17.8605 75.8592 15.6845 75.8592 13.0003C75.8592 10.3161 73.6832 8.14014 70.9989 8.14014C68.3147 8.14014 66.1387 10.3161 66.1387 13.0003C66.1387 15.6845 68.3147 17.8605 70.9989 17.8605Z" fill="url(#paint0_linear_1327_1024)"/>
<path d="M71.0007 18.655C67.8825 18.655 65.3457 16.1182 65.3457 13.0001C65.3457 9.88194 67.8825 7.34521 71.0007 7.34521C74.1188 7.34521 76.6556 9.88194 76.6556 13.0001C76.6556 16.1182 74.1188 18.655 71.0007 18.655ZM71.0007 8.9346C68.758 8.9346 66.9351 10.7574 66.9351 13.0001C66.9351 15.2427 68.758 17.0656 71.0007 17.0656C73.2433 17.0656 75.0662 15.2427 75.0662 13.0001C75.0662 10.7574 73.2433 8.9346 71.0007 8.9346Z" fill="url(#paint1_linear_1327_1024)"/>
<path d="M70.9998 6.17325C70.5598 6.17325 70.2051 5.81856 70.2051 5.37856V2.79469C70.2051 2.35694 70.5598 2 70.9998 2C71.4375 2 71.7945 2.35469 71.7945 2.79469V5.37856C71.7945 5.81631 71.4375 6.17325 70.9998 6.17325Z" fill="url(#paint2_linear_1327_1024)"/>
<path d="M70.9998 23.9999C70.5598 23.9999 70.2051 23.6452 70.2051 23.2052V20.6214C70.2051 20.1836 70.5598 19.8267 70.9998 19.8267C71.4375 19.8267 71.7945 20.1836 71.7945 20.6214V23.2052C71.7945 23.6452 71.4375 23.9999 70.9998 23.9999Z" fill="url(#paint3_linear_1327_1024)"/>
<path d="M81.2048 13.7945H78.6209C78.1831 13.7945 77.8262 13.4398 77.8262 12.9998C77.8262 12.5598 78.1831 12.2051 78.6209 12.2051H81.2048C81.6425 12.2051 81.9995 12.5598 81.9995 12.9998C81.9995 13.4375 81.6448 13.7945 81.2048 13.7945Z" fill="url(#paint4_linear_1327_1024)"/>
<path d="M63.3786 13.7945H60.7947C60.3569 13.7945 60 13.4375 60 12.9998C60 12.5598 60.3569 12.2051 60.7947 12.2051H63.3786C63.8186 12.2051 64.1733 12.5598 64.1733 12.9998C64.1733 13.4375 63.8164 13.7945 63.3786 13.7945Z" fill="url(#paint5_linear_1327_1024)"/>
<path d="M76.3912 8.40466C76.1869 8.40466 75.9849 8.32609 75.83 8.17119C75.5202 7.8614 75.5202 7.35854 75.83 7.0465L77.6574 5.21916C77.9672 4.90937 78.47 4.90937 78.7821 5.21916C79.0919 5.52896 79.0919 6.03181 78.7821 6.34385L76.9525 8.17344C76.7976 8.32834 76.5933 8.40466 76.3912 8.40466Z" fill="url(#paint6_linear_1327_1024)"/>
<path d="M63.7828 21.0121C63.5785 21.0121 63.3765 20.9335 63.2216 20.7786C62.9118 20.4688 62.9118 19.966 63.2216 19.6539L65.049 17.8266C65.3588 17.5168 65.8616 17.5168 66.1737 17.8266C66.4835 18.1364 66.4835 18.6392 66.1737 18.9513L64.3463 20.7786C64.1914 20.9335 63.9871 21.0121 63.7828 21.0121Z" fill="url(#paint7_linear_1327_1024)"/>
<path d="M78.2157 21.0121C78.0114 21.0121 77.8093 20.9335 77.6544 20.7786L75.8271 18.9513C75.5173 18.6415 75.5173 18.1386 75.8271 17.8266C76.1369 17.5168 76.6397 17.5168 76.9518 17.8266L78.7791 19.6539C79.0889 19.9637 79.0889 20.4666 78.7791 20.7786C78.6242 20.9335 78.42 21.0121 78.2157 21.0121Z" fill="url(#paint8_linear_1327_1024)"/>
<path d="M65.6102 8.40466C65.4059 8.40466 65.2039 8.32609 65.049 8.17119L63.2216 6.34385C62.9118 6.03406 62.9118 5.5312 63.2216 5.21916C63.5314 4.90937 64.0343 4.90937 64.3463 5.21916L66.1737 7.0465C66.4835 7.3563 66.4835 7.85915 66.1737 8.17119C66.0188 8.32834 65.8145 8.40466 65.6102 8.40466Z" fill="url(#paint9_linear_1327_1024)"/>
</g>
<g filter="url(#filter1_d_1327_1024)">
<path d="M61.7638 67H22.2511C17.4139 67 15.5919 63.8429 18.1713 59.9644L35.4196 34.1504V21.1649H33.2261C32.6587 21.1783 32.1092 20.9663 31.698 20.5753C31.2868 20.1843 31.0475 19.6463 31.0325 19.0792C31.0493 18.5133 31.2895 17.9771 31.7005 17.5877C32.1115 17.1982 32.6599 16.9871 33.2261 17.0006H50.7888C51.355 16.9871 51.9034 17.1982 52.3144 17.5877C52.7254 17.9771 52.9656 18.5133 52.9824 19.0792C52.9674 19.6463 52.7281 20.1843 52.3169 20.5753C51.9057 20.9663 51.3562 21.1783 50.7888 21.1649H48.5881V34.1504L65.8437 59.9644C68.4088 63.8429 66.5582 67 61.7566 67H61.7638ZM29.7964 50.3288H54.2185L44.887 36.3647L44.1724 35.3504V21.1649H39.7782V35.3576L39.0637 36.3719L29.7392 50.3288H29.7964Z" fill="url(#paint10_linear_1327_1024)"/>
</g>
<g filter="url(#filter2_d_1327_1024)">
<path d="M19.2497 20.1628C19.1812 20.2584 18.9765 20.8322 18.826 21.4324C17.9787 24.5319 16.7084 25.8022 13.5524 26.7581C11.571 27.3591 11.5033 27.7141 13.2521 28.1781C14.7827 28.588 16.2035 29.298 16.968 30.0351C17.7198 30.7722 18.4708 32.2606 18.8945 33.8588C19.1135 34.7328 19.2361 34.9652 19.4544 34.9923C19.8231 35.0472 19.9601 34.8283 20.2332 33.7362C20.5613 32.3982 21.2717 30.9233 21.9407 30.1998C22.6511 29.4349 23.9898 28.7249 25.5746 28.2608C26.9134 27.8787 27.0639 27.7967 26.9818 27.4275C26.9547 27.25 26.6131 27.086 25.6702 26.813C22.4735 25.8842 21.1754 24.601 20.2596 21.4738C20.082 20.8044 19.8773 20.2177 19.836 20.1357C19.714 19.944 19.4273 19.9575 19.2497 20.1628Z" fill="url(#paint11_linear_1327_1024)"/>
</g>
<g filter="url(#filter3_d_1327_1024)">
<path d="M64.8331 27.1086C64.7875 27.1722 64.651 27.5548 64.5507 27.9549C63.9858 30.0213 63.139 30.8681 61.0349 31.5054C59.714 31.906 59.6688 32.1427 60.8347 32.4521C61.8551 32.7253 62.8023 33.1987 63.312 33.6901C63.8132 34.1815 64.3139 35.1737 64.5963 36.2392C64.7423 36.8219 64.8241 36.9768 64.9696 36.9948C65.2154 37.0314 65.3067 36.8855 65.4888 36.1575C65.7075 35.2655 66.1811 34.2822 66.6271 33.7998C67.1007 33.2899 67.9932 32.8166 69.0498 32.5072C69.9422 32.2525 70.0426 32.1978 69.9879 31.9517C69.9698 31.8333 69.7421 31.724 69.1135 31.542C66.9823 30.9228 66.1169 30.0674 65.5064 27.9825C65.388 27.5363 65.2515 27.1451 65.224 27.0905C65.1427 26.9627 64.9515 26.9717 64.8331 27.1086Z" fill="url(#paint12_linear_1327_1024)"/>
</g>
<g filter="url(#filter4_d_1327_1024)">
<path d="M11.8331 67.1086C11.7875 67.1722 11.651 67.5548 11.5507 67.9549C10.9858 70.0213 10.139 70.8681 8.03491 71.5054C6.71401 71.906 6.66883 72.1427 7.83473 72.4521C8.85513 72.7253 9.80231 73.1987 10.312 73.6901C10.8132 74.1815 11.3139 75.1737 11.5963 76.2392C11.7423 76.8219 11.8241 76.9768 11.9696 76.9948C12.2154 77.0314 12.3067 76.8855 12.4888 76.1575C12.7075 75.2655 13.1811 74.2822 13.6271 73.7998C14.1007 73.2899 14.9932 72.8166 16.0498 72.5072C16.9422 72.2525 17.0426 72.1978 16.9879 71.9517C16.9698 71.8333 16.7421 71.724 16.1135 71.542C13.9823 70.9228 13.1169 70.0674 12.5064 67.9825C12.388 67.5363 12.2515 67.1451 12.224 67.0905C12.1427 66.9627 11.9515 66.9717 11.8331 67.1086Z" fill="url(#paint13_linear_1327_1024)"/>
</g>
<g filter="url(#filter5_d_1327_1024)">
<path d="M67.8331 44.1086C67.7875 44.1722 67.651 44.5548 67.5507 44.9549C66.9858 47.0213 66.139 47.8681 64.0349 48.5054C62.714 48.906 62.6688 49.1427 63.8347 49.4521C64.8551 49.7253 65.8023 50.1987 66.312 50.6901C66.8132 51.1815 67.3139 52.1737 67.5963 53.2392C67.7423 53.8219 67.8241 53.9768 67.9696 53.9948C68.2154 54.0314 68.3067 53.8855 68.4888 53.1575C68.7075 52.2655 69.1811 51.2822 69.6271 50.7998C70.1007 50.2899 70.9932 49.8166 72.0498 49.5072C72.9422 49.2525 73.0426 49.1978 72.9879 48.9517C72.9698 48.8333 72.7421 48.724 72.1135 48.542C69.9823 47.9228 69.1169 47.0674 68.5064 44.9825C68.388 44.5363 68.2515 44.1451 68.224 44.0905C68.1427 43.9627 67.9515 43.9717 67.8331 44.1086Z" fill="url(#paint14_linear_1327_1024)"/>
</g>
<g filter="url(#filter6_d_1327_1024)">
<path d="M69.8331 70.1086C69.7875 70.1722 69.651 70.5548 69.5507 70.9549C68.9858 73.0213 68.139 73.8681 66.0349 74.5054C64.714 74.906 64.6688 75.1427 65.8347 75.4521C66.8551 75.7253 67.8023 76.1987 68.312 76.6901C68.8132 77.1815 69.3139 78.1737 69.5963 79.2392C69.7423 79.8219 69.8241 79.9768 69.9696 79.9948C70.2154 80.0314 70.3067 79.8855 70.4888 79.1575C70.7075 78.2655 71.1811 77.2822 71.6271 76.7998C72.1007 76.2899 72.9932 75.8166 74.0498 75.5072C74.9422 75.2525 75.0426 75.1978 74.9879 74.9517C74.9698 74.8333 74.7421 74.724 74.1135 74.542C71.9823 73.9228 71.1169 73.0674 70.5064 70.9825C70.388 70.5363 70.2515 70.1451 70.224 70.0905C70.1427 69.9627 69.9515 69.9717 69.8331 70.1086Z" fill="url(#paint15_linear_1327_1024)"/>
</g>
<g filter="url(#filter7_d_1327_1024)">
<path d="M48.8331 4.10855C48.7875 4.17223 48.651 4.5548 48.5507 4.95495C47.9858 7.02126 47.139 7.86813 45.0349 8.50542C43.714 8.90604 43.6688 9.14271 44.8347 9.45208C45.8551 9.72534 46.8023 10.1987 47.312 10.6901C47.8132 11.1815 48.3139 12.1737 48.5963 13.2392C48.7423 13.8219 48.8241 13.9768 48.9696 13.9948C49.2154 14.0314 49.3067 13.8855 49.4888 13.1575C49.7075 12.2655 50.1811 11.2822 50.6271 10.7998C51.1007 10.2899 51.9932 9.81659 53.0498 9.50721C53.9422 9.25249 54.0426 9.19783 53.9879 8.95166C53.9698 8.83333 53.7421 8.72403 53.1135 8.54201C50.9823 7.92278 50.1169 7.06736 49.5064 4.98251C49.388 4.53627 49.2515 4.14515 49.224 4.0905C49.1427 3.96266 48.9515 3.97169 48.8331 4.10855Z" fill="url(#paint16_linear_1327_1024)"/>
</g>
</g>
<defs>
<filter id="filter0_d_1327_1024" x="56" y="2" width="29.999" height="30" filterUnits="userSpaceOnUse" color-interpolation-filters="sRGB">
<feFlood flood-opacity="0" result="BackgroundImageFix"/>
<feColorMatrix in="SourceAlpha" type="matrix" values="0 0 0 0 0 0 0 0 0 0 0 0 0 0 0 0 0 0 127 0" result="hardAlpha"/>
<feOffset dy="4"/>
<feGaussianBlur stdDeviation="2"/>
<feComposite in2="hardAlpha" operator="out"/>
<feColorMatrix type="matrix" values="0 0 0 0 0 0 0 0 0 0 0 0 0 0 0 0 0 0 0.25 0"/>
<feBlend mode="normal" in2="BackgroundImageFix" result="effect1_dropShadow_1327_1024"/>
<feBlend mode="normal" in="SourceGraphic" in2="effect1_dropShadow_1327_1024" result="shape"/>
</filter>
<filter id="filter1_d_1327_1024" x="13" y="17" width="58" height="58" filterUnits="userSpaceOnUse" color-interpolation-filters="sRGB">
<feFlood flood-opacity="0" result="BackgroundImageFix"/>
<feColorMatrix in="SourceAlpha" type="matrix" values="0 0 0 0 0 0 0 0 0 0 0 0 0 0 0 0 0 0 127 0" result="hardAlpha"/>
<feOffset dy="4"/>
<feGaussianBlur stdDeviation="2"/>
<feComposite in2="hardAlpha" operator="out"/>
<feColorMatrix type="matrix" values="0 0 0 0 0 0 0 0 0 0 0 0 0 0 0 0 0 0 0.25 0"/>
<feBlend mode="normal" in2="BackgroundImageFix" result="effect1_dropShadow_1327_1024"/>
<feBlend mode="normal" in="SourceGraphic" in2="effect1_dropShadow_1327_1024" result="shape"/>
</filter>
<filter id="filter2_d_1327_1024" x="8" y="20" width="23" height="23" filterUnits="userSpaceOnUse" color-interpolation-filters="sRGB">
<feFlood flood-opacity="0" result="BackgroundImageFix"/>
<feColorMatrix in="SourceAlpha" type="matrix" values="0 0 0 0 0 0 0 0 0 0 0 0 0 0 0 0 0 0 127 0" result="hardAlpha"/>
<feOffset dy="4"/>
<feGaussianBlur stdDeviation="2"/>
<feComposite in2="hardAlpha" operator="out"/>
<feColorMatrix type="matrix" values="0 0 0 0 0 0 0 0 0 0 0 0 0 0 0 0 0 0 0.25 0"/>
<feBlend mode="normal" in2="BackgroundImageFix" result="effect1_dropShadow_1327_1024"/>
<feBlend mode="normal" in="SourceGraphic" in2="effect1_dropShadow_1327_1024" result="shape"/>
</filter>
<filter id="filter3_d_1327_1024" x="56" y="27" width="18" height="18" filterUnits="userSpaceOnUse" color-interpolation-filters="sRGB">
<feFlood flood-opacity="0" result="BackgroundImageFix"/>
<feColorMatrix in="SourceAlpha" type="matrix" values="0 0 0 0 0 0 0 0 0 0 0 0 0 0 0 0 0 0 127 0" result="hardAlpha"/>
<feOffset dy="4"/>
<feGaussianBlur stdDeviation="2"/>
<feComposite in2="hardAlpha" operator="out"/>
<feColorMatrix type="matrix" values="0 0 0 0 0 0 0 0 0 0 0 0 0 0 0 0 0 0 0.25 0"/>
<feBlend mode="normal" in2="BackgroundImageFix" result="effect1_dropShadow_1327_1024"/>
<feBlend mode="normal" in="SourceGraphic" in2="effect1_dropShadow_1327_1024" result="shape"/>
</filter>
<filter id="filter4_d_1327_1024" x="3" y="67" width="18" height="18" filterUnits="userSpaceOnUse" color-interpolation-filters="sRGB">
<feFlood flood-opacity="0" result="BackgroundImageFix"/>
<feColorMatrix in="SourceAlpha" type="matrix" values="0 0 0 0 0 0 0 0 0 0 0 0 0 0 0 0 0 0 127 0" result="hardAlpha"/>
<feOffset dy="4"/>
<feGaussianBlur stdDeviation="2"/>
<feComposite in2="hardAlpha" operator="out"/>
<feColorMatrix type="matrix" values="0 0 0 0 0 0 0 0 0 0 0 0 0 0 0 0 0 0 0.25 0"/>
<feBlend mode="normal" in2="BackgroundImageFix" result="effect1_dropShadow_1327_1024"/>
<feBlend mode="normal" in="SourceGraphic" in2="effect1_dropShadow_1327_1024" result="shape"/>
</filter>
<filter id="filter5_d_1327_1024" x="59" y="44" width="18" height="18" filterUnits="userSpaceOnUse" color-interpolation-filters="sRGB">
<feFlood flood-opacity="0" result="BackgroundImageFix"/>
<feColorMatrix in="SourceAlpha" type="matrix" values="0 0 0 0 0 0 0 0 0 0 0 0 0 0 0 0 0 0 127 0" result="hardAlpha"/>
<feOffset dy="4"/>
<feGaussianBlur stdDeviation="2"/>
<feComposite in2="hardAlpha" operator="out"/>
<feColorMatrix type="matrix" values="0 0 0 0 0 0 0 0 0 0 0 0 0 0 0 0 0 0 0.25 0"/>
<feBlend mode="normal" in2="BackgroundImageFix" result="effect1_dropShadow_1327_1024"/>
<feBlend mode="normal" in="SourceGraphic" in2="effect1_dropShadow_1327_1024" result="shape"/>
</filter>
<filter id="filter6_d_1327_1024" x="61" y="70" width="18" height="18" filterUnits="userSpaceOnUse" color-interpolation-filters="sRGB">
<feFlood flood-opacity="0" result="BackgroundImageFix"/>
<feColorMatrix in="SourceAlpha" type="matrix" values="0 0 0 0 0 0 0 0 0 0 0 0 0 0 0 0 0 0 127 0" result="hardAlpha"/>
<feOffset dy="4"/>
<feGaussianBlur stdDeviation="2"/>
<feComposite in2="hardAlpha" operator="out"/>
<feColorMatrix type="matrix" values="0 0 0 0 0 0 0 0 0 0 0 0 0 0 0 0 0 0 0.25 0"/>
<feBlend mode="normal" in2="BackgroundImageFix" result="effect1_dropShadow_1327_1024"/>
<feBlend mode="normal" in="SourceGraphic" in2="effect1_dropShadow_1327_1024" result="shape"/>
</filter>
<filter id="filter7_d_1327_1024" x="40" y="4" width="18" height="18" filterUnits="userSpaceOnUse" color-interpolation-filters="sRGB">
<feFlood flood-opacity="0" result="BackgroundImageFix"/>
<feColorMatrix in="SourceAlpha" type="matrix" values="0 0 0 0 0 0 0 0 0 0 0 0 0 0 0 0 0 0 127 0" result="hardAlpha"/>
<feOffset dy="4"/>
<feGaussianBlur stdDeviation="2"/>
<feComposite in2="hardAlpha" operator="out"/>
<feColorMatrix type="matrix" values="0 0 0 0 0 0 0 0 0 0 0 0 0 0 0 0 0 0 0.25 0"/>
<feBlend mode="normal" in2="BackgroundImageFix" result="effect1_dropShadow_1327_1024"/>
<feBlend mode="normal" in="SourceGraphic" in2="effect1_dropShadow_1327_1024" result="shape"/>
</filter>
<linearGradient id="paint0_linear_1327_1024" x1="70.9989" y1="8.14014" x2="70.9989" y2="17.8605" gradientUnits="userSpaceOnUse">
<stop stop-color="#FBB03B"/>
<stop offset="1" stop-color="#F78140"/>
</linearGradient>
<linearGradient id="paint1_linear_1327_1024" x1="71.0007" y1="7.34521" x2="71.0007" y2="18.655" gradientUnits="userSpaceOnUse">
<stop stop-color="#FBB03B"/>
<stop offset="1" stop-color="#F78140"/>
</linearGradient>
<linearGradient id="paint2_linear_1327_1024" x1="70.9998" y1="2" x2="70.9998" y2="6.17325" gradientUnits="userSpaceOnUse">
<stop stop-color="#FBB03B"/>
<stop offset="1" stop-color="#F78140"/>
</linearGradient>
<linearGradient id="paint3_linear_1327_1024" x1="70.9998" y1="19.8267" x2="70.9998" y2="23.9999" gradientUnits="userSpaceOnUse">
<stop stop-color="#FBB03B"/>
<stop offset="1" stop-color="#F78140"/>
</linearGradient>
<linearGradient id="paint4_linear_1327_1024" x1="79.9128" y1="12.2051" x2="79.9128" y2="13.7945" gradientUnits="userSpaceOnUse">
<stop stop-color="#FBB03B"/>
<stop offset="1" stop-color="#F78140"/>
</linearGradient>
<linearGradient id="paint5_linear_1327_1024" x1="62.0867" y1="12.2051" x2="62.0867" y2="13.7945" gradientUnits="userSpaceOnUse">
<stop stop-color="#FBB03B"/>
<stop offset="1" stop-color="#F78140"/>
</linearGradient>
<linearGradient id="paint6_linear_1327_1024" x1="77.306" y1="4.98682" x2="77.306" y2="8.40466" gradientUnits="userSpaceOnUse">
<stop stop-color="#FBB03B"/>
<stop offset="1" stop-color="#F78140"/>
</linearGradient>
<linearGradient id="paint7_linear_1327_1024" x1="64.6976" y1="17.5942" x2="64.6976" y2="21.0121" gradientUnits="userSpaceOnUse">
<stop stop-color="#FBB03B"/>
<stop offset="1" stop-color="#F78140"/>
</linearGradient>
<linearGradient id="paint8_linear_1327_1024" x1="77.3031" y1="17.5942" x2="77.3031" y2="21.0121" gradientUnits="userSpaceOnUse">
<stop stop-color="#FBB03B"/>
<stop offset="1" stop-color="#F78140"/>
</linearGradient>
<linearGradient id="paint9_linear_1327_1024" x1="64.6976" y1="4.98682" x2="64.6976" y2="8.40466" gradientUnits="userSpaceOnUse">
<stop stop-color="#FBB03B"/>
<stop offset="1" stop-color="#F78140"/>
</linearGradient>
<linearGradient id="paint10_linear_1327_1024" x1="42" y1="17" x2="42" y2="67" gradientUnits="userSpaceOnUse">
<stop stop-color="#FBB03B"/>
<stop offset="1" stop-color="#F78140"/>
</linearGradient>
<linearGradient id="paint11_linear_1327_1024" x1="19.5" y1="35" x2="19.5" y2="20" gradientUnits="userSpaceOnUse">
<stop stop-color="#F78140"/>
<stop offset="1" stop-color="#FBB03B"/>
</linearGradient>
<linearGradient id="paint12_linear_1327_1024" x1="65" y1="37" x2="65" y2="27" gradientUnits="userSpaceOnUse">
<stop stop-color="#F78140"/>
<stop offset="1" stop-color="#FBB03B"/>
</linearGradient>
<linearGradient id="paint13_linear_1327_1024" x1="12" y1="77" x2="12" y2="67" gradientUnits="userSpaceOnUse">
<stop stop-color="#F78140"/>
<stop offset="1" stop-color="#FBB03B"/>
</linearGradient>
<linearGradient id="paint14_linear_1327_1024" x1="68" y1="54" x2="68" y2="44" gradientUnits="userSpaceOnUse">
<stop stop-color="#F78140"/>
<stop offset="1" stop-color="#FBB03B"/>
</linearGradient>
<linearGradient id="paint15_linear_1327_1024" x1="70" y1="80" x2="70" y2="70" gradientUnits="userSpaceOnUse">
<stop stop-color="#F78140"/>
<stop offset="1" stop-color="#FBB03B"/>
</linearGradient>
<linearGradient id="paint16_linear_1327_1024" x1="49" y1="14" x2="49" y2="4" gradientUnits="userSpaceOnUse">
<stop stop-color="#F78140"/>
<stop offset="1" stop-color="#FBB03B"/>
</linearGradient>
<clipPath id="clip0_1327_1024">
<rect width="83.75" height="83.75" fill="white"/>
</clipPath>
</defs>
</svg>
