<svg width="84" height="84" viewBox="0 0 84 84" fill="none" xmlns="http://www.w3.org/2000/svg">
<g filter="url(#filter0_d_1228_38)">
<path d="M38.3267 31.1882C38.84 30.8994 39.3278 30.8194 39.7902 30.9483C40.268 31.0814 40.6271 31.223 40.8675 31.373C41.1078 31.523 41.2822 31.6713 41.3906 31.8178C41.5034 31.9488 41.5658 32.1406 41.5779 32.3931C41.5814 32.6765 41.5051 33.0954 41.3493 33.6499L37.7316 46.5191C37.632 46.8733 37.5408 47.1386 37.458 47.3148C37.395 47.48 37.2693 47.6609 37.0811 47.8576C36.7484 48.2133 36.0888 48.2538 35.1024 47.9789C34.1468 47.7126 33.6097 47.347 33.4911 46.8821C33.4327 46.6167 33.4141 46.3873 33.4353 46.1939C33.4761 45.9894 33.5485 45.7023 33.6525 45.3326L35.9712 37.0843L35.5927 37.2778C34.8265 37.5792 34.22 37.6676 33.773 37.5431C33.326 37.4185 32.9317 37.018 32.59 36.3415C32.2638 35.6692 32.1591 35.1252 32.276 34.7093C32.3929 34.2934 32.7981 33.9163 33.4915 33.578L38.2443 31.2151L38.3267 31.1882ZM44.6468 34.4442C45.2713 33.9372 46.0427 33.5874 46.9611 33.3949C47.8992 33.1912 48.9 33.2376 49.9635 33.5339C51.027 33.8303 51.8933 34.2959 52.5624 34.9308C53.247 35.57 53.7262 36.26 53.9999 37.0006C54.2891 37.7456 54.4555 38.5726 54.4991 39.4817C54.5718 40.9968 54.3895 42.5322 53.9522 44.0879C53.1685 46.8758 51.946 48.9187 50.2848 50.2164C49.6647 50.7079 48.8975 51.0423 47.9835 51.2194C47.0849 51.4009 46.1115 51.3456 45.0634 51.0535C44.0154 50.7615 43.1392 50.3014 42.4349 49.6733C41.7503 49.0341 41.2613 48.3497 40.9678 47.6202C40.6897 46.8949 40.5211 46.0756 40.4621 45.1622C40.3875 43.713 40.5862 42.149 41.0582 40.47C41.4911 38.9297 42.0386 37.6622 42.7005 36.6673C43.3779 35.6768 44.0266 34.9358 44.6468 34.4442ZM46.1733 46.9281C47.7608 47.3704 48.9789 46.0821 49.8276 43.0631L49.8666 42.9245C50.7369 39.8285 50.386 38.0615 48.8139 37.6234C47.2418 37.1853 46.0184 38.522 45.1438 41.6334C44.2734 44.7294 44.6166 46.4943 46.1733 46.9281Z" fill="url(#paint0_linear_1228_38)"/>
</g>
<g filter="url(#filter1_d_1228_38)">
<path d="M62.4249 17.9728L37.4272 11.2336C35.3136 10.6638 32.4772 11.3885 32.0105 13.1198L19.0276 61.2772C18.4668 63.357 20.4622 65.7521 22.5758 66.3219L47.5734 73.0612C49.687 73.631 52.2674 72.4694 52.8281 70.3896L65.7186 22.5751C66.2721 20.4993 64.5385 18.5426 62.4249 17.9728ZM45.9053 17.6074L51.8919 19.2214L51.5176 20.6098L45.531 18.9959L45.9053 17.6074ZM35.4582 67.5639C34.0473 67.1835 32.9224 65.7648 33.3891 64.0334C33.7634 62.645 35.193 61.547 36.9525 62.0214C38.3634 62.4018 39.4883 63.8205 39.0216 65.5519C38.5548 67.2832 37.2177 68.0383 35.4582 67.5639ZM50.5433 63.4543L24.8373 56.5242L34.6438 20.149L60.3441 27.0776L50.5376 63.4528L50.5433 63.4543Z" fill="url(#paint1_linear_1228_38)"/>
</g>
<defs>
<filter id="filter0_d_1228_38" x="24.9443" y="29.0486" width="35.4692" height="31.7959" filterUnits="userSpaceOnUse" color-interpolation-filters="sRGB">
<feFlood flood-opacity="0" result="BackgroundImageFix"/>
<feColorMatrix in="SourceAlpha" type="matrix" values="0 0 0 0 0 0 0 0 0 0 0 0 0 0 0 0 0 0 127 0" result="hardAlpha"/>
<feOffset dy="4"/>
<feGaussianBlur stdDeviation="2"/>
<feComposite in2="hardAlpha" operator="out"/>
<feColorMatrix type="matrix" values="0 0 0 0 0 0 0 0 0 0 0 0 0 0 0 0 0 0 0.25 0"/>
<feBlend mode="normal" in2="BackgroundImageFix" result="effect1_dropShadow_1228_38"/>
<feBlend mode="normal" in="SourceGraphic" in2="effect1_dropShadow_1228_38" result="shape"/>
</filter>
<filter id="filter1_d_1228_38" x="14.9316" y="11.0422" width="54.8911" height="70.1633" filterUnits="userSpaceOnUse" color-interpolation-filters="sRGB">
<feFlood flood-opacity="0" result="BackgroundImageFix"/>
<feColorMatrix in="SourceAlpha" type="matrix" values="0 0 0 0 0 0 0 0 0 0 0 0 0 0 0 0 0 0 127 0" result="hardAlpha"/>
<feOffset dy="4"/>
<feGaussianBlur stdDeviation="2"/>
<feComposite in2="hardAlpha" operator="out"/>
<feColorMatrix type="matrix" values="0 0 0 0 0 0 0 0 0 0 0 0 0 0 0 0 0 0 0.25 0"/>
<feBlend mode="normal" in2="BackgroundImageFix" result="effect1_dropShadow_1228_38"/>
<feBlend mode="normal" in="SourceGraphic" in2="effect1_dropShadow_1228_38" result="shape"/>
</filter>
<linearGradient id="paint0_linear_1228_38" x1="48.0223" y1="27.6531" x2="40.1741" y2="55.8179" gradientUnits="userSpaceOnUse">
<stop stop-color="white"/>
<stop offset="1" stop-color="#BFBFBF"/>
</linearGradient>
<linearGradient id="paint1_linear_1228_38" x1="49.7518" y1="14.5562" x2="34.9004" y2="69.6446" gradientUnits="userSpaceOnUse">
<stop stop-color="white"/>
<stop offset="1" stop-color="#BFBFBF"/>
</linearGradient>
</defs>
</svg>
