<svg width="84" height="84" viewBox="0 0 84 84" fill="none" xmlns="http://www.w3.org/2000/svg">
<g clip-path="url(#clip0_528_48)">
<g filter="url(#filter0_d_528_48)">
<path d="M71.5 24C77.2991 24 82 19.2991 82 13.5C82 7.70095 77.2991 3 71.5 3C65.7009 3 61 7.70095 61 13.5C61 19.2991 65.7009 24 71.5 24ZM65.183 17.792C64.3505 16.5689 63.8636 15.0912 63.8636 13.5C63.8636 9.28263 67.2826 5.86364 71.5 5.86364C73.0912 5.86364 74.5689 6.35045 75.792 7.18301L65.183 17.792ZM67.208 19.817L77.817 9.20798C78.6495 10.4311 79.1364 11.9088 79.1364 13.5C79.1364 17.7174 75.7174 21.1364 71.5 21.1364C69.9088 21.1364 68.4311 20.6495 67.208 19.817Z" fill="url(#paint0_linear_528_48)"/>
</g>
<g filter="url(#filter1_d_528_48)">
<path d="M61.7638 67H22.2511C17.4139 67 15.5919 63.8429 18.1713 59.9644L35.4196 34.1504V21.1649H33.2261C32.6587 21.1783 32.1092 20.9663 31.698 20.5753C31.2868 20.1843 31.0475 19.6463 31.0325 19.0792C31.0493 18.5133 31.2895 17.9771 31.7005 17.5877C32.1115 17.1982 32.6599 16.9871 33.2261 17.0006H50.7888C51.355 16.9871 51.9034 17.1982 52.3144 17.5877C52.7254 17.9771 52.9656 18.5133 52.9824 19.0792C52.9674 19.6463 52.7281 20.1843 52.3169 20.5753C51.9057 20.9663 51.3562 21.1783 50.7888 21.1649H48.5881V34.1504L65.8437 59.9644C68.4088 63.8429 66.5582 67 61.7566 67H61.7638ZM29.7964 50.3288H54.2185L44.887 36.3647L44.1724 35.3504V21.1649H39.7782V35.3576L39.0637 36.3719L29.7392 50.3288H29.7964Z" fill="url(#paint1_linear_528_48)"/>
</g>
</g>
<defs>
<filter id="filter0_d_528_48" x="57" y="3" width="29" height="29" filterUnits="userSpaceOnUse" color-interpolation-filters="sRGB">
<feFlood flood-opacity="0" result="BackgroundImageFix"/>
<feColorMatrix in="SourceAlpha" type="matrix" values="0 0 0 0 0 0 0 0 0 0 0 0 0 0 0 0 0 0 127 0" result="hardAlpha"/>
<feOffset dy="4"/>
<feGaussianBlur stdDeviation="2"/>
<feComposite in2="hardAlpha" operator="out"/>
<feColorMatrix type="matrix" values="0 0 0 0 0 0 0 0 0 0 0 0 0 0 0 0 0 0 0.25 0"/>
<feBlend mode="normal" in2="BackgroundImageFix" result="effect1_dropShadow_528_48"/>
<feBlend mode="normal" in="SourceGraphic" in2="effect1_dropShadow_528_48" result="shape"/>
</filter>
<filter id="filter1_d_528_48" x="13" y="17" width="58" height="58" filterUnits="userSpaceOnUse" color-interpolation-filters="sRGB">
<feFlood flood-opacity="0" result="BackgroundImageFix"/>
<feColorMatrix in="SourceAlpha" type="matrix" values="0 0 0 0 0 0 0 0 0 0 0 0 0 0 0 0 0 0 127 0" result="hardAlpha"/>
<feOffset dy="4"/>
<feGaussianBlur stdDeviation="2"/>
<feComposite in2="hardAlpha" operator="out"/>
<feColorMatrix type="matrix" values="0 0 0 0 0 0 0 0 0 0 0 0 0 0 0 0 0 0 0.25 0"/>
<feBlend mode="normal" in2="BackgroundImageFix" result="effect1_dropShadow_528_48"/>
<feBlend mode="normal" in="SourceGraphic" in2="effect1_dropShadow_528_48" result="shape"/>
</filter>
<linearGradient id="paint0_linear_528_48" x1="71.5" y1="3" x2="71.5" y2="24" gradientUnits="userSpaceOnUse">
<stop stop-color="white"/>
<stop offset="1" stop-color="#BFBFBF"/>
</linearGradient>
<linearGradient id="paint1_linear_528_48" x1="42" y1="17" x2="42" y2="67" gradientUnits="userSpaceOnUse">
<stop stop-color="white"/>
<stop offset="1" stop-color="#BFBFBF"/>
</linearGradient>
<clipPath id="clip0_528_48">
<rect width="83.75" height="83.75" fill="white"/>
</clipPath>
</defs>
</svg>
