<svg width="84" height="84" viewBox="0 0 84 84" fill="none" xmlns="http://www.w3.org/2000/svg">
<g clip-path="url(#clip0_556_15)">
<g filter="url(#filter0_d_556_15)">
<path d="M71.5 24C77.2991 24 82 19.2991 82 13.5C82 7.70095 77.2991 3 71.5 3C65.7009 3 61 7.70095 61 13.5C61 19.2991 65.7009 24 71.5 24ZM65.183 17.792C64.3505 16.5689 63.8636 15.0912 63.8636 13.5C63.8636 9.28263 67.2826 5.86364 71.5 5.86364C73.0912 5.86364 74.5689 6.35045 75.792 7.18301L65.183 17.792ZM67.208 19.817L77.817 9.20798C78.6495 10.4311 79.1364 11.9088 79.1364 13.5C79.1364 17.7174 75.7174 21.1364 71.5 21.1364C69.9088 21.1364 68.4311 20.6495 67.208 19.817Z" fill="url(#paint0_linear_556_15)"/>
</g>
<g filter="url(#filter1_d_556_15)">
<path d="M38.9306 17.1626C31.6541 18.0421 25.0404 22.1794 20.9679 28.391C20.1858 29.5853 18.948 32.0504 18.47 33.3865C17.9919 34.7006 17.4276 36.9264 17.1996 38.3819C16.9281 40.1292 16.9389 43.9298 17.1996 45.6567C18.4919 53.888 23.5419 60.8159 30.9052 64.4431C33.2398 65.594 35.3796 66.2781 38.0837 66.7454C39.9623 67.0602 43.7311 67.0928 45.6204 66.7888C55.6663 65.2144 63.6699 58.0473 66.1898 48.3717C66.7 46.428 66.9066 44.9838 66.9826 42.8768C67.276 34.9169 63.8439 27.4789 57.5128 22.3641C54.8413 20.2031 50.7903 18.292 47.326 17.5426C44.8281 16.9993 41.4832 16.8473 38.9306 17.1626ZM44.2633 20.4638C52.3541 21.3759 59.2066 26.5994 62.1826 34.1461C63.1816 36.6872 63.5944 39.0216 63.5837 42.0734C63.5837 44.4624 63.4536 45.5373 62.9209 47.557C61.5959 52.6499 58.2944 57.1999 53.7878 60.1644C49.824 62.7815 44.676 64.0411 39.9628 63.5743C34.6847 63.0422 30.1235 60.8378 26.4526 57.0479C24.0307 54.5502 22.521 52.0744 21.446 48.8599C19.9363 44.3099 19.9363 39.7164 21.4679 35.123C24.1067 27.185 31.1985 21.4407 39.5393 20.474C40.7011 20.3439 43.1118 20.3332 44.2633 20.4638Z" fill="url(#paint1_linear_556_15)"/>
<path d="M28.8964 28.141C28.5816 28.2604 28.1469 28.7491 28.0821 29.0532C28.0387 29.2486 28.0928 29.5312 28.2234 29.824C28.5168 30.4862 37.2591 46.4494 37.4112 46.5902C37.5739 46.7642 53.8101 55.6357 54.3096 55.8311C54.657 55.9724 54.755 55.9724 55.1024 55.8204C55.6019 55.6143 55.9713 55.0603 55.8953 54.6149C55.8626 54.3328 47.4785 38.8583 46.7622 37.7288C46.556 37.4028 45.3392 36.6973 38.1173 32.7553C33.5015 30.225 29.5704 28.1293 29.3857 28.1078C29.2112 28.0864 28.9831 28.0976 28.8964 28.141ZM42.9601 39.8903C44.4265 40.5525 44.7739 42.4967 43.6336 43.6369C42.8841 44.3751 41.9504 44.5384 40.9943 44.093C39.2458 43.2788 39.2132 40.8464 40.9402 39.9342C41.527 39.6297 42.3413 39.6082 42.9601 39.8903Z" fill="url(#paint2_linear_556_15)"/>
</g>
</g>
<defs>
<filter id="filter0_d_556_15" x="57" y="3" width="29" height="29" filterUnits="userSpaceOnUse" color-interpolation-filters="sRGB">
<feFlood flood-opacity="0" result="BackgroundImageFix"/>
<feColorMatrix in="SourceAlpha" type="matrix" values="0 0 0 0 0 0 0 0 0 0 0 0 0 0 0 0 0 0 127 0" result="hardAlpha"/>
<feOffset dy="4"/>
<feGaussianBlur stdDeviation="2"/>
<feComposite in2="hardAlpha" operator="out"/>
<feColorMatrix type="matrix" values="0 0 0 0 0 0 0 0 0 0 0 0 0 0 0 0 0 0 0.25 0"/>
<feBlend mode="normal" in2="BackgroundImageFix" result="effect1_dropShadow_556_15"/>
<feBlend mode="normal" in="SourceGraphic" in2="effect1_dropShadow_556_15" result="shape"/>
</filter>
<filter id="filter1_d_556_15" x="13" y="17" width="58" height="58" filterUnits="userSpaceOnUse" color-interpolation-filters="sRGB">
<feFlood flood-opacity="0" result="BackgroundImageFix"/>
<feColorMatrix in="SourceAlpha" type="matrix" values="0 0 0 0 0 0 0 0 0 0 0 0 0 0 0 0 0 0 127 0" result="hardAlpha"/>
<feOffset dy="4"/>
<feGaussianBlur stdDeviation="2"/>
<feComposite in2="hardAlpha" operator="out"/>
<feColorMatrix type="matrix" values="0 0 0 0 0 0 0 0 0 0 0 0 0 0 0 0 0 0 0.25 0"/>
<feBlend mode="normal" in2="BackgroundImageFix" result="effect1_dropShadow_556_15"/>
<feBlend mode="normal" in="SourceGraphic" in2="effect1_dropShadow_556_15" result="shape"/>
</filter>
<linearGradient id="paint0_linear_556_15" x1="71.5" y1="3" x2="71.5" y2="24" gradientUnits="userSpaceOnUse">
<stop stop-color="white"/>
<stop offset="1" stop-color="#BFBFBF"/>
</linearGradient>
<linearGradient id="paint1_linear_556_15" x1="42" y1="67" x2="42" y2="17" gradientUnits="userSpaceOnUse">
<stop stop-color="#BFBFBF"/>
<stop offset="1" stop-color="white"/>
</linearGradient>
<linearGradient id="paint2_linear_556_15" x1="41.9863" y1="55.9358" x2="41.9863" y2="28.0973" gradientUnits="userSpaceOnUse">
<stop stop-color="#BFBFBF"/>
<stop offset="1" stop-color="white"/>
</linearGradient>
<clipPath id="clip0_556_15">
<rect width="83.75" height="83.75" fill="white"/>
</clipPath>
</defs>
</svg>
