<svg width="84" height="84" viewBox="0 0 84 84" fill="none" xmlns="http://www.w3.org/2000/svg">
<g clip-path="url(#clip0_1327_1041)">
<g filter="url(#filter0_d_1327_1041)">
<path d="M71.5 24C77.2991 24 82 19.2991 82 13.5C82 7.70095 77.2991 3 71.5 3C65.7009 3 61 7.70095 61 13.5C61 19.2991 65.7009 24 71.5 24ZM65.183 17.792C64.3505 16.5689 63.8636 15.0912 63.8636 13.5C63.8636 9.28263 67.2826 5.86364 71.5 5.86364C73.0912 5.86364 74.5689 6.35045 75.792 7.18301L65.183 17.792ZM67.208 19.817L77.817 9.20798C78.6495 10.4311 79.1364 11.9088 79.1364 13.5C79.1364 17.7174 75.7174 21.1364 71.5 21.1364C69.9088 21.1364 68.4311 20.6495 67.208 19.817Z" fill="url(#paint0_linear_1327_1041)"/>
</g>
<g filter="url(#filter1_d_1327_1041)">
<path d="M61.7638 67H22.2511C17.4139 67 15.5919 63.8429 18.1713 59.9644L35.4196 34.1504V21.1649H33.2261C32.6587 21.1783 32.1092 20.9663 31.698 20.5753C31.2868 20.1843 31.0475 19.6463 31.0325 19.0792C31.0493 18.5133 31.2895 17.9771 31.7005 17.5877C32.1115 17.1982 32.6599 16.9871 33.2261 17.0006H50.7888C51.355 16.9871 51.9034 17.1982 52.3144 17.5877C52.7254 17.9771 52.9656 18.5133 52.9824 19.0792C52.9674 19.6463 52.7281 20.1843 52.3169 20.5753C51.9057 20.9663 51.3562 21.1783 50.7888 21.1649H48.5881V34.1504L65.8437 59.9644C68.4088 63.8429 66.5582 67 61.7566 67H61.7638ZM29.7964 50.3288H54.2185L44.887 36.3647L44.1724 35.3504V21.1649H39.7782V35.3576L39.0637 36.3719L29.7392 50.3288H29.7964Z" fill="url(#paint1_linear_1327_1041)"/>
</g>
<g filter="url(#filter2_d_1327_1041)">
<path d="M68.2497 31.1628C68.1812 31.2584 67.9765 31.8322 67.826 32.4324C66.9787 35.5319 65.7084 36.8022 62.5524 37.7581C60.571 38.3591 60.5033 38.7141 62.2521 39.1781C63.7827 39.588 65.2035 40.298 65.968 41.0351C66.7198 41.7722 67.4708 43.2606 67.8945 44.8588C68.1135 45.7328 68.2361 45.9652 68.4544 45.9923C68.8231 46.0472 68.9601 45.8283 69.2332 44.7362C69.5613 43.3982 70.2717 41.9233 70.9407 41.1998C71.6511 40.4349 72.9898 39.7249 74.5746 39.2608C75.9134 38.8787 76.0639 38.7967 75.9818 38.4275C75.9547 38.25 75.6131 38.086 74.6702 37.813C71.4735 36.8842 70.1754 35.601 69.2596 32.4738C69.082 31.8044 68.8773 31.2177 68.836 31.1357C68.714 30.944 68.4273 30.9575 68.2497 31.1628Z" fill="url(#paint2_linear_1327_1041)"/>
</g>
<g filter="url(#filter3_d_1327_1041)">
<path d="M21.8331 12.1086C21.7875 12.1722 21.651 12.5548 21.5507 12.9549C20.9858 15.0213 20.139 15.8681 18.0349 16.5054C16.714 16.906 16.6688 17.1427 17.8347 17.4521C18.8551 17.7253 19.8023 18.1987 20.312 18.6901C20.8132 19.1815 21.3139 20.1737 21.5963 21.2392C21.7423 21.8219 21.8241 21.9768 21.9696 21.9948C22.2154 22.0314 22.3067 21.8855 22.4888 21.1575C22.7075 20.2655 23.1811 19.2822 23.6271 18.7998C24.1007 18.2899 24.9932 17.8166 26.0498 17.5072C26.9422 17.2525 27.0426 17.1978 26.9879 16.9517C26.9698 16.8333 26.7421 16.724 26.1135 16.542C23.9823 15.9228 23.1169 15.0674 22.5064 12.9825C22.388 12.5363 22.2515 12.1451 22.224 12.0905C22.1427 11.9627 21.9515 11.9717 21.8331 12.1086Z" fill="url(#paint3_linear_1327_1041)"/>
</g>
<g filter="url(#filter4_d_1327_1041)">
<path d="M73.8331 67.1086C73.7875 67.1722 73.651 67.5548 73.5507 67.9549C72.9858 70.0213 72.139 70.8681 70.0349 71.5054C68.714 71.906 68.6688 72.1427 69.8347 72.4521C70.8551 72.7253 71.8023 73.1987 72.312 73.6901C72.8132 74.1815 73.3139 75.1737 73.5963 76.2392C73.7423 76.8219 73.8241 76.9768 73.9696 76.9948C74.2154 77.0314 74.3067 76.8855 74.4888 76.1575C74.7075 75.2655 75.1811 74.2822 75.6271 73.7998C76.1007 73.2899 76.9932 72.8166 78.0498 72.5072C78.9422 72.2525 79.0426 72.1978 78.9879 71.9517C78.9698 71.8333 78.7421 71.724 78.1135 71.542C75.9823 70.9228 75.1169 70.0674 74.5064 67.9825C74.388 67.5363 74.2515 67.1451 74.224 67.0905C74.1427 66.9627 73.9515 66.9717 73.8331 67.1086Z" fill="url(#paint4_linear_1327_1041)"/>
</g>
<g filter="url(#filter5_d_1327_1041)">
<path d="M14.8331 36.1086C14.7875 36.1722 14.651 36.5548 14.5507 36.9549C13.9858 39.0213 13.139 39.8681 11.0349 40.5054C9.71401 40.906 9.66883 41.1427 10.8347 41.4521C11.8551 41.7253 12.8023 42.1987 13.312 42.6901C13.8132 43.1815 14.3139 44.1737 14.5963 45.2392C14.7423 45.8219 14.8241 45.9768 14.9696 45.9948C15.2154 46.0314 15.3067 45.8855 15.4888 45.1575C15.7075 44.2655 16.1811 43.2822 16.6271 42.7998C17.1007 42.2899 17.9932 41.8166 19.0498 41.5072C19.9422 41.2525 20.0426 41.1978 19.9879 40.9517C19.9698 40.8333 19.7421 40.724 19.1135 40.542C16.9823 39.9228 16.1169 39.0674 15.5064 36.9825C15.388 36.5363 15.2515 36.1451 15.224 36.0905C15.1427 35.9627 14.9515 35.9717 14.8331 36.1086Z" fill="url(#paint5_linear_1327_1041)"/>
</g>
<g filter="url(#filter6_d_1327_1041)">
<path d="M26.8331 69.1086C26.7875 69.1722 26.651 69.5548 26.5507 69.9549C25.9858 72.0213 25.139 72.8681 23.0349 73.5054C21.714 73.906 21.6688 74.1427 22.8347 74.4521C23.8551 74.7253 24.8023 75.1987 25.312 75.6901C25.8132 76.1815 26.3139 77.1737 26.5963 78.2392C26.7423 78.8219 26.8241 78.9768 26.9696 78.9948C27.2154 79.0314 27.3067 78.8855 27.4888 78.1575C27.7075 77.2655 28.1811 76.2822 28.6271 75.7998C29.1007 75.2899 29.9932 74.8166 31.0498 74.5072C31.9422 74.2525 32.0426 74.1978 31.9879 73.9517C31.9698 73.8333 31.7421 73.724 31.1135 73.542C28.9823 72.9228 28.1169 72.0674 27.5064 69.9825C27.388 69.5363 27.2515 69.1451 27.224 69.0905C27.1427 68.9627 26.9515 68.9717 26.8331 69.1086Z" fill="url(#paint6_linear_1327_1041)"/>
</g>
</g>
<defs>
<filter id="filter0_d_1327_1041" x="57" y="3" width="29" height="29" filterUnits="userSpaceOnUse" color-interpolation-filters="sRGB">
<feFlood flood-opacity="0" result="BackgroundImageFix"/>
<feColorMatrix in="SourceAlpha" type="matrix" values="0 0 0 0 0 0 0 0 0 0 0 0 0 0 0 0 0 0 127 0" result="hardAlpha"/>
<feOffset dy="4"/>
<feGaussianBlur stdDeviation="2"/>
<feComposite in2="hardAlpha" operator="out"/>
<feColorMatrix type="matrix" values="0 0 0 0 0 0 0 0 0 0 0 0 0 0 0 0 0 0 0.25 0"/>
<feBlend mode="normal" in2="BackgroundImageFix" result="effect1_dropShadow_1327_1041"/>
<feBlend mode="normal" in="SourceGraphic" in2="effect1_dropShadow_1327_1041" result="shape"/>
</filter>
<filter id="filter1_d_1327_1041" x="13" y="17" width="58" height="58" filterUnits="userSpaceOnUse" color-interpolation-filters="sRGB">
<feFlood flood-opacity="0" result="BackgroundImageFix"/>
<feColorMatrix in="SourceAlpha" type="matrix" values="0 0 0 0 0 0 0 0 0 0 0 0 0 0 0 0 0 0 127 0" result="hardAlpha"/>
<feOffset dy="4"/>
<feGaussianBlur stdDeviation="2"/>
<feComposite in2="hardAlpha" operator="out"/>
<feColorMatrix type="matrix" values="0 0 0 0 0 0 0 0 0 0 0 0 0 0 0 0 0 0 0.25 0"/>
<feBlend mode="normal" in2="BackgroundImageFix" result="effect1_dropShadow_1327_1041"/>
<feBlend mode="normal" in="SourceGraphic" in2="effect1_dropShadow_1327_1041" result="shape"/>
</filter>
<filter id="filter2_d_1327_1041" x="57" y="31" width="23" height="23" filterUnits="userSpaceOnUse" color-interpolation-filters="sRGB">
<feFlood flood-opacity="0" result="BackgroundImageFix"/>
<feColorMatrix in="SourceAlpha" type="matrix" values="0 0 0 0 0 0 0 0 0 0 0 0 0 0 0 0 0 0 127 0" result="hardAlpha"/>
<feOffset dy="4"/>
<feGaussianBlur stdDeviation="2"/>
<feComposite in2="hardAlpha" operator="out"/>
<feColorMatrix type="matrix" values="0 0 0 0 0 0 0 0 0 0 0 0 0 0 0 0 0 0 0.25 0"/>
<feBlend mode="normal" in2="BackgroundImageFix" result="effect1_dropShadow_1327_1041"/>
<feBlend mode="normal" in="SourceGraphic" in2="effect1_dropShadow_1327_1041" result="shape"/>
</filter>
<filter id="filter3_d_1327_1041" x="13" y="12" width="18" height="18" filterUnits="userSpaceOnUse" color-interpolation-filters="sRGB">
<feFlood flood-opacity="0" result="BackgroundImageFix"/>
<feColorMatrix in="SourceAlpha" type="matrix" values="0 0 0 0 0 0 0 0 0 0 0 0 0 0 0 0 0 0 127 0" result="hardAlpha"/>
<feOffset dy="4"/>
<feGaussianBlur stdDeviation="2"/>
<feComposite in2="hardAlpha" operator="out"/>
<feColorMatrix type="matrix" values="0 0 0 0 0 0 0 0 0 0 0 0 0 0 0 0 0 0 0.25 0"/>
<feBlend mode="normal" in2="BackgroundImageFix" result="effect1_dropShadow_1327_1041"/>
<feBlend mode="normal" in="SourceGraphic" in2="effect1_dropShadow_1327_1041" result="shape"/>
</filter>
<filter id="filter4_d_1327_1041" x="65" y="67" width="18" height="18" filterUnits="userSpaceOnUse" color-interpolation-filters="sRGB">
<feFlood flood-opacity="0" result="BackgroundImageFix"/>
<feColorMatrix in="SourceAlpha" type="matrix" values="0 0 0 0 0 0 0 0 0 0 0 0 0 0 0 0 0 0 127 0" result="hardAlpha"/>
<feOffset dy="4"/>
<feGaussianBlur stdDeviation="2"/>
<feComposite in2="hardAlpha" operator="out"/>
<feColorMatrix type="matrix" values="0 0 0 0 0 0 0 0 0 0 0 0 0 0 0 0 0 0 0.25 0"/>
<feBlend mode="normal" in2="BackgroundImageFix" result="effect1_dropShadow_1327_1041"/>
<feBlend mode="normal" in="SourceGraphic" in2="effect1_dropShadow_1327_1041" result="shape"/>
</filter>
<filter id="filter5_d_1327_1041" x="6" y="36" width="18" height="18" filterUnits="userSpaceOnUse" color-interpolation-filters="sRGB">
<feFlood flood-opacity="0" result="BackgroundImageFix"/>
<feColorMatrix in="SourceAlpha" type="matrix" values="0 0 0 0 0 0 0 0 0 0 0 0 0 0 0 0 0 0 127 0" result="hardAlpha"/>
<feOffset dy="4"/>
<feGaussianBlur stdDeviation="2"/>
<feComposite in2="hardAlpha" operator="out"/>
<feColorMatrix type="matrix" values="0 0 0 0 0 0 0 0 0 0 0 0 0 0 0 0 0 0 0.25 0"/>
<feBlend mode="normal" in2="BackgroundImageFix" result="effect1_dropShadow_1327_1041"/>
<feBlend mode="normal" in="SourceGraphic" in2="effect1_dropShadow_1327_1041" result="shape"/>
</filter>
<filter id="filter6_d_1327_1041" x="18" y="69" width="18" height="18" filterUnits="userSpaceOnUse" color-interpolation-filters="sRGB">
<feFlood flood-opacity="0" result="BackgroundImageFix"/>
<feColorMatrix in="SourceAlpha" type="matrix" values="0 0 0 0 0 0 0 0 0 0 0 0 0 0 0 0 0 0 127 0" result="hardAlpha"/>
<feOffset dy="4"/>
<feGaussianBlur stdDeviation="2"/>
<feComposite in2="hardAlpha" operator="out"/>
<feColorMatrix type="matrix" values="0 0 0 0 0 0 0 0 0 0 0 0 0 0 0 0 0 0 0.25 0"/>
<feBlend mode="normal" in2="BackgroundImageFix" result="effect1_dropShadow_1327_1041"/>
<feBlend mode="normal" in="SourceGraphic" in2="effect1_dropShadow_1327_1041" result="shape"/>
</filter>
<linearGradient id="paint0_linear_1327_1041" x1="71.5" y1="3" x2="71.5" y2="24" gradientUnits="userSpaceOnUse">
<stop stop-color="#FBB03B"/>
<stop offset="1" stop-color="#F78140"/>
</linearGradient>
<linearGradient id="paint1_linear_1327_1041" x1="42" y1="17" x2="42" y2="67" gradientUnits="userSpaceOnUse">
<stop stop-color="#FBB03B"/>
<stop offset="1" stop-color="#F78140"/>
</linearGradient>
<linearGradient id="paint2_linear_1327_1041" x1="68.5" y1="46" x2="68.5" y2="31" gradientUnits="userSpaceOnUse">
<stop stop-color="#F78140"/>
<stop offset="1" stop-color="#FBB03B"/>
</linearGradient>
<linearGradient id="paint3_linear_1327_1041" x1="22" y1="22" x2="22" y2="12" gradientUnits="userSpaceOnUse">
<stop stop-color="#F78140"/>
<stop offset="1" stop-color="#FBB03B"/>
</linearGradient>
<linearGradient id="paint4_linear_1327_1041" x1="74" y1="77" x2="74" y2="67" gradientUnits="userSpaceOnUse">
<stop stop-color="#F78140"/>
<stop offset="1" stop-color="#FBB03B"/>
</linearGradient>
<linearGradient id="paint5_linear_1327_1041" x1="15" y1="46" x2="15" y2="36" gradientUnits="userSpaceOnUse">
<stop stop-color="#F78140"/>
<stop offset="1" stop-color="#FBB03B"/>
</linearGradient>
<linearGradient id="paint6_linear_1327_1041" x1="27" y1="79" x2="27" y2="69" gradientUnits="userSpaceOnUse">
<stop stop-color="#F78140"/>
<stop offset="1" stop-color="#FBB03B"/>
</linearGradient>
<clipPath id="clip0_1327_1041">
<rect width="83.75" height="83.75" fill="white"/>
</clipPath>
</defs>
</svg>
