<svg width="84" height="84" viewBox="0 0 84 84" fill="none" xmlns="http://www.w3.org/2000/svg">
<g clip-path="url(#clip0_760_30)">
<g filter="url(#filter0_d_760_30)">
<path d="M70.9994 17.8605C73.6837 17.8605 75.8597 15.6845 75.8597 13.0003C75.8597 10.3161 73.6837 8.14014 70.9994 8.14014C68.3152 8.14014 66.1392 10.3161 66.1392 13.0003C66.1392 15.6845 68.3152 17.8605 70.9994 17.8605Z" fill="url(#paint0_linear_760_30)"/>
<path d="M71.0002 18.655C67.882 18.655 65.3452 16.1182 65.3452 13.0001C65.3452 9.88194 67.882 7.34521 71.0002 7.34521C74.1184 7.34521 76.6551 9.88194 76.6551 13.0001C76.6551 16.1182 74.1184 18.655 71.0002 18.655ZM71.0002 8.9346C68.7575 8.9346 66.9346 10.7574 66.9346 13.0001C66.9346 15.2427 68.7575 17.0656 71.0002 17.0656C73.2428 17.0656 75.0657 15.2427 75.0657 13.0001C75.0657 10.7574 73.2428 8.9346 71.0002 8.9346Z" fill="url(#paint1_linear_760_30)"/>
<path d="M71 6.17325C70.56 6.17325 70.2053 5.81856 70.2053 5.37856V2.79469C70.2053 2.35694 70.56 2 71 2C71.4378 2 71.7947 2.35469 71.7947 2.79469V5.37856C71.7947 5.81631 71.4378 6.17325 71 6.17325Z" fill="url(#paint2_linear_760_30)"/>
<path d="M71 23.9999C70.56 23.9999 70.2053 23.6452 70.2053 23.2052V20.6214C70.2053 20.1836 70.56 19.8267 71 19.8267C71.4378 19.8267 71.7947 20.1836 71.7947 20.6214V23.2052C71.7947 23.6452 71.4378 23.9999 71 23.9999Z" fill="url(#paint3_linear_760_30)"/>
<path d="M81.2053 13.7945H78.6214C78.1836 13.7945 77.8267 13.4398 77.8267 12.9998C77.8267 12.5598 78.1836 12.2051 78.6214 12.2051H81.2053C81.643 12.2051 82 12.5598 82 12.9998C82 13.4375 81.6453 13.7945 81.2053 13.7945Z" fill="url(#paint4_linear_760_30)"/>
<path d="M63.3786 13.7945H60.7947C60.3569 13.7945 60 13.4375 60 12.9998C60 12.5598 60.3569 12.2051 60.7947 12.2051H63.3786C63.8186 12.2051 64.1733 12.5598 64.1733 12.9998C64.1733 13.4375 63.8164 13.7945 63.3786 13.7945Z" fill="url(#paint5_linear_760_30)"/>
<path d="M76.3907 8.40466C76.1865 8.40466 75.9844 8.32609 75.8295 8.17119C75.5197 7.8614 75.5197 7.35854 75.8295 7.0465L77.6569 5.21916C77.9667 4.90937 78.4695 4.90937 78.7816 5.21916C79.0914 5.52896 79.0914 6.03181 78.7816 6.34385L76.952 8.17344C76.7971 8.32834 76.5928 8.40466 76.3907 8.40466Z" fill="url(#paint6_linear_760_30)"/>
<path d="M63.7831 21.0121C63.5788 21.0121 63.3768 20.9335 63.2219 20.7786C62.9121 20.4688 62.9121 19.966 63.2219 19.6539L65.0492 17.8266C65.359 17.5168 65.8619 17.5168 66.1739 17.8266C66.4837 18.1364 66.4837 18.6392 66.1739 18.9513L64.3466 20.7786C64.1917 20.9335 63.9874 21.0121 63.7831 21.0121Z" fill="url(#paint7_linear_760_30)"/>
<path d="M78.2154 21.0121C78.0111 21.0121 77.8091 20.9335 77.6542 20.7786L75.8268 18.9513C75.517 18.6415 75.517 18.1386 75.8268 17.8266C76.1366 17.5168 76.6395 17.5168 76.9515 17.8266L78.7789 19.6539C79.0887 19.9637 79.0887 20.4666 78.7789 20.7786C78.624 20.9335 78.4197 21.0121 78.2154 21.0121Z" fill="url(#paint8_linear_760_30)"/>
<path d="M65.6104 8.40466C65.4062 8.40466 65.2041 8.32609 65.0492 8.17119L63.2219 6.34385C62.9121 6.03406 62.9121 5.5312 63.2219 5.21916C63.5316 4.90937 64.0345 4.90937 64.3466 5.21916L66.1739 7.0465C66.4837 7.3563 66.4837 7.85915 66.1739 8.17119C66.019 8.32834 65.8147 8.40466 65.6104 8.40466Z" fill="url(#paint9_linear_760_30)"/>
</g>
<g filter="url(#filter1_d_760_30)">
<path d="M61.0351 22.9651C59.7776 21.708 58.0722 21.0018 56.2941 21.0018C54.5159 21.0018 52.8106 21.708 51.553 22.9651L22.0472 52.4708C21.4067 53.0894 20.8959 53.8293 20.5444 54.6474C20.193 55.4656 20.008 56.3455 20.0003 57.2359C19.9925 58.1263 20.1622 59.0093 20.4994 59.8334C20.8365 60.6576 21.3345 61.4063 21.9641 62.0359C22.5937 62.6655 23.3425 63.1635 24.1666 63.5006C24.9907 63.8378 25.8737 64.0075 26.7641 63.9997C27.6545 63.992 28.5345 63.807 29.3526 63.4556C30.1708 63.1041 30.9107 62.5933 31.5293 61.9528L61.0351 32.4472C62.2923 31.1897 62.9985 29.4843 62.9985 27.7062C62.9985 25.928 62.2923 24.2227 61.0351 22.9651ZM56.8498 30.9442C55.2069 32.5863 53.7048 32.8445 52.4969 33.0515C51.4122 33.2385 50.6276 33.3726 49.5882 34.412C48.5488 35.4514 48.4147 36.236 48.2278 37.3215C48.0199 38.5285 47.7625 40.0315 46.1196 41.6736C44.4767 43.3156 42.9746 43.5738 41.7675 43.7817C40.682 43.9678 39.8982 44.1019 38.8588 45.1413C37.8194 46.1807 37.6853 46.9644 37.4984 48.0499C37.2913 49.257 37.034 50.7599 35.3911 52.402C33.7481 54.0441 32.2452 54.3031 31.0381 54.5102C29.9534 54.6971 29.1689 54.8312 28.1294 55.8706C27.8779 56.1222 27.5367 56.2635 27.181 56.2635C26.8252 56.2635 26.4841 56.1222 26.2325 55.8706C25.981 55.6191 25.8397 55.2779 25.8397 54.9222C25.8397 54.5664 25.981 54.2252 26.2325 53.9737C27.8755 52.3316 29.3776 52.0734 30.5846 51.8664C31.6743 51.6803 32.4539 51.5462 33.4941 50.506C34.5344 49.4657 34.6677 48.6828 34.8538 47.5973C35.0616 46.3903 35.319 44.8873 36.9619 43.2452C38.6048 41.6031 40.107 41.345 41.314 41.1379C42.4037 40.9518 43.1833 40.8169 44.2227 39.7775C45.2621 38.7381 45.3962 37.9535 45.584 36.868C45.791 35.6609 46.0484 34.158 47.6913 32.5159C49.3342 30.8738 50.8364 30.6148 52.0434 30.4078C53.1289 30.2208 53.9127 30.0876 54.9529 29.0473C55.2045 28.7958 55.5456 28.6545 55.9014 28.6545C56.2571 28.6545 56.5983 28.7958 56.8498 29.0473C57.1014 29.2989 57.2427 29.64 57.2427 29.9958C57.2427 30.3515 57.1014 30.6927 56.8498 30.9442ZM22.7178 48.0064L47.0886 23.6357L46.1213 22.6676C44.0257 20.572 40.7692 20.4329 38.8463 22.3558L21.4378 39.7641C19.5149 41.687 19.6549 44.9435 21.7496 47.0382L22.7178 48.0064ZM60.3646 36.9116L35.9938 61.2822L36.9611 62.2504C39.0567 64.3459 42.3132 64.4851 44.2361 62.5622L61.6445 45.1539C63.5674 43.231 63.4275 39.9745 61.3327 37.8789L60.3646 36.9116Z" fill="url(#paint10_linear_760_30)"/>
</g>
</g>
<defs>
<filter id="filter0_d_760_30" x="56" y="2" width="30" height="30" filterUnits="userSpaceOnUse" color-interpolation-filters="sRGB">
<feFlood flood-opacity="0" result="BackgroundImageFix"/>
<feColorMatrix in="SourceAlpha" type="matrix" values="0 0 0 0 0 0 0 0 0 0 0 0 0 0 0 0 0 0 127 0" result="hardAlpha"/>
<feOffset dy="4"/>
<feGaussianBlur stdDeviation="2"/>
<feComposite in2="hardAlpha" operator="out"/>
<feColorMatrix type="matrix" values="0 0 0 0 0 0 0 0 0 0 0 0 0 0 0 0 0 0 0.25 0"/>
<feBlend mode="normal" in2="BackgroundImageFix" result="effect1_dropShadow_760_30"/>
<feBlend mode="normal" in="SourceGraphic" in2="effect1_dropShadow_760_30" result="shape"/>
</filter>
<filter id="filter1_d_760_30" x="16" y="21" width="51" height="51" filterUnits="userSpaceOnUse" color-interpolation-filters="sRGB">
<feFlood flood-opacity="0" result="BackgroundImageFix"/>
<feColorMatrix in="SourceAlpha" type="matrix" values="0 0 0 0 0 0 0 0 0 0 0 0 0 0 0 0 0 0 127 0" result="hardAlpha"/>
<feOffset dy="4"/>
<feGaussianBlur stdDeviation="2"/>
<feComposite in2="hardAlpha" operator="out"/>
<feColorMatrix type="matrix" values="0 0 0 0 0 0 0 0 0 0 0 0 0 0 0 0 0 0 0.25 0"/>
<feBlend mode="normal" in2="BackgroundImageFix" result="effect1_dropShadow_760_30"/>
<feBlend mode="normal" in="SourceGraphic" in2="effect1_dropShadow_760_30" result="shape"/>
</filter>
<linearGradient id="paint0_linear_760_30" x1="70.9994" y1="8.14014" x2="70.9994" y2="17.8605" gradientUnits="userSpaceOnUse">
<stop stop-color="white"/>
<stop offset="1" stop-color="#BFBFBF"/>
</linearGradient>
<linearGradient id="paint1_linear_760_30" x1="71.0002" y1="7.34521" x2="71.0002" y2="18.655" gradientUnits="userSpaceOnUse">
<stop stop-color="white"/>
<stop offset="1" stop-color="#BFBFBF"/>
</linearGradient>
<linearGradient id="paint2_linear_760_30" x1="71" y1="2" x2="71" y2="6.17325" gradientUnits="userSpaceOnUse">
<stop stop-color="white"/>
<stop offset="1" stop-color="#BFBFBF"/>
</linearGradient>
<linearGradient id="paint3_linear_760_30" x1="71" y1="19.8267" x2="71" y2="23.9999" gradientUnits="userSpaceOnUse">
<stop stop-color="white"/>
<stop offset="1" stop-color="#BFBFBF"/>
</linearGradient>
<linearGradient id="paint4_linear_760_30" x1="79.9133" y1="12.2051" x2="79.9133" y2="13.7945" gradientUnits="userSpaceOnUse">
<stop stop-color="white"/>
<stop offset="1" stop-color="#BFBFBF"/>
</linearGradient>
<linearGradient id="paint5_linear_760_30" x1="62.0867" y1="12.2051" x2="62.0867" y2="13.7945" gradientUnits="userSpaceOnUse">
<stop stop-color="white"/>
<stop offset="1" stop-color="#BFBFBF"/>
</linearGradient>
<linearGradient id="paint6_linear_760_30" x1="77.3056" y1="4.98682" x2="77.3056" y2="8.40466" gradientUnits="userSpaceOnUse">
<stop stop-color="white"/>
<stop offset="1" stop-color="#BFBFBF"/>
</linearGradient>
<linearGradient id="paint7_linear_760_30" x1="64.6979" y1="17.5942" x2="64.6979" y2="21.0121" gradientUnits="userSpaceOnUse">
<stop stop-color="white"/>
<stop offset="1" stop-color="#BFBFBF"/>
</linearGradient>
<linearGradient id="paint8_linear_760_30" x1="77.3029" y1="17.5942" x2="77.3029" y2="21.0121" gradientUnits="userSpaceOnUse">
<stop stop-color="white"/>
<stop offset="1" stop-color="#BFBFBF"/>
</linearGradient>
<linearGradient id="paint9_linear_760_30" x1="64.6979" y1="4.98682" x2="64.6979" y2="8.40466" gradientUnits="userSpaceOnUse">
<stop stop-color="white"/>
<stop offset="1" stop-color="#BFBFBF"/>
</linearGradient>
<linearGradient id="paint10_linear_760_30" x1="41.5" y1="21" x2="41.5" y2="64" gradientUnits="userSpaceOnUse">
<stop stop-color="white"/>
<stop offset="1" stop-color="#BFBFBF"/>
</linearGradient>
<clipPath id="clip0_760_30">
<rect width="83.75" height="83.75" fill="white"/>
</clipPath>
</defs>
</svg>
