<svg width="84" height="84" viewBox="0 0 84 84" fill="none" xmlns="http://www.w3.org/2000/svg">
<g clip-path="url(#clip0_254_145)">
<g filter="url(#filter0_d_254_145)">
<path d="M27.7087 55.8137L27.1434 56.4524C26.6694 56.9846 24.3082 59.7329 24.3082 61.5425C24.3046 62.0198 24.3898 62.4932 24.5588 62.9356C24.7279 63.378 24.9775 63.7806 25.2934 64.1204C25.6093 64.4602 25.9852 64.7305 26.3996 64.9158C26.8141 65.1011 27.2589 65.1978 27.7087 65.2003C28.1584 65.1978 28.6032 65.1011 29.0177 64.9158C29.4321 64.7305 29.8081 64.4602 30.124 64.1204C30.4398 63.7806 30.6895 63.378 30.8585 62.9356C31.0276 62.4932 31.1127 62.0198 31.1091 61.5425C31.1091 59.7425 28.7479 56.9846 28.2648 56.4524L27.7087 55.8137Z" fill="url(#paint0_linear_254_145)"/>
<path d="M42.5134 55.8137L41.9482 56.4524C41.465 56.9846 39.1039 59.7329 39.1039 61.5425C39.1003 62.0198 39.1854 62.4932 39.3545 62.9356C39.5235 63.378 39.7731 63.7806 40.089 64.1204C40.4049 64.4602 40.7809 64.7305 41.1953 64.9158C41.6098 65.1011 42.0546 65.1978 42.5043 65.2003C42.9541 65.1978 43.3989 65.1011 43.8134 64.9158C44.2278 64.7305 44.6037 64.4602 44.9196 64.1204C45.2355 63.7806 45.4851 63.378 45.6542 62.9356C45.8232 62.4932 45.9084 62.0198 45.9048 61.5425C45.9048 59.7425 43.5436 56.9846 43.0696 56.4524L42.5134 55.8137Z" fill="url(#paint1_linear_254_145)"/>
<path d="M35.1749 66.623L34.6097 67.2617C34.1357 67.7939 31.7745 70.5422 31.7745 72.3518C31.7721 72.8283 31.8581 73.3007 32.0277 73.742C32.1973 74.1832 32.4471 74.5847 32.7629 74.9235C33.0786 75.2622 33.4542 75.5317 33.868 75.7164C34.2819 75.9011 34.726 75.9975 35.1749 76C36.08 75.9923 36.9453 75.604 37.5811 74.9201C38.2168 74.2362 38.5711 73.3126 38.5663 72.3518C38.5663 70.5422 36.2051 67.7939 35.731 67.2617L35.1749 66.623Z" fill="url(#paint2_linear_254_145)"/>
<path d="M49.9799 66.623L49.4056 67.2617C48.9406 67.7939 46.5703 70.5422 46.5703 72.3518C46.5703 73.3143 46.9286 74.2379 47.5673 74.9213C48.2059 75.6046 49.0731 75.9924 49.9799 76C50.4288 75.9975 50.8729 75.9011 51.2868 75.7164C51.7006 75.5317 52.0762 75.2622 52.3919 74.9235C52.7077 74.5847 52.9575 74.1832 53.1271 73.742C53.2967 73.3007 53.3827 72.8283 53.3803 72.3518C53.3803 70.5422 51.0192 67.7939 50.536 67.2617L49.9799 66.623Z" fill="url(#paint3_linear_254_145)"/>
<path d="M57.3093 55.8137L56.744 56.4524C56.27 56.9846 53.9088 59.7329 53.9088 61.5425C53.9052 62.0198 53.9904 62.4932 54.1594 62.9356C54.3285 63.378 54.5781 63.7806 54.894 64.1204C55.2099 64.4602 55.5858 64.7305 56.0002 64.9158C56.4147 65.1011 56.8595 65.1978 57.3093 65.2003C57.759 65.1978 58.2038 65.1011 58.6183 64.9158C59.0327 64.7305 59.4087 64.4602 59.7246 64.1204C60.0405 63.7806 60.2901 63.378 60.4591 62.9356C60.6282 62.4932 60.7133 62.0198 60.7097 61.5425C60.7097 59.7425 58.3486 56.9846 57.8654 56.4524L57.3093 55.8137Z" fill="url(#paint4_linear_254_145)"/>
<path d="M66.0707 43.3015C66.2779 42.2546 66.3818 41.1876 66.3806 40.1178C66.3806 29.9183 58.0572 21.7316 46.7072 19.7962L44.6833 16.5351V10.3128C44.6834 9.70441 44.4576 9.12052 44.0549 8.68762C43.6521 8.25471 43.105 8.00764 42.5318 8C41.958 8.00511 41.4094 8.25138 41.0062 8.68484C40.6029 9.1183 40.3779 9.70365 40.3803 10.3128V16.6415L38.6482 19.5446C26.97 20.9574 17.3247 29.9086 17.3247 40.0404C17.3257 41.3428 17.4633 42.641 17.735 43.9111C16.1578 44.8788 15 46.3691 15 47.9852V49.9205C15 51.8559 16.9236 53.443 19.3668 53.443H65.633C68.0854 53.443 69.9999 51.885 69.9999 49.9205V47.9852C70.0181 46.0111 68.2221 44.2596 66.0707 43.3015ZM39.496 29.8409C30.0331 32.9375 27.2435 39.8275 27.125 40.1178C26.9232 40.6501 26.5774 41.1069 26.1312 41.4307C25.685 41.7545 25.1584 41.9307 24.6179 41.9371L23.7063 41.7532C23.0274 41.4641 22.4826 40.9035 22.1893 40.1922C21.896 39.4809 21.8777 38.6757 22.1382 37.9502C22.512 36.9825 26.0583 28.1764 37.9462 24.2766L38.7394 24.1508C39.3202 24.1566 39.8843 24.3586 40.3498 24.7274C40.8153 25.0963 41.1581 25.6128 41.3285 26.2023C41.4351 26.5689 41.4722 26.9543 41.4376 27.3362C41.403 27.7181 41.2975 28.0889 41.1271 28.4273C40.9567 28.7656 40.7249 29.0647 40.4449 29.3074C40.1649 29.55 39.8424 29.7313 39.496 29.8409V29.8409Z" fill="url(#paint5_linear_254_145)"/>
<path d="M66.0707 43.3015C66.2779 42.2546 66.3818 41.1876 66.3806 40.1178C66.3806 29.9183 58.0572 21.7316 46.7072 19.7962L44.6833 16.5351V10.3128C44.6834 9.70441 44.4576 9.12052 44.0549 8.68762C43.6521 8.25471 43.105 8.00764 42.5318 8C41.958 8.00511 41.4094 8.25138 41.0062 8.68484C40.6029 9.1183 40.3779 9.70365 40.3803 10.3128V16.6415L38.6482 19.5446C26.97 20.9574 17.3247 29.9086 17.3247 40.0404C17.3257 41.3428 17.4633 42.641 17.735 43.9111C16.1578 44.8788 15 46.3691 15 47.9852V49.9205C15 51.8559 16.9236 53.443 19.3668 53.443H65.633C68.0854 53.443 69.9999 51.885 69.9999 49.9205V47.9852C70.0181 46.0111 68.2221 44.2596 66.0707 43.3015ZM39.496 29.8409C30.0331 32.9375 27.2435 39.8275 27.125 40.1178C26.9232 40.6501 26.5774 41.1069 26.1312 41.4307C25.685 41.7545 25.1584 41.9307 24.6179 41.9371L23.7063 41.7532C23.0274 41.4641 22.4826 40.9035 22.1893 40.1922C21.896 39.4809 21.8777 38.6757 22.1382 37.9502C22.512 36.9825 26.0583 28.1764 37.9462 24.2766L38.7394 24.1508C39.3202 24.1566 39.8843 24.3586 40.3498 24.7274C40.8153 25.0963 41.1581 25.6128 41.3285 26.2023C41.4351 26.5689 41.4722 26.9543 41.4376 27.3362C41.403 27.7181 41.2975 28.0889 41.1271 28.4273C40.9567 28.7656 40.7249 29.0647 40.4449 29.3074C40.1649 29.55 39.8424 29.7313 39.496 29.8409V29.8409Z" fill="url(#paint6_linear_254_145)"/>
</g>
<g filter="url(#filter1_d_254_145)">
<path d="M81.4994 16.9998H77.3014H74.978H67.022H64.6986H60.5006C60.2245 16.9998 60 16.7753 60 16.4992V15.5002C60 15.2241 60.2245 14.9996 60.5006 14.9996H64.0857C64.0363 14.6719 64.0004 14.3419 64.0004 14.0007C64.0004 10.1352 67.1343 7.00142 71 7.00142C74.8657 7.00142 77.9996 10.1352 77.9996 14.0007C77.9996 14.3419 77.9637 14.6741 77.9143 14.9996H81.4994C81.7755 14.9996 82 15.2241 82 15.5002V16.4992C82 16.7753 81.7755 16.9998 81.4994 16.9998ZM71 8.99929C68.2388 8.99929 66.0006 11.2374 66.0006 13.9985C66.0006 14.3442 66.0478 14.6741 66.1151 14.9974H75.8849C75.9522 14.6741 75.9994 14.3419 75.9994 13.9985C75.9994 11.2396 73.7612 8.99929 71 8.99929ZM77.7167 8.69624C77.5214 8.89154 77.2049 8.89154 77.0096 8.69624L76.3024 7.98913C76.1071 7.79383 76.1071 7.47732 76.3024 7.28202L78.4239 5.16068C78.6192 4.96538 78.9357 4.96538 79.131 5.16068L79.8382 5.86779C80.0335 6.06309 80.0335 6.37961 79.8382 6.57491L77.7167 8.69624ZM71.5006 6.00024H70.5016C70.2255 6.00024 70.001 5.77576 70.001 5.49965V2.50059C70.001 2.22448 70.2255 2 70.5016 2H71.5006C71.7767 2 72.0012 2.22448 72.0012 2.50059V5.49965C71.999 5.77576 71.7767 6.00024 71.5006 6.00024ZM64.9904 8.69624C64.7951 8.89154 64.4786 8.89154 64.2833 8.69624L62.1618 6.57491C61.9665 6.37961 61.9665 6.06309 62.1618 5.86779L62.869 5.16068C63.0643 4.96538 63.3808 4.96538 63.5761 5.16068L65.6976 7.28202C65.8929 7.47732 65.8929 7.79383 65.6976 7.98913L64.9904 8.69624ZM63.4998 18.9999H78.5002C78.7763 18.9999 79.0008 19.2244 79.0008 19.5005V20.4994C79.0008 20.7755 78.7763 21 78.5002 21H63.4998C63.2237 21 62.9992 20.7755 62.9992 20.4994V19.5005C62.9992 19.2244 63.2237 18.9999 63.4998 18.9999Z" fill="url(#paint7_linear_254_145)"/>
</g>
</g>
<defs>
<filter id="filter0_d_254_145" x="11" y="8" width="63" height="76" filterUnits="userSpaceOnUse" color-interpolation-filters="sRGB">
<feFlood flood-opacity="0" result="BackgroundImageFix"/>
<feColorMatrix in="SourceAlpha" type="matrix" values="0 0 0 0 0 0 0 0 0 0 0 0 0 0 0 0 0 0 127 0" result="hardAlpha"/>
<feOffset dy="4"/>
<feGaussianBlur stdDeviation="2"/>
<feComposite in2="hardAlpha" operator="out"/>
<feColorMatrix type="matrix" values="0 0 0 0 0 0 0 0 0 0 0 0 0 0 0 0 0 0 0.25 0"/>
<feBlend mode="normal" in2="BackgroundImageFix" result="effect1_dropShadow_254_145"/>
<feBlend mode="normal" in="SourceGraphic" in2="effect1_dropShadow_254_145" result="shape"/>
</filter>
<filter id="filter1_d_254_145" x="56" y="2" width="30" height="27" filterUnits="userSpaceOnUse" color-interpolation-filters="sRGB">
<feFlood flood-opacity="0" result="BackgroundImageFix"/>
<feColorMatrix in="SourceAlpha" type="matrix" values="0 0 0 0 0 0 0 0 0 0 0 0 0 0 0 0 0 0 127 0" result="hardAlpha"/>
<feOffset dy="4"/>
<feGaussianBlur stdDeviation="2"/>
<feComposite in2="hardAlpha" operator="out"/>
<feColorMatrix type="matrix" values="0 0 0 0 0 0 0 0 0 0 0 0 0 0 0 0 0 0 0.25 0"/>
<feBlend mode="normal" in2="BackgroundImageFix" result="effect1_dropShadow_254_145"/>
<feBlend mode="normal" in="SourceGraphic" in2="effect1_dropShadow_254_145" result="shape"/>
</filter>
<linearGradient id="paint0_linear_254_145" x1="27.7087" y1="55.8137" x2="27.7087" y2="65.2003" gradientUnits="userSpaceOnUse">
<stop stop-color="white"/>
<stop offset="1" stop-color="#BFBFBF"/>
</linearGradient>
<linearGradient id="paint1_linear_254_145" x1="42.5043" y1="55.8137" x2="42.5043" y2="65.2003" gradientUnits="userSpaceOnUse">
<stop stop-color="white"/>
<stop offset="1" stop-color="#BFBFBF"/>
</linearGradient>
<linearGradient id="paint2_linear_254_145" x1="35.1704" y1="66.623" x2="35.1704" y2="76" gradientUnits="userSpaceOnUse">
<stop stop-color="white"/>
<stop offset="1" stop-color="#BFBFBF"/>
</linearGradient>
<linearGradient id="paint3_linear_254_145" x1="49.9754" y1="66.623" x2="49.9754" y2="76" gradientUnits="userSpaceOnUse">
<stop stop-color="white"/>
<stop offset="1" stop-color="#BFBFBF"/>
</linearGradient>
<linearGradient id="paint4_linear_254_145" x1="57.3093" y1="55.8137" x2="57.3093" y2="65.2003" gradientUnits="userSpaceOnUse">
<stop stop-color="white"/>
<stop offset="1" stop-color="#BFBFBF"/>
</linearGradient>
<linearGradient id="paint5_linear_254_145" x1="42.5" y1="8" x2="42.5" y2="53.443" gradientUnits="userSpaceOnUse">
<stop stop-color="white"/>
<stop offset="1" stop-color="#BFBFBF"/>
</linearGradient>
<linearGradient id="paint6_linear_254_145" x1="42.5" y1="8" x2="42.5" y2="53.443" gradientUnits="userSpaceOnUse">
<stop stop-color="white"/>
<stop offset="1" stop-color="#BFBFBF"/>
</linearGradient>
<linearGradient id="paint7_linear_254_145" x1="71" y1="2" x2="71" y2="21" gradientUnits="userSpaceOnUse">
<stop stop-color="white"/>
<stop offset="1" stop-color="#BFBFBF"/>
</linearGradient>
<clipPath id="clip0_254_145">
<rect width="83.75" height="83.75" fill="white"/>
</clipPath>
</defs>
</svg>
