<svg width="84" height="84" viewBox="0 0 84 84" fill="none" xmlns="http://www.w3.org/2000/svg">
<g clip-path="url(#clip0_458_68)">
<g filter="url(#filter0_d_458_68)">
<path d="M26.327 26.7578C25.1457 26.7578 24.1874 27.6888 24.1874 28.8373C24.1874 29.9857 25.1458 30.9168 26.327 30.9168C27.5069 30.9168 28.4651 29.9857 28.4651 28.8373C28.4651 27.6888 27.5069 26.7578 26.327 26.7578Z" fill="url(#paint0_linear_458_68)"/>
<path d="M56.6745 26.7578C55.4932 26.7578 54.5349 27.6888 54.5349 28.8373C54.5349 29.9857 55.4932 30.9168 56.6745 30.9168C57.8543 30.9168 58.8126 29.9857 58.8126 28.8373C58.8126 27.6888 57.8543 26.7578 56.6745 26.7578Z" fill="url(#paint1_linear_458_68)"/>
<path d="M64.4592 33.5327C65.3519 32.1711 65.8706 30.5617 65.8706 28.837C65.8706 23.9643 61.7451 20.0001 56.6738 20.0001C53.2753 20.0001 50.3037 21.782 48.7116 24.4232C46.3786 23.9342 43.9638 23.6858 41.5001 23.6858C39.043 23.6858 36.6243 23.9334 34.2882 24.4226C32.6961 21.7816 29.7247 20 26.3263 20C21.2551 20 17.1295 23.9642 17.1295 28.8369C17.1295 30.5615 17.6482 32.1711 18.5409 33.5326C16.3889 36.2974 15.1788 39.3993 15 42.625C17.839 44.8186 20.8876 46.3459 24.5423 47.4088C29.0296 48.714 34.5766 49.3485 41.5001 49.3485C48.4235 49.3485 53.9705 48.7141 58.4578 47.4088C62.1123 46.3459 65.1609 44.8187 68 42.6251C67.8213 39.3997 66.6113 36.2975 64.4592 33.5327ZM26.3263 34.335C23.1627 34.335 20.5892 31.8687 20.5892 28.837C20.5892 25.8054 23.1628 23.3391 26.3263 23.3391C29.4898 23.3391 32.0633 25.8054 32.0633 28.837C32.0633 31.8687 29.4897 34.335 26.3263 34.335ZM37.7706 45.2443C36.7606 45.2443 35.9387 44.4466 35.9387 43.4626C35.9387 42.4785 36.7606 41.6814 37.7706 41.6814C38.7819 41.6814 39.6037 42.4785 39.6037 43.4626C39.6037 44.4466 38.7819 45.2443 37.7706 45.2443ZM45.2156 45.2577C44.1958 45.2577 43.3686 44.4539 43.3686 43.4627C43.3686 42.4713 44.1958 41.6676 45.2156 41.6676C46.2341 41.6676 47.0613 42.4712 47.0613 43.4627C47.0613 44.4541 46.2342 45.2577 45.2156 45.2577ZM56.6737 34.335C53.5102 34.335 50.9367 31.8687 50.9367 28.837C50.9367 25.8054 53.5102 23.3391 56.6737 23.3391C59.8373 23.3391 62.4108 25.8054 62.4108 28.837C62.4108 31.8687 59.8373 34.335 56.6737 34.335Z" fill="url(#paint2_linear_458_68)"/>
<path d="M59.456 50.6059C54.6403 52.0067 48.7668 52.6875 41.5001 52.6875C34.2334 52.6875 28.3598 52.0066 23.544 50.6059C20.5212 49.7267 17.8661 48.5604 15.3982 47.0176C16.3609 51.0245 18.9495 54.6951 22.924 57.5977C27.9056 61.2358 34.5027 63.2393 41.5 63.2393C48.4973 63.2393 55.0944 61.2358 60.076 57.5977C64.0504 54.6952 66.639 51.0246 67.6017 47.0178C65.1337 48.5605 62.4786 49.7267 59.456 50.6059Z" fill="url(#paint3_linear_458_68)"/>
</g>
<g filter="url(#filter1_d_458_68)">
<path d="M71.5 24C77.2991 24 82 19.2991 82 13.5C82 7.70095 77.2991 3 71.5 3C65.7009 3 61 7.70095 61 13.5C61 19.2991 65.7009 24 71.5 24ZM65.183 17.792C64.3505 16.5689 63.8636 15.0912 63.8636 13.5C63.8636 9.28263 67.2826 5.86364 71.5 5.86364C73.0912 5.86364 74.5689 6.35045 75.792 7.18301L65.183 17.792ZM67.208 19.817L77.817 9.20798C78.6495 10.4311 79.1364 11.9088 79.1364 13.5C79.1364 17.7174 75.7174 21.1364 71.5 21.1364C69.9088 21.1364 68.4311 20.6495 67.208 19.817Z" fill="url(#paint4_linear_458_68)"/>
</g>
</g>
<defs>
<filter id="filter0_d_458_68" x="11" y="20" width="61" height="51.2393" filterUnits="userSpaceOnUse" color-interpolation-filters="sRGB">
<feFlood flood-opacity="0" result="BackgroundImageFix"/>
<feColorMatrix in="SourceAlpha" type="matrix" values="0 0 0 0 0 0 0 0 0 0 0 0 0 0 0 0 0 0 127 0" result="hardAlpha"/>
<feOffset dy="4"/>
<feGaussianBlur stdDeviation="2"/>
<feComposite in2="hardAlpha" operator="out"/>
<feColorMatrix type="matrix" values="0 0 0 0 0 0 0 0 0 0 0 0 0 0 0 0 0 0 0.25 0"/>
<feBlend mode="normal" in2="BackgroundImageFix" result="effect1_dropShadow_458_68"/>
<feBlend mode="normal" in="SourceGraphic" in2="effect1_dropShadow_458_68" result="shape"/>
</filter>
<filter id="filter1_d_458_68" x="57" y="3" width="29" height="29" filterUnits="userSpaceOnUse" color-interpolation-filters="sRGB">
<feFlood flood-opacity="0" result="BackgroundImageFix"/>
<feColorMatrix in="SourceAlpha" type="matrix" values="0 0 0 0 0 0 0 0 0 0 0 0 0 0 0 0 0 0 127 0" result="hardAlpha"/>
<feOffset dy="4"/>
<feGaussianBlur stdDeviation="2"/>
<feComposite in2="hardAlpha" operator="out"/>
<feColorMatrix type="matrix" values="0 0 0 0 0 0 0 0 0 0 0 0 0 0 0 0 0 0 0.25 0"/>
<feBlend mode="normal" in2="BackgroundImageFix" result="effect1_dropShadow_458_68"/>
<feBlend mode="normal" in="SourceGraphic" in2="effect1_dropShadow_458_68" result="shape"/>
</filter>
<linearGradient id="paint0_linear_458_68" x1="26.3263" y1="26.7578" x2="26.3263" y2="30.9168" gradientUnits="userSpaceOnUse">
<stop stop-color="white"/>
<stop offset="1" stop-color="#BFBFBF"/>
</linearGradient>
<linearGradient id="paint1_linear_458_68" x1="56.6738" y1="26.7578" x2="56.6738" y2="30.9168" gradientUnits="userSpaceOnUse">
<stop stop-color="white"/>
<stop offset="1" stop-color="#BFBFBF"/>
</linearGradient>
<linearGradient id="paint2_linear_458_68" x1="41.5" y1="20" x2="41.5" y2="49.3485" gradientUnits="userSpaceOnUse">
<stop stop-color="white"/>
<stop offset="1" stop-color="#BFBFBF"/>
</linearGradient>
<linearGradient id="paint3_linear_458_68" x1="41.5" y1="47.0176" x2="41.5" y2="63.2393" gradientUnits="userSpaceOnUse">
<stop stop-color="white"/>
<stop offset="1" stop-color="#BFBFBF"/>
</linearGradient>
<linearGradient id="paint4_linear_458_68" x1="71.5" y1="3" x2="71.5" y2="24" gradientUnits="userSpaceOnUse">
<stop stop-color="white"/>
<stop offset="1" stop-color="#BFBFBF"/>
</linearGradient>
<clipPath id="clip0_458_68">
<rect width="83.75" height="83.75" fill="white"/>
</clipPath>
</defs>
</svg>
