<svg width="84" height="84" viewBox="0 0 84 84" fill="none" xmlns="http://www.w3.org/2000/svg">
<path fill-rule="evenodd" clip-rule="evenodd" d="M59.9274 15.2121C60.1468 15.0642 60.4064 14.9903 60.6693 15.001C60.9354 15.0206 61.1878 15.1291 61.3872 15.3096C61.5866 15.4779 61.7243 15.7099 61.7778 15.9679C61.8314 16.2259 61.7978 16.4948 61.6824 16.7309L41.692 57.4116C41.5747 57.6515 41.3805 57.8435 41.1416 57.9558C37.4674 59.5655 33.4938 60.3441 29.4952 60.2379C27.5965 60.2324 25.6998 60.1104 23.8155 59.8725C30.8442 62.3576 38.3729 63.0082 45.7124 61.7647L64.5621 23.4067C64.6537 23.2114 64.7955 23.0449 64.9724 22.9248C65.1493 22.8047 65.3548 22.7356 65.5672 22.7246C65.7788 22.7112 65.9902 22.7532 66.1814 22.8464C66.3237 22.9145 66.4509 23.0113 66.5552 23.1311C66.6595 23.2509 66.7387 23.3911 66.788 23.5432C66.8372 23.6952 66.8555 23.8559 66.8418 24.0154C66.828 24.1748 66.7825 24.3298 66.7079 24.4707L47.5631 63.4541C47.4782 63.6241 47.3553 63.7715 47.2043 63.8844C47.0533 63.9972 46.8783 64.0723 46.6936 64.1038C41.9057 64.9408 37.0198 65.023 32.2073 64.3474C38.4464 66.3987 44.9556 67.4722 51.5117 67.5311L66.7159 36.588C66.8175 36.3755 66.9784 36.1982 67.1784 36.0783C67.3785 35.9584 67.6088 35.9013 67.8406 35.9139C68.0123 35.9167 68.1813 35.9583 68.3352 36.0358C68.4775 36.1038 68.6047 36.2007 68.709 36.3205C68.8133 36.4403 68.8925 36.5805 68.9418 36.7325C68.991 36.8846 69.0093 37.0453 68.9956 37.2047C68.9818 37.3642 68.9362 37.5191 68.8617 37.6601L53.3065 69.3341C53.2062 69.5348 53.0532 69.7034 52.8645 69.821C52.6758 69.9385 52.4588 70.0005 52.2376 70C28.9128 70 14.8095 58.1019 14.4824 57.8177L14.4186 57.769L14.3548 57.704L14.3069 57.6553C14.1258 57.4545 14.0181 57.1961 14.0022 56.924C13.9862 56.6518 14.0628 56.3823 14.2192 56.161L32.0558 20.6373C32.1592 20.4398 32.3132 20.2744 32.5013 20.1586C32.6895 20.0428 32.9048 19.9809 33.1247 19.9795C52.6843 19.9795 59.8556 15.2609 59.9274 15.2121ZM44.7895 33.8086C44.2307 32.2456 43.0275 31.0202 41.1798 30.1322C40.3987 29.7567 39.6343 29.5189 38.8868 29.4185C38.1544 29.3254 37.5462 29.3197 37.0624 29.4015C36.5936 29.4906 36.1405 29.6427 35.7033 29.8578C35.2733 30.058 34.9957 30.2112 34.8703 30.3173C34.1476 30.9316 33.7282 31.3587 33.6122 31.5988C33.3365 32.169 33.4691 32.8522 34.0098 33.6483C34.3299 34.135 34.6777 34.4686 35.0532 34.6491C35.6992 34.9595 36.3763 34.8226 37.0844 34.2384L37.3502 34.0333C37.5124 33.8893 37.7947 33.8031 38.1972 33.7746C38.5997 33.7462 39.0638 33.8583 39.5896 34.111C40.1304 34.3709 40.4821 34.7156 40.6447 35.1451C40.8073 35.5746 40.8125 35.9469 40.6601 36.262C40.3772 36.8472 39.665 36.8655 38.5233 36.3168C37.9975 36.0641 37.5888 35.9139 37.2972 35.8662C36.6471 35.7941 36.0681 36.2833 35.5604 37.3337C35.0961 38.294 35.0197 38.9692 35.331 39.3592C35.4832 39.5803 35.6423 39.7492 35.808 39.8658C35.9738 39.9825 36.3045 40.1599 36.8002 40.3982C37.311 40.6436 37.6704 41.0105 37.8786 41.4989C38.1091 41.9795 38.1264 42.4224 37.9306 42.8275C37.7347 43.2327 37.3692 43.5101 36.8341 43.6597C36.3062 43.7943 35.6442 43.6703 34.848 43.2877C34.5025 43.1216 34.2088 42.925 33.9669 42.6978C33.407 42.1329 33.168 41.5742 33.2499 41.0218C33.3375 40.3428 33.3008 39.8443 33.1397 39.5265C33.017 39.2826 32.6552 39.0163 32.0543 38.7275C30.5821 38.02 29.6357 38.1014 29.215 38.9717C29.0627 39.2868 28.9494 39.7317 28.8753 40.3063L28.8116 40.553C28.7841 40.7247 28.7724 40.9595 28.7765 41.2573C28.8029 42.0836 28.9434 42.8076 29.1982 43.4293C29.8922 45.0573 31.1405 46.3044 32.9432 47.1707C34.7608 48.0443 36.5208 48.2522 38.223 47.7944C39.9325 47.3216 41.1754 46.2824 41.9515 44.6768C42.3432 43.8665 42.4435 43.0271 42.2525 42.1586C42.1883 41.8319 42.064 41.4763 41.8796 41.0919C41.7175 40.6996 41.5795 40.4299 41.4655 40.2826L41.5417 40.1251C42.9963 40.103 44.0391 39.4392 44.6702 38.1337C45.3085 36.8133 45.3483 35.3716 44.7895 33.8086Z" fill="url(#paint0_linear_666_97)"/>
<defs>
<linearGradient id="paint0_linear_666_97" x1="41.5" y1="15" x2="41.5" y2="70" gradientUnits="userSpaceOnUse">
<stop stop-color="white"/>
<stop offset="1" stop-color="#BFBFBF"/>
</linearGradient>
</defs>
</svg>
