<svg width="84" height="84" viewBox="0 0 84 84" fill="none" xmlns="http://www.w3.org/2000/svg">
<g filter="url(#filter0_d_280_398)">
<path d="M38.0394 13.0002C37.4299 13.0085 36.8491 13.225 36.4243 13.6025C35.9996 13.9799 35.7655 14.4874 35.7734 15.0136C35.7734 17.6635 34.7184 18.1009 32.8001 19.4258C30.8819 20.7508 28.1004 22.9634 28.1004 26.9383C28.0961 27.2017 28.1525 27.4632 28.2662 27.7076C28.38 27.952 28.5488 28.1744 28.763 28.362C28.9772 28.5495 29.2324 28.6985 29.5138 28.8001C29.7953 28.9018 30.0973 28.9541 30.4023 28.9541C30.7074 28.9541 31.0094 28.9018 31.2908 28.8001C31.5723 28.6985 31.8275 28.5495 32.0417 28.362C32.2558 28.1744 32.4247 27.952 32.5384 27.7076C32.6522 27.4632 32.7085 27.2017 32.7042 26.9383C32.7042 24.2884 33.7563 23.8536 35.6745 22.5287C37.5928 21.2037 40.3772 18.9885 40.3772 15.0136C40.3812 14.7478 40.3235 14.484 40.2073 14.2378C40.0912 13.9916 39.919 13.7681 39.7011 13.5804C39.4831 13.3927 39.2237 13.2446 38.9383 13.1449C38.6529 13.0453 38.3472 12.9961 38.0394 13.0002ZM47.247 15.6502C46.6375 15.6584 46.0567 15.875 45.6319 16.2524C45.2072 16.6298 44.9731 17.1373 44.981 17.6635C44.981 18.6573 44.7554 19.073 44.4415 19.4569C44.1277 19.8408 43.5993 20.2151 42.832 20.712C42.0647 21.2089 41.0585 21.8283 40.2214 22.8521C39.3843 23.876 38.8426 25.2821 38.8426 26.9383C38.8383 27.2017 38.8947 27.4632 39.0084 27.7076C39.1222 27.952 39.291 28.1744 39.5052 28.362C39.7194 28.5495 39.9746 28.6985 40.256 28.8001C40.5374 28.9018 40.8395 28.9541 41.1445 28.9541C41.4496 28.9541 41.7516 28.9018 42.033 28.8001C42.3145 28.6985 42.5697 28.5495 42.7838 28.362C42.998 28.1744 43.1669 27.952 43.2806 27.7076C43.3944 27.4632 43.4507 27.2017 43.4464 26.9383C43.4464 25.9446 43.6691 25.5289 43.9829 25.145C44.2968 24.7611 44.8252 24.3893 45.5925 23.8925C46.3598 23.3956 47.366 22.7736 48.2031 21.7497C49.0402 20.7258 49.5848 19.3197 49.5848 17.6635C49.5888 17.3977 49.5311 17.1339 49.4149 16.8878C49.2988 16.6416 49.1266 16.418 48.9086 16.2303C48.6907 16.0426 48.4313 15.8945 48.1459 15.7949C47.8605 15.6952 47.5548 15.646 47.247 15.6502ZM21.3686 31.5758C19.877 31.5758 18.443 32.1178 17.4302 33.0612C16.4173 34.0059 15.9019 35.2838 16.0155 36.5677L18.1735 60.8235C18.6323 65.9684 23.6743 70 29.65 70H41.756C47.7332 70 52.7752 65.9684 53.2325 60.8235L53.2415 60.7252H56.4905C62.82 60.7252 68 56.2527 68 50.7879V44.163C68 41.6257 65.5676 39.5256 62.6289 39.5256H55.1268L55.3905 36.5703C55.5041 35.2877 54.9901 34.0098 53.9788 33.0638C52.9644 32.1191 51.529 31.5758 50.0374 31.5758H21.3686ZM54.7731 43.5005H62.6289C63.0817 43.5005 63.3962 43.7721 63.3962 44.163V50.7879C63.3962 54.1049 60.3324 56.7503 56.4905 56.7503H53.5952L54.7731 43.5005Z" fill="url(#paint0_linear_280_398)"/>
</g>
<defs>
<filter id="filter0_d_280_398" x="12" y="13" width="60" height="65" filterUnits="userSpaceOnUse" color-interpolation-filters="sRGB">
<feFlood flood-opacity="0" result="BackgroundImageFix"/>
<feColorMatrix in="SourceAlpha" type="matrix" values="0 0 0 0 0 0 0 0 0 0 0 0 0 0 0 0 0 0 127 0" result="hardAlpha"/>
<feOffset dy="4"/>
<feGaussianBlur stdDeviation="2"/>
<feComposite in2="hardAlpha" operator="out"/>
<feColorMatrix type="matrix" values="0 0 0 0 0 0 0 0 0 0 0 0 0 0 0 0 0 0 0.25 0"/>
<feBlend mode="normal" in2="BackgroundImageFix" result="effect1_dropShadow_280_398"/>
<feBlend mode="normal" in="SourceGraphic" in2="effect1_dropShadow_280_398" result="shape"/>
</filter>
<linearGradient id="paint0_linear_280_398" x1="42" y1="13" x2="42" y2="70" gradientUnits="userSpaceOnUse">
<stop stop-color="white"/>
<stop offset="1" stop-color="#BFBFBF"/>
</linearGradient>
</defs>
</svg>
