<svg width="84" height="84" viewBox="0 0 84 84" fill="none" xmlns="http://www.w3.org/2000/svg">
<g clip-path="url(#clip0_1327_1037)">
<path d="M81.8348 14.9985C80.8041 20.9217 75.2241 24.8769 69.3763 23.8329C65.3028 23.1061 62.1786 20.1435 61 16.4134C61.6771 16.6878 62.3928 16.8979 63.1407 17.0329C68.9906 18.0769 74.5684 14.1217 75.5991 8.19857C75.912 6.39783 75.7641 4.6271 75.2499 3C79.8762 4.87577 82.7348 9.8321 81.8348 14.9985Z" fill="url(#paint0_linear_1327_1037)"/>
<g filter="url(#filter0_d_1327_1037)">
<path d="M61.7638 67H22.2511C17.4139 67 15.5919 63.8429 18.1713 59.9644L35.4196 34.1504V21.1649H33.2261C32.6587 21.1783 32.1092 20.9663 31.698 20.5753C31.2868 20.1843 31.0475 19.6463 31.0325 19.0792C31.0493 18.5133 31.2895 17.9771 31.7005 17.5877C32.1115 17.1982 32.6599 16.9871 33.2261 17.0006H50.7888C51.355 16.9871 51.9034 17.1982 52.3144 17.5877C52.7254 17.9771 52.9656 18.5133 52.9824 19.0792C52.9674 19.6463 52.7281 20.1843 52.3169 20.5753C51.9057 20.9663 51.3562 21.1783 50.7888 21.1649H48.5881V34.1504L65.8437 59.9644C68.4088 63.8429 66.5582 67 61.7566 67H61.7638ZM29.7964 50.3288H54.2185L44.887 36.3647L44.1724 35.3504V21.1649H39.7782V35.3576L39.0637 36.3719L29.7392 50.3288H29.7964Z" fill="url(#paint1_linear_1327_1037)"/>
</g>
<g filter="url(#filter1_d_1327_1037)">
<path d="M20.2497 6.16283C20.1812 6.25835 19.9765 6.8322 19.826 7.43242C18.9787 10.5319 17.7084 11.8022 14.5524 12.7581C12.571 13.3591 12.5033 13.7141 14.2521 14.1781C15.7827 14.588 17.2035 15.298 17.968 16.0351C18.7198 16.7722 19.4708 18.2606 19.8945 19.8588C20.1135 20.7328 20.2361 20.9652 20.4544 20.9923C20.8231 21.0472 20.9601 20.8283 21.2332 19.7362C21.5613 18.3982 22.2717 16.9233 22.9407 16.1998C23.6511 15.4349 24.9898 14.7249 26.5746 14.2608C27.9134 13.8787 28.0639 13.7967 27.9818 13.4275C27.9547 13.25 27.6131 13.086 26.6702 12.813C23.4735 11.8842 22.1754 10.601 21.2596 7.47377C21.082 6.8044 20.8773 6.21772 20.836 6.13574C20.714 5.94399 20.4273 5.95753 20.2497 6.16283Z" fill="url(#paint2_linear_1327_1037)"/>
</g>
<g filter="url(#filter2_d_1327_1037)">
<path d="M71.8331 37.1086C71.7875 37.1722 71.651 37.5548 71.5507 37.9549C70.9858 40.0213 70.139 40.8681 68.0349 41.5054C66.714 41.906 66.6688 42.1427 67.8347 42.4521C68.8551 42.7253 69.8023 43.1987 70.312 43.6901C70.8132 44.1815 71.3139 45.1737 71.5963 46.2392C71.7423 46.8219 71.8241 46.9768 71.9696 46.9948C72.2154 47.0314 72.3067 46.8855 72.4888 46.1575C72.7075 45.2655 73.1811 44.2822 73.6271 43.7998C74.1007 43.2899 74.9932 42.8166 76.0498 42.5072C76.9422 42.2525 77.0426 42.1978 76.9879 41.9517C76.9698 41.8333 76.7421 41.724 76.1135 41.542C73.9823 40.9228 73.1169 40.0674 72.5064 37.9825C72.388 37.5363 72.2515 37.1451 72.224 37.0905C72.1427 36.9627 71.9515 36.9717 71.8331 37.1086Z" fill="url(#paint3_linear_1327_1037)"/>
</g>
<g filter="url(#filter3_d_1327_1037)">
<path d="M12.8331 69.1086C12.7875 69.1722 12.651 69.5548 12.5507 69.9549C11.9858 72.0213 11.139 72.8681 9.03491 73.5054C7.71401 73.906 7.66883 74.1427 8.83473 74.4521C9.85513 74.7253 10.8023 75.1987 11.312 75.6901C11.8132 76.1815 12.3139 77.1737 12.5963 78.2392C12.7423 78.8219 12.8241 78.9768 12.9696 78.9948C13.2154 79.0314 13.3067 78.8855 13.4888 78.1575C13.7075 77.2655 14.1811 76.2822 14.6271 75.7998C15.1007 75.2899 15.9932 74.8166 17.0498 74.5072C17.9422 74.2525 18.0426 74.1978 17.9879 73.9517C17.9698 73.8333 17.7421 73.724 17.1135 73.542C14.9823 72.9228 14.1169 72.0674 13.5064 69.9825C13.388 69.5363 13.2515 69.1451 13.224 69.0905C13.1427 68.9627 12.9515 68.9717 12.8331 69.1086Z" fill="url(#paint4_linear_1327_1037)"/>
</g>
<g filter="url(#filter4_d_1327_1037)">
<path d="M15.8331 35.1086C15.7875 35.1722 15.651 35.5548 15.5507 35.9549C14.9858 38.0213 14.139 38.8681 12.0349 39.5054C10.714 39.906 10.6688 40.1427 11.8347 40.4521C12.8551 40.7253 13.8023 41.1987 14.312 41.6901C14.8132 42.1815 15.3139 43.1737 15.5963 44.2392C15.7423 44.8219 15.8241 44.9768 15.9696 44.9948C16.2154 45.0314 16.3067 44.8855 16.4888 44.1575C16.7075 43.2655 17.1811 42.2822 17.6271 41.7998C18.1007 41.2899 18.9932 40.8166 20.0498 40.5072C20.9422 40.2525 21.0426 40.1978 20.9879 39.9517C20.9698 39.8333 20.7421 39.724 20.1135 39.542C17.9823 38.9228 17.1169 38.0674 16.5064 35.9825C16.388 35.5363 16.2515 35.1451 16.224 35.0905C16.1427 34.9627 15.9515 34.9717 15.8331 35.1086Z" fill="url(#paint5_linear_1327_1037)"/>
</g>
<g filter="url(#filter5_d_1327_1037)">
<path d="M71.8331 64.1086C71.7875 64.1722 71.651 64.5548 71.5507 64.9549C70.9858 67.0213 70.139 67.8681 68.0349 68.5054C66.714 68.906 66.6688 69.1427 67.8347 69.4521C68.8551 69.7253 69.8023 70.1987 70.312 70.6901C70.8132 71.1815 71.3139 72.1737 71.5963 73.2392C71.7423 73.8219 71.8241 73.9768 71.9696 73.9948C72.2154 74.0314 72.3067 73.8855 72.4888 73.1575C72.7075 72.2655 73.1811 71.2822 73.6271 70.7998C74.1007 70.2899 74.9932 69.8166 76.0498 69.5072C76.9422 69.2525 77.0426 69.1978 76.9879 68.9517C76.9698 68.8333 76.7421 68.724 76.1135 68.542C73.9823 67.9228 73.1169 67.0674 72.5064 64.9825C72.388 64.5363 72.2515 64.1451 72.224 64.0905C72.1427 63.9627 71.9515 63.9717 71.8331 64.1086Z" fill="url(#paint6_linear_1327_1037)"/>
</g>
</g>
<defs>
<filter id="filter0_d_1327_1037" x="13" y="17" width="58" height="58" filterUnits="userSpaceOnUse" color-interpolation-filters="sRGB">
<feFlood flood-opacity="0" result="BackgroundImageFix"/>
<feColorMatrix in="SourceAlpha" type="matrix" values="0 0 0 0 0 0 0 0 0 0 0 0 0 0 0 0 0 0 127 0" result="hardAlpha"/>
<feOffset dy="4"/>
<feGaussianBlur stdDeviation="2"/>
<feComposite in2="hardAlpha" operator="out"/>
<feColorMatrix type="matrix" values="0 0 0 0 0 0 0 0 0 0 0 0 0 0 0 0 0 0 0.25 0"/>
<feBlend mode="normal" in2="BackgroundImageFix" result="effect1_dropShadow_1327_1037"/>
<feBlend mode="normal" in="SourceGraphic" in2="effect1_dropShadow_1327_1037" result="shape"/>
</filter>
<filter id="filter1_d_1327_1037" x="9" y="6" width="23" height="23" filterUnits="userSpaceOnUse" color-interpolation-filters="sRGB">
<feFlood flood-opacity="0" result="BackgroundImageFix"/>
<feColorMatrix in="SourceAlpha" type="matrix" values="0 0 0 0 0 0 0 0 0 0 0 0 0 0 0 0 0 0 127 0" result="hardAlpha"/>
<feOffset dy="4"/>
<feGaussianBlur stdDeviation="2"/>
<feComposite in2="hardAlpha" operator="out"/>
<feColorMatrix type="matrix" values="0 0 0 0 0 0 0 0 0 0 0 0 0 0 0 0 0 0 0.25 0"/>
<feBlend mode="normal" in2="BackgroundImageFix" result="effect1_dropShadow_1327_1037"/>
<feBlend mode="normal" in="SourceGraphic" in2="effect1_dropShadow_1327_1037" result="shape"/>
</filter>
<filter id="filter2_d_1327_1037" x="63" y="37" width="18" height="18" filterUnits="userSpaceOnUse" color-interpolation-filters="sRGB">
<feFlood flood-opacity="0" result="BackgroundImageFix"/>
<feColorMatrix in="SourceAlpha" type="matrix" values="0 0 0 0 0 0 0 0 0 0 0 0 0 0 0 0 0 0 127 0" result="hardAlpha"/>
<feOffset dy="4"/>
<feGaussianBlur stdDeviation="2"/>
<feComposite in2="hardAlpha" operator="out"/>
<feColorMatrix type="matrix" values="0 0 0 0 0 0 0 0 0 0 0 0 0 0 0 0 0 0 0.25 0"/>
<feBlend mode="normal" in2="BackgroundImageFix" result="effect1_dropShadow_1327_1037"/>
<feBlend mode="normal" in="SourceGraphic" in2="effect1_dropShadow_1327_1037" result="shape"/>
</filter>
<filter id="filter3_d_1327_1037" x="4" y="69" width="18" height="18" filterUnits="userSpaceOnUse" color-interpolation-filters="sRGB">
<feFlood flood-opacity="0" result="BackgroundImageFix"/>
<feColorMatrix in="SourceAlpha" type="matrix" values="0 0 0 0 0 0 0 0 0 0 0 0 0 0 0 0 0 0 127 0" result="hardAlpha"/>
<feOffset dy="4"/>
<feGaussianBlur stdDeviation="2"/>
<feComposite in2="hardAlpha" operator="out"/>
<feColorMatrix type="matrix" values="0 0 0 0 0 0 0 0 0 0 0 0 0 0 0 0 0 0 0.25 0"/>
<feBlend mode="normal" in2="BackgroundImageFix" result="effect1_dropShadow_1327_1037"/>
<feBlend mode="normal" in="SourceGraphic" in2="effect1_dropShadow_1327_1037" result="shape"/>
</filter>
<filter id="filter4_d_1327_1037" x="7" y="35" width="18" height="18" filterUnits="userSpaceOnUse" color-interpolation-filters="sRGB">
<feFlood flood-opacity="0" result="BackgroundImageFix"/>
<feColorMatrix in="SourceAlpha" type="matrix" values="0 0 0 0 0 0 0 0 0 0 0 0 0 0 0 0 0 0 127 0" result="hardAlpha"/>
<feOffset dy="4"/>
<feGaussianBlur stdDeviation="2"/>
<feComposite in2="hardAlpha" operator="out"/>
<feColorMatrix type="matrix" values="0 0 0 0 0 0 0 0 0 0 0 0 0 0 0 0 0 0 0.25 0"/>
<feBlend mode="normal" in2="BackgroundImageFix" result="effect1_dropShadow_1327_1037"/>
<feBlend mode="normal" in="SourceGraphic" in2="effect1_dropShadow_1327_1037" result="shape"/>
</filter>
<filter id="filter5_d_1327_1037" x="63" y="64" width="18" height="18" filterUnits="userSpaceOnUse" color-interpolation-filters="sRGB">
<feFlood flood-opacity="0" result="BackgroundImageFix"/>
<feColorMatrix in="SourceAlpha" type="matrix" values="0 0 0 0 0 0 0 0 0 0 0 0 0 0 0 0 0 0 127 0" result="hardAlpha"/>
<feOffset dy="4"/>
<feGaussianBlur stdDeviation="2"/>
<feComposite in2="hardAlpha" operator="out"/>
<feColorMatrix type="matrix" values="0 0 0 0 0 0 0 0 0 0 0 0 0 0 0 0 0 0 0.25 0"/>
<feBlend mode="normal" in2="BackgroundImageFix" result="effect1_dropShadow_1327_1037"/>
<feBlend mode="normal" in="SourceGraphic" in2="effect1_dropShadow_1327_1037" result="shape"/>
</filter>
<linearGradient id="paint0_linear_1327_1037" x1="71.5" y1="3" x2="71.5" y2="24" gradientUnits="userSpaceOnUse">
<stop stop-color="#FBB03B"/>
<stop offset="1" stop-color="#F78140"/>
</linearGradient>
<linearGradient id="paint1_linear_1327_1037" x1="42" y1="17" x2="42" y2="67" gradientUnits="userSpaceOnUse">
<stop stop-color="#FBB03B"/>
<stop offset="1" stop-color="#F78140"/>
</linearGradient>
<linearGradient id="paint2_linear_1327_1037" x1="20.5" y1="21" x2="20.5" y2="6" gradientUnits="userSpaceOnUse">
<stop stop-color="#F78140"/>
<stop offset="1" stop-color="#FBB03B"/>
</linearGradient>
<linearGradient id="paint3_linear_1327_1037" x1="72" y1="47" x2="72" y2="37" gradientUnits="userSpaceOnUse">
<stop stop-color="#F78140"/>
<stop offset="1" stop-color="#FBB03B"/>
</linearGradient>
<linearGradient id="paint4_linear_1327_1037" x1="13" y1="79" x2="13" y2="69" gradientUnits="userSpaceOnUse">
<stop stop-color="#F78140"/>
<stop offset="1" stop-color="#FBB03B"/>
</linearGradient>
<linearGradient id="paint5_linear_1327_1037" x1="16" y1="45" x2="16" y2="35" gradientUnits="userSpaceOnUse">
<stop stop-color="#F78140"/>
<stop offset="1" stop-color="#FBB03B"/>
</linearGradient>
<linearGradient id="paint6_linear_1327_1037" x1="72" y1="74" x2="72" y2="64" gradientUnits="userSpaceOnUse">
<stop stop-color="#F78140"/>
<stop offset="1" stop-color="#FBB03B"/>
</linearGradient>
<clipPath id="clip0_1327_1037">
<rect width="83.75" height="83.75" fill="white"/>
</clipPath>
</defs>
</svg>
