<svg width="84" height="84" viewBox="0 0 84 84" fill="none" xmlns="http://www.w3.org/2000/svg">
<g filter="url(#filter0_d_1182_578)">
<path d="M47.421 46.1865C46.9159 47.9835 45.8494 49.2521 44.2217 49.9924C42.6145 50.721 40.9841 50.855 39.3304 50.3942C37.6768 49.9334 36.345 48.974 35.3352 47.5161C34.3415 46.0627 34.0994 44.4295 34.6091 42.6164C34.7986 41.9426 35.1418 41.3375 35.6388 40.8012C36.1564 40.2534 36.6163 39.8798 37.0186 39.6805L37.6529 39.3641C37.5675 39.2365 37.4671 39.0701 37.3517 38.8649C37.2363 38.6598 37.1165 38.2544 36.9924 37.6489C36.8889 37.0318 36.9183 36.4344 37.0807 35.8568C37.5227 34.2844 38.4821 33.1503 39.9588 32.4545C41.4355 31.7587 42.9606 31.63 44.534 32.0684C46.1074 32.5069 47.3255 33.4086 48.1882 34.7736C49.051 36.1386 49.2546 37.6314 48.7991 39.2519C48.6638 39.7333 48.4058 40.1891 48.0252 40.6194C47.6606 41.0541 47.3218 41.3663 47.0088 41.5559L46.5393 41.8403C46.6522 41.9929 46.7815 42.2106 46.927 42.4934C47.0932 42.7646 47.2604 43.2783 47.4287 44.0346C47.613 44.7953 47.6105 45.5126 47.421 46.1865ZM44.5771 37.9197C44.6673 37.5988 44.6143 37.264 44.418 36.9152C44.2263 36.5503 43.8575 36.2918 43.3116 36.1397C42.7818 35.9921 42.3501 36.0189 42.0165 36.22C41.683 36.4212 41.4688 36.6903 41.3741 37.0272C41.2839 37.3481 41.3347 37.691 41.5264 38.0559C41.7342 38.4252 42.095 38.6814 42.6088 38.8246C43.1386 38.9722 43.5725 38.9374 43.9106 38.7202C44.2647 38.5075 44.4869 38.2406 44.5771 37.9197ZM39.0468 45.3063C39.3078 45.7943 39.7915 46.1367 40.4979 46.3335C41.2043 46.5304 41.7883 46.4855 42.2497 46.1988C42.7112 45.9122 43.0028 45.5523 43.1246 45.119C43.2509 44.6698 43.1835 44.2012 42.9225 43.7132C42.6775 43.2297 42.2018 42.8895 41.4954 42.6927C40.8051 42.5003 40.2211 42.5452 39.7436 42.8274C39.2706 43.0935 38.971 43.4512 38.8447 43.9005C38.7184 44.3497 38.7857 44.8184 39.0468 45.3063Z" fill="url(#paint0_linear_1182_578)"/>
</g>
<g filter="url(#filter1_d_1182_578)">
<path d="M62.4249 17.9728L37.4272 11.2336C35.3136 10.6638 32.4772 11.3885 32.0105 13.1198L19.0276 61.2772C18.4668 63.357 20.4622 65.7521 22.5758 66.3219L47.5734 73.0612C49.687 73.631 52.2674 72.4694 52.8281 70.3896L65.7186 22.5751C66.2721 20.4993 64.5385 18.5426 62.4249 17.9728ZM45.9053 17.6074L51.8919 19.2214L51.5176 20.6098L45.531 18.9959L45.9053 17.6074ZM35.4582 67.5639C34.0473 67.1835 32.9224 65.7648 33.3891 64.0334C33.7634 62.645 35.193 61.547 36.9525 62.0214C38.3634 62.4018 39.4883 63.8205 39.0216 65.5519C38.5548 67.2832 37.2177 68.0383 35.4582 67.5639ZM50.5433 63.4543L24.8373 56.5242L34.6438 20.149L60.3441 27.0776L50.5376 63.4528L50.5433 63.4543Z" fill="url(#paint1_linear_1182_578)"/>
</g>
<defs>
<filter id="filter0_d_1182_578" x="28.9243" y="30.27" width="25.9673" height="29.9092" filterUnits="userSpaceOnUse" color-interpolation-filters="sRGB">
<feFlood flood-opacity="0" result="BackgroundImageFix"/>
<feColorMatrix in="SourceAlpha" type="matrix" values="0 0 0 0 0 0 0 0 0 0 0 0 0 0 0 0 0 0 127 0" result="hardAlpha"/>
<feOffset dy="4"/>
<feGaussianBlur stdDeviation="2"/>
<feComposite in2="hardAlpha" operator="out"/>
<feColorMatrix type="matrix" values="0 0 0 0 0 0 0 0 0 0 0 0 0 0 0 0 0 0 0.25 0"/>
<feBlend mode="normal" in2="BackgroundImageFix" result="effect1_dropShadow_1182_578"/>
<feBlend mode="normal" in="SourceGraphic" in2="effect1_dropShadow_1182_578" result="shape"/>
</filter>
<filter id="filter1_d_1182_578" x="14.9316" y="11.0422" width="54.8911" height="70.1633" filterUnits="userSpaceOnUse" color-interpolation-filters="sRGB">
<feFlood flood-opacity="0" result="BackgroundImageFix"/>
<feColorMatrix in="SourceAlpha" type="matrix" values="0 0 0 0 0 0 0 0 0 0 0 0 0 0 0 0 0 0 127 0" result="hardAlpha"/>
<feOffset dy="4"/>
<feGaussianBlur stdDeviation="2"/>
<feComposite in2="hardAlpha" operator="out"/>
<feColorMatrix type="matrix" values="0 0 0 0 0 0 0 0 0 0 0 0 0 0 0 0 0 0 0.25 0"/>
<feBlend mode="normal" in2="BackgroundImageFix" result="effect1_dropShadow_1182_578"/>
<feBlend mode="normal" in="SourceGraphic" in2="effect1_dropShadow_1182_578" result="shape"/>
</filter>
<linearGradient id="paint0_linear_1182_578" x1="45.8143" y1="26.9233" x2="37.9661" y2="55.0881" gradientUnits="userSpaceOnUse">
<stop stop-color="white"/>
<stop offset="1" stop-color="#BFBFBF"/>
</linearGradient>
<linearGradient id="paint1_linear_1182_578" x1="49.7518" y1="14.5562" x2="34.9004" y2="69.6446" gradientUnits="userSpaceOnUse">
<stop stop-color="white"/>
<stop offset="1" stop-color="#BFBFBF"/>
</linearGradient>
</defs>
</svg>
