<svg width="84" height="84" viewBox="0 0 84 84" fill="none" xmlns="http://www.w3.org/2000/svg">
<g clip-path="url(#clip0_377_28)">
<g filter="url(#filter0_d_377_28)">
<path d="M70.9994 17.8605C73.6837 17.8605 75.8597 15.6845 75.8597 13.0003C75.8597 10.3161 73.6837 8.14014 70.9994 8.14014C68.3152 8.14014 66.1392 10.3161 66.1392 13.0003C66.1392 15.6845 68.3152 17.8605 70.9994 17.8605Z" fill="url(#paint0_linear_377_28)"/>
<path d="M71.0002 18.655C67.882 18.655 65.3452 16.1182 65.3452 13.0001C65.3452 9.88194 67.882 7.34521 71.0002 7.34521C74.1184 7.34521 76.6551 9.88194 76.6551 13.0001C76.6551 16.1182 74.1184 18.655 71.0002 18.655ZM71.0002 8.9346C68.7575 8.9346 66.9346 10.7574 66.9346 13.0001C66.9346 15.2427 68.7575 17.0656 71.0002 17.0656C73.2428 17.0656 75.0657 15.2427 75.0657 13.0001C75.0657 10.7574 73.2428 8.9346 71.0002 8.9346Z" fill="url(#paint1_linear_377_28)"/>
<path d="M71 6.17325C70.56 6.17325 70.2053 5.81856 70.2053 5.37856V2.79469C70.2053 2.35694 70.56 2 71 2C71.4378 2 71.7947 2.35469 71.7947 2.79469V5.37856C71.7947 5.81631 71.4378 6.17325 71 6.17325Z" fill="url(#paint2_linear_377_28)"/>
<path d="M71 23.9999C70.56 23.9999 70.2053 23.6452 70.2053 23.2052V20.6214C70.2053 20.1836 70.56 19.8267 71 19.8267C71.4378 19.8267 71.7947 20.1836 71.7947 20.6214V23.2052C71.7947 23.6452 71.4378 23.9999 71 23.9999Z" fill="url(#paint3_linear_377_28)"/>
<path d="M81.2053 13.7945H78.6214C78.1836 13.7945 77.8267 13.4398 77.8267 12.9998C77.8267 12.5598 78.1836 12.2051 78.6214 12.2051H81.2053C81.643 12.2051 82 12.5598 82 12.9998C82 13.4375 81.6453 13.7945 81.2053 13.7945Z" fill="url(#paint4_linear_377_28)"/>
<path d="M63.3786 13.7945H60.7947C60.3569 13.7945 60 13.4375 60 12.9998C60 12.5598 60.3569 12.2051 60.7947 12.2051H63.3786C63.8186 12.2051 64.1733 12.5598 64.1733 12.9998C64.1733 13.4375 63.8164 13.7945 63.3786 13.7945Z" fill="url(#paint5_linear_377_28)"/>
<path d="M76.3907 8.40466C76.1865 8.40466 75.9844 8.32609 75.8295 8.17119C75.5197 7.8614 75.5197 7.35854 75.8295 7.0465L77.6569 5.21916C77.9667 4.90937 78.4695 4.90937 78.7816 5.21916C79.0914 5.52896 79.0914 6.03181 78.7816 6.34385L76.952 8.17344C76.7971 8.32834 76.5928 8.40466 76.3907 8.40466Z" fill="url(#paint6_linear_377_28)"/>
<path d="M63.7831 21.0121C63.5788 21.0121 63.3768 20.9335 63.2219 20.7786C62.9121 20.4688 62.9121 19.966 63.2219 19.6539L65.0492 17.8266C65.359 17.5168 65.8619 17.5168 66.1739 17.8266C66.4837 18.1364 66.4837 18.6392 66.1739 18.9513L64.3466 20.7786C64.1917 20.9335 63.9874 21.0121 63.7831 21.0121Z" fill="url(#paint7_linear_377_28)"/>
<path d="M78.2154 21.0121C78.0111 21.0121 77.8091 20.9335 77.6542 20.7786L75.8268 18.9513C75.517 18.6415 75.517 18.1386 75.8268 17.8266C76.1366 17.5168 76.6395 17.5168 76.9515 17.8266L78.7789 19.6539C79.0887 19.9637 79.0887 20.4666 78.7789 20.7786C78.624 20.9335 78.4197 21.0121 78.2154 21.0121Z" fill="url(#paint8_linear_377_28)"/>
<path d="M65.6104 8.40466C65.4062 8.40466 65.2041 8.32609 65.0492 8.17119L63.2219 6.34385C62.9121 6.03406 62.9121 5.5312 63.2219 5.21916C63.5316 4.90937 64.0345 4.90937 64.3466 5.21916L66.1739 7.0465C66.4837 7.3563 66.4837 7.85915 66.1739 8.17119C66.019 8.32834 65.8147 8.40466 65.6104 8.40466Z" fill="url(#paint9_linear_377_28)"/>
</g>
<g filter="url(#filter1_d_377_28)">
<path d="M78.8311 36.3946C78.1062 36.2152 77.3506 36.1591 76.5951 36.2283L74.799 36.2722L74.7321 39.935L74.6712 43.5919L76.3383 43.5633C78.2455 43.5222 78.5452 43.4496 79.0891 42.9024C79.6329 42.3551 79.9139 41.5227 79.9534 39.6853C79.9759 37.5442 79.7343 36.814 78.8311 36.3946Z" fill="url(#paint10_linear_377_28)"/>
<path d="M71.5347 30.3387C71.0948 30.1287 70.6634 30.0704 69.306 30.1079C68.5789 30.1017 67.8494 30.1788 67.1317 30.3377C66.5291 30.5588 66.0142 30.9835 65.6792 31.5359C65.533 31.8089 65.4367 34.3907 65.3351 40.7564C65.2036 49.0646 65.2147 49.6374 65.4875 50.0041C65.7254 50.3082 66.0295 50.5533 66.3784 50.7222C66.8987 51.0002 67.196 51.0446 68.6757 51.0329C69.413 51.038 70.1526 50.9725 70.8843 50.8373C71.2523 50.7066 71.5848 50.4843 71.8493 50.192C72.1138 49.8998 72.3014 49.5475 72.3937 49.1697C72.5623 48.3931 72.8236 32.1335 72.6589 31.6351C72.5732 31.3496 72.4293 31.0874 72.2361 30.8645C72.0428 30.6416 71.8041 30.4627 71.5347 30.3387V30.3387Z" fill="url(#paint11_linear_377_28)"/>
<path d="M62.8873 25.1273C60.912 24.9947 58.919 25.0557 56.9366 25.3095C56.5348 25.4785 56.1701 25.7309 55.8675 26.0492C55.565 26.3674 55.3317 26.7441 55.1838 27.1534C55.0213 27.6374 54.9351 30.8388 54.7335 41.0496C54.6121 48.3399 54.5617 54.5054 54.6385 54.7372C54.9226 55.4229 55.4117 55.9965 56.0417 56.3826C56.3599 56.5434 57.1777 56.5793 59.2772 56.5622C60.3308 56.5821 61.3885 56.5136 62.4392 56.3577C62.7583 56.2104 63.0419 55.9917 63.2671 55.7193C63.4924 55.4469 63.653 55.1284 63.7359 54.7896C63.9601 54.1518 64.021 52.1324 64.2154 40.6235C64.3814 30.4371 64.3835 27.0685 64.2406 26.6397C64.1334 26.3041 63.9582 25.9972 63.7256 25.7372C63.493 25.4773 63.2079 25.2698 62.8873 25.1273Z" fill="url(#paint12_linear_377_28)"/>
<path d="M41.7218 37.0354L30.7055 37.2993L30.6445 40.9562L30.5836 44.613L41.6113 44.3606L52.6216 44.1027L52.6828 40.4342L52.7437 36.7773L41.7218 37.0354Z" fill="url(#paint13_linear_377_28)"/>
<path d="M27.0006 26.015C25.0021 25.844 22.9814 25.8784 20.9697 26.1176C20.6496 26.2704 20.3599 26.4838 20.1174 26.7455C19.8749 27.0072 19.6844 27.312 19.5571 27.6421C19.4016 28.0733 19.2825 31.4452 19.0991 41.6262C18.893 53.1354 18.879 55.1535 19.0877 55.7793C19.1582 56.1162 19.3071 56.4281 19.5228 56.6901C19.7385 56.9522 20.0149 57.1573 20.33 57.2889C21.3766 57.3936 22.4341 57.4132 23.4922 57.3476C25.5694 57.2843 26.3954 57.2088 26.7092 57.0306C27.3579 56.6194 27.8701 56.0198 28.1727 55.3174C28.2597 55.0811 28.4212 48.9184 28.5602 41.6218C28.7501 31.4113 28.7539 28.2356 28.6061 27.766C28.3231 26.9883 27.7491 26.3622 27.0006 26.015V26.015Z" fill="url(#paint14_linear_377_28)"/>
<path d="M16.9154 31.6626C16.002 31.3625 15.0235 31.2718 14.05 31.3968C12.1419 31.4847 11.4196 31.9024 10.9667 33.1138C10.7923 33.6099 10.4786 49.865 10.59 50.669C10.6675 51.0449 10.8426 51.3892 11.098 51.6683C11.3535 51.9473 11.6805 52.1513 12.0469 52.2604C12.7681 52.3679 13.5027 52.3966 14.2378 52.3459C15.7242 52.2931 16.0177 52.2382 16.5506 51.9311C16.9054 51.745 17.2184 51.4848 17.4674 51.1689C17.7503 50.7926 17.7746 50.2071 17.9395 41.9798C18.0298 36.9537 18.0377 33.041 17.9431 32.8156C17.7412 32.323 17.3803 31.9181 16.9154 31.6626V31.6626Z" fill="url(#paint15_linear_377_28)"/>
<path d="M6.81841 37.8725C4.77634 37.9349 4.36453 38.0515 3.88586 38.8309C3.50482 39.4204 3.3772 40.1901 3.38387 41.7865C3.39054 43.3829 3.60849 44.1254 4.15812 44.6716C4.70774 45.2179 4.97617 45.2455 6.88354 45.1927L8.55684 45.1465L8.61785 41.4896L8.67921 37.8094L6.81841 37.8725Z" fill="url(#paint16_linear_377_28)"/>
</g>
</g>
<defs>
<filter id="filter0_d_377_28" x="56" y="2" width="30" height="30" filterUnits="userSpaceOnUse" color-interpolation-filters="sRGB">
<feFlood flood-opacity="0" result="BackgroundImageFix"/>
<feColorMatrix in="SourceAlpha" type="matrix" values="0 0 0 0 0 0 0 0 0 0 0 0 0 0 0 0 0 0 127 0" result="hardAlpha"/>
<feOffset dy="4"/>
<feGaussianBlur stdDeviation="2"/>
<feComposite in2="hardAlpha" operator="out"/>
<feColorMatrix type="matrix" values="0 0 0 0 0 0 0 0 0 0 0 0 0 0 0 0 0 0 0.25 0"/>
<feBlend mode="normal" in2="BackgroundImageFix" result="effect1_dropShadow_377_28"/>
<feBlend mode="normal" in="SourceGraphic" in2="effect1_dropShadow_377_28" result="shape"/>
</filter>
<filter id="filter1_d_377_28" x="-0.616364" y="25.0591" width="84.5712" height="40.3264" filterUnits="userSpaceOnUse" color-interpolation-filters="sRGB">
<feFlood flood-opacity="0" result="BackgroundImageFix"/>
<feColorMatrix in="SourceAlpha" type="matrix" values="0 0 0 0 0 0 0 0 0 0 0 0 0 0 0 0 0 0 127 0" result="hardAlpha"/>
<feOffset dy="4"/>
<feGaussianBlur stdDeviation="2"/>
<feComposite in2="hardAlpha" operator="out"/>
<feColorMatrix type="matrix" values="0 0 0 0 0 0 0 0 0 0 0 0 0 0 0 0 0 0 0.25 0"/>
<feBlend mode="normal" in2="BackgroundImageFix" result="effect1_dropShadow_377_28"/>
<feBlend mode="normal" in="SourceGraphic" in2="effect1_dropShadow_377_28" result="shape"/>
</filter>
<linearGradient id="paint0_linear_377_28" x1="70.9994" y1="8.14014" x2="70.9994" y2="17.8605" gradientUnits="userSpaceOnUse">
<stop stop-color="white"/>
<stop offset="1" stop-color="#BFBFBF"/>
</linearGradient>
<linearGradient id="paint1_linear_377_28" x1="71.0002" y1="7.34521" x2="71.0002" y2="18.655" gradientUnits="userSpaceOnUse">
<stop stop-color="white"/>
<stop offset="1" stop-color="#BFBFBF"/>
</linearGradient>
<linearGradient id="paint2_linear_377_28" x1="71" y1="2" x2="71" y2="6.17325" gradientUnits="userSpaceOnUse">
<stop stop-color="white"/>
<stop offset="1" stop-color="#BFBFBF"/>
</linearGradient>
<linearGradient id="paint3_linear_377_28" x1="71" y1="19.8267" x2="71" y2="23.9999" gradientUnits="userSpaceOnUse">
<stop stop-color="white"/>
<stop offset="1" stop-color="#BFBFBF"/>
</linearGradient>
<linearGradient id="paint4_linear_377_28" x1="79.9133" y1="12.2051" x2="79.9133" y2="13.7945" gradientUnits="userSpaceOnUse">
<stop stop-color="white"/>
<stop offset="1" stop-color="#BFBFBF"/>
</linearGradient>
<linearGradient id="paint5_linear_377_28" x1="62.0867" y1="12.2051" x2="62.0867" y2="13.7945" gradientUnits="userSpaceOnUse">
<stop stop-color="white"/>
<stop offset="1" stop-color="#BFBFBF"/>
</linearGradient>
<linearGradient id="paint6_linear_377_28" x1="77.3056" y1="4.98682" x2="77.3056" y2="8.40466" gradientUnits="userSpaceOnUse">
<stop stop-color="white"/>
<stop offset="1" stop-color="#BFBFBF"/>
</linearGradient>
<linearGradient id="paint7_linear_377_28" x1="64.6979" y1="17.5942" x2="64.6979" y2="21.0121" gradientUnits="userSpaceOnUse">
<stop stop-color="white"/>
<stop offset="1" stop-color="#BFBFBF"/>
</linearGradient>
<linearGradient id="paint8_linear_377_28" x1="77.3029" y1="17.5942" x2="77.3029" y2="21.0121" gradientUnits="userSpaceOnUse">
<stop stop-color="white"/>
<stop offset="1" stop-color="#BFBFBF"/>
</linearGradient>
<linearGradient id="paint9_linear_377_28" x1="64.6979" y1="4.98682" x2="64.6979" y2="8.40466" gradientUnits="userSpaceOnUse">
<stop stop-color="white"/>
<stop offset="1" stop-color="#BFBFBF"/>
</linearGradient>
<linearGradient id="paint10_linear_377_28" x1="79.5619" y1="36.9532" x2="73.8124" y2="42.7384" gradientUnits="userSpaceOnUse">
<stop stop-color="white"/>
<stop offset="1" stop-color="#BFBFBF"/>
</linearGradient>
<linearGradient id="paint11_linear_377_28" x1="75.4656" y1="34.0661" x2="62.5248" y2="47.0874" gradientUnits="userSpaceOnUse">
<stop stop-color="white"/>
<stop offset="1" stop-color="#BFBFBF"/>
</linearGradient>
<linearGradient id="paint12_linear_377_28" x1="69.2131" y1="31.1849" x2="50.0034" y2="50.5141" gradientUnits="userSpaceOnUse">
<stop stop-color="white"/>
<stop offset="1" stop-color="#BFBFBF"/>
</linearGradient>
<linearGradient id="paint13_linear_377_28" x1="49.1311" y1="33.187" x2="34.202" y2="48.209" gradientUnits="userSpaceOnUse">
<stop stop-color="white"/>
<stop offset="1" stop-color="#BFBFBF"/>
</linearGradient>
<linearGradient id="paint14_linear_377_28" x1="33.2963" y1="32.0098" x2="14.105" y2="51.3205" gradientUnits="userSpaceOnUse">
<stop stop-color="white"/>
<stop offset="1" stop-color="#BFBFBF"/>
</linearGradient>
<linearGradient id="paint15_linear_377_28" x1="20.7714" y1="35.3677" x2="7.81295" y2="48.4068" gradientUnits="userSpaceOnUse">
<stop stop-color="white"/>
<stop offset="1" stop-color="#BFBFBF"/>
</linearGradient>
<linearGradient id="paint16_linear_377_28" x1="9.50763" y1="38.6327" x2="3.83002" y2="44.3456" gradientUnits="userSpaceOnUse">
<stop stop-color="white"/>
<stop offset="1" stop-color="#BFBFBF"/>
</linearGradient>
<clipPath id="clip0_377_28">
<rect width="83.75" height="83.75" fill="white"/>
</clipPath>
</defs>
</svg>
