<svg width="84" height="84" viewBox="0 0 84 84" fill="none" xmlns="http://www.w3.org/2000/svg">
<g filter="url(#filter0_d_1907_996)">
<path d="M38.3267 31.1882C38.84 30.8994 39.3278 30.8194 39.7902 30.9483C40.268 31.0814 40.6271 31.223 40.8675 31.373C41.1078 31.523 41.2822 31.6713 41.3906 31.8178C41.5034 31.9488 41.5658 32.1406 41.5779 32.3931C41.5814 32.6765 41.5051 33.0954 41.3493 33.6499L37.7316 46.5191C37.632 46.8733 37.5408 47.1386 37.458 47.3148C37.395 47.48 37.2693 47.6609 37.0811 47.8576C36.7484 48.2133 36.0888 48.2538 35.1024 47.9789C34.1468 47.7126 33.6097 47.347 33.4911 46.8821C33.4327 46.6167 33.4141 46.3873 33.4353 46.1939C33.4761 45.9894 33.5485 45.7023 33.6525 45.3326L35.9712 37.0843L35.5927 37.2778C34.8265 37.5792 34.22 37.6676 33.773 37.5431C33.326 37.4185 32.9317 37.018 32.59 36.3415C32.2638 35.6692 32.1591 35.1252 32.276 34.7093C32.3929 34.2934 32.7981 33.9163 33.4915 33.578L38.2443 31.2151L38.3267 31.1882ZM49.9173 33.521C51.813 34.0493 53.1565 35.005 53.9477 36.3881C54.739 37.7713 54.944 39.1406 54.563 40.496C54.1863 41.8361 53.3124 42.639 51.9413 42.9047L51.8959 43.0664C52.0284 43.1864 52.2042 43.4181 52.4234 43.7616C52.6624 44.0939 52.8398 44.4091 52.9554 44.7071C53.2822 45.4957 53.3287 46.3059 53.0948 47.1377C52.6315 48.7858 51.6318 49.9772 50.0957 50.7118C48.5639 51.431 46.8655 51.5308 45.0006 51.0111C43.151 50.4957 41.7613 49.5271 40.8314 48.1054C40.4859 47.5606 40.2312 46.9 40.0672 46.1235C40.0132 45.8427 39.9847 45.6188 39.9818 45.4519L40.0005 45.208C39.9738 44.6525 40.006 44.2129 40.0969 43.8895C40.348 42.9961 41.2288 42.7599 42.7393 43.1808C43.3558 43.3526 43.7426 43.5434 43.8997 43.7532C44.1054 44.0265 44.224 44.4914 44.2555 45.1479C44.2711 45.6838 44.591 46.1716 45.2153 46.6113C45.4822 46.7853 45.7928 46.9217 46.1473 47.0205C46.9642 47.2481 47.6108 47.2539 48.087 47.0378C48.5676 46.8063 48.8663 46.4826 48.9833 46.0667C49.1002 45.6508 49.0093 45.2352 48.7105 44.8198C48.4316 44.3932 48.0301 44.1069 47.506 43.9609C46.9974 43.8192 46.6549 43.7071 46.4786 43.6248C46.3024 43.5425 46.1236 43.4096 45.9425 43.2263C45.5826 42.9101 45.5413 42.2591 45.8184 41.2733C46.1215 40.1951 46.5863 39.6353 47.2129 39.594C47.4965 39.59 47.9081 39.6631 48.4476 39.8134C49.6189 40.1398 50.2891 40.0027 50.4579 39.402C50.5488 39.0785 50.4813 38.7275 50.2553 38.349C50.0293 37.9704 49.6389 37.7038 49.0841 37.5492C48.5446 37.3989 48.0871 37.3711 47.7114 37.4657C47.3358 37.5603 47.0835 37.6893 46.9545 37.8527L46.7378 38.0913C46.1668 38.7627 45.5499 39.006 44.8872 38.8213C44.5019 38.714 44.117 38.4572 43.7325 38.0511C43.0875 37.3897 42.8472 36.7663 43.0118 36.181C43.081 35.9346 43.4055 35.4603 43.9852 34.7581C44.0858 34.6367 44.3224 34.4451 44.6951 34.1836C45.0721 33.9066 45.4747 33.6866 45.9028 33.5235C46.3463 33.3648 46.9221 33.2678 47.63 33.2325C48.3534 33.2015 49.1158 33.2977 49.9173 33.521Z" fill="url(#paint0_linear_1907_996)"/>
</g>
<g filter="url(#filter1_d_1907_996)">
<path d="M62.4249 17.9728L37.4272 11.2336C35.3136 10.6638 32.4772 11.3885 32.0105 13.1198L19.0276 61.2772C18.4668 63.357 20.4622 65.7521 22.5758 66.3219L47.5734 73.0612C49.687 73.631 52.2674 72.4694 52.8281 70.3896L65.7186 22.5751C66.2721 20.4993 64.5385 18.5426 62.4249 17.9728ZM45.9053 17.6074L51.8919 19.2214L51.5176 20.6098L45.531 18.9959L45.9053 17.6074ZM35.4582 67.5639C34.0473 67.1835 32.9224 65.7648 33.3891 64.0334C33.7634 62.645 35.193 61.547 36.9525 62.0214C38.3634 62.4018 39.4883 63.8205 39.0216 65.5519C38.5548 67.2832 37.2177 68.0383 35.4582 67.5639ZM50.5433 63.4543L24.8373 56.5242L34.6438 20.149L60.3441 27.0776L50.5376 63.4528L50.5433 63.4543Z" fill="url(#paint1_linear_1907_996)"/>
</g>
<defs>
<filter id="filter0_d_1907_996" x="24.9507" y="29.0488" width="35.4631" height="31.7725" filterUnits="userSpaceOnUse" color-interpolation-filters="sRGB">
<feFlood flood-opacity="0" result="BackgroundImageFix"/>
<feColorMatrix in="SourceAlpha" type="matrix" values="0 0 0 0 0 0 0 0 0 0 0 0 0 0 0 0 0 0 127 0" result="hardAlpha"/>
<feOffset dy="4"/>
<feGaussianBlur stdDeviation="2"/>
<feComposite in2="hardAlpha" operator="out"/>
<feColorMatrix type="matrix" values="0 0 0 0 0 0 0 0 0 0 0 0 0 0 0 0 0 0 0.25 0"/>
<feBlend mode="normal" in2="BackgroundImageFix" result="effect1_dropShadow_1907_996"/>
<feBlend mode="normal" in="SourceGraphic" in2="effect1_dropShadow_1907_996" result="shape"/>
</filter>
<filter id="filter1_d_1907_996" x="14.9319" y="11.0425" width="54.8909" height="70.1631" filterUnits="userSpaceOnUse" color-interpolation-filters="sRGB">
<feFlood flood-opacity="0" result="BackgroundImageFix"/>
<feColorMatrix in="SourceAlpha" type="matrix" values="0 0 0 0 0 0 0 0 0 0 0 0 0 0 0 0 0 0 127 0" result="hardAlpha"/>
<feOffset dy="4"/>
<feGaussianBlur stdDeviation="2"/>
<feComposite in2="hardAlpha" operator="out"/>
<feColorMatrix type="matrix" values="0 0 0 0 0 0 0 0 0 0 0 0 0 0 0 0 0 0 0.25 0"/>
<feBlend mode="normal" in2="BackgroundImageFix" result="effect1_dropShadow_1907_996"/>
<feBlend mode="normal" in="SourceGraphic" in2="effect1_dropShadow_1907_996" result="shape"/>
</filter>
<linearGradient id="paint0_linear_1907_996" x1="48.0223" y1="27.6531" x2="40.1741" y2="55.8179" gradientUnits="userSpaceOnUse">
<stop stop-color="white"/>
<stop offset="1" stop-color="#BFBFBF"/>
</linearGradient>
<linearGradient id="paint1_linear_1907_996" x1="49.7518" y1="14.5562" x2="34.9004" y2="69.6446" gradientUnits="userSpaceOnUse">
<stop stop-color="white"/>
<stop offset="1" stop-color="#BFBFBF"/>
</linearGradient>
</defs>
</svg>
