<svg width="84" height="84" viewBox="0 0 84 84" fill="none" xmlns="http://www.w3.org/2000/svg">
<g clip-path="url(#clip0_1330_1106)">
<path d="M81.8348 14.9985C80.8041 20.9217 75.2241 24.8769 69.3763 23.8329C65.3028 23.1061 62.1786 20.1435 61 16.4134C61.6771 16.6878 62.3928 16.8979 63.1407 17.0329C68.9906 18.0769 74.5684 14.1217 75.5991 8.19857C75.912 6.39783 75.7641 4.6271 75.2499 3C79.8762 4.87577 82.7348 9.8321 81.8348 14.9985Z" fill="url(#paint0_linear_1330_1106)"/>
<g filter="url(#filter0_d_1330_1106)">
<path d="M34.831 46.147C34.8081 47.2744 34.3342 48.3476 33.5121 49.1335C32.69 49.9195 31.586 50.3548 30.4396 50.3452C29.2955 50.3684 28.1881 49.9477 27.3568 49.1741C26.5256 48.4006 26.0372 47.3362 25.9974 46.2113C26.0202 45.09 26.4891 44.0223 27.3034 43.2373C28.1177 42.4524 29.2124 42.0128 30.3525 42.0131C31.5028 41.9803 32.6195 42.3967 33.4587 43.1713C34.2978 43.9459 34.7912 45.0157 34.831 46.147ZM32.6534 37.8434C31.5069 37.8704 30.3957 37.4514 29.5613 36.6774C28.7269 35.9035 28.2366 34.8369 28.1967 33.7094C28.2034 33.1534 28.3213 32.6041 28.5437 32.0929C28.7662 31.5818 29.0889 31.1187 29.4933 30.7302C29.8977 30.3417 30.3759 30.0352 30.9007 29.8285C31.4255 29.6218 31.9866 29.5189 32.5518 29.5255C33.696 29.4984 34.805 29.9154 35.639 30.6863C36.473 31.4573 36.965 32.5202 37.0085 33.6452C36.9859 34.7591 36.5231 35.8205 35.7181 36.6042C34.9132 37.388 33.8295 37.8325 32.697 37.8434H32.6534ZM50.306 29.4898C50.2813 30.616 49.8065 31.6872 48.9846 32.4716C48.1627 33.2561 47.0598 33.6905 45.9147 33.6808C44.7693 33.7079 43.6592 33.2899 42.825 32.5174C41.9908 31.7449 41.4996 30.6802 41.458 29.554C41.4809 28.4265 41.9548 27.3535 42.7769 26.5675C43.599 25.7816 44.703 25.3462 45.8493 25.3558C47.0033 25.3172 48.1257 25.7311 48.9696 26.5063C49.8134 27.2815 50.3098 28.3546 50.3496 29.4898H50.306ZM23.7618 62.4829C33.9237 63.2754 30.2944 53.1297 39.6651 53.0369L43.7299 56.2285C44.7896 67.7593 29.8009 70.3367 23.8054 62.4829H23.7618ZM54.8789 47.6677C58.0363 43.0054 67.8062 27.3693 67.8062 27.3693C68.5829 26.077 66.8553 24.7204 65.6287 25.6771C65.6287 25.6771 51.1117 37.5721 46.8075 41.3847C43.4177 44.3692 43.4032 45.7258 42.3072 50.6665L46.0235 53.5795C51.0101 51.6161 52.4255 51.359 54.9224 47.6677H54.8789ZM26.9628 57.6635C24.6228 55.7789 22.7287 53.4152 21.4125 50.7369C20.0962 48.0587 19.3895 45.1303 19.3414 42.1558C19.2906 30.6964 29.1331 21.279 41.3636 21.2004C49.856 21.2004 55.6991 25.1702 55.7354 28.3403L59.4154 25.313C57.1798 20.6864 50.1609 16.8951 41.3273 17.0022C26.6797 17.1165 14.8847 28.3831 15.0009 42.1844C15.0611 48.05 17.2786 53.6958 21.2431 58.0777C23.3263 59.1272 25.9031 58.7845 27.0064 57.6778L26.9628 57.6635ZM55.2708 53.6938C57.6081 57.7992 52.2803 60.7123 47.4244 62.0046C46.7903 63.8131 45.7538 65.4597 44.3904 66.824C56.0039 65.5888 64.431 57.8563 58.2468 50.4024C57.4243 51.6306 56.4353 52.7428 55.3071 53.7081L55.2708 53.6938Z" fill="url(#paint1_linear_1330_1106)"/>
</g>
<g filter="url(#filter1_d_1330_1106)">
<path d="M12.8331 7.10855C12.7875 7.17223 12.651 7.5548 12.5507 7.95495C11.9858 10.0213 11.139 10.8681 9.03491 11.5054C7.71401 11.906 7.66883 12.1427 8.83473 12.4521C9.85513 12.7253 10.8023 13.1987 11.312 13.6901C11.8132 14.1815 12.3139 15.1737 12.5963 16.2392C12.7423 16.8219 12.8241 16.9768 12.9696 16.9948C13.2154 17.0314 13.3067 16.8855 13.4888 16.1575C13.7075 15.2655 14.1811 14.2822 14.6271 13.7998C15.1007 13.2899 15.9932 12.8166 17.0498 12.5072C17.9422 12.2525 18.0426 12.1978 17.9879 11.9517C17.9698 11.8333 17.7421 11.724 17.1135 11.542C14.9823 10.9228 14.1169 10.0674 13.5064 7.98251C13.388 7.53627 13.2515 7.14515 13.224 7.0905C13.1427 6.96266 12.9515 6.97169 12.8331 7.10855Z" fill="url(#paint2_linear_1330_1106)"/>
</g>
<g filter="url(#filter2_d_1330_1106)">
<path d="M76.8331 40.1086C76.7875 40.1722 76.651 40.5548 76.5507 40.9549C75.9858 43.0213 75.139 43.8681 73.0349 44.5054C71.714 44.906 71.6688 45.1427 72.8347 45.4521C73.8551 45.7253 74.8023 46.1987 75.312 46.6901C75.8132 47.1815 76.3139 48.1737 76.5963 49.2392C76.7423 49.8219 76.8241 49.9768 76.9696 49.9948C77.2154 50.0314 77.3067 49.8855 77.4888 49.1575C77.7075 48.2655 78.1811 47.2822 78.6271 46.7998C79.1007 46.2899 79.9932 45.8166 81.0498 45.5072C81.9422 45.2525 82.0426 45.1978 81.9879 44.9517C81.9698 44.8333 81.7421 44.724 81.1135 44.542C78.9823 43.9228 78.1169 43.0674 77.5064 40.9825C77.388 40.5363 77.2515 40.1451 77.224 40.0905C77.1427 39.9627 76.9515 39.9717 76.8331 40.1086Z" fill="url(#paint3_linear_1330_1106)"/>
</g>
<g filter="url(#filter3_d_1330_1106)">
<path d="M14.8331 65.1086C14.7875 65.1722 14.651 65.5548 14.5507 65.9549C13.9858 68.0213 13.139 68.8681 11.0349 69.5054C9.71401 69.906 9.66883 70.1427 10.8347 70.4521C11.8551 70.7253 12.8023 71.1987 13.312 71.6901C13.8132 72.1815 14.3139 73.1737 14.5963 74.2392C14.7423 74.8219 14.8241 74.9768 14.9696 74.9948C15.2154 75.0314 15.3067 74.8855 15.4888 74.1575C15.7075 73.2655 16.1811 72.2822 16.6271 71.7998C17.1007 71.2899 17.9932 70.8166 19.0498 70.5072C19.9422 70.2525 20.0426 70.1978 19.9879 69.9517C19.9698 69.8333 19.7421 69.724 19.1135 69.542C16.9823 68.9228 16.1169 68.0674 15.5064 65.9825C15.388 65.5363 15.2515 65.1451 15.224 65.0905C15.1427 64.9627 14.9515 64.9717 14.8331 65.1086Z" fill="url(#paint4_linear_1330_1106)"/>
</g>
<g filter="url(#filter4_d_1330_1106)">
<path d="M71.2497 58.1628C71.1812 58.2584 70.9765 58.8322 70.826 59.4324C69.9787 62.5319 68.7084 63.8022 65.5524 64.7581C63.571 65.3591 63.5033 65.7141 65.2521 66.1781C66.7827 66.588 68.2035 67.298 68.968 68.0351C69.7198 68.7722 70.4708 70.2606 70.8945 71.8588C71.1135 72.7328 71.2361 72.9652 71.4544 72.9923C71.8231 73.0472 71.9601 72.8283 72.2332 71.7362C72.5613 70.3982 73.2717 68.9233 73.9407 68.1998C74.6511 67.4349 75.9898 66.7249 77.5746 66.2608C78.9134 65.8787 79.0639 65.7967 78.9818 65.4275C78.9547 65.25 78.6131 65.086 77.6702 64.813C74.4735 63.8842 73.1754 62.601 72.2596 59.4738C72.082 58.8044 71.8773 58.2177 71.836 58.1357C71.714 57.944 71.4273 57.9575 71.2497 58.1628Z" fill="url(#paint5_linear_1330_1106)"/>
</g>
<g filter="url(#filter5_d_1330_1106)">
<path d="M9.24968 15.1628C9.18121 15.2584 8.97651 15.8322 8.82601 16.4324C7.97869 19.5319 6.70843 20.8022 3.55237 21.7581C1.57101 22.3591 1.50325 22.7141 3.2521 23.1781C4.7827 23.588 6.20346 24.298 6.96804 25.0351C7.71979 25.7722 8.47083 27.2606 8.89449 28.8588C9.11345 29.7328 9.23613 29.9652 9.45438 29.9923C9.82312 30.0472 9.96006 29.8283 10.2332 28.7362C10.5613 27.3982 11.2717 25.9233 11.9407 25.1998C12.6511 24.4349 13.9898 23.7249 15.5746 23.2608C16.9134 22.8787 17.0639 22.7967 16.9818 22.4275C16.9547 22.25 16.6131 22.086 15.6702 21.813C12.4735 20.8842 11.1754 19.601 10.2596 16.4738C10.082 15.8044 9.87732 15.2177 9.83596 15.1357C9.71399 14.944 9.42727 14.9575 9.24968 15.1628Z" fill="url(#paint6_linear_1330_1106)"/>
</g>
</g>
<defs>
<filter id="filter0_d_1330_1106" x="11" y="17" width="61" height="58" filterUnits="userSpaceOnUse" color-interpolation-filters="sRGB">
<feFlood flood-opacity="0" result="BackgroundImageFix"/>
<feColorMatrix in="SourceAlpha" type="matrix" values="0 0 0 0 0 0 0 0 0 0 0 0 0 0 0 0 0 0 127 0" result="hardAlpha"/>
<feOffset dy="4"/>
<feGaussianBlur stdDeviation="2"/>
<feComposite in2="hardAlpha" operator="out"/>
<feColorMatrix type="matrix" values="0 0 0 0 0 0 0 0 0 0 0 0 0 0 0 0 0 0 0.25 0"/>
<feBlend mode="normal" in2="BackgroundImageFix" result="effect1_dropShadow_1330_1106"/>
<feBlend mode="normal" in="SourceGraphic" in2="effect1_dropShadow_1330_1106" result="shape"/>
</filter>
<filter id="filter1_d_1330_1106" x="4" y="7" width="18" height="18" filterUnits="userSpaceOnUse" color-interpolation-filters="sRGB">
<feFlood flood-opacity="0" result="BackgroundImageFix"/>
<feColorMatrix in="SourceAlpha" type="matrix" values="0 0 0 0 0 0 0 0 0 0 0 0 0 0 0 0 0 0 127 0" result="hardAlpha"/>
<feOffset dy="4"/>
<feGaussianBlur stdDeviation="2"/>
<feComposite in2="hardAlpha" operator="out"/>
<feColorMatrix type="matrix" values="0 0 0 0 0 0 0 0 0 0 0 0 0 0 0 0 0 0 0.25 0"/>
<feBlend mode="normal" in2="BackgroundImageFix" result="effect1_dropShadow_1330_1106"/>
<feBlend mode="normal" in="SourceGraphic" in2="effect1_dropShadow_1330_1106" result="shape"/>
</filter>
<filter id="filter2_d_1330_1106" x="68" y="40" width="18" height="18" filterUnits="userSpaceOnUse" color-interpolation-filters="sRGB">
<feFlood flood-opacity="0" result="BackgroundImageFix"/>
<feColorMatrix in="SourceAlpha" type="matrix" values="0 0 0 0 0 0 0 0 0 0 0 0 0 0 0 0 0 0 127 0" result="hardAlpha"/>
<feOffset dy="4"/>
<feGaussianBlur stdDeviation="2"/>
<feComposite in2="hardAlpha" operator="out"/>
<feColorMatrix type="matrix" values="0 0 0 0 0 0 0 0 0 0 0 0 0 0 0 0 0 0 0.25 0"/>
<feBlend mode="normal" in2="BackgroundImageFix" result="effect1_dropShadow_1330_1106"/>
<feBlend mode="normal" in="SourceGraphic" in2="effect1_dropShadow_1330_1106" result="shape"/>
</filter>
<filter id="filter3_d_1330_1106" x="6" y="65" width="18" height="18" filterUnits="userSpaceOnUse" color-interpolation-filters="sRGB">
<feFlood flood-opacity="0" result="BackgroundImageFix"/>
<feColorMatrix in="SourceAlpha" type="matrix" values="0 0 0 0 0 0 0 0 0 0 0 0 0 0 0 0 0 0 127 0" result="hardAlpha"/>
<feOffset dy="4"/>
<feGaussianBlur stdDeviation="2"/>
<feComposite in2="hardAlpha" operator="out"/>
<feColorMatrix type="matrix" values="0 0 0 0 0 0 0 0 0 0 0 0 0 0 0 0 0 0 0.25 0"/>
<feBlend mode="normal" in2="BackgroundImageFix" result="effect1_dropShadow_1330_1106"/>
<feBlend mode="normal" in="SourceGraphic" in2="effect1_dropShadow_1330_1106" result="shape"/>
</filter>
<filter id="filter4_d_1330_1106" x="60" y="58" width="23" height="23" filterUnits="userSpaceOnUse" color-interpolation-filters="sRGB">
<feFlood flood-opacity="0" result="BackgroundImageFix"/>
<feColorMatrix in="SourceAlpha" type="matrix" values="0 0 0 0 0 0 0 0 0 0 0 0 0 0 0 0 0 0 127 0" result="hardAlpha"/>
<feOffset dy="4"/>
<feGaussianBlur stdDeviation="2"/>
<feComposite in2="hardAlpha" operator="out"/>
<feColorMatrix type="matrix" values="0 0 0 0 0 0 0 0 0 0 0 0 0 0 0 0 0 0 0.25 0"/>
<feBlend mode="normal" in2="BackgroundImageFix" result="effect1_dropShadow_1330_1106"/>
<feBlend mode="normal" in="SourceGraphic" in2="effect1_dropShadow_1330_1106" result="shape"/>
</filter>
<filter id="filter5_d_1330_1106" x="-2" y="15" width="23" height="23" filterUnits="userSpaceOnUse" color-interpolation-filters="sRGB">
<feFlood flood-opacity="0" result="BackgroundImageFix"/>
<feColorMatrix in="SourceAlpha" type="matrix" values="0 0 0 0 0 0 0 0 0 0 0 0 0 0 0 0 0 0 127 0" result="hardAlpha"/>
<feOffset dy="4"/>
<feGaussianBlur stdDeviation="2"/>
<feComposite in2="hardAlpha" operator="out"/>
<feColorMatrix type="matrix" values="0 0 0 0 0 0 0 0 0 0 0 0 0 0 0 0 0 0 0.25 0"/>
<feBlend mode="normal" in2="BackgroundImageFix" result="effect1_dropShadow_1330_1106"/>
<feBlend mode="normal" in="SourceGraphic" in2="effect1_dropShadow_1330_1106" result="shape"/>
</filter>
<linearGradient id="paint0_linear_1330_1106" x1="71.5" y1="3" x2="71.5" y2="24" gradientUnits="userSpaceOnUse">
<stop stop-color="#FBB03B"/>
<stop offset="1" stop-color="#F78140"/>
</linearGradient>
<linearGradient id="paint1_linear_1330_1106" x1="41.5" y1="17" x2="41.5" y2="67" gradientUnits="userSpaceOnUse">
<stop stop-color="#FBB03B"/>
<stop offset="1" stop-color="#F78140"/>
</linearGradient>
<linearGradient id="paint2_linear_1330_1106" x1="13" y1="17" x2="13" y2="7" gradientUnits="userSpaceOnUse">
<stop stop-color="#F78140"/>
<stop offset="1" stop-color="#FBB03B"/>
</linearGradient>
<linearGradient id="paint3_linear_1330_1106" x1="77" y1="50" x2="77" y2="40" gradientUnits="userSpaceOnUse">
<stop stop-color="#F78140"/>
<stop offset="1" stop-color="#FBB03B"/>
</linearGradient>
<linearGradient id="paint4_linear_1330_1106" x1="15" y1="75" x2="15" y2="65" gradientUnits="userSpaceOnUse">
<stop stop-color="#F78140"/>
<stop offset="1" stop-color="#FBB03B"/>
</linearGradient>
<linearGradient id="paint5_linear_1330_1106" x1="71.5" y1="73" x2="71.5" y2="58" gradientUnits="userSpaceOnUse">
<stop stop-color="#F78140"/>
<stop offset="1" stop-color="#FBB03B"/>
</linearGradient>
<linearGradient id="paint6_linear_1330_1106" x1="9.5" y1="30" x2="9.5" y2="15" gradientUnits="userSpaceOnUse">
<stop stop-color="#F78140"/>
<stop offset="1" stop-color="#FBB03B"/>
</linearGradient>
<clipPath id="clip0_1330_1106">
<rect width="83.75" height="83.75" fill="white"/>
</clipPath>
</defs>
</svg>
