<svg width="84" height="84" viewBox="0 0 84 84" fill="none" xmlns="http://www.w3.org/2000/svg">
<g filter="url(#filter0_d_1063_286)">
<path d="M41.1467 31.462L44.8005 32.506L47.0643 33.1368C47.4496 33.2442 47.726 33.3386 47.8936 33.4199C48.0657 33.4851 48.2541 33.6155 48.4589 33.8109C48.8292 34.1564 48.8655 34.8585 48.5678 35.9175C48.2972 36.8802 47.9319 37.4099 47.4719 37.5066C47.211 37.5724 46.9878 37.5967 46.8022 37.5795C46.6371 37.5508 46.378 37.4873 46.0248 37.3889L41.8103 36.2145C41.7241 36.3981 41.4724 36.9854 41.0553 37.9765C41.241 37.9936 41.5264 38.0559 41.9117 38.1632C43.437 38.5882 44.6473 39.5484 45.5427 41.0436C46.4427 42.5228 46.6581 44.0967 46.189 45.7653C45.7245 47.418 44.7451 48.6849 43.2508 49.5661C41.7611 50.4313 40.1573 50.6246 38.4394 50.1459C36.9463 49.7298 35.7036 48.977 34.7115 47.8873C34.4882 47.6348 34.3303 47.4265 34.238 47.2623L34.0927 47.0401C33.6314 46.3407 33.4617 45.7743 33.5835 45.3411C33.7053 44.9079 34.1489 44.4692 34.9143 44.025C35.5448 43.6298 36.0848 43.4948 36.5344 43.62C36.9839 43.7453 37.4496 44.1519 37.9314 44.8398C38.1257 45.2573 38.576 45.5644 39.2824 45.7613C40.0049 45.9626 40.5776 45.9578 41.0004 45.7469C41.4393 45.5405 41.7332 45.1725 41.882 44.643C42.0354 44.0975 41.9623 43.6187 41.6626 43.2064C41.3836 42.7826 41.0032 42.5036 40.5216 42.3694C40.0399 42.2352 39.614 42.2722 39.2438 42.4805C38.7066 42.7288 38.2132 42.7903 37.7637 42.665C37.3302 42.5442 36.8673 42.2508 36.375 41.7849C35.8988 41.3235 35.5972 40.9799 35.4702 40.7542C35.3477 40.5125 35.3158 40.2873 35.3744 40.0787C35.4331 39.8702 35.9567 38.6233 36.9453 36.3381C37.934 34.053 38.4499 32.8645 38.493 32.7727C38.5361 32.6809 38.6397 32.5281 38.8036 32.3143C38.9676 32.1005 39.1409 31.9152 39.3235 31.7584C39.5221 31.6062 39.7782 31.4958 40.0917 31.4275C40.4258 31.3476 40.7775 31.3591 41.1467 31.462Z" fill="url(#paint0_linear_1063_286)"/>
</g>
<g filter="url(#filter1_d_1063_286)">
<path d="M62.4249 17.9728L37.4272 11.2336C35.3136 10.6638 32.4772 11.3885 32.0105 13.1198L19.0276 61.2772C18.4668 63.357 20.4622 65.7521 22.5758 66.3219L47.5734 73.0612C49.687 73.631 52.2674 72.4694 52.8281 70.3896L65.7186 22.5751C66.2721 20.4993 64.5385 18.5426 62.4249 17.9728ZM45.9053 17.6074L51.8919 19.2214L51.5176 20.6098L45.531 18.9959L45.9053 17.6074ZM35.4582 67.5639C34.0473 67.1835 32.9224 65.7648 33.3891 64.0334C33.7634 62.645 35.193 61.547 36.9525 62.0214C38.3634 62.4018 39.4883 63.8205 39.0216 65.5519C38.5548 67.2832 37.2177 68.0383 35.4582 67.5639ZM50.5433 63.4543L24.8373 56.5242L34.6438 20.149L60.3441 27.0776L50.5376 63.4528L50.5433 63.4543Z" fill="url(#paint1_linear_1063_286)"/>
</g>
<defs>
<filter id="filter0_d_1063_286" x="28.6836" y="30.5159" width="24.8682" height="29.3145" filterUnits="userSpaceOnUse" color-interpolation-filters="sRGB">
<feFlood flood-opacity="0" result="BackgroundImageFix"/>
<feColorMatrix in="SourceAlpha" type="matrix" values="0 0 0 0 0 0 0 0 0 0 0 0 0 0 0 0 0 0 127 0" result="hardAlpha"/>
<feOffset dy="4"/>
<feGaussianBlur stdDeviation="2"/>
<feComposite in2="hardAlpha" operator="out"/>
<feColorMatrix type="matrix" values="0 0 0 0 0 0 0 0 0 0 0 0 0 0 0 0 0 0 0.25 0"/>
<feBlend mode="normal" in2="BackgroundImageFix" result="effect1_dropShadow_1063_286"/>
<feBlend mode="normal" in="SourceGraphic" in2="effect1_dropShadow_1063_286" result="shape"/>
</filter>
<filter id="filter1_d_1063_286" x="14.9316" y="11.0422" width="54.8911" height="70.1633" filterUnits="userSpaceOnUse" color-interpolation-filters="sRGB">
<feFlood flood-opacity="0" result="BackgroundImageFix"/>
<feColorMatrix in="SourceAlpha" type="matrix" values="0 0 0 0 0 0 0 0 0 0 0 0 0 0 0 0 0 0 127 0" result="hardAlpha"/>
<feOffset dy="4"/>
<feGaussianBlur stdDeviation="2"/>
<feComposite in2="hardAlpha" operator="out"/>
<feColorMatrix type="matrix" values="0 0 0 0 0 0 0 0 0 0 0 0 0 0 0 0 0 0 0.25 0"/>
<feBlend mode="normal" in2="BackgroundImageFix" result="effect1_dropShadow_1063_286"/>
<feBlend mode="normal" in="SourceGraphic" in2="effect1_dropShadow_1063_286" result="shape"/>
</filter>
<linearGradient id="paint0_linear_1063_286" x1="45.8143" y1="26.9233" x2="37.9661" y2="55.0881" gradientUnits="userSpaceOnUse">
<stop stop-color="white"/>
<stop offset="1" stop-color="#BFBFBF"/>
</linearGradient>
<linearGradient id="paint1_linear_1063_286" x1="49.7518" y1="14.5562" x2="34.9004" y2="69.6446" gradientUnits="userSpaceOnUse">
<stop stop-color="white"/>
<stop offset="1" stop-color="#BFBFBF"/>
</linearGradient>
</defs>
</svg>
