<svg width="84" height="84" viewBox="0 0 84 84" fill="none" xmlns="http://www.w3.org/2000/svg">
<g clip-path="url(#clip0_1323_922)">
<g filter="url(#filter0_d_1323_922)">
<path d="M70.9989 17.8605C73.6832 17.8605 75.8592 15.6845 75.8592 13.0003C75.8592 10.3161 73.6832 8.14014 70.9989 8.14014C68.3147 8.14014 66.1387 10.3161 66.1387 13.0003C66.1387 15.6845 68.3147 17.8605 70.9989 17.8605Z" fill="url(#paint0_linear_1323_922)"/>
<path d="M71.0007 18.655C67.8825 18.655 65.3457 16.1182 65.3457 13.0001C65.3457 9.88194 67.8825 7.34521 71.0007 7.34521C74.1188 7.34521 76.6556 9.88194 76.6556 13.0001C76.6556 16.1182 74.1188 18.655 71.0007 18.655ZM71.0007 8.9346C68.758 8.9346 66.9351 10.7574 66.9351 13.0001C66.9351 15.2427 68.758 17.0656 71.0007 17.0656C73.2433 17.0656 75.0662 15.2427 75.0662 13.0001C75.0662 10.7574 73.2433 8.9346 71.0007 8.9346Z" fill="url(#paint1_linear_1323_922)"/>
<path d="M70.9998 6.17325C70.5598 6.17325 70.2051 5.81856 70.2051 5.37856V2.79469C70.2051 2.35694 70.5598 2 70.9998 2C71.4375 2 71.7945 2.35469 71.7945 2.79469V5.37856C71.7945 5.81631 71.4375 6.17325 70.9998 6.17325Z" fill="url(#paint2_linear_1323_922)"/>
<path d="M70.9998 23.9999C70.5598 23.9999 70.2051 23.6452 70.2051 23.2052V20.6214C70.2051 20.1836 70.5598 19.8267 70.9998 19.8267C71.4375 19.8267 71.7945 20.1836 71.7945 20.6214V23.2052C71.7945 23.6452 71.4375 23.9999 70.9998 23.9999Z" fill="url(#paint3_linear_1323_922)"/>
<path d="M81.2048 13.7945H78.6209C78.1831 13.7945 77.8262 13.4398 77.8262 12.9998C77.8262 12.5598 78.1831 12.2051 78.6209 12.2051H81.2048C81.6425 12.2051 81.9995 12.5598 81.9995 12.9998C81.9995 13.4375 81.6448 13.7945 81.2048 13.7945Z" fill="url(#paint4_linear_1323_922)"/>
<path d="M63.3786 13.7945H60.7947C60.3569 13.7945 60 13.4375 60 12.9998C60 12.5598 60.3569 12.2051 60.7947 12.2051H63.3786C63.8186 12.2051 64.1733 12.5598 64.1733 12.9998C64.1733 13.4375 63.8164 13.7945 63.3786 13.7945Z" fill="url(#paint5_linear_1323_922)"/>
<path d="M76.3912 8.40466C76.1869 8.40466 75.9849 8.32609 75.83 8.17119C75.5202 7.8614 75.5202 7.35854 75.83 7.0465L77.6574 5.21916C77.9672 4.90937 78.47 4.90937 78.7821 5.21916C79.0919 5.52896 79.0919 6.03181 78.7821 6.34385L76.9525 8.17344C76.7976 8.32834 76.5933 8.40466 76.3912 8.40466Z" fill="url(#paint6_linear_1323_922)"/>
<path d="M63.7828 21.0121C63.5785 21.0121 63.3765 20.9335 63.2216 20.7786C62.9118 20.4688 62.9118 19.966 63.2216 19.6539L65.049 17.8266C65.3588 17.5168 65.8616 17.5168 66.1737 17.8266C66.4835 18.1364 66.4835 18.6392 66.1737 18.9513L64.3463 20.7786C64.1914 20.9335 63.9871 21.0121 63.7828 21.0121Z" fill="url(#paint7_linear_1323_922)"/>
<path d="M78.2157 21.0121C78.0114 21.0121 77.8093 20.9335 77.6544 20.7786L75.8271 18.9513C75.5173 18.6415 75.5173 18.1386 75.8271 17.8266C76.1369 17.5168 76.6397 17.5168 76.9518 17.8266L78.7791 19.6539C79.0889 19.9637 79.0889 20.4666 78.7791 20.7786C78.6242 20.9335 78.42 21.0121 78.2157 21.0121Z" fill="url(#paint8_linear_1323_922)"/>
<path d="M65.6102 8.40466C65.4059 8.40466 65.2039 8.32609 65.049 8.17119L63.2216 6.34385C62.9118 6.03406 62.9118 5.5312 63.2216 5.21916C63.5314 4.90937 64.0343 4.90937 64.3463 5.21916L66.1737 7.0465C66.4835 7.3563 66.4835 7.85915 66.1737 8.17119C66.0188 8.32834 65.8145 8.40466 65.6102 8.40466Z" fill="url(#paint9_linear_1323_922)"/>
</g>
<g filter="url(#filter1_d_1323_922)">
<path d="M26.3271 26.7578C25.1457 26.7578 24.1875 27.6888 24.1875 28.8373C24.1875 29.9857 25.1458 30.9168 26.3271 30.9168C27.5069 30.9168 28.4652 29.9857 28.4652 28.8373C28.4652 27.6888 27.5069 26.7578 26.3271 26.7578Z" fill="url(#paint10_linear_1323_922)"/>
<path d="M56.6747 26.7578C55.4934 26.7578 54.5352 27.6888 54.5352 28.8373C54.5352 29.9857 55.4934 30.9168 56.6747 30.9168C57.8546 30.9168 58.8128 29.9857 58.8128 28.8373C58.8128 27.6888 57.8546 26.7578 56.6747 26.7578Z" fill="url(#paint11_linear_1323_922)"/>
<path d="M64.4592 33.5327C65.3519 32.1711 65.8706 30.5617 65.8706 28.837C65.8706 23.9643 61.7451 20.0001 56.6738 20.0001C53.2753 20.0001 50.3037 21.782 48.7116 24.4232C46.3786 23.9342 43.9638 23.6858 41.5001 23.6858C39.043 23.6858 36.6243 23.9334 34.2882 24.4226C32.6961 21.7816 29.7247 20 26.3263 20C21.2551 20 17.1295 23.9642 17.1295 28.8369C17.1295 30.5615 17.6482 32.1711 18.5409 33.5326C16.3889 36.2974 15.1788 39.3993 15 42.625C17.839 44.8186 20.8876 46.3459 24.5423 47.4088C29.0296 48.714 34.5766 49.3485 41.5001 49.3485C48.4235 49.3485 53.9705 48.7141 58.4578 47.4088C62.1123 46.3459 65.1609 44.8187 68 42.6251C67.8213 39.3997 66.6113 36.2975 64.4592 33.5327ZM26.3263 34.335C23.1627 34.335 20.5892 31.8687 20.5892 28.837C20.5892 25.8054 23.1628 23.3391 26.3263 23.3391C29.4898 23.3391 32.0633 25.8054 32.0633 28.837C32.0633 31.8687 29.4897 34.335 26.3263 34.335ZM37.7706 45.2443C36.7606 45.2443 35.9387 44.4466 35.9387 43.4626C35.9387 42.4785 36.7606 41.6814 37.7706 41.6814C38.7819 41.6814 39.6037 42.4785 39.6037 43.4626C39.6037 44.4466 38.7819 45.2443 37.7706 45.2443ZM45.2156 45.2577C44.1958 45.2577 43.3686 44.4539 43.3686 43.4627C43.3686 42.4713 44.1958 41.6676 45.2156 41.6676C46.2341 41.6676 47.0613 42.4712 47.0613 43.4627C47.0613 44.4541 46.2342 45.2577 45.2156 45.2577ZM56.6737 34.335C53.5102 34.335 50.9367 31.8687 50.9367 28.837C50.9367 25.8054 53.5102 23.3391 56.6737 23.3391C59.8373 23.3391 62.4108 25.8054 62.4108 28.837C62.4108 31.8687 59.8373 34.335 56.6737 34.335Z" fill="url(#paint12_linear_1323_922)"/>
<path d="M59.4562 50.6059C54.6405 52.0067 48.767 52.6875 41.5003 52.6875C34.2336 52.6875 28.36 52.0066 23.5442 50.6059C20.5214 49.7267 17.8664 48.5604 15.3984 47.0176C16.3611 51.0245 18.9497 54.6951 22.9242 57.5977C27.9058 61.2358 34.5029 63.2393 41.5002 63.2393C48.4976 63.2393 55.0946 61.2358 60.0762 57.5977C64.0506 54.6952 66.6392 51.0246 67.6019 47.0178C65.1339 48.5605 62.4788 49.7267 59.4562 50.6059Z" fill="url(#paint13_linear_1323_922)"/>
</g>
<g filter="url(#filter2_d_1323_922)">
<path d="M16.2497 58.1628C16.1812 58.2584 15.9765 58.8322 15.826 59.4324C14.9787 62.5319 13.7084 63.8022 10.5524 64.7581C8.57101 65.3591 8.50325 65.7141 10.2521 66.1781C11.7827 66.588 13.2035 67.298 13.968 68.0351C14.7198 68.7722 15.4708 70.2606 15.8945 71.8588C16.1135 72.7328 16.2361 72.9652 16.4544 72.9923C16.8231 73.0472 16.9601 72.8283 17.2332 71.7362C17.5613 70.3982 18.2717 68.9233 18.9407 68.1998C19.6511 67.4349 20.9898 66.7249 22.5746 66.2608C23.9134 65.8787 24.0639 65.7967 23.9818 65.4275C23.9547 65.25 23.6131 65.086 22.6702 64.813C19.4735 63.8842 18.1754 62.601 17.2596 59.4738C17.082 58.8044 16.8773 58.2177 16.836 58.1357C16.714 57.944 16.4273 57.9575 16.2497 58.1628Z" fill="url(#paint14_linear_1323_922)"/>
</g>
<g filter="url(#filter3_d_1323_922)">
<path d="M38.8331 8.10855C38.7875 8.17223 38.651 8.5548 38.5507 8.95495C37.9858 11.0213 37.139 11.8681 35.0349 12.5054C33.714 12.906 33.6688 13.1427 34.8347 13.4521C35.8551 13.7253 36.8023 14.1987 37.312 14.6901C37.8132 15.1815 38.3139 16.1737 38.5963 17.2392C38.7423 17.8219 38.8241 17.9768 38.9696 17.9948C39.2154 18.0314 39.3067 17.8855 39.4888 17.1575C39.7075 16.2655 40.1811 15.2822 40.6271 14.7998C41.1007 14.2899 41.9932 13.8166 43.0498 13.5072C43.9422 13.2525 44.0426 13.1978 43.9879 12.9517C43.9698 12.8333 43.7421 12.724 43.1135 12.542C40.9823 11.9228 40.1169 11.0674 39.5064 8.98251C39.388 8.53627 39.2515 8.14515 39.224 8.0905C39.1427 7.96266 38.9515 7.97169 38.8331 8.10855Z" fill="url(#paint15_linear_1323_922)"/>
</g>
<g filter="url(#filter4_d_1323_922)">
<path d="M68.8331 63.1086C68.7875 63.1722 68.651 63.5548 68.5507 63.9549C67.9858 66.0213 67.139 66.8681 65.0349 67.5054C63.714 67.906 63.6688 68.1427 64.8347 68.4521C65.8551 68.7253 66.8023 69.1987 67.312 69.6901C67.8132 70.1815 68.3139 71.1737 68.5963 72.2392C68.7423 72.8219 68.8241 72.9768 68.9696 72.9948C69.2154 73.0314 69.3067 72.8855 69.4888 72.1575C69.7075 71.2655 70.1811 70.2822 70.6271 69.7998C71.1007 69.2899 71.9932 68.8166 73.0498 68.5072C73.9422 68.2525 74.0426 68.1978 73.9879 67.9517C73.9698 67.8333 73.7421 67.724 73.1135 67.542C70.9823 66.9228 70.1169 66.0674 69.5064 63.9825C69.388 63.5363 69.2515 63.1451 69.224 63.0905C69.1427 62.9627 68.9515 62.9717 68.8331 63.1086Z" fill="url(#paint16_linear_1323_922)"/>
</g>
<g filter="url(#filter5_d_1323_922)">
<path d="M8.83312 12.1086C8.78747 12.1722 8.651 12.5548 8.55068 12.9549C7.9858 15.0213 7.13895 15.8681 5.03491 16.5054C3.71401 16.906 3.66883 17.1427 4.83473 17.4521C5.85513 17.7253 6.80231 18.1987 7.31203 18.6901C7.8132 19.1815 8.31389 20.1737 8.59633 21.2392C8.7423 21.8219 8.82408 21.9768 8.96958 21.9948C9.21541 22.0314 9.30671 21.8855 9.48882 21.1575C9.70754 20.2655 10.1811 19.2822 10.6271 18.7998C11.1007 18.2899 11.9932 17.8166 13.0498 17.5072C13.9422 17.2525 14.0426 17.1978 13.9879 16.9517C13.9698 16.8333 13.7421 16.724 13.1135 16.542C10.9823 15.9228 10.1169 15.0674 9.50641 12.9825C9.38801 12.5363 9.25155 12.1451 9.22397 12.0905C9.14266 11.9627 8.95152 11.9717 8.83312 12.1086Z" fill="url(#paint17_linear_1323_922)"/>
</g>
</g>
<defs>
<filter id="filter0_d_1323_922" x="56" y="2" width="29.999" height="30" filterUnits="userSpaceOnUse" color-interpolation-filters="sRGB">
<feFlood flood-opacity="0" result="BackgroundImageFix"/>
<feColorMatrix in="SourceAlpha" type="matrix" values="0 0 0 0 0 0 0 0 0 0 0 0 0 0 0 0 0 0 127 0" result="hardAlpha"/>
<feOffset dy="4"/>
<feGaussianBlur stdDeviation="2"/>
<feComposite in2="hardAlpha" operator="out"/>
<feColorMatrix type="matrix" values="0 0 0 0 0 0 0 0 0 0 0 0 0 0 0 0 0 0 0.25 0"/>
<feBlend mode="normal" in2="BackgroundImageFix" result="effect1_dropShadow_1323_922"/>
<feBlend mode="normal" in="SourceGraphic" in2="effect1_dropShadow_1323_922" result="shape"/>
</filter>
<filter id="filter1_d_1323_922" x="11" y="20" width="61" height="51.2393" filterUnits="userSpaceOnUse" color-interpolation-filters="sRGB">
<feFlood flood-opacity="0" result="BackgroundImageFix"/>
<feColorMatrix in="SourceAlpha" type="matrix" values="0 0 0 0 0 0 0 0 0 0 0 0 0 0 0 0 0 0 127 0" result="hardAlpha"/>
<feOffset dy="4"/>
<feGaussianBlur stdDeviation="2"/>
<feComposite in2="hardAlpha" operator="out"/>
<feColorMatrix type="matrix" values="0 0 0 0 0 0 0 0 0 0 0 0 0 0 0 0 0 0 0.25 0"/>
<feBlend mode="normal" in2="BackgroundImageFix" result="effect1_dropShadow_1323_922"/>
<feBlend mode="normal" in="SourceGraphic" in2="effect1_dropShadow_1323_922" result="shape"/>
</filter>
<filter id="filter2_d_1323_922" x="5" y="58" width="23" height="23" filterUnits="userSpaceOnUse" color-interpolation-filters="sRGB">
<feFlood flood-opacity="0" result="BackgroundImageFix"/>
<feColorMatrix in="SourceAlpha" type="matrix" values="0 0 0 0 0 0 0 0 0 0 0 0 0 0 0 0 0 0 127 0" result="hardAlpha"/>
<feOffset dy="4"/>
<feGaussianBlur stdDeviation="2"/>
<feComposite in2="hardAlpha" operator="out"/>
<feColorMatrix type="matrix" values="0 0 0 0 0 0 0 0 0 0 0 0 0 0 0 0 0 0 0.25 0"/>
<feBlend mode="normal" in2="BackgroundImageFix" result="effect1_dropShadow_1323_922"/>
<feBlend mode="normal" in="SourceGraphic" in2="effect1_dropShadow_1323_922" result="shape"/>
</filter>
<filter id="filter3_d_1323_922" x="30" y="8" width="18" height="18" filterUnits="userSpaceOnUse" color-interpolation-filters="sRGB">
<feFlood flood-opacity="0" result="BackgroundImageFix"/>
<feColorMatrix in="SourceAlpha" type="matrix" values="0 0 0 0 0 0 0 0 0 0 0 0 0 0 0 0 0 0 127 0" result="hardAlpha"/>
<feOffset dy="4"/>
<feGaussianBlur stdDeviation="2"/>
<feComposite in2="hardAlpha" operator="out"/>
<feColorMatrix type="matrix" values="0 0 0 0 0 0 0 0 0 0 0 0 0 0 0 0 0 0 0.25 0"/>
<feBlend mode="normal" in2="BackgroundImageFix" result="effect1_dropShadow_1323_922"/>
<feBlend mode="normal" in="SourceGraphic" in2="effect1_dropShadow_1323_922" result="shape"/>
</filter>
<filter id="filter4_d_1323_922" x="60" y="63" width="18" height="18" filterUnits="userSpaceOnUse" color-interpolation-filters="sRGB">
<feFlood flood-opacity="0" result="BackgroundImageFix"/>
<feColorMatrix in="SourceAlpha" type="matrix" values="0 0 0 0 0 0 0 0 0 0 0 0 0 0 0 0 0 0 127 0" result="hardAlpha"/>
<feOffset dy="4"/>
<feGaussianBlur stdDeviation="2"/>
<feComposite in2="hardAlpha" operator="out"/>
<feColorMatrix type="matrix" values="0 0 0 0 0 0 0 0 0 0 0 0 0 0 0 0 0 0 0.25 0"/>
<feBlend mode="normal" in2="BackgroundImageFix" result="effect1_dropShadow_1323_922"/>
<feBlend mode="normal" in="SourceGraphic" in2="effect1_dropShadow_1323_922" result="shape"/>
</filter>
<filter id="filter5_d_1323_922" x="0" y="12" width="18" height="18" filterUnits="userSpaceOnUse" color-interpolation-filters="sRGB">
<feFlood flood-opacity="0" result="BackgroundImageFix"/>
<feColorMatrix in="SourceAlpha" type="matrix" values="0 0 0 0 0 0 0 0 0 0 0 0 0 0 0 0 0 0 127 0" result="hardAlpha"/>
<feOffset dy="4"/>
<feGaussianBlur stdDeviation="2"/>
<feComposite in2="hardAlpha" operator="out"/>
<feColorMatrix type="matrix" values="0 0 0 0 0 0 0 0 0 0 0 0 0 0 0 0 0 0 0.25 0"/>
<feBlend mode="normal" in2="BackgroundImageFix" result="effect1_dropShadow_1323_922"/>
<feBlend mode="normal" in="SourceGraphic" in2="effect1_dropShadow_1323_922" result="shape"/>
</filter>
<linearGradient id="paint0_linear_1323_922" x1="70.9989" y1="8.14014" x2="70.9989" y2="17.8605" gradientUnits="userSpaceOnUse">
<stop stop-color="#FBB03B"/>
<stop offset="1" stop-color="#F78140"/>
</linearGradient>
<linearGradient id="paint1_linear_1323_922" x1="71.0007" y1="7.34521" x2="71.0007" y2="18.655" gradientUnits="userSpaceOnUse">
<stop stop-color="#FBB03B"/>
<stop offset="1" stop-color="#F78140"/>
</linearGradient>
<linearGradient id="paint2_linear_1323_922" x1="70.9998" y1="2" x2="70.9998" y2="6.17325" gradientUnits="userSpaceOnUse">
<stop stop-color="#FBB03B"/>
<stop offset="1" stop-color="#F78140"/>
</linearGradient>
<linearGradient id="paint3_linear_1323_922" x1="70.9998" y1="19.8267" x2="70.9998" y2="23.9999" gradientUnits="userSpaceOnUse">
<stop stop-color="#FBB03B"/>
<stop offset="1" stop-color="#F78140"/>
</linearGradient>
<linearGradient id="paint4_linear_1323_922" x1="79.9128" y1="12.2051" x2="79.9128" y2="13.7945" gradientUnits="userSpaceOnUse">
<stop stop-color="#FBB03B"/>
<stop offset="1" stop-color="#F78140"/>
</linearGradient>
<linearGradient id="paint5_linear_1323_922" x1="62.0867" y1="12.2051" x2="62.0867" y2="13.7945" gradientUnits="userSpaceOnUse">
<stop stop-color="#FBB03B"/>
<stop offset="1" stop-color="#F78140"/>
</linearGradient>
<linearGradient id="paint6_linear_1323_922" x1="77.306" y1="4.98682" x2="77.306" y2="8.40466" gradientUnits="userSpaceOnUse">
<stop stop-color="#FBB03B"/>
<stop offset="1" stop-color="#F78140"/>
</linearGradient>
<linearGradient id="paint7_linear_1323_922" x1="64.6976" y1="17.5942" x2="64.6976" y2="21.0121" gradientUnits="userSpaceOnUse">
<stop stop-color="#FBB03B"/>
<stop offset="1" stop-color="#F78140"/>
</linearGradient>
<linearGradient id="paint8_linear_1323_922" x1="77.3031" y1="17.5942" x2="77.3031" y2="21.0121" gradientUnits="userSpaceOnUse">
<stop stop-color="#FBB03B"/>
<stop offset="1" stop-color="#F78140"/>
</linearGradient>
<linearGradient id="paint9_linear_1323_922" x1="64.6976" y1="4.98682" x2="64.6976" y2="8.40466" gradientUnits="userSpaceOnUse">
<stop stop-color="#FBB03B"/>
<stop offset="1" stop-color="#F78140"/>
</linearGradient>
<linearGradient id="paint10_linear_1323_922" x1="26.3263" y1="26.7578" x2="26.3263" y2="30.9168" gradientUnits="userSpaceOnUse">
<stop stop-color="#FBB03B"/>
<stop offset="1" stop-color="#F78140"/>
</linearGradient>
<linearGradient id="paint11_linear_1323_922" x1="56.674" y1="26.7578" x2="56.674" y2="30.9168" gradientUnits="userSpaceOnUse">
<stop stop-color="#FBB03B"/>
<stop offset="1" stop-color="#F78140"/>
</linearGradient>
<linearGradient id="paint12_linear_1323_922" x1="41.5" y1="20" x2="41.5" y2="49.3485" gradientUnits="userSpaceOnUse">
<stop stop-color="#FBB03B"/>
<stop offset="1" stop-color="#F78140"/>
</linearGradient>
<linearGradient id="paint13_linear_1323_922" x1="41.5002" y1="47.0176" x2="41.5002" y2="63.2393" gradientUnits="userSpaceOnUse">
<stop stop-color="#FBB03B"/>
<stop offset="1" stop-color="#F78140"/>
</linearGradient>
<linearGradient id="paint14_linear_1323_922" x1="16.5" y1="73" x2="16.5" y2="58" gradientUnits="userSpaceOnUse">
<stop stop-color="#F78140"/>
<stop offset="1" stop-color="#FBB03B"/>
</linearGradient>
<linearGradient id="paint15_linear_1323_922" x1="39" y1="18" x2="39" y2="8" gradientUnits="userSpaceOnUse">
<stop stop-color="#F78140"/>
<stop offset="1" stop-color="#FBB03B"/>
</linearGradient>
<linearGradient id="paint16_linear_1323_922" x1="69" y1="73" x2="69" y2="63" gradientUnits="userSpaceOnUse">
<stop stop-color="#F78140"/>
<stop offset="1" stop-color="#FBB03B"/>
</linearGradient>
<linearGradient id="paint17_linear_1323_922" x1="9" y1="22" x2="9" y2="12" gradientUnits="userSpaceOnUse">
<stop stop-color="#F78140"/>
<stop offset="1" stop-color="#FBB03B"/>
</linearGradient>
<clipPath id="clip0_1323_922">
<rect width="83.75" height="83.75" fill="white"/>
</clipPath>
</defs>
</svg>
