<svg width="84" height="84" viewBox="0 0 84 84" fill="none" xmlns="http://www.w3.org/2000/svg">
<g filter="url(#filter0_d_2086_33)">
<path d="M58.5251 17.0009C58.2813 16.991 58.0406 17.0595 57.8372 17.1968C57.7707 17.2419 51.1209 21.6174 32.9838 21.6174C32.7799 21.6187 32.5802 21.6761 32.4057 21.7835C32.2313 21.8909 32.0885 22.0442 31.9926 22.2273L15.4532 55.1675C15.3082 55.3727 15.2371 55.6225 15.2519 55.8749C15.2667 56.1273 15.3666 56.3669 15.5346 56.5531L15.5789 56.5982L15.6381 56.6586L15.6973 56.7037C16.0006 56.9673 29.0782 68 50.7067 68C50.9118 68.0004 51.113 67.943 51.288 67.834C51.463 67.725 51.6048 67.5687 51.6978 67.3825L66.1217 38.0121C66.1909 37.8814 66.2331 37.7377 66.2459 37.5899C66.2586 37.442 66.2417 37.293 66.196 37.152C66.1503 37.011 66.0768 36.881 65.9801 36.7699C65.8834 36.6589 65.7655 36.569 65.6335 36.5059C65.4908 36.4341 65.3341 36.3955 65.1749 36.3929C64.96 36.3812 64.7464 36.4342 64.5609 36.5454C64.3754 36.6565 64.2262 36.8209 64.132 37.018L50.0335 65.7107C43.9543 65.656 37.9185 64.6606 32.1331 62.7585C36.5956 63.385 41.1261 63.3087 45.5658 62.5326C45.7372 62.5034 45.8994 62.4338 46.0394 62.3291C46.1795 62.2245 46.2934 62.0878 46.3721 61.9302L64.1246 25.782C64.1937 25.6513 64.236 25.5076 64.2487 25.3597C64.2615 25.2119 64.2445 25.0628 64.1988 24.9219C64.1531 24.7809 64.0797 24.6509 63.983 24.5398C63.8863 24.4287 63.7683 24.3389 63.6364 24.2758C63.4591 24.1894 63.263 24.1505 63.0668 24.1628C62.8699 24.173 62.6794 24.2372 62.5153 24.3485C62.3513 24.4599 62.2198 24.6143 62.1348 24.7954L44.656 60.3637C37.8502 61.5167 30.8691 60.9134 24.3516 58.609C26.0989 58.8296 27.8576 58.9428 29.6182 58.9479C33.326 59.0464 37.0106 58.3244 40.4176 56.8317C40.6392 56.7276 40.8192 56.5496 40.928 56.3271L59.4645 18.605C59.5715 18.3861 59.6027 18.1368 59.5531 17.8975C59.5034 17.6583 59.3757 17.4432 59.1909 17.2871C59.0059 17.1197 58.7719 17.0192 58.5251 17.0009V17.0009Z" fill="url(#paint0_linear_2086_33)"/>
</g>
<defs>
<filter id="filter0_d_2086_33" x="12.25" y="16" width="61" height="61" filterUnits="userSpaceOnUse" color-interpolation-filters="sRGB">
<feFlood flood-opacity="0" result="BackgroundImageFix"/>
<feColorMatrix in="SourceAlpha" type="matrix" values="0 0 0 0 0 0 0 0 0 0 0 0 0 0 0 0 0 0 127 0" result="hardAlpha"/>
<feOffset dx="2" dy="4"/>
<feGaussianBlur stdDeviation="2.5"/>
<feComposite in2="hardAlpha" operator="out"/>
<feColorMatrix type="matrix" values="0 0 0 0 0 0 0 0 0 0 0 0 0 0 0 0 0 0 0.25 0"/>
<feBlend mode="normal" in2="BackgroundImageFix" result="effect1_dropShadow_2086_33"/>
<feBlend mode="normal" in="SourceGraphic" in2="effect1_dropShadow_2086_33" result="shape"/>
</filter>
<linearGradient id="paint0_linear_2086_33" x1="40.75" y1="17" x2="40.75" y2="68" gradientUnits="userSpaceOnUse">
<stop stop-color="white"/>
<stop offset="1" stop-color="#BFBFBF"/>
</linearGradient>
</defs>
</svg>
