<svg width="84" height="84" viewBox="0 0 84 84" fill="none" xmlns="http://www.w3.org/2000/svg">
<g clip-path="url(#clip0_1326_1015)">
<path d="M81.8348 14.9985C80.8041 20.9217 75.2241 24.8769 69.3763 23.8329C65.3028 23.1061 62.1786 20.1435 61 16.4134C61.6771 16.6878 62.3928 16.8979 63.1407 17.0329C68.9906 18.0769 74.5684 14.1217 75.5991 8.19857C75.912 6.39783 75.7641 4.6271 75.2499 3C79.8762 4.87577 82.7348 9.8321 81.8348 14.9985Z" fill="url(#paint0_linear_1326_1015)"/>
<g filter="url(#filter0_d_1326_1015)">
<path d="M62 50.2085C61.7867 51.9178 61.4898 53.5629 60.9753 55.1438C60.2225 57.4558 59.1016 59.4319 57.2405 60.7064C56.0862 61.4969 54.8315 61.8526 53.5057 61.9612C51.8955 62.0946 50.3271 61.897 48.834 61.1609C46.5044 60.0148 45.1326 57.9547 44.7436 54.9906C44.522 53.3011 44.6223 51.6165 44.7353 49.9319C44.7813 49.2205 44.8315 48.514 44.8733 47.8026C44.9528 46.4886 45.0657 45.1745 45.187 43.8604C45.2915 42.7488 45.3668 41.6373 45.4672 40.5257C45.5843 39.2512 45.7181 37.9815 45.8352 36.7119C45.9314 35.6646 46.0151 34.6173 46.1113 33.5699C46.2326 32.2855 46.358 31.001 46.4793 29.7166C46.5211 29.2621 46.5546 28.8076 46.6006 28.3531C46.6131 28.2444 46.5755 28.2148 46.5044 28.2098C46.4291 28.2049 46.3538 28.2049 46.2786 28.2049C43.5433 28.2049 40.808 28.2049 38.0728 28.1999C37.8637 28.1999 37.7131 28.1901 37.7131 28.5359C37.7131 28.9904 37.6462 29.4449 37.6211 29.8994C37.5291 31.421 37.458 32.9425 37.3409 34.4641C37.1861 36.4995 37.0356 38.5348 36.8515 40.5653C36.6717 42.5315 36.4877 44.4976 36.2409 46.454C35.7767 50.1344 35.2121 53.7852 34.1037 57.2878C33.7148 58.5229 33.2296 59.6986 32.3597 60.578C31.5776 61.3684 30.67 61.7883 29.6495 61.9316C28.4576 62.0996 27.3158 61.9267 26.2451 61.2696C25.3125 60.6916 24.6182 59.8666 24.4091 58.5821C24.2376 57.52 24.5136 56.5863 24.9444 55.6823C25.5216 54.462 26.2995 53.4196 27.0523 52.3575C29.8336 48.4202 31.8327 44.0234 32.6817 38.9498C33.008 36.9984 33.3007 35.0471 33.5266 33.0759C33.6939 31.6334 33.8068 30.181 33.9615 28.7384C34.0159 28.2098 34.0159 28.2098 33.5726 28.2098C32.481 28.2098 31.3852 28.1703 30.2978 28.2296C28.65 28.3185 27.0565 28.694 25.7014 29.9191C24.7227 30.7985 23.8988 31.8557 23.1585 33.0068C23.1042 33.0858 23.0331 33.1599 23.0038 33.2538C22.6692 34.3653 21.8829 34.2122 21.1385 34.1924C20.9503 34.1875 20.9963 34.0837 21.0339 33.9454C21.7658 31.3666 22.6859 28.9113 24.1038 26.7475C25.0406 25.3198 26.0904 24.0354 27.4831 23.2103C28.3865 22.6719 29.3693 22.4644 30.3564 22.3211C32.9452 21.9457 35.5467 22.0099 38.1439 22.0099C45.9272 22.0099 53.7106 22.0099 61.4981 22C61.7992 22 61.8954 22.0642 61.8913 22.4496C61.8703 24.2478 61.8745 26.051 61.8913 27.8492C61.8954 28.1654 61.8076 28.2197 61.565 28.2148C58.5496 28.2049 55.5341 28.2148 52.5144 28.1999C52.2384 28.1999 52.1589 28.2691 52.1422 28.61C52.0586 30.1908 51.9415 31.7717 51.8369 33.3526C51.7867 34.0887 51.7449 34.8198 51.6989 35.5559C51.5943 37.1516 51.4898 38.7473 51.3852 40.3429C51.3392 41.0148 51.289 41.6867 51.2514 42.3536C51.1343 44.3494 51.0673 46.3502 51.1217 48.351C51.1552 49.5416 51.2765 50.7223 51.4898 51.8931C51.7742 53.4443 52.5437 54.4423 53.7901 54.956C55.1368 55.5093 56.4918 55.534 57.8218 54.9066C59.2229 54.2447 59.9214 52.8762 60.3271 51.2509C60.3689 51.0829 60.4358 50.91 60.4358 50.7371C60.4358 50.2629 60.6366 50.1542 61.0046 50.1986C61.3225 50.2431 61.6487 50.2085 62 50.2085Z" fill="url(#paint1_linear_1326_1015)"/>
</g>
<g filter="url(#filter1_d_1326_1015)">
<path d="M17.2497 10.1628C17.1812 10.2584 16.9765 10.8322 16.826 11.4324C15.9787 14.5319 14.7084 15.8022 11.5524 16.7581C9.57101 17.3591 9.50325 17.7141 11.2521 18.1781C12.7827 18.588 14.2035 19.298 14.968 20.0351C15.7198 20.7722 16.4708 22.2606 16.8945 23.8588C17.1135 24.7328 17.2361 24.9652 17.4544 24.9923C17.8231 25.0472 17.9601 24.8283 18.2332 23.7362C18.5613 22.3982 19.2717 20.9233 19.9407 20.1998C20.6511 19.4349 21.9898 18.7249 23.5746 18.2608C24.9134 17.8787 25.0639 17.7967 24.9818 17.4275C24.9547 17.25 24.6131 17.086 23.6702 16.813C20.4735 15.8842 19.1754 14.601 18.2596 11.4738C18.082 10.8044 17.8773 10.2177 17.836 10.1357C17.714 9.94399 17.4273 9.95753 17.2497 10.1628Z" fill="url(#paint2_linear_1326_1015)"/>
</g>
<g filter="url(#filter2_d_1326_1015)">
<path d="M64.8331 36.1086C64.7875 36.1722 64.651 36.5548 64.5507 36.9549C63.9858 39.0213 63.139 39.8681 61.0349 40.5054C59.714 40.906 59.6688 41.1427 60.8347 41.4521C61.8551 41.7253 62.8023 42.1987 63.312 42.6901C63.8132 43.1815 64.3139 44.1737 64.5963 45.2392C64.7423 45.8219 64.8241 45.9768 64.9696 45.9948C65.2154 46.0314 65.3067 45.8855 65.4888 45.1575C65.7075 44.2655 66.1811 43.2822 66.6271 42.7998C67.1007 42.2899 67.9932 41.8166 69.0498 41.5072C69.9422 41.2525 70.0426 41.1978 69.9879 40.9517C69.9698 40.8333 69.7421 40.724 69.1135 40.542C66.9823 39.9228 66.1169 39.0674 65.5064 36.9825C65.388 36.5363 65.2515 36.1451 65.224 36.0905C65.1427 35.9627 64.9515 35.9717 64.8331 36.1086Z" fill="url(#paint3_linear_1326_1015)"/>
</g>
<g filter="url(#filter3_d_1326_1015)">
<path d="M16.8331 44.1086C16.7875 44.1722 16.651 44.5548 16.5507 44.9549C15.9858 47.0213 15.139 47.8681 13.0349 48.5054C11.714 48.906 11.6688 49.1427 12.8347 49.4521C13.8551 49.7253 14.8023 50.1987 15.312 50.6901C15.8132 51.1815 16.3139 52.1737 16.5963 53.2392C16.7423 53.8219 16.8241 53.9768 16.9696 53.9948C17.2154 54.0314 17.3067 53.8855 17.4888 53.1575C17.7075 52.2655 18.1811 51.2822 18.6271 50.7998C19.1007 50.2899 19.9932 49.8166 21.0498 49.5072C21.9422 49.2525 22.0426 49.1978 21.9879 48.9517C21.9698 48.8333 21.7421 48.724 21.1135 48.542C18.9823 47.9228 18.1169 47.0674 17.5064 44.9825C17.388 44.5363 17.2515 44.1451 17.224 44.0905C17.1427 43.9627 16.9515 43.9717 16.8331 44.1086Z" fill="url(#paint4_linear_1326_1015)"/>
</g>
<g filter="url(#filter4_d_1326_1015)">
<path d="M60.8331 67.1086C60.7875 67.1722 60.651 67.5548 60.5507 67.9549C59.9858 70.0213 59.139 70.8681 57.0349 71.5054C55.714 71.906 55.6688 72.1427 56.8347 72.4521C57.8551 72.7253 58.8023 73.1987 59.312 73.6901C59.8132 74.1815 60.3139 75.1737 60.5963 76.2392C60.7423 76.8219 60.8241 76.9768 60.9696 76.9948C61.2154 77.0314 61.3067 76.8855 61.4888 76.1575C61.7075 75.2655 62.1811 74.2822 62.6271 73.7998C63.1007 73.2899 63.9932 72.8166 65.0498 72.5072C65.9422 72.2525 66.0426 72.1978 65.9879 71.9517C65.9698 71.8333 65.7421 71.724 65.1135 71.542C62.9823 70.9228 62.1169 70.0674 61.5064 67.9825C61.388 67.5363 61.2515 67.1451 61.224 67.0905C61.1427 66.9627 60.9515 66.9717 60.8331 67.1086Z" fill="url(#paint5_linear_1326_1015)"/>
</g>
<g filter="url(#filter5_d_1326_1015)">
<path d="M39.8331 60.1086C39.7875 60.1722 39.651 60.5548 39.5507 60.9549C38.9858 63.0213 38.139 63.8681 36.0349 64.5054C34.714 64.906 34.6688 65.1427 35.8347 65.4521C36.8551 65.7253 37.8023 66.1987 38.312 66.6901C38.8132 67.1815 39.3139 68.1737 39.5963 69.2392C39.7423 69.8219 39.8241 69.9768 39.9696 69.9948C40.2154 70.0314 40.3067 69.8855 40.4888 69.1575C40.7075 68.2655 41.1811 67.2822 41.6271 66.7998C42.1007 66.2899 42.9932 65.8166 44.0498 65.5072C44.9422 65.2525 45.0426 65.1978 44.9879 64.9517C44.9698 64.8333 44.7421 64.724 44.1135 64.542C41.9823 63.9228 41.1169 63.0674 40.5064 60.9825C40.388 60.5363 40.2515 60.1451 40.224 60.0905C40.1427 59.9627 39.9515 59.9717 39.8331 60.1086Z" fill="url(#paint6_linear_1326_1015)"/>
</g>
<g filter="url(#filter6_d_1326_1015)">
<path d="M47.8331 7.10855C47.7875 7.17223 47.651 7.5548 47.5507 7.95495C46.9858 10.0213 46.139 10.8681 44.0349 11.5054C42.714 11.906 42.6688 12.1427 43.8347 12.4521C44.8551 12.7253 45.8023 13.1987 46.312 13.6901C46.8132 14.1815 47.3139 15.1737 47.5963 16.2392C47.7423 16.8219 47.8241 16.9768 47.9696 16.9948C48.2154 17.0314 48.3067 16.8855 48.4888 16.1575C48.7075 15.2655 49.1811 14.2822 49.6271 13.7998C50.1007 13.2899 50.9932 12.8166 52.0498 12.5072C52.9422 12.2525 53.0426 12.1978 52.9879 11.9517C52.9698 11.8333 52.7421 11.724 52.1135 11.542C49.9823 10.9228 49.1169 10.0674 48.5064 7.98251C48.388 7.53627 48.2515 7.14515 48.224 7.0905C48.1427 6.96266 47.9515 6.97169 47.8331 7.10855Z" fill="url(#paint7_linear_1326_1015)"/>
</g>
</g>
<defs>
<filter id="filter0_d_1326_1015" x="17" y="22" width="49" height="48" filterUnits="userSpaceOnUse" color-interpolation-filters="sRGB">
<feFlood flood-opacity="0" result="BackgroundImageFix"/>
<feColorMatrix in="SourceAlpha" type="matrix" values="0 0 0 0 0 0 0 0 0 0 0 0 0 0 0 0 0 0 127 0" result="hardAlpha"/>
<feOffset dy="4"/>
<feGaussianBlur stdDeviation="2"/>
<feComposite in2="hardAlpha" operator="out"/>
<feColorMatrix type="matrix" values="0 0 0 0 0 0 0 0 0 0 0 0 0 0 0 0 0 0 0.25 0"/>
<feBlend mode="normal" in2="BackgroundImageFix" result="effect1_dropShadow_1326_1015"/>
<feBlend mode="normal" in="SourceGraphic" in2="effect1_dropShadow_1326_1015" result="shape"/>
</filter>
<filter id="filter1_d_1326_1015" x="6" y="10" width="23" height="23" filterUnits="userSpaceOnUse" color-interpolation-filters="sRGB">
<feFlood flood-opacity="0" result="BackgroundImageFix"/>
<feColorMatrix in="SourceAlpha" type="matrix" values="0 0 0 0 0 0 0 0 0 0 0 0 0 0 0 0 0 0 127 0" result="hardAlpha"/>
<feOffset dy="4"/>
<feGaussianBlur stdDeviation="2"/>
<feComposite in2="hardAlpha" operator="out"/>
<feColorMatrix type="matrix" values="0 0 0 0 0 0 0 0 0 0 0 0 0 0 0 0 0 0 0.25 0"/>
<feBlend mode="normal" in2="BackgroundImageFix" result="effect1_dropShadow_1326_1015"/>
<feBlend mode="normal" in="SourceGraphic" in2="effect1_dropShadow_1326_1015" result="shape"/>
</filter>
<filter id="filter2_d_1326_1015" x="56" y="36" width="18" height="18" filterUnits="userSpaceOnUse" color-interpolation-filters="sRGB">
<feFlood flood-opacity="0" result="BackgroundImageFix"/>
<feColorMatrix in="SourceAlpha" type="matrix" values="0 0 0 0 0 0 0 0 0 0 0 0 0 0 0 0 0 0 127 0" result="hardAlpha"/>
<feOffset dy="4"/>
<feGaussianBlur stdDeviation="2"/>
<feComposite in2="hardAlpha" operator="out"/>
<feColorMatrix type="matrix" values="0 0 0 0 0 0 0 0 0 0 0 0 0 0 0 0 0 0 0.25 0"/>
<feBlend mode="normal" in2="BackgroundImageFix" result="effect1_dropShadow_1326_1015"/>
<feBlend mode="normal" in="SourceGraphic" in2="effect1_dropShadow_1326_1015" result="shape"/>
</filter>
<filter id="filter3_d_1326_1015" x="8" y="44" width="18" height="18" filterUnits="userSpaceOnUse" color-interpolation-filters="sRGB">
<feFlood flood-opacity="0" result="BackgroundImageFix"/>
<feColorMatrix in="SourceAlpha" type="matrix" values="0 0 0 0 0 0 0 0 0 0 0 0 0 0 0 0 0 0 127 0" result="hardAlpha"/>
<feOffset dy="4"/>
<feGaussianBlur stdDeviation="2"/>
<feComposite in2="hardAlpha" operator="out"/>
<feColorMatrix type="matrix" values="0 0 0 0 0 0 0 0 0 0 0 0 0 0 0 0 0 0 0.25 0"/>
<feBlend mode="normal" in2="BackgroundImageFix" result="effect1_dropShadow_1326_1015"/>
<feBlend mode="normal" in="SourceGraphic" in2="effect1_dropShadow_1326_1015" result="shape"/>
</filter>
<filter id="filter4_d_1326_1015" x="52" y="67" width="18" height="18" filterUnits="userSpaceOnUse" color-interpolation-filters="sRGB">
<feFlood flood-opacity="0" result="BackgroundImageFix"/>
<feColorMatrix in="SourceAlpha" type="matrix" values="0 0 0 0 0 0 0 0 0 0 0 0 0 0 0 0 0 0 127 0" result="hardAlpha"/>
<feOffset dy="4"/>
<feGaussianBlur stdDeviation="2"/>
<feComposite in2="hardAlpha" operator="out"/>
<feColorMatrix type="matrix" values="0 0 0 0 0 0 0 0 0 0 0 0 0 0 0 0 0 0 0.25 0"/>
<feBlend mode="normal" in2="BackgroundImageFix" result="effect1_dropShadow_1326_1015"/>
<feBlend mode="normal" in="SourceGraphic" in2="effect1_dropShadow_1326_1015" result="shape"/>
</filter>
<filter id="filter5_d_1326_1015" x="31" y="60" width="18" height="18" filterUnits="userSpaceOnUse" color-interpolation-filters="sRGB">
<feFlood flood-opacity="0" result="BackgroundImageFix"/>
<feColorMatrix in="SourceAlpha" type="matrix" values="0 0 0 0 0 0 0 0 0 0 0 0 0 0 0 0 0 0 127 0" result="hardAlpha"/>
<feOffset dy="4"/>
<feGaussianBlur stdDeviation="2"/>
<feComposite in2="hardAlpha" operator="out"/>
<feColorMatrix type="matrix" values="0 0 0 0 0 0 0 0 0 0 0 0 0 0 0 0 0 0 0.25 0"/>
<feBlend mode="normal" in2="BackgroundImageFix" result="effect1_dropShadow_1326_1015"/>
<feBlend mode="normal" in="SourceGraphic" in2="effect1_dropShadow_1326_1015" result="shape"/>
</filter>
<filter id="filter6_d_1326_1015" x="39" y="7" width="18" height="18" filterUnits="userSpaceOnUse" color-interpolation-filters="sRGB">
<feFlood flood-opacity="0" result="BackgroundImageFix"/>
<feColorMatrix in="SourceAlpha" type="matrix" values="0 0 0 0 0 0 0 0 0 0 0 0 0 0 0 0 0 0 127 0" result="hardAlpha"/>
<feOffset dy="4"/>
<feGaussianBlur stdDeviation="2"/>
<feComposite in2="hardAlpha" operator="out"/>
<feColorMatrix type="matrix" values="0 0 0 0 0 0 0 0 0 0 0 0 0 0 0 0 0 0 0.25 0"/>
<feBlend mode="normal" in2="BackgroundImageFix" result="effect1_dropShadow_1326_1015"/>
<feBlend mode="normal" in="SourceGraphic" in2="effect1_dropShadow_1326_1015" result="shape"/>
</filter>
<linearGradient id="paint0_linear_1326_1015" x1="71.5" y1="3" x2="71.5" y2="24" gradientUnits="userSpaceOnUse">
<stop stop-color="#FBB03B"/>
<stop offset="1" stop-color="#F78140"/>
</linearGradient>
<linearGradient id="paint1_linear_1326_1015" x1="41.5" y1="22" x2="41.5" y2="62" gradientUnits="userSpaceOnUse">
<stop stop-color="#FBB03B"/>
<stop offset="1" stop-color="#F78140"/>
</linearGradient>
<linearGradient id="paint2_linear_1326_1015" x1="17.5" y1="25" x2="17.5" y2="10" gradientUnits="userSpaceOnUse">
<stop stop-color="#F78140"/>
<stop offset="1" stop-color="#FBB03B"/>
</linearGradient>
<linearGradient id="paint3_linear_1326_1015" x1="65" y1="46" x2="65" y2="36" gradientUnits="userSpaceOnUse">
<stop stop-color="#F78140"/>
<stop offset="1" stop-color="#FBB03B"/>
</linearGradient>
<linearGradient id="paint4_linear_1326_1015" x1="17" y1="54" x2="17" y2="44" gradientUnits="userSpaceOnUse">
<stop stop-color="#F78140"/>
<stop offset="1" stop-color="#FBB03B"/>
</linearGradient>
<linearGradient id="paint5_linear_1326_1015" x1="61" y1="77" x2="61" y2="67" gradientUnits="userSpaceOnUse">
<stop stop-color="#F78140"/>
<stop offset="1" stop-color="#FBB03B"/>
</linearGradient>
<linearGradient id="paint6_linear_1326_1015" x1="40" y1="70" x2="40" y2="60" gradientUnits="userSpaceOnUse">
<stop stop-color="#F78140"/>
<stop offset="1" stop-color="#FBB03B"/>
</linearGradient>
<linearGradient id="paint7_linear_1326_1015" x1="48" y1="17" x2="48" y2="7" gradientUnits="userSpaceOnUse">
<stop stop-color="#F78140"/>
<stop offset="1" stop-color="#FBB03B"/>
</linearGradient>
<clipPath id="clip0_1326_1015">
<rect width="83.75" height="83.75" fill="white"/>
</clipPath>
</defs>
</svg>
