<svg width="84" height="84" viewBox="0 0 84 84" fill="none" xmlns="http://www.w3.org/2000/svg">
<g clip-path="url(#clip0_1328_1067)">
<g filter="url(#filter0_d_1328_1067)">
<path d="M71.5 24C77.2991 24 82 19.2991 82 13.5C82 7.70095 77.2991 3 71.5 3C65.7009 3 61 7.70095 61 13.5C61 19.2991 65.7009 24 71.5 24ZM65.183 17.792C64.3505 16.5689 63.8636 15.0912 63.8636 13.5C63.8636 9.28263 67.2826 5.86364 71.5 5.86364C73.0912 5.86364 74.5689 6.35045 75.792 7.18301L65.183 17.792ZM67.208 19.817L77.817 9.20798C78.6495 10.4311 79.1364 11.9088 79.1364 13.5C79.1364 17.7174 75.7174 21.1364 71.5 21.1364C69.9088 21.1364 68.4311 20.6495 67.208 19.817Z" fill="url(#paint0_linear_1328_1067)"/>
</g>
<g filter="url(#filter1_d_1328_1067)">
<path d="M38.9306 17.1626C31.6541 18.0421 25.0404 22.1794 20.9679 28.391C20.1858 29.5853 18.948 32.0504 18.47 33.3865C17.9919 34.7006 17.4276 36.9264 17.1996 38.3819C16.9281 40.1292 16.9389 43.9298 17.1996 45.6567C18.4919 53.888 23.5419 60.8159 30.9052 64.4431C33.2398 65.594 35.3796 66.2781 38.0837 66.7454C39.9623 67.0602 43.7311 67.0928 45.6204 66.7888C55.6663 65.2144 63.6699 58.0473 66.1898 48.3717C66.7 46.428 66.9066 44.9838 66.9826 42.8768C67.276 34.9169 63.8439 27.4789 57.5127 22.3641C54.8413 20.2031 50.7903 18.292 47.326 17.5426C44.8281 16.9993 41.4832 16.8473 38.9306 17.1626ZM44.2633 20.4638C52.3541 21.3759 59.2066 26.5994 62.1826 34.1461C63.1816 36.6872 63.5944 39.0216 63.5837 42.0734C63.5837 44.4624 63.4536 45.5373 62.9209 47.557C61.5959 52.6499 58.2944 57.1999 53.7878 60.1644C49.824 62.7815 44.676 64.0411 39.9628 63.5743C34.6847 63.0422 30.1235 60.8378 26.4526 57.0479C24.0307 54.5502 22.521 52.0744 21.446 48.8599C19.9363 44.3099 19.9363 39.7164 21.4679 35.123C24.1067 27.185 31.1985 21.4407 39.5393 20.474C40.7011 20.3439 43.1118 20.3332 44.2633 20.4638Z" fill="url(#paint1_linear_1328_1067)"/>
<path d="M28.8954 28.1413C28.5806 28.2606 28.1459 28.7494 28.0811 29.0534C28.0378 29.2488 28.0918 29.5314 28.2224 29.8243C28.5158 30.4864 37.2581 46.4496 37.4102 46.5904C37.5729 46.7644 53.8091 55.636 54.3086 55.8314C54.6561 55.9727 54.754 55.9727 55.1015 55.8206C55.601 55.6145 55.9703 55.0605 55.8943 54.6151C55.8617 54.333 47.4775 38.8586 46.7612 37.7291C46.5551 37.4031 45.3382 36.6975 38.1163 32.7556C33.5005 30.2252 29.5694 28.1295 29.3847 28.1081C29.2102 28.0867 28.9821 28.0979 28.8954 28.1413ZM42.9592 39.8906C44.4255 40.5528 44.7729 42.497 43.6326 43.6372C42.8831 44.3754 41.9495 44.5386 40.9933 44.0932C39.2449 43.279 39.2122 40.8466 40.9393 39.9345C41.526 39.6299 42.3403 39.6085 42.9592 39.8906Z" fill="url(#paint2_linear_1328_1067)"/>
</g>
<g filter="url(#filter2_d_1328_1067)">
<path d="M64.2497 65.1628C64.1812 65.2584 63.9765 65.8322 63.826 66.4324C62.9787 69.5319 61.7084 70.8022 58.5524 71.7581C56.571 72.3591 56.5033 72.7141 58.2521 73.1781C59.7827 73.588 61.2035 74.298 61.968 75.0351C62.7198 75.7722 63.4708 77.2606 63.8945 78.8588C64.1135 79.7328 64.2361 79.9652 64.4544 79.9923C64.8231 80.0472 64.9601 79.8283 65.2332 78.7362C65.5613 77.3982 66.2717 75.9233 66.9407 75.1998C67.6511 74.4349 68.9898 73.7249 70.5746 73.2608C71.9134 72.8787 72.0639 72.7967 71.9818 72.4275C71.9547 72.25 71.6131 72.086 70.6702 71.813C67.4735 70.8842 66.1754 69.601 65.2596 66.4738C65.082 65.8044 64.8773 65.2177 64.836 65.1357C64.714 64.944 64.4273 64.9575 64.2497 65.1628Z" fill="url(#paint3_linear_1328_1067)"/>
</g>
<g filter="url(#filter3_d_1328_1067)">
<path d="M46.8331 3.10855C46.7875 3.17223 46.651 3.5548 46.5507 3.95495C45.9858 6.02126 45.139 6.86813 43.0349 7.50542C41.714 7.90604 41.6688 8.14271 42.8347 8.45208C43.8551 8.72534 44.8023 9.19868 45.312 9.69007C45.8132 10.1815 46.3139 11.1737 46.5963 12.2392C46.7423 12.8219 46.8241 12.9768 46.9696 12.9948C47.2154 13.0314 47.3067 12.8855 47.4888 12.1575C47.7075 11.2655 48.1811 10.2822 48.6271 9.79985C49.1007 9.28992 49.9932 8.81659 51.0498 8.50721C51.9422 8.25249 52.0426 8.19783 51.9879 7.95166C51.9698 7.83333 51.7421 7.72403 51.1135 7.54201C48.9823 6.92278 48.1169 6.06736 47.5064 3.98251C47.388 3.53627 47.2515 3.14515 47.224 3.0905C47.1427 2.96266 46.9515 2.97169 46.8331 3.10855Z" fill="url(#paint4_linear_1328_1067)"/>
</g>
<g filter="url(#filter4_d_1328_1067)">
<path d="M13.8331 65.1086C13.7875 65.1722 13.651 65.5548 13.5507 65.9549C12.9858 68.0213 12.139 68.8681 10.0349 69.5054C8.71401 69.906 8.66883 70.1427 9.83473 70.4521C10.8551 70.7253 11.8023 71.1987 12.312 71.6901C12.8132 72.1815 13.3139 73.1737 13.5963 74.2392C13.7423 74.8219 13.8241 74.9768 13.9696 74.9948C14.2154 75.0314 14.3067 74.8855 14.4888 74.1575C14.7075 73.2655 15.1811 72.2822 15.6271 71.7998C16.1007 71.2899 16.9932 70.8166 18.0498 70.5072C18.9422 70.2525 19.0426 70.1978 18.9879 69.9517C18.9698 69.8333 18.7421 69.724 18.1135 69.542C15.9823 68.9228 15.1169 68.0674 14.5064 65.9825C14.388 65.5363 14.2515 65.1451 14.224 65.0905C14.1427 64.9627 13.9515 64.9717 13.8331 65.1086Z" fill="url(#paint5_linear_1328_1067)"/>
</g>
<g filter="url(#filter5_d_1328_1067)">
<path d="M13.8331 17.1086C13.7875 17.1722 13.651 17.5548 13.5507 17.9549C12.9858 20.0213 12.139 20.8681 10.0349 21.5054C8.71401 21.906 8.66883 22.1427 9.83473 22.4521C10.8551 22.7253 11.8023 23.1987 12.312 23.6901C12.8132 24.1815 13.3139 25.1737 13.5963 26.2392C13.7423 26.8219 13.8241 26.9768 13.9696 26.9948C14.2154 27.0314 14.3067 26.8855 14.4888 26.1575C14.7075 25.2655 15.1811 24.2822 15.6271 23.7998C16.1007 23.2899 16.9932 22.8166 18.0498 22.5072C18.9422 22.2525 19.0426 22.1978 18.9879 21.9517C18.9698 21.8333 18.7421 21.724 18.1135 21.542C15.9823 20.9228 15.1169 20.0674 14.5064 17.9825C14.388 17.5363 14.2515 17.1451 14.224 17.0905C14.1427 16.9627 13.9515 16.9717 13.8331 17.1086Z" fill="url(#paint6_linear_1328_1067)"/>
</g>
<g filter="url(#filter6_d_1328_1067)">
<path d="M69.8331 57.1086C69.7875 57.1722 69.651 57.5548 69.5507 57.9549C68.9858 60.0213 68.139 60.8681 66.0349 61.5054C64.714 61.906 64.6688 62.1427 65.8347 62.4521C66.8551 62.7253 67.8023 63.1987 68.312 63.6901C68.8132 64.1815 69.3139 65.1737 69.5963 66.2392C69.7423 66.8219 69.8241 66.9768 69.9696 66.9948C70.2154 67.0314 70.3067 66.8855 70.4888 66.1575C70.7075 65.2655 71.1811 64.2822 71.6271 63.7998C72.1007 63.2899 72.9932 62.8166 74.0498 62.5072C74.9422 62.2525 75.0426 62.1978 74.9879 61.9517C74.9698 61.8333 74.7421 61.724 74.1135 61.542C71.9823 60.9228 71.1169 60.0674 70.5064 57.9825C70.388 57.5363 70.2515 57.1451 70.224 57.0905C70.1427 56.9627 69.9515 56.9717 69.8331 57.1086Z" fill="url(#paint7_linear_1328_1067)"/>
</g>
</g>
<defs>
<filter id="filter0_d_1328_1067" x="57" y="3" width="29" height="29" filterUnits="userSpaceOnUse" color-interpolation-filters="sRGB">
<feFlood flood-opacity="0" result="BackgroundImageFix"/>
<feColorMatrix in="SourceAlpha" type="matrix" values="0 0 0 0 0 0 0 0 0 0 0 0 0 0 0 0 0 0 127 0" result="hardAlpha"/>
<feOffset dy="4"/>
<feGaussianBlur stdDeviation="2"/>
<feComposite in2="hardAlpha" operator="out"/>
<feColorMatrix type="matrix" values="0 0 0 0 0 0 0 0 0 0 0 0 0 0 0 0 0 0 0.25 0"/>
<feBlend mode="normal" in2="BackgroundImageFix" result="effect1_dropShadow_1328_1067"/>
<feBlend mode="normal" in="SourceGraphic" in2="effect1_dropShadow_1328_1067" result="shape"/>
</filter>
<filter id="filter1_d_1328_1067" x="13" y="17" width="58" height="58" filterUnits="userSpaceOnUse" color-interpolation-filters="sRGB">
<feFlood flood-opacity="0" result="BackgroundImageFix"/>
<feColorMatrix in="SourceAlpha" type="matrix" values="0 0 0 0 0 0 0 0 0 0 0 0 0 0 0 0 0 0 127 0" result="hardAlpha"/>
<feOffset dy="4"/>
<feGaussianBlur stdDeviation="2"/>
<feComposite in2="hardAlpha" operator="out"/>
<feColorMatrix type="matrix" values="0 0 0 0 0 0 0 0 0 0 0 0 0 0 0 0 0 0 0.25 0"/>
<feBlend mode="normal" in2="BackgroundImageFix" result="effect1_dropShadow_1328_1067"/>
<feBlend mode="normal" in="SourceGraphic" in2="effect1_dropShadow_1328_1067" result="shape"/>
</filter>
<filter id="filter2_d_1328_1067" x="53" y="65" width="23" height="23" filterUnits="userSpaceOnUse" color-interpolation-filters="sRGB">
<feFlood flood-opacity="0" result="BackgroundImageFix"/>
<feColorMatrix in="SourceAlpha" type="matrix" values="0 0 0 0 0 0 0 0 0 0 0 0 0 0 0 0 0 0 127 0" result="hardAlpha"/>
<feOffset dy="4"/>
<feGaussianBlur stdDeviation="2"/>
<feComposite in2="hardAlpha" operator="out"/>
<feColorMatrix type="matrix" values="0 0 0 0 0 0 0 0 0 0 0 0 0 0 0 0 0 0 0.25 0"/>
<feBlend mode="normal" in2="BackgroundImageFix" result="effect1_dropShadow_1328_1067"/>
<feBlend mode="normal" in="SourceGraphic" in2="effect1_dropShadow_1328_1067" result="shape"/>
</filter>
<filter id="filter3_d_1328_1067" x="38" y="3" width="18" height="18" filterUnits="userSpaceOnUse" color-interpolation-filters="sRGB">
<feFlood flood-opacity="0" result="BackgroundImageFix"/>
<feColorMatrix in="SourceAlpha" type="matrix" values="0 0 0 0 0 0 0 0 0 0 0 0 0 0 0 0 0 0 127 0" result="hardAlpha"/>
<feOffset dy="4"/>
<feGaussianBlur stdDeviation="2"/>
<feComposite in2="hardAlpha" operator="out"/>
<feColorMatrix type="matrix" values="0 0 0 0 0 0 0 0 0 0 0 0 0 0 0 0 0 0 0.25 0"/>
<feBlend mode="normal" in2="BackgroundImageFix" result="effect1_dropShadow_1328_1067"/>
<feBlend mode="normal" in="SourceGraphic" in2="effect1_dropShadow_1328_1067" result="shape"/>
</filter>
<filter id="filter4_d_1328_1067" x="5" y="65" width="18" height="18" filterUnits="userSpaceOnUse" color-interpolation-filters="sRGB">
<feFlood flood-opacity="0" result="BackgroundImageFix"/>
<feColorMatrix in="SourceAlpha" type="matrix" values="0 0 0 0 0 0 0 0 0 0 0 0 0 0 0 0 0 0 127 0" result="hardAlpha"/>
<feOffset dy="4"/>
<feGaussianBlur stdDeviation="2"/>
<feComposite in2="hardAlpha" operator="out"/>
<feColorMatrix type="matrix" values="0 0 0 0 0 0 0 0 0 0 0 0 0 0 0 0 0 0 0.25 0"/>
<feBlend mode="normal" in2="BackgroundImageFix" result="effect1_dropShadow_1328_1067"/>
<feBlend mode="normal" in="SourceGraphic" in2="effect1_dropShadow_1328_1067" result="shape"/>
</filter>
<filter id="filter5_d_1328_1067" x="5" y="17" width="18" height="18" filterUnits="userSpaceOnUse" color-interpolation-filters="sRGB">
<feFlood flood-opacity="0" result="BackgroundImageFix"/>
<feColorMatrix in="SourceAlpha" type="matrix" values="0 0 0 0 0 0 0 0 0 0 0 0 0 0 0 0 0 0 127 0" result="hardAlpha"/>
<feOffset dy="4"/>
<feGaussianBlur stdDeviation="2"/>
<feComposite in2="hardAlpha" operator="out"/>
<feColorMatrix type="matrix" values="0 0 0 0 0 0 0 0 0 0 0 0 0 0 0 0 0 0 0.25 0"/>
<feBlend mode="normal" in2="BackgroundImageFix" result="effect1_dropShadow_1328_1067"/>
<feBlend mode="normal" in="SourceGraphic" in2="effect1_dropShadow_1328_1067" result="shape"/>
</filter>
<filter id="filter6_d_1328_1067" x="61" y="57" width="18" height="18" filterUnits="userSpaceOnUse" color-interpolation-filters="sRGB">
<feFlood flood-opacity="0" result="BackgroundImageFix"/>
<feColorMatrix in="SourceAlpha" type="matrix" values="0 0 0 0 0 0 0 0 0 0 0 0 0 0 0 0 0 0 127 0" result="hardAlpha"/>
<feOffset dy="4"/>
<feGaussianBlur stdDeviation="2"/>
<feComposite in2="hardAlpha" operator="out"/>
<feColorMatrix type="matrix" values="0 0 0 0 0 0 0 0 0 0 0 0 0 0 0 0 0 0 0.25 0"/>
<feBlend mode="normal" in2="BackgroundImageFix" result="effect1_dropShadow_1328_1067"/>
<feBlend mode="normal" in="SourceGraphic" in2="effect1_dropShadow_1328_1067" result="shape"/>
</filter>
<linearGradient id="paint0_linear_1328_1067" x1="71.5" y1="3" x2="71.5" y2="24" gradientUnits="userSpaceOnUse">
<stop stop-color="#FBB03B"/>
<stop offset="1" stop-color="#F78140"/>
</linearGradient>
<linearGradient id="paint1_linear_1328_1067" x1="42" y1="67" x2="42" y2="17" gradientUnits="userSpaceOnUse">
<stop stop-color="#F78140"/>
<stop offset="1" stop-color="#FBB03B"/>
</linearGradient>
<linearGradient id="paint2_linear_1328_1067" x1="41.9853" y1="55.936" x2="41.9853" y2="28.0975" gradientUnits="userSpaceOnUse">
<stop stop-color="#F78140"/>
<stop offset="1" stop-color="#FBB03B"/>
</linearGradient>
<linearGradient id="paint3_linear_1328_1067" x1="64.5" y1="80" x2="64.5" y2="65" gradientUnits="userSpaceOnUse">
<stop stop-color="#F78140"/>
<stop offset="1" stop-color="#FBB03B"/>
</linearGradient>
<linearGradient id="paint4_linear_1328_1067" x1="47" y1="13" x2="47" y2="3" gradientUnits="userSpaceOnUse">
<stop stop-color="#F78140"/>
<stop offset="1" stop-color="#FBB03B"/>
</linearGradient>
<linearGradient id="paint5_linear_1328_1067" x1="14" y1="75" x2="14" y2="65" gradientUnits="userSpaceOnUse">
<stop stop-color="#F78140"/>
<stop offset="1" stop-color="#FBB03B"/>
</linearGradient>
<linearGradient id="paint6_linear_1328_1067" x1="14" y1="27" x2="14" y2="17" gradientUnits="userSpaceOnUse">
<stop stop-color="#F78140"/>
<stop offset="1" stop-color="#FBB03B"/>
</linearGradient>
<linearGradient id="paint7_linear_1328_1067" x1="70" y1="67" x2="70" y2="57" gradientUnits="userSpaceOnUse">
<stop stop-color="#F78140"/>
<stop offset="1" stop-color="#FBB03B"/>
</linearGradient>
<clipPath id="clip0_1328_1067">
<rect width="83.75" height="83.75" fill="white"/>
</clipPath>
</defs>
</svg>
