<svg width="84" height="84" viewBox="0 0 84 84" fill="none" xmlns="http://www.w3.org/2000/svg">
<path fill-rule="evenodd" clip-rule="evenodd" d="M59.9274 15.2121C60.1468 15.0642 60.4064 14.9903 60.6693 15.001C60.9354 15.0206 61.1878 15.1291 61.3872 15.3096C61.5866 15.4779 61.7243 15.7099 61.7778 15.9679C61.8314 16.2259 61.7978 16.4948 61.6824 16.7309L41.692 57.4116C41.5747 57.6515 41.3805 57.8435 41.1416 57.9558C37.4674 59.5655 33.4938 60.3441 29.4952 60.2379C27.5965 60.2324 25.6998 60.1104 23.8155 59.8725C30.8442 62.3576 38.3729 63.0082 45.7124 61.7647L64.5621 23.4067C64.6537 23.2114 64.7955 23.0449 64.9724 22.9248C65.1493 22.8047 65.3548 22.7356 65.5672 22.7246C65.7788 22.7112 65.9902 22.7532 66.1814 22.8464C66.3237 22.9145 66.4509 23.0113 66.5552 23.1311C66.6595 23.2509 66.7387 23.3911 66.788 23.5432C66.8372 23.6952 66.8555 23.8559 66.8418 24.0154C66.828 24.1748 66.7825 24.3298 66.7079 24.4707L47.5631 63.4541C47.4782 63.6241 47.3553 63.7715 47.2043 63.8844C47.0533 63.9972 46.8783 64.0723 46.6936 64.1038C41.9057 64.9408 37.0198 65.023 32.2073 64.3474C38.4464 66.3987 44.9556 67.4722 51.5117 67.5311L66.7159 36.588C66.8175 36.3755 66.9784 36.1982 67.1784 36.0783C67.3785 35.9584 67.6088 35.9013 67.8406 35.9139C68.0123 35.9167 68.1813 35.9583 68.3352 36.0358C68.4775 36.1038 68.6047 36.2007 68.709 36.3205C68.8133 36.4403 68.8925 36.5805 68.9418 36.7325C68.991 36.8846 69.0093 37.0453 68.9956 37.2047C68.9818 37.3642 68.9362 37.5191 68.8617 37.6601L53.3065 69.3341C53.2062 69.5348 53.0532 69.7034 52.8645 69.821C52.6758 69.9385 52.4588 70.0005 52.2376 70C28.9128 70 14.8095 58.1019 14.4824 57.8177L14.4186 57.769L14.3548 57.704L14.3069 57.6553C14.1258 57.4545 14.0181 57.1961 14.0022 56.924C13.9862 56.6518 14.0628 56.3823 14.2192 56.161L32.0558 20.6373C32.1592 20.4398 32.3132 20.2744 32.5013 20.1586C32.6895 20.0428 32.9048 19.9809 33.1247 19.9795C52.6843 19.9795 59.8556 15.2609 59.9274 15.2121ZM41.2062 30.4222L37.7921 28.7537C37.4466 28.5876 37.1024 28.5146 36.7594 28.5347C36.4388 28.5471 36.1673 28.6108 35.9451 28.7259C35.7379 28.8482 35.5348 29.0002 35.3358 29.182C35.1369 29.3637 35.0082 29.496 34.9496 29.5788C34.8911 29.6616 34.1748 30.7413 32.8008 32.8177C31.4268 34.8941 30.6927 36.0298 30.5984 36.2249C30.5041 36.4199 30.496 36.6472 30.5742 36.9067C30.6597 37.1512 30.8964 37.5423 31.2843 38.0801C31.6873 38.6251 32.0916 38.995 32.4972 39.19C32.9178 39.3921 33.4143 39.4181 33.9867 39.2679C34.3877 39.1277 34.8135 39.166 35.2641 39.3825C35.7148 39.5991 36.0403 39.9405 36.2408 40.4067C36.4635 40.865 36.4515 41.3493 36.2049 41.8595C35.9655 42.3547 35.6117 42.6654 35.1434 42.7917C34.6901 42.9252 34.1254 42.8295 33.4495 42.5046C32.7885 42.1869 32.399 41.8056 32.2809 41.3605C31.9272 40.5988 31.54 40.1168 31.1194 39.9147C30.6988 39.7125 30.1435 39.7508 29.4534 40.0294C28.622 40.3324 28.1083 40.6866 27.9125 41.0917C27.7166 41.4968 27.7844 42.0842 28.1159 42.8537L28.22 43.0979C28.2821 43.2757 28.401 43.5085 28.5766 43.7963C29.3623 45.043 30.4537 46.002 31.8507 46.6735C33.458 47.4459 35.0709 47.5369 36.6892 46.9463C38.3149 46.3407 39.5012 45.2651 40.2484 43.7196C41.0028 42.159 41.0666 40.5717 40.44 38.9576C39.8206 37.3286 38.7973 36.1711 37.3703 35.4853C37.0097 35.312 36.7396 35.2007 36.5599 35.1513C37.1443 34.2487 37.495 33.7146 37.6121 33.5489L41.5554 35.444C41.8858 35.6029 42.1298 35.7109 42.2873 35.7681C42.467 35.8175 42.6911 35.8327 42.9594 35.8137C43.4293 35.7991 43.8818 35.3417 44.317 34.4414C44.7958 33.451 44.8831 32.7533 44.5791 32.3483C44.4118 32.12 44.2491 31.9586 44.0912 31.8642C43.9404 31.7548 43.6848 31.6134 43.3243 31.4402L41.2062 30.4222Z" fill="url(#paint0_linear_672_233)"/>
<defs>
<linearGradient id="paint0_linear_672_233" x1="41.5" y1="15" x2="41.5" y2="70" gradientUnits="userSpaceOnUse">
<stop stop-color="white"/>
<stop offset="1" stop-color="#BFBFBF"/>
</linearGradient>
</defs>
</svg>
