<svg width="84" height="84" viewBox="0 0 84 84" fill="none" xmlns="http://www.w3.org/2000/svg">
<g clip-path="url(#clip0_1325_978)">
<g filter="url(#filter0_d_1325_978)">
<path d="M70.9989 17.8605C73.6832 17.8605 75.8592 15.6845 75.8592 13.0003C75.8592 10.3161 73.6832 8.14014 70.9989 8.14014C68.3147 8.14014 66.1387 10.3161 66.1387 13.0003C66.1387 15.6845 68.3147 17.8605 70.9989 17.8605Z" fill="url(#paint0_linear_1325_978)"/>
<path d="M71.0007 18.655C67.8825 18.655 65.3457 16.1182 65.3457 13.0001C65.3457 9.88194 67.8825 7.34521 71.0007 7.34521C74.1188 7.34521 76.6556 9.88194 76.6556 13.0001C76.6556 16.1182 74.1188 18.655 71.0007 18.655ZM71.0007 8.9346C68.758 8.9346 66.9351 10.7574 66.9351 13.0001C66.9351 15.2427 68.758 17.0656 71.0007 17.0656C73.2433 17.0656 75.0662 15.2427 75.0662 13.0001C75.0662 10.7574 73.2433 8.9346 71.0007 8.9346Z" fill="url(#paint1_linear_1325_978)"/>
<path d="M70.9998 6.17325C70.5598 6.17325 70.2051 5.81856 70.2051 5.37856V2.79469C70.2051 2.35694 70.5598 2 70.9998 2C71.4375 2 71.7945 2.35469 71.7945 2.79469V5.37856C71.7945 5.81631 71.4375 6.17325 70.9998 6.17325Z" fill="url(#paint2_linear_1325_978)"/>
<path d="M70.9998 23.9999C70.5598 23.9999 70.2051 23.6452 70.2051 23.2052V20.6214C70.2051 20.1836 70.5598 19.8267 70.9998 19.8267C71.4375 19.8267 71.7945 20.1836 71.7945 20.6214V23.2052C71.7945 23.6452 71.4375 23.9999 70.9998 23.9999Z" fill="url(#paint3_linear_1325_978)"/>
<path d="M81.2048 13.7945H78.6209C78.1831 13.7945 77.8262 13.4398 77.8262 12.9998C77.8262 12.5598 78.1831 12.2051 78.6209 12.2051H81.2048C81.6425 12.2051 81.9995 12.5598 81.9995 12.9998C81.9995 13.4375 81.6448 13.7945 81.2048 13.7945Z" fill="url(#paint4_linear_1325_978)"/>
<path d="M63.3786 13.7945H60.7947C60.3569 13.7945 60 13.4375 60 12.9998C60 12.5598 60.3569 12.2051 60.7947 12.2051H63.3786C63.8186 12.2051 64.1733 12.5598 64.1733 12.9998C64.1733 13.4375 63.8164 13.7945 63.3786 13.7945Z" fill="url(#paint5_linear_1325_978)"/>
<path d="M76.3912 8.40466C76.1869 8.40466 75.9849 8.32609 75.83 8.17119C75.5202 7.8614 75.5202 7.35854 75.83 7.0465L77.6574 5.21916C77.9672 4.90937 78.47 4.90937 78.7821 5.21916C79.0919 5.52896 79.0919 6.03181 78.7821 6.34385L76.9525 8.17344C76.7976 8.32834 76.5933 8.40466 76.3912 8.40466Z" fill="url(#paint6_linear_1325_978)"/>
<path d="M63.7828 21.0121C63.5785 21.0121 63.3765 20.9335 63.2216 20.7786C62.9118 20.4688 62.9118 19.966 63.2216 19.6539L65.049 17.8266C65.3588 17.5168 65.8616 17.5168 66.1737 17.8266C66.4835 18.1364 66.4835 18.6392 66.1737 18.9513L64.3463 20.7786C64.1914 20.9335 63.9871 21.0121 63.7828 21.0121Z" fill="url(#paint7_linear_1325_978)"/>
<path d="M78.2157 21.0121C78.0114 21.0121 77.8093 20.9335 77.6544 20.7786L75.8271 18.9513C75.5173 18.6415 75.5173 18.1386 75.8271 17.8266C76.1369 17.5168 76.6397 17.5168 76.9518 17.8266L78.7791 19.6539C79.0889 19.9637 79.0889 20.4666 78.7791 20.7786C78.6242 20.9335 78.42 21.0121 78.2157 21.0121Z" fill="url(#paint8_linear_1325_978)"/>
<path d="M65.6102 8.40466C65.4059 8.40466 65.2039 8.32609 65.049 8.17119L63.2216 6.34385C62.9118 6.03406 62.9118 5.5312 63.2216 5.21916C63.5314 4.90937 64.0343 4.90937 64.3463 5.21916L66.1737 7.0465C66.4835 7.3563 66.4835 7.85915 66.1737 8.17119C66.0188 8.32834 65.8145 8.40466 65.6102 8.40466Z" fill="url(#paint9_linear_1325_978)"/>
</g>
<g filter="url(#filter1_d_1325_978)">
<path d="M31.2251 51.3286C31.2606 51.8421 31.0925 52.349 30.7572 52.7394C30.4219 53.1298 29.9465 53.3723 29.4338 53.4143H26.4792C25.9666 53.3723 25.4911 53.1298 25.1558 52.7394C24.8205 52.349 24.6524 51.8421 24.6879 51.3286V34.4643C24.6524 33.9507 24.8205 33.4438 25.1558 33.0534C25.4911 32.663 25.9666 32.4206 26.4792 32.3786H29.4338C29.9465 32.4206 30.4219 32.663 30.7572 33.0534C31.0925 33.4438 31.2606 33.9507 31.2251 34.4643V51.3286ZM45.2844 34.4643C45.3199 33.9507 45.1518 33.4438 44.8165 33.0534C44.4812 32.663 44.0058 32.4206 43.4931 32.3786H40.5028C39.9902 32.4206 39.5147 32.663 39.1794 33.0534C38.8441 33.4438 38.676 33.9507 38.7115 34.4643V51.3286C38.676 51.8421 38.8441 52.349 39.1794 52.7394C39.5147 53.1298 39.9902 53.3723 40.5028 53.4143H43.4574C43.7144 53.3979 43.9656 53.331 44.1967 53.2172C44.4277 53.1034 44.6341 52.9451 44.8038 52.7513C44.9736 52.5575 45.1034 52.3321 45.1859 52.0879C45.2684 51.8438 45.3018 51.5857 45.2844 51.3286V34.4643ZM59.308 34.4643C59.3435 33.9507 59.1754 33.4438 58.8401 33.0534C58.5048 32.663 58.0294 32.4206 57.5167 32.3786H54.5621C54.0495 32.4206 53.574 32.663 53.2387 33.0534C52.9034 33.4438 52.7353 33.9507 52.7708 34.4643V51.3286C52.7353 51.8421 52.9034 52.349 53.2387 52.7394C53.574 53.1298 54.0495 53.3723 54.5621 53.4143H57.5167C58.0294 53.3723 58.5048 53.1298 58.8401 52.7394C59.1754 52.349 59.3435 51.8421 59.308 51.3286V34.4643ZM64.2609 57.8786C64.3041 57.2668 64.1028 56.6628 63.7014 56.1994C63.2999 55.736 62.7311 55.4511 62.1199 55.4071H21.8546C21.2643 55.4973 20.7257 55.7961 20.3365 56.2495C19.9473 56.7029 19.7334 57.2808 19.7334 57.8786C19.7334 58.4763 19.9473 59.0543 20.3365 59.5077C20.7257 59.9611 21.2643 60.2599 21.8546 60.35H62.0985C62.7071 60.3025 63.2724 60.016 63.6708 59.553C64.0692 59.09 64.2685 58.4881 64.2252 57.8786H64.2609ZM66.9942 64.5286C67.0374 63.9168 66.8362 63.3128 66.4347 62.8494C66.0333 62.386 65.4645 62.1011 64.8532 62.0571H19.1213C18.5309 62.1473 17.9923 62.4461 17.6031 62.8995C17.214 63.3529 17 63.9308 17 64.5286C17 65.1263 17.214 65.7043 17.6031 66.1576C17.9923 66.611 18.5309 66.9099 19.1213 67H64.839C65.4464 66.9507 66.0098 66.6635 66.4067 66.2007C66.8036 65.7379 67.0019 65.1369 66.9586 64.5286H66.9942ZM65.8452 30.1714C65.8452 30.1714 66.6945 30.2 66.6945 29.0214C66.6912 28.6848 66.5894 28.3566 66.4017 28.0773C66.214 27.798 65.9486 27.5799 65.6383 27.45C65.6383 27.45 43.072 17 41.9516 17C40.8311 17 18.2792 27.45 18.2792 27.45C17.9689 27.5799 17.7034 27.798 17.5157 28.0773C17.328 28.3566 17.2262 28.6848 17.2229 29.0214C17.2229 30.2 18.1007 30.1714 18.1007 30.1714H65.8452Z" fill="url(#paint10_linear_1325_978)"/>
</g>
<g filter="url(#filter2_d_1325_978)">
<path d="M14.2497 7.16283C14.1812 7.25835 13.9765 7.8322 13.826 8.43242C12.9787 11.5319 11.7084 12.8022 8.55237 13.7581C6.57101 14.3591 6.50325 14.7141 8.2521 15.1781C9.7827 15.588 11.2035 16.298 11.968 17.0351C12.7198 17.7722 13.4708 19.2606 13.8945 20.8588C14.1135 21.7328 14.2361 21.9652 14.4544 21.9923C14.8231 22.0472 14.9601 21.8283 15.2332 20.7362C15.5613 19.3982 16.2717 17.9233 16.9407 17.1998C17.6511 16.4349 18.9898 15.7249 20.5746 15.2608C21.9134 14.8787 22.0639 14.7967 21.9818 14.4275C21.9547 14.25 21.6131 14.086 20.6702 13.813C17.4735 12.8842 16.1754 11.601 15.2596 8.47377C15.082 7.8044 14.8773 7.21772 14.836 7.13574C14.714 6.94399 14.4273 6.95753 14.2497 7.16283Z" fill="url(#paint11_linear_1325_978)"/>
</g>
<g filter="url(#filter3_d_1325_978)">
<path d="M70.2497 32.1628C70.1812 32.2584 69.9765 32.8322 69.826 33.4324C68.9787 36.5319 67.7084 37.8022 64.5524 38.7581C62.571 39.3591 62.5033 39.7141 64.2521 40.1781C65.7827 40.588 67.2035 41.298 67.968 42.0351C68.7198 42.7722 69.4708 44.2606 69.8945 45.8588C70.1135 46.7328 70.2361 46.9652 70.4544 46.9923C70.8231 47.0472 70.9601 46.8283 71.2332 45.7362C71.5613 44.3982 72.2717 42.9233 72.9407 42.1998C73.6511 41.4349 74.9898 40.7249 76.5746 40.2608C77.9134 39.8787 78.0639 39.7967 77.9818 39.4275C77.9547 39.25 77.6131 39.086 76.6702 38.813C73.4735 37.8842 72.1754 36.601 71.2596 33.4738C71.082 32.8044 70.8773 32.2177 70.836 32.1357C70.714 31.944 70.4273 31.9575 70.2497 32.1628Z" fill="url(#paint12_linear_1325_978)"/>
</g>
<g filter="url(#filter4_d_1325_978)">
<path d="M74.8331 47.1086C74.7875 47.1722 74.651 47.5548 74.5507 47.9549C73.9858 50.0213 73.139 50.8681 71.0349 51.5054C69.714 51.906 69.6688 52.1427 70.8347 52.4521C71.8551 52.7253 72.8023 53.1987 73.312 53.6901C73.8132 54.1815 74.3139 55.1737 74.5963 56.2392C74.7423 56.8219 74.8241 56.9768 74.9696 56.9948C75.2154 57.0314 75.3067 56.8855 75.4888 56.1575C75.7075 55.2655 76.1811 54.2822 76.6271 53.7998C77.1007 53.2899 77.9932 52.8166 79.0498 52.5072C79.9422 52.2525 80.0426 52.1978 79.9879 51.9517C79.9698 51.8333 79.7421 51.724 79.1135 51.542C76.9823 50.9228 76.1169 50.0674 75.5064 47.9825C75.388 47.5363 75.2515 47.1451 75.224 47.0905C75.1427 46.9627 74.9515 46.9717 74.8331 47.1086Z" fill="url(#paint13_linear_1325_978)"/>
</g>
<g filter="url(#filter5_d_1325_978)">
<path d="M11.8331 67.1086C11.7875 67.1722 11.651 67.5548 11.5507 67.9549C10.9858 70.0213 10.139 70.8681 8.03491 71.5054C6.71401 71.906 6.66883 72.1427 7.83473 72.4521C8.85513 72.7253 9.80231 73.1987 10.312 73.6901C10.8132 74.1815 11.3139 75.1737 11.5963 76.2392C11.7423 76.8219 11.8241 76.9768 11.9696 76.9948C12.2154 77.0314 12.3067 76.8855 12.4888 76.1575C12.7075 75.2655 13.1811 74.2822 13.6271 73.7998C14.1007 73.2899 14.9932 72.8166 16.0498 72.5072C16.9422 72.2525 17.0426 72.1978 16.9879 71.9517C16.9698 71.8333 16.7421 71.724 16.1135 71.542C13.9823 70.9228 13.1169 70.0674 12.5064 67.9825C12.388 67.5363 12.2515 67.1451 12.224 67.0905C12.1427 66.9627 11.9515 66.9717 11.8331 67.1086Z" fill="url(#paint14_linear_1325_978)"/>
</g>
</g>
<defs>
<filter id="filter0_d_1325_978" x="56" y="2" width="29.999" height="30" filterUnits="userSpaceOnUse" color-interpolation-filters="sRGB">
<feFlood flood-opacity="0" result="BackgroundImageFix"/>
<feColorMatrix in="SourceAlpha" type="matrix" values="0 0 0 0 0 0 0 0 0 0 0 0 0 0 0 0 0 0 127 0" result="hardAlpha"/>
<feOffset dy="4"/>
<feGaussianBlur stdDeviation="2"/>
<feComposite in2="hardAlpha" operator="out"/>
<feColorMatrix type="matrix" values="0 0 0 0 0 0 0 0 0 0 0 0 0 0 0 0 0 0 0.25 0"/>
<feBlend mode="normal" in2="BackgroundImageFix" result="effect1_dropShadow_1325_978"/>
<feBlend mode="normal" in="SourceGraphic" in2="effect1_dropShadow_1325_978" result="shape"/>
</filter>
<filter id="filter1_d_1325_978" x="13" y="17" width="58" height="58" filterUnits="userSpaceOnUse" color-interpolation-filters="sRGB">
<feFlood flood-opacity="0" result="BackgroundImageFix"/>
<feColorMatrix in="SourceAlpha" type="matrix" values="0 0 0 0 0 0 0 0 0 0 0 0 0 0 0 0 0 0 127 0" result="hardAlpha"/>
<feOffset dy="4"/>
<feGaussianBlur stdDeviation="2"/>
<feComposite in2="hardAlpha" operator="out"/>
<feColorMatrix type="matrix" values="0 0 0 0 0 0 0 0 0 0 0 0 0 0 0 0 0 0 0.25 0"/>
<feBlend mode="normal" in2="BackgroundImageFix" result="effect1_dropShadow_1325_978"/>
<feBlend mode="normal" in="SourceGraphic" in2="effect1_dropShadow_1325_978" result="shape"/>
</filter>
<filter id="filter2_d_1325_978" x="3" y="7" width="23" height="23" filterUnits="userSpaceOnUse" color-interpolation-filters="sRGB">
<feFlood flood-opacity="0" result="BackgroundImageFix"/>
<feColorMatrix in="SourceAlpha" type="matrix" values="0 0 0 0 0 0 0 0 0 0 0 0 0 0 0 0 0 0 127 0" result="hardAlpha"/>
<feOffset dy="4"/>
<feGaussianBlur stdDeviation="2"/>
<feComposite in2="hardAlpha" operator="out"/>
<feColorMatrix type="matrix" values="0 0 0 0 0 0 0 0 0 0 0 0 0 0 0 0 0 0 0.25 0"/>
<feBlend mode="normal" in2="BackgroundImageFix" result="effect1_dropShadow_1325_978"/>
<feBlend mode="normal" in="SourceGraphic" in2="effect1_dropShadow_1325_978" result="shape"/>
</filter>
<filter id="filter3_d_1325_978" x="59" y="32" width="23" height="23" filterUnits="userSpaceOnUse" color-interpolation-filters="sRGB">
<feFlood flood-opacity="0" result="BackgroundImageFix"/>
<feColorMatrix in="SourceAlpha" type="matrix" values="0 0 0 0 0 0 0 0 0 0 0 0 0 0 0 0 0 0 127 0" result="hardAlpha"/>
<feOffset dy="4"/>
<feGaussianBlur stdDeviation="2"/>
<feComposite in2="hardAlpha" operator="out"/>
<feColorMatrix type="matrix" values="0 0 0 0 0 0 0 0 0 0 0 0 0 0 0 0 0 0 0.25 0"/>
<feBlend mode="normal" in2="BackgroundImageFix" result="effect1_dropShadow_1325_978"/>
<feBlend mode="normal" in="SourceGraphic" in2="effect1_dropShadow_1325_978" result="shape"/>
</filter>
<filter id="filter4_d_1325_978" x="66" y="47" width="18" height="18" filterUnits="userSpaceOnUse" color-interpolation-filters="sRGB">
<feFlood flood-opacity="0" result="BackgroundImageFix"/>
<feColorMatrix in="SourceAlpha" type="matrix" values="0 0 0 0 0 0 0 0 0 0 0 0 0 0 0 0 0 0 127 0" result="hardAlpha"/>
<feOffset dy="4"/>
<feGaussianBlur stdDeviation="2"/>
<feComposite in2="hardAlpha" operator="out"/>
<feColorMatrix type="matrix" values="0 0 0 0 0 0 0 0 0 0 0 0 0 0 0 0 0 0 0.25 0"/>
<feBlend mode="normal" in2="BackgroundImageFix" result="effect1_dropShadow_1325_978"/>
<feBlend mode="normal" in="SourceGraphic" in2="effect1_dropShadow_1325_978" result="shape"/>
</filter>
<filter id="filter5_d_1325_978" x="3" y="67" width="18" height="18" filterUnits="userSpaceOnUse" color-interpolation-filters="sRGB">
<feFlood flood-opacity="0" result="BackgroundImageFix"/>
<feColorMatrix in="SourceAlpha" type="matrix" values="0 0 0 0 0 0 0 0 0 0 0 0 0 0 0 0 0 0 127 0" result="hardAlpha"/>
<feOffset dy="4"/>
<feGaussianBlur stdDeviation="2"/>
<feComposite in2="hardAlpha" operator="out"/>
<feColorMatrix type="matrix" values="0 0 0 0 0 0 0 0 0 0 0 0 0 0 0 0 0 0 0.25 0"/>
<feBlend mode="normal" in2="BackgroundImageFix" result="effect1_dropShadow_1325_978"/>
<feBlend mode="normal" in="SourceGraphic" in2="effect1_dropShadow_1325_978" result="shape"/>
</filter>
<linearGradient id="paint0_linear_1325_978" x1="70.9989" y1="8.14014" x2="70.9989" y2="17.8605" gradientUnits="userSpaceOnUse">
<stop stop-color="#FBB03B"/>
<stop offset="1" stop-color="#F78140"/>
</linearGradient>
<linearGradient id="paint1_linear_1325_978" x1="71.0007" y1="7.34521" x2="71.0007" y2="18.655" gradientUnits="userSpaceOnUse">
<stop stop-color="#FBB03B"/>
<stop offset="1" stop-color="#F78140"/>
</linearGradient>
<linearGradient id="paint2_linear_1325_978" x1="70.9998" y1="2" x2="70.9998" y2="6.17325" gradientUnits="userSpaceOnUse">
<stop stop-color="#FBB03B"/>
<stop offset="1" stop-color="#F78140"/>
</linearGradient>
<linearGradient id="paint3_linear_1325_978" x1="70.9998" y1="19.8267" x2="70.9998" y2="23.9999" gradientUnits="userSpaceOnUse">
<stop stop-color="#FBB03B"/>
<stop offset="1" stop-color="#F78140"/>
</linearGradient>
<linearGradient id="paint4_linear_1325_978" x1="79.9128" y1="12.2051" x2="79.9128" y2="13.7945" gradientUnits="userSpaceOnUse">
<stop stop-color="#FBB03B"/>
<stop offset="1" stop-color="#F78140"/>
</linearGradient>
<linearGradient id="paint5_linear_1325_978" x1="62.0867" y1="12.2051" x2="62.0867" y2="13.7945" gradientUnits="userSpaceOnUse">
<stop stop-color="#FBB03B"/>
<stop offset="1" stop-color="#F78140"/>
</linearGradient>
<linearGradient id="paint6_linear_1325_978" x1="77.306" y1="4.98682" x2="77.306" y2="8.40466" gradientUnits="userSpaceOnUse">
<stop stop-color="#FBB03B"/>
<stop offset="1" stop-color="#F78140"/>
</linearGradient>
<linearGradient id="paint7_linear_1325_978" x1="64.6976" y1="17.5942" x2="64.6976" y2="21.0121" gradientUnits="userSpaceOnUse">
<stop stop-color="#FBB03B"/>
<stop offset="1" stop-color="#F78140"/>
</linearGradient>
<linearGradient id="paint8_linear_1325_978" x1="77.3031" y1="17.5942" x2="77.3031" y2="21.0121" gradientUnits="userSpaceOnUse">
<stop stop-color="#FBB03B"/>
<stop offset="1" stop-color="#F78140"/>
</linearGradient>
<linearGradient id="paint9_linear_1325_978" x1="64.6976" y1="4.98682" x2="64.6976" y2="8.40466" gradientUnits="userSpaceOnUse">
<stop stop-color="#FBB03B"/>
<stop offset="1" stop-color="#F78140"/>
</linearGradient>
<linearGradient id="paint10_linear_1325_978" x1="42" y1="17" x2="42" y2="67" gradientUnits="userSpaceOnUse">
<stop stop-color="#FBB03B"/>
<stop offset="1" stop-color="#F78140"/>
</linearGradient>
<linearGradient id="paint11_linear_1325_978" x1="14.5" y1="22" x2="14.5" y2="7" gradientUnits="userSpaceOnUse">
<stop stop-color="#F78140"/>
<stop offset="1" stop-color="#FBB03B"/>
</linearGradient>
<linearGradient id="paint12_linear_1325_978" x1="70.5" y1="47" x2="70.5" y2="32" gradientUnits="userSpaceOnUse">
<stop stop-color="#F78140"/>
<stop offset="1" stop-color="#FBB03B"/>
</linearGradient>
<linearGradient id="paint13_linear_1325_978" x1="75" y1="57" x2="75" y2="47" gradientUnits="userSpaceOnUse">
<stop stop-color="#F78140"/>
<stop offset="1" stop-color="#FBB03B"/>
</linearGradient>
<linearGradient id="paint14_linear_1325_978" x1="12" y1="77" x2="12" y2="67" gradientUnits="userSpaceOnUse">
<stop stop-color="#F78140"/>
<stop offset="1" stop-color="#FBB03B"/>
</linearGradient>
<clipPath id="clip0_1325_978">
<rect width="83.75" height="83.75" fill="white"/>
</clipPath>
</defs>
</svg>
