<svg width="84" height="84" viewBox="0 0 84 84" fill="none" xmlns="http://www.w3.org/2000/svg">
<path d="M17.4331 18.1706C10.3402 27.1242 8.9675 40.3066 14.0392 50.403C15.8697 54.0607 17.395 56.1945 20.1785 58.9374C28.4533 67.0525 40.6555 69.7955 51.7145 65.986C57.4723 64.0047 63.4596 59.5091 66.7772 54.7468C68.6076 52.08 70.8189 47.0884 71.62 43.8125C72.5731 39.888 72.4974 33.6017 71.4293 29.5254C70.4381 25.7153 68.1498 21.0673 65.8623 18.1719L64.1462 16H41.6474H19.1491L17.4331 18.1706ZM64.604 21.409C77.1114 39.8874 63.8029 64.7663 41.381 64.7663C33.6402 64.7663 25.3653 60.88 20.4843 54.9748C12.4758 45.2595 11.6747 32.2296 18.4243 21.8664L20.2929 19.0472H41.6092H62.9637L64.604 21.409Z" fill="url(#paint0_linear_232_44)"/>
<path d="M21.78 22.5146C20.6362 23.6574 18.1572 29.1439 17.6619 31.6201C17.166 34.135 17.0134 37.449 17.3949 38.0207C17.7764 38.6305 18.9583 38.5924 19.4161 37.9826C19.645 37.7539 19.912 36.4206 20.064 35.1253C20.4455 31.7726 21.5511 28.4198 23.1527 25.7531C24.678 23.2001 24.7161 23.1245 23.8775 22.3241C23.1145 21.5237 22.7337 21.5618 21.78 22.5146Z" fill="url(#paint1_linear_232_44)"/>
<path d="M50.6852 28.8771C49.8459 29.7918 49.8847 30.5916 50.7233 31.3532C52.1341 32.6485 53.8502 31.9249 53.8502 30.0961C53.8502 28.2291 51.9053 27.5056 50.6852 28.8771Z" fill="url(#paint2_linear_232_44)"/>
<path d="M57.5492 34.9729C56.7099 35.8876 56.7487 36.6874 57.5873 37.4496C58.9982 38.7449 60.7142 38.0214 60.7142 36.1925C60.7142 34.3249 58.7693 33.6014 57.5492 34.9729Z" fill="url(#paint3_linear_232_44)"/>
<path d="M39.2836 38.6304C38.2924 38.8972 36.5763 39.6588 35.5464 40.3067C33.6778 41.4495 33.5252 41.4876 32.4958 40.9547C31.1994 40.3067 29.2164 40.1924 28.8731 40.8022C28.4153 41.4876 29.0256 43.0503 29.7498 43.0503C30.818 43.0503 32.1143 44.1556 32.1143 45.1078C32.1143 46.0601 31.0468 47.241 30.1694 47.241C28.606 47.241 28.1864 49.2985 29.5972 49.9839C30.3602 50.3263 30.8555 50.2507 32.1143 49.6028L33.7159 48.8405L35.0504 49.7165C37.0335 51.088 40.3129 52.1926 42.3335 52.1926C44.698 52.1545 46.8336 51.1642 48.5496 49.2591C53.4306 43.8495 46.9481 36.4585 39.2836 38.6304ZM44.698 41.7163C46.1088 42.4405 47.3671 44.0788 47.3671 45.1834C47.3671 45.717 46.7949 46.7455 46.1088 47.4696C45.0413 48.6512 44.5454 48.8792 42.8675 49.0698C40.5793 49.2604 38.101 48.4981 36.3087 46.9742C34.7834 45.717 34.8216 44.4974 36.4231 43.2784C39.0165 41.2971 42.563 40.6117 44.698 41.7163Z" fill="url(#paint4_linear_232_44)"/>
<path d="M53.6977 42.1358C52.9348 42.8593 52.8966 44.3458 53.6214 44.9175C54.5745 45.7172 56.2523 45.2599 56.672 44.1171C57.3205 42.2114 55.0704 40.7256 53.6977 42.1358Z" fill="url(#paint5_linear_232_44)"/>
<defs>
<linearGradient id="paint0_linear_232_44" x1="41.6429" y1="67.6772" x2="41.6429" y2="16" gradientUnits="userSpaceOnUse">
<stop stop-color="#BFBFBF"/>
<stop offset="1" stop-color="white"/>
</linearGradient>
<linearGradient id="paint1_linear_232_44" x1="20.8029" y1="38.4595" x2="20.8029" y2="21.7591" gradientUnits="userSpaceOnUse">
<stop stop-color="#BFBFBF"/>
<stop offset="1" stop-color="white"/>
</linearGradient>
<linearGradient id="paint2_linear_232_44" x1="51.9624" y1="32.0105" x2="51.9624" y2="28.1659" gradientUnits="userSpaceOnUse">
<stop stop-color="#BFBFBF"/>
<stop offset="1" stop-color="white"/>
</linearGradient>
<linearGradient id="paint3_linear_232_44" x1="58.8264" y1="38.1069" x2="58.8264" y2="34.2618" gradientUnits="userSpaceOnUse">
<stop stop-color="#BFBFBF"/>
<stop offset="1" stop-color="white"/>
</linearGradient>
<linearGradient id="paint4_linear_232_44" x1="39.478" y1="52.1926" x2="39.478" y2="38.2415" gradientUnits="userSpaceOnUse">
<stop stop-color="#BFBFBF"/>
<stop offset="1" stop-color="white"/>
</linearGradient>
<linearGradient id="paint5_linear_232_44" x1="54.9438" y1="45.3198" x2="54.9438" y2="41.5779" gradientUnits="userSpaceOnUse">
<stop stop-color="#BFBFBF"/>
<stop offset="1" stop-color="white"/>
</linearGradient>
</defs>
</svg>
