<svg width="84" height="84" viewBox="0 0 84 84" fill="none" xmlns="http://www.w3.org/2000/svg">
<g clip-path="url(#clip0_1663_374)">
<g filter="url(#filter0_d_1663_374)">
<path fill-rule="evenodd" clip-rule="evenodd" d="M59.9274 15.2122C60.1468 15.0642 60.4063 14.9903 60.6693 15.001C60.9354 15.0207 61.1878 15.1291 61.3872 15.3096C61.5866 15.478 61.7242 15.7099 61.7778 15.9679C61.8314 16.2259 61.7978 16.4948 61.6824 16.7309L41.692 57.4116C41.5746 57.6515 41.3805 57.8435 41.1415 57.9558C37.4673 59.5655 33.4937 60.3441 29.4951 60.2379C27.5964 60.2324 25.6997 60.1104 23.8155 59.8725C30.8442 62.3576 38.3728 63.0082 45.7124 61.7648L64.5621 23.4068C64.6537 23.2115 64.7955 23.0449 64.9724 22.9249C65.1493 22.8048 65.3548 22.7356 65.5672 22.7246C65.7788 22.7113 65.9902 22.7532 66.1814 22.8464C66.3237 22.9145 66.4509 23.0114 66.5552 23.1312C66.6595 23.251 66.7387 23.3912 66.7879 23.5432C66.8372 23.6952 66.8555 23.8559 66.8418 24.0154C66.828 24.1749 66.7824 24.3298 66.7079 24.4708L47.563 63.4541C47.4782 63.6241 47.3553 63.7715 47.2043 63.8844C47.0533 63.9972 46.8783 64.0723 46.6935 64.1038C41.9056 64.9408 37.0197 65.023 32.2073 64.3474C38.4464 66.3987 44.9556 67.4722 51.5117 67.5311L66.7159 36.588C66.8175 36.3755 66.9784 36.1982 67.1784 36.0783C67.3785 35.9584 67.6088 35.9013 67.8406 35.914C68.0123 35.9167 68.1813 35.9583 68.3352 36.0358C68.4775 36.1039 68.6047 36.2007 68.709 36.3205C68.8133 36.4403 68.8925 36.5805 68.9417 36.7326C68.991 36.8846 69.0093 37.0453 68.9956 37.2048C68.9818 37.3642 68.9362 37.5192 68.8617 37.6601L53.3065 69.3341C53.2062 69.5348 53.0532 69.7034 52.8645 69.821C52.6758 69.9385 52.4588 70.0005 52.2376 70C28.9128 70 14.8094 58.102 14.4824 57.8177L14.4185 57.769L14.3547 57.704L14.3069 57.6553C14.1257 57.4545 14.0181 57.1962 14.0021 56.924C13.9861 56.6518 14.0627 56.3824 14.2191 56.161L32.0557 20.6373C32.1592 20.4398 32.3131 20.2745 32.5013 20.1587C32.6894 20.0429 32.9048 19.981 33.1246 19.9795C52.6843 19.9795 59.8556 15.2609 59.9274 15.2122ZM32.6821 33.1375L35.1004 35.3469H35.099V37.8302H32.8191L30.4935 35.2847C30.1324 34.8876 29.5154 34.8613 29.1169 35.2238C28.7199 35.5849 28.6936 36.2019 29.0561 36.6003L30.1781 37.8302H28.5566C28.0157 37.8302 27.5771 38.2688 27.5771 38.8097C27.5771 39.3507 28.0157 39.7892 28.5566 39.7892H30.0411L28.9703 40.9569C28.6078 41.3539 28.6341 41.9709 29.0312 42.3334C29.4282 42.6959 30.0452 42.671 30.4077 42.2725L32.6821 39.7892H35.1018V42.3154L32.6835 44.5234C32.2865 44.8845 32.2602 45.5015 32.6226 45.9C32.9837 46.297 33.6007 46.3233 33.9992 45.9609L35.1004 44.9565V46.333C35.1004 46.8739 35.539 47.3125 36.0799 47.3125C36.6208 47.3125 37.0594 46.8739 37.0594 46.333V44.8638L38.3543 46.0466C38.7514 46.4091 39.3684 46.3842 39.7309 45.9858C40.0933 45.5887 40.0684 44.9717 39.67 44.6092L37.058 42.2227V39.7892H39.5732L41.849 42.2725C42.21 42.6696 42.8271 42.6959 43.2255 42.3334C43.6226 41.9723 43.6488 41.3553 43.2864 40.9569L42.2156 39.7892H43.5977C44.1386 39.7892 44.5771 39.3507 44.5771 38.8097C44.5771 38.2688 44.1386 37.8302 43.5977 37.8302H42.0772L43.1992 36.6003C43.5617 36.2033 43.5368 35.5863 43.1383 35.2238C42.7413 34.8613 42.1243 34.8862 41.7618 35.2847L39.4362 37.8302H37.0594V35.4382L39.67 33.0504C40.0671 32.6893 40.0933 32.0723 39.7309 31.6738C39.3698 31.2768 38.7528 31.2505 38.3543 31.613L37.058 32.7972V31.292C37.058 30.7511 36.6195 30.3125 36.0785 30.3125C35.5376 30.3125 35.099 30.7511 35.099 31.292V32.7045L33.9978 31.7001C33.6007 31.3376 32.9837 31.3625 32.6213 31.761C32.2588 32.158 32.2837 32.7751 32.6821 33.1375Z" fill="url(#paint0_linear_1663_374)"/>
</g>
<g filter="url(#filter1_d_1663_374)">
<path d="M14.6382 13.4421L12.5044 11.4927C12.1528 11.1729 12.1309 10.6284 12.4507 10.2781C12.7705 9.92651 13.3149 9.90454 13.6653 10.2244L14.637 11.1106V9.86426C14.637 9.38696 15.0239 9 15.5012 9C15.9785 9 16.3655 9.38696 16.3655 9.86426V11.1924L17.5093 10.1475C17.8608 9.82764 18.4053 9.85083 18.7239 10.2012C19.0437 10.5527 19.0205 11.0972 18.6702 11.4158L16.3667 13.5227V15.6333H18.4639L20.5159 13.3872C20.8357 13.0356 21.3801 13.0137 21.7305 13.3335C22.082 13.6533 22.104 14.1978 21.7842 14.5481L20.7942 15.6333H22.1357C22.613 15.6333 23 16.0203 23 16.4976C23 16.9749 22.613 17.3618 22.1357 17.3618H20.9163L21.8611 18.3921C22.1809 18.7437 22.1577 19.2881 21.8074 19.6067C21.4558 19.9265 20.9114 19.9033 20.5928 19.553L18.5847 17.3618H16.3655V19.509L18.6702 21.6147C19.0217 21.9346 19.0437 22.479 18.7239 22.8293C18.4041 23.1809 17.8596 23.2029 17.5093 22.8831L16.3667 21.8394V23.1357C16.3667 23.613 15.9797 24 15.5024 24C15.0251 24 14.6382 23.613 14.6382 23.1357V21.9211L13.6665 22.8074C13.3149 23.1272 12.7705 23.104 12.4519 22.7537C12.1321 22.4021 12.1553 21.8577 12.5056 21.5391L14.6394 19.5908V17.3618H12.5044L10.4976 19.553C10.1777 19.9045 9.6333 19.9265 9.28296 19.6067C8.93262 19.2869 8.90942 18.7424 9.22925 18.3921L10.1741 17.3618H8.86426C8.38696 17.3618 8 16.9749 8 16.4976C8 16.0203 8.38696 15.6333 8.86426 15.6333H10.2949L9.30493 14.5481C8.98511 14.1965 9.0083 13.6521 9.35864 13.3335C9.71021 13.0137 10.2546 13.0369 10.5732 13.3872L12.6252 15.6333H14.637V13.4421H14.6382Z" fill="url(#paint1_linear_1663_374)"/>
</g>
<g filter="url(#filter2_d_1663_374)">
<path d="M12.6382 69.4421L10.5044 67.4927C10.1528 67.1729 10.1309 66.6284 10.4507 66.2781C10.7705 65.9265 11.3149 65.9045 11.6653 66.2244L12.637 67.1106V65.8643C12.637 65.387 13.0239 65 13.5012 65C13.9785 65 14.3655 65.387 14.3655 65.8643V67.1924L15.5093 66.1475C15.8608 65.8276 16.4053 65.8508 16.7239 66.2012C17.0437 66.5527 17.0205 67.0972 16.6702 67.4158L14.3667 69.5227V71.6333H16.4639L18.5159 69.3872C18.8357 69.0356 19.3801 69.0137 19.7305 69.3335C20.082 69.6533 20.104 70.1978 19.7842 70.5481L18.7942 71.6333H20.1357C20.613 71.6333 21 72.0203 21 72.4976C21 72.9749 20.613 73.3618 20.1357 73.3618H18.9163L19.8611 74.3921C20.1809 74.7437 20.1577 75.2881 19.8074 75.6067C19.4558 75.9265 18.9114 75.9033 18.5928 75.553L16.5847 73.3618H14.3655V75.509L16.6702 77.6147C17.0217 77.9346 17.0437 78.479 16.7239 78.8293C16.4041 79.1809 15.8596 79.2029 15.5093 78.8831L14.3667 77.8394V79.1357C14.3667 79.613 13.9797 80 13.5024 80C13.0251 80 12.6382 79.613 12.6382 79.1357V77.9211L11.6665 78.8074C11.3149 79.1272 10.7705 79.104 10.4519 78.7537C10.1321 78.4021 10.1553 77.8577 10.5056 77.5391L12.6394 75.5908V73.3618H10.5044L8.49756 75.553C8.17773 75.9045 7.6333 75.9265 7.28296 75.6067C6.93262 75.2869 6.90942 74.7424 7.22925 74.3921L8.17407 73.3618H6.86426C6.38696 73.3618 6 72.9749 6 72.4976C6 72.0203 6.38696 71.6333 6.86426 71.6333H8.29492L7.30493 70.5481C6.98511 70.1965 7.0083 69.6521 7.35864 69.3335C7.71021 69.0137 8.25464 69.0369 8.57324 69.3872L10.6252 71.6333H12.637V69.4421H12.6382Z" fill="url(#paint2_linear_1663_374)"/>
</g>
<g filter="url(#filter3_d_1663_374)">
<path d="M70.6382 65.4421L68.5044 63.4927C68.1528 63.1729 68.1309 62.6284 68.4507 62.2781C68.7705 61.9265 69.3149 61.9045 69.6653 62.2244L70.637 63.1106V61.8643C70.637 61.387 71.0239 61 71.5012 61C71.9785 61 72.3655 61.387 72.3655 61.8643V63.1924L73.5093 62.1475C73.8608 61.8276 74.4053 61.8508 74.7239 62.2012C75.0437 62.5527 75.0205 63.0972 74.6702 63.4158L72.3667 65.5227V67.6333H74.4639L76.5159 65.3872C76.8357 65.0356 77.3801 65.0137 77.7305 65.3335C78.082 65.6533 78.104 66.1978 77.7842 66.5481L76.7942 67.6333H78.1357C78.613 67.6333 79 68.0203 79 68.4976C79 68.9749 78.613 69.3618 78.1357 69.3618H76.9163L77.8611 70.3921C78.1809 70.7437 78.1577 71.2881 77.8074 71.6067C77.4558 71.9265 76.9114 71.9033 76.5928 71.553L74.5847 69.3618H72.3655V71.509L74.6702 73.6147C75.0217 73.9346 75.0437 74.479 74.7239 74.8293C74.4041 75.1809 73.8596 75.2029 73.5093 74.8831L72.3667 73.8394V75.1357C72.3667 75.613 71.9797 76 71.5024 76C71.0251 76 70.6382 75.613 70.6382 75.1357V73.9211L69.6665 74.8074C69.3149 75.1272 68.7705 75.104 68.4519 74.7537C68.1321 74.4021 68.1553 73.8577 68.5056 73.5391L70.6394 71.5908V69.3618H68.5044L66.4976 71.553C66.1777 71.9045 65.6333 71.9265 65.283 71.6067C64.9326 71.2869 64.9094 70.7424 65.2292 70.3921L66.1741 69.3618H64.8643C64.387 69.3618 64 68.9749 64 68.4976C64 68.0203 64.387 67.6333 64.8643 67.6333H66.2949L65.3049 66.5481C64.9851 66.1965 65.0083 65.6521 65.3586 65.3335C65.7102 65.0137 66.2546 65.0369 66.5732 65.3872L68.6252 67.6333H70.637V65.4421H70.6382Z" fill="url(#paint3_linear_1663_374)"/>
</g>
<g filter="url(#filter4_d_1663_374)">
<path d="M12.4255 30.9614L11.0029 29.6618C10.7686 29.4486 10.7539 29.0856 10.9671 28.8521C11.1803 28.6177 11.5433 28.603 11.7769 28.8162L12.4246 29.4071V28.5762C12.4246 28.258 12.6826 28 13.0008 28C13.319 28 13.577 28.258 13.577 28.5762V29.4616L14.3395 28.765C14.5739 28.5518 14.9368 28.5672 15.1493 28.8008C15.3625 29.0352 15.347 29.3981 15.1134 29.6105L13.5778 31.0151V32.4222H14.9759L16.3439 30.9248C16.5571 30.6904 16.9201 30.6758 17.1536 30.889C17.388 31.1022 17.4027 31.4652 17.1895 31.6987L16.5295 32.4222H17.4238C17.742 32.4222 18 32.6802 18 32.9984C18 33.3166 17.742 33.5745 17.4238 33.5745H16.6108L17.2407 34.2614C17.4539 34.4958 17.4385 34.8587 17.2049 35.0711C16.9705 35.2843 16.6076 35.2689 16.3952 35.0353L15.0565 33.5745H13.577V35.006L15.1134 36.4098C15.3478 36.623 15.3625 36.986 15.1493 37.2196C14.936 37.4539 14.5731 37.4686 14.3395 37.2554L13.5778 36.5596V37.4238C13.5778 37.742 13.3198 38 13.0016 38C12.6834 38 12.4255 37.742 12.4255 37.4238V36.6141L11.7777 37.2049C11.5433 37.4181 11.1803 37.4027 10.9679 37.1691C10.7547 36.9347 10.7702 36.5718 11.0037 36.3594L12.4263 35.0605V33.5745H11.0029L9.66504 35.0353C9.45182 35.2697 9.08887 35.2843 8.85531 35.0711C8.62174 34.8579 8.60628 34.495 8.8195 34.2614L9.44938 33.5745H8.57617C8.25798 33.5745 8 33.3166 8 32.9984C8 32.6802 8.25798 32.4222 8.57617 32.4222H9.52995L8.86995 31.6987C8.65674 31.4644 8.6722 31.1014 8.90576 30.889C9.14014 30.6758 9.50309 30.6912 9.71549 30.9248L11.0835 32.4222H12.4246V30.9614H12.4255Z" fill="url(#paint4_linear_1663_374)"/>
</g>
<g filter="url(#filter5_d_1663_374)">
<path d="M71.4255 14.9614L70.0029 13.6618C69.7686 13.4486 69.7539 13.0856 69.9671 12.8521C70.1803 12.6177 70.5433 12.603 70.7769 12.8162L71.4246 13.4071V12.5762C71.4246 12.258 71.6826 12 72.0008 12C72.319 12 72.577 12.258 72.577 12.5762V13.4616L73.3395 12.765C73.5739 12.5518 73.9368 12.5672 74.1493 12.8008C74.3625 13.0352 74.347 13.3981 74.1134 13.6105L72.5778 15.0151V16.4222H73.9759L75.3439 14.9248C75.5571 14.6904 75.9201 14.6758 76.1536 14.889C76.388 15.1022 76.4027 15.4652 76.1895 15.6987L75.5295 16.4222H76.4238C76.742 16.4222 77 16.6802 77 16.9984C77 17.3166 76.742 17.5745 76.4238 17.5745H75.6108L76.2407 18.2614C76.4539 18.4958 76.4385 18.8587 76.2049 19.0711C75.9705 19.2843 75.6076 19.2689 75.3952 19.0353L74.0565 17.5745H72.577V19.006L74.1134 20.4098C74.3478 20.623 74.3625 20.986 74.1493 21.2196C73.936 21.4539 73.5731 21.4686 73.3395 21.2554L72.5778 20.5596V21.4238C72.5778 21.742 72.3198 22 72.0016 22C71.6834 22 71.4255 21.742 71.4255 21.4238V20.6141L70.7777 21.2049C70.5433 21.4181 70.1803 21.4027 69.9679 21.1691C69.7547 20.9347 69.7702 20.5718 70.0037 20.3594L71.4263 19.0605V17.5745H70.0029L68.665 19.0353C68.4518 19.2697 68.0889 19.2843 67.8553 19.0711C67.6217 18.8579 67.6063 18.495 67.8195 18.2614L68.4494 17.5745H67.5762C67.258 17.5745 67 17.3166 67 16.9984C67 16.6802 67.258 16.4222 67.5762 16.4222H68.5299L67.87 15.6987C67.6567 15.4644 67.6722 15.1014 67.9058 14.889C68.1401 14.6758 68.5031 14.6912 68.7155 14.9248L70.0835 16.4222H71.4246V14.9614H71.4255Z" fill="url(#paint5_linear_1663_374)"/>
</g>
<g filter="url(#filter6_d_1663_374)">
<path d="M74.4255 47.9614L73.0029 46.6618C72.7686 46.4486 72.7539 46.0856 72.9671 45.8521C73.1803 45.6177 73.5433 45.603 73.7769 45.8162L74.4246 46.4071V45.5762C74.4246 45.258 74.6826 45 75.0008 45C75.319 45 75.577 45.258 75.577 45.5762V46.4616L76.3395 45.765C76.5739 45.5518 76.9368 45.5672 77.1493 45.8008C77.3625 46.0352 77.347 46.3981 77.1134 46.6105L75.5778 48.0151V49.4222H76.9759L78.3439 47.9248C78.5571 47.6904 78.9201 47.6758 79.1536 47.889C79.388 48.1022 79.4027 48.4652 79.1895 48.6987L78.5295 49.4222H79.4238C79.742 49.4222 80 49.6802 80 49.9984C80 50.3166 79.742 50.5745 79.4238 50.5745H78.6108L79.2407 51.2614C79.4539 51.4958 79.4385 51.8587 79.2049 52.0711C78.9705 52.2843 78.6076 52.2689 78.3952 52.0353L77.0565 50.5745H75.577V52.006L77.1134 53.4098C77.3478 53.623 77.3625 53.986 77.1493 54.2196C76.936 54.4539 76.5731 54.4686 76.3395 54.2554L75.5778 53.5596V54.4238C75.5778 54.742 75.3198 55 75.0016 55C74.6834 55 74.4255 54.742 74.4255 54.4238V53.6141L73.7777 54.2049C73.5433 54.4181 73.1803 54.4027 72.9679 54.1691C72.7547 53.9347 72.7702 53.5718 73.0037 53.3594L74.4263 52.0605V50.5745H73.0029L71.665 52.0353C71.4518 52.2697 71.0889 52.2843 70.8553 52.0711C70.6217 51.8579 70.6063 51.495 70.8195 51.2614L71.4494 50.5745H70.5762C70.258 50.5745 70 50.3166 70 49.9984C70 49.6802 70.258 49.4222 70.5762 49.4222H71.5299L70.87 48.6987C70.6567 48.4644 70.6722 48.1014 70.9058 47.889C71.1401 47.6758 71.5031 47.6912 71.7155 47.9248L73.0835 49.4222H74.4246V47.9614H74.4255Z" fill="url(#paint6_linear_1663_374)"/>
</g>
<g filter="url(#filter7_d_1663_374)">
<path d="M41.4255 7.96143L40.0029 6.66178C39.7686 6.44857 39.7539 6.08561 39.9671 5.85205C40.1803 5.61768 40.5433 5.60303 40.7769 5.81624L41.4246 6.40706V5.57617C41.4246 5.25798 41.6826 5 42.0008 5C42.319 5 42.577 5.25798 42.577 5.57617V6.46159L43.3395 5.76497C43.5739 5.55176 43.9368 5.56722 44.1493 5.80078C44.3625 6.03516 44.347 6.39811 44.1134 6.61051L42.5778 8.01514V9.4222H43.9759L45.3439 7.9248C45.5571 7.69043 45.9201 7.67578 46.1536 7.889C46.388 8.10221 46.4027 8.46517 46.1895 8.69873L45.5295 9.4222H46.4238C46.742 9.4222 47 9.68018 47 9.99837C47 10.3166 46.742 10.5745 46.4238 10.5745H45.6108L46.2407 11.2614C46.4539 11.4958 46.4385 11.8587 46.2049 12.0711C45.9705 12.2843 45.6076 12.2689 45.3952 12.0353L44.0565 10.5745H42.577V12.006L44.1134 13.4098C44.3478 13.623 44.3625 13.986 44.1493 14.2196C43.936 14.4539 43.5731 14.4686 43.3395 14.2554L42.5778 13.5596V14.4238C42.5778 14.742 42.3198 15 42.0016 15C41.6834 15 41.4255 14.742 41.4255 14.4238V13.6141L40.7777 14.2049C40.5433 14.4181 40.1803 14.4027 39.9679 14.1691C39.7547 13.9347 39.7702 13.5718 40.0037 13.3594L41.4263 12.0605V10.5745H40.0029L38.665 12.0353C38.4518 12.2697 38.0889 12.2843 37.8553 12.0711C37.6217 11.8579 37.6063 11.495 37.8195 11.2614L38.4494 10.5745H37.5762C37.258 10.5745 37 10.3166 37 9.99837C37 9.68018 37.258 9.4222 37.5762 9.4222H38.5299L37.87 8.69873C37.6567 8.46436 37.6722 8.1014 37.9058 7.889C38.1401 7.67578 38.5031 7.69124 38.7155 7.9248L40.0835 9.4222H41.4246V7.96143H41.4255Z" fill="url(#paint7_linear_1663_374)"/>
</g>
</g>
<defs>
<filter id="filter0_d_1663_374" x="10" y="15" width="63" height="63" filterUnits="userSpaceOnUse" color-interpolation-filters="sRGB">
<feFlood flood-opacity="0" result="BackgroundImageFix"/>
<feColorMatrix in="SourceAlpha" type="matrix" values="0 0 0 0 0 0 0 0 0 0 0 0 0 0 0 0 0 0 127 0" result="hardAlpha"/>
<feOffset dy="4"/>
<feGaussianBlur stdDeviation="2"/>
<feComposite in2="hardAlpha" operator="out"/>
<feColorMatrix type="matrix" values="0 0 0 0 0 0 0 0 0 0 0 0 0 0 0 0 0 0 0.25 0"/>
<feBlend mode="normal" in2="BackgroundImageFix" result="effect1_dropShadow_1663_374"/>
<feBlend mode="normal" in="SourceGraphic" in2="effect1_dropShadow_1663_374" result="shape"/>
</filter>
<filter id="filter1_d_1663_374" x="4" y="9" width="23" height="23" filterUnits="userSpaceOnUse" color-interpolation-filters="sRGB">
<feFlood flood-opacity="0" result="BackgroundImageFix"/>
<feColorMatrix in="SourceAlpha" type="matrix" values="0 0 0 0 0 0 0 0 0 0 0 0 0 0 0 0 0 0 127 0" result="hardAlpha"/>
<feOffset dy="4"/>
<feGaussianBlur stdDeviation="2"/>
<feComposite in2="hardAlpha" operator="out"/>
<feColorMatrix type="matrix" values="0 0 0 0 0 0 0 0 0 0 0 0 0 0 0 0 0 0 0.25 0"/>
<feBlend mode="normal" in2="BackgroundImageFix" result="effect1_dropShadow_1663_374"/>
<feBlend mode="normal" in="SourceGraphic" in2="effect1_dropShadow_1663_374" result="shape"/>
</filter>
<filter id="filter2_d_1663_374" x="2" y="65" width="23" height="23" filterUnits="userSpaceOnUse" color-interpolation-filters="sRGB">
<feFlood flood-opacity="0" result="BackgroundImageFix"/>
<feColorMatrix in="SourceAlpha" type="matrix" values="0 0 0 0 0 0 0 0 0 0 0 0 0 0 0 0 0 0 127 0" result="hardAlpha"/>
<feOffset dy="4"/>
<feGaussianBlur stdDeviation="2"/>
<feComposite in2="hardAlpha" operator="out"/>
<feColorMatrix type="matrix" values="0 0 0 0 0 0 0 0 0 0 0 0 0 0 0 0 0 0 0.25 0"/>
<feBlend mode="normal" in2="BackgroundImageFix" result="effect1_dropShadow_1663_374"/>
<feBlend mode="normal" in="SourceGraphic" in2="effect1_dropShadow_1663_374" result="shape"/>
</filter>
<filter id="filter3_d_1663_374" x="60" y="61" width="23" height="23" filterUnits="userSpaceOnUse" color-interpolation-filters="sRGB">
<feFlood flood-opacity="0" result="BackgroundImageFix"/>
<feColorMatrix in="SourceAlpha" type="matrix" values="0 0 0 0 0 0 0 0 0 0 0 0 0 0 0 0 0 0 127 0" result="hardAlpha"/>
<feOffset dy="4"/>
<feGaussianBlur stdDeviation="2"/>
<feComposite in2="hardAlpha" operator="out"/>
<feColorMatrix type="matrix" values="0 0 0 0 0 0 0 0 0 0 0 0 0 0 0 0 0 0 0.25 0"/>
<feBlend mode="normal" in2="BackgroundImageFix" result="effect1_dropShadow_1663_374"/>
<feBlend mode="normal" in="SourceGraphic" in2="effect1_dropShadow_1663_374" result="shape"/>
</filter>
<filter id="filter4_d_1663_374" x="4" y="28" width="18" height="18" filterUnits="userSpaceOnUse" color-interpolation-filters="sRGB">
<feFlood flood-opacity="0" result="BackgroundImageFix"/>
<feColorMatrix in="SourceAlpha" type="matrix" values="0 0 0 0 0 0 0 0 0 0 0 0 0 0 0 0 0 0 127 0" result="hardAlpha"/>
<feOffset dy="4"/>
<feGaussianBlur stdDeviation="2"/>
<feComposite in2="hardAlpha" operator="out"/>
<feColorMatrix type="matrix" values="0 0 0 0 0 0 0 0 0 0 0 0 0 0 0 0 0 0 0.25 0"/>
<feBlend mode="normal" in2="BackgroundImageFix" result="effect1_dropShadow_1663_374"/>
<feBlend mode="normal" in="SourceGraphic" in2="effect1_dropShadow_1663_374" result="shape"/>
</filter>
<filter id="filter5_d_1663_374" x="63" y="12" width="18" height="18" filterUnits="userSpaceOnUse" color-interpolation-filters="sRGB">
<feFlood flood-opacity="0" result="BackgroundImageFix"/>
<feColorMatrix in="SourceAlpha" type="matrix" values="0 0 0 0 0 0 0 0 0 0 0 0 0 0 0 0 0 0 127 0" result="hardAlpha"/>
<feOffset dy="4"/>
<feGaussianBlur stdDeviation="2"/>
<feComposite in2="hardAlpha" operator="out"/>
<feColorMatrix type="matrix" values="0 0 0 0 0 0 0 0 0 0 0 0 0 0 0 0 0 0 0.25 0"/>
<feBlend mode="normal" in2="BackgroundImageFix" result="effect1_dropShadow_1663_374"/>
<feBlend mode="normal" in="SourceGraphic" in2="effect1_dropShadow_1663_374" result="shape"/>
</filter>
<filter id="filter6_d_1663_374" x="66" y="45" width="18" height="18" filterUnits="userSpaceOnUse" color-interpolation-filters="sRGB">
<feFlood flood-opacity="0" result="BackgroundImageFix"/>
<feColorMatrix in="SourceAlpha" type="matrix" values="0 0 0 0 0 0 0 0 0 0 0 0 0 0 0 0 0 0 127 0" result="hardAlpha"/>
<feOffset dy="4"/>
<feGaussianBlur stdDeviation="2"/>
<feComposite in2="hardAlpha" operator="out"/>
<feColorMatrix type="matrix" values="0 0 0 0 0 0 0 0 0 0 0 0 0 0 0 0 0 0 0.25 0"/>
<feBlend mode="normal" in2="BackgroundImageFix" result="effect1_dropShadow_1663_374"/>
<feBlend mode="normal" in="SourceGraphic" in2="effect1_dropShadow_1663_374" result="shape"/>
</filter>
<filter id="filter7_d_1663_374" x="33" y="5" width="18" height="18" filterUnits="userSpaceOnUse" color-interpolation-filters="sRGB">
<feFlood flood-opacity="0" result="BackgroundImageFix"/>
<feColorMatrix in="SourceAlpha" type="matrix" values="0 0 0 0 0 0 0 0 0 0 0 0 0 0 0 0 0 0 127 0" result="hardAlpha"/>
<feOffset dy="4"/>
<feGaussianBlur stdDeviation="2"/>
<feComposite in2="hardAlpha" operator="out"/>
<feColorMatrix type="matrix" values="0 0 0 0 0 0 0 0 0 0 0 0 0 0 0 0 0 0 0.25 0"/>
<feBlend mode="normal" in2="BackgroundImageFix" result="effect1_dropShadow_1663_374"/>
<feBlend mode="normal" in="SourceGraphic" in2="effect1_dropShadow_1663_374" result="shape"/>
</filter>
<linearGradient id="paint0_linear_1663_374" x1="41.5" y1="15" x2="41.5" y2="70" gradientUnits="userSpaceOnUse">
<stop stop-color="#FF5158"/>
<stop offset="1" stop-color="#C1272D"/>
</linearGradient>
<linearGradient id="paint1_linear_1663_374" x1="15.5" y1="9" x2="15.5" y2="24" gradientUnits="userSpaceOnUse">
<stop stop-color="#FF5158"/>
<stop offset="1" stop-color="#C1272D"/>
</linearGradient>
<linearGradient id="paint2_linear_1663_374" x1="13.5" y1="65" x2="13.5" y2="80" gradientUnits="userSpaceOnUse">
<stop stop-color="#FF5158"/>
<stop offset="1" stop-color="#C1272D"/>
</linearGradient>
<linearGradient id="paint3_linear_1663_374" x1="71.5" y1="61" x2="71.5" y2="76" gradientUnits="userSpaceOnUse">
<stop stop-color="#FF5158"/>
<stop offset="1" stop-color="#C1272D"/>
</linearGradient>
<linearGradient id="paint4_linear_1663_374" x1="13" y1="28" x2="13" y2="38" gradientUnits="userSpaceOnUse">
<stop stop-color="#FF5158"/>
<stop offset="1" stop-color="#C1272D"/>
</linearGradient>
<linearGradient id="paint5_linear_1663_374" x1="72" y1="12" x2="72" y2="22" gradientUnits="userSpaceOnUse">
<stop stop-color="#FF5158"/>
<stop offset="1" stop-color="#C1272D"/>
</linearGradient>
<linearGradient id="paint6_linear_1663_374" x1="75" y1="45" x2="75" y2="55" gradientUnits="userSpaceOnUse">
<stop stop-color="#FF5158"/>
<stop offset="1" stop-color="#C1272D"/>
</linearGradient>
<linearGradient id="paint7_linear_1663_374" x1="42" y1="5" x2="42" y2="15" gradientUnits="userSpaceOnUse">
<stop stop-color="#FF5158"/>
<stop offset="1" stop-color="#C1272D"/>
</linearGradient>
<clipPath id="clip0_1663_374">
<rect width="83.75" height="83.75" fill="white"/>
</clipPath>
</defs>
</svg>
