<svg width="84" height="84" viewBox="0 0 84 84" fill="none" xmlns="http://www.w3.org/2000/svg">
<g clip-path="url(#clip0_496_10)">
<g filter="url(#filter0_d_496_10)">
<path d="M70.9994 17.8605C73.6837 17.8605 75.8597 15.6845 75.8597 13.0003C75.8597 10.3161 73.6837 8.14014 70.9994 8.14014C68.3152 8.14014 66.1392 10.3161 66.1392 13.0003C66.1392 15.6845 68.3152 17.8605 70.9994 17.8605Z" fill="url(#paint0_linear_496_10)"/>
<path d="M71.0002 18.655C67.882 18.655 65.3452 16.1182 65.3452 13.0001C65.3452 9.88194 67.882 7.34521 71.0002 7.34521C74.1184 7.34521 76.6551 9.88194 76.6551 13.0001C76.6551 16.1182 74.1184 18.655 71.0002 18.655ZM71.0002 8.9346C68.7575 8.9346 66.9346 10.7574 66.9346 13.0001C66.9346 15.2427 68.7575 17.0656 71.0002 17.0656C73.2428 17.0656 75.0657 15.2427 75.0657 13.0001C75.0657 10.7574 73.2428 8.9346 71.0002 8.9346Z" fill="url(#paint1_linear_496_10)"/>
<path d="M71 6.17325C70.56 6.17325 70.2053 5.81856 70.2053 5.37856V2.79469C70.2053 2.35694 70.56 2 71 2C71.4378 2 71.7947 2.35469 71.7947 2.79469V5.37856C71.7947 5.81631 71.4378 6.17325 71 6.17325Z" fill="url(#paint2_linear_496_10)"/>
<path d="M71 23.9999C70.56 23.9999 70.2053 23.6452 70.2053 23.2052V20.6214C70.2053 20.1836 70.56 19.8267 71 19.8267C71.4378 19.8267 71.7947 20.1836 71.7947 20.6214V23.2052C71.7947 23.6452 71.4378 23.9999 71 23.9999Z" fill="url(#paint3_linear_496_10)"/>
<path d="M81.2053 13.7945H78.6214C78.1836 13.7945 77.8267 13.4398 77.8267 12.9998C77.8267 12.5598 78.1836 12.2051 78.6214 12.2051H81.2053C81.643 12.2051 82 12.5598 82 12.9998C82 13.4375 81.6453 13.7945 81.2053 13.7945Z" fill="url(#paint4_linear_496_10)"/>
<path d="M63.3786 13.7945H60.7947C60.3569 13.7945 60 13.4375 60 12.9998C60 12.5598 60.3569 12.2051 60.7947 12.2051H63.3786C63.8186 12.2051 64.1733 12.5598 64.1733 12.9998C64.1733 13.4375 63.8164 13.7945 63.3786 13.7945Z" fill="url(#paint5_linear_496_10)"/>
<path d="M76.3907 8.40466C76.1865 8.40466 75.9844 8.32609 75.8295 8.17119C75.5197 7.8614 75.5197 7.35854 75.8295 7.0465L77.6569 5.21916C77.9667 4.90937 78.4695 4.90937 78.7816 5.21916C79.0914 5.52896 79.0914 6.03181 78.7816 6.34385L76.952 8.17344C76.7971 8.32834 76.5928 8.40466 76.3907 8.40466Z" fill="url(#paint6_linear_496_10)"/>
<path d="M63.7831 21.0121C63.5788 21.0121 63.3768 20.9335 63.2219 20.7786C62.9121 20.4688 62.9121 19.966 63.2219 19.6539L65.0492 17.8266C65.359 17.5168 65.8619 17.5168 66.1739 17.8266C66.4837 18.1364 66.4837 18.6392 66.1739 18.9513L64.3466 20.7786C64.1917 20.9335 63.9874 21.0121 63.7831 21.0121Z" fill="url(#paint7_linear_496_10)"/>
<path d="M78.2154 21.0121C78.0111 21.0121 77.8091 20.9335 77.6542 20.7786L75.8268 18.9513C75.517 18.6415 75.517 18.1386 75.8268 17.8266C76.1366 17.5168 76.6395 17.5168 76.9515 17.8266L78.7789 19.6539C79.0887 19.9637 79.0887 20.4666 78.7789 20.7786C78.624 20.9335 78.4197 21.0121 78.2154 21.0121Z" fill="url(#paint8_linear_496_10)"/>
<path d="M65.6104 8.40466C65.4062 8.40466 65.2041 8.32609 65.0492 8.17119L63.2219 6.34385C62.9121 6.03406 62.9121 5.5312 63.2219 5.21916C63.5316 4.90937 64.0345 4.90937 64.3466 5.21916L66.1739 7.0465C66.4837 7.3563 66.4837 7.85915 66.1739 8.17119C66.019 8.32834 65.8147 8.40466 65.6104 8.40466Z" fill="url(#paint9_linear_496_10)"/>
</g>
<g filter="url(#filter1_d_496_10)">
<path d="M62 50.2085C61.7867 51.9178 61.4898 53.5629 60.9753 55.1438C60.2225 57.4558 59.1016 59.4319 57.2405 60.7064C56.0862 61.4969 54.8315 61.8526 53.5057 61.9612C51.8955 62.0946 50.3271 61.897 48.834 61.1609C46.5044 60.0148 45.1326 57.9547 44.7436 54.9906C44.522 53.3011 44.6223 51.6165 44.7353 49.9319C44.7813 49.2205 44.8315 48.514 44.8733 47.8026C44.9528 46.4886 45.0657 45.1745 45.187 43.8604C45.2915 42.7488 45.3668 41.6373 45.4672 40.5257C45.5843 39.2512 45.7181 37.9815 45.8352 36.7119C45.9314 35.6646 46.0151 34.6173 46.1113 33.5699C46.2326 32.2855 46.358 31.001 46.4793 29.7166C46.5211 29.2621 46.5546 28.8076 46.6006 28.3531C46.6131 28.2444 46.5755 28.2148 46.5044 28.2098C46.4291 28.2049 46.3538 28.2049 46.2786 28.2049C43.5433 28.2049 40.808 28.2049 38.0728 28.1999C37.8637 28.1999 37.7131 28.1901 37.7131 28.5359C37.7131 28.9904 37.6462 29.4449 37.6211 29.8994C37.5291 31.421 37.458 32.9425 37.3409 34.4641C37.1861 36.4995 37.0356 38.5348 36.8515 40.5653C36.6717 42.5315 36.4877 44.4976 36.2409 46.454C35.7767 50.1344 35.2121 53.7852 34.1037 57.2878C33.7148 58.5229 33.2296 59.6986 32.3597 60.578C31.5776 61.3684 30.67 61.7883 29.6495 61.9316C28.4576 62.0996 27.3158 61.9267 26.2451 61.2696C25.3125 60.6916 24.6182 59.8666 24.4091 58.5821C24.2376 57.52 24.5136 56.5863 24.9444 55.6823C25.5216 54.462 26.2995 53.4196 27.0523 52.3575C29.8336 48.4202 31.8327 44.0234 32.6817 38.9498C33.008 36.9984 33.3007 35.0471 33.5266 33.0759C33.6939 31.6334 33.8068 30.181 33.9615 28.7384C34.0159 28.2098 34.0159 28.2098 33.5726 28.2098C32.481 28.2098 31.3852 28.1703 30.2978 28.2296C28.65 28.3185 27.0565 28.694 25.7014 29.9191C24.7227 30.7985 23.8988 31.8557 23.1585 33.0068C23.1042 33.0858 23.0331 33.1599 23.0038 33.2538C22.6692 34.3653 21.8829 34.2122 21.1385 34.1924C20.9503 34.1875 20.9963 34.0837 21.0339 33.9454C21.7658 31.3666 22.6859 28.9113 24.1038 26.7475C25.0406 25.3198 26.0904 24.0354 27.4831 23.2103C28.3865 22.6719 29.3693 22.4644 30.3564 22.3211C32.9452 21.9457 35.5467 22.0099 38.1439 22.0099C45.9272 22.0099 53.7106 22.0099 61.4981 22C61.7992 22 61.8954 22.0642 61.8913 22.4496C61.8703 24.2478 61.8745 26.051 61.8913 27.8492C61.8954 28.1654 61.8076 28.2197 61.565 28.2148C58.5496 28.2049 55.5341 28.2148 52.5144 28.1999C52.2384 28.1999 52.1589 28.2691 52.1422 28.61C52.0586 30.1908 51.9415 31.7717 51.8369 33.3526C51.7867 34.0887 51.7449 34.8198 51.6989 35.5559C51.5943 37.1516 51.4898 38.7473 51.3852 40.3429C51.3392 41.0148 51.289 41.6867 51.2514 42.3536C51.1343 44.3494 51.0673 46.3502 51.1217 48.351C51.1552 49.5416 51.2765 50.7223 51.4898 51.8931C51.7742 53.4443 52.5437 54.4423 53.7901 54.956C55.1368 55.5093 56.4918 55.534 57.8218 54.9066C59.2229 54.2447 59.9214 52.8762 60.3271 51.2509C60.3689 51.0829 60.4358 50.91 60.4358 50.7371C60.4358 50.2629 60.6366 50.1542 61.0046 50.1986C61.3225 50.2431 61.6487 50.2085 62 50.2085Z" fill="url(#paint10_linear_496_10)"/>
</g>
</g>
<defs>
<filter id="filter0_d_496_10" x="56" y="2" width="29.9999" height="30" filterUnits="userSpaceOnUse" color-interpolation-filters="sRGB">
<feFlood flood-opacity="0" result="BackgroundImageFix"/>
<feColorMatrix in="SourceAlpha" type="matrix" values="0 0 0 0 0 0 0 0 0 0 0 0 0 0 0 0 0 0 127 0" result="hardAlpha"/>
<feOffset dy="4"/>
<feGaussianBlur stdDeviation="2"/>
<feComposite in2="hardAlpha" operator="out"/>
<feColorMatrix type="matrix" values="0 0 0 0 0 0 0 0 0 0 0 0 0 0 0 0 0 0 0.25 0"/>
<feBlend mode="normal" in2="BackgroundImageFix" result="effect1_dropShadow_496_10"/>
<feBlend mode="normal" in="SourceGraphic" in2="effect1_dropShadow_496_10" result="shape"/>
</filter>
<filter id="filter1_d_496_10" x="17" y="22" width="49" height="48" filterUnits="userSpaceOnUse" color-interpolation-filters="sRGB">
<feFlood flood-opacity="0" result="BackgroundImageFix"/>
<feColorMatrix in="SourceAlpha" type="matrix" values="0 0 0 0 0 0 0 0 0 0 0 0 0 0 0 0 0 0 127 0" result="hardAlpha"/>
<feOffset dy="4"/>
<feGaussianBlur stdDeviation="2"/>
<feComposite in2="hardAlpha" operator="out"/>
<feColorMatrix type="matrix" values="0 0 0 0 0 0 0 0 0 0 0 0 0 0 0 0 0 0 0.25 0"/>
<feBlend mode="normal" in2="BackgroundImageFix" result="effect1_dropShadow_496_10"/>
<feBlend mode="normal" in="SourceGraphic" in2="effect1_dropShadow_496_10" result="shape"/>
</filter>
<linearGradient id="paint0_linear_496_10" x1="70.9994" y1="8.14014" x2="70.9994" y2="17.8605" gradientUnits="userSpaceOnUse">
<stop stop-color="white"/>
<stop offset="1" stop-color="#BFBFBF"/>
</linearGradient>
<linearGradient id="paint1_linear_496_10" x1="71.0002" y1="7.34521" x2="71.0002" y2="18.655" gradientUnits="userSpaceOnUse">
<stop stop-color="white"/>
<stop offset="1" stop-color="#BFBFBF"/>
</linearGradient>
<linearGradient id="paint2_linear_496_10" x1="71" y1="2" x2="71" y2="6.17325" gradientUnits="userSpaceOnUse">
<stop stop-color="white"/>
<stop offset="1" stop-color="#BFBFBF"/>
</linearGradient>
<linearGradient id="paint3_linear_496_10" x1="71" y1="19.8267" x2="71" y2="23.9999" gradientUnits="userSpaceOnUse">
<stop stop-color="white"/>
<stop offset="1" stop-color="#BFBFBF"/>
</linearGradient>
<linearGradient id="paint4_linear_496_10" x1="79.9133" y1="12.2051" x2="79.9133" y2="13.7945" gradientUnits="userSpaceOnUse">
<stop stop-color="white"/>
<stop offset="1" stop-color="#BFBFBF"/>
</linearGradient>
<linearGradient id="paint5_linear_496_10" x1="62.0867" y1="12.2051" x2="62.0867" y2="13.7945" gradientUnits="userSpaceOnUse">
<stop stop-color="white"/>
<stop offset="1" stop-color="#BFBFBF"/>
</linearGradient>
<linearGradient id="paint6_linear_496_10" x1="77.3056" y1="4.98682" x2="77.3056" y2="8.40466" gradientUnits="userSpaceOnUse">
<stop stop-color="white"/>
<stop offset="1" stop-color="#BFBFBF"/>
</linearGradient>
<linearGradient id="paint7_linear_496_10" x1="64.6979" y1="17.5942" x2="64.6979" y2="21.0121" gradientUnits="userSpaceOnUse">
<stop stop-color="white"/>
<stop offset="1" stop-color="#BFBFBF"/>
</linearGradient>
<linearGradient id="paint8_linear_496_10" x1="77.3029" y1="17.5942" x2="77.3029" y2="21.0121" gradientUnits="userSpaceOnUse">
<stop stop-color="white"/>
<stop offset="1" stop-color="#BFBFBF"/>
</linearGradient>
<linearGradient id="paint9_linear_496_10" x1="64.6979" y1="4.98682" x2="64.6979" y2="8.40466" gradientUnits="userSpaceOnUse">
<stop stop-color="white"/>
<stop offset="1" stop-color="#BFBFBF"/>
</linearGradient>
<linearGradient id="paint10_linear_496_10" x1="41.5" y1="22" x2="41.5" y2="62" gradientUnits="userSpaceOnUse">
<stop stop-color="white"/>
<stop offset="1" stop-color="#BFBFBF"/>
</linearGradient>
<clipPath id="clip0_496_10">
<rect width="83.75" height="83.75" fill="white"/>
</clipPath>
</defs>
</svg>
