<svg width="84" height="84" viewBox="0 0 84 84" fill="none" xmlns="http://www.w3.org/2000/svg">
<g filter="url(#filter0_d_2443_2130)">
<path d="M62.4249 17.9728L37.4272 11.2336C35.3136 10.6638 32.4772 11.3885 32.0105 13.1198L19.0276 61.2772C18.4668 63.357 20.4622 65.7521 22.5758 66.3219L47.5734 73.0612C49.687 73.631 52.2674 72.4694 52.8281 70.3896L65.7186 22.5751C66.2721 20.4993 64.5385 18.5426 62.4249 17.9728ZM45.9053 17.6074L51.8919 19.2214L51.5176 20.6098L45.531 18.9959L45.9053 17.6074ZM35.4582 67.5639C34.0473 67.1835 32.9224 65.7648 33.3891 64.0334C33.7634 62.645 35.193 61.547 36.9525 62.0214C38.3634 62.4018 39.4883 63.8205 39.0216 65.5519C38.5548 67.2832 37.2177 68.0383 35.4582 67.5639ZM50.5433 63.4543L24.8373 56.5242L34.6438 20.149L60.3441 27.0776L50.5376 63.4528L50.5433 63.4543Z" fill="url(#paint0_linear_2443_2130)"/>
</g>
<g filter="url(#filter1_d_2443_2130)">
<path d="M37.7936 32.4717C38.2642 32.2069 38.7113 32.1336 39.1352 32.2517C39.5732 32.3737 39.9023 32.5035 40.1227 32.6411C40.343 32.7786 40.5029 32.9145 40.6022 33.0487C40.7056 33.1689 40.7628 33.3447 40.7739 33.5762C40.7771 33.8359 40.7072 34.2199 40.5643 34.7282L37.2481 46.5249C37.1568 46.8497 37.0732 47.0928 36.9973 47.2544C36.9395 47.4058 36.8244 47.5716 36.6518 47.7519C36.3468 48.078 35.7423 48.1151 34.838 47.8631C33.9621 47.619 33.4697 47.2839 33.361 46.8578C33.3075 46.6145 33.2904 46.4042 33.3098 46.2269C33.3473 46.0394 33.4137 45.7762 33.5089 45.4373L35.6344 37.8764L35.2874 38.0538C34.5851 38.3301 34.0291 38.4111 33.6194 38.297C33.2097 38.1828 32.8482 37.8156 32.535 37.1955C32.236 36.5792 32.14 36.0805 32.2472 35.6993C32.3544 35.3181 32.7258 34.9724 33.3614 34.6623L37.7181 32.4963L37.7936 32.4717ZM49.9689 35.8415C50.1375 35.6753 50.366 35.5943 50.6542 35.5985C50.9606 35.5926 51.3328 35.6506 51.7708 35.7726C52.2229 35.8986 52.5693 36.0484 52.8099 36.2221C53.0546 36.3816 53.2036 36.583 53.2571 36.8263C53.3146 37.0554 53.3266 37.2567 53.2931 37.4301C53.2737 37.6074 53.2183 37.8584 53.1271 38.1831L49.8168 49.9587C49.662 50.5094 49.4762 50.8992 49.2595 51.128C49.0609 51.3468 48.8085 51.4591 48.5021 51.4651C48.2098 51.475 47.8588 51.4229 47.4491 51.3087C47.0394 51.1945 46.7244 51.0687 46.504 50.9312C46.2837 50.7936 46.1238 50.6577 46.0245 50.5235C45.9251 50.3892 45.8729 50.2224 45.868 50.0231C45.8507 49.7595 45.9115 49.3806 46.0505 48.8864L46.7768 46.3025L41.0336 44.7022C40.0446 44.4266 39.5337 43.9949 39.5009 43.4072C39.4937 43.1616 39.5437 42.8482 39.6509 42.467C39.7581 42.0858 39.8587 41.8093 39.9526 41.6376L43.7061 35.0327C43.8822 34.7316 44.0223 34.5042 44.1264 34.3505C44.2447 34.2008 44.4175 34.0738 44.6448 33.9697C44.8863 33.8695 45.1554 33.8607 45.4521 33.9434C45.7488 34.0261 46.0598 34.166 46.3852 34.3633C47.2988 34.9071 47.6663 35.4968 47.4877 36.1321C47.4242 36.358 47.2914 36.6408 47.0893 36.9803C47.0672 37.0046 47.0542 37.0238 47.0502 37.0379L44.3048 41.8454L47.7592 42.808L49.3845 37.0261C49.4758 36.7014 49.5504 36.4633 49.6082 36.3119C49.6801 36.1645 49.8003 36.0077 49.9689 35.8415Z" fill="url(#paint1_linear_2443_2130)"/>
</g>
<defs>
<filter id="filter0_d_2443_2130" x="14.9316" y="11.043" width="54.8906" height="70.1621" filterUnits="userSpaceOnUse" color-interpolation-filters="sRGB">
<feFlood flood-opacity="0" result="BackgroundImageFix"/>
<feColorMatrix in="SourceAlpha" type="matrix" values="0 0 0 0 0 0 0 0 0 0 0 0 0 0 0 0 0 0 127 0" result="hardAlpha"/>
<feOffset dy="4"/>
<feGaussianBlur stdDeviation="2"/>
<feComposite in2="hardAlpha" operator="out"/>
<feColorMatrix type="matrix" values="0 0 0 0 0 0 0 0 0 0 0 0 0 0 0 0 0 0 0.25 0"/>
<feBlend mode="normal" in2="BackgroundImageFix" result="effect1_dropShadow_2443_2130"/>
<feBlend mode="normal" in="SourceGraphic" in2="effect1_dropShadow_2443_2130" result="shape"/>
</filter>
<filter id="filter1_d_2443_2130" x="25.2646" y="30.6582" width="32.4102" height="29.2285" filterUnits="userSpaceOnUse" color-interpolation-filters="sRGB">
<feFlood flood-opacity="0" result="BackgroundImageFix"/>
<feColorMatrix in="SourceAlpha" type="matrix" values="0 0 0 0 0 0 0 0 0 0 0 0 0 0 0 0 0 0 127 0" result="hardAlpha"/>
<feOffset dy="4"/>
<feGaussianBlur stdDeviation="2"/>
<feComposite in2="hardAlpha" operator="out"/>
<feColorMatrix type="matrix" values="0 0 0 0 0 0 0 0 0 0 0 0 0 0 0 0 0 0 0.25 0"/>
<feBlend mode="normal" in2="BackgroundImageFix" result="effect1_dropShadow_2443_2130"/>
<feBlend mode="normal" in="SourceGraphic" in2="effect1_dropShadow_2443_2130" result="shape"/>
</filter>
<linearGradient id="paint0_linear_2443_2130" x1="49.7518" y1="14.5562" x2="34.9004" y2="69.6446" gradientUnits="userSpaceOnUse">
<stop stop-color="white"/>
<stop offset="1" stop-color="#BFBFBF"/>
</linearGradient>
<linearGradient id="paint1_linear_2443_2130" x1="46.1144" y1="28.1216" x2="38.2663" y2="56.2864" gradientUnits="userSpaceOnUse">
<stop stop-color="white"/>
<stop offset="1" stop-color="#BFBFBF"/>
</linearGradient>
</defs>
</svg>
