<svg width="84" height="84" viewBox="0 0 84 84" fill="none" xmlns="http://www.w3.org/2000/svg">
<g clip-path="url(#clip0_272_332)">
<g filter="url(#filter0_d_272_332)">
<path d="M70.9994 17.8605C73.6837 17.8605 75.8597 15.6845 75.8597 13.0003C75.8597 10.3161 73.6837 8.14014 70.9994 8.14014C68.3152 8.14014 66.1392 10.3161 66.1392 13.0003C66.1392 15.6845 68.3152 17.8605 70.9994 17.8605Z" fill="url(#paint0_linear_272_332)"/>
<path d="M71.0002 18.655C67.882 18.655 65.3452 16.1182 65.3452 13.0001C65.3452 9.88194 67.882 7.34521 71.0002 7.34521C74.1184 7.34521 76.6551 9.88194 76.6551 13.0001C76.6551 16.1182 74.1184 18.655 71.0002 18.655ZM71.0002 8.9346C68.7575 8.9346 66.9346 10.7574 66.9346 13.0001C66.9346 15.2427 68.7575 17.0656 71.0002 17.0656C73.2428 17.0656 75.0657 15.2427 75.0657 13.0001C75.0657 10.7574 73.2428 8.9346 71.0002 8.9346Z" fill="url(#paint1_linear_272_332)"/>
<path d="M71 6.17325C70.56 6.17325 70.2053 5.81856 70.2053 5.37856V2.79469C70.2053 2.35694 70.56 2 71 2C71.4378 2 71.7947 2.35469 71.7947 2.79469V5.37856C71.7947 5.81631 71.4378 6.17325 71 6.17325Z" fill="url(#paint2_linear_272_332)"/>
<path d="M71 23.9999C70.56 23.9999 70.2053 23.6452 70.2053 23.2052V20.6214C70.2053 20.1836 70.56 19.8267 71 19.8267C71.4378 19.8267 71.7947 20.1836 71.7947 20.6214V23.2052C71.7947 23.6452 71.4378 23.9999 71 23.9999Z" fill="url(#paint3_linear_272_332)"/>
<path d="M81.2053 13.7945H78.6214C78.1836 13.7945 77.8267 13.4398 77.8267 12.9998C77.8267 12.5598 78.1836 12.2051 78.6214 12.2051H81.2053C81.643 12.2051 82 12.5598 82 12.9998C82 13.4375 81.6453 13.7945 81.2053 13.7945Z" fill="url(#paint4_linear_272_332)"/>
<path d="M63.3786 13.7945H60.7947C60.3569 13.7945 60 13.4375 60 12.9998C60 12.5598 60.3569 12.2051 60.7947 12.2051H63.3786C63.8186 12.2051 64.1733 12.5598 64.1733 12.9998C64.1733 13.4375 63.8164 13.7945 63.3786 13.7945Z" fill="url(#paint5_linear_272_332)"/>
<path d="M76.3907 8.40466C76.1865 8.40466 75.9844 8.32609 75.8295 8.17119C75.5197 7.8614 75.5197 7.35854 75.8295 7.0465L77.6569 5.21916C77.9667 4.90937 78.4695 4.90937 78.7816 5.21916C79.0914 5.52896 79.0914 6.03181 78.7816 6.34385L76.952 8.17344C76.7971 8.32834 76.5928 8.40466 76.3907 8.40466Z" fill="url(#paint6_linear_272_332)"/>
<path d="M63.7831 21.0121C63.5788 21.0121 63.3768 20.9335 63.2219 20.7786C62.9121 20.4688 62.9121 19.966 63.2219 19.6539L65.0492 17.8266C65.359 17.5168 65.8619 17.5168 66.1739 17.8266C66.4837 18.1364 66.4837 18.6392 66.1739 18.9513L64.3466 20.7786C64.1917 20.9335 63.9874 21.0121 63.7831 21.0121Z" fill="url(#paint7_linear_272_332)"/>
<path d="M78.2154 21.0121C78.0111 21.0121 77.8091 20.9335 77.6542 20.7786L75.8268 18.9513C75.517 18.6415 75.517 18.1386 75.8268 17.8266C76.1366 17.5168 76.6395 17.5168 76.9515 17.8266L78.7789 19.6539C79.0887 19.9637 79.0887 20.4666 78.7789 20.7786C78.624 20.9335 78.4197 21.0121 78.2154 21.0121Z" fill="url(#paint8_linear_272_332)"/>
<path d="M65.6104 8.40466C65.4062 8.40466 65.2041 8.32609 65.0492 8.17119L63.2219 6.34385C62.9121 6.03406 62.9121 5.5312 63.2219 5.21916C63.5316 4.90937 64.0345 4.90937 64.3466 5.21916L66.1739 7.0465C66.4837 7.3563 66.4837 7.85915 66.1739 8.17119C66.019 8.32834 65.8147 8.40466 65.6104 8.40466Z" fill="url(#paint9_linear_272_332)"/>
</g>
<g filter="url(#filter1_d_272_332)">
<path d="M55.6051 17.1739C55.0163 17.4413 43.2061 29.8024 42.805 30.5452C42.5632 31.0106 42.4633 31.5222 42.5149 32.031C42.4853 32.5557 42.5824 33.0799 42.7999 33.57C43.0175 34.06 43.3506 34.505 43.7778 34.8761L44.5458 35.7155L42.9671 37.3646L41.3885 39.0212L33.0172 30.2853C23.8693 20.7396 24.1595 21.007 22.5467 20.695C19.432 20.0859 16.5135 23.1092 17.0682 26.4001C17.3498 28.0641 17.2389 27.9378 23.2805 34.2223C28.3323 39.4892 28.8699 40.0092 29.5953 40.3806C30.1413 40.6887 30.7648 40.8773 31.4126 40.9303C32.0605 40.9834 32.7134 40.8993 33.3158 40.6852C33.5719 40.5812 33.7084 40.6852 35.1761 42.2155L36.7719 43.872L28.1531 52.9126C19.7904 61.6857 19.5344 61.9754 19.3637 62.5697C19.1601 63.1554 19.1317 63.7766 19.281 64.3746C19.4303 64.9726 19.7525 65.5275 20.217 65.9868C20.49 66.3349 20.8675 66.6111 21.3084 66.7853C21.7493 66.9595 22.2366 67.025 22.7173 66.9748C24.0144 66.8336 23.7413 67.0788 32.855 57.5257L41.3458 48.6114L48.7784 56.4263C58.5748 66.6554 58.3614 66.4325 58.9332 66.6999C59.5296 66.982 60.2223 67.0689 60.886 66.9449C61.5497 66.8209 62.1404 66.4943 62.5514 66.024C63.0141 65.5164 63.3237 64.9161 63.4518 64.2777C63.58 63.6394 63.5227 62.9833 63.2852 62.3691C63.0634 61.7228 62.6282 61.2474 54.5214 52.712L45.988 43.7977L47.5666 42.1412L49.1453 40.4846L49.9987 41.3166C51.2616 42.5646 52.2942 42.8766 53.651 42.4309C54.2227 42.2601 54.5726 41.9109 60.5204 35.7006C65.4698 30.5006 66.8095 29.0669 66.9119 28.7252C67.0517 28.3293 67.0244 27.903 66.8351 27.5231C66.6458 27.1431 66.3069 26.8344 65.8794 26.6527C65.7012 26.5891 65.508 26.5635 65.3162 26.5783L64.8298 26.7121C64.5823 26.7715 63.2425 28.1012 59.7097 31.8155L54.8969 36.8595L53.7619 35.6561L52.6184 34.4675L57.4142 29.431C61.2116 25.4418 62.2441 24.283 62.3551 23.9338C62.7476 22.6413 61.698 21.5195 60.4436 21.8687C60.0169 21.9875 59.3854 22.6115 55.1443 27.0687L50.34 32.1052L49.2051 30.9018L47.9251 29.6835L52.7379 24.6469C56.962 20.1898 57.5508 19.5361 57.6617 19.0904C57.7976 18.717 57.7799 18.3141 57.6117 17.9508C57.4436 17.5875 57.1354 17.2866 56.7401 17.0996C56.5604 17.0231 56.3605 16.9897 56.161 17.0028C55.9616 17.0158 55.7697 17.0749 55.6051 17.1739V17.1739Z" fill="url(#paint10_linear_272_332)"/>
</g>
</g>
<defs>
<filter id="filter0_d_272_332" x="56" y="2" width="30" height="30" filterUnits="userSpaceOnUse" color-interpolation-filters="sRGB">
<feFlood flood-opacity="0" result="BackgroundImageFix"/>
<feColorMatrix in="SourceAlpha" type="matrix" values="0 0 0 0 0 0 0 0 0 0 0 0 0 0 0 0 0 0 127 0" result="hardAlpha"/>
<feOffset dy="4"/>
<feGaussianBlur stdDeviation="2"/>
<feComposite in2="hardAlpha" operator="out"/>
<feColorMatrix type="matrix" values="0 0 0 0 0 0 0 0 0 0 0 0 0 0 0 0 0 0 0.25 0"/>
<feBlend mode="normal" in2="BackgroundImageFix" result="effect1_dropShadow_272_332"/>
<feBlend mode="normal" in="SourceGraphic" in2="effect1_dropShadow_272_332" result="shape"/>
</filter>
<filter id="filter1_d_272_332" x="13" y="17" width="58" height="58" filterUnits="userSpaceOnUse" color-interpolation-filters="sRGB">
<feFlood flood-opacity="0" result="BackgroundImageFix"/>
<feColorMatrix in="SourceAlpha" type="matrix" values="0 0 0 0 0 0 0 0 0 0 0 0 0 0 0 0 0 0 127 0" result="hardAlpha"/>
<feOffset dy="4"/>
<feGaussianBlur stdDeviation="2"/>
<feComposite in2="hardAlpha" operator="out"/>
<feColorMatrix type="matrix" values="0 0 0 0 0 0 0 0 0 0 0 0 0 0 0 0 0 0 0.25 0"/>
<feBlend mode="normal" in2="BackgroundImageFix" result="effect1_dropShadow_272_332"/>
<feBlend mode="normal" in="SourceGraphic" in2="effect1_dropShadow_272_332" result="shape"/>
</filter>
<linearGradient id="paint0_linear_272_332" x1="70.9994" y1="8.14014" x2="70.9994" y2="17.8605" gradientUnits="userSpaceOnUse">
<stop stop-color="white"/>
<stop offset="1" stop-color="#BFBFBF"/>
</linearGradient>
<linearGradient id="paint1_linear_272_332" x1="71.0002" y1="7.34521" x2="71.0002" y2="18.655" gradientUnits="userSpaceOnUse">
<stop stop-color="white"/>
<stop offset="1" stop-color="#BFBFBF"/>
</linearGradient>
<linearGradient id="paint2_linear_272_332" x1="71" y1="2" x2="71" y2="6.17325" gradientUnits="userSpaceOnUse">
<stop stop-color="white"/>
<stop offset="1" stop-color="#BFBFBF"/>
</linearGradient>
<linearGradient id="paint3_linear_272_332" x1="71" y1="19.8267" x2="71" y2="23.9999" gradientUnits="userSpaceOnUse">
<stop stop-color="white"/>
<stop offset="1" stop-color="#BFBFBF"/>
</linearGradient>
<linearGradient id="paint4_linear_272_332" x1="79.9133" y1="12.2051" x2="79.9133" y2="13.7945" gradientUnits="userSpaceOnUse">
<stop stop-color="white"/>
<stop offset="1" stop-color="#BFBFBF"/>
</linearGradient>
<linearGradient id="paint5_linear_272_332" x1="62.0867" y1="12.2051" x2="62.0867" y2="13.7945" gradientUnits="userSpaceOnUse">
<stop stop-color="white"/>
<stop offset="1" stop-color="#BFBFBF"/>
</linearGradient>
<linearGradient id="paint6_linear_272_332" x1="77.3056" y1="4.98682" x2="77.3056" y2="8.40466" gradientUnits="userSpaceOnUse">
<stop stop-color="white"/>
<stop offset="1" stop-color="#BFBFBF"/>
</linearGradient>
<linearGradient id="paint7_linear_272_332" x1="64.6979" y1="17.5942" x2="64.6979" y2="21.0121" gradientUnits="userSpaceOnUse">
<stop stop-color="white"/>
<stop offset="1" stop-color="#BFBFBF"/>
</linearGradient>
<linearGradient id="paint8_linear_272_332" x1="77.3029" y1="17.5942" x2="77.3029" y2="21.0121" gradientUnits="userSpaceOnUse">
<stop stop-color="white"/>
<stop offset="1" stop-color="#BFBFBF"/>
</linearGradient>
<linearGradient id="paint9_linear_272_332" x1="64.6979" y1="4.98682" x2="64.6979" y2="8.40466" gradientUnits="userSpaceOnUse">
<stop stop-color="white"/>
<stop offset="1" stop-color="#BFBFBF"/>
</linearGradient>
<linearGradient id="paint10_linear_272_332" x1="42" y1="17" x2="42" y2="67" gradientUnits="userSpaceOnUse">
<stop stop-color="white"/>
<stop offset="1" stop-color="#BFBFBF"/>
</linearGradient>
<clipPath id="clip0_272_332">
<rect width="83.75" height="83.75" fill="white"/>
</clipPath>
</defs>
</svg>
