<svg width="84" height="84" viewBox="0 0 84 84" fill="none" xmlns="http://www.w3.org/2000/svg">
<g clip-path="url(#clip0_1326_1020)">
<g filter="url(#filter0_d_1326_1020)">
<path d="M71.5 24C77.2991 24 82 19.2991 82 13.5C82 7.70095 77.2991 3 71.5 3C65.7009 3 61 7.70095 61 13.5C61 19.2991 65.7009 24 71.5 24ZM65.183 17.792C64.3505 16.5689 63.8636 15.0912 63.8636 13.5C63.8636 9.28263 67.2826 5.86364 71.5 5.86364C73.0912 5.86364 74.5689 6.35045 75.792 7.18301L65.183 17.792ZM67.208 19.817L77.817 9.20798C78.6495 10.4311 79.1364 11.9088 79.1364 13.5C79.1364 17.7174 75.7174 21.1364 71.5 21.1364C69.9088 21.1364 68.4311 20.6495 67.208 19.817Z" fill="url(#paint0_linear_1326_1020)"/>
</g>
<g filter="url(#filter1_d_1326_1020)">
<path d="M62 50.2085C61.7867 51.9178 61.4898 53.5629 60.9753 55.1438C60.2225 57.4558 59.1016 59.4319 57.2405 60.7064C56.0862 61.4969 54.8315 61.8526 53.5057 61.9612C51.8955 62.0946 50.3271 61.897 48.834 61.1609C46.5044 60.0148 45.1326 57.9547 44.7436 54.9906C44.522 53.3011 44.6223 51.6165 44.7353 49.9319C44.7813 49.2205 44.8315 48.514 44.8733 47.8026C44.9528 46.4886 45.0657 45.1745 45.187 43.8604C45.2915 42.7488 45.3668 41.6373 45.4672 40.5257C45.5843 39.2512 45.7181 37.9815 45.8352 36.7119C45.9314 35.6646 46.0151 34.6173 46.1113 33.5699C46.2326 32.2855 46.358 31.001 46.4793 29.7166C46.5211 29.2621 46.5546 28.8076 46.6006 28.3531C46.6131 28.2444 46.5755 28.2148 46.5044 28.2098C46.4291 28.2049 46.3538 28.2049 46.2786 28.2049C43.5433 28.2049 40.808 28.2049 38.0728 28.1999C37.8637 28.1999 37.7131 28.1901 37.7131 28.5359C37.7131 28.9904 37.6462 29.4449 37.6211 29.8994C37.5291 31.421 37.458 32.9425 37.3409 34.4641C37.1861 36.4995 37.0356 38.5348 36.8515 40.5653C36.6717 42.5315 36.4877 44.4976 36.2409 46.454C35.7767 50.1344 35.2121 53.7852 34.1037 57.2878C33.7148 58.5229 33.2296 59.6986 32.3597 60.578C31.5776 61.3684 30.67 61.7883 29.6495 61.9316C28.4576 62.0996 27.3158 61.9267 26.2451 61.2696C25.3125 60.6916 24.6182 59.8666 24.4091 58.5821C24.2376 57.52 24.5136 56.5863 24.9444 55.6823C25.5216 54.462 26.2995 53.4196 27.0523 52.3575C29.8336 48.4202 31.8327 44.0234 32.6817 38.9498C33.008 36.9984 33.3007 35.0471 33.5266 33.0759C33.6939 31.6334 33.8068 30.181 33.9615 28.7384C34.0159 28.2098 34.0159 28.2098 33.5726 28.2098C32.481 28.2098 31.3852 28.1703 30.2978 28.2296C28.65 28.3185 27.0565 28.694 25.7014 29.9191C24.7227 30.7985 23.8988 31.8557 23.1585 33.0068C23.1042 33.0858 23.0331 33.1599 23.0038 33.2538C22.6692 34.3653 21.8829 34.2122 21.1385 34.1924C20.9503 34.1875 20.9963 34.0837 21.0339 33.9454C21.7658 31.3666 22.6859 28.9113 24.1038 26.7475C25.0406 25.3198 26.0904 24.0354 27.4831 23.2103C28.3865 22.6719 29.3693 22.4644 30.3564 22.3211C32.9452 21.9457 35.5467 22.0099 38.1439 22.0099C45.9272 22.0099 53.7106 22.0099 61.4981 22C61.7992 22 61.8954 22.0642 61.8913 22.4496C61.8703 24.2478 61.8745 26.051 61.8913 27.8492C61.8954 28.1654 61.8076 28.2197 61.565 28.2148C58.5496 28.2049 55.5341 28.2148 52.5144 28.1999C52.2384 28.1999 52.1589 28.2691 52.1422 28.61C52.0586 30.1908 51.9415 31.7717 51.8369 33.3526C51.7867 34.0887 51.7449 34.8198 51.6989 35.5559C51.5943 37.1516 51.4898 38.7473 51.3852 40.3429C51.3392 41.0148 51.289 41.6867 51.2514 42.3536C51.1343 44.3494 51.0673 46.3502 51.1217 48.351C51.1552 49.5416 51.2765 50.7223 51.4898 51.8931C51.7742 53.4443 52.5437 54.4423 53.7901 54.956C55.1368 55.5093 56.4918 55.534 57.8218 54.9066C59.2229 54.2447 59.9214 52.8762 60.3271 51.2509C60.3689 51.0829 60.4358 50.91 60.4358 50.7371C60.4358 50.2629 60.6366 50.1542 61.0046 50.1986C61.3225 50.2431 61.6487 50.2085 62 50.2085Z" fill="url(#paint1_linear_1326_1020)"/>
</g>
<g filter="url(#filter2_d_1326_1020)">
<path d="M64.2497 35.1628C64.1812 35.2584 63.9765 35.8322 63.826 36.4324C62.9787 39.5319 61.7084 40.8022 58.5524 41.7581C56.571 42.3591 56.5033 42.7141 58.2521 43.1781C59.7827 43.588 61.2035 44.298 61.968 45.0351C62.7198 45.7722 63.4708 47.2606 63.8945 48.8588C64.1135 49.7328 64.2361 49.9652 64.4544 49.9923C64.8231 50.0472 64.9601 49.8283 65.2332 48.7362C65.5613 47.3982 66.2717 45.9233 66.9407 45.1998C67.6511 44.4349 68.9898 43.7249 70.5746 43.2608C71.9134 42.8787 72.0639 42.7967 71.9818 42.4275C71.9547 42.25 71.6131 42.086 70.6702 41.813C67.4735 40.8842 66.1754 39.601 65.2596 36.4738C65.082 35.8044 64.8773 35.2177 64.836 35.1357C64.714 34.944 64.4273 34.9575 64.2497 35.1628Z" fill="url(#paint2_linear_1326_1020)"/>
</g>
<g filter="url(#filter3_d_1326_1020)">
<path d="M18.8331 8.10855C18.7875 8.17223 18.651 8.5548 18.5507 8.95495C17.9858 11.0213 17.139 11.8681 15.0349 12.5054C13.714 12.906 13.6688 13.1427 14.8347 13.4521C15.8551 13.7253 16.8023 14.1987 17.312 14.6901C17.8132 15.1815 18.3139 16.1737 18.5963 17.2392C18.7423 17.8219 18.8241 17.9768 18.9696 17.9948C19.2154 18.0314 19.3067 17.8855 19.4888 17.1575C19.7075 16.2655 20.1811 15.2822 20.6271 14.7998C21.1007 14.2899 21.9932 13.8166 23.0498 13.5072C23.9422 13.2525 24.0426 13.1978 23.9879 12.9517C23.9698 12.8333 23.7421 12.724 23.1135 12.542C20.9823 11.9228 20.1169 11.0674 19.5064 8.98251C19.388 8.53627 19.2515 8.14515 19.224 8.0905C19.1427 7.96266 18.9515 7.97169 18.8331 8.10855Z" fill="url(#paint3_linear_1326_1020)"/>
</g>
<g filter="url(#filter4_d_1326_1020)">
<path d="M13.8331 42.1086C13.7875 42.1722 13.651 42.5548 13.5507 42.9549C12.9858 45.0213 12.139 45.8681 10.0349 46.5054C8.71401 46.906 8.66883 47.1427 9.83473 47.4521C10.8551 47.7253 11.8023 48.1987 12.312 48.6901C12.8132 49.1815 13.3139 50.1737 13.5963 51.2392C13.7423 51.8219 13.8241 51.9768 13.9696 51.9948C14.2154 52.0314 14.3067 51.8855 14.4888 51.1575C14.7075 50.2655 15.1811 49.2822 15.6271 48.7998C16.1007 48.2899 16.9932 47.8166 18.0498 47.5072C18.9422 47.2525 19.0426 47.1978 18.9879 46.9517C18.9698 46.8333 18.7421 46.724 18.1135 46.542C15.9823 45.9228 15.1169 45.0674 14.5064 42.9825C14.388 42.5363 14.2515 42.1451 14.224 42.0905C14.1427 41.9627 13.9515 41.9717 13.8331 42.1086Z" fill="url(#paint4_linear_1326_1020)"/>
</g>
<g filter="url(#filter5_d_1326_1020)">
<path d="M44.8331 62.1086C44.7875 62.1722 44.651 62.5548 44.5507 62.9549C43.9858 65.0213 43.139 65.8681 41.0349 66.5054C39.714 66.906 39.6688 67.1427 40.8347 67.4521C41.8551 67.7253 42.8023 68.1987 43.312 68.6901C43.8132 69.1815 44.3139 70.1737 44.5963 71.2392C44.7423 71.8219 44.8241 71.9768 44.9696 71.9948C45.2154 72.0314 45.3067 71.8855 45.4888 71.1575C45.7075 70.2655 46.1811 69.2822 46.6271 68.7998C47.1007 68.2899 47.9932 67.8166 49.0498 67.5072C49.9422 67.2525 50.0426 67.1978 49.9879 66.9517C49.9698 66.8333 49.7421 66.724 49.1135 66.542C46.9823 65.9228 46.1169 65.0674 45.5064 62.9825C45.388 62.5363 45.2515 62.1451 45.224 62.0905C45.1427 61.9627 44.9515 61.9717 44.8331 62.1086Z" fill="url(#paint5_linear_1326_1020)"/>
</g>
<g filter="url(#filter6_d_1326_1020)">
<path d="M51.8331 6.10855C51.7875 6.17223 51.651 6.5548 51.5507 6.95495C50.9858 9.02126 50.139 9.86813 48.0349 10.5054C46.714 10.906 46.6688 11.1427 47.8347 11.4521C48.8551 11.7253 49.8023 12.1987 50.312 12.6901C50.8132 13.1815 51.3139 14.1737 51.5963 15.2392C51.7423 15.8219 51.8241 15.9768 51.9696 15.9948C52.2154 16.0314 52.3067 15.8855 52.4888 15.1575C52.7075 14.2655 53.1811 13.2822 53.6271 12.7998C54.1007 12.2899 54.9932 11.8166 56.0498 11.5072C56.9422 11.2525 57.0426 11.1978 56.9879 10.9517C56.9698 10.8333 56.7421 10.724 56.1135 10.542C53.9823 9.92278 53.1169 9.06736 52.5064 6.98251C52.388 6.53627 52.2515 6.14515 52.224 6.0905C52.1427 5.96266 51.9515 5.97169 51.8331 6.10855Z" fill="url(#paint6_linear_1326_1020)"/>
</g>
</g>
<defs>
<filter id="filter0_d_1326_1020" x="57" y="3" width="29" height="29" filterUnits="userSpaceOnUse" color-interpolation-filters="sRGB">
<feFlood flood-opacity="0" result="BackgroundImageFix"/>
<feColorMatrix in="SourceAlpha" type="matrix" values="0 0 0 0 0 0 0 0 0 0 0 0 0 0 0 0 0 0 127 0" result="hardAlpha"/>
<feOffset dy="4"/>
<feGaussianBlur stdDeviation="2"/>
<feComposite in2="hardAlpha" operator="out"/>
<feColorMatrix type="matrix" values="0 0 0 0 0 0 0 0 0 0 0 0 0 0 0 0 0 0 0.25 0"/>
<feBlend mode="normal" in2="BackgroundImageFix" result="effect1_dropShadow_1326_1020"/>
<feBlend mode="normal" in="SourceGraphic" in2="effect1_dropShadow_1326_1020" result="shape"/>
</filter>
<filter id="filter1_d_1326_1020" x="17" y="22" width="49" height="48" filterUnits="userSpaceOnUse" color-interpolation-filters="sRGB">
<feFlood flood-opacity="0" result="BackgroundImageFix"/>
<feColorMatrix in="SourceAlpha" type="matrix" values="0 0 0 0 0 0 0 0 0 0 0 0 0 0 0 0 0 0 127 0" result="hardAlpha"/>
<feOffset dy="4"/>
<feGaussianBlur stdDeviation="2"/>
<feComposite in2="hardAlpha" operator="out"/>
<feColorMatrix type="matrix" values="0 0 0 0 0 0 0 0 0 0 0 0 0 0 0 0 0 0 0.25 0"/>
<feBlend mode="normal" in2="BackgroundImageFix" result="effect1_dropShadow_1326_1020"/>
<feBlend mode="normal" in="SourceGraphic" in2="effect1_dropShadow_1326_1020" result="shape"/>
</filter>
<filter id="filter2_d_1326_1020" x="53" y="35" width="23" height="23" filterUnits="userSpaceOnUse" color-interpolation-filters="sRGB">
<feFlood flood-opacity="0" result="BackgroundImageFix"/>
<feColorMatrix in="SourceAlpha" type="matrix" values="0 0 0 0 0 0 0 0 0 0 0 0 0 0 0 0 0 0 127 0" result="hardAlpha"/>
<feOffset dy="4"/>
<feGaussianBlur stdDeviation="2"/>
<feComposite in2="hardAlpha" operator="out"/>
<feColorMatrix type="matrix" values="0 0 0 0 0 0 0 0 0 0 0 0 0 0 0 0 0 0 0.25 0"/>
<feBlend mode="normal" in2="BackgroundImageFix" result="effect1_dropShadow_1326_1020"/>
<feBlend mode="normal" in="SourceGraphic" in2="effect1_dropShadow_1326_1020" result="shape"/>
</filter>
<filter id="filter3_d_1326_1020" x="10" y="8" width="18" height="18" filterUnits="userSpaceOnUse" color-interpolation-filters="sRGB">
<feFlood flood-opacity="0" result="BackgroundImageFix"/>
<feColorMatrix in="SourceAlpha" type="matrix" values="0 0 0 0 0 0 0 0 0 0 0 0 0 0 0 0 0 0 127 0" result="hardAlpha"/>
<feOffset dy="4"/>
<feGaussianBlur stdDeviation="2"/>
<feComposite in2="hardAlpha" operator="out"/>
<feColorMatrix type="matrix" values="0 0 0 0 0 0 0 0 0 0 0 0 0 0 0 0 0 0 0.25 0"/>
<feBlend mode="normal" in2="BackgroundImageFix" result="effect1_dropShadow_1326_1020"/>
<feBlend mode="normal" in="SourceGraphic" in2="effect1_dropShadow_1326_1020" result="shape"/>
</filter>
<filter id="filter4_d_1326_1020" x="5" y="42" width="18" height="18" filterUnits="userSpaceOnUse" color-interpolation-filters="sRGB">
<feFlood flood-opacity="0" result="BackgroundImageFix"/>
<feColorMatrix in="SourceAlpha" type="matrix" values="0 0 0 0 0 0 0 0 0 0 0 0 0 0 0 0 0 0 127 0" result="hardAlpha"/>
<feOffset dy="4"/>
<feGaussianBlur stdDeviation="2"/>
<feComposite in2="hardAlpha" operator="out"/>
<feColorMatrix type="matrix" values="0 0 0 0 0 0 0 0 0 0 0 0 0 0 0 0 0 0 0.25 0"/>
<feBlend mode="normal" in2="BackgroundImageFix" result="effect1_dropShadow_1326_1020"/>
<feBlend mode="normal" in="SourceGraphic" in2="effect1_dropShadow_1326_1020" result="shape"/>
</filter>
<filter id="filter5_d_1326_1020" x="36" y="62" width="18" height="18" filterUnits="userSpaceOnUse" color-interpolation-filters="sRGB">
<feFlood flood-opacity="0" result="BackgroundImageFix"/>
<feColorMatrix in="SourceAlpha" type="matrix" values="0 0 0 0 0 0 0 0 0 0 0 0 0 0 0 0 0 0 127 0" result="hardAlpha"/>
<feOffset dy="4"/>
<feGaussianBlur stdDeviation="2"/>
<feComposite in2="hardAlpha" operator="out"/>
<feColorMatrix type="matrix" values="0 0 0 0 0 0 0 0 0 0 0 0 0 0 0 0 0 0 0.25 0"/>
<feBlend mode="normal" in2="BackgroundImageFix" result="effect1_dropShadow_1326_1020"/>
<feBlend mode="normal" in="SourceGraphic" in2="effect1_dropShadow_1326_1020" result="shape"/>
</filter>
<filter id="filter6_d_1326_1020" x="43" y="6" width="18" height="18" filterUnits="userSpaceOnUse" color-interpolation-filters="sRGB">
<feFlood flood-opacity="0" result="BackgroundImageFix"/>
<feColorMatrix in="SourceAlpha" type="matrix" values="0 0 0 0 0 0 0 0 0 0 0 0 0 0 0 0 0 0 127 0" result="hardAlpha"/>
<feOffset dy="4"/>
<feGaussianBlur stdDeviation="2"/>
<feComposite in2="hardAlpha" operator="out"/>
<feColorMatrix type="matrix" values="0 0 0 0 0 0 0 0 0 0 0 0 0 0 0 0 0 0 0.25 0"/>
<feBlend mode="normal" in2="BackgroundImageFix" result="effect1_dropShadow_1326_1020"/>
<feBlend mode="normal" in="SourceGraphic" in2="effect1_dropShadow_1326_1020" result="shape"/>
</filter>
<linearGradient id="paint0_linear_1326_1020" x1="71.5" y1="3" x2="71.5" y2="24" gradientUnits="userSpaceOnUse">
<stop stop-color="#FBB03B"/>
<stop offset="1" stop-color="#F78140"/>
</linearGradient>
<linearGradient id="paint1_linear_1326_1020" x1="41.5" y1="22" x2="41.5" y2="62" gradientUnits="userSpaceOnUse">
<stop stop-color="#FBB03B"/>
<stop offset="1" stop-color="#F78140"/>
</linearGradient>
<linearGradient id="paint2_linear_1326_1020" x1="64.5" y1="50" x2="64.5" y2="35" gradientUnits="userSpaceOnUse">
<stop stop-color="#F78140"/>
<stop offset="1" stop-color="#FBB03B"/>
</linearGradient>
<linearGradient id="paint3_linear_1326_1020" x1="19" y1="18" x2="19" y2="8" gradientUnits="userSpaceOnUse">
<stop stop-color="#F78140"/>
<stop offset="1" stop-color="#FBB03B"/>
</linearGradient>
<linearGradient id="paint4_linear_1326_1020" x1="14" y1="52" x2="14" y2="42" gradientUnits="userSpaceOnUse">
<stop stop-color="#F78140"/>
<stop offset="1" stop-color="#FBB03B"/>
</linearGradient>
<linearGradient id="paint5_linear_1326_1020" x1="45" y1="72" x2="45" y2="62" gradientUnits="userSpaceOnUse">
<stop stop-color="#F78140"/>
<stop offset="1" stop-color="#FBB03B"/>
</linearGradient>
<linearGradient id="paint6_linear_1326_1020" x1="52" y1="16" x2="52" y2="6" gradientUnits="userSpaceOnUse">
<stop stop-color="#F78140"/>
<stop offset="1" stop-color="#FBB03B"/>
</linearGradient>
<clipPath id="clip0_1326_1020">
<rect width="83.75" height="83.75" fill="white"/>
</clipPath>
</defs>
</svg>
