<svg width="84" height="84" viewBox="0 0 84 84" fill="none" xmlns="http://www.w3.org/2000/svg">
<path d="M81.8348 14.9985C80.8041 20.9217 75.2241 24.8769 69.3763 23.8329C65.3028 23.1061 62.1786 20.1435 61 16.4134C61.6771 16.6878 62.3928 16.8979 63.1407 17.0329C68.9906 18.0769 74.5684 14.1217 75.5991 8.19857C75.912 6.39783 75.7641 4.6271 75.2499 3C79.8762 4.87577 82.7348 9.8321 81.8348 14.9985Z" fill="url(#paint0_linear_1332_1129)"/>
<g filter="url(#filter0_d_1332_1129)">
<path d="M40.495 14.5186L39.0179 17.0292V22.3761L38.2108 25.0138C37.4843 27.3972 35.9346 32.1086 35.7328 32.5614C35.6602 32.7283 36.4592 32.7521 42.0448 32.7521C48.0742 32.7521 48.4375 32.7521 48.3325 32.5296C48.1307 32.0768 46.5971 27.4052 45.8626 24.9662L45.0555 22.3761V17.0292L43.5784 14.5186C42.7712 13.1282 42.0609 12 42.0206 12C41.9802 12 41.3183 13.1282 40.495 14.5186Z" fill="url(#paint1_linear_1332_1129)"/>
<path d="M29.7676 38.0278V40.6099H31.2286C32.6572 40.6099 32.6734 40.6098 32.5846 40.88C32.3828 41.4202 30.3407 46.0839 29.7918 47.2756L29.2188 48.4674H32.9155H36.6204L37.7585 44.5664L38.9046 40.6734H45.2085L46.3547 44.5664L47.4928 48.4674H51.1976H54.8863L54.3213 47.2756C53.7725 46.0998 51.7304 41.4282 51.5286 40.88C51.4479 40.6098 51.4559 40.6099 52.8927 40.6099H54.3536V35.4536H29.7676V38.0278Z" fill="url(#paint2_linear_1332_1129)"/>
<path d="M17.4665 53.7505V56.3246H21.2036C23.278 56.3246 24.965 56.3246 24.965 56.3961C24.965 56.4676 22.0915 61.2981 21.1229 62.752C20.5821 63.5465 19.4682 65.1991 18.6288 66.375C17.3292 68.2102 17.1032 68.6234 17.0145 69.1557C16.9547 69.6963 17.0814 70.241 17.3742 70.7021C17.667 71.1632 18.1089 71.514 18.6288 71.698C19.2099 71.9523 19.3794 71.9681 24.3677 71.9999H29.5092L29.6787 70.3554C29.7783 68.6582 30.2638 67.0046 31.0993 65.5169C31.6943 64.4456 32.5425 63.5311 33.5723 62.8508C34.6021 62.1704 35.7832 61.7442 37.0158 61.608C40.3258 61.3617 43.65 61.3617 46.96 61.608C51.4478 62.2833 53.9015 65.366 54.3858 70.8559L54.4665 71.9999H59.6323C64.6206 71.9999 64.7981 71.9523 65.3712 71.698C65.8911 71.514 66.333 71.1632 66.6258 70.7021C66.9186 70.241 67.0453 69.6963 66.9855 69.1557C66.929 68.6234 66.695 68.2102 65.3712 66.375C64.5641 65.1991 63.3453 63.483 62.756 62.5455C61.7067 60.9565 59.035 56.5073 59.035 56.3722C59.035 56.2372 60.7301 56.3087 62.7964 56.3087H66.5578V51.1445H17.4665V53.7505Z" fill="url(#paint3_linear_1332_1129)"/>
</g>
<g filter="url(#filter1_d_1332_1129)">
<path d="M9.83312 8.10855C9.78747 8.17223 9.651 8.5548 9.55068 8.95495C8.9858 11.0213 8.13895 11.8681 6.03491 12.5054C4.71401 12.906 4.66883 13.1427 5.83473 13.4521C6.85513 13.7253 7.80231 14.1987 8.31203 14.6901C8.81319 15.1815 9.31389 16.1737 9.59633 17.2392C9.7423 17.8219 9.82408 17.9768 9.96958 17.9948C10.2154 18.0314 10.3067 17.8855 10.4888 17.1575C10.7075 16.2655 11.1811 15.2822 11.6271 14.7998C12.1007 14.2899 12.9932 13.8166 14.0498 13.5072C14.9422 13.2525 15.0426 13.1978 14.9879 12.9517C14.9698 12.8333 14.7421 12.724 14.1135 12.542C11.9823 11.9228 11.1169 11.0674 10.5064 8.98251C10.388 8.53627 10.2515 8.14515 10.224 8.0905C10.1427 7.96266 9.95152 7.97169 9.83312 8.10855Z" fill="url(#paint4_linear_1332_1129)"/>
</g>
<g filter="url(#filter2_d_1332_1129)">
<path d="M67.8331 33.1086C67.7875 33.1722 67.651 33.5548 67.5507 33.9549C66.9858 36.0213 66.139 36.8681 64.0349 37.5054C62.714 37.906 62.6688 38.1427 63.8347 38.4521C64.8551 38.7253 65.8023 39.1987 66.312 39.6901C66.8132 40.1815 67.3139 41.1737 67.5963 42.2392C67.7423 42.8219 67.8241 42.9768 67.9696 42.9948C68.2154 43.0314 68.3067 42.8855 68.4888 42.1575C68.7075 41.2655 69.1811 40.2822 69.6271 39.7998C70.1007 39.2899 70.9932 38.8166 72.0498 38.5072C72.9422 38.2525 73.0426 38.1978 72.9879 37.9517C72.9698 37.8333 72.7421 37.724 72.1135 37.542C69.9823 36.9228 69.1169 36.0674 68.5064 33.9825C68.388 33.5363 68.2515 33.1451 68.224 33.0905C68.1427 32.9627 67.9515 32.9717 67.8331 33.1086Z" fill="url(#paint5_linear_1332_1129)"/>
</g>
<g filter="url(#filter3_d_1332_1129)">
<path d="M29.8331 5.10855C29.7875 5.17223 29.651 5.5548 29.5507 5.95495C28.9858 8.02126 28.139 8.86813 26.0349 9.50542C24.714 9.90604 24.6688 10.1427 25.8347 10.4521C26.8551 10.7253 27.8023 11.1987 28.312 11.6901C28.8132 12.1815 29.3139 13.1737 29.5963 14.2392C29.7423 14.8219 29.8241 14.9768 29.9696 14.9948C30.2154 15.0314 30.3067 14.8855 30.4888 14.1575C30.7075 13.2655 31.1811 12.2822 31.6271 11.7998C32.1007 11.2899 32.9932 10.8166 34.0498 10.5072C34.9422 10.2525 35.0426 10.1978 34.9879 9.95166C34.9698 9.83333 34.7421 9.72403 34.1135 9.54201C31.9823 8.92278 31.1169 8.06736 30.5064 5.98251C30.388 5.53627 30.2515 5.14515 30.224 5.0905C30.1427 4.96266 29.9515 4.97169 29.8331 5.10855Z" fill="url(#paint6_linear_1332_1129)"/>
</g>
<g filter="url(#filter4_d_1332_1129)">
<path d="M16.8331 28.1086C16.7875 28.1722 16.651 28.5548 16.5507 28.9549C15.9858 31.0213 15.139 31.8681 13.0349 32.5054C11.714 32.906 11.6688 33.1427 12.8347 33.4521C13.8551 33.7253 14.8023 34.1987 15.312 34.6901C15.8132 35.1815 16.3139 36.1737 16.5963 37.2392C16.7423 37.8219 16.8241 37.9768 16.9696 37.9948C17.2154 38.0314 17.3067 37.8855 17.4888 37.1575C17.7075 36.2655 18.1811 35.2822 18.6271 34.7998C19.1007 34.2899 19.9932 33.8166 21.0498 33.5072C21.9422 33.2525 22.0426 33.1978 21.9879 32.9517C21.9698 32.8333 21.7421 32.724 21.1135 32.542C18.9823 31.9228 18.1169 31.0674 17.5064 28.9825C17.388 28.5363 17.2515 28.1451 17.224 28.0905C17.1427 27.9627 16.9515 27.9717 16.8331 28.1086Z" fill="url(#paint7_linear_1332_1129)"/>
</g>
<defs>
<filter id="filter0_d_1332_1129" x="13" y="12" width="58" height="68" filterUnits="userSpaceOnUse" color-interpolation-filters="sRGB">
<feFlood flood-opacity="0" result="BackgroundImageFix"/>
<feColorMatrix in="SourceAlpha" type="matrix" values="0 0 0 0 0 0 0 0 0 0 0 0 0 0 0 0 0 0 127 0" result="hardAlpha"/>
<feOffset dy="4"/>
<feGaussianBlur stdDeviation="2"/>
<feComposite in2="hardAlpha" operator="out"/>
<feColorMatrix type="matrix" values="0 0 0 0 0 0 0 0 0 0 0 0 0 0 0 0 0 0 0.25 0"/>
<feBlend mode="normal" in2="BackgroundImageFix" result="effect1_dropShadow_1332_1129"/>
<feBlend mode="normal" in="SourceGraphic" in2="effect1_dropShadow_1332_1129" result="shape"/>
</filter>
<filter id="filter1_d_1332_1129" x="1" y="8" width="18" height="18" filterUnits="userSpaceOnUse" color-interpolation-filters="sRGB">
<feFlood flood-opacity="0" result="BackgroundImageFix"/>
<feColorMatrix in="SourceAlpha" type="matrix" values="0 0 0 0 0 0 0 0 0 0 0 0 0 0 0 0 0 0 127 0" result="hardAlpha"/>
<feOffset dy="4"/>
<feGaussianBlur stdDeviation="2"/>
<feComposite in2="hardAlpha" operator="out"/>
<feColorMatrix type="matrix" values="0 0 0 0 0 0 0 0 0 0 0 0 0 0 0 0 0 0 0.25 0"/>
<feBlend mode="normal" in2="BackgroundImageFix" result="effect1_dropShadow_1332_1129"/>
<feBlend mode="normal" in="SourceGraphic" in2="effect1_dropShadow_1332_1129" result="shape"/>
</filter>
<filter id="filter2_d_1332_1129" x="59" y="33" width="18" height="18" filterUnits="userSpaceOnUse" color-interpolation-filters="sRGB">
<feFlood flood-opacity="0" result="BackgroundImageFix"/>
<feColorMatrix in="SourceAlpha" type="matrix" values="0 0 0 0 0 0 0 0 0 0 0 0 0 0 0 0 0 0 127 0" result="hardAlpha"/>
<feOffset dy="4"/>
<feGaussianBlur stdDeviation="2"/>
<feComposite in2="hardAlpha" operator="out"/>
<feColorMatrix type="matrix" values="0 0 0 0 0 0 0 0 0 0 0 0 0 0 0 0 0 0 0.25 0"/>
<feBlend mode="normal" in2="BackgroundImageFix" result="effect1_dropShadow_1332_1129"/>
<feBlend mode="normal" in="SourceGraphic" in2="effect1_dropShadow_1332_1129" result="shape"/>
</filter>
<filter id="filter3_d_1332_1129" x="21" y="5" width="18" height="18" filterUnits="userSpaceOnUse" color-interpolation-filters="sRGB">
<feFlood flood-opacity="0" result="BackgroundImageFix"/>
<feColorMatrix in="SourceAlpha" type="matrix" values="0 0 0 0 0 0 0 0 0 0 0 0 0 0 0 0 0 0 127 0" result="hardAlpha"/>
<feOffset dy="4"/>
<feGaussianBlur stdDeviation="2"/>
<feComposite in2="hardAlpha" operator="out"/>
<feColorMatrix type="matrix" values="0 0 0 0 0 0 0 0 0 0 0 0 0 0 0 0 0 0 0.25 0"/>
<feBlend mode="normal" in2="BackgroundImageFix" result="effect1_dropShadow_1332_1129"/>
<feBlend mode="normal" in="SourceGraphic" in2="effect1_dropShadow_1332_1129" result="shape"/>
</filter>
<filter id="filter4_d_1332_1129" x="8" y="28" width="18" height="18" filterUnits="userSpaceOnUse" color-interpolation-filters="sRGB">
<feFlood flood-opacity="0" result="BackgroundImageFix"/>
<feColorMatrix in="SourceAlpha" type="matrix" values="0 0 0 0 0 0 0 0 0 0 0 0 0 0 0 0 0 0 127 0" result="hardAlpha"/>
<feOffset dy="4"/>
<feGaussianBlur stdDeviation="2"/>
<feComposite in2="hardAlpha" operator="out"/>
<feColorMatrix type="matrix" values="0 0 0 0 0 0 0 0 0 0 0 0 0 0 0 0 0 0 0.25 0"/>
<feBlend mode="normal" in2="BackgroundImageFix" result="effect1_dropShadow_1332_1129"/>
<feBlend mode="normal" in="SourceGraphic" in2="effect1_dropShadow_1332_1129" result="shape"/>
</filter>
<linearGradient id="paint0_linear_1332_1129" x1="71.5" y1="3" x2="71.5" y2="24" gradientUnits="userSpaceOnUse">
<stop stop-color="#FBB03B"/>
<stop offset="1" stop-color="#F78140"/>
</linearGradient>
<linearGradient id="paint1_linear_1332_1129" x1="42.0373" y1="12" x2="42.0373" y2="32.7521" gradientUnits="userSpaceOnUse">
<stop stop-color="#FBB03B"/>
<stop offset="1" stop-color="#F78140"/>
</linearGradient>
<linearGradient id="paint2_linear_1332_1129" x1="42.0525" y1="35.4536" x2="42.0525" y2="48.4674" gradientUnits="userSpaceOnUse">
<stop stop-color="#FBB03B"/>
<stop offset="1" stop-color="#F78140"/>
</linearGradient>
<linearGradient id="paint3_linear_1332_1129" x1="42" y1="51.1445" x2="42" y2="71.9999" gradientUnits="userSpaceOnUse">
<stop stop-color="#FBB03B"/>
<stop offset="1" stop-color="#F78140"/>
</linearGradient>
<linearGradient id="paint4_linear_1332_1129" x1="10" y1="18" x2="10" y2="8" gradientUnits="userSpaceOnUse">
<stop stop-color="#F78140"/>
<stop offset="1" stop-color="#FBB03B"/>
</linearGradient>
<linearGradient id="paint5_linear_1332_1129" x1="68" y1="43" x2="68" y2="33" gradientUnits="userSpaceOnUse">
<stop stop-color="#F78140"/>
<stop offset="1" stop-color="#FBB03B"/>
</linearGradient>
<linearGradient id="paint6_linear_1332_1129" x1="30" y1="15" x2="30" y2="5" gradientUnits="userSpaceOnUse">
<stop stop-color="#F78140"/>
<stop offset="1" stop-color="#FBB03B"/>
</linearGradient>
<linearGradient id="paint7_linear_1332_1129" x1="17" y1="38" x2="17" y2="28" gradientUnits="userSpaceOnUse">
<stop stop-color="#F78140"/>
<stop offset="1" stop-color="#FBB03B"/>
</linearGradient>
</defs>
</svg>
