<svg width="84" height="84" viewBox="0 0 84 84" fill="none" xmlns="http://www.w3.org/2000/svg">
<g clip-path="url(#clip0_389_74)">
<path d="M81.8348 14.9985C80.8041 20.9217 75.2241 24.8769 69.3763 23.8329C65.3028 23.1061 62.1786 20.1435 61 16.4134C61.6771 16.6878 62.3928 16.8979 63.1407 17.0329C68.9906 18.0769 74.5684 14.1217 75.5991 8.19857C75.912 6.39783 75.7641 4.6271 75.2499 3C79.8762 4.87577 82.7348 9.8321 81.8348 14.9985Z" fill="url(#paint0_linear_389_74)"/>
<g filter="url(#filter0_d_389_74)">
<path d="M78.8311 34.3946C78.1062 34.2152 77.3506 34.1591 76.5951 34.2283L74.799 34.2722L74.7321 37.935L74.6712 41.5919L76.3383 41.5633C78.2455 41.5222 78.5452 41.4496 79.0891 40.9024C79.6329 40.3551 79.9139 39.5227 79.9534 37.6853C79.9759 35.5442 79.7343 34.814 78.8311 34.3946Z" fill="url(#paint1_linear_389_74)"/>
<path d="M71.5347 28.3387C71.0948 28.1287 70.6634 28.0704 69.306 28.1079C68.5789 28.1017 67.8494 28.1788 67.1317 28.3377C66.5291 28.5588 66.0142 28.9835 65.6792 29.5359C65.533 29.8089 65.4367 32.3907 65.3351 38.7564C65.2036 47.0646 65.2147 47.6374 65.4875 48.0041C65.7254 48.3082 66.0295 48.5533 66.3784 48.7222C66.8987 49.0002 67.196 49.0446 68.6757 49.0329C69.413 49.038 70.1526 48.9725 70.8843 48.8373C71.2523 48.7066 71.5848 48.4843 71.8493 48.192C72.1138 47.8998 72.3014 47.5475 72.3937 47.1697C72.5623 46.3931 72.8236 30.1335 72.6589 29.6351C72.5732 29.3496 72.4293 29.0874 72.2361 28.8645C72.0428 28.6416 71.8041 28.4627 71.5347 28.3387V28.3387Z" fill="url(#paint2_linear_389_74)"/>
<path d="M62.8873 23.1273C60.912 22.9947 58.919 23.0557 56.9366 23.3095C56.5348 23.4785 56.1701 23.7309 55.8675 24.0492C55.565 24.3674 55.3317 24.7441 55.1838 25.1534C55.0213 25.6374 54.9351 28.8388 54.7335 39.0496C54.6121 46.3399 54.5617 52.5054 54.6385 52.7372C54.9226 53.4229 55.4117 53.9965 56.0417 54.3826C56.3599 54.5434 57.1777 54.5793 59.2772 54.5622C60.3308 54.5821 61.3885 54.5136 62.4392 54.3577C62.7583 54.2104 63.0419 53.9917 63.2671 53.7193C63.4924 53.4469 63.653 53.1284 63.7359 52.7896C63.9601 52.1518 64.021 50.1324 64.2154 38.6235C64.3814 28.4371 64.3835 25.0685 64.2406 24.6397C64.1334 24.3041 63.9582 23.9972 63.7256 23.7372C63.493 23.4773 63.2079 23.2698 62.8873 23.1273Z" fill="url(#paint3_linear_389_74)"/>
<path d="M41.7218 35.0354L30.7055 35.2993L30.6445 38.9562L30.5836 42.613L41.6113 42.3606L52.6216 42.1027L52.6828 38.4342L52.7437 34.7773L41.7218 35.0354Z" fill="url(#paint4_linear_389_74)"/>
<path d="M27.0006 24.015C25.0022 23.844 22.9814 23.8784 20.9697 24.1176C20.6496 24.2704 20.3599 24.4838 20.1174 24.7455C19.8749 25.0072 19.6844 25.312 19.5571 25.6421C19.4016 26.0733 19.2825 29.4452 19.0991 39.6262C18.893 51.1354 18.879 53.1535 19.0877 53.7793C19.1582 54.1162 19.3072 54.4281 19.5228 54.6901C19.7385 54.9522 20.0149 55.1573 20.33 55.2889C21.3766 55.3936 22.4341 55.4132 23.4922 55.3476C25.5694 55.2843 26.3955 55.2088 26.7092 55.0306C27.3579 54.6194 27.8702 54.0198 28.1727 53.3174C28.2597 53.0811 28.4212 46.9184 28.5602 39.6218C28.7501 29.4113 28.754 26.2356 28.6062 25.766C28.3232 24.9883 27.7491 24.3622 27.0006 24.015V24.015Z" fill="url(#paint5_linear_389_74)"/>
<path d="M16.9154 29.6626C16.002 29.3625 15.0235 29.2718 14.05 29.3968C12.1419 29.4847 11.4196 29.9024 10.9667 31.1138C10.7923 31.6099 10.4786 47.865 10.59 48.669C10.6675 49.0449 10.8426 49.3892 11.098 49.6683C11.3535 49.9473 11.6805 50.1513 12.0469 50.2604C12.7681 50.3679 13.5027 50.3966 14.2378 50.3459C15.7242 50.2931 16.0177 50.2382 16.5506 49.9311C16.9054 49.745 17.2184 49.4848 17.4674 49.1689C17.7503 48.7926 17.7746 48.2071 17.9395 39.9798C18.0298 34.9537 18.0377 31.041 17.9431 30.8156C17.7412 30.323 17.3803 29.9181 16.9154 29.6626V29.6626Z" fill="url(#paint6_linear_389_74)"/>
<path d="M6.81841 35.8725C4.77634 35.9349 4.36453 36.0515 3.88586 36.8309C3.50482 37.4204 3.3772 38.1901 3.38387 39.7865C3.39054 41.3829 3.60849 42.1254 4.15812 42.6716C4.70774 43.2179 4.97617 43.2455 6.88354 43.1927L8.55684 43.1465L8.61785 39.4896L8.67921 35.8094L6.81841 35.8725Z" fill="url(#paint7_linear_389_74)"/>
</g>
</g>
<defs>
<filter id="filter0_d_389_74" x="-0.616364" y="23.0591" width="84.5712" height="40.3264" filterUnits="userSpaceOnUse" color-interpolation-filters="sRGB">
<feFlood flood-opacity="0" result="BackgroundImageFix"/>
<feColorMatrix in="SourceAlpha" type="matrix" values="0 0 0 0 0 0 0 0 0 0 0 0 0 0 0 0 0 0 127 0" result="hardAlpha"/>
<feOffset dy="4"/>
<feGaussianBlur stdDeviation="2"/>
<feComposite in2="hardAlpha" operator="out"/>
<feColorMatrix type="matrix" values="0 0 0 0 0 0 0 0 0 0 0 0 0 0 0 0 0 0 0.25 0"/>
<feBlend mode="normal" in2="BackgroundImageFix" result="effect1_dropShadow_389_74"/>
<feBlend mode="normal" in="SourceGraphic" in2="effect1_dropShadow_389_74" result="shape"/>
</filter>
<linearGradient id="paint0_linear_389_74" x1="71.5" y1="3" x2="71.5" y2="24" gradientUnits="userSpaceOnUse">
<stop stop-color="white"/>
<stop offset="1" stop-color="#BFBFBF"/>
</linearGradient>
<linearGradient id="paint1_linear_389_74" x1="79.5619" y1="34.9532" x2="73.8124" y2="40.7384" gradientUnits="userSpaceOnUse">
<stop stop-color="white"/>
<stop offset="1" stop-color="#BFBFBF"/>
</linearGradient>
<linearGradient id="paint2_linear_389_74" x1="75.4656" y1="32.0661" x2="62.5248" y2="45.0874" gradientUnits="userSpaceOnUse">
<stop stop-color="white"/>
<stop offset="1" stop-color="#BFBFBF"/>
</linearGradient>
<linearGradient id="paint3_linear_389_74" x1="69.2131" y1="29.1849" x2="50.0034" y2="48.5141" gradientUnits="userSpaceOnUse">
<stop stop-color="white"/>
<stop offset="1" stop-color="#BFBFBF"/>
</linearGradient>
<linearGradient id="paint4_linear_389_74" x1="49.131" y1="31.187" x2="34.202" y2="46.209" gradientUnits="userSpaceOnUse">
<stop stop-color="white"/>
<stop offset="1" stop-color="#BFBFBF"/>
</linearGradient>
<linearGradient id="paint5_linear_389_74" x1="33.2963" y1="30.0098" x2="14.105" y2="49.3205" gradientUnits="userSpaceOnUse">
<stop stop-color="white"/>
<stop offset="1" stop-color="#BFBFBF"/>
</linearGradient>
<linearGradient id="paint6_linear_389_74" x1="20.7714" y1="33.3677" x2="7.81295" y2="46.4068" gradientUnits="userSpaceOnUse">
<stop stop-color="white"/>
<stop offset="1" stop-color="#BFBFBF"/>
</linearGradient>
<linearGradient id="paint7_linear_389_74" x1="9.50763" y1="36.6327" x2="3.83002" y2="42.3456" gradientUnits="userSpaceOnUse">
<stop stop-color="white"/>
<stop offset="1" stop-color="#BFBFBF"/>
</linearGradient>
<clipPath id="clip0_389_74">
<rect width="83.75" height="83.75" fill="white"/>
</clipPath>
</defs>
</svg>
