<svg width="84" height="84" viewBox="0 0 84 84" fill="none" xmlns="http://www.w3.org/2000/svg">
<g clip-path="url(#clip0_556_23)">
<g filter="url(#filter0_d_556_23)">
<path d="M70.9994 17.8605C73.6837 17.8605 75.8597 15.6845 75.8597 13.0003C75.8597 10.3161 73.6837 8.14014 70.9994 8.14014C68.3152 8.14014 66.1392 10.3161 66.1392 13.0003C66.1392 15.6845 68.3152 17.8605 70.9994 17.8605Z" fill="url(#paint0_linear_556_23)"/>
<path d="M71.0002 18.655C67.882 18.655 65.3452 16.1182 65.3452 13.0001C65.3452 9.88194 67.882 7.34521 71.0002 7.34521C74.1184 7.34521 76.6551 9.88194 76.6551 13.0001C76.6551 16.1182 74.1184 18.655 71.0002 18.655ZM71.0002 8.9346C68.7575 8.9346 66.9346 10.7574 66.9346 13.0001C66.9346 15.2427 68.7575 17.0656 71.0002 17.0656C73.2428 17.0656 75.0657 15.2427 75.0657 13.0001C75.0657 10.7574 73.2428 8.9346 71.0002 8.9346Z" fill="url(#paint1_linear_556_23)"/>
<path d="M71 6.17325C70.56 6.17325 70.2053 5.81856 70.2053 5.37856V2.79469C70.2053 2.35694 70.56 2 71 2C71.4378 2 71.7947 2.35469 71.7947 2.79469V5.37856C71.7947 5.81631 71.4378 6.17325 71 6.17325Z" fill="url(#paint2_linear_556_23)"/>
<path d="M71 23.9999C70.56 23.9999 70.2053 23.6452 70.2053 23.2052V20.6214C70.2053 20.1836 70.56 19.8267 71 19.8267C71.4378 19.8267 71.7947 20.1836 71.7947 20.6214V23.2052C71.7947 23.6452 71.4378 23.9999 71 23.9999Z" fill="url(#paint3_linear_556_23)"/>
<path d="M81.2053 13.7945H78.6214C78.1836 13.7945 77.8267 13.4398 77.8267 12.9998C77.8267 12.5598 78.1836 12.2051 78.6214 12.2051H81.2053C81.643 12.2051 82 12.5598 82 12.9998C82 13.4375 81.6453 13.7945 81.2053 13.7945Z" fill="url(#paint4_linear_556_23)"/>
<path d="M63.3786 13.7945H60.7947C60.3569 13.7945 60 13.4375 60 12.9998C60 12.5598 60.3569 12.2051 60.7947 12.2051H63.3786C63.8186 12.2051 64.1733 12.5598 64.1733 12.9998C64.1733 13.4375 63.8164 13.7945 63.3786 13.7945Z" fill="url(#paint5_linear_556_23)"/>
<path d="M76.3907 8.40466C76.1865 8.40466 75.9844 8.32609 75.8295 8.17119C75.5197 7.8614 75.5197 7.35854 75.8295 7.0465L77.6569 5.21916C77.9667 4.90937 78.4695 4.90937 78.7816 5.21916C79.0914 5.52896 79.0914 6.03181 78.7816 6.34385L76.952 8.17344C76.7971 8.32834 76.5928 8.40466 76.3907 8.40466Z" fill="url(#paint6_linear_556_23)"/>
<path d="M63.7831 21.0121C63.5788 21.0121 63.3768 20.9335 63.2219 20.7786C62.9121 20.4688 62.9121 19.966 63.2219 19.6539L65.0492 17.8266C65.359 17.5168 65.8619 17.5168 66.1739 17.8266C66.4837 18.1364 66.4837 18.6392 66.1739 18.9513L64.3466 20.7786C64.1917 20.9335 63.9874 21.0121 63.7831 21.0121Z" fill="url(#paint7_linear_556_23)"/>
<path d="M78.2154 21.0121C78.0111 21.0121 77.8091 20.9335 77.6542 20.7786L75.8268 18.9513C75.517 18.6415 75.517 18.1386 75.8268 17.8266C76.1366 17.5168 76.6395 17.5168 76.9515 17.8266L78.7789 19.6539C79.0887 19.9637 79.0887 20.4666 78.7789 20.7786C78.624 20.9335 78.4197 21.0121 78.2154 21.0121Z" fill="url(#paint8_linear_556_23)"/>
<path d="M65.6104 8.40466C65.4062 8.40466 65.2041 8.32609 65.0492 8.17119L63.2219 6.34385C62.9121 6.03406 62.9121 5.5312 63.2219 5.21916C63.5316 4.90937 64.0345 4.90937 64.3466 5.21916L66.1739 7.0465C66.4837 7.3563 66.4837 7.85915 66.1739 8.17119C66.019 8.32834 65.8147 8.40466 65.6104 8.40466Z" fill="url(#paint9_linear_556_23)"/>
</g>
<g filter="url(#filter1_d_556_23)">
<path d="M34.831 46.147C34.8081 47.2744 34.3342 48.3476 33.5121 49.1335C32.69 49.9195 31.586 50.3548 30.4396 50.3452C29.2955 50.3684 28.1881 49.9477 27.3568 49.1741C26.5256 48.4006 26.0372 47.3362 25.9974 46.2113C26.0202 45.09 26.4891 44.0223 27.3034 43.2373C28.1177 42.4524 29.2124 42.0128 30.3525 42.0131C31.5028 41.9803 32.6195 42.3967 33.4587 43.1713C34.2978 43.9459 34.7912 45.0157 34.831 46.147V46.147ZM32.6534 37.8434C31.5069 37.8704 30.3957 37.4514 29.5613 36.6774C28.7269 35.9035 28.2366 34.8369 28.1967 33.7094C28.2034 33.1534 28.3213 32.6041 28.5437 32.0929C28.7662 31.5818 29.0889 31.1187 29.4933 30.7302C29.8977 30.3417 30.3759 30.0352 30.9007 29.8285C31.4255 29.6218 31.9866 29.5189 32.5518 29.5255C33.696 29.4984 34.805 29.9154 35.639 30.6863C36.473 31.4573 36.965 32.5202 37.0085 33.6452C36.9859 34.7591 36.5231 35.8205 35.7181 36.6042C34.9132 37.388 33.8295 37.8325 32.697 37.8434H32.6534ZM50.306 29.4898C50.2813 30.616 49.8065 31.6872 48.9846 32.4716C48.1627 33.2561 47.0598 33.6905 45.9147 33.6808C44.7693 33.7079 43.6592 33.2899 42.825 32.5174C41.9908 31.7449 41.4996 30.6802 41.458 29.554C41.4808 28.4265 41.9548 27.3535 42.7769 26.5675C43.599 25.7816 44.703 25.3462 45.8493 25.3558C47.0033 25.3172 48.1257 25.7311 48.9696 26.5063C49.8134 27.2815 50.3098 28.3546 50.3496 29.4898H50.306ZM23.7618 62.4829C33.9237 63.2754 30.2944 53.1297 39.6651 53.0369L43.7299 56.2285C44.7896 67.7593 29.8009 70.3367 23.8054 62.4829H23.7618ZM54.8789 47.6677C58.0363 43.0054 67.8062 27.3693 67.8062 27.3693C68.5829 26.077 66.8553 24.7204 65.6287 25.6771C65.6287 25.6771 51.1117 37.5721 46.8075 41.3847C43.4177 44.3692 43.4032 45.7258 42.3072 50.6665L46.0235 53.5795C51.0101 51.6161 52.4255 51.359 54.9224 47.6677H54.8789ZM26.9628 57.6635C24.6228 55.7789 22.7287 53.4152 21.4125 50.7369C20.0962 48.0587 19.3895 45.1303 19.3414 42.1558C19.2906 30.6964 29.1331 21.279 41.3636 21.2004C49.856 21.2004 55.6991 25.1702 55.7354 28.3403L59.4154 25.313C57.1798 20.6864 50.1609 16.8951 41.3273 17.0022C26.6797 17.1165 14.8847 28.3831 15.0009 42.1844C15.0611 48.05 17.2786 53.6958 21.2431 58.0777C23.3263 59.1272 25.9031 58.7845 27.0064 57.6778L26.9628 57.6635ZM55.2708 53.6938C57.6081 57.7992 52.2803 60.7123 47.4244 62.0046C46.7903 63.8131 45.7538 65.4597 44.3904 66.824C56.0039 65.5888 64.431 57.8563 58.2468 50.4024C57.4243 51.6306 56.4353 52.7428 55.3071 53.7081L55.2708 53.6938Z" fill="url(#paint10_linear_556_23)"/>
</g>
</g>
<defs>
<filter id="filter0_d_556_23" x="56" y="2" width="30" height="30" filterUnits="userSpaceOnUse" color-interpolation-filters="sRGB">
<feFlood flood-opacity="0" result="BackgroundImageFix"/>
<feColorMatrix in="SourceAlpha" type="matrix" values="0 0 0 0 0 0 0 0 0 0 0 0 0 0 0 0 0 0 127 0" result="hardAlpha"/>
<feOffset dy="4"/>
<feGaussianBlur stdDeviation="2"/>
<feComposite in2="hardAlpha" operator="out"/>
<feColorMatrix type="matrix" values="0 0 0 0 0 0 0 0 0 0 0 0 0 0 0 0 0 0 0.25 0"/>
<feBlend mode="normal" in2="BackgroundImageFix" result="effect1_dropShadow_556_23"/>
<feBlend mode="normal" in="SourceGraphic" in2="effect1_dropShadow_556_23" result="shape"/>
</filter>
<filter id="filter1_d_556_23" x="11" y="17" width="61" height="58" filterUnits="userSpaceOnUse" color-interpolation-filters="sRGB">
<feFlood flood-opacity="0" result="BackgroundImageFix"/>
<feColorMatrix in="SourceAlpha" type="matrix" values="0 0 0 0 0 0 0 0 0 0 0 0 0 0 0 0 0 0 127 0" result="hardAlpha"/>
<feOffset dy="4"/>
<feGaussianBlur stdDeviation="2"/>
<feComposite in2="hardAlpha" operator="out"/>
<feColorMatrix type="matrix" values="0 0 0 0 0 0 0 0 0 0 0 0 0 0 0 0 0 0 0.25 0"/>
<feBlend mode="normal" in2="BackgroundImageFix" result="effect1_dropShadow_556_23"/>
<feBlend mode="normal" in="SourceGraphic" in2="effect1_dropShadow_556_23" result="shape"/>
</filter>
<linearGradient id="paint0_linear_556_23" x1="70.9994" y1="8.14014" x2="70.9994" y2="17.8605" gradientUnits="userSpaceOnUse">
<stop stop-color="white"/>
<stop offset="1" stop-color="#BFBFBF"/>
</linearGradient>
<linearGradient id="paint1_linear_556_23" x1="71.0002" y1="7.34521" x2="71.0002" y2="18.655" gradientUnits="userSpaceOnUse">
<stop stop-color="white"/>
<stop offset="1" stop-color="#BFBFBF"/>
</linearGradient>
<linearGradient id="paint2_linear_556_23" x1="71" y1="2" x2="71" y2="6.17325" gradientUnits="userSpaceOnUse">
<stop stop-color="white"/>
<stop offset="1" stop-color="#BFBFBF"/>
</linearGradient>
<linearGradient id="paint3_linear_556_23" x1="71" y1="19.8267" x2="71" y2="23.9999" gradientUnits="userSpaceOnUse">
<stop stop-color="white"/>
<stop offset="1" stop-color="#BFBFBF"/>
</linearGradient>
<linearGradient id="paint4_linear_556_23" x1="79.9133" y1="12.2051" x2="79.9133" y2="13.7945" gradientUnits="userSpaceOnUse">
<stop stop-color="white"/>
<stop offset="1" stop-color="#BFBFBF"/>
</linearGradient>
<linearGradient id="paint5_linear_556_23" x1="62.0867" y1="12.2051" x2="62.0867" y2="13.7945" gradientUnits="userSpaceOnUse">
<stop stop-color="white"/>
<stop offset="1" stop-color="#BFBFBF"/>
</linearGradient>
<linearGradient id="paint6_linear_556_23" x1="77.3056" y1="4.98682" x2="77.3056" y2="8.40466" gradientUnits="userSpaceOnUse">
<stop stop-color="white"/>
<stop offset="1" stop-color="#BFBFBF"/>
</linearGradient>
<linearGradient id="paint7_linear_556_23" x1="64.6979" y1="17.5942" x2="64.6979" y2="21.0121" gradientUnits="userSpaceOnUse">
<stop stop-color="white"/>
<stop offset="1" stop-color="#BFBFBF"/>
</linearGradient>
<linearGradient id="paint8_linear_556_23" x1="77.3029" y1="17.5942" x2="77.3029" y2="21.0121" gradientUnits="userSpaceOnUse">
<stop stop-color="white"/>
<stop offset="1" stop-color="#BFBFBF"/>
</linearGradient>
<linearGradient id="paint9_linear_556_23" x1="64.6979" y1="4.98682" x2="64.6979" y2="8.40466" gradientUnits="userSpaceOnUse">
<stop stop-color="white"/>
<stop offset="1" stop-color="#BFBFBF"/>
</linearGradient>
<linearGradient id="paint10_linear_556_23" x1="41.5" y1="17" x2="41.5" y2="67" gradientUnits="userSpaceOnUse">
<stop stop-color="white"/>
<stop offset="1" stop-color="#BFBFBF"/>
</linearGradient>
<clipPath id="clip0_556_23">
<rect width="83.75" height="83.75" fill="white"/>
</clipPath>
</defs>
</svg>
