<svg width="84" height="84" viewBox="0 0 84 84" fill="none" xmlns="http://www.w3.org/2000/svg">
<g clip-path="url(#clip0_275_359)">
<g filter="url(#filter0_d_275_359)">
<path d="M81.4994 16.9998H77.3014H74.978H67.022H64.6986H60.5006C60.2245 16.9998 60 16.7753 60 16.4992V15.5002C60 15.2241 60.2245 14.9996 60.5006 14.9996H64.0857C64.0363 14.6719 64.0004 14.3419 64.0004 14.0007C64.0004 10.1352 67.1343 7.00142 71 7.00142C74.8657 7.00142 77.9996 10.1352 77.9996 14.0007C77.9996 14.3419 77.9637 14.6741 77.9143 14.9996H81.4994C81.7755 14.9996 82 15.2241 82 15.5002V16.4992C82 16.7753 81.7755 16.9998 81.4994 16.9998ZM71 8.99929C68.2388 8.99929 66.0006 11.2374 66.0006 13.9985C66.0006 14.3442 66.0478 14.6741 66.1151 14.9974H75.8849C75.9522 14.6741 75.9994 14.3419 75.9994 13.9985C75.9994 11.2396 73.7612 8.99929 71 8.99929ZM77.7167 8.69624C77.5214 8.89154 77.2049 8.89154 77.0096 8.69624L76.3024 7.98913C76.1071 7.79383 76.1071 7.47732 76.3024 7.28202L78.4239 5.16068C78.6192 4.96538 78.9357 4.96538 79.131 5.16068L79.8382 5.86779C80.0335 6.06309 80.0335 6.37961 79.8382 6.57491L77.7167 8.69624ZM71.5006 6.00024H70.5016C70.2255 6.00024 70.001 5.77576 70.001 5.49965V2.50059C70.001 2.22448 70.2255 2 70.5016 2H71.5006C71.7767 2 72.0012 2.22448 72.0012 2.50059V5.49965C71.999 5.77576 71.7767 6.00024 71.5006 6.00024ZM64.9904 8.69624C64.7951 8.89154 64.4786 8.89154 64.2833 8.69624L62.1618 6.57491C61.9665 6.37961 61.9665 6.06309 62.1618 5.86779L62.869 5.16068C63.0643 4.96538 63.3808 4.96538 63.5761 5.16068L65.6976 7.28202C65.8929 7.47732 65.8929 7.79383 65.6976 7.98913L64.9904 8.69624ZM63.4998 18.9999H78.5002C78.7763 18.9999 79.0008 19.2244 79.0008 19.5005V20.4994C79.0008 20.7755 78.7763 21 78.5002 21H63.4998C63.2237 21 62.9992 20.7755 62.9992 20.4994V19.5005C62.9992 19.2244 63.2237 18.9999 63.4998 18.9999Z" fill="url(#paint0_linear_275_359)"/>
</g>
<g filter="url(#filter1_d_275_359)">
<path d="M55.6051 17.1739C55.0163 17.4413 43.2061 29.8024 42.805 30.5452C42.5632 31.0106 42.4633 31.5222 42.5149 32.031C42.4853 32.5557 42.5824 33.0799 42.7999 33.57C43.0175 34.06 43.3506 34.505 43.7778 34.8761L44.5458 35.7155L42.9671 37.3646L41.3885 39.0212L33.0172 30.2853C23.8693 20.7396 24.1595 21.007 22.5467 20.695C19.432 20.0859 16.5135 23.1092 17.0682 26.4001C17.3498 28.0641 17.2389 27.9378 23.2805 34.2223C28.3323 39.4892 28.8699 40.0092 29.5953 40.3806C30.1413 40.6887 30.7648 40.8773 31.4126 40.9303C32.0605 40.9834 32.7134 40.8993 33.3158 40.6852C33.5719 40.5812 33.7084 40.6852 35.1761 42.2155L36.7719 43.872L28.1531 52.9126C19.7904 61.6857 19.5344 61.9754 19.3637 62.5697C19.1601 63.1554 19.1317 63.7766 19.281 64.3746C19.4303 64.9726 19.7525 65.5275 20.217 65.9868C20.49 66.3349 20.8675 66.6111 21.3084 66.7853C21.7493 66.9595 22.2366 67.025 22.7173 66.9748C24.0144 66.8336 23.7413 67.0788 32.855 57.5257L41.3458 48.6114L48.7784 56.4263C58.5748 66.6554 58.3614 66.4325 58.9332 66.6999C59.5296 66.982 60.2223 67.0689 60.886 66.9449C61.5497 66.8209 62.1404 66.4943 62.5514 66.024C63.0141 65.5164 63.3237 64.9161 63.4518 64.2777C63.58 63.6394 63.5227 62.9833 63.2852 62.3691C63.0634 61.7228 62.6282 61.2474 54.5214 52.712L45.988 43.7977L47.5666 42.1412L49.1453 40.4846L49.9987 41.3166C51.2616 42.5646 52.2942 42.8766 53.651 42.4309C54.2227 42.2601 54.5726 41.9109 60.5204 35.7006C65.4698 30.5006 66.8095 29.0669 66.9119 28.7252C67.0517 28.3293 67.0244 27.903 66.8351 27.5231C66.6458 27.1431 66.3069 26.8344 65.8794 26.6527C65.7012 26.5891 65.508 26.5635 65.3162 26.5783L64.8298 26.7121C64.5823 26.7715 63.2425 28.1012 59.7097 31.8155L54.8969 36.8595L53.7619 35.6561L52.6184 34.4675L57.4142 29.431C61.2116 25.4418 62.2441 24.283 62.3551 23.9338C62.7476 22.6413 61.698 21.5195 60.4436 21.8687C60.0169 21.9875 59.3854 22.6115 55.1443 27.0687L50.34 32.1052L49.2051 30.9018L47.9251 29.6835L52.7379 24.6469C56.962 20.1898 57.5508 19.5361 57.6617 19.0904C57.7976 18.717 57.7799 18.3141 57.6117 17.9508C57.4436 17.5875 57.1354 17.2866 56.7401 17.0996C56.5604 17.0231 56.3605 16.9897 56.161 17.0028C55.9616 17.0158 55.7697 17.0749 55.6051 17.1739V17.1739Z" fill="url(#paint1_linear_275_359)"/>
</g>
</g>
<defs>
<filter id="filter0_d_275_359" x="56" y="2" width="30" height="27" filterUnits="userSpaceOnUse" color-interpolation-filters="sRGB">
<feFlood flood-opacity="0" result="BackgroundImageFix"/>
<feColorMatrix in="SourceAlpha" type="matrix" values="0 0 0 0 0 0 0 0 0 0 0 0 0 0 0 0 0 0 127 0" result="hardAlpha"/>
<feOffset dy="4"/>
<feGaussianBlur stdDeviation="2"/>
<feComposite in2="hardAlpha" operator="out"/>
<feColorMatrix type="matrix" values="0 0 0 0 0 0 0 0 0 0 0 0 0 0 0 0 0 0 0.25 0"/>
<feBlend mode="normal" in2="BackgroundImageFix" result="effect1_dropShadow_275_359"/>
<feBlend mode="normal" in="SourceGraphic" in2="effect1_dropShadow_275_359" result="shape"/>
</filter>
<filter id="filter1_d_275_359" x="13" y="17" width="58" height="58" filterUnits="userSpaceOnUse" color-interpolation-filters="sRGB">
<feFlood flood-opacity="0" result="BackgroundImageFix"/>
<feColorMatrix in="SourceAlpha" type="matrix" values="0 0 0 0 0 0 0 0 0 0 0 0 0 0 0 0 0 0 127 0" result="hardAlpha"/>
<feOffset dy="4"/>
<feGaussianBlur stdDeviation="2"/>
<feComposite in2="hardAlpha" operator="out"/>
<feColorMatrix type="matrix" values="0 0 0 0 0 0 0 0 0 0 0 0 0 0 0 0 0 0 0.25 0"/>
<feBlend mode="normal" in2="BackgroundImageFix" result="effect1_dropShadow_275_359"/>
<feBlend mode="normal" in="SourceGraphic" in2="effect1_dropShadow_275_359" result="shape"/>
</filter>
<linearGradient id="paint0_linear_275_359" x1="71" y1="2" x2="71" y2="21" gradientUnits="userSpaceOnUse">
<stop stop-color="white"/>
<stop offset="1" stop-color="#BFBFBF"/>
</linearGradient>
<linearGradient id="paint1_linear_275_359" x1="42" y1="17" x2="42" y2="67" gradientUnits="userSpaceOnUse">
<stop stop-color="white"/>
<stop offset="1" stop-color="#BFBFBF"/>
</linearGradient>
<clipPath id="clip0_275_359">
<rect width="83.75" height="83.75" fill="white"/>
</clipPath>
</defs>
</svg>
