<svg width="84" height="84" viewBox="0 0 84 84" fill="none" xmlns="http://www.w3.org/2000/svg">
<g filter="url(#filter0_d_779_67)">
<path d="M44.4572 33.5278C44.9919 33.227 45.5 33.1437 45.9817 33.2779C46.4794 33.4166 46.8534 33.5641 47.1038 33.7203C47.3542 33.8766 47.5359 34.031 47.6488 34.1836C47.7662 34.3201 47.8312 34.5199 47.8439 34.783C47.8475 35.0781 47.7681 35.5145 47.6057 36.0921L43.8373 49.4975C43.7335 49.8665 43.6385 50.1428 43.5523 50.3264C43.4866 50.4984 43.3558 50.6869 43.1597 50.8918C42.8131 51.2623 42.1261 51.3045 41.0986 51.0181C40.1031 50.7408 39.5437 50.3599 39.4201 49.8757C39.3593 49.5992 39.3399 49.3602 39.362 49.1588C39.4045 48.9457 39.4799 48.6466 39.5882 48.2616L42.0035 39.6696L41.6093 39.8712C40.8112 40.1851 40.1793 40.2772 39.7137 40.1475C39.2481 40.0178 38.8374 39.6005 38.4815 38.8958C38.1417 38.1955 38.0326 37.6288 38.1544 37.1956C38.2762 36.7624 38.6982 36.3696 39.4206 36.0172L44.3714 33.5558L44.4572 33.5278Z" fill="url(#paint0_linear_779_67)"/>
</g>
<g filter="url(#filter1_d_779_67)">
<path d="M62.4249 17.9728L37.4272 11.2336C35.3136 10.6638 32.4772 11.3885 32.0105 13.1198L19.0276 61.2772C18.4668 63.357 20.4622 65.7521 22.5758 66.3219L47.5734 73.0612C49.687 73.631 52.2674 72.4694 52.8281 70.3896L65.7186 22.5751C66.2721 20.4993 64.5385 18.5426 62.4249 17.9728ZM45.9053 17.6074L51.8919 19.2214L51.5176 20.6098L45.531 18.9959L45.9053 17.6074ZM35.4582 67.5639C34.0473 67.1835 32.9224 65.7648 33.3891 64.0334C33.7634 62.645 35.193 61.547 36.9525 62.0214C38.3634 62.4018 39.4883 63.8205 39.0216 65.5519C38.5548 67.2832 37.2177 68.0383 35.4582 67.5639ZM50.5433 63.4543L24.8373 56.5242L34.6438 20.149L60.3441 27.0776L50.5376 63.4528L50.5433 63.4543Z" fill="url(#paint1_linear_779_67)"/>
</g>
<defs>
<filter id="filter0_d_779_67" x="30.7649" y="31.5398" width="21.4565" height="28.0757" filterUnits="userSpaceOnUse" color-interpolation-filters="sRGB">
<feFlood flood-opacity="0" result="BackgroundImageFix"/>
<feColorMatrix in="SourceAlpha" type="matrix" values="0 0 0 0 0 0 0 0 0 0 0 0 0 0 0 0 0 0 127 0" result="hardAlpha"/>
<feOffset dy="4"/>
<feGaussianBlur stdDeviation="2"/>
<feComposite in2="hardAlpha" operator="out"/>
<feColorMatrix type="matrix" values="0 0 0 0 0 0 0 0 0 0 0 0 0 0 0 0 0 0 0.25 0"/>
<feBlend mode="normal" in2="BackgroundImageFix" result="effect1_dropShadow_779_67"/>
<feBlend mode="normal" in="SourceGraphic" in2="effect1_dropShadow_779_67" result="shape"/>
</filter>
<filter id="filter1_d_779_67" x="14.9319" y="11.0422" width="54.8909" height="70.1633" filterUnits="userSpaceOnUse" color-interpolation-filters="sRGB">
<feFlood flood-opacity="0" result="BackgroundImageFix"/>
<feColorMatrix in="SourceAlpha" type="matrix" values="0 0 0 0 0 0 0 0 0 0 0 0 0 0 0 0 0 0 127 0" result="hardAlpha"/>
<feOffset dy="4"/>
<feGaussianBlur stdDeviation="2"/>
<feComposite in2="hardAlpha" operator="out"/>
<feColorMatrix type="matrix" values="0 0 0 0 0 0 0 0 0 0 0 0 0 0 0 0 0 0 0.25 0"/>
<feBlend mode="normal" in2="BackgroundImageFix" result="effect1_dropShadow_779_67"/>
<feBlend mode="normal" in="SourceGraphic" in2="effect1_dropShadow_779_67" result="shape"/>
</filter>
<linearGradient id="paint0_linear_779_67" x1="47.8143" y1="27.9233" x2="39.9661" y2="56.0881" gradientUnits="userSpaceOnUse">
<stop stop-color="white"/>
<stop offset="1" stop-color="#BFBFBF"/>
</linearGradient>
<linearGradient id="paint1_linear_779_67" x1="49.7518" y1="14.5562" x2="34.9004" y2="69.6446" gradientUnits="userSpaceOnUse">
<stop stop-color="white"/>
<stop offset="1" stop-color="#BFBFBF"/>
</linearGradient>
</defs>
</svg>
