<svg width="84" height="84" viewBox="0 0 84 84" fill="none" xmlns="http://www.w3.org/2000/svg">
<g filter="url(#filter0_d_1298_589)">
<path d="M38.3267 31.1882C38.84 30.8994 39.3278 30.8194 39.7902 30.9483C40.268 31.0814 40.6271 31.223 40.8675 31.373C41.1078 31.523 41.2822 31.6713 41.3906 31.8178C41.5034 31.9488 41.5658 32.1406 41.5779 32.3931C41.5814 32.6765 41.5051 33.0954 41.3493 33.6499L37.7316 46.5191C37.632 46.8733 37.5408 47.1386 37.458 47.3148C37.395 47.48 37.2693 47.6609 37.0811 47.8576C36.7484 48.2133 36.0888 48.2538 35.1024 47.9789C34.1468 47.7126 33.6097 47.347 33.4911 46.8821C33.4327 46.6167 33.4141 46.3873 33.4353 46.1939C33.4761 45.9894 33.5485 45.7023 33.6525 45.3326L35.9712 37.0843L35.5927 37.2778C34.8265 37.5792 34.22 37.6676 33.773 37.5431C33.326 37.4185 32.9317 37.018 32.59 36.3415C32.2638 35.6692 32.1591 35.1252 32.276 34.7093C32.3929 34.2934 32.7981 33.9163 33.4915 33.578L38.2443 31.2151L38.3267 31.1882ZM50.9445 47.9586C51.5764 48.1347 52.0017 48.3362 52.2204 48.5633C52.4589 48.7792 52.581 49.0541 52.5869 49.3879C52.5971 49.7063 52.533 50.112 52.3944 50.6049C52.2602 51.0824 52.098 51.4524 51.9078 51.715C51.7331 51.9819 51.5149 52.137 51.2534 52.1804C50.8624 52.2708 50.3586 52.2301 49.7421 52.0583L40.7025 49.5394C40.1476 49.3848 39.7283 49.0437 39.4445 48.5161C39.1606 47.9886 39.0967 47.4476 39.2526 46.8931C39.4864 46.0613 39.9858 45.3783 40.751 44.8441C41.5358 44.2988 42.406 43.8935 43.3614 43.6282C44.3212 43.3475 45.2766 43.0822 46.2277 42.8324C47.1832 42.5671 48.0326 42.2059 48.7761 41.7486C49.535 41.2957 50.0119 40.7227 50.2067 40.0296C50.2457 39.8909 50.2459 39.6834 50.2072 39.4069C50.173 39.115 50.1081 38.8727 50.0127 38.68C49.937 38.4762 49.78 38.2663 49.5415 38.0504C49.303 37.8345 48.9372 37.6578 48.444 37.5203C47.9508 37.3829 47.4673 37.4475 46.9934 37.7141C46.5394 37.9696 46.2394 38.268 46.0936 38.6094L45.8517 39.115L45.8127 39.2536C45.7175 39.5925 45.6306 39.8424 45.5522 40.0032C45.4891 40.1683 45.3656 40.3416 45.1817 40.5228C44.8466 40.8281 44.1935 40.8454 43.2225 40.5749C42.1436 40.2742 41.5863 39.8033 41.5505 39.1622C41.5427 38.8943 41.6146 38.4907 41.7661 37.9516C42.2164 36.3497 43.1894 35.0762 44.685 34.1309C46.2003 33.1746 47.8828 32.9541 49.7323 33.4695C51.5973 33.9892 52.9259 35.057 53.7181 36.6729C54.5147 38.2735 54.6813 39.8978 54.218 41.546C53.9712 42.4239 53.5447 43.202 52.9386 43.8802C52.3324 44.5584 51.6925 45.061 51.0188 45.3882C49.5925 46.087 48.3826 46.489 47.389 46.5941L46.7461 46.6641L46.7136 46.7797L50.9445 47.9586Z" fill="url(#paint0_linear_1298_589)"/>
</g>
<g filter="url(#filter1_d_1298_589)">
<path d="M62.4249 17.9728L37.4272 11.2336C35.3136 10.6638 32.4772 11.3885 32.0105 13.1198L19.0276 61.2772C18.4668 63.357 20.4622 65.7521 22.5758 66.3219L47.5734 73.0612C49.687 73.631 52.2674 72.4694 52.8281 70.3896L65.7186 22.5751C66.2721 20.4993 64.5385 18.5426 62.4249 17.9728ZM45.9053 17.6074L51.8919 19.2214L51.5176 20.6098L45.531 18.9959L45.9053 17.6074ZM35.4582 67.5639C34.0473 67.1835 32.9224 65.7648 33.3891 64.0334C33.7634 62.645 35.193 61.547 36.9525 62.0214C38.3634 62.4018 39.4883 63.8205 39.0216 65.5519C38.5548 67.2832 37.2177 68.0383 35.4582 67.5639ZM50.5433 63.4543L24.8373 56.5242L34.6438 20.149L60.3441 27.0776L50.5376 63.4528L50.5433 63.4543Z" fill="url(#paint1_linear_1298_589)"/>
</g>
<defs>
<filter id="filter0_d_1298_589" x="25.022" y="29.0486" width="35.646" height="31.5896" filterUnits="userSpaceOnUse" color-interpolation-filters="sRGB">
<feFlood flood-opacity="0" result="BackgroundImageFix"/>
<feColorMatrix in="SourceAlpha" type="matrix" values="0 0 0 0 0 0 0 0 0 0 0 0 0 0 0 0 0 0 127 0" result="hardAlpha"/>
<feOffset dy="4"/>
<feGaussianBlur stdDeviation="2"/>
<feComposite in2="hardAlpha" operator="out"/>
<feColorMatrix type="matrix" values="0 0 0 0 0 0 0 0 0 0 0 0 0 0 0 0 0 0 0.25 0"/>
<feBlend mode="normal" in2="BackgroundImageFix" result="effect1_dropShadow_1298_589"/>
<feBlend mode="normal" in="SourceGraphic" in2="effect1_dropShadow_1298_589" result="shape"/>
</filter>
<filter id="filter1_d_1298_589" x="14.9316" y="11.0422" width="54.8911" height="70.1633" filterUnits="userSpaceOnUse" color-interpolation-filters="sRGB">
<feFlood flood-opacity="0" result="BackgroundImageFix"/>
<feColorMatrix in="SourceAlpha" type="matrix" values="0 0 0 0 0 0 0 0 0 0 0 0 0 0 0 0 0 0 127 0" result="hardAlpha"/>
<feOffset dy="4"/>
<feGaussianBlur stdDeviation="2"/>
<feComposite in2="hardAlpha" operator="out"/>
<feColorMatrix type="matrix" values="0 0 0 0 0 0 0 0 0 0 0 0 0 0 0 0 0 0 0.25 0"/>
<feBlend mode="normal" in2="BackgroundImageFix" result="effect1_dropShadow_1298_589"/>
<feBlend mode="normal" in="SourceGraphic" in2="effect1_dropShadow_1298_589" result="shape"/>
</filter>
<linearGradient id="paint0_linear_1298_589" x1="48.0223" y1="27.6531" x2="40.1741" y2="55.8179" gradientUnits="userSpaceOnUse">
<stop stop-color="white"/>
<stop offset="1" stop-color="#BFBFBF"/>
</linearGradient>
<linearGradient id="paint1_linear_1298_589" x1="49.7518" y1="14.5562" x2="34.9004" y2="69.6446" gradientUnits="userSpaceOnUse">
<stop stop-color="white"/>
<stop offset="1" stop-color="#BFBFBF"/>
</linearGradient>
</defs>
</svg>
