<svg width="84" height="84" viewBox="0 0 84 84" fill="none" xmlns="http://www.w3.org/2000/svg">
<path d="M81.8348 14.9985C80.8041 20.9217 75.2241 24.8769 69.3763 23.8329C65.3028 23.1061 62.1786 20.1435 61 16.4134C61.6771 16.6878 62.3928 16.8979 63.1407 17.0329C68.9906 18.0769 74.5684 14.1217 75.5991 8.19857C75.912 6.39783 75.7641 4.6271 75.2499 3C79.8762 4.87577 82.7348 9.8321 81.8348 14.9985Z" fill="url(#paint0_linear_622_44)"/>
<g filter="url(#filter0_d_622_44)">
<path d="M24.1356 19.5V22H34.8499V17H24.1356V19.5Z" fill="url(#paint1_linear_622_44)"/>
<path d="M24.1357 28.35C24.1357 31.2071 24.0429 31.4286 22.9714 32.0143C21.0143 32.9714 18.3857 36.1357 17.6714 38.35C17.1357 40.0143 17 43.1786 17 53.7214V66.9714H41.9571V53.7214C41.9571 43.1786 41.8214 40.0143 41.2857 38.35C40.5714 36.1357 37.95 32.9714 35.9857 32.0143C34.9143 31.4286 34.8286 31.2214 34.8286 28.35V25.3071H24.1143V28.35H24.1357ZM38.4214 50.3071V55.3071H20.5643V45.3071H38.4214V50.3071Z" fill="url(#paint2_linear_622_44)"/>
<path d="M45.6998 48.1285C45.8355 48.7928 46.5498 52.75 47.307 57C48.0641 61.25 48.7784 65.2072 48.907 65.8786L49.1784 67H63.257L63.5284 65.8786C63.657 65.2072 64.3712 61.25 65.1284 57C65.8855 52.75 66.5998 48.7928 66.7355 48.1285L66.9998 47H45.4355L45.6998 48.1285ZM62.457 51.3358C62.457 53.6286 62.3641 53.6643 56.2141 53.6643C50.0641 53.6643 49.9784 53.6643 49.9784 51.3358V50.3357H62.457V51.3358Z" fill="url(#paint3_linear_622_44)"/>
</g>
<defs>
<filter id="filter0_d_622_44" x="13" y="17" width="57.9998" height="58" filterUnits="userSpaceOnUse" color-interpolation-filters="sRGB">
<feFlood flood-opacity="0" result="BackgroundImageFix"/>
<feColorMatrix in="SourceAlpha" type="matrix" values="0 0 0 0 0 0 0 0 0 0 0 0 0 0 0 0 0 0 127 0" result="hardAlpha"/>
<feOffset dy="4"/>
<feGaussianBlur stdDeviation="2"/>
<feComposite in2="hardAlpha" operator="out"/>
<feColorMatrix type="matrix" values="0 0 0 0 0 0 0 0 0 0 0 0 0 0 0 0 0 0 0.25 0"/>
<feBlend mode="normal" in2="BackgroundImageFix" result="effect1_dropShadow_622_44"/>
<feBlend mode="normal" in="SourceGraphic" in2="effect1_dropShadow_622_44" result="shape"/>
</filter>
<linearGradient id="paint0_linear_622_44" x1="71.5" y1="3" x2="71.5" y2="24" gradientUnits="userSpaceOnUse">
<stop stop-color="white"/>
<stop offset="1" stop-color="#BFBFBF"/>
</linearGradient>
<linearGradient id="paint1_linear_622_44" x1="29.4928" y1="17" x2="29.4928" y2="22" gradientUnits="userSpaceOnUse">
<stop stop-color="white"/>
<stop offset="1" stop-color="#BFBFBF"/>
</linearGradient>
<linearGradient id="paint2_linear_622_44" x1="29.4786" y1="25.3071" x2="29.4786" y2="66.9714" gradientUnits="userSpaceOnUse">
<stop stop-color="white"/>
<stop offset="1" stop-color="#BFBFBF"/>
</linearGradient>
<linearGradient id="paint3_linear_622_44" x1="56.2177" y1="47" x2="56.2177" y2="67" gradientUnits="userSpaceOnUse">
<stop stop-color="white"/>
<stop offset="1" stop-color="#BFBFBF"/>
</linearGradient>
</defs>
</svg>
