<svg width="84" height="84" viewBox="0 0 84 84" fill="none" xmlns="http://www.w3.org/2000/svg">
<g filter="url(#filter0_d_720_195)">
<path fill-rule="evenodd" clip-rule="evenodd" d="M49.626 16.1022C48.5311 16.3523 47.7889 16.8766 47.1558 17.8765C46.6813 18.6132 37.2148 57.6689 37.2148 58.8811C37.2148 60.2926 38.0547 61.6924 39.2835 62.3418C39.4903 62.4545 44.0773 63.6661 49.4795 65.0405C57.0112 66.9646 59.4814 67.5515 60.053 67.5515C61.3794 67.5391 62.7782 66.6767 63.3504 65.4899C63.4963 65.1903 65.7476 56.1694 68.4367 45.0876C68.7746 43.6948 69.0901 42.3958 69.3844 41.184C73.1352 25.7407 73.4456 24.4629 73.0224 23.5113C72.9842 23.4255 72.94 23.3423 72.8919 23.2516C72.8493 23.1713 72.8035 23.0851 72.756 22.9859C72.3665 22.186 71.8679 21.6616 71.0528 21.2369C70.6392 21.0246 51.694 16.1393 50.7818 16.0142C50.5141 15.9771 49.9908 16.0149 49.626 16.1022ZM34.1001 17.9884C34.6964 16.9762 35.7183 16.2395 36.8132 16.0642C37.5802 15.9398 37.884 15.9893 40.1963 16.5762C40.4749 16.6467 40.7269 16.7101 40.9547 16.7675L40.9548 16.7675C42.6943 17.2055 43.0224 17.2881 43.0451 17.4224C43.0504 17.4536 43.0392 17.4876 43.0253 17.5295C43.0194 17.5475 43.0129 17.567 43.0071 17.5884C42.9729 17.6939 41.8871 22.1733 40.3276 28.6065L40.3274 28.6072L40.3236 28.6231C39.6586 31.3663 38.9077 34.464 38.1156 37.7289C33.6376 56.2201 33.297 57.6694 33.2849 58.7188C33.2849 59.331 33.3458 60.1557 33.4308 60.5302C33.6985 61.7301 34.4775 63.2041 35.3047 64.1037C35.7672 64.6156 35.9619 64.9159 35.816 64.8658C35.7184 64.8292 34.5983 64.547 33.0787 64.1642L33.0782 64.1641L33.0768 64.1637C32.5132 64.0218 31.8947 63.8659 31.2531 63.7037C28.8806 63.1038 26.6901 62.5039 26.3863 62.3541C25.6682 62.0167 24.853 61.1673 24.5365 60.4299C24.3906 60.1049 24.2561 59.4802 24.232 59.0308C24.1832 58.2941 24.5968 56.4819 29.0018 38.3536C32.4089 24.2728 33.9053 18.3506 34.1001 17.9884ZM20.8136 18.0875C21.3122 17.0629 22.4927 16.2135 23.6485 16.0637L23.652 16.0632C23.8214 16.0392 23.954 16.0204 24.0872 16.0132C24.5667 15.9871 25.0544 16.1108 27.2979 16.6799L27.383 16.7014C29.817 17.3013 29.89 17.3385 29.7802 17.601C29.7193 17.7384 28.0522 24.5479 26.0692 32.7311L25.0644 36.8872L25.0643 36.8875C20.2563 56.7726 20.0482 57.6336 20.0546 58.493C20.0549 58.5319 20.0556 58.5708 20.0564 58.6115V58.6115C20.0575 58.6707 20.0587 58.7335 20.0587 58.8055C20.0587 60.83 20.74 62.6415 22.0417 64.1031C22.4921 64.6028 22.6868 64.903 22.553 64.8653C22.4191 64.8151 20.3993 64.3031 18.0509 63.7156C15.7152 63.1157 13.5127 62.5034 13.1721 62.3536C12.369 61.979 11.7118 61.2918 11.3102 60.417C11.2858 60.3624 11.262 60.3114 11.2392 60.2625C11.1992 60.1766 11.1622 60.0971 11.1298 60.0157C10.7277 59.0061 11.0426 57.7111 15.2645 40.3451L15.7761 38.2404C18.4411 27.3077 20.6677 18.3996 20.8136 18.0875ZM59.9784 48.4664C59.7438 48.2399 59.294 48.0483 58.6289 47.8916L54.1758 46.8424L54.2067 46.7212L54.877 46.6224C55.9127 46.4726 57.1669 46.0063 58.6396 45.2234C59.3352 44.8566 59.991 44.3092 60.6069 43.5812C61.2228 42.8532 61.6483 42.0289 61.8834 41.1085C62.3247 39.3806 62.1082 37.7032 61.2338 36.0762C60.3636 34.4331 58.947 33.3802 56.9841 32.9177C55.0374 32.459 53.2845 32.7565 51.7255 33.8101C50.1869 34.8514 49.2031 36.2118 48.7742 37.8912C48.6298 38.4564 48.5652 38.8778 48.5803 39.1552C48.6345 39.8186 49.2293 40.284 50.3649 40.5516C51.3869 40.7924 52.0691 40.7477 52.4114 40.4175C52.5989 40.222 52.7235 40.0373 52.7851 39.8635C52.8629 39.6935 52.9472 39.4309 53.0379 39.0756L53.075 38.9303L53.3146 38.3961C53.4582 38.0362 53.7639 37.7145 54.2319 37.431C54.7202 37.1351 55.2239 37.0484 55.7431 37.1707C56.2622 37.293 56.6492 37.4612 56.9041 37.6754C57.1589 37.8895 57.3286 38.1007 57.413 38.3089C57.5178 38.5048 57.5919 38.7534 57.6353 39.0546C57.6829 39.3398 57.6881 39.555 57.651 39.7003C57.4654 40.427 56.9819 41.0407 56.2005 41.5414C55.4352 42.0459 54.5568 42.4552 53.565 42.7694C52.5774 43.0674 51.5856 43.3815 50.5897 43.7118C49.5979 44.026 48.699 44.4819 47.8928 45.0794C47.107 45.6647 46.6027 46.3933 46.38 47.2653C46.2315 47.8467 46.3125 48.405 46.6229 48.9404C46.9333 49.4758 47.3805 49.8123 47.9646 49.9499L57.479 52.1917C58.1279 52.3446 58.6555 52.3662 59.0619 52.2565C59.3341 52.2008 59.5581 52.0311 59.7338 51.7472C59.9257 51.4671 60.0856 51.0768 60.2134 50.5762C60.3454 50.0594 60.4019 49.6362 60.383 49.3064C60.3681 48.9605 60.2332 48.6805 59.9784 48.4664Z" fill="url(#paint0_linear_720_195)"/>
</g>
<defs>
<filter id="filter0_d_720_195" x="7" y="16" width="70.167" height="59.5515" filterUnits="userSpaceOnUse" color-interpolation-filters="sRGB">
<feFlood flood-opacity="0" result="BackgroundImageFix"/>
<feColorMatrix in="SourceAlpha" type="matrix" values="0 0 0 0 0 0 0 0 0 0 0 0 0 0 0 0 0 0 127 0" result="hardAlpha"/>
<feOffset dy="4"/>
<feGaussianBlur stdDeviation="2"/>
<feComposite in2="hardAlpha" operator="out"/>
<feColorMatrix type="matrix" values="0 0 0 0 0 0 0 0 0 0 0 0 0 0 0 0 0 0 0.25 0"/>
<feBlend mode="normal" in2="BackgroundImageFix" result="effect1_dropShadow_720_195"/>
<feBlend mode="normal" in="SourceGraphic" in2="effect1_dropShadow_720_195" result="shape"/>
</filter>
<linearGradient id="paint0_linear_720_195" x1="42.0835" y1="16" x2="42.0835" y2="67.5515" gradientUnits="userSpaceOnUse">
<stop stop-color="white"/>
<stop offset="1" stop-color="#BFBFBF"/>
</linearGradient>
</defs>
</svg>
