<svg width="84" height="84" viewBox="0 0 84 84" fill="none" xmlns="http://www.w3.org/2000/svg">
<g clip-path="url(#clip0_1330_1110)">
<g filter="url(#filter0_d_1330_1110)">
<path d="M71.5 24C77.2991 24 82 19.2991 82 13.5C82 7.70095 77.2991 3 71.5 3C65.7009 3 61 7.70095 61 13.5C61 19.2991 65.7009 24 71.5 24ZM65.183 17.792C64.3505 16.5689 63.8636 15.0912 63.8636 13.5C63.8636 9.28263 67.2826 5.86364 71.5 5.86364C73.0912 5.86364 74.5689 6.35045 75.792 7.18301L65.183 17.792ZM67.208 19.817L77.817 9.20798C78.6495 10.4311 79.1364 11.9088 79.1364 13.5C79.1364 17.7174 75.7174 21.1364 71.5 21.1364C69.9088 21.1364 68.4311 20.6495 67.208 19.817Z" fill="url(#paint0_linear_1330_1110)"/>
</g>
<g filter="url(#filter1_d_1330_1110)">
<path d="M34.831 46.147C34.8081 47.2744 34.3342 48.3476 33.5121 49.1335C32.69 49.9195 31.586 50.3548 30.4396 50.3452C29.2955 50.3684 28.1881 49.9477 27.3568 49.1741C26.5256 48.4006 26.0372 47.3362 25.9974 46.2113C26.0202 45.09 26.4891 44.0223 27.3034 43.2373C28.1177 42.4524 29.2124 42.0128 30.3525 42.0131C31.5028 41.9803 32.6195 42.3967 33.4587 43.1713C34.2978 43.9459 34.7912 45.0157 34.831 46.147ZM32.6534 37.8434C31.5069 37.8704 30.3957 37.4514 29.5613 36.6774C28.7269 35.9035 28.2366 34.8369 28.1967 33.7094C28.2034 33.1534 28.3213 32.6041 28.5437 32.0929C28.7662 31.5818 29.0889 31.1187 29.4933 30.7302C29.8977 30.3417 30.3759 30.0352 30.9007 29.8285C31.4255 29.6218 31.9866 29.5189 32.5518 29.5255C33.696 29.4984 34.805 29.9154 35.639 30.6863C36.473 31.4573 36.965 32.5202 37.0085 33.6452C36.9859 34.7591 36.5231 35.8205 35.7181 36.6042C34.9132 37.388 33.8295 37.8325 32.697 37.8434H32.6534ZM50.306 29.4898C50.2813 30.616 49.8065 31.6872 48.9846 32.4716C48.1627 33.2561 47.0598 33.6905 45.9147 33.6808C44.7693 33.7079 43.6592 33.2899 42.825 32.5174C41.9908 31.7449 41.4996 30.6802 41.458 29.554C41.4809 28.4265 41.9548 27.3535 42.7769 26.5675C43.599 25.7816 44.703 25.3462 45.8493 25.3558C47.0033 25.3172 48.1257 25.7311 48.9696 26.5063C49.8134 27.2815 50.3098 28.3546 50.3496 29.4898H50.306ZM23.7618 62.4829C33.9237 63.2754 30.2944 53.1297 39.6651 53.0369L43.7299 56.2285C44.7896 67.7593 29.8009 70.3367 23.8054 62.4829H23.7618ZM54.8789 47.6677C58.0363 43.0054 67.8062 27.3693 67.8062 27.3693C68.5829 26.077 66.8553 24.7204 65.6287 25.6771C65.6287 25.6771 51.1117 37.5721 46.8075 41.3847C43.4177 44.3692 43.4032 45.7258 42.3072 50.6665L46.0235 53.5795C51.0101 51.6161 52.4255 51.359 54.9224 47.6677H54.8789ZM26.9628 57.6635C24.6228 55.7789 22.7287 53.4152 21.4125 50.7369C20.0962 48.0587 19.3895 45.1303 19.3414 42.1558C19.2906 30.6964 29.1331 21.279 41.3636 21.2004C49.856 21.2004 55.6991 25.1702 55.7354 28.3403L59.4154 25.313C57.1798 20.6864 50.1609 16.8951 41.3273 17.0022C26.6797 17.1165 14.8847 28.3831 15.0009 42.1844C15.0611 48.05 17.2786 53.6958 21.2431 58.0777C23.3263 59.1272 25.9031 58.7845 27.0064 57.6778L26.9628 57.6635ZM55.2708 53.6938C57.6081 57.7992 52.2803 60.7123 47.4244 62.0046C46.7903 63.8131 45.7538 65.4597 44.3904 66.824C56.0039 65.5888 64.431 57.8563 58.2468 50.4024C57.4243 51.6306 56.4353 52.7428 55.3071 53.7081L55.2708 53.6938Z" fill="url(#paint1_linear_1330_1110)"/>
</g>
<g filter="url(#filter2_d_1330_1110)">
<path d="M11.2497 6.16283C11.1812 6.25835 10.9765 6.8322 10.826 7.43242C9.97869 10.5319 8.70843 11.8022 5.55237 12.7581C3.57101 13.3591 3.50325 13.7141 5.2521 14.1781C6.7827 14.588 8.20346 15.298 8.96804 16.0351C9.71979 16.7722 10.4708 18.2606 10.8945 19.8588C11.1135 20.7328 11.2361 20.9652 11.4544 20.9923C11.8231 21.0472 11.9601 20.8283 12.2332 19.7362C12.5613 18.3982 13.2717 16.9233 13.9407 16.1998C14.6511 15.4349 15.9898 14.7249 17.5746 14.2608C18.9134 13.8787 19.0639 13.7967 18.9818 13.4275C18.9547 13.25 18.6131 13.086 17.6702 12.813C14.4735 11.8842 13.1754 10.601 12.2596 7.47377C12.082 6.8044 11.8773 6.21772 11.836 6.13574C11.714 5.94399 11.4273 5.95753 11.2497 6.16283Z" fill="url(#paint2_linear_1330_1110)"/>
</g>
<g filter="url(#filter3_d_1330_1110)">
<path d="M16.8331 67.1086C16.7875 67.1722 16.651 67.5548 16.5507 67.9549C15.9858 70.0213 15.139 70.8681 13.0349 71.5054C11.714 71.906 11.6688 72.1427 12.8347 72.4521C13.8551 72.7253 14.8023 73.1987 15.312 73.6901C15.8132 74.1815 16.3139 75.1737 16.5963 76.2392C16.7423 76.8219 16.8241 76.9768 16.9696 76.9948C17.2154 77.0314 17.3067 76.8855 17.4888 76.1575C17.7075 75.2655 18.1811 74.2822 18.6271 73.7998C19.1007 73.2899 19.9932 72.8166 21.0498 72.5072C21.9422 72.2525 22.0426 72.1978 21.9879 71.9517C21.9698 71.8333 21.7421 71.724 21.1135 71.542C18.9823 70.9228 18.1169 70.0674 17.5064 67.9825C17.388 67.5363 17.2515 67.1451 17.224 67.0905C17.1427 66.9627 16.9515 66.9717 16.8331 67.1086Z" fill="url(#paint3_linear_1330_1110)"/>
</g>
<g filter="url(#filter4_d_1330_1110)">
<path d="M71.8331 40.1086C71.7875 40.1722 71.651 40.5548 71.5507 40.9549C70.9858 43.0213 70.139 43.8681 68.0349 44.5054C66.714 44.906 66.6688 45.1427 67.8347 45.4521C68.8551 45.7253 69.8023 46.1987 70.312 46.6901C70.8132 47.1815 71.3139 48.1737 71.5963 49.2392C71.7423 49.8219 71.8241 49.9768 71.9696 49.9948C72.2154 50.0314 72.3067 49.8855 72.4888 49.1575C72.7075 48.2655 73.1811 47.2822 73.6271 46.7998C74.1007 46.2899 74.9932 45.8166 76.0498 45.5072C76.9422 45.2525 77.0426 45.1978 76.9879 44.9517C76.9698 44.8333 76.7421 44.724 76.1135 44.542C73.9823 43.9228 73.1169 43.0674 72.5064 40.9825C72.388 40.5363 72.2515 40.1451 72.224 40.0905C72.1427 39.9627 71.9515 39.9717 71.8331 40.1086Z" fill="url(#paint4_linear_1330_1110)"/>
</g>
<g filter="url(#filter5_d_1330_1110)">
<path d="M62.8331 66.1086C62.7875 66.1722 62.651 66.5548 62.5507 66.9549C61.9858 69.0213 61.139 69.8681 59.0349 70.5054C57.714 70.906 57.6688 71.1427 58.8347 71.4521C59.8551 71.7253 60.8023 72.1987 61.312 72.6901C61.8132 73.1815 62.3139 74.1737 62.5963 75.2392C62.7423 75.8219 62.8241 75.9768 62.9696 75.9948C63.2154 76.0314 63.3067 75.8855 63.4888 75.1575C63.7075 74.2655 64.1811 73.2822 64.6271 72.7998C65.1007 72.2899 65.9932 71.8166 67.0498 71.5072C67.9422 71.2525 68.0426 71.1978 67.9879 70.9517C67.9698 70.8333 67.7421 70.724 67.1135 70.542C64.9823 69.9228 64.1169 69.0674 63.5064 66.9825C63.388 66.5363 63.2515 66.1451 63.224 66.0905C63.1427 65.9627 62.9515 65.9717 62.8331 66.1086Z" fill="url(#paint5_linear_1330_1110)"/>
</g>
<g filter="url(#filter6_d_1330_1110)">
<path d="M6.83312 21.1086C6.78747 21.1722 6.651 21.5548 6.55068 21.9549C5.9858 24.0213 5.13895 24.8681 3.03491 25.5054C1.71401 25.906 1.66883 26.1427 2.83473 26.4521C3.85513 26.7253 4.80231 27.1987 5.31203 27.6901C5.81319 28.1815 6.31389 29.1737 6.59633 30.2392C6.7423 30.8219 6.82408 30.9768 6.96958 30.9948C7.21541 31.0314 7.30671 30.8855 7.48882 30.1575C7.70754 29.2655 8.18113 28.2822 8.62714 27.7998C9.10072 27.2899 9.99322 26.8166 11.0498 26.5072C11.9422 26.2525 12.0426 26.1978 11.9879 25.9517C11.9698 25.8333 11.7421 25.724 11.1135 25.542C8.98233 24.9228 8.11694 24.0674 7.50641 21.9825C7.38801 21.5363 7.25155 21.1451 7.22397 21.0905C7.14266 20.9627 6.95152 20.9717 6.83312 21.1086Z" fill="url(#paint6_linear_1330_1110)"/>
</g>
<g filter="url(#filter7_d_1330_1110)">
<path d="M52.8331 6.10855C52.7875 6.17223 52.651 6.5548 52.5507 6.95495C51.9858 9.02126 51.139 9.86813 49.0349 10.5054C47.714 10.906 47.6688 11.1427 48.8347 11.4521C49.8551 11.7253 50.8023 12.1987 51.312 12.6901C51.8132 13.1815 52.3139 14.1737 52.5963 15.2392C52.7423 15.8219 52.8241 15.9768 52.9696 15.9948C53.2154 16.0314 53.3067 15.8855 53.4888 15.1575C53.7075 14.2655 54.1811 13.2822 54.6271 12.7998C55.1007 12.2899 55.9932 11.8166 57.0498 11.5072C57.9422 11.2525 58.0426 11.1978 57.9879 10.9517C57.9698 10.8333 57.7421 10.724 57.1135 10.542C54.9823 9.92278 54.1169 9.06736 53.5064 6.98251C53.388 6.53627 53.2515 6.14515 53.224 6.0905C53.1427 5.96266 52.9515 5.97169 52.8331 6.10855Z" fill="url(#paint7_linear_1330_1110)"/>
</g>
</g>
<defs>
<filter id="filter0_d_1330_1110" x="57" y="3" width="29" height="29" filterUnits="userSpaceOnUse" color-interpolation-filters="sRGB">
<feFlood flood-opacity="0" result="BackgroundImageFix"/>
<feColorMatrix in="SourceAlpha" type="matrix" values="0 0 0 0 0 0 0 0 0 0 0 0 0 0 0 0 0 0 127 0" result="hardAlpha"/>
<feOffset dy="4"/>
<feGaussianBlur stdDeviation="2"/>
<feComposite in2="hardAlpha" operator="out"/>
<feColorMatrix type="matrix" values="0 0 0 0 0 0 0 0 0 0 0 0 0 0 0 0 0 0 0.25 0"/>
<feBlend mode="normal" in2="BackgroundImageFix" result="effect1_dropShadow_1330_1110"/>
<feBlend mode="normal" in="SourceGraphic" in2="effect1_dropShadow_1330_1110" result="shape"/>
</filter>
<filter id="filter1_d_1330_1110" x="11" y="17" width="61" height="58" filterUnits="userSpaceOnUse" color-interpolation-filters="sRGB">
<feFlood flood-opacity="0" result="BackgroundImageFix"/>
<feColorMatrix in="SourceAlpha" type="matrix" values="0 0 0 0 0 0 0 0 0 0 0 0 0 0 0 0 0 0 127 0" result="hardAlpha"/>
<feOffset dy="4"/>
<feGaussianBlur stdDeviation="2"/>
<feComposite in2="hardAlpha" operator="out"/>
<feColorMatrix type="matrix" values="0 0 0 0 0 0 0 0 0 0 0 0 0 0 0 0 0 0 0.25 0"/>
<feBlend mode="normal" in2="BackgroundImageFix" result="effect1_dropShadow_1330_1110"/>
<feBlend mode="normal" in="SourceGraphic" in2="effect1_dropShadow_1330_1110" result="shape"/>
</filter>
<filter id="filter2_d_1330_1110" x="0" y="6" width="23" height="23" filterUnits="userSpaceOnUse" color-interpolation-filters="sRGB">
<feFlood flood-opacity="0" result="BackgroundImageFix"/>
<feColorMatrix in="SourceAlpha" type="matrix" values="0 0 0 0 0 0 0 0 0 0 0 0 0 0 0 0 0 0 127 0" result="hardAlpha"/>
<feOffset dy="4"/>
<feGaussianBlur stdDeviation="2"/>
<feComposite in2="hardAlpha" operator="out"/>
<feColorMatrix type="matrix" values="0 0 0 0 0 0 0 0 0 0 0 0 0 0 0 0 0 0 0.25 0"/>
<feBlend mode="normal" in2="BackgroundImageFix" result="effect1_dropShadow_1330_1110"/>
<feBlend mode="normal" in="SourceGraphic" in2="effect1_dropShadow_1330_1110" result="shape"/>
</filter>
<filter id="filter3_d_1330_1110" x="8" y="67" width="18" height="18" filterUnits="userSpaceOnUse" color-interpolation-filters="sRGB">
<feFlood flood-opacity="0" result="BackgroundImageFix"/>
<feColorMatrix in="SourceAlpha" type="matrix" values="0 0 0 0 0 0 0 0 0 0 0 0 0 0 0 0 0 0 127 0" result="hardAlpha"/>
<feOffset dy="4"/>
<feGaussianBlur stdDeviation="2"/>
<feComposite in2="hardAlpha" operator="out"/>
<feColorMatrix type="matrix" values="0 0 0 0 0 0 0 0 0 0 0 0 0 0 0 0 0 0 0.25 0"/>
<feBlend mode="normal" in2="BackgroundImageFix" result="effect1_dropShadow_1330_1110"/>
<feBlend mode="normal" in="SourceGraphic" in2="effect1_dropShadow_1330_1110" result="shape"/>
</filter>
<filter id="filter4_d_1330_1110" x="63" y="40" width="18" height="18" filterUnits="userSpaceOnUse" color-interpolation-filters="sRGB">
<feFlood flood-opacity="0" result="BackgroundImageFix"/>
<feColorMatrix in="SourceAlpha" type="matrix" values="0 0 0 0 0 0 0 0 0 0 0 0 0 0 0 0 0 0 127 0" result="hardAlpha"/>
<feOffset dy="4"/>
<feGaussianBlur stdDeviation="2"/>
<feComposite in2="hardAlpha" operator="out"/>
<feColorMatrix type="matrix" values="0 0 0 0 0 0 0 0 0 0 0 0 0 0 0 0 0 0 0.25 0"/>
<feBlend mode="normal" in2="BackgroundImageFix" result="effect1_dropShadow_1330_1110"/>
<feBlend mode="normal" in="SourceGraphic" in2="effect1_dropShadow_1330_1110" result="shape"/>
</filter>
<filter id="filter5_d_1330_1110" x="54" y="66" width="18" height="18" filterUnits="userSpaceOnUse" color-interpolation-filters="sRGB">
<feFlood flood-opacity="0" result="BackgroundImageFix"/>
<feColorMatrix in="SourceAlpha" type="matrix" values="0 0 0 0 0 0 0 0 0 0 0 0 0 0 0 0 0 0 127 0" result="hardAlpha"/>
<feOffset dy="4"/>
<feGaussianBlur stdDeviation="2"/>
<feComposite in2="hardAlpha" operator="out"/>
<feColorMatrix type="matrix" values="0 0 0 0 0 0 0 0 0 0 0 0 0 0 0 0 0 0 0.25 0"/>
<feBlend mode="normal" in2="BackgroundImageFix" result="effect1_dropShadow_1330_1110"/>
<feBlend mode="normal" in="SourceGraphic" in2="effect1_dropShadow_1330_1110" result="shape"/>
</filter>
<filter id="filter6_d_1330_1110" x="-2" y="21" width="18" height="18" filterUnits="userSpaceOnUse" color-interpolation-filters="sRGB">
<feFlood flood-opacity="0" result="BackgroundImageFix"/>
<feColorMatrix in="SourceAlpha" type="matrix" values="0 0 0 0 0 0 0 0 0 0 0 0 0 0 0 0 0 0 127 0" result="hardAlpha"/>
<feOffset dy="4"/>
<feGaussianBlur stdDeviation="2"/>
<feComposite in2="hardAlpha" operator="out"/>
<feColorMatrix type="matrix" values="0 0 0 0 0 0 0 0 0 0 0 0 0 0 0 0 0 0 0.25 0"/>
<feBlend mode="normal" in2="BackgroundImageFix" result="effect1_dropShadow_1330_1110"/>
<feBlend mode="normal" in="SourceGraphic" in2="effect1_dropShadow_1330_1110" result="shape"/>
</filter>
<filter id="filter7_d_1330_1110" x="44" y="6" width="18" height="18" filterUnits="userSpaceOnUse" color-interpolation-filters="sRGB">
<feFlood flood-opacity="0" result="BackgroundImageFix"/>
<feColorMatrix in="SourceAlpha" type="matrix" values="0 0 0 0 0 0 0 0 0 0 0 0 0 0 0 0 0 0 127 0" result="hardAlpha"/>
<feOffset dy="4"/>
<feGaussianBlur stdDeviation="2"/>
<feComposite in2="hardAlpha" operator="out"/>
<feColorMatrix type="matrix" values="0 0 0 0 0 0 0 0 0 0 0 0 0 0 0 0 0 0 0.25 0"/>
<feBlend mode="normal" in2="BackgroundImageFix" result="effect1_dropShadow_1330_1110"/>
<feBlend mode="normal" in="SourceGraphic" in2="effect1_dropShadow_1330_1110" result="shape"/>
</filter>
<linearGradient id="paint0_linear_1330_1110" x1="71.5" y1="3" x2="71.5" y2="24" gradientUnits="userSpaceOnUse">
<stop stop-color="#FBB03B"/>
<stop offset="1" stop-color="#F78140"/>
</linearGradient>
<linearGradient id="paint1_linear_1330_1110" x1="41.5" y1="17" x2="41.5" y2="67" gradientUnits="userSpaceOnUse">
<stop stop-color="#FBB03B"/>
<stop offset="1" stop-color="#F78140"/>
</linearGradient>
<linearGradient id="paint2_linear_1330_1110" x1="11.5" y1="21" x2="11.5" y2="6" gradientUnits="userSpaceOnUse">
<stop stop-color="#F78140"/>
<stop offset="1" stop-color="#FBB03B"/>
</linearGradient>
<linearGradient id="paint3_linear_1330_1110" x1="17" y1="77" x2="17" y2="67" gradientUnits="userSpaceOnUse">
<stop stop-color="#F78140"/>
<stop offset="1" stop-color="#FBB03B"/>
</linearGradient>
<linearGradient id="paint4_linear_1330_1110" x1="72" y1="50" x2="72" y2="40" gradientUnits="userSpaceOnUse">
<stop stop-color="#F78140"/>
<stop offset="1" stop-color="#FBB03B"/>
</linearGradient>
<linearGradient id="paint5_linear_1330_1110" x1="63" y1="76" x2="63" y2="66" gradientUnits="userSpaceOnUse">
<stop stop-color="#F78140"/>
<stop offset="1" stop-color="#FBB03B"/>
</linearGradient>
<linearGradient id="paint6_linear_1330_1110" x1="7" y1="31" x2="7" y2="21" gradientUnits="userSpaceOnUse">
<stop stop-color="#F78140"/>
<stop offset="1" stop-color="#FBB03B"/>
</linearGradient>
<linearGradient id="paint7_linear_1330_1110" x1="53" y1="16" x2="53" y2="6" gradientUnits="userSpaceOnUse">
<stop stop-color="#F78140"/>
<stop offset="1" stop-color="#FBB03B"/>
</linearGradient>
<clipPath id="clip0_1330_1110">
<rect width="83.75" height="83.75" fill="white"/>
</clipPath>
</defs>
</svg>
