<svg width="84" height="84" viewBox="0 0 84 84" fill="none" xmlns="http://www.w3.org/2000/svg">
<path d="M81.8348 14.9985C80.8041 20.9217 75.2241 24.8769 69.3763 23.8329C65.3028 23.1061 62.1786 20.1435 61 16.4134C61.6771 16.6878 62.3928 16.8979 63.1407 17.0329C68.9906 18.0769 74.5684 14.1217 75.5991 8.19857C75.912 6.39783 75.7641 4.6271 75.2499 3C79.8762 4.87577 82.7348 9.8321 81.8348 14.9985Z" fill="url(#paint0_linear_361_245)"/>
<g filter="url(#filter0_d_361_245)">
<path d="M42 23.25C46.9708 23.2566 51.7361 25.2342 55.2509 28.7491C58.7658 32.2639 60.7434 37.0292 60.75 42C60.7434 46.9708 58.7658 51.7361 55.2509 55.2509C51.7361 58.7658 46.9708 60.7434 42 60.75C37.0292 60.7434 32.2639 58.7658 28.7491 55.2509C25.2342 51.7361 23.2566 46.9708 23.25 42C23.2566 37.0292 25.2342 32.2639 28.7491 28.7491C32.2639 25.2342 37.0292 23.2566 42 23.25M42 17C35.3696 17 29.0107 19.6339 24.3223 24.3223C19.6339 29.0107 17 35.3696 17 42C17 48.6304 19.6339 54.9893 24.3223 59.6777C29.0107 64.3661 35.3696 67 42 67C48.6304 67 54.9893 64.3661 59.6777 59.6777C64.3661 54.9893 67 48.6304 67 42C67 35.3696 64.3661 29.0107 59.6777 24.3223C54.9893 19.6339 48.6304 17 42 17ZM50.475 46.0333L45.1333 40.675V29.5H38.8417V42C38.8458 42.4436 38.9445 42.8813 39.1313 43.2837C39.3182 43.6861 39.5888 44.044 39.925 44.3334L46.0583 50.4584L50.475 46.0333Z" fill="url(#paint1_linear_361_245)"/>
</g>
<defs>
<filter id="filter0_d_361_245" x="13" y="17" width="58" height="58" filterUnits="userSpaceOnUse" color-interpolation-filters="sRGB">
<feFlood flood-opacity="0" result="BackgroundImageFix"/>
<feColorMatrix in="SourceAlpha" type="matrix" values="0 0 0 0 0 0 0 0 0 0 0 0 0 0 0 0 0 0 127 0" result="hardAlpha"/>
<feOffset dy="4"/>
<feGaussianBlur stdDeviation="2"/>
<feComposite in2="hardAlpha" operator="out"/>
<feColorMatrix type="matrix" values="0 0 0 0 0 0 0 0 0 0 0 0 0 0 0 0 0 0 0.25 0"/>
<feBlend mode="normal" in2="BackgroundImageFix" result="effect1_dropShadow_361_245"/>
<feBlend mode="normal" in="SourceGraphic" in2="effect1_dropShadow_361_245" result="shape"/>
</filter>
<linearGradient id="paint0_linear_361_245" x1="71.5" y1="3" x2="71.5" y2="24" gradientUnits="userSpaceOnUse">
<stop stop-color="white"/>
<stop offset="1" stop-color="#BFBFBF"/>
</linearGradient>
<linearGradient id="paint1_linear_361_245" x1="42" y1="17" x2="42" y2="67" gradientUnits="userSpaceOnUse">
<stop stop-color="white"/>
<stop offset="1" stop-color="#BFBFBF"/>
</linearGradient>
</defs>
</svg>
