<svg width="84" height="84" viewBox="0 0 84 84" fill="none" xmlns="http://www.w3.org/2000/svg">
<path d="M81.8348 14.9985C80.8041 20.9217 75.2241 24.8769 69.3763 23.8329C65.3028 23.1061 62.1786 20.1435 61 16.4134C61.6771 16.6878 62.3928 16.8979 63.1407 17.0329C68.9906 18.0769 74.5684 14.1217 75.5991 8.19857C75.912 6.39783 75.7641 4.6271 75.2499 3C79.8762 4.87577 82.7348 9.8321 81.8348 14.9985Z" fill="url(#paint0_linear_486_79)"/>
<g filter="url(#filter0_d_486_79)">
<path d="M31.2251 51.3286C31.2606 51.8421 31.0925 52.349 30.7572 52.7394C30.4219 53.1298 29.9465 53.3723 29.4338 53.4143H26.4792C25.9666 53.3723 25.4911 53.1298 25.1558 52.7394C24.8205 52.349 24.6524 51.8421 24.6879 51.3286V34.4643C24.6524 33.9507 24.8205 33.4438 25.1558 33.0534C25.4911 32.663 25.9666 32.4206 26.4792 32.3786H29.4338C29.9465 32.4206 30.4219 32.663 30.7572 33.0534C31.0925 33.4438 31.2606 33.9507 31.2251 34.4643V51.3286ZM45.2844 34.4643C45.3199 33.9507 45.1518 33.4438 44.8165 33.0534C44.4812 32.663 44.0058 32.4206 43.4931 32.3786H40.5028C39.9902 32.4206 39.5147 32.663 39.1794 33.0534C38.8441 33.4438 38.676 33.9507 38.7115 34.4643V51.3286C38.676 51.8421 38.8441 52.349 39.1794 52.7394C39.5147 53.1298 39.9902 53.3723 40.5028 53.4143H43.4574C43.7144 53.3979 43.9656 53.331 44.1967 53.2172C44.4277 53.1034 44.6341 52.9451 44.8038 52.7513C44.9736 52.5575 45.1034 52.3321 45.1859 52.0879C45.2684 51.8438 45.3018 51.5857 45.2844 51.3286V34.4643ZM59.308 34.4643C59.3435 33.9507 59.1754 33.4438 58.8401 33.0534C58.5048 32.663 58.0294 32.4206 57.5167 32.3786H54.5621C54.0495 32.4206 53.574 32.663 53.2387 33.0534C52.9034 33.4438 52.7353 33.9507 52.7708 34.4643V51.3286C52.7353 51.8421 52.9034 52.349 53.2387 52.7394C53.574 53.1298 54.0495 53.3723 54.5621 53.4143H57.5167C58.0294 53.3723 58.5048 53.1298 58.8401 52.7394C59.1754 52.349 59.3435 51.8421 59.308 51.3286V34.4643ZM64.2609 57.8786C64.3041 57.2668 64.1028 56.6628 63.7014 56.1994C63.2999 55.736 62.7311 55.4511 62.1199 55.4071H21.8546C21.2643 55.4973 20.7257 55.7961 20.3365 56.2495C19.9473 56.7029 19.7334 57.2808 19.7334 57.8786C19.7334 58.4763 19.9473 59.0543 20.3365 59.5077C20.7257 59.9611 21.2643 60.2599 21.8546 60.35H62.0985C62.7071 60.3025 63.2724 60.016 63.6708 59.553C64.0692 59.09 64.2685 58.4881 64.2252 57.8786H64.2609ZM66.9942 64.5286C67.0374 63.9168 66.8362 63.3128 66.4347 62.8494C66.0333 62.386 65.4645 62.1011 64.8532 62.0571H19.1213C18.5309 62.1473 17.9923 62.4461 17.6031 62.8995C17.214 63.3529 17 63.9308 17 64.5286C17 65.1263 17.214 65.7043 17.6031 66.1577C17.9923 66.6111 18.5309 66.9099 19.1213 67H64.839C65.4464 66.9507 66.0098 66.6635 66.4067 66.2007C66.8036 65.7379 67.0019 65.1369 66.9586 64.5286H66.9942ZM65.8452 30.1714C65.8452 30.1714 66.6945 30.2 66.6945 29.0214C66.6912 28.6848 66.5894 28.3566 66.4017 28.0773C66.214 27.798 65.9486 27.5799 65.6383 27.45C65.6383 27.45 43.072 17 41.9516 17C40.8311 17 18.2792 27.45 18.2792 27.45C17.9689 27.5799 17.7034 27.798 17.5157 28.0773C17.328 28.3566 17.2262 28.6848 17.2229 29.0214C17.2229 30.2 18.1007 30.1714 18.1007 30.1714H65.8452Z" fill="url(#paint1_linear_486_79)"/>
</g>
<defs>
<filter id="filter0_d_486_79" x="13" y="17" width="58" height="58" filterUnits="userSpaceOnUse" color-interpolation-filters="sRGB">
<feFlood flood-opacity="0" result="BackgroundImageFix"/>
<feColorMatrix in="SourceAlpha" type="matrix" values="0 0 0 0 0 0 0 0 0 0 0 0 0 0 0 0 0 0 127 0" result="hardAlpha"/>
<feOffset dy="4"/>
<feGaussianBlur stdDeviation="2"/>
<feComposite in2="hardAlpha" operator="out"/>
<feColorMatrix type="matrix" values="0 0 0 0 0 0 0 0 0 0 0 0 0 0 0 0 0 0 0.25 0"/>
<feBlend mode="normal" in2="BackgroundImageFix" result="effect1_dropShadow_486_79"/>
<feBlend mode="normal" in="SourceGraphic" in2="effect1_dropShadow_486_79" result="shape"/>
</filter>
<linearGradient id="paint0_linear_486_79" x1="71.5" y1="3" x2="71.5" y2="24" gradientUnits="userSpaceOnUse">
<stop stop-color="white"/>
<stop offset="1" stop-color="#BFBFBF"/>
</linearGradient>
<linearGradient id="paint1_linear_486_79" x1="42" y1="17" x2="42" y2="67" gradientUnits="userSpaceOnUse">
<stop stop-color="white"/>
<stop offset="1" stop-color="#BFBFBF"/>
</linearGradient>
</defs>
</svg>
