<svg width="84" height="84" viewBox="0 0 84 84" fill="none" xmlns="http://www.w3.org/2000/svg">
<g clip-path="url(#clip0_1325_992)">
<path d="M81.8348 14.9985C80.8041 20.9217 75.2241 24.8769 69.3763 23.8329C65.3028 23.1061 62.1786 20.1435 61 16.4134C61.6771 16.6878 62.3928 16.8979 63.1407 17.0329C68.9906 18.0769 74.5684 14.1217 75.5991 8.19857C75.912 6.39783 75.7641 4.6271 75.2499 3C79.8762 4.87577 82.7348 9.8321 81.8348 14.9985Z" fill="url(#paint0_linear_1325_992)"/>
<g filter="url(#filter0_d_1325_992)">
<path d="M31.2251 51.3286C31.2606 51.8421 31.0925 52.349 30.7572 52.7394C30.4219 53.1298 29.9465 53.3723 29.4338 53.4143H26.4792C25.9666 53.3723 25.4911 53.1298 25.1558 52.7394C24.8205 52.349 24.6524 51.8421 24.6879 51.3286V34.4643C24.6524 33.9507 24.8205 33.4438 25.1558 33.0534C25.4911 32.663 25.9666 32.4206 26.4792 32.3786H29.4338C29.9465 32.4206 30.4219 32.663 30.7572 33.0534C31.0925 33.4438 31.2606 33.9507 31.2251 34.4643V51.3286ZM45.2844 34.4643C45.3199 33.9507 45.1518 33.4438 44.8165 33.0534C44.4812 32.663 44.0058 32.4206 43.4931 32.3786H40.5028C39.9902 32.4206 39.5147 32.663 39.1794 33.0534C38.8441 33.4438 38.676 33.9507 38.7115 34.4643V51.3286C38.676 51.8421 38.8441 52.349 39.1794 52.7394C39.5147 53.1298 39.9902 53.3723 40.5028 53.4143H43.4574C43.7144 53.3979 43.9656 53.331 44.1967 53.2172C44.4277 53.1034 44.6341 52.9451 44.8038 52.7513C44.9736 52.5575 45.1034 52.3321 45.1859 52.0879C45.2684 51.8438 45.3018 51.5857 45.2844 51.3286V34.4643ZM59.308 34.4643C59.3435 33.9507 59.1754 33.4438 58.8401 33.0534C58.5048 32.663 58.0294 32.4206 57.5167 32.3786H54.5621C54.0495 32.4206 53.574 32.663 53.2387 33.0534C52.9034 33.4438 52.7353 33.9507 52.7708 34.4643V51.3286C52.7353 51.8421 52.9034 52.349 53.2387 52.7394C53.574 53.1298 54.0495 53.3723 54.5621 53.4143H57.5167C58.0294 53.3723 58.5048 53.1298 58.8401 52.7394C59.1754 52.349 59.3435 51.8421 59.308 51.3286V34.4643ZM64.2609 57.8786C64.3041 57.2668 64.1028 56.6628 63.7014 56.1994C63.2999 55.736 62.7311 55.4511 62.1199 55.4071H21.8546C21.2643 55.4973 20.7257 55.7961 20.3365 56.2495C19.9473 56.7029 19.7334 57.2808 19.7334 57.8786C19.7334 58.4763 19.9473 59.0543 20.3365 59.5077C20.7257 59.9611 21.2643 60.2599 21.8546 60.35H62.0985C62.7071 60.3025 63.2724 60.016 63.6708 59.553C64.0692 59.09 64.2685 58.4881 64.2252 57.8786H64.2609ZM66.9942 64.5286C67.0374 63.9168 66.8362 63.3128 66.4347 62.8494C66.0333 62.386 65.4645 62.1011 64.8532 62.0571H19.1213C18.5309 62.1473 17.9923 62.4461 17.6031 62.8995C17.214 63.3529 17 63.9308 17 64.5286C17 65.1263 17.214 65.7043 17.6031 66.1576C17.9923 66.611 18.5309 66.9099 19.1213 67H64.839C65.4464 66.9507 66.0098 66.6635 66.4067 66.2007C66.8036 65.7379 67.0019 65.1369 66.9586 64.5286H66.9942ZM65.8452 30.1714C65.8452 30.1714 66.6945 30.2 66.6945 29.0214C66.6912 28.6848 66.5894 28.3566 66.4017 28.0773C66.214 27.798 65.9486 27.5799 65.6383 27.45C65.6383 27.45 43.072 17 41.9516 17C40.8311 17 18.2792 27.45 18.2792 27.45C17.9689 27.5799 17.7034 27.798 17.5157 28.0773C17.328 28.3566 17.2262 28.6848 17.2229 29.0214C17.2229 30.2 18.1007 30.1714 18.1007 30.1714H65.8452Z" fill="url(#paint1_linear_1325_992)"/>
</g>
<g filter="url(#filter1_d_1325_992)">
<path d="M14.2497 6.16283C14.1812 6.25835 13.9765 6.8322 13.826 7.43242C12.9787 10.5319 11.7084 11.8022 8.55237 12.7581C6.57101 13.3591 6.50325 13.7141 8.2521 14.1781C9.7827 14.588 11.2035 15.298 11.968 16.0351C12.7198 16.7722 13.4708 18.2606 13.8945 19.8588C14.1135 20.7328 14.2361 20.9652 14.4544 20.9923C14.8231 21.0472 14.9601 20.8283 15.2332 19.7362C15.5613 18.3982 16.2717 16.9233 16.9407 16.1998C17.6511 15.4349 18.9898 14.7249 20.5746 14.2608C21.9134 13.8787 22.0639 13.7967 21.9818 13.4275C21.9547 13.25 21.6131 13.086 20.6702 12.813C17.4735 11.8842 16.1754 10.601 15.2596 7.47377C15.082 6.8044 14.8773 6.21772 14.836 6.13574C14.714 5.94399 14.4273 5.95753 14.2497 6.16283Z" fill="url(#paint2_linear_1325_992)"/>
</g>
<g filter="url(#filter2_d_1325_992)">
<path d="M12.2497 40.1628C12.1812 40.2584 11.9765 40.8322 11.826 41.4324C10.9787 44.5319 9.70843 45.8022 6.55237 46.7581C4.57101 47.3591 4.50325 47.7141 6.2521 48.1781C7.7827 48.588 9.20346 49.298 9.96804 50.0351C10.7198 50.7722 11.4708 52.2606 11.8945 53.8588C12.1135 54.7328 12.2361 54.9652 12.4544 54.9923C12.8231 55.0472 12.9601 54.8283 13.2332 53.7362C13.5613 52.3982 14.2717 50.9233 14.9407 50.1998C15.6511 49.4349 16.9898 48.7249 18.5746 48.2608C19.9134 47.8787 20.0639 47.7967 19.9818 47.4275C19.9547 47.25 19.6131 47.086 18.6702 46.813C15.4735 45.8842 14.1754 44.601 13.2596 41.4738C13.082 40.8044 12.8773 40.2177 12.836 40.1357C12.714 39.944 12.4273 39.9575 12.2497 40.1628Z" fill="url(#paint3_linear_1325_992)"/>
</g>
<g filter="url(#filter3_d_1325_992)">
<path d="M71.8331 67.1086C71.7875 67.1722 71.651 67.5548 71.5507 67.9549C70.9858 70.0213 70.139 70.8681 68.0349 71.5054C66.714 71.906 66.6688 72.1427 67.8347 72.4521C68.8551 72.7253 69.8023 73.1987 70.312 73.6901C70.8132 74.1815 71.3139 75.1737 71.5963 76.2392C71.7423 76.8219 71.8241 76.9768 71.9696 76.9948C72.2154 77.0314 72.3067 76.8855 72.4888 76.1575C72.7075 75.2655 73.1811 74.2822 73.6271 73.7998C74.1007 73.2899 74.9932 72.8166 76.0498 72.5072C76.9422 72.2525 77.0426 72.1978 76.9879 71.9517C76.9698 71.8333 76.7421 71.724 76.1135 71.542C73.9823 70.9228 73.1169 70.0674 72.5064 67.9825C72.388 67.5363 72.2515 67.1451 72.224 67.0905C72.1427 66.9627 71.9515 66.9717 71.8331 67.1086Z" fill="url(#paint4_linear_1325_992)"/>
</g>
<g filter="url(#filter4_d_1325_992)">
<path d="M53.8331 8.10855C53.7875 8.17223 53.651 8.5548 53.5507 8.95495C52.9858 11.0213 52.139 11.8681 50.0349 12.5054C48.714 12.906 48.6688 13.1427 49.8347 13.4521C50.8551 13.7253 51.8023 14.1987 52.312 14.6901C52.8132 15.1815 53.3139 16.1737 53.5963 17.2392C53.7423 17.8219 53.8241 17.9768 53.9696 17.9948C54.2154 18.0314 54.3067 17.8855 54.4888 17.1575C54.7075 16.2655 55.1811 15.2822 55.6271 14.7998C56.1007 14.2899 56.9932 13.8166 58.0498 13.5072C58.9422 13.2525 59.0426 13.1978 58.9879 12.9517C58.9698 12.8333 58.7421 12.724 58.1135 12.542C55.9823 11.9228 55.1169 11.0674 54.5064 8.98251C54.388 8.53627 54.2515 8.14515 54.224 8.0905C54.1427 7.96266 53.9515 7.97169 53.8331 8.10855Z" fill="url(#paint5_linear_1325_992)"/>
</g>
</g>
<defs>
<filter id="filter0_d_1325_992" x="13" y="17" width="58" height="58" filterUnits="userSpaceOnUse" color-interpolation-filters="sRGB">
<feFlood flood-opacity="0" result="BackgroundImageFix"/>
<feColorMatrix in="SourceAlpha" type="matrix" values="0 0 0 0 0 0 0 0 0 0 0 0 0 0 0 0 0 0 127 0" result="hardAlpha"/>
<feOffset dy="4"/>
<feGaussianBlur stdDeviation="2"/>
<feComposite in2="hardAlpha" operator="out"/>
<feColorMatrix type="matrix" values="0 0 0 0 0 0 0 0 0 0 0 0 0 0 0 0 0 0 0.25 0"/>
<feBlend mode="normal" in2="BackgroundImageFix" result="effect1_dropShadow_1325_992"/>
<feBlend mode="normal" in="SourceGraphic" in2="effect1_dropShadow_1325_992" result="shape"/>
</filter>
<filter id="filter1_d_1325_992" x="3" y="6" width="23" height="23" filterUnits="userSpaceOnUse" color-interpolation-filters="sRGB">
<feFlood flood-opacity="0" result="BackgroundImageFix"/>
<feColorMatrix in="SourceAlpha" type="matrix" values="0 0 0 0 0 0 0 0 0 0 0 0 0 0 0 0 0 0 127 0" result="hardAlpha"/>
<feOffset dy="4"/>
<feGaussianBlur stdDeviation="2"/>
<feComposite in2="hardAlpha" operator="out"/>
<feColorMatrix type="matrix" values="0 0 0 0 0 0 0 0 0 0 0 0 0 0 0 0 0 0 0.25 0"/>
<feBlend mode="normal" in2="BackgroundImageFix" result="effect1_dropShadow_1325_992"/>
<feBlend mode="normal" in="SourceGraphic" in2="effect1_dropShadow_1325_992" result="shape"/>
</filter>
<filter id="filter2_d_1325_992" x="1" y="40" width="23" height="23" filterUnits="userSpaceOnUse" color-interpolation-filters="sRGB">
<feFlood flood-opacity="0" result="BackgroundImageFix"/>
<feColorMatrix in="SourceAlpha" type="matrix" values="0 0 0 0 0 0 0 0 0 0 0 0 0 0 0 0 0 0 127 0" result="hardAlpha"/>
<feOffset dy="4"/>
<feGaussianBlur stdDeviation="2"/>
<feComposite in2="hardAlpha" operator="out"/>
<feColorMatrix type="matrix" values="0 0 0 0 0 0 0 0 0 0 0 0 0 0 0 0 0 0 0.25 0"/>
<feBlend mode="normal" in2="BackgroundImageFix" result="effect1_dropShadow_1325_992"/>
<feBlend mode="normal" in="SourceGraphic" in2="effect1_dropShadow_1325_992" result="shape"/>
</filter>
<filter id="filter3_d_1325_992" x="63" y="67" width="18" height="18" filterUnits="userSpaceOnUse" color-interpolation-filters="sRGB">
<feFlood flood-opacity="0" result="BackgroundImageFix"/>
<feColorMatrix in="SourceAlpha" type="matrix" values="0 0 0 0 0 0 0 0 0 0 0 0 0 0 0 0 0 0 127 0" result="hardAlpha"/>
<feOffset dy="4"/>
<feGaussianBlur stdDeviation="2"/>
<feComposite in2="hardAlpha" operator="out"/>
<feColorMatrix type="matrix" values="0 0 0 0 0 0 0 0 0 0 0 0 0 0 0 0 0 0 0.25 0"/>
<feBlend mode="normal" in2="BackgroundImageFix" result="effect1_dropShadow_1325_992"/>
<feBlend mode="normal" in="SourceGraphic" in2="effect1_dropShadow_1325_992" result="shape"/>
</filter>
<filter id="filter4_d_1325_992" x="45" y="8" width="18" height="18" filterUnits="userSpaceOnUse" color-interpolation-filters="sRGB">
<feFlood flood-opacity="0" result="BackgroundImageFix"/>
<feColorMatrix in="SourceAlpha" type="matrix" values="0 0 0 0 0 0 0 0 0 0 0 0 0 0 0 0 0 0 127 0" result="hardAlpha"/>
<feOffset dy="4"/>
<feGaussianBlur stdDeviation="2"/>
<feComposite in2="hardAlpha" operator="out"/>
<feColorMatrix type="matrix" values="0 0 0 0 0 0 0 0 0 0 0 0 0 0 0 0 0 0 0.25 0"/>
<feBlend mode="normal" in2="BackgroundImageFix" result="effect1_dropShadow_1325_992"/>
<feBlend mode="normal" in="SourceGraphic" in2="effect1_dropShadow_1325_992" result="shape"/>
</filter>
<linearGradient id="paint0_linear_1325_992" x1="71.5" y1="3" x2="71.5" y2="24" gradientUnits="userSpaceOnUse">
<stop stop-color="#FBB03B"/>
<stop offset="1" stop-color="#F78140"/>
</linearGradient>
<linearGradient id="paint1_linear_1325_992" x1="42" y1="17" x2="42" y2="67" gradientUnits="userSpaceOnUse">
<stop stop-color="#FBB03B"/>
<stop offset="1" stop-color="#F78140"/>
</linearGradient>
<linearGradient id="paint2_linear_1325_992" x1="14.5" y1="21" x2="14.5" y2="6" gradientUnits="userSpaceOnUse">
<stop stop-color="#F78140"/>
<stop offset="1" stop-color="#FBB03B"/>
</linearGradient>
<linearGradient id="paint3_linear_1325_992" x1="12.5" y1="55" x2="12.5" y2="40" gradientUnits="userSpaceOnUse">
<stop stop-color="#F78140"/>
<stop offset="1" stop-color="#FBB03B"/>
</linearGradient>
<linearGradient id="paint4_linear_1325_992" x1="72" y1="77" x2="72" y2="67" gradientUnits="userSpaceOnUse">
<stop stop-color="#F78140"/>
<stop offset="1" stop-color="#FBB03B"/>
</linearGradient>
<linearGradient id="paint5_linear_1325_992" x1="54" y1="18" x2="54" y2="8" gradientUnits="userSpaceOnUse">
<stop stop-color="#F78140"/>
<stop offset="1" stop-color="#FBB03B"/>
</linearGradient>
<clipPath id="clip0_1325_992">
<rect width="83.75" height="83.75" fill="white"/>
</clipPath>
</defs>
</svg>
