<svg width="84" height="84" viewBox="0 0 84 84" fill="none" xmlns="http://www.w3.org/2000/svg">
<g filter="url(#filter0_d_1112_134)">
<path d="M46.8168 46.3036C46.3612 47.9241 45.3941 49.1166 43.9154 49.8811C42.4527 50.65 40.8945 50.8041 39.2409 50.3433C37.1537 49.7617 35.7675 48.6574 35.0822 47.0304C34.4015 45.3874 34.3588 43.5069 34.9542 41.389C35.8157 38.3245 37.402 36.0069 39.7133 34.4363C42.0406 32.8703 44.7135 32.5077 47.7318 33.3488C48.3419 33.5188 48.7609 33.7221 48.9887 33.9586C49.2371 34.1835 49.3666 34.4618 49.3772 34.7935C49.3879 35.1252 49.3278 35.5237 49.197 35.989C49.0662 36.4543 48.9223 36.8121 48.7653 37.0625C48.6084 37.3129 48.4534 37.4947 48.3005 37.6077C48.1475 37.7208 47.9576 37.7804 47.7308 37.7864C47.4309 37.8066 46.9517 37.725 46.2935 37.5416C45.6352 37.3582 44.9614 37.2915 44.2721 37.3417C43.5989 37.3963 43.0406 37.5348 42.5972 37.7573C41.7058 38.2183 41.1055 38.6912 40.7961 39.1759L40.5809 39.4793C41.2516 39.3721 41.884 39.4012 42.478 39.5667C44.0675 40.0096 45.2753 40.9172 46.1015 42.2893C46.9482 43.6498 47.1866 44.9879 46.8168 46.3036ZM40.2541 46.3694C41.4903 46.7139 42.2596 46.3486 42.5617 45.2736C42.6655 44.9046 42.618 44.5194 42.4192 44.118C42.2365 43.721 41.832 43.4353 41.2059 43.2608C40.5958 43.0908 40.0793 43.1113 39.6565 43.3222C39.2542 43.5215 39.0102 43.7736 38.9245 44.0784C38.8388 44.3833 38.7894 44.6204 38.7764 44.7898C38.7795 44.9637 38.8102 45.1625 38.8684 45.3864C38.9895 45.8181 39.4514 46.1457 40.2541 46.3694Z" fill="url(#paint0_linear_1112_134)"/>
</g>
<g filter="url(#filter1_d_1112_134)">
<path d="M62.4249 17.9728L37.4272 11.2336C35.3136 10.6638 32.4772 11.3885 32.0105 13.1198L19.0276 61.2772C18.4668 63.357 20.4622 65.7521 22.5758 66.3219L47.5734 73.0612C49.687 73.631 52.2674 72.4694 52.8281 70.3896L65.7186 22.5751C66.2721 20.4993 64.5385 18.5426 62.4249 17.9728ZM45.9053 17.6074L51.8919 19.2214L51.5176 20.6098L45.531 18.9959L45.9053 17.6074ZM35.4582 67.5639C34.0473 67.1835 32.9224 65.7648 33.3891 64.0334C33.7634 62.645 35.193 61.547 36.9525 62.0214C38.3634 62.4018 39.4883 63.8205 39.0216 65.5519C38.5548 67.2832 37.2177 68.0383 35.4582 67.5639ZM50.5433 63.4543L24.8373 56.5242L34.6438 20.149L60.3441 27.0776L50.5376 63.4528L50.5433 63.4543Z" fill="url(#paint1_linear_1112_134)"/>
</g>
<defs>
<filter id="filter0_d_1112_134" x="28.9312" y="30.6311" width="25.3291" height="29.3765" filterUnits="userSpaceOnUse" color-interpolation-filters="sRGB">
<feFlood flood-opacity="0" result="BackgroundImageFix"/>
<feColorMatrix in="SourceAlpha" type="matrix" values="0 0 0 0 0 0 0 0 0 0 0 0 0 0 0 0 0 0 127 0" result="hardAlpha"/>
<feOffset dy="4"/>
<feGaussianBlur stdDeviation="2"/>
<feComposite in2="hardAlpha" operator="out"/>
<feColorMatrix type="matrix" values="0 0 0 0 0 0 0 0 0 0 0 0 0 0 0 0 0 0 0.25 0"/>
<feBlend mode="normal" in2="BackgroundImageFix" result="effect1_dropShadow_1112_134"/>
<feBlend mode="normal" in="SourceGraphic" in2="effect1_dropShadow_1112_134" result="shape"/>
</filter>
<filter id="filter1_d_1112_134" x="14.9316" y="11.0422" width="54.8911" height="70.1633" filterUnits="userSpaceOnUse" color-interpolation-filters="sRGB">
<feFlood flood-opacity="0" result="BackgroundImageFix"/>
<feColorMatrix in="SourceAlpha" type="matrix" values="0 0 0 0 0 0 0 0 0 0 0 0 0 0 0 0 0 0 127 0" result="hardAlpha"/>
<feOffset dy="4"/>
<feGaussianBlur stdDeviation="2"/>
<feComposite in2="hardAlpha" operator="out"/>
<feColorMatrix type="matrix" values="0 0 0 0 0 0 0 0 0 0 0 0 0 0 0 0 0 0 0.25 0"/>
<feBlend mode="normal" in2="BackgroundImageFix" result="effect1_dropShadow_1112_134"/>
<feBlend mode="normal" in="SourceGraphic" in2="effect1_dropShadow_1112_134" result="shape"/>
</filter>
<linearGradient id="paint0_linear_1112_134" x1="45.8143" y1="26.9233" x2="37.9661" y2="55.0881" gradientUnits="userSpaceOnUse">
<stop stop-color="white"/>
<stop offset="1" stop-color="#BFBFBF"/>
</linearGradient>
<linearGradient id="paint1_linear_1112_134" x1="49.7518" y1="14.5562" x2="34.9004" y2="69.6446" gradientUnits="userSpaceOnUse">
<stop stop-color="white"/>
<stop offset="1" stop-color="#BFBFBF"/>
</linearGradient>
</defs>
</svg>
