<svg width="84" height="84" viewBox="0 0 84 84" fill="none" xmlns="http://www.w3.org/2000/svg">
<g clip-path="url(#clip0_1332_1136)">
<g filter="url(#filter0_d_1332_1136)">
<path d="M71.5 24C77.2991 24 82 19.2991 82 13.5C82 7.70095 77.2991 3 71.5 3C65.7009 3 61 7.70095 61 13.5C61 19.2991 65.7009 24 71.5 24ZM65.183 17.792C64.3505 16.5689 63.8636 15.0912 63.8636 13.5C63.8636 9.28263 67.2826 5.86364 71.5 5.86364C73.0912 5.86364 74.5689 6.35045 75.792 7.18301L65.183 17.792ZM67.208 19.817L77.817 9.20798C78.6495 10.4311 79.1364 11.9088 79.1364 13.5C79.1364 17.7174 75.7174 21.1364 71.5 21.1364C69.9088 21.1364 68.4311 20.6495 67.208 19.817Z" fill="url(#paint0_linear_1332_1136)"/>
</g>
<g filter="url(#filter1_d_1332_1136)">
<path d="M40.495 14.5186L39.0179 17.0292V22.3761L38.2108 25.0138C37.4843 27.3972 35.9346 32.1086 35.7328 32.5614C35.6602 32.7283 36.4592 32.7521 42.0448 32.7521C48.0742 32.7521 48.4375 32.7521 48.3325 32.5296C48.1307 32.0768 46.5971 27.4052 45.8626 24.9662L45.0555 22.3761V17.0292L43.5784 14.5186C42.7712 13.1282 42.0609 12 42.0206 12C41.9802 12 41.3183 13.1282 40.495 14.5186Z" fill="url(#paint1_linear_1332_1136)"/>
<path d="M29.7676 38.0278V40.6099H31.2286C32.6572 40.6099 32.6734 40.6098 32.5846 40.88C32.3828 41.4202 30.3407 46.0839 29.7918 47.2756L29.2188 48.4674H32.9155H36.6204L37.7585 44.5664L38.9046 40.6734H45.2085L46.3547 44.5664L47.4928 48.4674H51.1976H54.8863L54.3213 47.2756C53.7725 46.0998 51.7304 41.4282 51.5286 40.88C51.4479 40.6098 51.4559 40.6099 52.8927 40.6099H54.3536V35.4536H29.7676V38.0278Z" fill="url(#paint2_linear_1332_1136)"/>
<path d="M17.4665 53.7505V56.3246H21.2036C23.278 56.3246 24.965 56.3246 24.965 56.3961C24.965 56.4676 22.0915 61.2981 21.1229 62.752C20.5821 63.5465 19.4682 65.1991 18.6288 66.375C17.3292 68.2102 17.1032 68.6234 17.0145 69.1557C16.9547 69.6963 17.0814 70.241 17.3742 70.7021C17.667 71.1632 18.1089 71.514 18.6288 71.698C19.2099 71.9523 19.3794 71.9681 24.3677 71.9999H29.5092L29.6787 70.3554C29.7783 68.6582 30.2638 67.0046 31.0993 65.5169C31.6943 64.4456 32.5425 63.5311 33.5723 62.8508C34.6021 62.1704 35.7832 61.7442 37.0158 61.608C40.3258 61.3617 43.65 61.3617 46.96 61.608C51.4478 62.2833 53.9015 65.366 54.3858 70.8559L54.4665 71.9999H59.6323C64.6206 71.9999 64.7981 71.9523 65.3712 71.698C65.8911 71.514 66.333 71.1632 66.6258 70.7021C66.9186 70.241 67.0453 69.6963 66.9855 69.1557C66.929 68.6234 66.695 68.2102 65.3712 66.375C64.5641 65.1991 63.3453 63.483 62.756 62.5455C61.7067 60.9565 59.035 56.5073 59.035 56.3722C59.035 56.2372 60.7301 56.3087 62.7964 56.3087H66.5578V51.1445H17.4665V53.7505Z" fill="url(#paint3_linear_1332_1136)"/>
</g>
<g filter="url(#filter2_d_1332_1136)">
<path d="M16.2497 15.1628C16.1812 15.2584 15.9765 15.8322 15.826 16.4324C14.9787 19.5319 13.7084 20.8022 10.5524 21.7581C8.57101 22.3591 8.50325 22.7141 10.2521 23.1781C11.7827 23.588 13.2035 24.298 13.968 25.0351C14.7198 25.7722 15.4708 27.2606 15.8945 28.8588C16.1135 29.7328 16.2361 29.9652 16.4544 29.9923C16.8231 30.0472 16.9601 29.8283 17.2332 28.7362C17.5613 27.3982 18.2717 25.9233 18.9407 25.1998C19.6511 24.4349 20.9898 23.7249 22.5746 23.2608C23.9134 22.8787 24.0639 22.7967 23.9818 22.4275C23.9547 22.25 23.6131 22.086 22.6702 21.813C19.4735 20.8842 18.1754 19.601 17.2596 16.4738C17.082 15.8044 16.8773 15.2177 16.836 15.1357C16.714 14.944 16.4273 14.9575 16.2497 15.1628Z" fill="url(#paint4_linear_1332_1136)"/>
</g>
<g filter="url(#filter3_d_1332_1136)">
<path d="M74.2497 33.1628C74.1812 33.2584 73.9765 33.8322 73.826 34.4324C72.9787 37.5319 71.7084 38.8022 68.5524 39.7581C66.571 40.3591 66.5033 40.7141 68.2521 41.1781C69.7827 41.588 71.2035 42.298 71.968 43.0351C72.7198 43.7722 73.4708 45.2606 73.8945 46.8588C74.1135 47.7328 74.2361 47.9652 74.4544 47.9923C74.8231 48.0472 74.9601 47.8283 75.2332 46.7362C75.5613 45.3982 76.2717 43.9233 76.9407 43.1998C77.6511 42.4349 78.9898 41.7249 80.5746 41.2608C81.9134 40.8787 82.0639 40.7967 81.9818 40.4275C81.9547 40.25 81.6131 40.086 80.6702 39.813C77.4735 38.8842 76.1754 37.601 75.2596 34.4738C75.082 33.8044 74.8773 33.2177 74.836 33.1357C74.714 32.944 74.4273 32.9575 74.2497 33.1628Z" fill="url(#paint5_linear_1332_1136)"/>
</g>
<g filter="url(#filter4_d_1332_1136)">
<path d="M11.8331 30.1086C11.7875 30.1722 11.651 30.5548 11.5507 30.9549C10.9858 33.0213 10.139 33.8681 8.03491 34.5054C6.71401 34.906 6.66883 35.1427 7.83473 35.4521C8.85513 35.7253 9.80231 36.1987 10.312 36.6901C10.8132 37.1815 11.3139 38.1737 11.5963 39.2392C11.7423 39.8219 11.8241 39.9768 11.9696 39.9948C12.2154 40.0314 12.3067 39.8855 12.4888 39.1575C12.7075 38.2655 13.1811 37.2822 13.6271 36.7998C14.1007 36.2899 14.9932 35.8166 16.0498 35.5072C16.9422 35.2525 17.0426 35.1978 16.9879 34.9517C16.9698 34.8333 16.7421 34.724 16.1135 34.542C13.9823 33.9228 13.1169 33.0674 12.5064 30.9825C12.388 30.5363 12.2515 30.1451 12.224 30.0905C12.1427 29.9627 11.9515 29.9717 11.8331 30.1086Z" fill="url(#paint6_linear_1332_1136)"/>
</g>
<g filter="url(#filter5_d_1332_1136)">
<path d="M74.8331 59.1086C74.7875 59.1722 74.651 59.5548 74.5507 59.9549C73.9858 62.0213 73.139 62.8681 71.0349 63.5054C69.714 63.906 69.6688 64.1427 70.8347 64.4521C71.8551 64.7253 72.8023 65.1987 73.312 65.6901C73.8132 66.1815 74.3139 67.1737 74.5963 68.2392C74.7423 68.8219 74.8241 68.9768 74.9696 68.9948C75.2154 69.0314 75.3067 68.8855 75.4888 68.1575C75.7075 67.2655 76.1811 66.2822 76.6271 65.7998C77.1007 65.2899 77.9932 64.8166 79.0498 64.5072C79.9422 64.2525 80.0426 64.1978 79.9879 63.9517C79.9698 63.8333 79.7421 63.724 79.1135 63.542C76.9823 62.9228 76.1169 62.0674 75.5064 59.9825C75.388 59.5363 75.2515 59.1451 75.224 59.0905C75.1427 58.9627 74.9515 58.9717 74.8331 59.1086Z" fill="url(#paint7_linear_1332_1136)"/>
</g>
<g filter="url(#filter6_d_1332_1136)">
<path d="M52.8331 5.10855C52.7875 5.17223 52.651 5.5548 52.5507 5.95495C51.9858 8.02126 51.139 8.86813 49.0349 9.50542C47.714 9.90604 47.6688 10.1427 48.8347 10.4521C49.8551 10.7253 50.8023 11.1987 51.312 11.6901C51.8132 12.1815 52.3139 13.1737 52.5963 14.2392C52.7423 14.8219 52.8241 14.9768 52.9696 14.9948C53.2154 15.0314 53.3067 14.8855 53.4888 14.1575C53.7075 13.2655 54.1811 12.2822 54.6271 11.7998C55.1007 11.2899 55.9932 10.8166 57.0498 10.5072C57.9422 10.2525 58.0426 10.1978 57.9879 9.95166C57.9698 9.83333 57.7421 9.72403 57.1135 9.54201C54.9823 8.92278 54.1169 8.06736 53.5064 5.98251C53.388 5.53627 53.2515 5.14515 53.224 5.0905C53.1427 4.96266 52.9515 4.97169 52.8331 5.10855Z" fill="url(#paint8_linear_1332_1136)"/>
</g>
<g filter="url(#filter7_d_1332_1136)">
<path d="M10.8331 70.1086C10.7875 70.1722 10.651 70.5548 10.5507 70.9549C9.9858 73.0213 9.13895 73.8681 7.03491 74.5054C5.71401 74.906 5.66883 75.1427 6.83473 75.4521C7.85513 75.7253 8.80231 76.1987 9.31203 76.6901C9.81319 77.1815 10.3139 78.1737 10.5963 79.2392C10.7423 79.8219 10.8241 79.9768 10.9696 79.9948C11.2154 80.0314 11.3067 79.8855 11.4888 79.1575C11.7075 78.2655 12.1811 77.2822 12.6271 76.7998C13.1007 76.2899 13.9932 75.8166 15.0498 75.5072C15.9422 75.2525 16.0426 75.1978 15.9879 74.9517C15.9698 74.8333 15.7421 74.724 15.1135 74.542C12.9823 73.9228 12.1169 73.0674 11.5064 70.9825C11.388 70.5363 11.2515 70.1451 11.224 70.0905C11.1427 69.9627 10.9515 69.9717 10.8331 70.1086Z" fill="url(#paint9_linear_1332_1136)"/>
</g>
</g>
<defs>
<filter id="filter0_d_1332_1136" x="57" y="3" width="29" height="29" filterUnits="userSpaceOnUse" color-interpolation-filters="sRGB">
<feFlood flood-opacity="0" result="BackgroundImageFix"/>
<feColorMatrix in="SourceAlpha" type="matrix" values="0 0 0 0 0 0 0 0 0 0 0 0 0 0 0 0 0 0 127 0" result="hardAlpha"/>
<feOffset dy="4"/>
<feGaussianBlur stdDeviation="2"/>
<feComposite in2="hardAlpha" operator="out"/>
<feColorMatrix type="matrix" values="0 0 0 0 0 0 0 0 0 0 0 0 0 0 0 0 0 0 0.25 0"/>
<feBlend mode="normal" in2="BackgroundImageFix" result="effect1_dropShadow_1332_1136"/>
<feBlend mode="normal" in="SourceGraphic" in2="effect1_dropShadow_1332_1136" result="shape"/>
</filter>
<filter id="filter1_d_1332_1136" x="13" y="12" width="58" height="68" filterUnits="userSpaceOnUse" color-interpolation-filters="sRGB">
<feFlood flood-opacity="0" result="BackgroundImageFix"/>
<feColorMatrix in="SourceAlpha" type="matrix" values="0 0 0 0 0 0 0 0 0 0 0 0 0 0 0 0 0 0 127 0" result="hardAlpha"/>
<feOffset dy="4"/>
<feGaussianBlur stdDeviation="2"/>
<feComposite in2="hardAlpha" operator="out"/>
<feColorMatrix type="matrix" values="0 0 0 0 0 0 0 0 0 0 0 0 0 0 0 0 0 0 0.25 0"/>
<feBlend mode="normal" in2="BackgroundImageFix" result="effect1_dropShadow_1332_1136"/>
<feBlend mode="normal" in="SourceGraphic" in2="effect1_dropShadow_1332_1136" result="shape"/>
</filter>
<filter id="filter2_d_1332_1136" x="5" y="15" width="23" height="23" filterUnits="userSpaceOnUse" color-interpolation-filters="sRGB">
<feFlood flood-opacity="0" result="BackgroundImageFix"/>
<feColorMatrix in="SourceAlpha" type="matrix" values="0 0 0 0 0 0 0 0 0 0 0 0 0 0 0 0 0 0 127 0" result="hardAlpha"/>
<feOffset dy="4"/>
<feGaussianBlur stdDeviation="2"/>
<feComposite in2="hardAlpha" operator="out"/>
<feColorMatrix type="matrix" values="0 0 0 0 0 0 0 0 0 0 0 0 0 0 0 0 0 0 0.25 0"/>
<feBlend mode="normal" in2="BackgroundImageFix" result="effect1_dropShadow_1332_1136"/>
<feBlend mode="normal" in="SourceGraphic" in2="effect1_dropShadow_1332_1136" result="shape"/>
</filter>
<filter id="filter3_d_1332_1136" x="63" y="33" width="23" height="23" filterUnits="userSpaceOnUse" color-interpolation-filters="sRGB">
<feFlood flood-opacity="0" result="BackgroundImageFix"/>
<feColorMatrix in="SourceAlpha" type="matrix" values="0 0 0 0 0 0 0 0 0 0 0 0 0 0 0 0 0 0 127 0" result="hardAlpha"/>
<feOffset dy="4"/>
<feGaussianBlur stdDeviation="2"/>
<feComposite in2="hardAlpha" operator="out"/>
<feColorMatrix type="matrix" values="0 0 0 0 0 0 0 0 0 0 0 0 0 0 0 0 0 0 0.25 0"/>
<feBlend mode="normal" in2="BackgroundImageFix" result="effect1_dropShadow_1332_1136"/>
<feBlend mode="normal" in="SourceGraphic" in2="effect1_dropShadow_1332_1136" result="shape"/>
</filter>
<filter id="filter4_d_1332_1136" x="3" y="30" width="18" height="18" filterUnits="userSpaceOnUse" color-interpolation-filters="sRGB">
<feFlood flood-opacity="0" result="BackgroundImageFix"/>
<feColorMatrix in="SourceAlpha" type="matrix" values="0 0 0 0 0 0 0 0 0 0 0 0 0 0 0 0 0 0 127 0" result="hardAlpha"/>
<feOffset dy="4"/>
<feGaussianBlur stdDeviation="2"/>
<feComposite in2="hardAlpha" operator="out"/>
<feColorMatrix type="matrix" values="0 0 0 0 0 0 0 0 0 0 0 0 0 0 0 0 0 0 0.25 0"/>
<feBlend mode="normal" in2="BackgroundImageFix" result="effect1_dropShadow_1332_1136"/>
<feBlend mode="normal" in="SourceGraphic" in2="effect1_dropShadow_1332_1136" result="shape"/>
</filter>
<filter id="filter5_d_1332_1136" x="66" y="59" width="18" height="18" filterUnits="userSpaceOnUse" color-interpolation-filters="sRGB">
<feFlood flood-opacity="0" result="BackgroundImageFix"/>
<feColorMatrix in="SourceAlpha" type="matrix" values="0 0 0 0 0 0 0 0 0 0 0 0 0 0 0 0 0 0 127 0" result="hardAlpha"/>
<feOffset dy="4"/>
<feGaussianBlur stdDeviation="2"/>
<feComposite in2="hardAlpha" operator="out"/>
<feColorMatrix type="matrix" values="0 0 0 0 0 0 0 0 0 0 0 0 0 0 0 0 0 0 0.25 0"/>
<feBlend mode="normal" in2="BackgroundImageFix" result="effect1_dropShadow_1332_1136"/>
<feBlend mode="normal" in="SourceGraphic" in2="effect1_dropShadow_1332_1136" result="shape"/>
</filter>
<filter id="filter6_d_1332_1136" x="44" y="5" width="18" height="18" filterUnits="userSpaceOnUse" color-interpolation-filters="sRGB">
<feFlood flood-opacity="0" result="BackgroundImageFix"/>
<feColorMatrix in="SourceAlpha" type="matrix" values="0 0 0 0 0 0 0 0 0 0 0 0 0 0 0 0 0 0 127 0" result="hardAlpha"/>
<feOffset dy="4"/>
<feGaussianBlur stdDeviation="2"/>
<feComposite in2="hardAlpha" operator="out"/>
<feColorMatrix type="matrix" values="0 0 0 0 0 0 0 0 0 0 0 0 0 0 0 0 0 0 0.25 0"/>
<feBlend mode="normal" in2="BackgroundImageFix" result="effect1_dropShadow_1332_1136"/>
<feBlend mode="normal" in="SourceGraphic" in2="effect1_dropShadow_1332_1136" result="shape"/>
</filter>
<filter id="filter7_d_1332_1136" x="2" y="70" width="18" height="18" filterUnits="userSpaceOnUse" color-interpolation-filters="sRGB">
<feFlood flood-opacity="0" result="BackgroundImageFix"/>
<feColorMatrix in="SourceAlpha" type="matrix" values="0 0 0 0 0 0 0 0 0 0 0 0 0 0 0 0 0 0 127 0" result="hardAlpha"/>
<feOffset dy="4"/>
<feGaussianBlur stdDeviation="2"/>
<feComposite in2="hardAlpha" operator="out"/>
<feColorMatrix type="matrix" values="0 0 0 0 0 0 0 0 0 0 0 0 0 0 0 0 0 0 0.25 0"/>
<feBlend mode="normal" in2="BackgroundImageFix" result="effect1_dropShadow_1332_1136"/>
<feBlend mode="normal" in="SourceGraphic" in2="effect1_dropShadow_1332_1136" result="shape"/>
</filter>
<linearGradient id="paint0_linear_1332_1136" x1="71.5" y1="3" x2="71.5" y2="24" gradientUnits="userSpaceOnUse">
<stop stop-color="#FBB03B"/>
<stop offset="1" stop-color="#F78140"/>
</linearGradient>
<linearGradient id="paint1_linear_1332_1136" x1="42.0373" y1="12" x2="42.0373" y2="32.7521" gradientUnits="userSpaceOnUse">
<stop stop-color="#FBB03B"/>
<stop offset="1" stop-color="#F78140"/>
</linearGradient>
<linearGradient id="paint2_linear_1332_1136" x1="42.0525" y1="35.4536" x2="42.0525" y2="48.4674" gradientUnits="userSpaceOnUse">
<stop stop-color="#FBB03B"/>
<stop offset="1" stop-color="#F78140"/>
</linearGradient>
<linearGradient id="paint3_linear_1332_1136" x1="42" y1="51.1445" x2="42" y2="71.9999" gradientUnits="userSpaceOnUse">
<stop stop-color="#FBB03B"/>
<stop offset="1" stop-color="#F78140"/>
</linearGradient>
<linearGradient id="paint4_linear_1332_1136" x1="16.5" y1="30" x2="16.5" y2="15" gradientUnits="userSpaceOnUse">
<stop stop-color="#F78140"/>
<stop offset="1" stop-color="#FBB03B"/>
</linearGradient>
<linearGradient id="paint5_linear_1332_1136" x1="74.5" y1="48" x2="74.5" y2="33" gradientUnits="userSpaceOnUse">
<stop stop-color="#F78140"/>
<stop offset="1" stop-color="#FBB03B"/>
</linearGradient>
<linearGradient id="paint6_linear_1332_1136" x1="12" y1="40" x2="12" y2="30" gradientUnits="userSpaceOnUse">
<stop stop-color="#F78140"/>
<stop offset="1" stop-color="#FBB03B"/>
</linearGradient>
<linearGradient id="paint7_linear_1332_1136" x1="75" y1="69" x2="75" y2="59" gradientUnits="userSpaceOnUse">
<stop stop-color="#F78140"/>
<stop offset="1" stop-color="#FBB03B"/>
</linearGradient>
<linearGradient id="paint8_linear_1332_1136" x1="53" y1="15" x2="53" y2="5" gradientUnits="userSpaceOnUse">
<stop stop-color="#F78140"/>
<stop offset="1" stop-color="#FBB03B"/>
</linearGradient>
<linearGradient id="paint9_linear_1332_1136" x1="11" y1="80" x2="11" y2="70" gradientUnits="userSpaceOnUse">
<stop stop-color="#F78140"/>
<stop offset="1" stop-color="#FBB03B"/>
</linearGradient>
<clipPath id="clip0_1332_1136">
<rect width="83.75" height="83.75" fill="white"/>
</clipPath>
</defs>
</svg>
