<svg width="84" height="84" viewBox="0 0 84 84" fill="none" xmlns="http://www.w3.org/2000/svg">
<g filter="url(#filter0_d_119_80)">
<path d="M40.4371 41.5744H14.5014C13.4854 41.5744 12.5704 40.9805 12.1855 40.0682C11.8005 39.1558 12.0277 38.121 12.7471 37.4291L34.335 16.8434H14.5014C13.1194 16.8434 12.0025 15.7473 12.0025 14.4186C12.0088 13.0777 13.1257 12 14.5014 12H40.4371C41.4468 12 42.3618 12.5939 42.7468 13.5063C43.1317 14.4186 42.9045 15.4534 42.1851 16.1453L20.6035 36.7372H40.4371C41.8128 36.7372 42.9361 37.8271 42.9361 39.162C42.9361 40.4968 41.8128 41.5744 40.4371 41.5744ZM69.4966 46.5525H57.2796L71.2572 33.2226C71.9829 32.5245 72.1911 31.4959 71.8188 30.5835C71.4339 29.6712 70.5125 29.0711 69.4966 29.0711H51.1711C49.8018 29.0711 48.6722 30.1549 48.6722 31.4897C48.6722 32.8185 49.8018 33.9145 51.1711 33.9145H63.3944L49.4169 47.2444C48.6912 47.9424 48.4766 48.9711 48.8552 49.8835C49.2402 50.8019 50.1552 51.3959 51.1648 51.3959H69.4902C70.8722 51.3959 71.9892 50.306 71.9892 48.9772C71.9955 47.6424 70.8785 46.5525 69.4966 46.5525ZM41.3206 67.1628H32.7952L43.0686 57.372C43.7943 56.6801 44.0151 55.633 43.6302 54.7268C43.2453 53.8145 42.3303 53.2205 41.3143 53.2205H26.6931C25.3174 53.2205 24.1942 54.3104 24.1942 55.6453C24.1942 56.9801 25.3111 58.07 26.6931 58.07H35.2184L24.9451 67.8486C24.2194 68.5466 23.9985 69.5753 24.3835 70.4876C24.7684 71.3999 25.6834 72 26.6931 72H41.3143C42.69 72 43.8069 70.9101 43.8069 69.5753C43.8132 68.2527 42.7089 67.1628 41.3206 67.1628Z" fill="url(#paint0_linear_119_80)"/>
</g>
<defs>
<filter id="filter0_d_119_80" x="9" y="11" width="70" height="70" filterUnits="userSpaceOnUse" color-interpolation-filters="sRGB">
<feFlood flood-opacity="0" result="BackgroundImageFix"/>
<feColorMatrix in="SourceAlpha" type="matrix" values="0 0 0 0 0 0 0 0 0 0 0 0 0 0 0 0 0 0 127 0" result="hardAlpha"/>
<feOffset dx="2" dy="4"/>
<feGaussianBlur stdDeviation="2.5"/>
<feComposite in2="hardAlpha" operator="out"/>
<feColorMatrix type="matrix" values="0 0 0 0 0 0 0 0 0 0 0 0 0 0 0 0 0 0 0.25 0"/>
<feBlend mode="normal" in2="BackgroundImageFix" result="effect1_dropShadow_119_80"/>
<feBlend mode="normal" in="SourceGraphic" in2="effect1_dropShadow_119_80" result="shape"/>
</filter>
<linearGradient id="paint0_linear_119_80" x1="42" y1="12" x2="42" y2="72" gradientUnits="userSpaceOnUse">
<stop stop-color="white"/>
<stop offset="1" stop-color="#BFBFBF"/>
</linearGradient>
</defs>
</svg>
