<svg width="84" height="84" viewBox="0 0 84 84" fill="none" xmlns="http://www.w3.org/2000/svg">
<path d="M81.8348 14.9985C80.8041 20.9217 75.2241 24.8769 69.3763 23.8329C65.3028 23.1061 62.1786 20.1435 61 16.4134C61.6771 16.6878 62.3928 16.8979 63.1407 17.0329C68.9906 18.0769 74.5684 14.1217 75.5991 8.19857C75.912 6.39783 75.7641 4.6271 75.2499 3C79.8762 4.87577 82.7348 9.8321 81.8348 14.9985Z" fill="url(#paint0_linear_2147_92)"/>
<g filter="url(#filter0_d_2147_92)">
<path d="M54.2049 19.5667C54.2049 22.6411 51.7453 25.1334 48.711 25.1334C45.6767 25.1334 43.217 22.6411 43.217 19.5667C43.217 16.4923 45.6767 14 48.711 14C51.7453 14 54.2049 16.4923 54.2049 19.5667Z" fill="url(#paint1_linear_2147_92)"/>
<path fill-rule="evenodd" clip-rule="evenodd" d="M24.5643 25.2638C28.3931 22.8392 33.1511 22.4679 37.3012 24.2701C40.547 25.6796 41.3615 29.965 38.8645 32.4952L34.3211 37.0986C33.3611 38.0714 33.4326 39.6693 34.4755 40.55L37.2127 42.861C38.8411 44.236 39.7825 46.2728 39.7825 48.4205V52.9671C39.7825 54.1199 38.8601 55.0546 37.7223 55.0546C36.5845 55.0546 35.662 54.1199 35.662 52.9671V48.4205C35.662 47.5117 35.2637 46.65 34.5749 46.0685L31.8377 43.7572C28.9334 41.3051 28.7342 36.8551 31.4075 34.1465L35.9508 29.543C36.3867 29.1014 36.2444 28.3535 35.678 28.1075C32.7684 26.844 29.4326 27.1043 26.7482 28.8043L20.9589 32.4705C19.994 33.0815 18.7229 32.7843 18.1199 31.8067C17.5168 30.829 17.8102 29.5411 18.775 28.9301L24.5643 25.2638ZM39.7825 36.267C39.7825 35.1141 40.7049 34.1795 41.8427 34.1795H50.0836C51.2214 34.1795 52.1439 35.1141 52.1439 36.267C52.1439 37.4198 51.2214 38.3545 50.0836 38.3545H41.8427C40.7049 38.3545 39.7825 37.4198 39.7825 36.267ZM28.1912 45.9244C28.9958 46.7396 28.9958 48.0611 28.1912 48.8764L27.289 49.7907C27.2098 49.8709 27.1317 49.9502 27.0544 50.0287C25.6988 51.4048 24.6258 52.4942 23.2291 53.0804C21.8324 53.6665 20.3136 53.6649 18.3946 53.6632C18.2853 53.6629 18.1746 53.6629 18.0626 53.6629H15.7465C14.6087 53.6629 13.6863 52.7283 13.6863 51.5754C13.6863 50.4225 14.6087 49.4879 15.7465 49.4879H18.0626C20.4764 49.4879 21.1093 49.4509 21.6523 49.2232C22.1953 48.9952 22.6686 48.5677 24.3754 46.8384L25.2776 45.9244C26.0821 45.1091 27.3866 45.1091 28.1912 45.9244Z" fill="url(#paint2_linear_2147_92)"/>
<path d="M15.9855 69.667H61.0412C64.851 69.667 67.9394 66.5377 67.9394 62.6775C67.9394 58.3354 64.0733 55.0441 59.8521 55.7926L59.4049 55.8719L62.537 33.4843L62.5383 33.4763C62.6828 32.5002 62.7693 31.9372 62.8762 31.5309C62.9245 31.3473 62.9633 31.2535 62.9853 31.2091C62.9954 31.1886 63.0028 31.1773 63.0028 31.1773L63.005 31.1744L63.0078 31.172C63.0078 31.172 63.0185 31.1638 63.0385 31.1526C63.0811 31.1283 63.1718 31.0846 63.3503 31.0267C63.7467 30.8984 64.2994 30.7833 65.2595 30.5887L68.3435 29.9638C69.4593 29.7376 70.1829 28.6379 69.9595 27.5074C69.7365 26.3769 68.6512 25.6437 67.5353 25.8698L64.3582 26.5137C63.5242 26.6826 62.74 26.8414 62.0961 27.0498C61.3788 27.2821 60.6454 27.6314 60.0218 28.2947C59.398 28.9581 59.0892 29.7172 58.8953 30.4544C58.7209 31.116 58.6025 31.9175 58.4764 32.7697L58.4621 32.8649L55.1372 56.6287L15.4709 63.6622C14.0423 63.9155 13 65.1725 13 66.6421C13 68.3126 14.3366 69.667 15.9855 69.667Z" fill="url(#paint3_linear_2147_92)"/>
</g>
<defs>
<filter id="filter0_d_2147_92" x="9" y="14" width="65" height="63.667" filterUnits="userSpaceOnUse" color-interpolation-filters="sRGB">
<feFlood flood-opacity="0" result="BackgroundImageFix"/>
<feColorMatrix in="SourceAlpha" type="matrix" values="0 0 0 0 0 0 0 0 0 0 0 0 0 0 0 0 0 0 127 0" result="hardAlpha"/>
<feOffset dy="4"/>
<feGaussianBlur stdDeviation="2"/>
<feComposite in2="hardAlpha" operator="out"/>
<feColorMatrix type="matrix" values="0 0 0 0 0 0 0 0 0 0 0 0 0 0 0 0 0 0 0.25 0"/>
<feBlend mode="normal" in2="BackgroundImageFix" result="effect1_dropShadow_2147_92"/>
<feBlend mode="normal" in="SourceGraphic" in2="effect1_dropShadow_2147_92" result="shape"/>
</filter>
<linearGradient id="paint0_linear_2147_92" x1="71.5" y1="3" x2="71.5" y2="24" gradientUnits="userSpaceOnUse">
<stop stop-color="white"/>
<stop offset="1" stop-color="#BFBFBF"/>
</linearGradient>
<linearGradient id="paint1_linear_2147_92" x1="48.711" y1="14" x2="48.711" y2="25.1334" gradientUnits="userSpaceOnUse">
<stop stop-color="white"/>
<stop offset="1" stop-color="#BFBFBF"/>
</linearGradient>
<linearGradient id="paint2_linear_2147_92" x1="32.9151" y1="23.1406" x2="32.9151" y2="55.0546" gradientUnits="userSpaceOnUse">
<stop stop-color="white"/>
<stop offset="1" stop-color="#BFBFBF"/>
</linearGradient>
<linearGradient id="paint3_linear_2147_92" x1="41.5" y1="25.8289" x2="41.5" y2="69.667" gradientUnits="userSpaceOnUse">
<stop stop-color="white"/>
<stop offset="1" stop-color="#BFBFBF"/>
</linearGradient>
</defs>
</svg>
