<svg width="84" height="84" viewBox="0 0 84 84" fill="none" xmlns="http://www.w3.org/2000/svg">
<path d="M81.8348 14.9985C80.8041 20.9217 75.2241 24.8769 69.3763 23.8329C65.3028 23.1061 62.1786 20.1435 61 16.4134C61.6771 16.6878 62.3928 16.8979 63.1407 17.0329C68.9906 18.0769 74.5684 14.1217 75.5991 8.19857C75.912 6.39783 75.7641 4.6271 75.2499 3C79.8762 4.87577 82.7348 9.8321 81.8348 14.9985Z" fill="url(#paint0_linear_1323_947)"/>
<g filter="url(#filter0_d_1323_947)">
<path d="M26.3271 26.7578C25.1457 26.7578 24.1875 27.6888 24.1875 28.8373C24.1875 29.9857 25.1458 30.9168 26.3271 30.9168C27.5069 30.9168 28.4652 29.9857 28.4652 28.8373C28.4652 27.6888 27.5069 26.7578 26.3271 26.7578Z" fill="url(#paint1_linear_1323_947)"/>
<path d="M56.6747 26.7578C55.4934 26.7578 54.5352 27.6888 54.5352 28.8373C54.5352 29.9857 55.4934 30.9168 56.6747 30.9168C57.8546 30.9168 58.8128 29.9857 58.8128 28.8373C58.8128 27.6888 57.8546 26.7578 56.6747 26.7578Z" fill="url(#paint2_linear_1323_947)"/>
<path d="M64.4592 33.5327C65.3519 32.1711 65.8706 30.5617 65.8706 28.837C65.8706 23.9643 61.7451 20.0001 56.6738 20.0001C53.2753 20.0001 50.3037 21.782 48.7116 24.4232C46.3786 23.9342 43.9638 23.6858 41.5001 23.6858C39.043 23.6858 36.6243 23.9334 34.2882 24.4226C32.6961 21.7816 29.7247 20 26.3263 20C21.2551 20 17.1295 23.9642 17.1295 28.8369C17.1295 30.5615 17.6482 32.1711 18.5409 33.5326C16.3889 36.2974 15.1788 39.3993 15 42.625C17.839 44.8186 20.8876 46.3459 24.5423 47.4088C29.0296 48.714 34.5766 49.3485 41.5001 49.3485C48.4235 49.3485 53.9705 48.7141 58.4578 47.4088C62.1123 46.3459 65.1609 44.8187 68 42.6251C67.8213 39.3997 66.6113 36.2975 64.4592 33.5327ZM26.3263 34.335C23.1627 34.335 20.5892 31.8687 20.5892 28.837C20.5892 25.8054 23.1628 23.3391 26.3263 23.3391C29.4898 23.3391 32.0633 25.8054 32.0633 28.837C32.0633 31.8687 29.4897 34.335 26.3263 34.335ZM37.7706 45.2443C36.7606 45.2443 35.9387 44.4466 35.9387 43.4626C35.9387 42.4785 36.7606 41.6814 37.7706 41.6814C38.7819 41.6814 39.6037 42.4785 39.6037 43.4626C39.6037 44.4466 38.7819 45.2443 37.7706 45.2443ZM45.2156 45.2577C44.1958 45.2577 43.3686 44.4539 43.3686 43.4627C43.3686 42.4713 44.1958 41.6676 45.2156 41.6676C46.2341 41.6676 47.0613 42.4712 47.0613 43.4627C47.0613 44.4541 46.2342 45.2577 45.2156 45.2577ZM56.6737 34.335C53.5102 34.335 50.9367 31.8687 50.9367 28.837C50.9367 25.8054 53.5102 23.3391 56.6737 23.3391C59.8373 23.3391 62.4108 25.8054 62.4108 28.837C62.4108 31.8687 59.8373 34.335 56.6737 34.335Z" fill="url(#paint3_linear_1323_947)"/>
<path d="M59.4562 50.6059C54.6405 52.0067 48.767 52.6875 41.5003 52.6875C34.2336 52.6875 28.36 52.0066 23.5442 50.6059C20.5214 49.7267 17.8664 48.5604 15.3984 47.0176C16.3611 51.0245 18.9497 54.6951 22.9242 57.5977C27.9058 61.2358 34.5029 63.2393 41.5002 63.2393C48.4976 63.2393 55.0946 61.2358 60.0762 57.5977C64.0506 54.6952 66.6392 51.0246 67.6019 47.0178C65.1339 48.5605 62.4788 49.7267 59.4562 50.6059Z" fill="url(#paint4_linear_1323_947)"/>
</g>
<g filter="url(#filter1_d_1323_947)">
<path d="M9.83312 14.1086C9.78747 14.1722 9.651 14.5548 9.55068 14.9549C8.9858 17.0213 8.13895 17.8681 6.03491 18.5054C4.71401 18.906 4.66883 19.1427 5.83473 19.4521C6.85513 19.7253 7.80231 20.1987 8.31203 20.6901C8.8132 21.1815 9.31389 22.1737 9.59633 23.2392C9.7423 23.8219 9.82408 23.9768 9.96958 23.9948C10.2154 24.0314 10.3067 23.8855 10.4888 23.1575C10.7075 22.2655 11.1811 21.2822 11.6271 20.7998C12.1007 20.2899 12.9932 19.8166 14.0498 19.5072C14.9422 19.2525 15.0426 19.1978 14.9879 18.9517C14.9698 18.8333 14.7421 18.724 14.1135 18.542C11.9823 17.9228 11.1169 17.0674 10.5064 14.9825C10.388 14.5363 10.2515 14.1451 10.224 14.0905C10.1427 13.9627 9.95152 13.9717 9.83312 14.1086Z" fill="url(#paint5_linear_1323_947)"/>
</g>
<g filter="url(#filter2_d_1323_947)">
<path d="M25.8331 65.1086C25.7875 65.1722 25.651 65.5548 25.5507 65.9549C24.9858 68.0213 24.139 68.8681 22.0349 69.5054C20.714 69.906 20.6688 70.1427 21.8347 70.4521C22.8551 70.7253 23.8023 71.1987 24.312 71.6901C24.8132 72.1815 25.3139 73.1737 25.5963 74.2392C25.7423 74.8219 25.8241 74.9768 25.9696 74.9948C26.2154 75.0314 26.3067 74.8855 26.4888 74.1575C26.7075 73.2655 27.1811 72.2822 27.6271 71.7998C28.1007 71.2899 28.9932 70.8166 30.0498 70.5072C30.9422 70.2525 31.0426 70.1978 30.9879 69.9517C30.9698 69.8333 30.7421 69.724 30.1135 69.542C27.9823 68.9228 27.1169 68.0674 26.5064 65.9825C26.388 65.5363 26.2515 65.1451 26.224 65.0905C26.1427 64.9627 25.9515 64.9717 25.8331 65.1086Z" fill="url(#paint6_linear_1323_947)"/>
</g>
<g filter="url(#filter3_d_1323_947)">
<path d="M46.8331 8.10855C46.7875 8.17223 46.651 8.5548 46.5507 8.95495C45.9858 11.0213 45.139 11.8681 43.0349 12.5054C41.714 12.906 41.6688 13.1427 42.8347 13.4521C43.8551 13.7253 44.8023 14.1987 45.312 14.6901C45.8132 15.1815 46.3139 16.1737 46.5963 17.2392C46.7423 17.8219 46.8241 17.9768 46.9696 17.9948C47.2154 18.0314 47.3067 17.8855 47.4888 17.1575C47.7075 16.2655 48.1811 15.2822 48.6271 14.7998C49.1007 14.2899 49.9932 13.8166 51.0498 13.5072C51.9422 13.2525 52.0426 13.1978 51.9879 12.9517C51.9698 12.8333 51.7421 12.724 51.1135 12.542C48.9823 11.9228 48.1169 11.0674 47.5064 8.98251C47.388 8.53627 47.2515 8.14515 47.224 8.0905C47.1427 7.96266 46.9515 7.97169 46.8331 8.10855Z" fill="url(#paint7_linear_1323_947)"/>
</g>
<g filter="url(#filter4_d_1323_947)">
<path d="M71.2497 58.1628C71.1812 58.2584 70.9765 58.8322 70.826 59.4324C69.9787 62.5319 68.7084 63.8022 65.5524 64.7581C63.571 65.3591 63.5033 65.7141 65.2521 66.1781C66.7827 66.588 68.2035 67.298 68.968 68.0351C69.7198 68.7722 70.4708 70.2606 70.8945 71.8588C71.1135 72.7328 71.2361 72.9652 71.4544 72.9923C71.8231 73.0472 71.9601 72.8283 72.2332 71.7362C72.5613 70.3982 73.2717 68.9233 73.9407 68.1998C74.6511 67.4349 75.9898 66.7249 77.5746 66.2608C78.9134 65.8787 79.0639 65.7967 78.9818 65.4275C78.9547 65.25 78.6131 65.086 77.6702 64.813C74.4735 63.8842 73.1754 62.601 72.2596 59.4738C72.082 58.8044 71.8773 58.2177 71.836 58.1357C71.714 57.944 71.4273 57.9575 71.2497 58.1628Z" fill="url(#paint8_linear_1323_947)"/>
</g>
<defs>
<filter id="filter0_d_1323_947" x="11" y="20" width="61" height="51.2393" filterUnits="userSpaceOnUse" color-interpolation-filters="sRGB">
<feFlood flood-opacity="0" result="BackgroundImageFix"/>
<feColorMatrix in="SourceAlpha" type="matrix" values="0 0 0 0 0 0 0 0 0 0 0 0 0 0 0 0 0 0 127 0" result="hardAlpha"/>
<feOffset dy="4"/>
<feGaussianBlur stdDeviation="2"/>
<feComposite in2="hardAlpha" operator="out"/>
<feColorMatrix type="matrix" values="0 0 0 0 0 0 0 0 0 0 0 0 0 0 0 0 0 0 0.25 0"/>
<feBlend mode="normal" in2="BackgroundImageFix" result="effect1_dropShadow_1323_947"/>
<feBlend mode="normal" in="SourceGraphic" in2="effect1_dropShadow_1323_947" result="shape"/>
</filter>
<filter id="filter1_d_1323_947" x="1" y="14" width="18" height="18" filterUnits="userSpaceOnUse" color-interpolation-filters="sRGB">
<feFlood flood-opacity="0" result="BackgroundImageFix"/>
<feColorMatrix in="SourceAlpha" type="matrix" values="0 0 0 0 0 0 0 0 0 0 0 0 0 0 0 0 0 0 127 0" result="hardAlpha"/>
<feOffset dy="4"/>
<feGaussianBlur stdDeviation="2"/>
<feComposite in2="hardAlpha" operator="out"/>
<feColorMatrix type="matrix" values="0 0 0 0 0 0 0 0 0 0 0 0 0 0 0 0 0 0 0.25 0"/>
<feBlend mode="normal" in2="BackgroundImageFix" result="effect1_dropShadow_1323_947"/>
<feBlend mode="normal" in="SourceGraphic" in2="effect1_dropShadow_1323_947" result="shape"/>
</filter>
<filter id="filter2_d_1323_947" x="17" y="65" width="18" height="18" filterUnits="userSpaceOnUse" color-interpolation-filters="sRGB">
<feFlood flood-opacity="0" result="BackgroundImageFix"/>
<feColorMatrix in="SourceAlpha" type="matrix" values="0 0 0 0 0 0 0 0 0 0 0 0 0 0 0 0 0 0 127 0" result="hardAlpha"/>
<feOffset dy="4"/>
<feGaussianBlur stdDeviation="2"/>
<feComposite in2="hardAlpha" operator="out"/>
<feColorMatrix type="matrix" values="0 0 0 0 0 0 0 0 0 0 0 0 0 0 0 0 0 0 0.25 0"/>
<feBlend mode="normal" in2="BackgroundImageFix" result="effect1_dropShadow_1323_947"/>
<feBlend mode="normal" in="SourceGraphic" in2="effect1_dropShadow_1323_947" result="shape"/>
</filter>
<filter id="filter3_d_1323_947" x="38" y="8" width="18" height="18" filterUnits="userSpaceOnUse" color-interpolation-filters="sRGB">
<feFlood flood-opacity="0" result="BackgroundImageFix"/>
<feColorMatrix in="SourceAlpha" type="matrix" values="0 0 0 0 0 0 0 0 0 0 0 0 0 0 0 0 0 0 127 0" result="hardAlpha"/>
<feOffset dy="4"/>
<feGaussianBlur stdDeviation="2"/>
<feComposite in2="hardAlpha" operator="out"/>
<feColorMatrix type="matrix" values="0 0 0 0 0 0 0 0 0 0 0 0 0 0 0 0 0 0 0.25 0"/>
<feBlend mode="normal" in2="BackgroundImageFix" result="effect1_dropShadow_1323_947"/>
<feBlend mode="normal" in="SourceGraphic" in2="effect1_dropShadow_1323_947" result="shape"/>
</filter>
<filter id="filter4_d_1323_947" x="60" y="58" width="23" height="23" filterUnits="userSpaceOnUse" color-interpolation-filters="sRGB">
<feFlood flood-opacity="0" result="BackgroundImageFix"/>
<feColorMatrix in="SourceAlpha" type="matrix" values="0 0 0 0 0 0 0 0 0 0 0 0 0 0 0 0 0 0 127 0" result="hardAlpha"/>
<feOffset dy="4"/>
<feGaussianBlur stdDeviation="2"/>
<feComposite in2="hardAlpha" operator="out"/>
<feColorMatrix type="matrix" values="0 0 0 0 0 0 0 0 0 0 0 0 0 0 0 0 0 0 0.25 0"/>
<feBlend mode="normal" in2="BackgroundImageFix" result="effect1_dropShadow_1323_947"/>
<feBlend mode="normal" in="SourceGraphic" in2="effect1_dropShadow_1323_947" result="shape"/>
</filter>
<linearGradient id="paint0_linear_1323_947" x1="71.5" y1="3" x2="71.5" y2="24" gradientUnits="userSpaceOnUse">
<stop stop-color="#FBB03B"/>
<stop offset="1" stop-color="#F78140"/>
</linearGradient>
<linearGradient id="paint1_linear_1323_947" x1="26.3263" y1="26.7578" x2="26.3263" y2="30.9168" gradientUnits="userSpaceOnUse">
<stop stop-color="#FBB03B"/>
<stop offset="1" stop-color="#F78140"/>
</linearGradient>
<linearGradient id="paint2_linear_1323_947" x1="56.674" y1="26.7578" x2="56.674" y2="30.9168" gradientUnits="userSpaceOnUse">
<stop stop-color="#FBB03B"/>
<stop offset="1" stop-color="#F78140"/>
</linearGradient>
<linearGradient id="paint3_linear_1323_947" x1="41.5" y1="20" x2="41.5" y2="49.3485" gradientUnits="userSpaceOnUse">
<stop stop-color="#FBB03B"/>
<stop offset="1" stop-color="#F78140"/>
</linearGradient>
<linearGradient id="paint4_linear_1323_947" x1="41.5002" y1="47.0176" x2="41.5002" y2="63.2393" gradientUnits="userSpaceOnUse">
<stop stop-color="#FBB03B"/>
<stop offset="1" stop-color="#F78140"/>
</linearGradient>
<linearGradient id="paint5_linear_1323_947" x1="10" y1="24" x2="10" y2="14" gradientUnits="userSpaceOnUse">
<stop stop-color="#F78140"/>
<stop offset="1" stop-color="#FBB03B"/>
</linearGradient>
<linearGradient id="paint6_linear_1323_947" x1="26" y1="75" x2="26" y2="65" gradientUnits="userSpaceOnUse">
<stop stop-color="#F78140"/>
<stop offset="1" stop-color="#FBB03B"/>
</linearGradient>
<linearGradient id="paint7_linear_1323_947" x1="47" y1="18" x2="47" y2="8" gradientUnits="userSpaceOnUse">
<stop stop-color="#F78140"/>
<stop offset="1" stop-color="#FBB03B"/>
</linearGradient>
<linearGradient id="paint8_linear_1323_947" x1="71.5" y1="73" x2="71.5" y2="58" gradientUnits="userSpaceOnUse">
<stop stop-color="#F78140"/>
<stop offset="1" stop-color="#FBB03B"/>
</linearGradient>
</defs>
</svg>
