<svg width="84" height="84" viewBox="0 0 84 84" fill="none" xmlns="http://www.w3.org/2000/svg">
<path d="M81.8348 14.9985C80.8041 20.9217 75.2241 24.8769 69.3763 23.8329C65.3028 23.1061 62.1786 20.1435 61 16.4134C61.6771 16.6878 62.3928 16.8979 63.1407 17.0329C68.9906 18.0769 74.5684 14.1217 75.5991 8.19857C75.912 6.39783 75.7641 4.6271 75.2499 3C79.8762 4.87577 82.7348 9.8321 81.8348 14.9985Z" fill="url(#paint0_linear_703_73)"/>
<path fill-rule="evenodd" clip-rule="evenodd" d="M40.4824 16.067C35.4256 16.4655 30.3948 18.4694 26.3929 21.6931C25.0034 22.8106 22.7646 25.1869 21.7477 26.6131C18.5696 31.0577 17 35.9906 17 41.5013C17 48.2839 19.4704 54.3983 24.141 59.2154C28.6447 63.8397 34.2417 66.4473 40.7265 66.9356C46.0279 67.3336 51.8304 65.8696 56.2315 63.0048C60.2845 60.3589 63.5271 56.7107 65.5343 52.4843C68.0432 47.1918 68.674 40.9745 67.2584 35.3355C65.2127 27.1658 59.2681 20.5117 51.3678 17.57C48.0866 16.3497 44.0722 15.7974 40.4824 16.067ZM42.6181 27.1658V33.6398L43.1713 33.7296C45.3716 34.0507 46.5686 34.6289 47.9706 36.0291C49.5786 37.635 50.2739 39.2918 50.2609 41.5652C50.2609 43.3634 49.6947 44.9692 48.5628 46.3564L48.1126 46.9216L52.7318 51.546L57.3509 56.1574L56.6432 56.7995C52.9243 60.1651 48.0481 62.1819 43.6735 62.1819H42.4511L42.5281 55.7719L42.6051 49.3749L41.5888 49.2336C39.5561 48.9379 38.2046 48.2574 36.8281 46.8058C34.5763 44.4554 34.0486 41.0644 35.4771 38.0968C35.7217 37.596 36.1463 36.9279 36.4295 36.5938C36.7256 36.2728 36.9571 35.9517 36.9571 35.9002C36.9571 35.8358 34.9244 33.7551 32.428 31.2629L27.8989 26.7414L28.272 26.3304C28.4906 26.1122 29.0313 25.6369 29.4945 25.2514C32.1064 23.1317 35.3876 21.5902 38.5012 21.0255C40.0192 20.7558 40.2123 20.7299 41.4993 20.7044L42.6187 20.6914V27.1658H42.6181ZM62.9368 36.4809C62.681 36.4451 62.3017 36.5344 61.7988 36.7486L58.4317 38.1834L58.3962 38.0899L58.7853 37.7069C59.388 37.117 59.9872 36.2172 60.5829 35.0076C60.8656 34.4382 61.0398 33.7703 61.1053 33.0038C61.1709 32.2373 61.0689 31.4987 60.7995 30.7881C60.2936 29.4541 59.3845 28.4658 58.0721 27.823C56.7551 27.1678 55.3544 27.1564 53.8702 27.7888C52.3983 28.416 51.3985 29.443 50.8709 30.8698C50.3509 32.2788 50.3367 33.6317 50.8284 34.9282C50.9939 35.3646 51.1451 35.6694 51.282 35.8428C51.6212 36.2486 52.22 36.2685 53.0787 35.9027C53.8514 35.5734 54.2731 35.2199 54.3436 34.8423C54.3755 34.626 54.3717 34.4466 54.3319 34.3043C54.3044 34.1567 54.2387 33.9457 54.1347 33.6715L54.0921 33.5592L54.0026 33.0978C53.9307 32.7954 53.9814 32.4407 54.1548 32.0337C54.3358 31.6091 54.6225 31.3131 55.015 31.1458C55.4075 30.9786 55.7354 30.904 55.9988 30.9221C56.2621 30.9403 56.4689 30.997 56.619 31.0923C56.7767 31.17 56.9386 31.2964 57.1048 31.4718C57.2663 31.6347 57.3684 31.7722 57.4109 31.8844C57.6237 32.4454 57.5915 33.0746 57.3145 33.7719C57.0498 34.464 56.668 35.148 56.1692 35.824C55.6656 36.4874 55.1668 37.1634 54.6727 37.8518C54.1739 38.5278 53.8001 39.2518 53.5515 40.0239C53.3104 40.7783 53.3175 41.4921 53.5728 42.1654C53.7429 42.6142 54.0513 42.9389 54.4979 43.1397C54.9445 43.3404 55.3885 43.3467 55.8301 43.1585L63.0242 40.093C63.5149 39.884 63.8668 39.6471 64.0799 39.3825C64.2308 39.2169 64.2981 38.9999 64.2819 38.7317C64.2779 38.4582 64.2027 38.1283 64.0561 37.7418C63.9048 37.3428 63.7475 37.0406 63.5841 36.8351C63.4159 36.6171 63.2002 36.4991 62.9368 36.4809Z" fill="url(#paint1_linear_703_73)"/>
<defs>
<linearGradient id="paint0_linear_703_73" x1="71.5" y1="3" x2="71.5" y2="24" gradientUnits="userSpaceOnUse">
<stop stop-color="white"/>
<stop offset="1" stop-color="#BFBFBF"/>
</linearGradient>
<linearGradient id="paint1_linear_703_73" x1="42.5" y1="67" x2="42.5" y2="16" gradientUnits="userSpaceOnUse">
<stop stop-color="white"/>
<stop offset="1" stop-color="#BFBFBF"/>
</linearGradient>
</defs>
</svg>
