<svg width="84" height="84" viewBox="0 0 84 84" fill="none" xmlns="http://www.w3.org/2000/svg">
<path fill-rule="evenodd" clip-rule="evenodd" d="M59.9274 15.2122C60.1467 15.0642 60.4063 14.9903 60.6692 15.001C60.9354 15.0207 61.1877 15.1291 61.3872 15.3096C61.5865 15.478 61.7242 15.7099 61.7778 15.9679C61.8313 16.2259 61.7977 16.4948 61.6823 16.7309L41.6919 57.4117C41.5746 57.6515 41.3804 57.8435 41.1415 57.9558C37.4673 59.5656 33.4937 60.3442 29.4951 60.2379C27.5964 60.2324 25.6997 60.1104 23.8155 59.8725C30.8441 62.3576 38.3728 63.0082 45.7123 61.7648L64.562 23.4068C64.6537 23.2115 64.7954 23.045 64.9724 22.9249C65.1493 22.8048 65.3548 22.7356 65.5671 22.7246C65.7787 22.7113 65.9901 22.7532 66.1813 22.8465C66.3236 22.9145 66.4508 23.0114 66.5551 23.1312C66.6594 23.251 66.7386 23.3912 66.7879 23.5432C66.8372 23.6952 66.8555 23.8559 66.8417 24.0154C66.8279 24.1749 66.7824 24.3298 66.7078 24.4708L47.563 63.4541C47.4781 63.6242 47.3553 63.7716 47.2042 63.8844C47.0532 63.9973 46.8783 64.0724 46.6935 64.1038C41.9056 64.9408 37.0197 65.0231 32.2073 64.3475C38.4464 66.3987 44.9555 67.4723 51.5116 67.5312L66.7158 36.588C66.8174 36.3755 66.9783 36.1982 67.1784 36.0784C67.3784 35.9585 67.6087 35.9013 67.8406 35.914C68.0122 35.9167 68.1812 35.9583 68.3351 36.0358C68.4774 36.1039 68.6046 36.2007 68.7089 36.3205C68.8132 36.4404 68.8924 36.5806 68.9417 36.7326C68.991 36.8846 69.0093 37.0453 68.9955 37.2048C68.9817 37.3643 68.9362 37.5192 68.8616 37.6601L53.3064 69.3341C53.2062 69.5349 53.0532 69.7034 52.8645 69.821C52.6758 69.9386 52.4588 70.0005 52.2375 70C28.9128 70 14.8094 58.102 14.4824 57.8177L14.4185 57.7691L14.3547 57.704L14.3069 57.6553C14.1257 57.4545 14.0181 57.1962 14.0021 56.924C13.9861 56.6518 14.0627 56.3824 14.2191 56.161L32.0557 20.6373C32.1592 20.4398 32.3131 20.2745 32.5012 20.1587C32.6894 20.0429 32.9048 19.981 33.1246 19.9795C52.6842 19.9795 59.8556 15.2609 59.9274 15.2122ZM43.1685 48.5146L44.4975 45.1471C44.544 45.0294 44.5618 44.9026 44.5493 44.7777C44.5369 44.6529 44.4946 44.5339 44.4262 44.4314C44.3578 44.3288 44.2654 44.2458 44.1572 44.1898C44.049 44.1337 43.9284 44.1064 43.8059 44.11C43.5204 44.1187 43.2374 44.0692 42.9734 43.9645C41.8337 43.5147 41.2979 42.1566 41.7792 40.9371C42.2605 39.7176 43.5794 39.0914 44.7191 39.5412C44.9835 39.645 45.224 39.8021 45.4266 40.0035C45.5136 40.0898 45.6204 40.1522 45.7377 40.1852C45.855 40.2181 45.9792 40.2206 46.0992 40.1924C46.2192 40.1642 46.3313 40.1062 46.4256 40.0235C46.52 39.9408 46.5936 39.836 46.6401 39.7183L47.9691 36.3508C48.1184 35.9712 48.1166 35.5501 47.9642 35.1799C47.8117 34.8096 47.521 34.5205 47.1558 34.3759L44.0364 33.1449C44.0959 33.031 44.1493 32.914 44.1964 32.7944C44.5335 31.9405 44.53 30.9926 44.1868 30.1592C43.8437 29.3259 43.1889 28.6754 42.3666 28.3509C41.5443 28.0264 40.6217 28.0543 39.802 28.4287C38.9822 28.803 38.3323 29.4931 37.9953 30.347C37.948 30.4666 37.9071 30.5885 37.8728 30.7123L34.7535 29.4811C34.388 29.3373 33.9781 29.35 33.6139 29.5163C33.2497 29.6827 32.9608 29.989 32.8107 30.3683L31.6735 33.2499C31.5642 33.1917 31.4517 33.1398 31.3366 33.0944C30.5143 32.7698 29.5917 32.7978 28.7719 33.1722C27.9522 33.5465 27.3023 34.2366 26.9652 35.0905C26.6282 35.9445 26.6317 36.8924 26.9748 37.7257C27.318 38.559 27.9728 39.2095 28.7951 39.5341C28.9102 39.5796 29.0278 39.6184 29.1473 39.6506L28.01 42.5321C27.8607 42.9117 27.8625 43.3327 28.0149 43.703C28.1674 44.0732 28.4581 44.3624 28.8232 44.507L32.4596 45.9422L37.5894 47.9668L41.2256 49.4018C41.5912 49.5455 42.001 49.5329 42.3652 49.3665C42.7294 49.2002 43.0183 48.8938 43.1685 48.5146Z" fill="url(#paint0_linear_1569_9)"/>
<defs>
<linearGradient id="paint0_linear_1569_9" x1="41.5" y1="15" x2="41.5" y2="70" gradientUnits="userSpaceOnUse">
<stop stop-color="white"/>
<stop offset="1" stop-color="#BFBFBF"/>
</linearGradient>
</defs>
</svg>
