<svg width="84" height="84" viewBox="0 0 84 84" fill="none" xmlns="http://www.w3.org/2000/svg">
<g clip-path="url(#clip0_1323_963)">
<g filter="url(#filter0_d_1323_963)">
<path d="M26.3271 26.7578C25.1457 26.7578 24.1875 27.6888 24.1875 28.8373C24.1875 29.9857 25.1458 30.9168 26.3271 30.9168C27.5069 30.9168 28.4652 29.9857 28.4652 28.8373C28.4652 27.6888 27.5069 26.7578 26.3271 26.7578Z" fill="url(#paint0_linear_1323_963)"/>
<path d="M56.6747 26.7578C55.4934 26.7578 54.5352 27.6888 54.5352 28.8373C54.5352 29.9857 55.4934 30.9168 56.6747 30.9168C57.8546 30.9168 58.8128 29.9857 58.8128 28.8373C58.8128 27.6888 57.8546 26.7578 56.6747 26.7578Z" fill="url(#paint1_linear_1323_963)"/>
<path d="M64.4592 33.5327C65.3519 32.1711 65.8706 30.5617 65.8706 28.837C65.8706 23.9643 61.7451 20.0001 56.6738 20.0001C53.2753 20.0001 50.3037 21.782 48.7116 24.4232C46.3786 23.9342 43.9638 23.6858 41.5001 23.6858C39.043 23.6858 36.6243 23.9334 34.2882 24.4226C32.6961 21.7816 29.7247 20 26.3263 20C21.2551 20 17.1295 23.9642 17.1295 28.8369C17.1295 30.5615 17.6482 32.1711 18.5409 33.5326C16.3889 36.2974 15.1788 39.3993 15 42.625C17.839 44.8186 20.8876 46.3459 24.5423 47.4088C29.0296 48.714 34.5766 49.3485 41.5001 49.3485C48.4235 49.3485 53.9705 48.7141 58.4578 47.4088C62.1123 46.3459 65.1609 44.8187 68 42.6251C67.8213 39.3997 66.6113 36.2975 64.4592 33.5327ZM26.3263 34.335C23.1627 34.335 20.5892 31.8687 20.5892 28.837C20.5892 25.8054 23.1628 23.3391 26.3263 23.3391C29.4898 23.3391 32.0633 25.8054 32.0633 28.837C32.0633 31.8687 29.4897 34.335 26.3263 34.335ZM37.7706 45.2443C36.7606 45.2443 35.9387 44.4466 35.9387 43.4626C35.9387 42.4785 36.7606 41.6814 37.7706 41.6814C38.7819 41.6814 39.6037 42.4785 39.6037 43.4626C39.6037 44.4466 38.7819 45.2443 37.7706 45.2443ZM45.2156 45.2577C44.1958 45.2577 43.3686 44.4539 43.3686 43.4627C43.3686 42.4713 44.1958 41.6676 45.2156 41.6676C46.2341 41.6676 47.0613 42.4712 47.0613 43.4627C47.0613 44.4541 46.2342 45.2577 45.2156 45.2577ZM56.6737 34.335C53.5102 34.335 50.9367 31.8687 50.9367 28.837C50.9367 25.8054 53.5102 23.3391 56.6737 23.3391C59.8373 23.3391 62.4108 25.8054 62.4108 28.837C62.4108 31.8687 59.8373 34.335 56.6737 34.335Z" fill="url(#paint2_linear_1323_963)"/>
<path d="M59.4562 50.6059C54.6405 52.0067 48.767 52.6875 41.5003 52.6875C34.2336 52.6875 28.36 52.0066 23.5442 50.6059C20.5214 49.7267 17.8664 48.5604 15.3984 47.0176C16.3611 51.0245 18.9497 54.6951 22.9242 57.5977C27.9058 61.2358 34.5029 63.2393 41.5002 63.2393C48.4976 63.2393 55.0946 61.2358 60.0762 57.5977C64.0506 54.6952 66.6392 51.0246 67.6019 47.0178C65.1339 48.5605 62.4788 49.7267 59.4562 50.6059Z" fill="url(#paint3_linear_1323_963)"/>
</g>
<g filter="url(#filter1_d_1323_963)">
<path d="M71.5 24C77.2991 24 82 19.2991 82 13.5C82 7.70095 77.2991 3 71.5 3C65.7009 3 61 7.70095 61 13.5C61 19.2991 65.7009 24 71.5 24ZM65.183 17.792C64.3505 16.5689 63.8636 15.0912 63.8636 13.5C63.8636 9.28263 67.2826 5.86364 71.5 5.86364C73.0912 5.86364 74.5689 6.35045 75.792 7.18301L65.183 17.792ZM67.208 19.817L77.817 9.20798C78.6495 10.4311 79.1364 11.9088 79.1364 13.5C79.1364 17.7174 75.7174 21.1364 71.5 21.1364C69.9088 21.1364 68.4311 20.6495 67.208 19.817Z" fill="url(#paint4_linear_1323_963)"/>
</g>
<g filter="url(#filter2_d_1323_963)">
<path d="M15.8331 4.10855C15.7875 4.17223 15.651 4.5548 15.5507 4.95495C14.9858 7.02126 14.139 7.86813 12.0349 8.50542C10.714 8.90604 10.6688 9.14271 11.8347 9.45208C12.8551 9.72534 13.8023 10.1987 14.312 10.6901C14.8132 11.1815 15.3139 12.1737 15.5963 13.2392C15.7423 13.8219 15.8241 13.9768 15.9696 13.9948C16.2154 14.0314 16.3067 13.8855 16.4888 13.1575C16.7075 12.2655 17.1811 11.2822 17.6271 10.7998C18.1007 10.2899 18.9932 9.81659 20.0498 9.50721C20.9422 9.25249 21.0426 9.19783 20.9879 8.95166C20.9698 8.83333 20.7421 8.72403 20.1135 8.54201C17.9823 7.92278 17.1169 7.06736 16.5064 4.98251C16.388 4.53627 16.2515 4.14515 16.224 4.0905C16.1427 3.96266 15.9515 3.97169 15.8331 4.10855Z" fill="url(#paint5_linear_1323_963)"/>
</g>
<g filter="url(#filter3_d_1323_963)">
<path d="M15.8331 63.1086C15.7875 63.1722 15.651 63.5548 15.5507 63.9549C14.9858 66.0213 14.139 66.8681 12.0349 67.5054C10.714 67.906 10.6688 68.1427 11.8347 68.4521C12.8551 68.7253 13.8023 69.1987 14.312 69.6901C14.8132 70.1815 15.3139 71.1737 15.5963 72.2392C15.7423 72.8219 15.8241 72.9768 15.9696 72.9948C16.2154 73.0314 16.3067 72.8855 16.4888 72.1575C16.7075 71.2655 17.1811 70.2822 17.6271 69.7998C18.1007 69.2899 18.9932 68.8166 20.0498 68.5072C20.9422 68.2525 21.0426 68.1978 20.9879 67.9517C20.9698 67.8333 20.7421 67.724 20.1135 67.542C17.9823 66.9228 17.1169 66.0674 16.5064 63.9825C16.388 63.5363 16.2515 63.1451 16.224 63.0905C16.1427 62.9627 15.9515 62.9717 15.8331 63.1086Z" fill="url(#paint6_linear_1323_963)"/>
</g>
<g filter="url(#filter4_d_1323_963)">
<path d="M72.8331 50.1086C72.7875 50.1722 72.651 50.5548 72.5507 50.9549C71.9858 53.0213 71.139 53.8681 69.0349 54.5054C67.714 54.906 67.6688 55.1427 68.8347 55.4521C69.8551 55.7253 70.8023 56.1987 71.312 56.6901C71.8132 57.1815 72.3139 58.1737 72.5963 59.2392C72.7423 59.8219 72.8241 59.9768 72.9696 59.9948C73.2154 60.0314 73.3067 59.8855 73.4888 59.1575C73.7075 58.2655 74.1811 57.2822 74.6271 56.7998C75.1007 56.2899 75.9932 55.8166 77.0498 55.5072C77.9422 55.2525 78.0426 55.1978 77.9879 54.9517C77.9698 54.8333 77.7421 54.724 77.1135 54.542C74.9823 53.9228 74.1169 53.0674 73.5064 50.9825C73.388 50.5363 73.2515 50.1451 73.224 50.0905C73.1427 49.9627 72.9515 49.9717 72.8331 50.1086Z" fill="url(#paint7_linear_1323_963)"/>
</g>
<g filter="url(#filter5_d_1323_963)">
<path d="M67.2497 58.1628C67.1812 58.2584 66.9765 58.8322 66.826 59.4324C65.9787 62.5319 64.7084 63.8022 61.5524 64.7581C59.571 65.3591 59.5033 65.7141 61.2521 66.1781C62.7827 66.588 64.2035 67.298 64.968 68.0351C65.7198 68.7722 66.4708 70.2606 66.8945 71.8588C67.1135 72.7328 67.2361 72.9652 67.4544 72.9923C67.8231 73.0472 67.9601 72.8283 68.2332 71.7362C68.5613 70.3982 69.2717 68.9233 69.9407 68.1998C70.6511 67.4349 71.9898 66.7249 73.5746 66.2608C74.9134 65.8787 75.0639 65.7967 74.9818 65.4275C74.9547 65.25 74.6131 65.086 73.6702 64.813C70.4735 63.8842 69.1754 62.601 68.2596 59.4738C68.082 58.8044 67.8773 58.2177 67.836 58.1357C67.714 57.944 67.4273 57.9575 67.2497 58.1628Z" fill="url(#paint8_linear_1323_963)"/>
</g>
<g filter="url(#filter6_d_1323_963)">
<path d="M11.2497 12.1628C11.1812 12.2584 10.9765 12.8322 10.826 13.4324C9.97869 16.5319 8.70843 17.8022 5.55237 18.7581C3.57101 19.3591 3.50325 19.7141 5.2521 20.1781C6.7827 20.588 8.20346 21.298 8.96804 22.0351C9.71979 22.7722 10.4708 24.2606 10.8945 25.8588C11.1135 26.7328 11.2361 26.9652 11.4544 26.9923C11.8231 27.0472 11.9601 26.8283 12.2332 25.7362C12.5613 24.3982 13.2717 22.9233 13.9407 22.1998C14.6511 21.4349 15.9898 20.7249 17.5746 20.2608C18.9134 19.8787 19.0639 19.7967 18.9818 19.4275C18.9547 19.25 18.6131 19.086 17.6702 18.813C14.4735 17.8842 13.1754 16.601 12.2596 13.4738C12.082 12.8044 11.8773 12.2177 11.836 12.1357C11.714 11.944 11.4273 11.9575 11.2497 12.1628Z" fill="url(#paint9_linear_1323_963)"/>
</g>
</g>
<defs>
<filter id="filter0_d_1323_963" x="11" y="20" width="61" height="51.2393" filterUnits="userSpaceOnUse" color-interpolation-filters="sRGB">
<feFlood flood-opacity="0" result="BackgroundImageFix"/>
<feColorMatrix in="SourceAlpha" type="matrix" values="0 0 0 0 0 0 0 0 0 0 0 0 0 0 0 0 0 0 127 0" result="hardAlpha"/>
<feOffset dy="4"/>
<feGaussianBlur stdDeviation="2"/>
<feComposite in2="hardAlpha" operator="out"/>
<feColorMatrix type="matrix" values="0 0 0 0 0 0 0 0 0 0 0 0 0 0 0 0 0 0 0.25 0"/>
<feBlend mode="normal" in2="BackgroundImageFix" result="effect1_dropShadow_1323_963"/>
<feBlend mode="normal" in="SourceGraphic" in2="effect1_dropShadow_1323_963" result="shape"/>
</filter>
<filter id="filter1_d_1323_963" x="57" y="3" width="29" height="29" filterUnits="userSpaceOnUse" color-interpolation-filters="sRGB">
<feFlood flood-opacity="0" result="BackgroundImageFix"/>
<feColorMatrix in="SourceAlpha" type="matrix" values="0 0 0 0 0 0 0 0 0 0 0 0 0 0 0 0 0 0 127 0" result="hardAlpha"/>
<feOffset dy="4"/>
<feGaussianBlur stdDeviation="2"/>
<feComposite in2="hardAlpha" operator="out"/>
<feColorMatrix type="matrix" values="0 0 0 0 0 0 0 0 0 0 0 0 0 0 0 0 0 0 0.25 0"/>
<feBlend mode="normal" in2="BackgroundImageFix" result="effect1_dropShadow_1323_963"/>
<feBlend mode="normal" in="SourceGraphic" in2="effect1_dropShadow_1323_963" result="shape"/>
</filter>
<filter id="filter2_d_1323_963" x="7" y="4" width="18" height="18" filterUnits="userSpaceOnUse" color-interpolation-filters="sRGB">
<feFlood flood-opacity="0" result="BackgroundImageFix"/>
<feColorMatrix in="SourceAlpha" type="matrix" values="0 0 0 0 0 0 0 0 0 0 0 0 0 0 0 0 0 0 127 0" result="hardAlpha"/>
<feOffset dy="4"/>
<feGaussianBlur stdDeviation="2"/>
<feComposite in2="hardAlpha" operator="out"/>
<feColorMatrix type="matrix" values="0 0 0 0 0 0 0 0 0 0 0 0 0 0 0 0 0 0 0.25 0"/>
<feBlend mode="normal" in2="BackgroundImageFix" result="effect1_dropShadow_1323_963"/>
<feBlend mode="normal" in="SourceGraphic" in2="effect1_dropShadow_1323_963" result="shape"/>
</filter>
<filter id="filter3_d_1323_963" x="7" y="63" width="18" height="18" filterUnits="userSpaceOnUse" color-interpolation-filters="sRGB">
<feFlood flood-opacity="0" result="BackgroundImageFix"/>
<feColorMatrix in="SourceAlpha" type="matrix" values="0 0 0 0 0 0 0 0 0 0 0 0 0 0 0 0 0 0 127 0" result="hardAlpha"/>
<feOffset dy="4"/>
<feGaussianBlur stdDeviation="2"/>
<feComposite in2="hardAlpha" operator="out"/>
<feColorMatrix type="matrix" values="0 0 0 0 0 0 0 0 0 0 0 0 0 0 0 0 0 0 0.25 0"/>
<feBlend mode="normal" in2="BackgroundImageFix" result="effect1_dropShadow_1323_963"/>
<feBlend mode="normal" in="SourceGraphic" in2="effect1_dropShadow_1323_963" result="shape"/>
</filter>
<filter id="filter4_d_1323_963" x="64" y="50" width="18" height="18" filterUnits="userSpaceOnUse" color-interpolation-filters="sRGB">
<feFlood flood-opacity="0" result="BackgroundImageFix"/>
<feColorMatrix in="SourceAlpha" type="matrix" values="0 0 0 0 0 0 0 0 0 0 0 0 0 0 0 0 0 0 127 0" result="hardAlpha"/>
<feOffset dy="4"/>
<feGaussianBlur stdDeviation="2"/>
<feComposite in2="hardAlpha" operator="out"/>
<feColorMatrix type="matrix" values="0 0 0 0 0 0 0 0 0 0 0 0 0 0 0 0 0 0 0.25 0"/>
<feBlend mode="normal" in2="BackgroundImageFix" result="effect1_dropShadow_1323_963"/>
<feBlend mode="normal" in="SourceGraphic" in2="effect1_dropShadow_1323_963" result="shape"/>
</filter>
<filter id="filter5_d_1323_963" x="56" y="58" width="23" height="23" filterUnits="userSpaceOnUse" color-interpolation-filters="sRGB">
<feFlood flood-opacity="0" result="BackgroundImageFix"/>
<feColorMatrix in="SourceAlpha" type="matrix" values="0 0 0 0 0 0 0 0 0 0 0 0 0 0 0 0 0 0 127 0" result="hardAlpha"/>
<feOffset dy="4"/>
<feGaussianBlur stdDeviation="2"/>
<feComposite in2="hardAlpha" operator="out"/>
<feColorMatrix type="matrix" values="0 0 0 0 0 0 0 0 0 0 0 0 0 0 0 0 0 0 0.25 0"/>
<feBlend mode="normal" in2="BackgroundImageFix" result="effect1_dropShadow_1323_963"/>
<feBlend mode="normal" in="SourceGraphic" in2="effect1_dropShadow_1323_963" result="shape"/>
</filter>
<filter id="filter6_d_1323_963" x="0" y="12" width="23" height="23" filterUnits="userSpaceOnUse" color-interpolation-filters="sRGB">
<feFlood flood-opacity="0" result="BackgroundImageFix"/>
<feColorMatrix in="SourceAlpha" type="matrix" values="0 0 0 0 0 0 0 0 0 0 0 0 0 0 0 0 0 0 127 0" result="hardAlpha"/>
<feOffset dy="4"/>
<feGaussianBlur stdDeviation="2"/>
<feComposite in2="hardAlpha" operator="out"/>
<feColorMatrix type="matrix" values="0 0 0 0 0 0 0 0 0 0 0 0 0 0 0 0 0 0 0.25 0"/>
<feBlend mode="normal" in2="BackgroundImageFix" result="effect1_dropShadow_1323_963"/>
<feBlend mode="normal" in="SourceGraphic" in2="effect1_dropShadow_1323_963" result="shape"/>
</filter>
<linearGradient id="paint0_linear_1323_963" x1="26.3263" y1="26.7578" x2="26.3263" y2="30.9168" gradientUnits="userSpaceOnUse">
<stop stop-color="#FBB03B"/>
<stop offset="1" stop-color="#F78140"/>
</linearGradient>
<linearGradient id="paint1_linear_1323_963" x1="56.674" y1="26.7578" x2="56.674" y2="30.9168" gradientUnits="userSpaceOnUse">
<stop stop-color="#FBB03B"/>
<stop offset="1" stop-color="#F78140"/>
</linearGradient>
<linearGradient id="paint2_linear_1323_963" x1="41.5" y1="20" x2="41.5" y2="49.3485" gradientUnits="userSpaceOnUse">
<stop stop-color="#FBB03B"/>
<stop offset="1" stop-color="#F78140"/>
</linearGradient>
<linearGradient id="paint3_linear_1323_963" x1="41.5002" y1="47.0176" x2="41.5002" y2="63.2393" gradientUnits="userSpaceOnUse">
<stop stop-color="#FBB03B"/>
<stop offset="1" stop-color="#F78140"/>
</linearGradient>
<linearGradient id="paint4_linear_1323_963" x1="71.5" y1="3" x2="71.5" y2="24" gradientUnits="userSpaceOnUse">
<stop stop-color="#FBB03B"/>
<stop offset="1" stop-color="#F78140"/>
</linearGradient>
<linearGradient id="paint5_linear_1323_963" x1="16" y1="14" x2="16" y2="4" gradientUnits="userSpaceOnUse">
<stop stop-color="#F78140"/>
<stop offset="1" stop-color="#FBB03B"/>
</linearGradient>
<linearGradient id="paint6_linear_1323_963" x1="16" y1="73" x2="16" y2="63" gradientUnits="userSpaceOnUse">
<stop stop-color="#F78140"/>
<stop offset="1" stop-color="#FBB03B"/>
</linearGradient>
<linearGradient id="paint7_linear_1323_963" x1="73" y1="60" x2="73" y2="50" gradientUnits="userSpaceOnUse">
<stop stop-color="#F78140"/>
<stop offset="1" stop-color="#FBB03B"/>
</linearGradient>
<linearGradient id="paint8_linear_1323_963" x1="67.5" y1="73" x2="67.5" y2="58" gradientUnits="userSpaceOnUse">
<stop stop-color="#F78140"/>
<stop offset="1" stop-color="#FBB03B"/>
</linearGradient>
<linearGradient id="paint9_linear_1323_963" x1="11.5" y1="27" x2="11.5" y2="12" gradientUnits="userSpaceOnUse">
<stop stop-color="#F78140"/>
<stop offset="1" stop-color="#FBB03B"/>
</linearGradient>
<clipPath id="clip0_1323_963">
<rect width="83.75" height="83.75" fill="white"/>
</clipPath>
</defs>
</svg>
