<svg width="84" height="84" viewBox="0 0 84 84" fill="none" xmlns="http://www.w3.org/2000/svg">
<g filter="url(#filter0_d_234_52)">
<path d="M42.0484 20C19.7041 20 8 38.5151 8 41.4567C8 44.3984 19.7041 63 42.0484 63C64.3926 63 76 44.3984 76 41.4567C76 38.5151 64.2959 20 42.0484 20ZM42.0484 57.9819C33.633 57.9819 26.862 50.6278 26.862 41.4567C26.862 32.2857 33.633 24.9316 42.0484 24.9316C50.4637 24.9316 57.138 32.3722 57.138 41.4567C57.138 50.5413 50.367 57.9819 42.0484 57.9819ZM42.0484 41.4567C40.5974 39.7264 44.2731 33.2374 42.0484 33.2374C37.7923 33.2374 34.5036 36.9577 34.5036 41.4567C34.5036 45.9557 37.7923 49.7626 42.0484 49.7626C46.3044 49.7626 49.5932 46.0423 49.5932 41.4567C49.5932 39.3803 43.2091 42.9276 42.0484 41.4567V41.4567Z" fill="url(#paint0_linear_234_52)"/>
</g>
<defs>
<filter id="filter0_d_234_52" x="4" y="20" width="76" height="51" filterUnits="userSpaceOnUse" color-interpolation-filters="sRGB">
<feFlood flood-opacity="0" result="BackgroundImageFix"/>
<feColorMatrix in="SourceAlpha" type="matrix" values="0 0 0 0 0 0 0 0 0 0 0 0 0 0 0 0 0 0 127 0" result="hardAlpha"/>
<feOffset dy="4"/>
<feGaussianBlur stdDeviation="2"/>
<feComposite in2="hardAlpha" operator="out"/>
<feColorMatrix type="matrix" values="0 0 0 0 0 0 0 0 0 0 0 0 0 0 0 0 0 0 0.25 0"/>
<feBlend mode="normal" in2="BackgroundImageFix" result="effect1_dropShadow_234_52"/>
<feBlend mode="normal" in="SourceGraphic" in2="effect1_dropShadow_234_52" result="shape"/>
</filter>
<linearGradient id="paint0_linear_234_52" x1="42" y1="20" x2="42" y2="63" gradientUnits="userSpaceOnUse">
<stop stop-color="white"/>
<stop offset="1" stop-color="#BFBFBF"/>
</linearGradient>
</defs>
</svg>
