<svg width="84" height="84" viewBox="0 0 84 84" fill="none" xmlns="http://www.w3.org/2000/svg">
<g filter="url(#filter0_d_736_322)">
<path d="M18.7522 31.7848C19.6375 31.7848 20.5142 31.9628 21.332 32.3088C22.1499 32.6548 22.893 33.162 23.5188 33.8013C24.1446 34.4405 24.6409 35.1994 24.9793 36.0346C25.3178 36.8698 25.4917 37.7648 25.4911 38.6686V49.1632H58.3777V38.6644C58.3785 37.3732 58.7352 36.1084 59.4069 35.0145C60.0787 33.9205 61.0384 33.0417 62.1764 32.4784C63.3144 31.915 64.5847 31.69 65.8421 31.829C67.0994 31.968 68.2931 32.4654 69.2866 33.2644C70.2801 34.0633 71.0333 35.1315 71.4601 36.3469C71.8869 37.5623 71.9701 38.8758 71.7002 40.1371C71.4302 41.3985 70.818 42.5568 69.9336 43.4797C69.0491 44.4026 67.9281 45.0528 66.6988 45.356V65.1573C66.6977 65.6952 66.4878 66.2108 66.1152 66.5912C65.7426 66.9716 65.2375 67.1859 64.7106 67.187H19.1624C18.6355 67.1859 18.1304 66.9716 17.7578 66.5912C17.3852 66.2108 17.1753 65.6952 17.1742 65.1573V45.356C15.5677 44.9645 14.158 43.9843 13.2128 42.6016C12.2675 41.2189 11.8526 39.53 12.0468 37.8555C12.2409 36.1811 13.0307 34.6378 14.2661 33.5186C15.5014 32.3995 17.1006 31.7825 18.7522 31.7848ZM23.1848 27.9646C22.8736 27.8305 22.5565 27.7107 22.2347 27.6057V21.7388C22.2369 20.4842 22.7255 19.2814 23.5937 18.3935C24.462 17.5055 25.6392 17.0045 26.8682 17H56.9964C58.2261 17.0034 59.4045 17.5039 60.2736 18.392C61.1427 19.2801 61.6319 20.4834 61.6341 21.7388V27.6057C61.3123 27.7107 60.9952 27.8304 60.684 27.9646C58.6229 28.8532 56.8643 30.3427 55.6284 32.2467C54.3925 34.1507 53.7342 36.3845 53.7358 38.6686V44.4244H30.133V38.6686C30.133 36.3849 29.474 34.1518 28.2383 32.2481C27.0026 30.3445 25.245 28.8546 23.1848 27.9646Z" fill="url(#paint0_linear_736_322)"/>
</g>
<defs>
<filter id="filter0_d_736_322" x="8" y="17" width="67.8555" height="58.187" filterUnits="userSpaceOnUse" color-interpolation-filters="sRGB">
<feFlood flood-opacity="0" result="BackgroundImageFix"/>
<feColorMatrix in="SourceAlpha" type="matrix" values="0 0 0 0 0 0 0 0 0 0 0 0 0 0 0 0 0 0 127 0" result="hardAlpha"/>
<feOffset dy="4"/>
<feGaussianBlur stdDeviation="2"/>
<feComposite in2="hardAlpha" operator="out"/>
<feColorMatrix type="matrix" values="0 0 0 0 0 0 0 0 0 0 0 0 0 0 0 0 0 0 0.25 0"/>
<feBlend mode="normal" in2="BackgroundImageFix" result="effect1_dropShadow_736_322"/>
<feBlend mode="normal" in="SourceGraphic" in2="effect1_dropShadow_736_322" result="shape"/>
</filter>
<linearGradient id="paint0_linear_736_322" x1="41.9277" y1="17" x2="41.9277" y2="67.187" gradientUnits="userSpaceOnUse">
<stop stop-color="white"/>
<stop offset="1" stop-color="#BFBFBF"/>
</linearGradient>
</defs>
</svg>
