<svg width="84" height="84" viewBox="0 0 84 84" fill="none" xmlns="http://www.w3.org/2000/svg">
<g clip-path="url(#clip0_579_91)">
<g filter="url(#filter0_d_579_91)">
<path d="M70.9994 17.8605C73.6837 17.8605 75.8597 15.6845 75.8597 13.0003C75.8597 10.3161 73.6837 8.14014 70.9994 8.14014C68.3152 8.14014 66.1392 10.3161 66.1392 13.0003C66.1392 15.6845 68.3152 17.8605 70.9994 17.8605Z" fill="url(#paint0_linear_579_91)"/>
<path d="M71.0002 18.655C67.882 18.655 65.3452 16.1182 65.3452 13.0001C65.3452 9.88194 67.882 7.34521 71.0002 7.34521C74.1184 7.34521 76.6551 9.88194 76.6551 13.0001C76.6551 16.1182 74.1184 18.655 71.0002 18.655ZM71.0002 8.9346C68.7575 8.9346 66.9346 10.7574 66.9346 13.0001C66.9346 15.2427 68.7575 17.0656 71.0002 17.0656C73.2428 17.0656 75.0657 15.2427 75.0657 13.0001C75.0657 10.7574 73.2428 8.9346 71.0002 8.9346Z" fill="url(#paint1_linear_579_91)"/>
<path d="M71 6.17325C70.56 6.17325 70.2053 5.81856 70.2053 5.37856V2.79469C70.2053 2.35694 70.56 2 71 2C71.4378 2 71.7947 2.35469 71.7947 2.79469V5.37856C71.7947 5.81631 71.4378 6.17325 71 6.17325Z" fill="url(#paint2_linear_579_91)"/>
<path d="M71 23.9999C70.56 23.9999 70.2053 23.6452 70.2053 23.2052V20.6214C70.2053 20.1836 70.56 19.8267 71 19.8267C71.4378 19.8267 71.7947 20.1836 71.7947 20.6214V23.2052C71.7947 23.6452 71.4378 23.9999 71 23.9999Z" fill="url(#paint3_linear_579_91)"/>
<path d="M81.2053 13.7945H78.6214C78.1836 13.7945 77.8267 13.4398 77.8267 12.9998C77.8267 12.5598 78.1836 12.2051 78.6214 12.2051H81.2053C81.643 12.2051 82 12.5598 82 12.9998C82 13.4375 81.6453 13.7945 81.2053 13.7945Z" fill="url(#paint4_linear_579_91)"/>
<path d="M63.3786 13.7945H60.7947C60.3569 13.7945 60 13.4375 60 12.9998C60 12.5598 60.3569 12.2051 60.7947 12.2051H63.3786C63.8186 12.2051 64.1733 12.5598 64.1733 12.9998C64.1733 13.4375 63.8164 13.7945 63.3786 13.7945Z" fill="url(#paint5_linear_579_91)"/>
<path d="M76.3907 8.40466C76.1865 8.40466 75.9844 8.32609 75.8295 8.17119C75.5197 7.8614 75.5197 7.35854 75.8295 7.0465L77.6569 5.21916C77.9667 4.90937 78.4695 4.90937 78.7816 5.21916C79.0914 5.52896 79.0914 6.03181 78.7816 6.34385L76.952 8.17344C76.7971 8.32834 76.5928 8.40466 76.3907 8.40466Z" fill="url(#paint6_linear_579_91)"/>
<path d="M63.7831 21.0121C63.5788 21.0121 63.3768 20.9335 63.2219 20.7786C62.9121 20.4688 62.9121 19.966 63.2219 19.6539L65.0492 17.8266C65.359 17.5168 65.8619 17.5168 66.1739 17.8266C66.4837 18.1364 66.4837 18.6392 66.1739 18.9513L64.3466 20.7786C64.1917 20.9335 63.9874 21.0121 63.7831 21.0121Z" fill="url(#paint7_linear_579_91)"/>
<path d="M78.2154 21.0121C78.0111 21.0121 77.8091 20.9335 77.6542 20.7786L75.8268 18.9513C75.517 18.6415 75.517 18.1386 75.8268 17.8266C76.1366 17.5168 76.6395 17.5168 76.9515 17.8266L78.7789 19.6539C79.0887 19.9637 79.0887 20.4666 78.7789 20.7786C78.624 20.9335 78.4197 21.0121 78.2154 21.0121Z" fill="url(#paint8_linear_579_91)"/>
<path d="M65.6104 8.40466C65.4062 8.40466 65.2041 8.32609 65.0492 8.17119L63.2219 6.34385C62.9121 6.03406 62.9121 5.5312 63.2219 5.21916C63.5316 4.90937 64.0345 4.90937 64.3466 5.21916L66.1739 7.0465C66.4837 7.3563 66.4837 7.85915 66.1739 8.17119C66.019 8.32834 65.8147 8.40466 65.6104 8.40466Z" fill="url(#paint9_linear_579_91)"/>
</g>
<g filter="url(#filter1_d_579_91)">
<path d="M40.4947 14.5186L39.0176 17.0292V22.3761L38.2104 25.0138C37.484 27.3972 35.9342 32.1086 35.7324 32.5614C35.6598 32.7283 36.4589 32.7521 42.0444 32.7521C48.0739 32.7521 48.4371 32.7521 48.3322 32.5296C48.1304 32.0768 46.5968 27.4052 45.8623 24.9662L45.0551 22.3761V17.0292L43.578 14.5186C42.7709 13.1282 42.0606 12 42.0202 12C41.9798 12 41.318 13.1282 40.4947 14.5186Z" fill="url(#paint10_linear_579_91)"/>
<path d="M29.7671 38.0275V40.6096H31.2281C32.6567 40.6096 32.6729 40.6096 32.5841 40.8797C32.3823 41.42 30.3402 46.0837 29.7913 47.2754L29.2183 48.4671H32.915H36.6199L37.758 44.5662L38.9041 40.6731H45.208L46.3542 44.5662L47.4923 48.4671H51.1971H54.8859L54.3208 47.2754C53.772 46.0996 51.7299 41.4279 51.5281 40.8797C51.4474 40.6096 51.4554 40.6096 52.8922 40.6096H54.3531V35.4534H29.7671V38.0275Z" fill="url(#paint11_linear_579_91)"/>
<path d="M17.4665 53.7505V56.3246H21.2036C23.278 56.3246 24.965 56.3246 24.965 56.3961C24.965 56.4676 22.0915 61.2981 21.1229 62.752C20.5821 63.5465 19.4682 65.1991 18.6288 66.375C17.3292 68.2102 17.1032 68.6234 17.0145 69.1557C16.9547 69.6963 17.0814 70.241 17.3742 70.7021C17.667 71.1632 18.1089 71.514 18.6288 71.698C19.2099 71.9523 19.3794 71.9681 24.3677 71.9999H29.5092L29.6787 70.3554C29.7783 68.6582 30.2638 67.0046 31.0993 65.5169C31.6943 64.4456 32.5425 63.5311 33.5723 62.8508C34.6021 62.1704 35.7832 61.7442 37.0158 61.608C40.3258 61.3617 43.65 61.3617 46.96 61.608C51.4478 62.2833 53.9015 65.366 54.3858 70.8559L54.4665 71.9999H59.6323C64.6206 71.9999 64.7982 71.9523 65.3712 71.698C65.8911 71.514 66.333 71.1632 66.6258 70.7021C66.9186 70.241 67.0453 69.6963 66.9855 69.1557C66.929 68.6234 66.695 68.2102 65.3712 66.375C64.5641 65.1991 63.3453 63.483 62.756 62.5455C61.7067 60.9565 59.035 56.5073 59.035 56.3722C59.035 56.2372 60.7301 56.3087 62.7964 56.3087H66.5578V51.1445H17.4665V53.7505Z" fill="url(#paint12_linear_579_91)"/>
</g>
</g>
<defs>
<filter id="filter0_d_579_91" x="56" y="2" width="30" height="30" filterUnits="userSpaceOnUse" color-interpolation-filters="sRGB">
<feFlood flood-opacity="0" result="BackgroundImageFix"/>
<feColorMatrix in="SourceAlpha" type="matrix" values="0 0 0 0 0 0 0 0 0 0 0 0 0 0 0 0 0 0 127 0" result="hardAlpha"/>
<feOffset dy="4"/>
<feGaussianBlur stdDeviation="2"/>
<feComposite in2="hardAlpha" operator="out"/>
<feColorMatrix type="matrix" values="0 0 0 0 0 0 0 0 0 0 0 0 0 0 0 0 0 0 0.25 0"/>
<feBlend mode="normal" in2="BackgroundImageFix" result="effect1_dropShadow_579_91"/>
<feBlend mode="normal" in="SourceGraphic" in2="effect1_dropShadow_579_91" result="shape"/>
</filter>
<filter id="filter1_d_579_91" x="13" y="12" width="58" height="68" filterUnits="userSpaceOnUse" color-interpolation-filters="sRGB">
<feFlood flood-opacity="0" result="BackgroundImageFix"/>
<feColorMatrix in="SourceAlpha" type="matrix" values="0 0 0 0 0 0 0 0 0 0 0 0 0 0 0 0 0 0 127 0" result="hardAlpha"/>
<feOffset dy="4"/>
<feGaussianBlur stdDeviation="2"/>
<feComposite in2="hardAlpha" operator="out"/>
<feColorMatrix type="matrix" values="0 0 0 0 0 0 0 0 0 0 0 0 0 0 0 0 0 0 0.25 0"/>
<feBlend mode="normal" in2="BackgroundImageFix" result="effect1_dropShadow_579_91"/>
<feBlend mode="normal" in="SourceGraphic" in2="effect1_dropShadow_579_91" result="shape"/>
</filter>
<linearGradient id="paint0_linear_579_91" x1="70.9994" y1="8.14014" x2="70.9994" y2="17.8605" gradientUnits="userSpaceOnUse">
<stop stop-color="white"/>
<stop offset="1" stop-color="#BFBFBF"/>
</linearGradient>
<linearGradient id="paint1_linear_579_91" x1="71.0002" y1="7.34521" x2="71.0002" y2="18.655" gradientUnits="userSpaceOnUse">
<stop stop-color="white"/>
<stop offset="1" stop-color="#BFBFBF"/>
</linearGradient>
<linearGradient id="paint2_linear_579_91" x1="71" y1="2" x2="71" y2="6.17325" gradientUnits="userSpaceOnUse">
<stop stop-color="white"/>
<stop offset="1" stop-color="#BFBFBF"/>
</linearGradient>
<linearGradient id="paint3_linear_579_91" x1="71" y1="19.8267" x2="71" y2="23.9999" gradientUnits="userSpaceOnUse">
<stop stop-color="white"/>
<stop offset="1" stop-color="#BFBFBF"/>
</linearGradient>
<linearGradient id="paint4_linear_579_91" x1="79.9133" y1="12.2051" x2="79.9133" y2="13.7945" gradientUnits="userSpaceOnUse">
<stop stop-color="white"/>
<stop offset="1" stop-color="#BFBFBF"/>
</linearGradient>
<linearGradient id="paint5_linear_579_91" x1="62.0867" y1="12.2051" x2="62.0867" y2="13.7945" gradientUnits="userSpaceOnUse">
<stop stop-color="white"/>
<stop offset="1" stop-color="#BFBFBF"/>
</linearGradient>
<linearGradient id="paint6_linear_579_91" x1="77.3056" y1="4.98682" x2="77.3056" y2="8.40466" gradientUnits="userSpaceOnUse">
<stop stop-color="white"/>
<stop offset="1" stop-color="#BFBFBF"/>
</linearGradient>
<linearGradient id="paint7_linear_579_91" x1="64.6979" y1="17.5942" x2="64.6979" y2="21.0121" gradientUnits="userSpaceOnUse">
<stop stop-color="white"/>
<stop offset="1" stop-color="#BFBFBF"/>
</linearGradient>
<linearGradient id="paint8_linear_579_91" x1="77.3029" y1="17.5942" x2="77.3029" y2="21.0121" gradientUnits="userSpaceOnUse">
<stop stop-color="white"/>
<stop offset="1" stop-color="#BFBFBF"/>
</linearGradient>
<linearGradient id="paint9_linear_579_91" x1="64.6979" y1="4.98682" x2="64.6979" y2="8.40466" gradientUnits="userSpaceOnUse">
<stop stop-color="white"/>
<stop offset="1" stop-color="#BFBFBF"/>
</linearGradient>
<linearGradient id="paint10_linear_579_91" x1="42.0369" y1="12" x2="42.0369" y2="32.7521" gradientUnits="userSpaceOnUse">
<stop stop-color="white"/>
<stop offset="1" stop-color="#BFBFBF"/>
</linearGradient>
<linearGradient id="paint11_linear_579_91" x1="42.0521" y1="35.4534" x2="42.0521" y2="48.4671" gradientUnits="userSpaceOnUse">
<stop stop-color="white"/>
<stop offset="1" stop-color="#BFBFBF"/>
</linearGradient>
<linearGradient id="paint12_linear_579_91" x1="42" y1="51.1445" x2="42" y2="71.9999" gradientUnits="userSpaceOnUse">
<stop stop-color="white"/>
<stop offset="1" stop-color="#BFBFBF"/>
</linearGradient>
<clipPath id="clip0_579_91">
<rect width="83.75" height="83.75" fill="white"/>
</clipPath>
</defs>
</svg>
