<svg width="84" height="84" viewBox="0 0 84 84" fill="none" xmlns="http://www.w3.org/2000/svg">
<g clip-path="url(#clip0_462_2)">
<g filter="url(#filter0_d_462_2)">
<path d="M70.9994 17.8605C73.6837 17.8605 75.8597 15.6845 75.8597 13.0003C75.8597 10.3161 73.6837 8.14014 70.9994 8.14014C68.3152 8.14014 66.1392 10.3161 66.1392 13.0003C66.1392 15.6845 68.3152 17.8605 70.9994 17.8605Z" fill="url(#paint0_linear_462_2)"/>
<path d="M71.0002 18.655C67.882 18.655 65.3452 16.1182 65.3452 13.0001C65.3452 9.88194 67.882 7.34521 71.0002 7.34521C74.1184 7.34521 76.6551 9.88194 76.6551 13.0001C76.6551 16.1182 74.1184 18.655 71.0002 18.655ZM71.0002 8.9346C68.7575 8.9346 66.9346 10.7574 66.9346 13.0001C66.9346 15.2427 68.7575 17.0656 71.0002 17.0656C73.2428 17.0656 75.0657 15.2427 75.0657 13.0001C75.0657 10.7574 73.2428 8.9346 71.0002 8.9346Z" fill="url(#paint1_linear_462_2)"/>
<path d="M71 6.17325C70.56 6.17325 70.2053 5.81856 70.2053 5.37856V2.79469C70.2053 2.35694 70.56 2 71 2C71.4378 2 71.7947 2.35469 71.7947 2.79469V5.37856C71.7947 5.81631 71.4378 6.17325 71 6.17325Z" fill="url(#paint2_linear_462_2)"/>
<path d="M71 23.9999C70.56 23.9999 70.2053 23.6452 70.2053 23.2052V20.6214C70.2053 20.1836 70.56 19.8267 71 19.8267C71.4378 19.8267 71.7947 20.1836 71.7947 20.6214V23.2052C71.7947 23.6452 71.4378 23.9999 71 23.9999Z" fill="url(#paint3_linear_462_2)"/>
<path d="M81.2053 13.7945H78.6214C78.1836 13.7945 77.8267 13.4398 77.8267 12.9998C77.8267 12.5598 78.1836 12.2051 78.6214 12.2051H81.2053C81.643 12.2051 82 12.5598 82 12.9998C82 13.4375 81.6453 13.7945 81.2053 13.7945Z" fill="url(#paint4_linear_462_2)"/>
<path d="M63.3786 13.7945H60.7947C60.3569 13.7945 60 13.4375 60 12.9998C60 12.5598 60.3569 12.2051 60.7947 12.2051H63.3786C63.8186 12.2051 64.1733 12.5598 64.1733 12.9998C64.1733 13.4375 63.8164 13.7945 63.3786 13.7945Z" fill="url(#paint5_linear_462_2)"/>
<path d="M76.3907 8.40466C76.1865 8.40466 75.9844 8.32609 75.8295 8.17119C75.5197 7.8614 75.5197 7.35854 75.8295 7.0465L77.6569 5.21916C77.9667 4.90937 78.4695 4.90937 78.7816 5.21916C79.0914 5.52896 79.0914 6.03181 78.7816 6.34385L76.952 8.17344C76.7971 8.32834 76.5928 8.40466 76.3907 8.40466Z" fill="url(#paint6_linear_462_2)"/>
<path d="M63.7831 21.0121C63.5788 21.0121 63.3768 20.9335 63.2219 20.7786C62.9121 20.4688 62.9121 19.966 63.2219 19.6539L65.0492 17.8266C65.359 17.5168 65.8619 17.5168 66.1739 17.8266C66.4837 18.1364 66.4837 18.6392 66.1739 18.9513L64.3466 20.7786C64.1917 20.9335 63.9874 21.0121 63.7831 21.0121Z" fill="url(#paint7_linear_462_2)"/>
<path d="M78.2154 21.0121C78.0111 21.0121 77.8091 20.9335 77.6542 20.7786L75.8268 18.9513C75.517 18.6415 75.517 18.1386 75.8268 17.8266C76.1366 17.5168 76.6395 17.5168 76.9515 17.8266L78.7789 19.6539C79.0887 19.9637 79.0887 20.4666 78.7789 20.7786C78.624 20.9335 78.4197 21.0121 78.2154 21.0121Z" fill="url(#paint8_linear_462_2)"/>
<path d="M65.6104 8.40466C65.4062 8.40466 65.2041 8.32609 65.0492 8.17119L63.2219 6.34385C62.9121 6.03406 62.9121 5.5312 63.2219 5.21916C63.5316 4.90937 64.0345 4.90937 64.3466 5.21916L66.1739 7.0465C66.4837 7.3563 66.4837 7.85915 66.1739 8.17119C66.019 8.32834 65.8147 8.40466 65.6104 8.40466Z" fill="url(#paint9_linear_462_2)"/>
</g>
<g filter="url(#filter1_d_462_2)">
<path d="M31.2251 51.3286C31.2606 51.8421 31.0925 52.349 30.7572 52.7394C30.4219 53.1298 29.9465 53.3723 29.4338 53.4143H26.4792C25.9666 53.3723 25.4911 53.1298 25.1558 52.7394C24.8205 52.349 24.6524 51.8421 24.6879 51.3286V34.4643C24.6524 33.9507 24.8205 33.4438 25.1558 33.0534C25.4911 32.663 25.9666 32.4206 26.4792 32.3786H29.4338C29.9465 32.4206 30.4219 32.663 30.7572 33.0534C31.0925 33.4438 31.2606 33.9507 31.2251 34.4643V51.3286ZM45.2844 34.4643C45.3199 33.9507 45.1518 33.4438 44.8165 33.0534C44.4812 32.663 44.0058 32.4206 43.4931 32.3786H40.5028C39.9902 32.4206 39.5147 32.663 39.1794 33.0534C38.8441 33.4438 38.676 33.9507 38.7115 34.4643V51.3286C38.676 51.8421 38.8441 52.349 39.1794 52.7394C39.5147 53.1298 39.9902 53.3723 40.5028 53.4143H43.4574C43.7144 53.3979 43.9656 53.331 44.1967 53.2172C44.4277 53.1034 44.6341 52.9451 44.8038 52.7513C44.9736 52.5575 45.1034 52.3321 45.1859 52.0879C45.2684 51.8438 45.3018 51.5857 45.2844 51.3286V34.4643ZM59.308 34.4643C59.3435 33.9507 59.1754 33.4438 58.8401 33.0534C58.5048 32.663 58.0294 32.4206 57.5167 32.3786H54.5621C54.0495 32.4206 53.574 32.663 53.2387 33.0534C52.9034 33.4438 52.7353 33.9507 52.7708 34.4643V51.3286C52.7353 51.8421 52.9034 52.349 53.2387 52.7394C53.574 53.1298 54.0495 53.3723 54.5621 53.4143H57.5167C58.0294 53.3723 58.5048 53.1298 58.8401 52.7394C59.1754 52.349 59.3435 51.8421 59.308 51.3286V34.4643ZM64.2609 57.8786C64.3041 57.2668 64.1028 56.6628 63.7014 56.1994C63.2999 55.736 62.7311 55.4511 62.1199 55.4071H21.8546C21.2643 55.4973 20.7257 55.7961 20.3365 56.2495C19.9473 56.7029 19.7334 57.2808 19.7334 57.8786C19.7334 58.4763 19.9473 59.0543 20.3365 59.5077C20.7257 59.9611 21.2643 60.2599 21.8546 60.35H62.0985C62.7071 60.3025 63.2724 60.016 63.6708 59.553C64.0692 59.09 64.2685 58.4881 64.2252 57.8786H64.2609ZM66.9942 64.5286C67.0374 63.9168 66.8362 63.3128 66.4347 62.8494C66.0333 62.386 65.4645 62.1011 64.8532 62.0571H19.1213C18.5309 62.1473 17.9923 62.4461 17.6031 62.8995C17.214 63.3529 17 63.9308 17 64.5286C17 65.1263 17.214 65.7043 17.6031 66.1577C17.9923 66.6111 18.5309 66.9099 19.1213 67H64.839C65.4464 66.9507 66.0098 66.6635 66.4067 66.2007C66.8036 65.7379 67.0019 65.1369 66.9586 64.5286H66.9942ZM65.8452 30.1714C65.8452 30.1714 66.6945 30.2 66.6945 29.0214C66.6912 28.6848 66.5894 28.3566 66.4017 28.0773C66.214 27.798 65.9486 27.5799 65.6383 27.45C65.6383 27.45 43.072 17 41.9516 17C40.8311 17 18.2792 27.45 18.2792 27.45C17.9689 27.5799 17.7034 27.798 17.5157 28.0773C17.328 28.3566 17.2262 28.6848 17.2229 29.0214C17.2229 30.2 18.1007 30.1714 18.1007 30.1714H65.8452Z" fill="url(#paint10_linear_462_2)"/>
</g>
</g>
<defs>
<filter id="filter0_d_462_2" x="56" y="2" width="30" height="30" filterUnits="userSpaceOnUse" color-interpolation-filters="sRGB">
<feFlood flood-opacity="0" result="BackgroundImageFix"/>
<feColorMatrix in="SourceAlpha" type="matrix" values="0 0 0 0 0 0 0 0 0 0 0 0 0 0 0 0 0 0 127 0" result="hardAlpha"/>
<feOffset dy="4"/>
<feGaussianBlur stdDeviation="2"/>
<feComposite in2="hardAlpha" operator="out"/>
<feColorMatrix type="matrix" values="0 0 0 0 0 0 0 0 0 0 0 0 0 0 0 0 0 0 0.25 0"/>
<feBlend mode="normal" in2="BackgroundImageFix" result="effect1_dropShadow_462_2"/>
<feBlend mode="normal" in="SourceGraphic" in2="effect1_dropShadow_462_2" result="shape"/>
</filter>
<filter id="filter1_d_462_2" x="13" y="17" width="58" height="58" filterUnits="userSpaceOnUse" color-interpolation-filters="sRGB">
<feFlood flood-opacity="0" result="BackgroundImageFix"/>
<feColorMatrix in="SourceAlpha" type="matrix" values="0 0 0 0 0 0 0 0 0 0 0 0 0 0 0 0 0 0 127 0" result="hardAlpha"/>
<feOffset dy="4"/>
<feGaussianBlur stdDeviation="2"/>
<feComposite in2="hardAlpha" operator="out"/>
<feColorMatrix type="matrix" values="0 0 0 0 0 0 0 0 0 0 0 0 0 0 0 0 0 0 0.25 0"/>
<feBlend mode="normal" in2="BackgroundImageFix" result="effect1_dropShadow_462_2"/>
<feBlend mode="normal" in="SourceGraphic" in2="effect1_dropShadow_462_2" result="shape"/>
</filter>
<linearGradient id="paint0_linear_462_2" x1="70.9994" y1="8.14014" x2="70.9994" y2="17.8605" gradientUnits="userSpaceOnUse">
<stop stop-color="white"/>
<stop offset="1" stop-color="#BFBFBF"/>
</linearGradient>
<linearGradient id="paint1_linear_462_2" x1="71.0002" y1="7.34521" x2="71.0002" y2="18.655" gradientUnits="userSpaceOnUse">
<stop stop-color="white"/>
<stop offset="1" stop-color="#BFBFBF"/>
</linearGradient>
<linearGradient id="paint2_linear_462_2" x1="71" y1="2" x2="71" y2="6.17325" gradientUnits="userSpaceOnUse">
<stop stop-color="white"/>
<stop offset="1" stop-color="#BFBFBF"/>
</linearGradient>
<linearGradient id="paint3_linear_462_2" x1="71" y1="19.8267" x2="71" y2="23.9999" gradientUnits="userSpaceOnUse">
<stop stop-color="white"/>
<stop offset="1" stop-color="#BFBFBF"/>
</linearGradient>
<linearGradient id="paint4_linear_462_2" x1="79.9133" y1="12.2051" x2="79.9133" y2="13.7945" gradientUnits="userSpaceOnUse">
<stop stop-color="white"/>
<stop offset="1" stop-color="#BFBFBF"/>
</linearGradient>
<linearGradient id="paint5_linear_462_2" x1="62.0867" y1="12.2051" x2="62.0867" y2="13.7945" gradientUnits="userSpaceOnUse">
<stop stop-color="white"/>
<stop offset="1" stop-color="#BFBFBF"/>
</linearGradient>
<linearGradient id="paint6_linear_462_2" x1="77.3056" y1="4.98682" x2="77.3056" y2="8.40466" gradientUnits="userSpaceOnUse">
<stop stop-color="white"/>
<stop offset="1" stop-color="#BFBFBF"/>
</linearGradient>
<linearGradient id="paint7_linear_462_2" x1="64.6979" y1="17.5942" x2="64.6979" y2="21.0121" gradientUnits="userSpaceOnUse">
<stop stop-color="white"/>
<stop offset="1" stop-color="#BFBFBF"/>
</linearGradient>
<linearGradient id="paint8_linear_462_2" x1="77.3029" y1="17.5942" x2="77.3029" y2="21.0121" gradientUnits="userSpaceOnUse">
<stop stop-color="white"/>
<stop offset="1" stop-color="#BFBFBF"/>
</linearGradient>
<linearGradient id="paint9_linear_462_2" x1="64.6979" y1="4.98682" x2="64.6979" y2="8.40466" gradientUnits="userSpaceOnUse">
<stop stop-color="white"/>
<stop offset="1" stop-color="#BFBFBF"/>
</linearGradient>
<linearGradient id="paint10_linear_462_2" x1="42" y1="17" x2="42" y2="67" gradientUnits="userSpaceOnUse">
<stop stop-color="white"/>
<stop offset="1" stop-color="#BFBFBF"/>
</linearGradient>
<clipPath id="clip0_462_2">
<rect width="83.75" height="83.75" fill="white"/>
</clipPath>
</defs>
</svg>
