<svg width="84" height="84" viewBox="0 0 84 84" fill="none" xmlns="http://www.w3.org/2000/svg">
<g filter="url(#filter0_d_744_366)">
<path d="M15 61C12.2386 61 10 58.7614 10 56V29C10 26.2386 12.2386 24 15 24H68C70.7614 24 73 26.2386 73 29V56C73 58.7614 70.7614 61 68 61H15ZM18.9375 27.9837C16.1761 27.9837 13.9375 30.2222 13.9375 32.9837V51.8889C13.9375 54.6503 16.1761 56.8889 18.9375 56.8889H64.0625C66.8239 56.8889 69.0625 54.6503 69.0625 51.8889V32.9837C69.0625 30.2222 66.8239 27.9837 64.0625 27.9837H18.9375ZM51.3438 42.5C51.3438 35.6899 46.9377 30.1667 41.5 30.1667H62.0938C64.8552 30.1667 67.0938 32.4052 67.0938 35.1667V49.8333C67.0938 52.5948 64.8552 54.8333 62.0937 54.8333H41.5C46.9377 54.8333 51.3438 49.3101 51.3438 42.5ZM59.2188 46.6111C60.8489 46.6111 62.1719 44.7693 62.1719 42.5C62.1719 40.2307 60.8489 38.3889 59.2188 38.3889C57.5886 38.3889 56.2656 40.2307 56.2656 42.5C56.2656 44.7693 57.5886 46.6111 59.2188 46.6111ZM45.6698 37.3159C45.6403 37.4289 45.5989 37.5091 45.5477 37.5605C45.4946 37.6119 45.4237 37.6366 45.3332 37.6366C45.2426 37.6366 45.1008 37.579 44.902 37.4598C44.7051 37.3385 44.463 37.2111 44.1775 37.0713C43.8901 36.9315 43.5593 36.8041 43.1813 36.6869C42.8033 36.5697 42.3899 36.5163 41.939 36.5163C41.5847 36.5163 41.2775 36.5594 41.0157 36.6499C40.7538 36.7403 40.5333 36.8637 40.3581 37.0199C40.1809 37.1782 40.051 37.3693 39.9644 37.5893C39.8778 37.8092 39.8364 38.0456 39.8364 38.2923C39.8364 38.6623 39.9329 38.9809 40.1258 39.2502C40.3188 39.5194 40.5767 39.7599 40.9015 39.9696C41.2263 40.1813 41.5925 40.3766 42.004 40.5596C42.4115 40.7446 42.8309 40.9398 43.2581 41.1433C43.6853 41.3509 44.1027 41.5832 44.5122 41.8443C44.9217 42.1053 45.2898 42.4178 45.6088 42.7816C45.9277 43.1454 46.1856 43.573 46.3845 44.0643C46.5813 44.5576 46.6778 45.1352 46.6778 45.8053C46.6778 46.6789 46.5242 47.4436 46.2132 48.1034C45.9021 48.7633 45.4788 49.3121 44.9433 49.752C44.4098 50.1939 43.7877 50.5249 43.075 50.7469V50.7469C42.9134 50.7982 42.7935 50.9299 42.7935 51.0994V52.0876C42.7935 52.6221 42.3602 53.0553 41.8258 53.0553V53.0553C41.2914 53.0553 40.8582 52.6221 40.8582 52.0876V51.1468C40.8582 51.1076 40.8265 51.0799 40.7873 51.0799V51.0799C40.238 51.0799 39.7262 51.0347 39.2556 50.9422C38.7851 50.8497 38.3677 50.7346 38.0074 50.6051C37.6452 50.4735 37.3459 50.3358 37.1038 50.1919C36.8616 50.048 36.6884 49.9206 36.5821 49.8096C36.4757 49.6986 36.399 49.5382 36.3537 49.3286C36.3084 49.1168 36.2848 48.8167 36.2848 48.4221C36.2848 48.1569 36.2927 47.9349 36.3104 47.754C36.3281 47.5731 36.3537 47.4292 36.3911 47.3162C36.4285 47.2031 36.4757 47.125 36.5387 47.0777C36.5998 47.0325 36.6707 47.0078 36.7533 47.0078C36.8675 47.0078 37.029 47.0777 37.2396 47.2196C37.4503 47.3614 37.718 47.5176 38.0448 47.6882C38.3736 47.8609 38.7634 48.0151 39.2202 48.1589C39.675 48.2987 40.2026 48.3707 40.8011 48.3707C41.1948 48.3707 41.5472 48.3213 41.8583 48.2227C42.1694 48.124 42.4352 47.9863 42.6517 47.8054C42.8683 47.6245 43.0337 47.4025 43.1498 47.1373C43.266 46.8701 43.3231 46.5762 43.3231 46.2473C43.3231 45.8711 43.2227 45.5484 43.0277 45.2771C42.8309 45.0078 42.5749 44.7693 42.258 44.5576C41.943 44.3479 41.5847 44.1527 41.183 43.9677C40.7814 43.7827 40.368 43.5874 39.9408 43.3839C39.5155 43.1783 39.1001 42.9461 38.6985 42.6829C38.2968 42.4198 37.9385 42.1115 37.6235 41.7477C37.3085 41.3838 37.0506 40.9522 36.8557 40.4568C36.6608 39.9614 36.5604 39.3653 36.5604 38.6726C36.5604 37.875 36.7022 37.1761 36.9837 36.5738C37.2652 35.9716 37.6472 35.47 38.1275 35.0733C38.6079 34.6766 39.1729 34.3785 39.8246 34.1812C39.8474 34.1742 39.8702 34.1673 39.8931 34.1606C40.4372 34.001 40.8602 33.535 40.8602 32.968V32.7993C40.8602 32.2649 41.2934 31.8317 41.8278 31.8317V31.8317C42.3622 31.8317 42.7954 32.2649 42.7954 32.7993V33.7259C42.7954 33.8583 42.8951 33.9546 43.0258 33.9756V33.9756C43.4018 34.0352 43.7562 34.1154 44.083 34.2182C44.4118 34.3189 44.7012 34.4319 44.9571 34.5614C45.2111 34.6889 45.3784 34.7937 45.4611 34.8801C45.5438 34.9664 45.597 35.0363 45.6285 35.0959C45.656 35.1555 45.6797 35.2357 45.7013 35.3343C45.723 35.433 45.7368 35.5563 45.7427 35.7084C45.7505 35.8564 45.7545 36.0435 45.7545 36.2655C45.7545 36.5142 45.7486 36.7259 45.7368 36.8986C45.719 37.061 45.6993 37.2049 45.6698 37.3159ZM31.6562 42.5C31.6562 49.3101 36.0623 54.8333 41.5 54.8333H20.9062C18.1448 54.8333 15.9062 52.5948 15.9062 49.8333V35.1667C15.9062 32.4052 18.1448 30.1667 20.9063 30.1667H41.5C36.0623 30.1667 31.6562 35.6899 31.6562 42.5ZM23.7812 38.3889C22.1492 38.3889 20.8281 40.2307 20.8281 42.5C20.8281 44.7693 22.1492 46.6111 23.7812 46.6111C25.4114 46.6111 26.7344 44.7693 26.7344 42.5C26.7344 40.2307 25.4114 38.3889 23.7812 38.3889Z" fill="url(#paint0_linear_744_366)"/>
</g>
<defs>
<filter id="filter0_d_744_366" x="6" y="24" width="71" height="45" filterUnits="userSpaceOnUse" color-interpolation-filters="sRGB">
<feFlood flood-opacity="0" result="BackgroundImageFix"/>
<feColorMatrix in="SourceAlpha" type="matrix" values="0 0 0 0 0 0 0 0 0 0 0 0 0 0 0 0 0 0 127 0" result="hardAlpha"/>
<feOffset dy="4"/>
<feGaussianBlur stdDeviation="2"/>
<feComposite in2="hardAlpha" operator="out"/>
<feColorMatrix type="matrix" values="0 0 0 0 0 0 0 0 0 0 0 0 0 0 0 0 0 0 0.25 0"/>
<feBlend mode="normal" in2="BackgroundImageFix" result="effect1_dropShadow_744_366"/>
<feBlend mode="normal" in="SourceGraphic" in2="effect1_dropShadow_744_366" result="shape"/>
</filter>
<linearGradient id="paint0_linear_744_366" x1="41.5" y1="24" x2="41.5" y2="61" gradientUnits="userSpaceOnUse">
<stop stop-color="white"/>
<stop offset="1" stop-color="#BFBFBF"/>
</linearGradient>
</defs>
</svg>
