<svg width="84" height="84" viewBox="0 0 84 84" fill="none" xmlns="http://www.w3.org/2000/svg">
<g clip-path="url(#clip0_1330_1093)">
<g filter="url(#filter0_d_1330_1093)">
<path d="M70.9989 17.8605C73.6832 17.8605 75.8592 15.6845 75.8592 13.0003C75.8592 10.3161 73.6832 8.14014 70.9989 8.14014C68.3147 8.14014 66.1387 10.3161 66.1387 13.0003C66.1387 15.6845 68.3147 17.8605 70.9989 17.8605Z" fill="url(#paint0_linear_1330_1093)"/>
<path d="M71.0007 18.655C67.8825 18.655 65.3457 16.1182 65.3457 13.0001C65.3457 9.88194 67.8825 7.34521 71.0007 7.34521C74.1188 7.34521 76.6556 9.88194 76.6556 13.0001C76.6556 16.1182 74.1188 18.655 71.0007 18.655ZM71.0007 8.9346C68.758 8.9346 66.9351 10.7574 66.9351 13.0001C66.9351 15.2427 68.758 17.0656 71.0007 17.0656C73.2433 17.0656 75.0662 15.2427 75.0662 13.0001C75.0662 10.7574 73.2433 8.9346 71.0007 8.9346Z" fill="url(#paint1_linear_1330_1093)"/>
<path d="M70.9998 6.17325C70.5598 6.17325 70.2051 5.81856 70.2051 5.37856V2.79469C70.2051 2.35694 70.5598 2 70.9998 2C71.4375 2 71.7945 2.35469 71.7945 2.79469V5.37856C71.7945 5.81631 71.4375 6.17325 70.9998 6.17325Z" fill="url(#paint2_linear_1330_1093)"/>
<path d="M70.9998 23.9999C70.5598 23.9999 70.2051 23.6452 70.2051 23.2052V20.6214C70.2051 20.1836 70.5598 19.8267 70.9998 19.8267C71.4375 19.8267 71.7945 20.1836 71.7945 20.6214V23.2052C71.7945 23.6452 71.4375 23.9999 70.9998 23.9999Z" fill="url(#paint3_linear_1330_1093)"/>
<path d="M81.2048 13.7945H78.6209C78.1831 13.7945 77.8262 13.4398 77.8262 12.9998C77.8262 12.5598 78.1831 12.2051 78.6209 12.2051H81.2048C81.6425 12.2051 81.9995 12.5598 81.9995 12.9998C81.9995 13.4375 81.6448 13.7945 81.2048 13.7945Z" fill="url(#paint4_linear_1330_1093)"/>
<path d="M63.3786 13.7945H60.7947C60.3569 13.7945 60 13.4375 60 12.9998C60 12.5598 60.3569 12.2051 60.7947 12.2051H63.3786C63.8186 12.2051 64.1733 12.5598 64.1733 12.9998C64.1733 13.4375 63.8164 13.7945 63.3786 13.7945Z" fill="url(#paint5_linear_1330_1093)"/>
<path d="M76.3912 8.40466C76.1869 8.40466 75.9849 8.32609 75.83 8.17119C75.5202 7.8614 75.5202 7.35854 75.83 7.0465L77.6574 5.21916C77.9672 4.90937 78.47 4.90937 78.7821 5.21916C79.0919 5.52896 79.0919 6.03181 78.7821 6.34385L76.9525 8.17344C76.7976 8.32834 76.5933 8.40466 76.3912 8.40466Z" fill="url(#paint6_linear_1330_1093)"/>
<path d="M63.7838 21.0121C63.5795 21.0121 63.3775 20.9335 63.2226 20.7786C62.9128 20.4688 62.9128 19.966 63.2226 19.6539L65.0499 17.8266C65.3597 17.5168 65.8626 17.5168 66.1747 17.8266C66.4845 18.1364 66.4845 18.6392 66.1747 18.9513L64.3473 20.7786C64.1924 20.9335 63.9881 21.0121 63.7838 21.0121Z" fill="url(#paint7_linear_1330_1093)"/>
<path d="M78.2147 21.0121C78.0104 21.0121 77.8084 20.9335 77.6535 20.7786L75.8261 18.9513C75.5163 18.6415 75.5163 18.1386 75.8261 17.8266C76.1359 17.5168 76.6388 17.5168 76.9508 17.8266L78.7782 19.6539C79.088 19.9637 79.088 20.4666 78.7782 20.7786C78.6233 20.9335 78.419 21.0121 78.2147 21.0121Z" fill="url(#paint8_linear_1330_1093)"/>
<path d="M65.6112 8.40466C65.4069 8.40466 65.2048 8.32609 65.0499 8.17119L63.2226 6.34385C62.9128 6.03406 62.9128 5.5312 63.2226 5.21916C63.5324 4.90937 64.0352 4.90937 64.3473 5.21916L66.1747 7.0465C66.4845 7.3563 66.4845 7.85915 66.1747 8.17119C66.0198 8.32834 65.8155 8.40466 65.6112 8.40466Z" fill="url(#paint9_linear_1330_1093)"/>
</g>
<g filter="url(#filter1_d_1330_1093)">
<path d="M34.831 46.147C34.8081 47.2744 34.3342 48.3476 33.5121 49.1335C32.69 49.9195 31.586 50.3548 30.4396 50.3452C29.2955 50.3684 28.1881 49.9477 27.3568 49.1741C26.5256 48.4006 26.0372 47.3362 25.9974 46.2113C26.0202 45.09 26.4891 44.0223 27.3034 43.2373C28.1177 42.4524 29.2124 42.0128 30.3525 42.0131C31.5028 41.9803 32.6195 42.3967 33.4587 43.1713C34.2978 43.9459 34.7912 45.0157 34.831 46.147ZM32.6534 37.8434C31.5069 37.8704 30.3957 37.4514 29.5613 36.6774C28.7269 35.9035 28.2366 34.8369 28.1967 33.7094C28.2034 33.1534 28.3213 32.6041 28.5437 32.0929C28.7662 31.5818 29.0889 31.1187 29.4933 30.7302C29.8977 30.3417 30.3759 30.0352 30.9007 29.8285C31.4255 29.6218 31.9866 29.5189 32.5518 29.5255C33.696 29.4984 34.805 29.9154 35.639 30.6863C36.473 31.4573 36.965 32.5202 37.0085 33.6452C36.9859 34.7591 36.5231 35.8205 35.7181 36.6042C34.9132 37.388 33.8295 37.8325 32.697 37.8434H32.6534ZM50.306 29.4898C50.2813 30.616 49.8065 31.6872 48.9846 32.4716C48.1627 33.2561 47.0598 33.6905 45.9147 33.6808C44.7693 33.7079 43.6592 33.2899 42.825 32.5174C41.9908 31.7449 41.4996 30.6802 41.458 29.554C41.4809 28.4265 41.9548 27.3535 42.7769 26.5675C43.599 25.7816 44.703 25.3462 45.8493 25.3558C47.0033 25.3172 48.1257 25.7311 48.9696 26.5063C49.8134 27.2815 50.3098 28.3546 50.3496 29.4898H50.306ZM23.7618 62.4829C33.9237 63.2754 30.2944 53.1297 39.6651 53.0369L43.7299 56.2285C44.7896 67.7593 29.8009 70.3367 23.8054 62.4829H23.7618ZM54.8789 47.6677C58.0363 43.0054 67.8062 27.3693 67.8062 27.3693C68.5829 26.077 66.8553 24.7204 65.6287 25.6771C65.6287 25.6771 51.1117 37.5721 46.8075 41.3847C43.4177 44.3692 43.4032 45.7258 42.3072 50.6665L46.0235 53.5795C51.0101 51.6161 52.4255 51.359 54.9224 47.6677H54.8789ZM26.9628 57.6635C24.6228 55.7789 22.7287 53.4152 21.4125 50.7369C20.0962 48.0587 19.3895 45.1303 19.3414 42.1558C19.2906 30.6964 29.1331 21.279 41.3636 21.2004C49.856 21.2004 55.6991 25.1702 55.7354 28.3403L59.4154 25.313C57.1798 20.6864 50.1609 16.8951 41.3273 17.0022C26.6797 17.1165 14.8847 28.3831 15.0009 42.1844C15.0611 48.05 17.2786 53.6958 21.2431 58.0777C23.3263 59.1272 25.9031 58.7845 27.0064 57.6778L26.9628 57.6635ZM55.2708 53.6938C57.6081 57.7992 52.2803 60.7123 47.4244 62.0046C46.7903 63.8131 45.7538 65.4597 44.3904 66.824C56.0039 65.5888 64.431 57.8563 58.2468 50.4024C57.4243 51.6306 56.4353 52.7428 55.3071 53.7081L55.2708 53.6938Z" fill="url(#paint10_linear_1330_1093)"/>
</g>
<g filter="url(#filter2_d_1330_1093)">
<path d="M14.8331 10.1086C14.7875 10.1722 14.651 10.5548 14.5507 10.9549C13.9858 13.0213 13.139 13.8681 11.0349 14.5054C9.71401 14.906 9.66883 15.1427 10.8347 15.4521C11.8551 15.7253 12.8023 16.1987 13.312 16.6901C13.8132 17.1815 14.3139 18.1737 14.5963 19.2392C14.7423 19.8219 14.8241 19.9768 14.9696 19.9948C15.2154 20.0314 15.3067 19.8855 15.4888 19.1575C15.7075 18.2655 16.1811 17.2822 16.6271 16.7998C17.1007 16.2899 17.9932 15.8166 19.0498 15.5072C19.9422 15.2525 20.0426 15.1978 19.9879 14.9517C19.9698 14.8333 19.7421 14.724 19.1135 14.542C16.9823 13.9228 16.1169 13.0674 15.5064 10.9825C15.388 10.5363 15.2515 10.1451 15.224 10.0905C15.1427 9.96266 14.9515 9.97169 14.8331 10.1086Z" fill="url(#paint11_linear_1330_1093)"/>
</g>
<g filter="url(#filter3_d_1330_1093)">
<path d="M69.8331 44.1086C69.7875 44.1722 69.651 44.5548 69.5507 44.9549C68.9858 47.0213 68.139 47.8681 66.0349 48.5054C64.714 48.906 64.6688 49.1427 65.8347 49.4521C66.8551 49.7253 67.8023 50.1987 68.312 50.6901C68.8132 51.1815 69.3139 52.1737 69.5963 53.2392C69.7423 53.8219 69.8241 53.9768 69.9696 53.9948C70.2154 54.0314 70.3067 53.8855 70.4888 53.1575C70.7075 52.2655 71.1811 51.2822 71.6271 50.7998C72.1007 50.2899 72.9932 49.8166 74.0498 49.5072C74.9422 49.2525 75.0426 49.1978 74.9879 48.9517C74.9698 48.8333 74.7421 48.724 74.1135 48.542C71.9823 47.9228 71.1169 47.0674 70.5064 44.9825C70.388 44.5363 70.2515 44.1451 70.224 44.0905C70.1427 43.9627 69.9515 43.9717 69.8331 44.1086Z" fill="url(#paint12_linear_1330_1093)"/>
</g>
<g filter="url(#filter4_d_1330_1093)">
<path d="M14.8331 62.1086C14.7875 62.1722 14.651 62.5548 14.5507 62.9549C13.9858 65.0213 13.139 65.8681 11.0349 66.5054C9.71401 66.906 9.66883 67.1427 10.8347 67.4521C11.8551 67.7253 12.8023 68.1987 13.312 68.6901C13.8132 69.1815 14.3139 70.1737 14.5963 71.2392C14.7423 71.8219 14.8241 71.9768 14.9696 71.9948C15.2154 72.0314 15.3067 71.8855 15.4888 71.1575C15.7075 70.2655 16.1811 69.2822 16.6271 68.7998C17.1007 68.2899 17.9932 67.8166 19.0498 67.5072C19.9422 67.2525 20.0426 67.1978 19.9879 66.9517C19.9698 66.8333 19.7421 66.724 19.1135 66.542C16.9823 65.9228 16.1169 65.0674 15.5064 62.9825C15.388 62.5363 15.2515 62.1451 15.224 62.0905C15.1427 61.9627 14.9515 61.9717 14.8331 62.1086Z" fill="url(#paint13_linear_1330_1093)"/>
</g>
<g filter="url(#filter5_d_1330_1093)">
<path d="M9.83312 20.1086C9.78747 20.1722 9.651 20.5548 9.55068 20.9549C8.9858 23.0213 8.13895 23.8681 6.03491 24.5054C4.71401 24.906 4.66883 25.1427 5.83473 25.4521C6.85513 25.7253 7.80231 26.1987 8.31203 26.6901C8.81319 27.1815 9.31389 28.1737 9.59633 29.2392C9.7423 29.8219 9.82408 29.9768 9.96958 29.9948C10.2154 30.0314 10.3067 29.8855 10.4888 29.1575C10.7075 28.2655 11.1811 27.2822 11.6271 26.7998C12.1007 26.2899 12.9932 25.8166 14.0498 25.5072C14.9422 25.2525 15.0426 25.1978 14.9879 24.9517C14.9698 24.8333 14.7421 24.724 14.1135 24.542C11.9823 23.9228 11.1169 23.0674 10.5064 20.9825C10.388 20.5363 10.2515 20.1451 10.224 20.0905C10.1427 19.9627 9.95152 19.9717 9.83312 20.1086Z" fill="url(#paint14_linear_1330_1093)"/>
</g>
<g filter="url(#filter6_d_1330_1093)">
<path d="M69.2497 62.1628C69.1812 62.2584 68.9765 62.8322 68.826 63.4324C67.9787 66.5319 66.7084 67.8022 63.5524 68.7581C61.571 69.3591 61.5033 69.7141 63.2521 70.1781C64.7827 70.588 66.2035 71.298 66.968 72.0351C67.7198 72.7722 68.4708 74.2606 68.8945 75.8588C69.1135 76.7328 69.2361 76.9652 69.4544 76.9923C69.8231 77.0472 69.9601 76.8283 70.2332 75.7362C70.5613 74.3982 71.2717 72.9233 71.9407 72.1998C72.6511 71.4349 73.9898 70.7249 75.5746 70.2608C76.9134 69.8787 77.0639 69.7967 76.9818 69.4275C76.9547 69.25 76.6131 69.086 75.6702 68.813C72.4735 67.8842 71.1754 66.601 70.2596 63.4738C70.082 62.8044 69.8773 62.2177 69.836 62.1357C69.714 61.944 69.4273 61.9575 69.2497 62.1628Z" fill="url(#paint15_linear_1330_1093)"/>
</g>
</g>
<defs>
<filter id="filter0_d_1330_1093" x="56" y="2" width="30" height="30" filterUnits="userSpaceOnUse" color-interpolation-filters="sRGB">
<feFlood flood-opacity="0" result="BackgroundImageFix"/>
<feColorMatrix in="SourceAlpha" type="matrix" values="0 0 0 0 0 0 0 0 0 0 0 0 0 0 0 0 0 0 127 0" result="hardAlpha"/>
<feOffset dy="4"/>
<feGaussianBlur stdDeviation="2"/>
<feComposite in2="hardAlpha" operator="out"/>
<feColorMatrix type="matrix" values="0 0 0 0 0 0 0 0 0 0 0 0 0 0 0 0 0 0 0.25 0"/>
<feBlend mode="normal" in2="BackgroundImageFix" result="effect1_dropShadow_1330_1093"/>
<feBlend mode="normal" in="SourceGraphic" in2="effect1_dropShadow_1330_1093" result="shape"/>
</filter>
<filter id="filter1_d_1330_1093" x="11" y="17" width="61" height="58" filterUnits="userSpaceOnUse" color-interpolation-filters="sRGB">
<feFlood flood-opacity="0" result="BackgroundImageFix"/>
<feColorMatrix in="SourceAlpha" type="matrix" values="0 0 0 0 0 0 0 0 0 0 0 0 0 0 0 0 0 0 127 0" result="hardAlpha"/>
<feOffset dy="4"/>
<feGaussianBlur stdDeviation="2"/>
<feComposite in2="hardAlpha" operator="out"/>
<feColorMatrix type="matrix" values="0 0 0 0 0 0 0 0 0 0 0 0 0 0 0 0 0 0 0.25 0"/>
<feBlend mode="normal" in2="BackgroundImageFix" result="effect1_dropShadow_1330_1093"/>
<feBlend mode="normal" in="SourceGraphic" in2="effect1_dropShadow_1330_1093" result="shape"/>
</filter>
<filter id="filter2_d_1330_1093" x="6" y="10" width="18" height="18" filterUnits="userSpaceOnUse" color-interpolation-filters="sRGB">
<feFlood flood-opacity="0" result="BackgroundImageFix"/>
<feColorMatrix in="SourceAlpha" type="matrix" values="0 0 0 0 0 0 0 0 0 0 0 0 0 0 0 0 0 0 127 0" result="hardAlpha"/>
<feOffset dy="4"/>
<feGaussianBlur stdDeviation="2"/>
<feComposite in2="hardAlpha" operator="out"/>
<feColorMatrix type="matrix" values="0 0 0 0 0 0 0 0 0 0 0 0 0 0 0 0 0 0 0.25 0"/>
<feBlend mode="normal" in2="BackgroundImageFix" result="effect1_dropShadow_1330_1093"/>
<feBlend mode="normal" in="SourceGraphic" in2="effect1_dropShadow_1330_1093" result="shape"/>
</filter>
<filter id="filter3_d_1330_1093" x="61" y="44" width="18" height="18" filterUnits="userSpaceOnUse" color-interpolation-filters="sRGB">
<feFlood flood-opacity="0" result="BackgroundImageFix"/>
<feColorMatrix in="SourceAlpha" type="matrix" values="0 0 0 0 0 0 0 0 0 0 0 0 0 0 0 0 0 0 127 0" result="hardAlpha"/>
<feOffset dy="4"/>
<feGaussianBlur stdDeviation="2"/>
<feComposite in2="hardAlpha" operator="out"/>
<feColorMatrix type="matrix" values="0 0 0 0 0 0 0 0 0 0 0 0 0 0 0 0 0 0 0.25 0"/>
<feBlend mode="normal" in2="BackgroundImageFix" result="effect1_dropShadow_1330_1093"/>
<feBlend mode="normal" in="SourceGraphic" in2="effect1_dropShadow_1330_1093" result="shape"/>
</filter>
<filter id="filter4_d_1330_1093" x="6" y="62" width="18" height="18" filterUnits="userSpaceOnUse" color-interpolation-filters="sRGB">
<feFlood flood-opacity="0" result="BackgroundImageFix"/>
<feColorMatrix in="SourceAlpha" type="matrix" values="0 0 0 0 0 0 0 0 0 0 0 0 0 0 0 0 0 0 127 0" result="hardAlpha"/>
<feOffset dy="4"/>
<feGaussianBlur stdDeviation="2"/>
<feComposite in2="hardAlpha" operator="out"/>
<feColorMatrix type="matrix" values="0 0 0 0 0 0 0 0 0 0 0 0 0 0 0 0 0 0 0.25 0"/>
<feBlend mode="normal" in2="BackgroundImageFix" result="effect1_dropShadow_1330_1093"/>
<feBlend mode="normal" in="SourceGraphic" in2="effect1_dropShadow_1330_1093" result="shape"/>
</filter>
<filter id="filter5_d_1330_1093" x="1" y="20" width="18" height="18" filterUnits="userSpaceOnUse" color-interpolation-filters="sRGB">
<feFlood flood-opacity="0" result="BackgroundImageFix"/>
<feColorMatrix in="SourceAlpha" type="matrix" values="0 0 0 0 0 0 0 0 0 0 0 0 0 0 0 0 0 0 127 0" result="hardAlpha"/>
<feOffset dy="4"/>
<feGaussianBlur stdDeviation="2"/>
<feComposite in2="hardAlpha" operator="out"/>
<feColorMatrix type="matrix" values="0 0 0 0 0 0 0 0 0 0 0 0 0 0 0 0 0 0 0.25 0"/>
<feBlend mode="normal" in2="BackgroundImageFix" result="effect1_dropShadow_1330_1093"/>
<feBlend mode="normal" in="SourceGraphic" in2="effect1_dropShadow_1330_1093" result="shape"/>
</filter>
<filter id="filter6_d_1330_1093" x="58" y="62" width="23" height="23" filterUnits="userSpaceOnUse" color-interpolation-filters="sRGB">
<feFlood flood-opacity="0" result="BackgroundImageFix"/>
<feColorMatrix in="SourceAlpha" type="matrix" values="0 0 0 0 0 0 0 0 0 0 0 0 0 0 0 0 0 0 127 0" result="hardAlpha"/>
<feOffset dy="4"/>
<feGaussianBlur stdDeviation="2"/>
<feComposite in2="hardAlpha" operator="out"/>
<feColorMatrix type="matrix" values="0 0 0 0 0 0 0 0 0 0 0 0 0 0 0 0 0 0 0.25 0"/>
<feBlend mode="normal" in2="BackgroundImageFix" result="effect1_dropShadow_1330_1093"/>
<feBlend mode="normal" in="SourceGraphic" in2="effect1_dropShadow_1330_1093" result="shape"/>
</filter>
<linearGradient id="paint0_linear_1330_1093" x1="70.9989" y1="8.14014" x2="70.9989" y2="17.8605" gradientUnits="userSpaceOnUse">
<stop stop-color="#FBB03B"/>
<stop offset="1" stop-color="#F78140"/>
</linearGradient>
<linearGradient id="paint1_linear_1330_1093" x1="71.0007" y1="7.34521" x2="71.0007" y2="18.655" gradientUnits="userSpaceOnUse">
<stop stop-color="#FBB03B"/>
<stop offset="1" stop-color="#F78140"/>
</linearGradient>
<linearGradient id="paint2_linear_1330_1093" x1="70.9998" y1="2" x2="70.9998" y2="6.17325" gradientUnits="userSpaceOnUse">
<stop stop-color="#FBB03B"/>
<stop offset="1" stop-color="#F78140"/>
</linearGradient>
<linearGradient id="paint3_linear_1330_1093" x1="70.9998" y1="19.8267" x2="70.9998" y2="23.9999" gradientUnits="userSpaceOnUse">
<stop stop-color="#FBB03B"/>
<stop offset="1" stop-color="#F78140"/>
</linearGradient>
<linearGradient id="paint4_linear_1330_1093" x1="79.9128" y1="12.2051" x2="79.9128" y2="13.7945" gradientUnits="userSpaceOnUse">
<stop stop-color="#FBB03B"/>
<stop offset="1" stop-color="#F78140"/>
</linearGradient>
<linearGradient id="paint5_linear_1330_1093" x1="62.0867" y1="12.2051" x2="62.0867" y2="13.7945" gradientUnits="userSpaceOnUse">
<stop stop-color="#FBB03B"/>
<stop offset="1" stop-color="#F78140"/>
</linearGradient>
<linearGradient id="paint6_linear_1330_1093" x1="77.306" y1="4.98682" x2="77.306" y2="8.40466" gradientUnits="userSpaceOnUse">
<stop stop-color="#FBB03B"/>
<stop offset="1" stop-color="#F78140"/>
</linearGradient>
<linearGradient id="paint7_linear_1330_1093" x1="64.6986" y1="17.5942" x2="64.6986" y2="21.0121" gradientUnits="userSpaceOnUse">
<stop stop-color="#FBB03B"/>
<stop offset="1" stop-color="#F78140"/>
</linearGradient>
<linearGradient id="paint8_linear_1330_1093" x1="77.3021" y1="17.5942" x2="77.3021" y2="21.0121" gradientUnits="userSpaceOnUse">
<stop stop-color="#FBB03B"/>
<stop offset="1" stop-color="#F78140"/>
</linearGradient>
<linearGradient id="paint9_linear_1330_1093" x1="64.6986" y1="4.98682" x2="64.6986" y2="8.40466" gradientUnits="userSpaceOnUse">
<stop stop-color="#FBB03B"/>
<stop offset="1" stop-color="#F78140"/>
</linearGradient>
<linearGradient id="paint10_linear_1330_1093" x1="41.5" y1="17" x2="41.5" y2="67" gradientUnits="userSpaceOnUse">
<stop stop-color="#FBB03B"/>
<stop offset="1" stop-color="#F78140"/>
</linearGradient>
<linearGradient id="paint11_linear_1330_1093" x1="15" y1="20" x2="15" y2="10" gradientUnits="userSpaceOnUse">
<stop stop-color="#F78140"/>
<stop offset="1" stop-color="#FBB03B"/>
</linearGradient>
<linearGradient id="paint12_linear_1330_1093" x1="70" y1="54" x2="70" y2="44" gradientUnits="userSpaceOnUse">
<stop stop-color="#F78140"/>
<stop offset="1" stop-color="#FBB03B"/>
</linearGradient>
<linearGradient id="paint13_linear_1330_1093" x1="15" y1="72" x2="15" y2="62" gradientUnits="userSpaceOnUse">
<stop stop-color="#F78140"/>
<stop offset="1" stop-color="#FBB03B"/>
</linearGradient>
<linearGradient id="paint14_linear_1330_1093" x1="10" y1="30" x2="10" y2="20" gradientUnits="userSpaceOnUse">
<stop stop-color="#F78140"/>
<stop offset="1" stop-color="#FBB03B"/>
</linearGradient>
<linearGradient id="paint15_linear_1330_1093" x1="69.5" y1="77" x2="69.5" y2="62" gradientUnits="userSpaceOnUse">
<stop stop-color="#F78140"/>
<stop offset="1" stop-color="#FBB03B"/>
</linearGradient>
<clipPath id="clip0_1330_1093">
<rect width="83.75" height="83.75" fill="white"/>
</clipPath>
</defs>
</svg>
