<svg width="84" height="84" viewBox="0 0 84 84" fill="none" xmlns="http://www.w3.org/2000/svg">
<g clip-path="url(#clip0_1325_997)">
<g filter="url(#filter0_d_1325_997)">
<path d="M71.5 24C77.2991 24 82 19.2991 82 13.5C82 7.70095 77.2991 3 71.5 3C65.7009 3 61 7.70095 61 13.5C61 19.2991 65.7009 24 71.5 24ZM65.183 17.792C64.3505 16.5689 63.8636 15.0912 63.8636 13.5C63.8636 9.28263 67.2826 5.86364 71.5 5.86364C73.0912 5.86364 74.5689 6.35045 75.792 7.18301L65.183 17.792ZM67.208 19.817L77.817 9.20798C78.6495 10.4311 79.1364 11.9088 79.1364 13.5C79.1364 17.7174 75.7174 21.1364 71.5 21.1364C69.9088 21.1364 68.4311 20.6495 67.208 19.817Z" fill="url(#paint0_linear_1325_997)"/>
</g>
<g filter="url(#filter1_d_1325_997)">
<path d="M31.2251 51.3286C31.2606 51.8421 31.0925 52.349 30.7572 52.7394C30.4219 53.1298 29.9465 53.3723 29.4338 53.4143H26.4792C25.9666 53.3723 25.4911 53.1298 25.1558 52.7394C24.8205 52.349 24.6524 51.8421 24.6879 51.3286V34.4643C24.6524 33.9507 24.8205 33.4438 25.1558 33.0534C25.4911 32.663 25.9666 32.4206 26.4792 32.3786H29.4338C29.9465 32.4206 30.4219 32.663 30.7572 33.0534C31.0925 33.4438 31.2606 33.9507 31.2251 34.4643V51.3286ZM45.2844 34.4643C45.3199 33.9507 45.1518 33.4438 44.8165 33.0534C44.4812 32.663 44.0058 32.4206 43.4931 32.3786H40.5028C39.9902 32.4206 39.5147 32.663 39.1794 33.0534C38.8441 33.4438 38.676 33.9507 38.7115 34.4643V51.3286C38.676 51.8421 38.8441 52.349 39.1794 52.7394C39.5147 53.1298 39.9902 53.3723 40.5028 53.4143H43.4574C43.7144 53.3979 43.9656 53.331 44.1967 53.2172C44.4277 53.1034 44.6341 52.9451 44.8038 52.7513C44.9736 52.5575 45.1034 52.3321 45.1859 52.0879C45.2684 51.8438 45.3018 51.5857 45.2844 51.3286V34.4643ZM59.308 34.4643C59.3435 33.9507 59.1754 33.4438 58.8401 33.0534C58.5048 32.663 58.0294 32.4206 57.5167 32.3786H54.5621C54.0495 32.4206 53.574 32.663 53.2387 33.0534C52.9034 33.4438 52.7353 33.9507 52.7708 34.4643V51.3286C52.7353 51.8421 52.9034 52.349 53.2387 52.7394C53.574 53.1298 54.0495 53.3723 54.5621 53.4143H57.5167C58.0294 53.3723 58.5048 53.1298 58.8401 52.7394C59.1754 52.349 59.3435 51.8421 59.308 51.3286V34.4643ZM64.2609 57.8786C64.3041 57.2668 64.1028 56.6628 63.7014 56.1994C63.2999 55.736 62.7311 55.4511 62.1199 55.4071H21.8546C21.2643 55.4973 20.7257 55.7961 20.3365 56.2495C19.9473 56.7029 19.7334 57.2808 19.7334 57.8786C19.7334 58.4763 19.9473 59.0543 20.3365 59.5077C20.7257 59.9611 21.2643 60.2599 21.8546 60.35H62.0985C62.7071 60.3025 63.2724 60.016 63.6708 59.553C64.0692 59.09 64.2685 58.4881 64.2252 57.8786H64.2609ZM66.9942 64.5286C67.0374 63.9168 66.8362 63.3128 66.4347 62.8494C66.0333 62.386 65.4645 62.1011 64.8532 62.0571H19.1213C18.5309 62.1473 17.9923 62.4461 17.6031 62.8995C17.214 63.3529 17 63.9308 17 64.5286C17 65.1263 17.214 65.7043 17.6031 66.1576C17.9923 66.611 18.5309 66.9099 19.1213 67H64.839C65.4464 66.9507 66.0098 66.6635 66.4067 66.2007C66.8036 65.7379 67.0019 65.1369 66.9586 64.5286H66.9942ZM65.8452 30.1714C65.8452 30.1714 66.6945 30.2 66.6945 29.0214C66.6912 28.6848 66.5894 28.3566 66.4017 28.0773C66.214 27.798 65.9486 27.5799 65.6383 27.45C65.6383 27.45 43.072 17 41.9516 17C40.8311 17 18.2792 27.45 18.2792 27.45C17.9689 27.5799 17.7034 27.798 17.5157 28.0773C17.328 28.3566 17.2262 28.6848 17.2229 29.0214C17.2229 30.2 18.1007 30.1714 18.1007 30.1714H65.8452Z" fill="url(#paint1_linear_1325_997)"/>
</g>
<g filter="url(#filter2_d_1325_997)">
<path d="M18.2497 6.16283C18.1812 6.25835 17.9765 6.8322 17.826 7.43242C16.9787 10.5319 15.7084 11.8022 12.5524 12.7581C10.571 13.3591 10.5033 13.7141 12.2521 14.1781C13.7827 14.588 15.2035 15.298 15.968 16.0351C16.7198 16.7722 17.4708 18.2606 17.8945 19.8588C18.1135 20.7328 18.2361 20.9652 18.4544 20.9923C18.8231 21.0472 18.9601 20.8283 19.2332 19.7362C19.5613 18.3982 20.2717 16.9233 20.9407 16.1998C21.6511 15.4349 22.9898 14.7249 24.5746 14.2608C25.9134 13.8787 26.0639 13.7967 25.9818 13.4275C25.9547 13.25 25.6131 13.086 24.6702 12.813C21.4735 11.8842 20.1754 10.601 19.2596 7.47377C19.082 6.8044 18.8773 6.21772 18.836 6.13574C18.714 5.94399 18.4273 5.95753 18.2497 6.16283Z" fill="url(#paint2_linear_1325_997)"/>
</g>
<g filter="url(#filter3_d_1325_997)">
<path d="M71.8331 45.1086C71.7875 45.1722 71.651 45.5548 71.5507 45.9549C70.9858 48.0213 70.139 48.8681 68.0349 49.5054C66.714 49.906 66.6688 50.1427 67.8347 50.4521C68.8551 50.7253 69.8023 51.1987 70.312 51.6901C70.8132 52.1815 71.3139 53.1737 71.5963 54.2392C71.7423 54.8219 71.8241 54.9768 71.9696 54.9948C72.2154 55.0314 72.3067 54.8855 72.4888 54.1575C72.7075 53.2655 73.1811 52.2822 73.6271 51.7998C74.1007 51.2899 74.9932 50.8166 76.0498 50.5072C76.9422 50.2525 77.0426 50.1978 76.9879 49.9517C76.9698 49.8333 76.7421 49.724 76.1135 49.542C73.9823 48.9228 73.1169 48.0674 72.5064 45.9825C72.388 45.5363 72.2515 45.1451 72.224 45.0905C72.1427 44.9627 71.9515 44.9717 71.8331 45.1086Z" fill="url(#paint3_linear_1325_997)"/>
</g>
<g filter="url(#filter4_d_1325_997)">
<path d="M15.8331 42.1086C15.7875 42.1722 15.651 42.5548 15.5507 42.9549C14.9858 45.0213 14.139 45.8681 12.0349 46.5054C10.714 46.906 10.6688 47.1427 11.8347 47.4521C12.8551 47.7253 13.8023 48.1987 14.312 48.6901C14.8132 49.1815 15.3139 50.1737 15.5963 51.2392C15.7423 51.8219 15.8241 51.9768 15.9696 51.9948C16.2154 52.0314 16.3067 51.8855 16.4888 51.1575C16.7075 50.2655 17.1811 49.2822 17.6271 48.7998C18.1007 48.2899 18.9932 47.8166 20.0498 47.5072C20.9422 47.2525 21.0426 47.1978 20.9879 46.9517C20.9698 46.8333 20.7421 46.724 20.1135 46.542C17.9823 45.9228 17.1169 45.0674 16.5064 42.9825C16.388 42.5363 16.2515 42.1451 16.224 42.0905C16.1427 41.9627 15.9515 41.9717 15.8331 42.1086Z" fill="url(#paint4_linear_1325_997)"/>
</g>
<g filter="url(#filter5_d_1325_997)">
<path d="M12.2497 65.1628C12.1812 65.2584 11.9765 65.8322 11.826 66.4324C10.9787 69.5319 9.70843 70.8022 6.55237 71.7581C4.57101 72.3591 4.50325 72.7141 6.2521 73.1781C7.7827 73.588 9.20346 74.298 9.96804 75.0351C10.7198 75.7722 11.4708 77.2606 11.8945 78.8588C12.1135 79.7328 12.2361 79.9652 12.4544 79.9923C12.8231 80.0472 12.9601 79.8283 13.2332 78.7362C13.5613 77.3982 14.2717 75.9233 14.9407 75.1998C15.6511 74.4349 16.9898 73.7249 18.5746 73.2608C19.9134 72.8787 20.0639 72.7967 19.9818 72.4275C19.9547 72.25 19.6131 72.086 18.6702 71.813C15.4735 70.8842 14.1754 69.601 13.2596 66.4738C13.082 65.8044 12.8773 65.2177 12.836 65.1357C12.714 64.944 12.4273 64.9575 12.2497 65.1628Z" fill="url(#paint5_linear_1325_997)"/>
</g>
</g>
<defs>
<filter id="filter0_d_1325_997" x="57" y="3" width="29" height="29" filterUnits="userSpaceOnUse" color-interpolation-filters="sRGB">
<feFlood flood-opacity="0" result="BackgroundImageFix"/>
<feColorMatrix in="SourceAlpha" type="matrix" values="0 0 0 0 0 0 0 0 0 0 0 0 0 0 0 0 0 0 127 0" result="hardAlpha"/>
<feOffset dy="4"/>
<feGaussianBlur stdDeviation="2"/>
<feComposite in2="hardAlpha" operator="out"/>
<feColorMatrix type="matrix" values="0 0 0 0 0 0 0 0 0 0 0 0 0 0 0 0 0 0 0.25 0"/>
<feBlend mode="normal" in2="BackgroundImageFix" result="effect1_dropShadow_1325_997"/>
<feBlend mode="normal" in="SourceGraphic" in2="effect1_dropShadow_1325_997" result="shape"/>
</filter>
<filter id="filter1_d_1325_997" x="13" y="17" width="58" height="58" filterUnits="userSpaceOnUse" color-interpolation-filters="sRGB">
<feFlood flood-opacity="0" result="BackgroundImageFix"/>
<feColorMatrix in="SourceAlpha" type="matrix" values="0 0 0 0 0 0 0 0 0 0 0 0 0 0 0 0 0 0 127 0" result="hardAlpha"/>
<feOffset dy="4"/>
<feGaussianBlur stdDeviation="2"/>
<feComposite in2="hardAlpha" operator="out"/>
<feColorMatrix type="matrix" values="0 0 0 0 0 0 0 0 0 0 0 0 0 0 0 0 0 0 0.25 0"/>
<feBlend mode="normal" in2="BackgroundImageFix" result="effect1_dropShadow_1325_997"/>
<feBlend mode="normal" in="SourceGraphic" in2="effect1_dropShadow_1325_997" result="shape"/>
</filter>
<filter id="filter2_d_1325_997" x="7" y="6" width="23" height="23" filterUnits="userSpaceOnUse" color-interpolation-filters="sRGB">
<feFlood flood-opacity="0" result="BackgroundImageFix"/>
<feColorMatrix in="SourceAlpha" type="matrix" values="0 0 0 0 0 0 0 0 0 0 0 0 0 0 0 0 0 0 127 0" result="hardAlpha"/>
<feOffset dy="4"/>
<feGaussianBlur stdDeviation="2"/>
<feComposite in2="hardAlpha" operator="out"/>
<feColorMatrix type="matrix" values="0 0 0 0 0 0 0 0 0 0 0 0 0 0 0 0 0 0 0.25 0"/>
<feBlend mode="normal" in2="BackgroundImageFix" result="effect1_dropShadow_1325_997"/>
<feBlend mode="normal" in="SourceGraphic" in2="effect1_dropShadow_1325_997" result="shape"/>
</filter>
<filter id="filter3_d_1325_997" x="63" y="45" width="18" height="18" filterUnits="userSpaceOnUse" color-interpolation-filters="sRGB">
<feFlood flood-opacity="0" result="BackgroundImageFix"/>
<feColorMatrix in="SourceAlpha" type="matrix" values="0 0 0 0 0 0 0 0 0 0 0 0 0 0 0 0 0 0 127 0" result="hardAlpha"/>
<feOffset dy="4"/>
<feGaussianBlur stdDeviation="2"/>
<feComposite in2="hardAlpha" operator="out"/>
<feColorMatrix type="matrix" values="0 0 0 0 0 0 0 0 0 0 0 0 0 0 0 0 0 0 0.25 0"/>
<feBlend mode="normal" in2="BackgroundImageFix" result="effect1_dropShadow_1325_997"/>
<feBlend mode="normal" in="SourceGraphic" in2="effect1_dropShadow_1325_997" result="shape"/>
</filter>
<filter id="filter4_d_1325_997" x="7" y="42" width="18" height="18" filterUnits="userSpaceOnUse" color-interpolation-filters="sRGB">
<feFlood flood-opacity="0" result="BackgroundImageFix"/>
<feColorMatrix in="SourceAlpha" type="matrix" values="0 0 0 0 0 0 0 0 0 0 0 0 0 0 0 0 0 0 127 0" result="hardAlpha"/>
<feOffset dy="4"/>
<feGaussianBlur stdDeviation="2"/>
<feComposite in2="hardAlpha" operator="out"/>
<feColorMatrix type="matrix" values="0 0 0 0 0 0 0 0 0 0 0 0 0 0 0 0 0 0 0.25 0"/>
<feBlend mode="normal" in2="BackgroundImageFix" result="effect1_dropShadow_1325_997"/>
<feBlend mode="normal" in="SourceGraphic" in2="effect1_dropShadow_1325_997" result="shape"/>
</filter>
<filter id="filter5_d_1325_997" x="1" y="65" width="23" height="23" filterUnits="userSpaceOnUse" color-interpolation-filters="sRGB">
<feFlood flood-opacity="0" result="BackgroundImageFix"/>
<feColorMatrix in="SourceAlpha" type="matrix" values="0 0 0 0 0 0 0 0 0 0 0 0 0 0 0 0 0 0 127 0" result="hardAlpha"/>
<feOffset dy="4"/>
<feGaussianBlur stdDeviation="2"/>
<feComposite in2="hardAlpha" operator="out"/>
<feColorMatrix type="matrix" values="0 0 0 0 0 0 0 0 0 0 0 0 0 0 0 0 0 0 0.25 0"/>
<feBlend mode="normal" in2="BackgroundImageFix" result="effect1_dropShadow_1325_997"/>
<feBlend mode="normal" in="SourceGraphic" in2="effect1_dropShadow_1325_997" result="shape"/>
</filter>
<linearGradient id="paint0_linear_1325_997" x1="71.5" y1="3" x2="71.5" y2="24" gradientUnits="userSpaceOnUse">
<stop stop-color="#FBB03B"/>
<stop offset="1" stop-color="#F78140"/>
</linearGradient>
<linearGradient id="paint1_linear_1325_997" x1="42" y1="17" x2="42" y2="67" gradientUnits="userSpaceOnUse">
<stop stop-color="#FBB03B"/>
<stop offset="1" stop-color="#F78140"/>
</linearGradient>
<linearGradient id="paint2_linear_1325_997" x1="18.5" y1="21" x2="18.5" y2="6" gradientUnits="userSpaceOnUse">
<stop stop-color="#F78140"/>
<stop offset="1" stop-color="#FBB03B"/>
</linearGradient>
<linearGradient id="paint3_linear_1325_997" x1="72" y1="55" x2="72" y2="45" gradientUnits="userSpaceOnUse">
<stop stop-color="#F78140"/>
<stop offset="1" stop-color="#FBB03B"/>
</linearGradient>
<linearGradient id="paint4_linear_1325_997" x1="16" y1="52" x2="16" y2="42" gradientUnits="userSpaceOnUse">
<stop stop-color="#F78140"/>
<stop offset="1" stop-color="#FBB03B"/>
</linearGradient>
<linearGradient id="paint5_linear_1325_997" x1="12.5" y1="80" x2="12.5" y2="65" gradientUnits="userSpaceOnUse">
<stop stop-color="#F78140"/>
<stop offset="1" stop-color="#FBB03B"/>
</linearGradient>
<clipPath id="clip0_1325_997">
<rect width="83.75" height="83.75" fill="white"/>
</clipPath>
</defs>
</svg>
