<svg width="84" height="84" viewBox="0 0 84 84" fill="none" xmlns="http://www.w3.org/2000/svg">
<g filter="url(#filter0_d_1202_745)">
<path d="M36.4561 36.0461C36.9117 34.4256 37.8708 33.2309 39.3335 32.4619C40.7961 31.693 42.3543 31.5389 44.008 31.9997C46.1112 32.5858 47.5031 33.7003 48.1839 35.3434C48.8692 36.9703 48.9141 38.8428 48.3187 40.9607C47.4573 44.0252 45.8709 46.3428 43.5596 47.9134C41.2483 49.4839 38.5916 49.8509 35.5893 49.0143L35.4448 48.9741C34.8347 48.8041 34.4238 48.603 34.212 48.371C33.8391 47.973 33.7925 47.2766 34.0721 46.2818C34.3879 45.1587 34.8778 44.5858 35.5421 44.5633C35.8421 44.5431 36.3212 44.6247 36.9794 44.8081C37.6377 44.9915 38.3034 45.0559 38.9767 45.0013C39.666 44.9512 40.2243 44.8126 40.6517 44.5857C41.527 44.1202 42.1353 43.6496 42.4769 43.1738L42.692 42.8704C42.0052 42.9732 41.3648 42.9418 40.7708 42.7763C39.1974 42.3378 37.9873 41.4383 37.1406 40.0778C36.3144 38.7057 36.0863 37.3618 36.4561 36.0461ZM42.9947 35.9736C41.7585 35.6291 40.9893 35.9944 40.6871 37.0694C40.5833 37.4384 40.6228 37.8214 40.8056 38.2183C41.0043 38.6197 41.4168 38.9077 42.043 39.0822C42.6691 39.2566 43.1833 39.2442 43.5856 39.0449C44.0085 38.834 44.2605 38.5841 44.3417 38.2953C44.4274 37.9905 44.4687 37.7511 44.4656 37.5773C44.4831 37.3918 44.4547 37.1849 44.3804 36.9566C44.2433 36.5205 43.7814 36.1928 42.9947 35.9736Z" fill="url(#paint0_linear_1202_745)"/>
</g>
<g filter="url(#filter1_d_1202_745)">
<path d="M62.4249 17.9728L37.4272 11.2336C35.3136 10.6638 32.4772 11.3885 32.0105 13.1198L19.0276 61.2772C18.4668 63.357 20.4622 65.7521 22.5758 66.3219L47.5734 73.0612C49.687 73.631 52.2674 72.4694 52.8281 70.3896L65.7186 22.5751C66.2721 20.4993 64.5385 18.5426 62.4249 17.9728ZM45.9053 17.6074L51.8919 19.2214L51.5176 20.6098L45.531 18.9959L45.9053 17.6074ZM35.4582 67.5639C34.0473 67.1835 32.9224 65.7648 33.3891 64.0334C33.7634 62.645 35.193 61.547 36.9525 62.0214C38.3634 62.4018 39.4883 63.8205 39.0216 65.5519C38.5548 67.2832 37.2177 68.0383 35.4582 67.5639ZM50.5433 63.4543L24.8373 56.5242L34.6438 20.149L60.3441 27.0776L50.5376 63.4528L50.5433 63.4543Z" fill="url(#paint1_linear_1202_745)"/>
</g>
<defs>
<filter id="filter0_d_1202_745" x="29.0122" y="30.3423" width="25.3296" height="29.3765" filterUnits="userSpaceOnUse" color-interpolation-filters="sRGB">
<feFlood flood-opacity="0" result="BackgroundImageFix"/>
<feColorMatrix in="SourceAlpha" type="matrix" values="0 0 0 0 0 0 0 0 0 0 0 0 0 0 0 0 0 0 127 0" result="hardAlpha"/>
<feOffset dy="4"/>
<feGaussianBlur stdDeviation="2"/>
<feComposite in2="hardAlpha" operator="out"/>
<feColorMatrix type="matrix" values="0 0 0 0 0 0 0 0 0 0 0 0 0 0 0 0 0 0 0.25 0"/>
<feBlend mode="normal" in2="BackgroundImageFix" result="effect1_dropShadow_1202_745"/>
<feBlend mode="normal" in="SourceGraphic" in2="effect1_dropShadow_1202_745" result="shape"/>
</filter>
<filter id="filter1_d_1202_745" x="14.9316" y="11.0422" width="54.8911" height="70.1633" filterUnits="userSpaceOnUse" color-interpolation-filters="sRGB">
<feFlood flood-opacity="0" result="BackgroundImageFix"/>
<feColorMatrix in="SourceAlpha" type="matrix" values="0 0 0 0 0 0 0 0 0 0 0 0 0 0 0 0 0 0 127 0" result="hardAlpha"/>
<feOffset dy="4"/>
<feGaussianBlur stdDeviation="2"/>
<feComposite in2="hardAlpha" operator="out"/>
<feColorMatrix type="matrix" values="0 0 0 0 0 0 0 0 0 0 0 0 0 0 0 0 0 0 0.25 0"/>
<feBlend mode="normal" in2="BackgroundImageFix" result="effect1_dropShadow_1202_745"/>
<feBlend mode="normal" in="SourceGraphic" in2="effect1_dropShadow_1202_745" result="shape"/>
</filter>
<linearGradient id="paint0_linear_1202_745" x1="45.8143" y1="26.9233" x2="37.9661" y2="55.0881" gradientUnits="userSpaceOnUse">
<stop stop-color="white"/>
<stop offset="1" stop-color="#BFBFBF"/>
</linearGradient>
<linearGradient id="paint1_linear_1202_745" x1="49.7518" y1="14.5562" x2="34.9004" y2="69.6446" gradientUnits="userSpaceOnUse">
<stop stop-color="white"/>
<stop offset="1" stop-color="#BFBFBF"/>
</linearGradient>
</defs>
</svg>
