<svg width="84" height="84" viewBox="0 0 84 84" fill="none" xmlns="http://www.w3.org/2000/svg">
<g clip-path="url(#clip0_1340_1189)">
<g filter="url(#filter0_d_1340_1189)">
<path d="M63.6793 39.6495H45.3445V33.4768H48.2067C53.2116 33.4768 57.2842 29.919 57.2842 25.5466V18.4738C57.2842 16.8592 55.7958 15.5589 53.9476 15.5589C52.0994 15.5589 50.611 16.8592 50.611 18.4738V25.5466C50.611 26.704 49.5316 27.6471 48.2067 27.6471H45.3445V11.3295C45.3445 9.71484 43.8561 8.41457 42.0079 8.41457C40.1597 8.41457 38.6713 9.71484 38.6713 11.3295V18.7881H38.426C36.1689 18.7881 34.3371 17.1878 34.3371 15.216V9.91488C34.3371 8.30027 32.8487 7 31.0005 7C29.1523 7 27.6639 8.30027 27.6639 9.91488V15.216C27.6639 20.4027 32.4889 24.6179 38.426 24.6179H38.6713V39.6352H20.3366C18.4884 39.6352 17 40.9355 17 42.5501V54.4811C17 56.0957 18.4884 57.396 20.3366 57.396H21.6614L27.4186 74.8853C27.8275 76.1284 29.136 77 30.6243 77H53.3751C54.8635 77 56.172 76.1427 56.5809 74.8853L62.3381 57.396H63.6629C65.5111 57.396 66.9995 56.0957 66.9995 54.4811V42.5501C67.0322 40.9641 65.5275 39.6495 63.6793 39.6495ZM23.6731 45.4793H60.3427V51.5805H23.6731V45.4793ZM50.8727 71.1845H33.1431L28.6126 57.4246H55.4033L50.8727 71.1845Z" fill="url(#paint0_linear_1340_1189)"/>
</g>
<g filter="url(#filter1_d_1340_1189)">
<path d="M13.2497 13.1628C13.1812 13.2584 12.9765 13.8322 12.826 14.4324C11.9787 17.5319 10.7084 18.8022 7.55237 19.7581C5.57101 20.3591 5.50325 20.7141 7.2521 21.1781C8.7827 21.588 10.2035 22.298 10.968 23.0351C11.7198 23.7722 12.4708 25.2606 12.8945 26.8588C13.1135 27.7328 13.2361 27.9652 13.4544 27.9923C13.8231 28.0472 13.9601 27.8283 14.2332 26.7362C14.5613 25.3982 15.2717 23.9233 15.9407 23.1998C16.6511 22.4349 17.9898 21.7249 19.5746 21.2608C20.9134 20.8787 21.0639 20.7967 20.9818 20.4275C20.9547 20.25 20.6131 20.086 19.6702 19.813C16.4735 18.8842 15.1754 17.601 14.2596 14.4738C14.082 13.8044 13.8773 13.2177 13.836 13.1357C13.714 12.944 13.4273 12.9575 13.2497 13.1628Z" fill="url(#paint1_linear_1340_1189)"/>
</g>
<g filter="url(#filter2_d_1340_1189)">
<path d="M68.2497 67.1628C68.1812 67.2584 67.9765 67.8322 67.826 68.4324C66.9787 71.5319 65.7084 72.8022 62.5524 73.7581C60.571 74.3591 60.5033 74.7141 62.2521 75.1781C63.7827 75.588 65.2035 76.298 65.968 77.0351C66.7198 77.7722 67.4708 79.2606 67.8945 80.8588C68.1135 81.7328 68.2361 81.9652 68.4544 81.9923C68.8231 82.0472 68.9601 81.8283 69.2332 80.7362C69.5613 79.3982 70.2717 77.9233 70.9407 77.1998C71.6511 76.4349 72.9898 75.7249 74.5746 75.2608C75.9134 74.8787 76.0639 74.7967 75.9818 74.4275C75.9547 74.25 75.6131 74.086 74.6702 73.813C71.4735 72.8842 70.1754 71.601 69.2596 68.4738C69.082 67.8044 68.8773 67.2177 68.836 67.1357C68.714 66.944 68.4273 66.9575 68.2497 67.1628Z" fill="url(#paint2_linear_1340_1189)"/>
</g>
<g filter="url(#filter3_d_1340_1189)">
<path d="M25.8331 26.1086C25.7875 26.1722 25.651 26.5548 25.5507 26.9549C24.9858 29.0213 24.139 29.8681 22.0349 30.5054C20.714 30.906 20.6688 31.1427 21.8347 31.4521C22.8551 31.7253 23.8023 32.1987 24.312 32.6901C24.8132 33.1815 25.3139 34.1737 25.5963 35.2392C25.7423 35.8219 25.8241 35.9768 25.9696 35.9948C26.2154 36.0314 26.3067 35.8855 26.4888 35.1575C26.7075 34.2655 27.1811 33.2822 27.6271 32.7998C28.1007 32.2899 28.9932 31.8166 30.0498 31.5072C30.9422 31.2525 31.0426 31.1978 30.9879 30.9517C30.9698 30.8333 30.7421 30.724 30.1135 30.542C27.9823 29.9228 27.1169 29.0674 26.5064 26.9825C26.388 26.5363 26.2515 26.1451 26.224 26.0905C26.1427 25.9627 25.9515 25.9717 25.8331 26.1086Z" fill="url(#paint3_linear_1340_1189)"/>
</g>
<g filter="url(#filter4_d_1340_1189)">
<path d="M66.8331 13.1086C66.7875 13.1722 66.651 13.5548 66.5507 13.9549C65.9858 16.0213 65.139 16.8681 63.0349 17.5054C61.714 17.906 61.6688 18.1427 62.8347 18.4521C63.8551 18.7253 64.8023 19.1987 65.312 19.6901C65.8132 20.1815 66.3139 21.1737 66.5963 22.2392C66.7423 22.8219 66.8241 22.9768 66.9696 22.9948C67.2154 23.0314 67.3067 22.8855 67.4888 22.1575C67.7075 21.2655 68.1811 20.2822 68.6271 19.7998C69.1007 19.2899 69.9932 18.8166 71.0498 18.5072C71.9422 18.2525 72.0426 18.1978 71.9879 17.9517C71.9698 17.8333 71.7421 17.724 71.1135 17.542C68.9823 16.9228 68.1169 16.0674 67.5064 13.9825C67.388 13.5363 67.2515 13.1451 67.224 13.0905C67.1427 12.9627 66.9515 12.9717 66.8331 13.1086Z" fill="url(#paint4_linear_1340_1189)"/>
</g>
<g filter="url(#filter5_d_1340_1189)">
<path d="M15.8331 67.1086C15.7875 67.1722 15.651 67.5548 15.5507 67.9549C14.9858 70.0213 14.139 70.8681 12.0349 71.5054C10.714 71.906 10.6688 72.1427 11.8347 72.4521C12.8551 72.7253 13.8023 73.1987 14.312 73.6901C14.8132 74.1815 15.3139 75.1737 15.5963 76.2392C15.7423 76.8219 15.8241 76.9768 15.9696 76.9948C16.2154 77.0314 16.3067 76.8855 16.4888 76.1575C16.7075 75.2655 17.1811 74.2822 17.6271 73.7998C18.1007 73.2899 18.9932 72.8166 20.0498 72.5072C20.9422 72.2525 21.0426 72.1978 20.9879 71.9517C20.9698 71.8333 20.7421 71.724 20.1135 71.542C17.9823 70.9228 17.1169 70.0674 16.5064 67.9825C16.388 67.5363 16.2515 67.1451 16.224 67.0905C16.1427 66.9627 15.9515 66.9717 15.8331 67.1086Z" fill="url(#paint5_linear_1340_1189)"/>
</g>
</g>
<defs>
<filter id="filter0_d_1340_1189" x="13" y="7" width="58" height="78" filterUnits="userSpaceOnUse" color-interpolation-filters="sRGB">
<feFlood flood-opacity="0" result="BackgroundImageFix"/>
<feColorMatrix in="SourceAlpha" type="matrix" values="0 0 0 0 0 0 0 0 0 0 0 0 0 0 0 0 0 0 127 0" result="hardAlpha"/>
<feOffset dy="4"/>
<feGaussianBlur stdDeviation="2"/>
<feComposite in2="hardAlpha" operator="out"/>
<feColorMatrix type="matrix" values="0 0 0 0 0 0 0 0 0 0 0 0 0 0 0 0 0 0 0.25 0"/>
<feBlend mode="normal" in2="BackgroundImageFix" result="effect1_dropShadow_1340_1189"/>
<feBlend mode="normal" in="SourceGraphic" in2="effect1_dropShadow_1340_1189" result="shape"/>
</filter>
<filter id="filter1_d_1340_1189" x="2" y="13" width="23" height="23" filterUnits="userSpaceOnUse" color-interpolation-filters="sRGB">
<feFlood flood-opacity="0" result="BackgroundImageFix"/>
<feColorMatrix in="SourceAlpha" type="matrix" values="0 0 0 0 0 0 0 0 0 0 0 0 0 0 0 0 0 0 127 0" result="hardAlpha"/>
<feOffset dy="4"/>
<feGaussianBlur stdDeviation="2"/>
<feComposite in2="hardAlpha" operator="out"/>
<feColorMatrix type="matrix" values="0 0 0 0 0 0 0 0 0 0 0 0 0 0 0 0 0 0 0.25 0"/>
<feBlend mode="normal" in2="BackgroundImageFix" result="effect1_dropShadow_1340_1189"/>
<feBlend mode="normal" in="SourceGraphic" in2="effect1_dropShadow_1340_1189" result="shape"/>
</filter>
<filter id="filter2_d_1340_1189" x="57" y="67" width="23" height="23" filterUnits="userSpaceOnUse" color-interpolation-filters="sRGB">
<feFlood flood-opacity="0" result="BackgroundImageFix"/>
<feColorMatrix in="SourceAlpha" type="matrix" values="0 0 0 0 0 0 0 0 0 0 0 0 0 0 0 0 0 0 127 0" result="hardAlpha"/>
<feOffset dy="4"/>
<feGaussianBlur stdDeviation="2"/>
<feComposite in2="hardAlpha" operator="out"/>
<feColorMatrix type="matrix" values="0 0 0 0 0 0 0 0 0 0 0 0 0 0 0 0 0 0 0.25 0"/>
<feBlend mode="normal" in2="BackgroundImageFix" result="effect1_dropShadow_1340_1189"/>
<feBlend mode="normal" in="SourceGraphic" in2="effect1_dropShadow_1340_1189" result="shape"/>
</filter>
<filter id="filter3_d_1340_1189" x="17" y="26" width="18" height="18" filterUnits="userSpaceOnUse" color-interpolation-filters="sRGB">
<feFlood flood-opacity="0" result="BackgroundImageFix"/>
<feColorMatrix in="SourceAlpha" type="matrix" values="0 0 0 0 0 0 0 0 0 0 0 0 0 0 0 0 0 0 127 0" result="hardAlpha"/>
<feOffset dy="4"/>
<feGaussianBlur stdDeviation="2"/>
<feComposite in2="hardAlpha" operator="out"/>
<feColorMatrix type="matrix" values="0 0 0 0 0 0 0 0 0 0 0 0 0 0 0 0 0 0 0.25 0"/>
<feBlend mode="normal" in2="BackgroundImageFix" result="effect1_dropShadow_1340_1189"/>
<feBlend mode="normal" in="SourceGraphic" in2="effect1_dropShadow_1340_1189" result="shape"/>
</filter>
<filter id="filter4_d_1340_1189" x="58" y="13" width="18" height="18" filterUnits="userSpaceOnUse" color-interpolation-filters="sRGB">
<feFlood flood-opacity="0" result="BackgroundImageFix"/>
<feColorMatrix in="SourceAlpha" type="matrix" values="0 0 0 0 0 0 0 0 0 0 0 0 0 0 0 0 0 0 127 0" result="hardAlpha"/>
<feOffset dy="4"/>
<feGaussianBlur stdDeviation="2"/>
<feComposite in2="hardAlpha" operator="out"/>
<feColorMatrix type="matrix" values="0 0 0 0 0 0 0 0 0 0 0 0 0 0 0 0 0 0 0.25 0"/>
<feBlend mode="normal" in2="BackgroundImageFix" result="effect1_dropShadow_1340_1189"/>
<feBlend mode="normal" in="SourceGraphic" in2="effect1_dropShadow_1340_1189" result="shape"/>
</filter>
<filter id="filter5_d_1340_1189" x="7" y="67" width="18" height="18" filterUnits="userSpaceOnUse" color-interpolation-filters="sRGB">
<feFlood flood-opacity="0" result="BackgroundImageFix"/>
<feColorMatrix in="SourceAlpha" type="matrix" values="0 0 0 0 0 0 0 0 0 0 0 0 0 0 0 0 0 0 127 0" result="hardAlpha"/>
<feOffset dy="4"/>
<feGaussianBlur stdDeviation="2"/>
<feComposite in2="hardAlpha" operator="out"/>
<feColorMatrix type="matrix" values="0 0 0 0 0 0 0 0 0 0 0 0 0 0 0 0 0 0 0.25 0"/>
<feBlend mode="normal" in2="BackgroundImageFix" result="effect1_dropShadow_1340_1189"/>
<feBlend mode="normal" in="SourceGraphic" in2="effect1_dropShadow_1340_1189" result="shape"/>
</filter>
<linearGradient id="paint0_linear_1340_1189" x1="42" y1="7" x2="42" y2="77" gradientUnits="userSpaceOnUse">
<stop stop-color="#FBB03B"/>
<stop offset="1" stop-color="#F78140"/>
</linearGradient>
<linearGradient id="paint1_linear_1340_1189" x1="13.5" y1="28" x2="13.5" y2="13" gradientUnits="userSpaceOnUse">
<stop stop-color="#F78140"/>
<stop offset="1" stop-color="#FBB03B"/>
</linearGradient>
<linearGradient id="paint2_linear_1340_1189" x1="68.5" y1="82" x2="68.5" y2="67" gradientUnits="userSpaceOnUse">
<stop stop-color="#F78140"/>
<stop offset="1" stop-color="#FBB03B"/>
</linearGradient>
<linearGradient id="paint3_linear_1340_1189" x1="26" y1="36" x2="26" y2="26" gradientUnits="userSpaceOnUse">
<stop stop-color="#F78140"/>
<stop offset="1" stop-color="#FBB03B"/>
</linearGradient>
<linearGradient id="paint4_linear_1340_1189" x1="67" y1="23" x2="67" y2="13" gradientUnits="userSpaceOnUse">
<stop stop-color="#F78140"/>
<stop offset="1" stop-color="#FBB03B"/>
</linearGradient>
<linearGradient id="paint5_linear_1340_1189" x1="16" y1="77" x2="16" y2="67" gradientUnits="userSpaceOnUse">
<stop stop-color="#F78140"/>
<stop offset="1" stop-color="#FBB03B"/>
</linearGradient>
<clipPath id="clip0_1340_1189">
<rect width="83.75" height="83.75" fill="white"/>
</clipPath>
</defs>
</svg>
