<svg width="84" height="84" viewBox="0 0 84 84" fill="none" xmlns="http://www.w3.org/2000/svg">
<g filter="url(#filter0_d_257_181)">
<path d="M60.7739 9V11.4298L52.3951 13.3407L52.3716 18.4937L57.3348 19.6616L52.3951 20.7883L52.3716 25.9415L57.335 27.1093L52.3951 28.2357L52.3716 33.3888L60.7739 35.3662V74.4885H67.9999V9H60.7739Z" fill="url(#paint0_linear_257_181)"/>
<path d="M16.4817 63.1257H22.6411V74.557H37.4369V63.1257H43.6653L44.1469 19.4729H16L16.4817 63.1257ZM33.1509 24.7633H37.28V56.9001V57.3234H33.1509V56.9001V25.6985V24.7633Z" fill="url(#paint1_linear_257_181)"/>
<path d="M44.1124 9.39551H16.0344V15.6211H44.1124V9.39551Z" fill="url(#paint2_linear_257_181)"/>
</g>
<defs>
<filter id="filter0_d_257_181" x="12" y="9" width="59.9998" height="73.5569" filterUnits="userSpaceOnUse" color-interpolation-filters="sRGB">
<feFlood flood-opacity="0" result="BackgroundImageFix"/>
<feColorMatrix in="SourceAlpha" type="matrix" values="0 0 0 0 0 0 0 0 0 0 0 0 0 0 0 0 0 0 127 0" result="hardAlpha"/>
<feOffset dy="4"/>
<feGaussianBlur stdDeviation="2"/>
<feComposite in2="hardAlpha" operator="out"/>
<feColorMatrix type="matrix" values="0 0 0 0 0 0 0 0 0 0 0 0 0 0 0 0 0 0 0.25 0"/>
<feBlend mode="normal" in2="BackgroundImageFix" result="effect1_dropShadow_257_181"/>
<feBlend mode="normal" in="SourceGraphic" in2="effect1_dropShadow_257_181" result="shape"/>
</filter>
<linearGradient id="paint0_linear_257_181" x1="60.1857" y1="9" x2="60.1857" y2="74.4885" gradientUnits="userSpaceOnUse">
<stop stop-color="white"/>
<stop offset="1" stop-color="#BFBFBF"/>
</linearGradient>
<linearGradient id="paint1_linear_257_181" x1="30.0735" y1="19.4729" x2="30.0735" y2="74.557" gradientUnits="userSpaceOnUse">
<stop stop-color="white"/>
<stop offset="1" stop-color="#BFBFBF"/>
</linearGradient>
<linearGradient id="paint2_linear_257_181" x1="30.0734" y1="9.39551" x2="30.0734" y2="15.6211" gradientUnits="userSpaceOnUse">
<stop stop-color="white"/>
<stop offset="1" stop-color="#BFBFBF"/>
</linearGradient>
</defs>
</svg>
