<svg width="84" height="84" viewBox="0 0 84 84" fill="none" xmlns="http://www.w3.org/2000/svg">
<g clip-path="url(#clip0_1332_1113)">
<g filter="url(#filter0_d_1332_1113)">
<path d="M70.9989 17.8605C73.6832 17.8605 75.8592 15.6845 75.8592 13.0003C75.8592 10.3161 73.6832 8.14014 70.9989 8.14014C68.3147 8.14014 66.1387 10.3161 66.1387 13.0003C66.1387 15.6845 68.3147 17.8605 70.9989 17.8605Z" fill="url(#paint0_linear_1332_1113)"/>
<path d="M71.0007 18.655C67.8825 18.655 65.3457 16.1182 65.3457 13.0001C65.3457 9.88194 67.8825 7.34521 71.0007 7.34521C74.1188 7.34521 76.6556 9.88194 76.6556 13.0001C76.6556 16.1182 74.1188 18.655 71.0007 18.655ZM71.0007 8.9346C68.758 8.9346 66.9351 10.7574 66.9351 13.0001C66.9351 15.2427 68.758 17.0656 71.0007 17.0656C73.2433 17.0656 75.0662 15.2427 75.0662 13.0001C75.0662 10.7574 73.2433 8.9346 71.0007 8.9346Z" fill="url(#paint1_linear_1332_1113)"/>
<path d="M70.9998 6.17325C70.5598 6.17325 70.2051 5.81856 70.2051 5.37856V2.79469C70.2051 2.35694 70.5598 2 70.9998 2C71.4375 2 71.7945 2.35469 71.7945 2.79469V5.37856C71.7945 5.81631 71.4375 6.17325 70.9998 6.17325Z" fill="url(#paint2_linear_1332_1113)"/>
<path d="M70.9998 23.9999C70.5598 23.9999 70.2051 23.6452 70.2051 23.2052V20.6214C70.2051 20.1836 70.5598 19.8267 70.9998 19.8267C71.4375 19.8267 71.7945 20.1836 71.7945 20.6214V23.2052C71.7945 23.6452 71.4375 23.9999 70.9998 23.9999Z" fill="url(#paint3_linear_1332_1113)"/>
<path d="M81.2048 13.7945H78.6209C78.1831 13.7945 77.8262 13.4398 77.8262 12.9998C77.8262 12.5598 78.1831 12.2051 78.6209 12.2051H81.2048C81.6425 12.2051 81.9995 12.5598 81.9995 12.9998C81.9995 13.4375 81.6448 13.7945 81.2048 13.7945Z" fill="url(#paint4_linear_1332_1113)"/>
<path d="M63.3786 13.7945H60.7947C60.3569 13.7945 60 13.4375 60 12.9998C60 12.5598 60.3569 12.2051 60.7947 12.2051H63.3786C63.8186 12.2051 64.1733 12.5598 64.1733 12.9998C64.1733 13.4375 63.8164 13.7945 63.3786 13.7945Z" fill="url(#paint5_linear_1332_1113)"/>
<path d="M76.3912 8.40466C76.1869 8.40466 75.9849 8.32609 75.83 8.17119C75.5202 7.8614 75.5202 7.35854 75.83 7.0465L77.6574 5.21916C77.9672 4.90937 78.47 4.90937 78.7821 5.21916C79.0919 5.52896 79.0919 6.03181 78.7821 6.34385L76.9525 8.17344C76.7976 8.32834 76.5933 8.40466 76.3912 8.40466Z" fill="url(#paint6_linear_1332_1113)"/>
<path d="M63.7838 21.0121C63.5795 21.0121 63.3775 20.9335 63.2226 20.7786C62.9128 20.4688 62.9128 19.966 63.2226 19.6539L65.0499 17.8266C65.3597 17.5168 65.8626 17.5168 66.1747 17.8266C66.4845 18.1364 66.4845 18.6392 66.1747 18.9513L64.3473 20.7786C64.1924 20.9335 63.9881 21.0121 63.7838 21.0121Z" fill="url(#paint7_linear_1332_1113)"/>
<path d="M78.2147 21.0121C78.0104 21.0121 77.8084 20.9335 77.6535 20.7786L75.8261 18.9513C75.5163 18.6415 75.5163 18.1386 75.8261 17.8266C76.1359 17.5168 76.6388 17.5168 76.9508 17.8266L78.7782 19.6539C79.088 19.9637 79.088 20.4666 78.7782 20.7786C78.6233 20.9335 78.419 21.0121 78.2147 21.0121Z" fill="url(#paint8_linear_1332_1113)"/>
<path d="M65.6112 8.40466C65.4069 8.40466 65.2048 8.32609 65.0499 8.17119L63.2226 6.34385C62.9128 6.03406 62.9128 5.5312 63.2226 5.21916C63.5324 4.90937 64.0352 4.90937 64.3473 5.21916L66.1747 7.0465C66.4845 7.3563 66.4845 7.85915 66.1747 8.17119C66.0198 8.32834 65.8155 8.40466 65.6112 8.40466Z" fill="url(#paint9_linear_1332_1113)"/>
</g>
<g filter="url(#filter1_d_1332_1113)">
<path d="M40.495 14.5186L39.0179 17.0292V22.3761L38.2108 25.0138C37.4843 27.3972 35.9346 32.1086 35.7328 32.5614C35.6602 32.7283 36.4592 32.7521 42.0448 32.7521C48.0742 32.7521 48.4375 32.7521 48.3325 32.5296C48.1307 32.0768 46.5971 27.4052 45.8626 24.9662L45.0555 22.3761V17.0292L43.5784 14.5186C42.7712 13.1282 42.0609 12 42.0206 12C41.9802 12 41.3183 13.1282 40.495 14.5186Z" fill="url(#paint10_linear_1332_1113)"/>
<path d="M29.7676 38.0278V40.6099H31.2286C32.6572 40.6099 32.6734 40.6098 32.5846 40.88C32.3828 41.4202 30.3407 46.0839 29.7918 47.2756L29.2188 48.4674H32.9155H36.6204L37.7585 44.5664L38.9046 40.6734H45.2085L46.3547 44.5664L47.4928 48.4674H51.1976H54.8863L54.3213 47.2756C53.7725 46.0998 51.7304 41.4282 51.5286 40.88C51.4479 40.6098 51.4559 40.6099 52.8927 40.6099H54.3536V35.4536H29.7676V38.0278Z" fill="url(#paint11_linear_1332_1113)"/>
<path d="M17.4665 53.7505V56.3246H21.2036C23.278 56.3246 24.965 56.3246 24.965 56.3961C24.965 56.4676 22.0915 61.2981 21.1229 62.752C20.5821 63.5465 19.4682 65.1991 18.6288 66.375C17.3292 68.2102 17.1032 68.6234 17.0145 69.1557C16.9547 69.6963 17.0814 70.241 17.3742 70.7021C17.667 71.1632 18.1089 71.514 18.6288 71.698C19.2099 71.9523 19.3794 71.9681 24.3677 71.9999H29.5092L29.6787 70.3554C29.7783 68.6582 30.2638 67.0046 31.0993 65.5169C31.6943 64.4456 32.5425 63.5311 33.5723 62.8508C34.6021 62.1704 35.7832 61.7442 37.0158 61.608C40.3258 61.3617 43.65 61.3617 46.96 61.608C51.4478 62.2833 53.9015 65.366 54.3858 70.8559L54.4665 71.9999H59.6323C64.6206 71.9999 64.7981 71.9523 65.3712 71.698C65.8911 71.514 66.333 71.1632 66.6258 70.7021C66.9186 70.241 67.0453 69.6963 66.9855 69.1557C66.929 68.6234 66.695 68.2102 65.3712 66.375C64.5641 65.1991 63.3453 63.483 62.756 62.5455C61.7067 60.9565 59.035 56.5073 59.035 56.3722C59.035 56.2372 60.7301 56.3087 62.7964 56.3087H66.5578V51.1445H17.4665V53.7505Z" fill="url(#paint12_linear_1332_1113)"/>
</g>
<g filter="url(#filter2_d_1332_1113)">
<path d="M16.2497 9.16283C16.1812 9.25835 15.9765 9.8322 15.826 10.4324C14.9787 13.5319 13.7084 14.8022 10.5524 15.7581C8.57101 16.3591 8.50325 16.7141 10.2521 17.1781C11.7827 17.588 13.2035 18.298 13.968 19.0351C14.7198 19.7722 15.4708 21.2606 15.8945 22.8588C16.1135 23.7328 16.2361 23.9652 16.4544 23.9923C16.8231 24.0472 16.9601 23.8283 17.2332 22.7362C17.5613 21.3982 18.2717 19.9233 18.9407 19.1998C19.6511 18.4349 20.9898 17.7249 22.5746 17.2608C23.9134 16.8787 24.0639 16.7967 23.9818 16.4275C23.9547 16.25 23.6131 16.086 22.6702 15.813C19.4735 14.8842 18.1754 13.601 17.2596 10.4738C17.082 9.8044 16.8773 9.21772 16.836 9.13574C16.714 8.94399 16.4273 8.95753 16.2497 9.16283Z" fill="url(#paint13_linear_1332_1113)"/>
</g>
<g filter="url(#filter3_d_1332_1113)">
<path d="M72.2497 35.1628C72.1812 35.2584 71.9765 35.8322 71.826 36.4324C70.9787 39.5319 69.7084 40.8022 66.5524 41.7581C64.571 42.3591 64.5033 42.7141 66.2521 43.1781C67.7827 43.588 69.2035 44.298 69.968 45.0351C70.7198 45.7722 71.4708 47.2606 71.8945 48.8588C72.1135 49.7328 72.2361 49.9652 72.4544 49.9923C72.8231 50.0472 72.9601 49.8283 73.2332 48.7362C73.5613 47.3982 74.2717 45.9233 74.9407 45.1998C75.6511 44.4349 76.9898 43.7249 78.5746 43.2608C79.9134 42.8787 80.0639 42.7967 79.9818 42.4275C79.9547 42.25 79.6131 42.086 78.6702 41.813C75.4735 40.8842 74.1754 39.601 73.2596 36.4738C73.082 35.8044 72.8773 35.2177 72.836 35.1357C72.714 34.944 72.4273 34.9575 72.2497 35.1628Z" fill="url(#paint14_linear_1332_1113)"/>
</g>
<g filter="url(#filter4_d_1332_1113)">
<path d="M21.8331 23.1086C21.7875 23.1722 21.651 23.5548 21.5507 23.9549C20.9858 26.0213 20.139 26.8681 18.0349 27.5054C16.714 27.906 16.6688 28.1427 17.8347 28.4521C18.8551 28.7253 19.8023 29.1987 20.312 29.6901C20.8132 30.1815 21.3139 31.1737 21.5963 32.2392C21.7423 32.8219 21.8241 32.9768 21.9696 32.9948C22.2154 33.0314 22.3067 32.8855 22.4888 32.1575C22.7075 31.2655 23.1811 30.2822 23.6271 29.7998C24.1007 29.2899 24.9932 28.8166 26.0498 28.5072C26.9422 28.2525 27.0426 28.1978 26.9879 27.9517C26.9698 27.8333 26.7421 27.724 26.1135 27.542C23.9823 26.9228 23.1169 26.0674 22.5064 23.9825C22.388 23.5363 22.2515 23.1451 22.224 23.0905C22.1427 22.9627 21.9515 22.9717 21.8331 23.1086Z" fill="url(#paint15_linear_1332_1113)"/>
</g>
<g filter="url(#filter5_d_1332_1113)">
<path d="M49.8331 70.1086C49.7875 70.1722 49.651 70.5548 49.5507 70.9549C48.9858 73.0213 48.139 73.8681 46.0349 74.5054C44.714 74.906 44.6688 75.1427 45.8347 75.4521C46.8551 75.7253 47.8023 76.1987 48.312 76.6901C48.8132 77.1815 49.3139 78.1737 49.5963 79.2392C49.7423 79.8219 49.8241 79.9768 49.9696 79.9948C50.2154 80.0314 50.3067 79.8855 50.4888 79.1575C50.7075 78.2655 51.1811 77.2822 51.6271 76.7998C52.1007 76.2899 52.9932 75.8166 54.0498 75.5072C54.9422 75.2525 55.0426 75.1978 54.9879 74.9517C54.9698 74.8333 54.7421 74.724 54.1135 74.542C51.9823 73.9228 51.1169 73.0674 50.5064 70.9825C50.388 70.5363 50.2515 70.1451 50.224 70.0905C50.1427 69.9627 49.9515 69.9717 49.8331 70.1086Z" fill="url(#paint16_linear_1332_1113)"/>
</g>
<g filter="url(#filter6_d_1332_1113)">
<path d="M63.8331 30.1086C63.7875 30.1722 63.651 30.5548 63.5507 30.9549C62.9858 33.0213 62.139 33.8681 60.0349 34.5054C58.714 34.906 58.6688 35.1427 59.8347 35.4521C60.8551 35.7253 61.8023 36.1987 62.312 36.6901C62.8132 37.1815 63.3139 38.1737 63.5963 39.2392C63.7423 39.8219 63.8241 39.9768 63.9696 39.9948C64.2154 40.0314 64.3067 39.8855 64.4888 39.1575C64.7075 38.2655 65.1811 37.2822 65.6271 36.7998C66.1007 36.2899 66.9932 35.8166 68.0498 35.5072C68.9422 35.2525 69.0426 35.1978 68.9879 34.9517C68.9698 34.8333 68.7421 34.724 68.1135 34.542C65.9823 33.9228 65.1169 33.0674 64.5064 30.9825C64.388 30.5363 64.2515 30.1451 64.224 30.0905C64.1427 29.9627 63.9515 29.9717 63.8331 30.1086Z" fill="url(#paint17_linear_1332_1113)"/>
</g>
</g>
<defs>
<filter id="filter0_d_1332_1113" x="56" y="2" width="30" height="30" filterUnits="userSpaceOnUse" color-interpolation-filters="sRGB">
<feFlood flood-opacity="0" result="BackgroundImageFix"/>
<feColorMatrix in="SourceAlpha" type="matrix" values="0 0 0 0 0 0 0 0 0 0 0 0 0 0 0 0 0 0 127 0" result="hardAlpha"/>
<feOffset dy="4"/>
<feGaussianBlur stdDeviation="2"/>
<feComposite in2="hardAlpha" operator="out"/>
<feColorMatrix type="matrix" values="0 0 0 0 0 0 0 0 0 0 0 0 0 0 0 0 0 0 0.25 0"/>
<feBlend mode="normal" in2="BackgroundImageFix" result="effect1_dropShadow_1332_1113"/>
<feBlend mode="normal" in="SourceGraphic" in2="effect1_dropShadow_1332_1113" result="shape"/>
</filter>
<filter id="filter1_d_1332_1113" x="13" y="12" width="58" height="68" filterUnits="userSpaceOnUse" color-interpolation-filters="sRGB">
<feFlood flood-opacity="0" result="BackgroundImageFix"/>
<feColorMatrix in="SourceAlpha" type="matrix" values="0 0 0 0 0 0 0 0 0 0 0 0 0 0 0 0 0 0 127 0" result="hardAlpha"/>
<feOffset dy="4"/>
<feGaussianBlur stdDeviation="2"/>
<feComposite in2="hardAlpha" operator="out"/>
<feColorMatrix type="matrix" values="0 0 0 0 0 0 0 0 0 0 0 0 0 0 0 0 0 0 0.25 0"/>
<feBlend mode="normal" in2="BackgroundImageFix" result="effect1_dropShadow_1332_1113"/>
<feBlend mode="normal" in="SourceGraphic" in2="effect1_dropShadow_1332_1113" result="shape"/>
</filter>
<filter id="filter2_d_1332_1113" x="5" y="9" width="23" height="23" filterUnits="userSpaceOnUse" color-interpolation-filters="sRGB">
<feFlood flood-opacity="0" result="BackgroundImageFix"/>
<feColorMatrix in="SourceAlpha" type="matrix" values="0 0 0 0 0 0 0 0 0 0 0 0 0 0 0 0 0 0 127 0" result="hardAlpha"/>
<feOffset dy="4"/>
<feGaussianBlur stdDeviation="2"/>
<feComposite in2="hardAlpha" operator="out"/>
<feColorMatrix type="matrix" values="0 0 0 0 0 0 0 0 0 0 0 0 0 0 0 0 0 0 0.25 0"/>
<feBlend mode="normal" in2="BackgroundImageFix" result="effect1_dropShadow_1332_1113"/>
<feBlend mode="normal" in="SourceGraphic" in2="effect1_dropShadow_1332_1113" result="shape"/>
</filter>
<filter id="filter3_d_1332_1113" x="61" y="35" width="23" height="23" filterUnits="userSpaceOnUse" color-interpolation-filters="sRGB">
<feFlood flood-opacity="0" result="BackgroundImageFix"/>
<feColorMatrix in="SourceAlpha" type="matrix" values="0 0 0 0 0 0 0 0 0 0 0 0 0 0 0 0 0 0 127 0" result="hardAlpha"/>
<feOffset dy="4"/>
<feGaussianBlur stdDeviation="2"/>
<feComposite in2="hardAlpha" operator="out"/>
<feColorMatrix type="matrix" values="0 0 0 0 0 0 0 0 0 0 0 0 0 0 0 0 0 0 0.25 0"/>
<feBlend mode="normal" in2="BackgroundImageFix" result="effect1_dropShadow_1332_1113"/>
<feBlend mode="normal" in="SourceGraphic" in2="effect1_dropShadow_1332_1113" result="shape"/>
</filter>
<filter id="filter4_d_1332_1113" x="13" y="23" width="18" height="18" filterUnits="userSpaceOnUse" color-interpolation-filters="sRGB">
<feFlood flood-opacity="0" result="BackgroundImageFix"/>
<feColorMatrix in="SourceAlpha" type="matrix" values="0 0 0 0 0 0 0 0 0 0 0 0 0 0 0 0 0 0 127 0" result="hardAlpha"/>
<feOffset dy="4"/>
<feGaussianBlur stdDeviation="2"/>
<feComposite in2="hardAlpha" operator="out"/>
<feColorMatrix type="matrix" values="0 0 0 0 0 0 0 0 0 0 0 0 0 0 0 0 0 0 0.25 0"/>
<feBlend mode="normal" in2="BackgroundImageFix" result="effect1_dropShadow_1332_1113"/>
<feBlend mode="normal" in="SourceGraphic" in2="effect1_dropShadow_1332_1113" result="shape"/>
</filter>
<filter id="filter5_d_1332_1113" x="41" y="70" width="18" height="18" filterUnits="userSpaceOnUse" color-interpolation-filters="sRGB">
<feFlood flood-opacity="0" result="BackgroundImageFix"/>
<feColorMatrix in="SourceAlpha" type="matrix" values="0 0 0 0 0 0 0 0 0 0 0 0 0 0 0 0 0 0 127 0" result="hardAlpha"/>
<feOffset dy="4"/>
<feGaussianBlur stdDeviation="2"/>
<feComposite in2="hardAlpha" operator="out"/>
<feColorMatrix type="matrix" values="0 0 0 0 0 0 0 0 0 0 0 0 0 0 0 0 0 0 0.25 0"/>
<feBlend mode="normal" in2="BackgroundImageFix" result="effect1_dropShadow_1332_1113"/>
<feBlend mode="normal" in="SourceGraphic" in2="effect1_dropShadow_1332_1113" result="shape"/>
</filter>
<filter id="filter6_d_1332_1113" x="55" y="30" width="18" height="18" filterUnits="userSpaceOnUse" color-interpolation-filters="sRGB">
<feFlood flood-opacity="0" result="BackgroundImageFix"/>
<feColorMatrix in="SourceAlpha" type="matrix" values="0 0 0 0 0 0 0 0 0 0 0 0 0 0 0 0 0 0 127 0" result="hardAlpha"/>
<feOffset dy="4"/>
<feGaussianBlur stdDeviation="2"/>
<feComposite in2="hardAlpha" operator="out"/>
<feColorMatrix type="matrix" values="0 0 0 0 0 0 0 0 0 0 0 0 0 0 0 0 0 0 0.25 0"/>
<feBlend mode="normal" in2="BackgroundImageFix" result="effect1_dropShadow_1332_1113"/>
<feBlend mode="normal" in="SourceGraphic" in2="effect1_dropShadow_1332_1113" result="shape"/>
</filter>
<linearGradient id="paint0_linear_1332_1113" x1="70.9989" y1="8.14014" x2="70.9989" y2="17.8605" gradientUnits="userSpaceOnUse">
<stop stop-color="#FBB03B"/>
<stop offset="1" stop-color="#F78140"/>
</linearGradient>
<linearGradient id="paint1_linear_1332_1113" x1="71.0007" y1="7.34521" x2="71.0007" y2="18.655" gradientUnits="userSpaceOnUse">
<stop stop-color="#FBB03B"/>
<stop offset="1" stop-color="#F78140"/>
</linearGradient>
<linearGradient id="paint2_linear_1332_1113" x1="70.9998" y1="2" x2="70.9998" y2="6.17325" gradientUnits="userSpaceOnUse">
<stop stop-color="#FBB03B"/>
<stop offset="1" stop-color="#F78140"/>
</linearGradient>
<linearGradient id="paint3_linear_1332_1113" x1="70.9998" y1="19.8267" x2="70.9998" y2="23.9999" gradientUnits="userSpaceOnUse">
<stop stop-color="#FBB03B"/>
<stop offset="1" stop-color="#F78140"/>
</linearGradient>
<linearGradient id="paint4_linear_1332_1113" x1="79.9128" y1="12.2051" x2="79.9128" y2="13.7945" gradientUnits="userSpaceOnUse">
<stop stop-color="#FBB03B"/>
<stop offset="1" stop-color="#F78140"/>
</linearGradient>
<linearGradient id="paint5_linear_1332_1113" x1="62.0867" y1="12.2051" x2="62.0867" y2="13.7945" gradientUnits="userSpaceOnUse">
<stop stop-color="#FBB03B"/>
<stop offset="1" stop-color="#F78140"/>
</linearGradient>
<linearGradient id="paint6_linear_1332_1113" x1="77.306" y1="4.98682" x2="77.306" y2="8.40466" gradientUnits="userSpaceOnUse">
<stop stop-color="#FBB03B"/>
<stop offset="1" stop-color="#F78140"/>
</linearGradient>
<linearGradient id="paint7_linear_1332_1113" x1="64.6986" y1="17.5942" x2="64.6986" y2="21.0121" gradientUnits="userSpaceOnUse">
<stop stop-color="#FBB03B"/>
<stop offset="1" stop-color="#F78140"/>
</linearGradient>
<linearGradient id="paint8_linear_1332_1113" x1="77.3021" y1="17.5942" x2="77.3021" y2="21.0121" gradientUnits="userSpaceOnUse">
<stop stop-color="#FBB03B"/>
<stop offset="1" stop-color="#F78140"/>
</linearGradient>
<linearGradient id="paint9_linear_1332_1113" x1="64.6986" y1="4.98682" x2="64.6986" y2="8.40466" gradientUnits="userSpaceOnUse">
<stop stop-color="#FBB03B"/>
<stop offset="1" stop-color="#F78140"/>
</linearGradient>
<linearGradient id="paint10_linear_1332_1113" x1="42.0373" y1="12" x2="42.0373" y2="32.7521" gradientUnits="userSpaceOnUse">
<stop stop-color="white"/>
<stop offset="0.0001" stop-color="#FBB03B"/>
<stop offset="1" stop-color="#F78140"/>
</linearGradient>
<linearGradient id="paint11_linear_1332_1113" x1="42.0525" y1="35.4536" x2="42.0525" y2="48.4674" gradientUnits="userSpaceOnUse">
<stop stop-color="white"/>
<stop offset="0.0001" stop-color="#FBB03B"/>
<stop offset="1" stop-color="#F78140"/>
</linearGradient>
<linearGradient id="paint12_linear_1332_1113" x1="42" y1="51.1445" x2="42" y2="71.9999" gradientUnits="userSpaceOnUse">
<stop stop-color="white"/>
<stop offset="0.0001" stop-color="#FBB03B"/>
<stop offset="1" stop-color="#F78140"/>
</linearGradient>
<linearGradient id="paint13_linear_1332_1113" x1="16.5" y1="24" x2="16.5" y2="9" gradientUnits="userSpaceOnUse">
<stop stop-color="#F78140"/>
<stop offset="1" stop-color="#FBB03B"/>
</linearGradient>
<linearGradient id="paint14_linear_1332_1113" x1="72.5" y1="50" x2="72.5" y2="35" gradientUnits="userSpaceOnUse">
<stop stop-color="#F78140"/>
<stop offset="1" stop-color="#FBB03B"/>
</linearGradient>
<linearGradient id="paint15_linear_1332_1113" x1="22" y1="33" x2="22" y2="23" gradientUnits="userSpaceOnUse">
<stop stop-color="#F78140"/>
<stop offset="1" stop-color="#FBB03B"/>
</linearGradient>
<linearGradient id="paint16_linear_1332_1113" x1="50" y1="80" x2="50" y2="70" gradientUnits="userSpaceOnUse">
<stop stop-color="#F78140"/>
<stop offset="1" stop-color="#FBB03B"/>
</linearGradient>
<linearGradient id="paint17_linear_1332_1113" x1="64" y1="40" x2="64" y2="30" gradientUnits="userSpaceOnUse">
<stop stop-color="#F78140"/>
<stop offset="1" stop-color="#FBB03B"/>
</linearGradient>
<clipPath id="clip0_1332_1113">
<rect width="83.75" height="83.75" fill="white"/>
</clipPath>
</defs>
</svg>
