<svg width="84" height="84" viewBox="0 0 84 84" fill="none" xmlns="http://www.w3.org/2000/svg">
<g filter="url(#filter0_d_390_123)">
<path d="M42 67C55.8073 67 67 55.8073 67 42C67 28.1927 55.8073 17 42 17C28.1927 17 17 28.1927 17 42C17 55.8073 28.1927 67 42 67ZM26.9595 52.2191C24.9773 49.3068 23.8182 45.7886 23.8182 42C23.8182 31.9586 31.9586 23.8182 42 23.8182C45.7886 23.8182 49.3068 24.9773 52.2191 26.9595L26.9595 52.2191ZM31.7809 57.0405L57.0405 31.7809C59.0227 34.6932 60.1818 38.2114 60.1818 42C60.1818 52.0414 52.0414 60.1818 42 60.1818C38.2114 60.1818 34.6932 59.0227 31.7809 57.0405Z" fill="url(#paint0_linear_390_123)"/>
</g>
<defs>
<filter id="filter0_d_390_123" x="13" y="17" width="58" height="58" filterUnits="userSpaceOnUse" color-interpolation-filters="sRGB">
<feFlood flood-opacity="0" result="BackgroundImageFix"/>
<feColorMatrix in="SourceAlpha" type="matrix" values="0 0 0 0 0 0 0 0 0 0 0 0 0 0 0 0 0 0 127 0" result="hardAlpha"/>
<feOffset dy="4"/>
<feGaussianBlur stdDeviation="2"/>
<feComposite in2="hardAlpha" operator="out"/>
<feColorMatrix type="matrix" values="0 0 0 0 0 0 0 0 0 0 0 0 0 0 0 0 0 0 0.25 0"/>
<feBlend mode="normal" in2="BackgroundImageFix" result="effect1_dropShadow_390_123"/>
<feBlend mode="normal" in="SourceGraphic" in2="effect1_dropShadow_390_123" result="shape"/>
</filter>
<linearGradient id="paint0_linear_390_123" x1="42" y1="17" x2="42" y2="67" gradientUnits="userSpaceOnUse">
<stop stop-color="white"/>
<stop offset="1" stop-color="#BFBFBF"/>
</linearGradient>
</defs>
</svg>
