<svg width="32" height="32" viewBox="0 0 32 32" fill="none" xmlns="http://www.w3.org/2000/svg">
<g clip-path="url(#clip0_1992_781)">
<path d="M1.22742 9.85608C1.65287 10.6753 2.50886 11.2365 3.494 11.2365H4.29703C3.69617 12.7074 3.364 14.3155 3.364 16C3.364 22.9674 9.03244 28.6359 16 28.6359C22.9675 28.6359 28.636 22.9675 28.636 16C28.636 9.03258 22.9675 3.36407 16 3.36407C13.7767 3.36407 11.6487 3.94135 9.77233 5.00868L9.76845 5.0048C9.27168 5.28669 8.79333 5.60297 8.33674 5.95181L10.4527 8.06777C10.7018 8.31683 10.7763 8.69144 10.6415 9.0169C10.5067 9.34236 10.1892 9.55456 9.83688 9.55456H3.49393C3.01291 9.55456 2.62304 9.16463 2.62304 8.6836V2.34066C2.62304 1.98836 2.83524 1.67081 3.16063 1.53601C3.48616 1.4012 3.8607 1.47577 4.10976 1.72483L5.94115 3.55614C8.85555 1.19564 12.4208 0 16 0C24.8224 7.06145e-05 32 7.17761 32 16C32 24.8225 24.8224 32 16 32C7.17754 32 -1.06891e-06 24.8224 -1.06891e-06 16C-1.06891e-06 13.8242 0.437245 11.7488 1.22742 9.85608Z" fill="url(#paint0_linear_1992_781)"/>
<path d="M26.0527 16.0006C26.0527 21.5523 21.5522 26.0528 16.0005 26.0528C10.4488 26.0528 5.94817 21.5523 5.94817 16.0006H16.0005V5.94824C21.5523 5.94824 26.0527 10.4488 26.0527 16.0006Z" fill="url(#paint1_linear_1992_781)"/>
</g>
<defs>
<linearGradient id="paint0_linear_1992_781" x1="16" y1="0" x2="16" y2="32" gradientUnits="userSpaceOnUse">
<stop stop-color="#FF93BB"/>
<stop offset="1" stop-color="#FF6CA3"/>
</linearGradient>
<linearGradient id="paint1_linear_1992_781" x1="16.0005" y1="5.94824" x2="16.0005" y2="26.0528" gradientUnits="userSpaceOnUse">
<stop stop-color="#FF93BB"/>
<stop offset="1" stop-color="#FF6CA3"/>
</linearGradient>
<clipPath id="clip0_1992_781">
<rect width="32" height="32" fill="white"/>
</clipPath>
</defs>
</svg>
