<svg width="84" height="84" viewBox="0 0 84 84" fill="none" xmlns="http://www.w3.org/2000/svg">
<g filter="url(#filter0_d_799_164)">
<path d="M63.5 57C63.5 57.7956 63.2103 58.5587 62.6945 59.1213C62.1788 59.6839 61.4793 60 60.75 60C60.0207 60 59.3212 59.6839 58.8055 59.1213C58.2897 58.5587 58 57.7956 58 57V21C58 20.2044 57.7103 19.4413 57.1945 18.8787C56.6788 18.3161 55.9793 18 55.25 18H16.75C16.0207 18 15.3212 18.3161 14.8055 18.8787C14.2897 19.4413 14 20.2044 14 21V60C14 61.5913 14.5795 63.1174 15.6109 64.2426C16.6424 65.3679 18.0413 66 19.5 66H60.75C65.2985 66 69 61.962 69 57V27H63.5V57ZM41.5 27H49.75V33H41.5V27ZM41.5 39H49.75V45H41.5V39ZM22.25 27H36V45H22.25V27ZM22.25 57V51H49.75V57H22.25Z" fill="url(#paint0_linear_799_164)"/>
</g>
<defs>
<filter id="filter0_d_799_164" x="10" y="18" width="63" height="56" filterUnits="userSpaceOnUse" color-interpolation-filters="sRGB">
<feFlood flood-opacity="0" result="BackgroundImageFix"/>
<feColorMatrix in="SourceAlpha" type="matrix" values="0 0 0 0 0 0 0 0 0 0 0 0 0 0 0 0 0 0 127 0" result="hardAlpha"/>
<feOffset dy="4"/>
<feGaussianBlur stdDeviation="2"/>
<feComposite in2="hardAlpha" operator="out"/>
<feColorMatrix type="matrix" values="0 0 0 0 0 0 0 0 0 0 0 0 0 0 0 0 0 0 0.25 0"/>
<feBlend mode="normal" in2="BackgroundImageFix" result="effect1_dropShadow_799_164"/>
<feBlend mode="normal" in="SourceGraphic" in2="effect1_dropShadow_799_164" result="shape"/>
</filter>
<linearGradient id="paint0_linear_799_164" x1="41.5" y1="18" x2="41.5" y2="66" gradientUnits="userSpaceOnUse">
<stop stop-color="white"/>
<stop offset="1" stop-color="#BFBFBF"/>
</linearGradient>
</defs>
</svg>
